<?xml version="1.0" encoding="utf-8" standalone="no"?>
<!DOCTYPE svg PUBLIC "-//W3C//DTD SVG 1.1//EN" "http://www.w3.org/Graphics/SVG/1.1/DTD/svg11.dtd">
<svg xmlns="http://www.w3.org/2000/svg" width="460.8pt" height="345.6pt" viewBox="0 0 460.8 345.6" version="1.1">
<defs>
<clipPath id="p1"><rect x="57.6" y="41.47" width="357.12" height="266.11"/></clipPath>
</defs>
<g id="figure_1">
<path d="M 0 345.6 L 460.8 345.6 L 460.8 0 L 0 0 z" fill="#ffffff"/>
<g id="axes_1">
<path d="M 57.6 307.58 L 414.72 307.58 L 414.72 41.47 L 57.6 41.47 z" fill="#ffffff"/>
<g id="grid_1">
<path d="M 73.83 307.58 L 73.83 41.47" fill="none" stroke="#b0b0b0" stroke-width="0.8" stroke-linejoin="round"/>
<path d="M 125.5 307.58 L 125.5 41.47" fill="none" stroke="#b0b0b0" stroke-width="0.8" stroke-linejoin="round"/>
<path d="M 177.17 307.58 L 177.17 41.47" fill="none" stroke="#b0b0b0" stroke-width="0.8" stroke-linejoin="round"/>
<path d="M 228.84 307.58 L 228.84 41.47" fill="none" stroke="#b0b0b0" stroke-width="0.8" stroke-linejoin="round"/>
<path d="M 280.51 307.58 L 280.51 41.47" fill="none" stroke="#b0b0b0" stroke-width="0.8" stroke-linejoin="round"/>
<path d="M 332.18 307.58 L 332.18 41.47" fill="none" stroke="#b0b0b0" stroke-width="0.8" stroke-linejoin="round"/>
<path d="M 383.85 307.58 L 383.85 41.47" fill="none" stroke="#b0b0b0" stroke-width="0.8" stroke-linejoin="round"/>
<path d="M 57.6 295.49 L 414.72 295.49" fill="none" stroke="#b0b0b0" stroke-width="0.8" stroke-linejoin="round"/>
<path d="M 57.6 265.25 L 414.72 265.25" fill="none" stroke="#b0b0b0" stroke-width="0.8" stroke-linejoin="round"/>
<path d="M 57.6 235.01 L 414.72 235.01" fill="none" stroke="#b0b0b0" stroke-width="0.8" stroke-linejoin="round"/>
<path d="M 57.6 204.77 L 414.72 204.77" fill="none" stroke="#b0b0b0" stroke-width="0.8" stroke-linejoin="round"/>
<path d="M 57.6 174.53 L 414.72 174.53" fill="none" stroke="#b0b0b0" stroke-width="0.8" stroke-linejoin="round"/>
<path d="M 57.6 144.29 L 414.72 144.29" fill="none" stroke="#b0b0b0" stroke-width="0.8" stroke-linejoin="round"/>
<path d="M 57.6 114.05 L 414.72 114.05" fill="none" stroke="#b0b0b0" stroke-width="0.8" stroke-linejoin="round"/>
<path d="M 57.6 83.81 L 414.72 83.81" fill="none" stroke="#b0b0b0" stroke-width="0.8" stroke-linejoin="round"/>
<path d="M 57.6 53.57 L 414.72 53.57" fill="none" stroke="#b0b0b0" stroke-width="0.8" stroke-linejoin="round"/>
</g>
<g id="line2d_1">
<path clip-path="url(#p1)" d="M 73.83 174.53 L 75.46 170.71 L 77.1 166.9 L 78.73 163.09 L 80.36 159.29 L 81.99 155.51 L 83.62 151.75 L 85.25 148.01 L 86.88 144.3 L 88.52 140.62 L 90.15 136.97 L 91.78 133.36 L 93.41 129.79 L 95.04 126.26 L 96.67 122.79 L 98.3 119.36 L 99.94 115.99 L 101.57 112.68 L 103.2 109.43 L 104.83 106.24 L 106.46 103.12 L 108.09 100.08 L 109.72 97.1 L 111.36 94.21 L 112.99 91.39 L 114.62 88.66 L 116.25 86.01 L 117.88 83.45 L 119.51 80.99 L 121.14 78.61 L 122.78 76.33 L 124.41 74.15 L 126.04 72.07 L 127.67 70.09 L 129.3 68.22 L 130.93 66.45 L 132.56 64.79 L 134.2 63.24 L 135.83 61.8 L 137.46 60.47 L 139.09 59.25 L 140.72 58.15 L 142.35 57.17 L 143.98 56.3 L 145.62 55.56 L 147.25 54.93 L 148.88 54.41 L 150.51 54.02 L 152.14 53.75 L 153.77 53.6 L 155.4 53.57 L 157.04 53.66 L 158.67 53.87 L 160.3 54.2 L 161.93 54.66 L 163.56 55.23 L 165.19 55.92 L 166.82 56.72 L 168.46 57.65 L 170.09 58.69 L 171.72 59.85 L 173.35 61.12 L 174.98 62.5 L 176.61 64 L 178.24 65.61 L 179.88 67.32 L 181.51 69.14 L 183.14 71.07 L 184.77 73.1 L 186.4 75.23 L 188.03 77.46 L 189.66 79.79 L 191.3 82.21 L 192.93 84.72 L 194.56 87.33 L 196.19 90.02 L 197.82 92.79 L 199.45 95.65 L 201.08 98.58 L 202.72 101.59 L 204.35 104.67 L 205.98 107.82 L 207.61 111.04 L 209.24 114.32 L 210.87 117.67 L 212.5 121.07 L 214.14 124.52 L 215.77 128.02 L 217.4 131.57 L 219.03 135.16 L 220.66 138.79 L 222.29 142.45 L 223.92 146.15 L 225.56 149.88 L 227.19 153.63 L 228.82 157.4 L 230.45 161.19 L 232.08 164.99 L 233.71 168.8 L 235.34 172.62 L 236.98 176.44 L 238.61 180.26 L 240.24 184.07 L 241.87 187.87 L 243.5 191.66 L 245.13 195.43 L 246.76 199.18 L 248.4 202.91 L 250.03 206.61 L 251.66 210.27 L 253.29 213.9 L 254.92 217.49 L 256.55 221.04 L 258.18 224.54 L 259.82 227.99 L 261.45 231.39 L 263.08 234.73 L 264.71 238.02 L 266.34 241.24 L 267.97 244.39 L 269.6 247.47 L 271.24 250.48 L 272.87 253.41 L 274.5 256.27 L 276.13 259.04 L 277.76 261.73 L 279.39 264.34 L 281.02 266.85 L 282.66 269.27 L 284.29 271.6 L 285.92 273.83 L 287.55 275.96 L 289.18 277.99 L 290.81 279.92 L 292.44 281.74 L 294.08 283.45 L 295.71 285.06 L 297.34 286.56 L 298.97 287.94 L 300.6 289.21 L 302.23 290.37 L 303.86 291.41 L 305.5 292.34 L 307.13 293.14 L 308.76 293.83 L 310.39 294.4 L 312.02 294.86 L 313.65 295.19 L 315.28 295.4 L 316.92 295.49 L 318.55 295.46 L 320.18 295.31 L 321.81 295.04 L 323.44 294.64 L 325.07 294.13 L 326.7 293.5 L 328.34 292.76 L 329.97 291.89 L 331.6 290.9 L 333.23 289.81 L 334.86 288.59 L 336.49 287.26 L 338.12 285.82 L 339.76 284.27 L 341.39 282.61 L 343.02 280.84 L 344.65 278.97 L 346.28 276.99 L 347.91 274.91 L 349.54 272.73 L 351.18 270.45 L 352.81 268.07 L 354.44 265.6 L 356.07 263.05 L 357.7 260.4 L 359.33 257.67 L 360.96 254.85 L 362.6 251.96 L 364.23 248.98 L 365.86 245.94 L 367.49 242.82 L 369.12 239.63 L 370.75 236.38 L 372.38 233.07 L 374.02 229.7 L 375.65 226.27 L 377.28 222.8 L 378.91 219.27 L 380.54 215.7 L 382.17 212.09 L 383.8 208.44 L 385.44 204.76 L 387.07 201.05 L 388.7 197.31 L 390.33 193.55 L 391.96 189.77 L 393.59 185.97 L 395.22 182.16 L 396.86 178.35 L 398.49 174.53" fill="none" stroke="#1f77b4" stroke-width="2" stroke-linecap="square" stroke-linejoin="round"/>
</g>
<g id="line2d_2">
<path clip-path="url(#p1)" d="M 73.83 53.57 L 75.46 53.63 L 77.1 53.81 L 78.73 54.11 L 80.36 54.53 L 81.99 55.07 L 83.62 55.73 L 85.25 56.51 L 86.88 57.41 L 88.52 58.42 L 90.15 59.55 L 91.78 60.79 L 93.41 62.15 L 95.04 63.62 L 96.67 65.19 L 98.3 66.88 L 99.94 68.68 L 101.57 70.58 L 103.2 72.58 L 104.83 74.69 L 106.46 76.89 L 108.09 79.2 L 109.72 81.6 L 111.36 84.09 L 112.99 86.67 L 114.62 89.34 L 116.25 92.09 L 117.88 94.92 L 119.51 97.84 L 121.14 100.83 L 122.78 103.89 L 124.41 107.03 L 126.04 110.23 L 127.67 113.5 L 129.3 116.83 L 130.93 120.21 L 132.56 123.65 L 134.2 127.14 L 135.83 130.68 L 137.46 134.26 L 139.09 137.88 L 140.72 141.54 L 142.35 145.23 L 143.98 148.94 L 145.62 152.69 L 147.25 156.46 L 148.88 160.24 L 150.51 164.04 L 152.14 167.85 L 153.77 171.67 L 155.4 175.48 L 157.04 179.3 L 158.67 183.12 L 160.3 186.92 L 161.93 190.71 L 163.56 194.49 L 165.19 198.25 L 166.82 201.98 L 168.46 205.68 L 170.09 209.36 L 171.72 213 L 173.35 216.6 L 174.98 220.16 L 176.61 223.67 L 178.24 227.14 L 179.88 230.55 L 181.51 233.9 L 183.14 237.2 L 184.77 240.44 L 186.4 243.61 L 188.03 246.71 L 189.66 249.73 L 191.3 252.69 L 192.93 255.56 L 194.56 258.36 L 196.19 261.07 L 197.82 263.69 L 199.45 266.23 L 201.08 268.67 L 202.72 271.03 L 204.35 273.28 L 205.98 275.44 L 207.61 277.49 L 209.24 279.44 L 210.87 281.29 L 212.5 283.03 L 214.14 284.67 L 215.77 286.19 L 217.4 287.61 L 219.03 288.91 L 220.66 290.09 L 222.29 291.16 L 223.92 292.12 L 225.56 292.95 L 227.19 293.67 L 228.82 294.27 L 230.45 294.75 L 232.08 295.12 L 233.71 295.36 L 235.34 295.48 L 236.98 295.48 L 238.61 295.36 L 240.24 295.12 L 241.87 294.75 L 243.5 294.27 L 245.13 293.67 L 246.76 292.95 L 248.4 292.12 L 250.03 291.16 L 251.66 290.09 L 253.29 288.91 L 254.92 287.61 L 256.55 286.19 L 258.18 284.67 L 259.82 283.03 L 261.45 281.29 L 263.08 279.44 L 264.71 277.49 L 266.34 275.44 L 267.97 273.28 L 269.6 271.03 L 271.24 268.67 L 272.87 266.23 L 274.5 263.69 L 276.13 261.07 L 277.76 258.36 L 279.39 255.56 L 281.02 252.69 L 282.66 249.73 L 284.29 246.71 L 285.92 243.61 L 287.55 240.44 L 289.18 237.2 L 290.81 233.9 L 292.44 230.55 L 294.08 227.14 L 295.71 223.67 L 297.34 220.16 L 298.97 216.6 L 300.6 213 L 302.23 209.36 L 303.86 205.68 L 305.5 201.98 L 307.13 198.25 L 308.76 194.49 L 310.39 190.71 L 312.02 186.92 L 313.65 183.12 L 315.28 179.3 L 316.92 175.48 L 318.55 171.67 L 320.18 167.85 L 321.81 164.04 L 323.44 160.24 L 325.07 156.46 L 326.7 152.69 L 328.34 148.94 L 329.97 145.23 L 331.6 141.54 L 333.23 137.88 L 334.86 134.26 L 336.49 130.68 L 338.12 127.14 L 339.76 123.65 L 341.39 120.21 L 343.02 116.83 L 344.65 113.5 L 346.28 110.23 L 347.91 107.03 L 349.54 103.89 L 351.18 100.83 L 352.81 97.84 L 354.44 94.92 L 356.07 92.09 L 357.7 89.34 L 359.33 86.67 L 360.96 84.09 L 362.6 81.6 L 364.23 79.2 L 365.86 76.89 L 367.49 74.69 L 369.12 72.58 L 370.75 70.58 L 372.38 68.68 L 374.02 66.88 L 375.65 65.19 L 377.28 63.62 L 378.91 62.15 L 380.54 60.79 L 382.17 59.55 L 383.8 58.42 L 385.44 57.41 L 387.07 56.51 L 388.7 55.73 L 390.33 55.07 L 391.96 54.53 L 393.59 54.11 L 395.22 53.81 L 396.86 53.63 L 398.49 53.57" fill="none" stroke="#ff7f0e" stroke-width="1.5" stroke-dasharray="5.55,2.4" stroke-linejoin="round"/>
</g>
<g id="spines_1">
<path d="M 57.6 307.58 L 414.72 307.58 L 414.72 41.47 L 57.6 41.47 z" fill="none" stroke="#000000" stroke-width="0.8" stroke-linecap="square" stroke-linejoin="round"/>
</g>
<g id="xtick_1">
<path d="M 73.83 307.58 L 73.83 311.08" fill="none" stroke="#000000" stroke-width="0.8" stroke-linejoin="round"/>
<text x="73.83" y="314.58" dy="0.8em" font-family="DejaVu Sans, sans-serif" font-size="10" fill="#000000" text-anchor="middle">0</text>
<path d="M 125.5 307.58 L 125.5 311.08" fill="none" stroke="#000000" stroke-width="0.8" stroke-linejoin="round"/>
<text x="125.5" y="314.58" dy="0.8em" font-family="DejaVu Sans, sans-serif" font-size="10" fill="#000000" text-anchor="middle">1</text>
<path d="M 177.17 307.58 L 177.17 311.08" fill="none" stroke="#000000" stroke-width="0.8" stroke-linejoin="round"/>
<text x="177.17" y="314.58" dy="0.8em" font-family="DejaVu Sans, sans-serif" font-size="10" fill="#000000" text-anchor="middle">2</text>
<path d="M 228.84 307.58 L 228.84 311.08" fill="none" stroke="#000000" stroke-width="0.8" stroke-linejoin="round"/>
<text x="228.84" y="314.58" dy="0.8em" font-family="DejaVu Sans, sans-serif" font-size="10" fill="#000000" text-anchor="middle">3</text>
<path d="M 280.51 307.58 L 280.51 311.08" fill="none" stroke="#000000" stroke-width="0.8" stroke-linejoin="round"/>
<text x="280.51" y="314.58" dy="0.8em" font-family="DejaVu Sans, sans-serif" font-size="10" fill="#000000" text-anchor="middle">4</text>
<path d="M 332.18 307.58 L 332.18 311.08" fill="none" stroke="#000000" stroke-width="0.8" stroke-linejoin="round"/>
<text x="332.18" y="314.58" dy="0.8em" font-family="DejaVu Sans, sans-serif" font-size="10" fill="#000000" text-anchor="middle">5</text>
<path d="M 383.85 307.58 L 383.85 311.08" fill="none" stroke="#000000" stroke-width="0.8" stroke-linejoin="round"/>
<text x="383.85" y="314.58" dy="0.8em" font-family="DejaVu Sans, sans-serif" font-size="10" fill="#000000" text-anchor="middle">6</text>
</g>
<g id="ytick_1">
<path d="M 57.6 295.49 L 54.1 295.49" fill="none" stroke="#000000" stroke-width="0.8" stroke-linejoin="round"/>
<text x="50.6" y="295.49" dy="0.35em" font-family="DejaVu Sans, sans-serif" font-size="10" fill="#000000" text-anchor="end">−1.00</text>
<path d="M 57.6 265.25 L 54.1 265.25" fill="none" stroke="#000000" stroke-width="0.8" stroke-linejoin="round"/>
<text x="50.6" y="265.25" dy="0.35em" font-family="DejaVu Sans, sans-serif" font-size="10" fill="#000000" text-anchor="end">−0.75</text>
<path d="M 57.6 235.01 L 54.1 235.01" fill="none" stroke="#000000" stroke-width="0.8" stroke-linejoin="round"/>
<text x="50.6" y="235.01" dy="0.35em" font-family="DejaVu Sans, sans-serif" font-size="10" fill="#000000" text-anchor="end">−0.50</text>
<path d="M 57.6 204.77 L 54.1 204.77" fill="none" stroke="#000000" stroke-width="0.8" stroke-linejoin="round"/>
<text x="50.6" y="204.77" dy="0.35em" font-family="DejaVu Sans, sans-serif" font-size="10" fill="#000000" text-anchor="end">−0.25</text>
<path d="M 57.6 174.53 L 54.1 174.53" fill="none" stroke="#000000" stroke-width="0.8" stroke-linejoin="round"/>
<text x="50.6" y="174.53" dy="0.35em" font-family="DejaVu Sans, sans-serif" font-size="10" fill="#000000" text-anchor="end">0.00</text>
<path d="M 57.6 144.29 L 54.1 144.29" fill="none" stroke="#000000" stroke-width="0.8" stroke-linejoin="round"/>
<text x="50.6" y="144.29" dy="0.35em" font-family="DejaVu Sans, sans-serif" font-size="10" fill="#000000" text-anchor="end">0.25</text>
<path d="M 57.6 114.05 L 54.1 114.05" fill="none" stroke="#000000" stroke-width="0.8" stroke-linejoin="round"/>
<text x="50.6" y="114.05" dy="0.35em" font-family="DejaVu Sans, sans-serif" font-size="10" fill="#000000" text-anchor="end">0.50</text>
<path d="M 57.6 83.81 L 54.1 83.81" fill="none" stroke="#000000" stroke-width="0.8" stroke-linejoin="round"/>
<text x="50.6" y="83.81" dy="0.35em" font-family="DejaVu Sans, sans-serif" font-size="10" fill="#000000" text-anchor="end">0.75</text>
<path d="M 57.6 53.57 L 54.1 53.57" fill="none" stroke="#000000" stroke-width="0.8" stroke-linejoin="round"/>
<text x="50.6" y="53.57" dy="0.35em" font-family="DejaVu Sans, sans-serif" font-size="10" fill="#000000" text-anchor="end">1.00</text>
</g>
<g id="text_1">
<text x="236.16" y="328.58" dy="0.8em" font-family="DejaVu Sans, sans-serif" font-size="10" fill="#000000" text-anchor="middle">x [rad]</text>
</g>
<g id="text_2">
<text x="16.6" y="174.53" dy="-0.2em" font-family="DejaVu Sans, sans-serif" font-size="10" fill="#000000" text-anchor="middle" transform="rotate(-90 16.6 174.53)">amplitude</text>
</g>
<g id="text_3">
<text x="236.16" y="35.47" dy="-0.2em" font-family="DejaVu Sans, sans-serif" font-size="12" fill="#000000" text-anchor="middle">Hello graphlib</text>
</g>
</g>
</g>
</svg>
