<?xml version="1.0" encoding="utf-8" standalone="no"?>
<!DOCTYPE svg PUBLIC "-//W3C//DTD SVG 1.1//EN" "http://www.w3.org/Graphics/SVG/1.1/DTD/svg11.dtd">
<svg xmlns="http://www.w3.org/2000/svg" width="460.8pt" height="345.6pt" viewBox="0 0 460.8 345.6" version="1.1">
<defs>
<clipPath id="p1"><rect x="57.6" y="41.47" width="357.12" height="266.11"/></clipPath>
<path id="m1" d="M 0 -3 L -3 3 L 3 3 z"/>
<path id="m2" d="M 0 1.5 C 0.4 1.5 0.78 1.34 1.06 1.06 C 1.34 0.78 1.5 0.4 1.5 0 C 1.5 -0.4 1.34 -0.78 1.06 -1.06 C 0.78 -1.34 0.4 -1.5 0 -1.5 C -0.4 -1.5 -0.78 -1.34 -1.06 -1.06 C -1.34 -0.78 -1.5 -0.4 -1.5 0 C -1.5 0.4 -1.34 0.78 -1.06 1.06 C -0.78 1.34 -0.4 1.5 0 1.5 z"/>
</defs>
<g id="figure_1">
<path d="M 0 345.6 L 460.8 345.6 L 460.8 0 L 0 0 z" fill="#ffffff"/>
<g id="axes_1">
<path d="M 57.6 307.58 L 414.72 307.58 L 414.72 41.47 L 57.6 41.47 z" fill="#ffffff"/>
<g id="grid_1">
<path d="M 122.38 307.58 L 122.38 41.47" fill="none" stroke="#b0b0b0" stroke-width="0.8" stroke-linejoin="round"/>
<path d="M 189.19 307.58 L 189.19 41.47" fill="none" stroke="#b0b0b0" stroke-width="0.8" stroke-linejoin="round"/>
<path d="M 255.99 307.58 L 255.99 41.47" fill="none" stroke="#b0b0b0" stroke-width="0.8" stroke-linejoin="round"/>
<path d="M 322.8 307.58 L 322.8 41.47" fill="none" stroke="#b0b0b0" stroke-width="0.8" stroke-linejoin="round"/>
<path d="M 389.61 307.58 L 389.61 41.47" fill="none" stroke="#b0b0b0" stroke-width="0.8" stroke-linejoin="round"/>
<path d="M 57.6 265.76 L 414.72 265.76" fill="none" stroke="#b0b0b0" stroke-width="0.8" stroke-linejoin="round"/>
<path d="M 57.6 216.48 L 414.72 216.48" fill="none" stroke="#b0b0b0" stroke-width="0.8" stroke-linejoin="round"/>
<path d="M 57.6 167.2 L 414.72 167.2" fill="none" stroke="#b0b0b0" stroke-width="0.8" stroke-linejoin="round"/>
<path d="M 57.6 117.91 L 414.72 117.91" fill="none" stroke="#b0b0b0" stroke-width="0.8" stroke-linejoin="round"/>
<path d="M 57.6 68.63 L 414.72 68.63" fill="none" stroke="#b0b0b0" stroke-width="0.8" stroke-linejoin="round"/>
</g>
<g id="pathcollection_1">
<path clip-path="url(#p1)" d="M 255.99 168.7 C 256.39 168.7 256.77 168.54 257.05 168.26 C 257.33 167.98 257.49 167.59 257.49 167.2 C 257.49 166.8 257.33 166.42 257.05 166.14 C 256.77 165.85 256.39 165.7 255.99 165.7 C 255.59 165.7 255.21 165.85 254.93 166.14 C 254.65 166.42 254.49 166.8 254.49 167.2 C 254.49 167.59 254.65 167.98 254.93 168.26 C 255.21 168.54 255.59 168.7 255.99 168.7 z" fill="#1f77b4" stroke="#1f77b4" stroke-width="1" stroke-linejoin="round"/>
<path clip-path="url(#p1)" d="M 258.77 168.04 C 259.22 168.04 259.65 167.86 259.97 167.54 C 260.28 167.22 260.46 166.79 260.46 166.34 C 260.46 165.89 260.28 165.46 259.97 165.14 C 259.65 164.82 259.22 164.65 258.77 164.65 C 258.32 164.65 257.89 164.82 257.57 165.14 C 257.25 165.46 257.07 165.89 257.07 166.34 C 257.07 166.79 257.25 167.22 257.57 167.54 C 257.89 167.86 258.32 168.04 258.77 168.04 z" fill="#1f77b4" stroke="#1f77b4" stroke-width="1" stroke-linejoin="round"/>
<path clip-path="url(#p1)" d="M 260.22 165.91 C 260.71 165.91 261.19 165.71 261.54 165.36 C 261.89 165.01 262.09 164.54 262.09 164.04 C 262.09 163.54 261.89 163.07 261.54 162.72 C 261.19 162.37 260.71 162.17 260.22 162.17 C 259.72 162.17 259.24 162.37 258.89 162.72 C 258.54 163.07 258.34 163.54 258.34 164.04 C 258.34 164.54 258.54 165.01 258.89 165.36 C 259.24 165.71 259.72 165.91 260.22 165.91 z" fill="#1f77b4" stroke="#1f77b4" stroke-width="1" stroke-linejoin="round"/>
<path clip-path="url(#p1)" d="M 259.36 163.06 C 259.9 163.06 260.42 162.84 260.8 162.46 C 261.18 162.08 261.39 161.56 261.39 161.02 C 261.39 160.49 261.18 159.97 260.8 159.59 C 260.42 159.21 259.9 158.99 259.36 158.99 C 258.82 158.99 258.31 159.21 257.92 159.59 C 257.54 159.97 257.33 160.49 257.33 161.02 C 257.33 161.56 257.54 162.08 257.92 162.46 C 258.31 162.84 258.82 163.06 259.36 163.06 z" fill="#1f77b4" stroke="#1f77b4" stroke-width="1" stroke-linejoin="round"/>
<path clip-path="url(#p1)" d="M 255.83 160.51 C 256.41 160.51 256.97 160.28 257.37 159.87 C 257.78 159.46 258.01 158.9 258.01 158.33 C 258.01 157.75 257.78 157.19 257.37 156.78 C 256.97 156.38 256.41 156.15 255.83 156.15 C 255.26 156.15 254.7 156.38 254.29 156.78 C 253.88 157.19 253.65 157.75 253.65 158.33 C 253.65 158.9 253.88 159.46 254.29 159.87 C 254.7 160.28 255.26 160.51 255.83 160.51 z" fill="#1f77b4" stroke="#1f77b4" stroke-width="1" stroke-linejoin="round"/>
<path clip-path="url(#p1)" d="M 250.01 159.34 C 250.63 159.34 251.22 159.1 251.65 158.66 C 252.09 158.23 252.33 157.64 252.33 157.02 C 252.33 156.41 252.09 155.82 251.65 155.38 C 251.22 154.95 250.63 154.7 250.01 154.7 C 249.4 154.7 248.81 154.95 248.37 155.38 C 247.94 155.82 247.69 156.41 247.69 157.02 C 247.69 157.64 247.94 158.23 248.37 158.66 C 248.81 159.1 249.4 159.34 250.01 159.34 z" fill="#1f77b4" stroke="#1f77b4" stroke-width="1" stroke-linejoin="round"/>
<path clip-path="url(#p1)" d="M 242.99 160.42 C 243.64 160.42 244.26 160.17 244.72 159.71 C 245.18 159.25 245.44 158.62 245.44 157.98 C 245.44 157.33 245.18 156.7 244.72 156.24 C 244.26 155.78 243.64 155.53 242.99 155.53 C 242.34 155.53 241.71 155.78 241.26 156.24 C 240.8 156.7 240.54 157.33 240.54 157.98 C 240.54 158.62 240.8 159.25 241.26 159.71 C 241.71 160.17 242.34 160.42 242.99 160.42 z" fill="#1f77b4" stroke="#1f77b4" stroke-width="1" stroke-linejoin="round"/>
<path clip-path="url(#p1)" d="M 236.37 164.16 C 237.05 164.16 237.71 163.89 238.19 163.41 C 238.67 162.93 238.94 162.27 238.94 161.59 C 238.94 160.91 238.67 160.25 238.19 159.77 C 237.71 159.29 237.05 159.01 236.37 159.01 C 235.69 159.01 235.03 159.29 234.55 159.77 C 234.07 160.25 233.8 160.91 233.8 161.59 C 233.8 162.27 234.07 162.93 234.55 163.41 C 235.03 163.89 235.69 164.16 236.37 164.16 z" fill="#1f77b4" stroke="#1f77b4" stroke-width="1" stroke-linejoin="round"/>
<path clip-path="url(#p1)" d="M 231.95 170.36 C 232.66 170.36 233.35 170.07 233.85 169.57 C 234.36 169.06 234.64 168.38 234.64 167.66 C 234.64 166.95 234.36 166.27 233.85 165.76 C 233.35 165.26 232.66 164.97 231.95 164.97 C 231.24 164.97 230.55 165.26 230.05 165.76 C 229.54 166.27 229.26 166.95 229.26 167.66 C 229.26 168.38 229.54 169.06 230.05 169.57 C 230.55 170.07 231.24 170.36 231.95 170.36 z" fill="#1f77b4" stroke="#1f77b4" stroke-width="1" stroke-linejoin="round"/>
<path clip-path="url(#p1)" d="M 231.31 178.18 C 232.06 178.18 232.77 177.89 233.3 177.36 C 233.82 176.84 234.12 176.12 234.12 175.38 C 234.12 174.63 233.82 173.92 233.3 173.39 C 232.77 172.87 232.06 172.57 231.31 172.57 C 230.57 172.57 229.86 172.87 229.33 173.39 C 228.8 173.92 228.51 174.63 228.51 175.38 C 228.51 176.12 228.8 176.84 229.33 177.36 C 229.86 177.89 230.57 178.18 231.31 178.18 z" fill="#1f77b4" stroke="#1f77b4" stroke-width="1" stroke-linejoin="round"/>
<path clip-path="url(#p1)" d="M 235.45 186.3 C 236.22 186.3 236.96 186 237.51 185.45 C 238.06 184.9 238.36 184.16 238.36 183.39 C 238.36 182.61 238.06 181.87 237.51 181.33 C 236.96 180.78 236.22 180.47 235.45 180.47 C 234.67 180.47 233.93 180.78 233.39 181.33 C 232.84 181.87 232.53 182.61 232.53 183.39 C 232.53 184.16 232.84 184.9 233.39 185.45 C 233.93 186 234.67 186.3 235.45 186.3 z" fill="#1f77b4" stroke="#1f77b4" stroke-width="1" stroke-linejoin="round"/>
<path clip-path="url(#p1)" d="M 244.45 193.08 C 245.26 193.08 246.02 192.76 246.59 192.19 C 247.16 191.63 247.48 190.86 247.48 190.06 C 247.48 189.26 247.16 188.49 246.59 187.92 C 246.02 187.36 245.26 187.04 244.45 187.04 C 243.65 187.04 242.89 187.36 242.32 187.92 C 241.75 188.49 241.43 189.26 241.43 190.06 C 241.43 190.86 241.75 191.63 242.32 192.19 C 242.89 192.76 243.65 193.08 244.45 193.08 z" fill="#1f77b4" stroke="#1f77b4" stroke-width="1" stroke-linejoin="round"/>
<path clip-path="url(#p1)" d="M 257.42 196.91 C 258.25 196.91 259.04 196.58 259.63 196 C 260.21 195.41 260.54 194.62 260.54 193.79 C 260.54 192.96 260.21 192.17 259.63 191.58 C 259.04 190.99 258.25 190.67 257.42 190.67 C 256.59 190.67 255.8 190.99 255.21 191.58 C 254.63 192.17 254.3 192.96 254.3 193.79 C 254.3 194.62 254.63 195.41 255.21 196 C 255.8 196.58 256.59 196.91 257.42 196.91 z" fill="#1f77b4" stroke="#1f77b4" stroke-width="1" stroke-linejoin="round"/>
<path clip-path="url(#p1)" d="M 272.48 196.56 C 273.34 196.56 274.16 196.22 274.76 195.61 C 275.37 195.01 275.7 194.19 275.7 193.33 C 275.7 192.48 275.37 191.66 274.76 191.06 C 274.16 190.45 273.34 190.11 272.48 190.11 C 271.63 190.11 270.81 190.45 270.21 191.06 C 269.6 191.66 269.26 192.48 269.26 193.33 C 269.26 194.19 269.6 195.01 270.21 195.61 C 270.81 196.22 271.63 196.56 272.48 196.56 z" fill="#1f77b4" stroke="#1f77b4" stroke-width="1" stroke-linejoin="round"/>
<path clip-path="url(#p1)" d="M 287.1 191.43 C 287.98 191.43 288.82 191.08 289.44 190.46 C 290.06 189.84 290.41 188.99 290.41 188.11 C 290.41 187.23 290.06 186.39 289.44 185.77 C 288.82 185.15 287.98 184.8 287.1 184.8 C 286.22 184.8 285.37 185.15 284.75 185.77 C 284.13 186.39 283.78 187.23 283.78 188.11 C 283.78 188.99 284.13 189.84 284.75 190.46 C 285.37 191.08 286.22 191.43 287.1 191.43 z" fill="#1f77b4" stroke="#1f77b4" stroke-width="1" stroke-linejoin="round"/>
<path clip-path="url(#p1)" d="M 298.46 181.8 C 299.36 181.8 300.23 181.44 300.87 180.8 C 301.51 180.16 301.87 179.29 301.87 178.39 C 301.87 177.49 301.51 176.62 300.87 175.98 C 300.23 175.34 299.36 174.98 298.46 174.98 C 297.55 174.98 296.69 175.34 296.05 175.98 C 295.41 176.62 295.05 177.49 295.05 178.39 C 295.05 179.29 295.41 180.16 296.05 180.8 C 296.69 181.44 297.55 181.8 298.46 181.8 z" fill="#1f77b4" stroke="#1f77b4" stroke-width="1" stroke-linejoin="round"/>
<path clip-path="url(#p1)" d="M 304.03 168.82 C 304.95 168.82 305.84 168.45 306.5 167.8 C 307.16 167.14 307.53 166.25 307.53 165.32 C 307.53 164.39 307.16 163.5 306.5 162.85 C 305.84 162.19 304.95 161.82 304.03 161.82 C 303.1 161.82 302.21 162.19 301.55 162.85 C 300.89 163.5 300.53 164.39 300.53 165.32 C 300.53 166.25 300.89 167.14 301.55 167.8 C 302.21 168.45 303.1 168.82 304.03 168.82 z" fill="#1f77b4" stroke="#1f77b4" stroke-width="1" stroke-linejoin="round"/>
<path clip-path="url(#p1)" d="M 302.04 154.43 C 302.99 154.43 303.9 154.05 304.58 153.37 C 305.25 152.7 305.63 151.79 305.63 150.84 C 305.63 149.89 305.25 148.97 304.58 148.3 C 303.9 147.63 302.99 147.25 302.04 147.25 C 301.09 147.25 300.17 147.63 299.5 148.3 C 298.83 148.97 298.45 149.89 298.45 150.84 C 298.45 151.79 298.83 152.7 299.5 153.37 C 300.17 154.05 301.09 154.43 302.04 154.43 z" fill="#1f77b4" stroke="#1f77b4" stroke-width="1" stroke-linejoin="round"/>
<path clip-path="url(#p1)" d="M 291.92 141.02 C 292.89 141.02 293.83 140.63 294.51 139.94 C 295.2 139.25 295.59 138.32 295.59 137.34 C 295.59 136.37 295.2 135.43 294.51 134.74 C 293.83 134.06 292.89 133.67 291.92 133.67 C 290.94 133.67 290.01 134.06 289.32 134.74 C 288.63 135.43 288.24 136.37 288.24 137.34 C 288.24 138.32 288.63 139.25 289.32 139.94 C 290.01 140.63 290.94 141.02 291.92 141.02 z" fill="#1f77b4" stroke="#1f77b4" stroke-width="1" stroke-linejoin="round"/>
<path clip-path="url(#p1)" d="M 274.5 131.09 C 275.5 131.09 276.45 130.69 277.16 129.99 C 277.86 129.29 278.26 128.33 278.26 127.33 C 278.26 126.34 277.86 125.38 277.16 124.67 C 276.45 123.97 275.5 123.57 274.5 123.57 C 273.5 123.57 272.55 123.97 271.84 124.67 C 271.14 125.38 270.74 126.34 270.74 127.33 C 270.74 128.33 271.14 129.29 271.84 129.99 C 272.55 130.69 273.5 131.09 274.5 131.09 z" fill="#1f77b4" stroke="#1f77b4" stroke-width="1" stroke-linejoin="round"/>
<path clip-path="url(#p1)" d="M 252.03 126.78 C 253.04 126.78 254.02 126.37 254.74 125.65 C 255.46 124.93 255.87 123.96 255.87 122.94 C 255.87 121.92 255.46 120.94 254.74 120.22 C 254.02 119.5 253.04 119.1 252.03 119.1 C 251.01 119.1 250.03 119.5 249.31 120.22 C 248.59 120.94 248.19 121.92 248.19 122.94 C 248.19 123.96 248.59 124.93 249.31 125.65 C 250.03 126.37 251.01 126.78 252.03 126.78 z" fill="#1f77b4" stroke="#1f77b4" stroke-width="1" stroke-linejoin="round"/>
<path clip-path="url(#p1)" d="M 227.85 129.43 C 228.89 129.43 229.89 129.01 230.62 128.28 C 231.36 127.54 231.77 126.55 231.77 125.51 C 231.77 124.47 231.36 123.47 230.62 122.73 C 229.89 122 228.89 121.59 227.85 121.59 C 226.81 121.59 225.81 122 225.08 122.73 C 224.34 123.47 223.93 124.47 223.93 125.51 C 223.93 126.55 224.34 127.54 225.08 128.28 C 225.81 129.01 226.81 129.43 227.85 129.43 z" fill="#1f77b4" stroke="#1f77b4" stroke-width="1" stroke-linejoin="round"/>
<path clip-path="url(#p1)" d="M 205.96 139.29 C 207.02 139.29 208.03 138.87 208.78 138.12 C 209.53 137.37 209.96 136.35 209.96 135.29 C 209.96 134.23 209.53 133.21 208.78 132.46 C 208.03 131.71 207.02 131.29 205.96 131.29 C 204.89 131.29 203.88 131.71 203.13 132.46 C 202.38 133.21 201.96 134.23 201.96 135.29 C 201.96 136.35 202.38 137.37 203.13 138.12 C 203.88 138.87 204.89 139.29 205.96 139.29 z" fill="#1f77b4" stroke="#1f77b4" stroke-width="1" stroke-linejoin="round"/>
<path clip-path="url(#p1)" d="M 190.29 155.38 C 191.37 155.38 192.41 154.95 193.17 154.19 C 193.94 153.43 194.37 152.39 194.37 151.31 C 194.37 150.23 193.94 149.19 193.17 148.42 C 192.41 147.66 191.37 147.23 190.29 147.23 C 189.21 147.23 188.17 147.66 187.4 148.42 C 186.64 149.19 186.21 150.23 186.21 151.31 C 186.21 152.39 186.64 153.43 187.4 154.19 C 188.17 154.95 189.21 155.38 190.29 155.38 z" fill="#1f77b4" stroke="#1f77b4" stroke-width="1" stroke-linejoin="round"/>
<path clip-path="url(#p1)" d="M 184.07 175.56 C 185.17 175.56 186.23 175.12 187 174.35 C 187.78 173.57 188.22 172.51 188.22 171.41 C 188.22 170.31 187.78 169.25 187 168.47 C 186.23 167.69 185.17 167.26 184.07 167.26 C 182.97 167.26 181.91 167.69 181.13 168.47 C 180.35 169.25 179.91 170.31 179.91 171.41 C 179.91 172.51 180.35 173.57 181.13 174.35 C 181.91 175.12 182.97 175.56 184.07 175.56 z" fill="#1f77b4" stroke="#1f77b4" stroke-width="1" stroke-linejoin="round"/>
<path clip-path="url(#p1)" d="M 189.16 196.79 C 190.28 196.79 191.36 196.35 192.15 195.55 C 192.95 194.76 193.39 193.68 193.39 192.56 C 193.39 191.44 192.95 190.37 192.15 189.57 C 191.36 188.78 190.28 188.34 189.16 188.34 C 188.04 188.34 186.97 188.78 186.17 189.57 C 185.38 190.37 184.94 191.44 184.94 192.56 C 184.94 193.68 185.38 194.76 186.17 195.55 C 186.97 196.35 188.04 196.79 189.16 196.79 z" fill="#1f77b4" stroke="#1f77b4" stroke-width="1" stroke-linejoin="round"/>
<path clip-path="url(#p1)" d="M 205.66 215.61 C 206.8 215.61 207.9 215.16 208.7 214.36 C 209.51 213.55 209.96 212.45 209.96 211.31 C 209.96 210.17 209.51 209.08 208.7 208.27 C 207.9 207.47 206.8 207.01 205.66 207.01 C 204.52 207.01 203.43 207.47 202.62 208.27 C 201.82 209.08 201.36 210.17 201.36 211.31 C 201.36 212.45 201.82 213.55 202.62 214.36 C 203.43 215.16 204.52 215.61 205.66 215.61 z" fill="#1f77b4" stroke="#1f77b4" stroke-width="1" stroke-linejoin="round"/>
<path clip-path="url(#p1)" d="M 231.73 228.71 C 232.89 228.71 234 228.25 234.82 227.43 C 235.64 226.61 236.1 225.5 236.1 224.34 C 236.1 223.18 235.64 222.06 234.82 221.24 C 234 220.42 232.89 219.96 231.73 219.96 C 230.57 219.96 229.46 220.42 228.64 221.24 C 227.82 222.06 227.35 223.18 227.35 224.34 C 227.35 225.5 227.82 226.61 228.64 227.43 C 229.46 228.25 230.57 228.71 231.73 228.71 z" fill="#1f77b4" stroke="#1f77b4" stroke-width="1" stroke-linejoin="round"/>
<path clip-path="url(#p1)" d="M 263.76 233.47 C 264.94 233.47 266.07 233 266.9 232.17 C 267.74 231.34 268.21 230.21 268.21 229.03 C 268.21 227.85 267.74 226.72 266.9 225.89 C 266.07 225.05 264.94 224.58 263.76 224.58 C 262.58 224.58 261.45 225.05 260.62 225.89 C 259.79 226.72 259.32 227.85 259.32 229.03 C 259.32 230.21 259.79 231.34 260.62 232.17 C 261.45 233 262.58 233.47 263.76 233.47 z" fill="#1f77b4" stroke="#1f77b4" stroke-width="1" stroke-linejoin="round"/>
<path clip-path="url(#p1)" d="M 296.9 228.5 C 298.1 228.5 299.25 228.03 300.09 227.18 C 300.94 226.34 301.42 225.19 301.42 223.99 C 301.42 222.79 300.94 221.65 300.09 220.8 C 299.25 219.95 298.1 219.48 296.9 219.48 C 295.7 219.48 294.56 219.95 293.71 220.8 C 292.86 221.65 292.39 222.79 292.39 223.99 C 292.39 225.19 292.86 226.34 293.71 227.18 C 294.56 228.03 295.7 228.5 296.9 228.5 z" fill="#1f77b4" stroke="#1f77b4" stroke-width="1" stroke-linejoin="round"/>
<path clip-path="url(#p1)" d="M 325.76 213.94 C 326.97 213.94 328.14 213.46 329 212.6 C 329.86 211.74 330.34 210.58 330.34 209.36 C 330.34 208.14 329.86 206.98 329 206.12 C 328.14 205.26 326.97 204.78 325.76 204.78 C 324.54 204.78 323.38 205.26 322.52 206.12 C 321.66 206.98 321.18 208.14 321.18 209.36 C 321.18 210.58 321.66 211.74 322.52 212.6 C 323.38 213.46 324.54 213.94 325.76 213.94 z" fill="#1f77b4" stroke="#1f77b4" stroke-width="1" stroke-linejoin="round"/>
<path clip-path="url(#p1)" d="M 345.29 191.53 C 346.52 191.53 347.7 191.04 348.57 190.17 C 349.45 189.3 349.94 188.11 349.94 186.88 C 349.94 185.65 349.45 184.46 348.57 183.59 C 347.7 182.72 346.52 182.23 345.29 182.23 C 344.05 182.23 342.87 182.72 342 183.59 C 341.13 184.46 340.64 185.65 340.64 186.88 C 340.64 188.11 341.13 189.3 342 190.17 C 342.87 191.04 344.05 191.53 345.29 191.53 z" fill="#1f77b4" stroke="#1f77b4" stroke-width="1" stroke-linejoin="round"/>
<path clip-path="url(#p1)" d="M 351.66 164.43 C 352.91 164.43 354.11 163.93 354.99 163.05 C 355.88 162.16 356.37 160.96 356.37 159.71 C 356.37 158.46 355.88 157.26 354.99 156.38 C 354.11 155.49 352.91 155 351.66 155 C 350.41 155 349.21 155.49 348.32 156.38 C 347.44 157.26 346.94 158.46 346.94 159.71 C 346.94 160.96 347.44 162.16 348.32 163.05 C 349.21 163.93 350.41 164.43 351.66 164.43 z" fill="#1f77b4" stroke="#1f77b4" stroke-width="1" stroke-linejoin="round"/>
<path clip-path="url(#p1)" d="M 342.98 136.79 C 344.25 136.79 345.46 136.28 346.36 135.39 C 347.26 134.49 347.76 133.27 347.76 132 C 347.76 130.74 347.26 129.52 346.36 128.62 C 345.46 127.73 344.25 127.22 342.98 127.22 C 341.71 127.22 340.49 127.73 339.6 128.62 C 338.7 129.52 338.2 130.74 338.2 132 C 338.2 133.27 338.7 134.49 339.6 135.39 C 340.49 136.28 341.71 136.79 342.98 136.79 z" fill="#1f77b4" stroke="#1f77b4" stroke-width="1" stroke-linejoin="round"/>
<path clip-path="url(#p1)" d="M 319.72 113.09 C 321.01 113.09 322.24 112.58 323.15 111.67 C 324.06 110.76 324.57 109.53 324.57 108.24 C 324.57 106.96 324.06 105.72 323.15 104.81 C 322.24 103.9 321.01 103.39 319.72 103.39 C 318.43 103.39 317.2 103.9 316.29 104.81 C 315.38 105.72 314.87 106.96 314.87 108.24 C 314.87 109.53 315.38 110.76 316.29 111.67 C 317.2 112.58 318.43 113.09 319.72 113.09 z" fill="#1f77b4" stroke="#1f77b4" stroke-width="1" stroke-linejoin="round"/>
<path clip-path="url(#p1)" d="M 284.78 97.45 C 286.09 97.45 287.34 96.93 288.26 96.01 C 289.18 95.09 289.7 93.84 289.7 92.54 C 289.7 91.23 289.18 89.99 288.26 89.06 C 287.34 88.14 286.09 87.63 284.78 87.63 C 283.48 87.63 282.23 88.14 281.31 89.06 C 280.39 89.99 279.87 91.23 279.87 92.54 C 279.87 93.84 280.39 95.09 281.31 96.01 C 282.23 96.93 283.48 97.45 284.78 97.45 z" fill="#1f77b4" stroke="#1f77b4" stroke-width="1" stroke-linejoin="round"/>
<path clip-path="url(#p1)" d="M 243.16 92.9 C 244.48 92.9 245.75 92.37 246.68 91.44 C 247.61 90.51 248.14 89.24 248.14 87.92 C 248.14 86.6 247.61 85.34 246.68 84.4 C 245.75 83.47 244.48 82.95 243.16 82.95 C 241.84 82.95 240.58 83.47 239.64 84.4 C 238.71 85.34 238.19 86.6 238.19 87.92 C 238.19 89.24 238.71 90.51 239.64 91.44 C 240.58 92.37 241.84 92.9 243.16 92.9 z" fill="#1f77b4" stroke="#1f77b4" stroke-width="1" stroke-linejoin="round"/>
<path clip-path="url(#p1)" d="M 201.22 100.81 C 202.56 100.81 203.84 100.28 204.78 99.34 C 205.73 98.39 206.26 97.11 206.26 95.78 C 206.26 94.44 205.73 93.16 204.78 92.21 C 203.84 91.27 202.56 90.74 201.22 90.74 C 199.89 90.74 198.61 91.27 197.66 92.21 C 196.72 93.16 196.19 94.44 196.19 95.78 C 196.19 97.11 196.72 98.39 197.66 99.34 C 198.61 100.28 199.89 100.81 201.22 100.81 z" fill="#1f77b4" stroke="#1f77b4" stroke-width="1" stroke-linejoin="round"/>
<path clip-path="url(#p1)" d="M 165.74 120.63 C 167.09 120.63 168.39 120.09 169.35 119.13 C 170.3 118.18 170.84 116.88 170.84 115.53 C 170.84 114.18 170.3 112.88 169.35 111.92 C 168.39 110.97 167.09 110.43 165.74 110.43 C 164.39 110.43 163.09 110.97 162.14 111.92 C 161.18 112.88 160.64 114.18 160.64 115.53 C 160.64 116.88 161.18 118.18 162.14 119.13 C 163.09 120.09 164.39 120.63 165.74 120.63 z" fill="#1f77b4" stroke="#1f77b4" stroke-width="1" stroke-linejoin="round"/>
<path clip-path="url(#p1)" d="M 142.81 149.79 C 144.18 149.79 145.49 149.25 146.46 148.28 C 147.42 147.31 147.97 146 147.97 144.63 C 147.97 143.26 147.42 141.95 146.46 140.98 C 145.49 140.01 144.18 139.47 142.81 139.47 C 141.44 139.47 140.13 140.01 139.16 140.98 C 138.19 141.95 137.65 143.26 137.65 144.63 C 137.65 146 138.19 147.31 139.16 148.28 C 140.13 149.25 141.44 149.79 142.81 149.79 z" fill="#1f77b4" stroke="#1f77b4" stroke-width="1" stroke-linejoin="round"/>
<path clip-path="url(#p1)" d="M 136.79 184.1 C 138.17 184.1 139.5 183.55 140.48 182.57 C 141.46 181.59 142.01 180.26 142.01 178.88 C 142.01 177.49 141.46 176.16 140.48 175.18 C 139.5 174.2 138.17 173.65 136.79 173.65 C 135.4 173.65 134.07 174.2 133.1 175.18 C 132.12 176.16 131.57 177.49 131.57 178.88 C 131.57 180.26 132.12 181.59 133.1 182.57 C 134.07 183.55 135.4 184.1 136.79 184.1 z" fill="#1f77b4" stroke="#1f77b4" stroke-width="1" stroke-linejoin="round"/>
<path clip-path="url(#p1)" d="M 149.52 218.29 C 150.92 218.29 152.27 217.73 153.26 216.74 C 154.25 215.75 154.8 214.41 154.8 213.01 C 154.8 211.61 154.25 210.27 153.26 209.28 C 152.27 208.29 150.92 207.73 149.52 207.73 C 148.12 207.73 146.78 208.29 145.79 209.28 C 144.8 210.27 144.24 211.61 144.24 213.01 C 144.24 214.41 144.8 215.75 145.79 216.74 C 146.78 217.73 148.12 218.29 149.52 218.29 z" fill="#1f77b4" stroke="#1f77b4" stroke-width="1" stroke-linejoin="round"/>
<path clip-path="url(#p1)" d="M 179.9 246.87 C 181.32 246.87 182.68 246.31 183.68 245.3 C 184.68 244.3 185.24 242.95 185.24 241.53 C 185.24 240.11 184.68 238.76 183.68 237.75 C 182.68 236.75 181.32 236.19 179.9 236.19 C 178.49 236.19 177.13 236.75 176.13 237.75 C 175.13 238.76 174.57 240.11 174.57 241.53 C 174.57 242.95 175.13 244.3 176.13 245.3 C 177.13 246.31 178.49 246.87 179.9 246.87 z" fill="#1f77b4" stroke="#1f77b4" stroke-width="1" stroke-linejoin="round"/>
<path clip-path="url(#p1)" d="M 223.92 264.97 C 225.35 264.97 226.72 264.4 227.73 263.39 C 228.74 262.38 229.31 261.01 229.31 259.58 C 229.31 258.15 228.74 256.77 227.73 255.76 C 226.72 254.75 225.35 254.18 223.92 254.18 C 222.48 254.18 221.11 254.75 220.1 255.76 C 219.09 256.77 218.52 258.15 218.52 259.58 C 218.52 261.01 219.09 262.38 220.1 263.39 C 221.11 264.4 222.48 264.97 223.92 264.97 z" fill="#1f77b4" stroke="#1f77b4" stroke-width="1" stroke-linejoin="round"/>
<path clip-path="url(#p1)" d="M 275.14 269.2 C 276.58 269.2 277.97 268.63 278.99 267.61 C 280.02 266.58 280.59 265.2 280.59 263.75 C 280.59 262.3 280.02 260.92 278.99 259.89 C 277.97 258.87 276.58 258.3 275.14 258.3 C 273.69 258.3 272.3 258.87 271.28 259.89 C 270.26 260.92 269.68 262.3 269.68 263.75 C 269.68 265.2 270.26 266.58 271.28 267.61 C 272.3 268.63 273.69 269.2 275.14 269.2 z" fill="#1f77b4" stroke="#1f77b4" stroke-width="1" stroke-linejoin="round"/>
<path clip-path="url(#p1)" d="M 325.69 258.24 C 327.15 258.24 328.55 257.66 329.59 256.63 C 330.62 255.59 331.2 254.19 331.2 252.73 C 331.2 251.27 330.62 249.87 329.59 248.83 C 328.55 247.8 327.15 247.22 325.69 247.22 C 324.23 247.22 322.83 247.8 321.79 248.83 C 320.76 249.87 320.18 251.27 320.18 252.73 C 320.18 254.19 320.76 255.59 321.79 256.63 C 322.83 257.66 324.23 258.24 325.69 258.24 z" fill="#1f77b4" stroke="#1f77b4" stroke-width="1" stroke-linejoin="round"/>
<path clip-path="url(#p1)" d="M 367.44 233.16 C 368.92 233.16 370.34 232.57 371.38 231.53 C 372.43 230.48 373.01 229.07 373.01 227.59 C 373.01 226.11 372.43 224.7 371.38 223.65 C 370.34 222.61 368.92 222.02 367.44 222.02 C 365.97 222.02 364.55 222.61 363.51 223.65 C 362.46 224.7 361.88 226.11 361.88 227.59 C 361.88 229.07 362.46 230.48 363.51 231.53 C 364.55 232.57 365.97 233.16 367.44 233.16 z" fill="#1f77b4" stroke="#1f77b4" stroke-width="1" stroke-linejoin="round"/>
<path clip-path="url(#p1)" d="M 393.32 197.35 C 394.81 197.35 396.24 196.76 397.3 195.7 C 398.35 194.65 398.94 193.22 398.94 191.73 C 398.94 190.23 398.35 188.8 397.3 187.75 C 396.24 186.69 394.81 186.1 393.32 186.1 C 391.83 186.1 390.4 186.69 389.34 187.75 C 388.29 188.8 387.7 190.23 387.7 191.73 C 387.7 193.22 388.29 194.65 389.34 195.7 C 390.4 196.76 391.83 197.35 393.32 197.35 z" fill="#1f77b4" stroke="#1f77b4" stroke-width="1" stroke-linejoin="round"/>
<path clip-path="url(#p1)" d="M 398.49 156.08 C 399.99 156.08 401.44 155.48 402.5 154.42 C 403.57 153.35 404.17 151.91 404.17 150.4 C 404.17 148.89 403.57 147.45 402.5 146.38 C 401.44 145.32 399.99 144.72 398.49 144.72 C 396.98 144.72 395.54 145.32 394.47 146.38 C 393.41 147.45 392.81 148.89 392.81 150.4 C 392.81 151.91 393.41 153.35 394.47 154.42 C 395.54 155.48 396.98 156.08 398.49 156.08 z" fill="#1f77b4" stroke="#1f77b4" stroke-width="1" stroke-linejoin="round"/>
<path clip-path="url(#p1)" d="M 381.23 115.72 C 382.75 115.72 384.21 115.11 385.29 114.04 C 386.36 112.96 386.97 111.51 386.97 109.98 C 386.97 108.46 386.36 107.01 385.29 105.93 C 384.21 104.86 382.75 104.25 381.23 104.25 C 379.71 104.25 378.25 104.86 377.18 105.93 C 376.1 107.01 375.5 108.46 375.5 109.98 C 375.5 111.51 376.1 112.96 377.18 114.04 C 378.25 115.11 379.71 115.72 381.23 115.72 z" fill="#1f77b4" stroke="#1f77b4" stroke-width="1" stroke-linejoin="round"/>
<path clip-path="url(#p1)" d="M 343.37 82.76 C 344.91 82.76 346.38 82.15 347.47 81.06 C 348.55 79.98 349.16 78.5 349.16 76.97 C 349.16 75.44 348.55 73.96 347.47 72.88 C 346.38 71.79 344.91 71.18 343.37 71.18 C 341.84 71.18 340.37 71.79 339.28 72.88 C 338.2 73.96 337.59 75.44 337.59 76.97 C 337.59 78.5 338.2 79.98 339.28 81.06 C 340.37 82.15 341.84 82.76 343.37 82.76 z" fill="#1f77b4" stroke="#1f77b4" stroke-width="1" stroke-linejoin="round"/>
<path clip-path="url(#p1)" d="M 290.1 62.77 C 291.65 62.77 293.14 62.15 294.23 61.06 C 295.33 59.96 295.94 58.47 295.94 56.93 C 295.94 55.38 295.33 53.89 294.23 52.79 C 293.14 51.7 291.65 51.08 290.1 51.08 C 288.55 51.08 287.07 51.7 285.97 52.79 C 284.88 53.89 284.26 55.38 284.26 56.93 C 284.26 58.47 284.88 59.96 285.97 61.06 C 287.07 62.15 288.55 62.77 290.1 62.77 z" fill="#1f77b4" stroke="#1f77b4" stroke-width="1" stroke-linejoin="round"/>
<path clip-path="url(#p1)" d="M 229.29 59.46 C 230.85 59.46 232.35 58.84 233.46 57.74 C 234.56 56.63 235.19 55.13 235.19 53.57 C 235.19 52 234.56 50.51 233.46 49.4 C 232.35 48.29 230.85 47.67 229.29 47.67 C 227.73 47.67 226.23 48.29 225.12 49.4 C 224.02 50.51 223.4 52 223.4 53.57 C 223.4 55.13 224.02 56.63 225.12 57.74 C 226.23 58.84 227.73 59.46 229.29 59.46 z" fill="#1f77b4" stroke="#1f77b4" stroke-width="1" stroke-linejoin="round"/>
<path clip-path="url(#p1)" d="M 170.33 74.04 C 171.9 74.04 173.42 73.41 174.53 72.3 C 175.65 71.18 176.27 69.67 176.27 68.09 C 176.27 66.51 175.65 65 174.53 63.88 C 173.42 62.77 171.9 62.14 170.33 62.14 C 168.75 62.14 167.24 62.77 166.12 63.88 C 165.01 65 164.38 66.51 164.38 68.09 C 164.38 69.67 165.01 71.18 166.12 72.3 C 167.24 73.41 168.75 74.04 170.33 74.04 z" fill="#1f77b4" stroke="#1f77b4" stroke-width="1" stroke-linejoin="round"/>
<path clip-path="url(#p1)" d="M 122.67 104.87 C 124.26 104.87 125.78 104.24 126.91 103.11 C 128.03 101.99 128.67 100.46 128.67 98.87 C 128.67 97.28 128.03 95.75 126.91 94.63 C 125.78 93.5 124.26 92.87 122.67 92.87 C 121.07 92.87 119.55 93.5 118.42 94.63 C 117.3 95.75 116.67 97.28 116.67 98.87 C 116.67 100.46 117.3 101.99 118.42 103.11 C 119.55 104.24 121.07 104.87 122.67 104.87 z" fill="#1f77b4" stroke="#1f77b4" stroke-width="1" stroke-linejoin="round"/>
<path clip-path="url(#p1)" d="M 94.32 147.68 C 95.92 147.68 97.46 147.05 98.6 145.91 C 99.73 144.78 100.37 143.24 100.37 141.63 C 100.37 140.03 99.73 138.49 98.6 137.35 C 97.46 136.22 95.92 135.58 94.32 135.58 C 92.71 135.58 91.17 136.22 90.04 137.35 C 88.9 138.49 88.27 140.03 88.27 141.63 C 88.27 143.24 88.9 144.78 90.04 145.91 C 91.17 147.05 92.71 147.68 94.32 147.68 z" fill="#1f77b4" stroke="#1f77b4" stroke-width="1" stroke-linejoin="round"/>
<path clip-path="url(#p1)" d="M 90.51 196.13 C 92.13 196.13 93.68 195.48 94.82 194.34 C 95.97 193.19 96.61 191.64 96.61 190.02 C 96.61 188.4 95.97 186.85 94.82 185.71 C 93.68 184.56 92.13 183.92 90.51 183.92 C 88.89 183.92 87.34 184.56 86.19 185.71 C 85.05 186.85 84.4 188.4 84.4 190.02 C 84.4 191.64 85.05 193.19 86.19 194.34 C 87.34 195.48 88.89 196.13 90.51 196.13 z" fill="#1f77b4" stroke="#1f77b4" stroke-width="1" stroke-linejoin="round"/>
<path clip-path="url(#p1)" d="M 112.74 242.72 C 114.37 242.72 115.93 242.07 117.09 240.91 C 118.24 239.76 118.89 238.19 118.89 236.56 C 118.89 234.93 118.24 233.36 117.09 232.21 C 115.93 231.06 114.37 230.41 112.74 230.41 C 111.1 230.41 109.54 231.06 108.39 232.21 C 107.23 233.36 106.58 234.93 106.58 236.56 C 106.58 238.19 107.23 239.76 108.39 240.91 C 109.54 242.07 111.1 242.72 112.74 242.72 z" fill="#1f77b4" stroke="#1f77b4" stroke-width="1" stroke-linejoin="round"/>
<path clip-path="url(#p1)" d="M 158.41 280 C 160.06 280 161.64 279.35 162.8 278.18 C 163.96 277.02 164.62 275.44 164.62 273.8 C 164.62 272.15 163.96 270.57 162.8 269.41 C 161.64 268.25 160.06 267.59 158.41 267.59 C 156.77 267.59 155.19 268.25 154.02 269.41 C 152.86 270.57 152.21 272.15 152.21 273.8 C 152.21 275.44 152.86 277.02 154.02 278.18 C 155.19 279.35 156.77 280 158.41 280 z" fill="#1f77b4" stroke="#1f77b4" stroke-width="1" stroke-linejoin="round"/>
<path clip-path="url(#p1)" d="M 221.11 301.74 C 222.77 301.74 224.36 301.08 225.53 299.91 C 226.71 298.74 227.37 297.15 227.37 295.49 C 227.37 293.83 226.71 292.24 225.53 291.07 C 224.36 289.89 222.77 289.23 221.11 289.23 C 219.45 289.23 217.86 289.89 216.69 291.07 C 215.52 292.24 214.86 293.83 214.86 295.49 C 214.86 297.15 215.52 298.74 216.69 299.91 C 217.86 301.08 219.45 301.74 221.11 301.74 z" fill="#1f77b4" stroke="#1f77b4" stroke-width="1" stroke-linejoin="round"/>
</g>
<g id="pathcollection_2">
<g clip-path="url(#p1)" fill="#ff7f0e" fill-opacity="0.7" stroke="#ff7f0e" stroke-opacity="0.7" stroke-width="1" stroke-linejoin="round">
<use href="#m1" x="139.08" y="105.59"/>
<use href="#m1" x="138.26" y="104.14"/>
<use href="#m1" x="135.85" y="103.53"/>
<use href="#m1" x="132.87" y="104.42"/>
<use href="#m1" x="130.73" y="106.93"/>
<use href="#m1" x="130.76" y="110.54"/>
<use href="#m1" x="133.75" y="114.2"/>
<use href="#m1" x="139.61" y="116.62"/>
<use href="#m1" x="147.27" y="116.67"/>
<use href="#m1" x="154.88" y="113.69"/>
<use href="#m1" x="160.24" y="107.84"/>
<use href="#m1" x="161.4" y="100.12"/>
<use href="#m1" x="157.23" y="92.22"/>
<use href="#m1" x="147.88" y="86.14"/>
<use href="#m1" x="134.84" y="83.74"/>
<use href="#m1" x="120.82" y="86.15"/>
<use href="#m1" x="109.08" y="93.48"/>
<use href="#m1" x="102.76" y="104.61"/>
<use href="#m1" x="104.06" y="117.35"/>
<use href="#m1" x="113.55" y="128.9"/>
<use href="#m1" x="129.93" y="136.4"/>
<use href="#m1" x="150.12" y="137.69"/>
<use href="#m1" x="169.82" y="131.85"/>
<use href="#m1" x="184.48" y="119.53"/>
<use href="#m1" x="190.26" y="102.96"/>
<use href="#m1" x="185.1" y="85.54"/>
<use href="#m1" x="169.22" y="71.14"/>
<use href="#m1" x="145.37" y="63.26"/>
<use href="#m1" x="118.28" y="64.19"/>
<use href="#m1" x="93.8" y="74.35"/>
<use href="#m1" x="77.59" y="92.16"/>
<use href="#m1" x="73.83" y="114.15"/>
<use href="#m1" x="84.21" y="135.73"/>
<use href="#m1" x="107.33" y="152.07"/>
<use href="#m1" x="138.88" y="159.21"/>
<use href="#m1" x="172.38" y="155.02"/>
<use href="#m1" x="200.55" y="139.75"/>
<use href="#m1" x="216.88" y="116.13"/>
<use href="#m1" x="217.1" y="88.89"/>
<use href="#m1" x="200.29" y="63.83"/>
</g>
</g>
<g id="spines_1">
<path d="M 57.6 307.58 L 414.72 307.58 L 414.72 41.47 L 57.6 41.47 z" fill="none" stroke="#000000" stroke-width="0.8" stroke-linecap="square" stroke-linejoin="round"/>
</g>
<g id="xtick_1">
<path d="M 122.38 307.58 L 122.38 311.08" fill="none" stroke="#000000" stroke-width="0.8" stroke-linejoin="round"/>
<path d="M 111.3 320.32 L 117.56 320.32 L 117.56 321.15 L 111.3 321.15 L 111.3 320.32 z M 121.8 317.23 Q 121.03 317.23 120.65 317.98 Q 120.27 318.72 120.27 320.23 Q 120.27 321.73 120.65 322.48 Q 121.03 323.23 121.8 323.23 Q 122.56 323.23 122.94 322.48 Q 123.33 321.73 123.33 320.23 Q 123.33 318.72 122.94 317.98 Q 122.56 317.23 121.8 317.23 M 121.8 316.44 Q 123.02 316.44 123.67 317.42 Q 124.32 318.38 124.32 320.23 Q 124.32 322.07 123.67 323.04 Q 123.02 324.01 121.8 324.01 Q 120.57 324.01 119.92 323.04 Q 119.28 322.07 119.28 320.23 Q 119.28 318.38 119.92 317.42 Q 120.57 316.44 121.8 316.44 z M 126.05 322.63 L 127.08 322.63 L 127.08 323.87 L 126.05 323.87 L 126.05 322.63 z M 131.94 317.44 L 129.45 321.33 L 131.94 321.33 L 131.94 317.44 M 131.68 316.58 L 132.92 316.58 L 132.92 321.33 L 133.96 321.33 L 133.96 322.15 L 132.92 322.15 L 132.92 323.87 L 131.94 323.87 L 131.94 322.15 L 128.65 322.15 L 128.65 321.2 L 131.68 316.58 z" fill="#000000"/>
<path d="M 189.19 307.58 L 189.19 311.08" fill="none" stroke="#000000" stroke-width="0.8" stroke-linejoin="round"/>
<path d="M 178.1 320.32 L 184.36 320.32 L 184.36 321.15 L 178.1 321.15 L 178.1 320.32 z M 188.6 317.23 Q 187.84 317.23 187.45 317.98 Q 187.07 318.72 187.07 320.23 Q 187.07 321.73 187.45 322.48 Q 187.84 323.23 188.6 323.23 Q 189.37 323.23 189.75 322.48 Q 190.14 321.73 190.14 320.23 Q 190.14 318.72 189.75 317.98 Q 189.37 317.23 188.6 317.23 M 188.6 316.44 Q 189.83 316.44 190.47 317.42 Q 191.12 318.38 191.12 320.23 Q 191.12 322.07 190.47 323.04 Q 189.83 324.01 188.6 324.01 Q 187.38 324.01 186.73 323.04 Q 186.08 322.07 186.08 320.23 Q 186.08 318.38 186.73 317.42 Q 187.38 316.44 188.6 316.44 z M 192.86 322.63 L 193.89 322.63 L 193.89 323.87 L 192.86 323.87 L 192.86 322.63 z M 196.88 323.04 L 200.33 323.04 L 200.33 323.87 L 195.7 323.87 L 195.7 323.04 Q 196.26 322.46 197.23 321.48 Q 198.2 320.5 198.45 320.21 Q 198.92 319.68 199.11 319.32 Q 199.3 318.94 199.3 318.59 Q 199.3 318.01 198.89 317.64 Q 198.48 317.27 197.83 317.27 Q 197.36 317.27 196.84 317.44 Q 196.33 317.6 195.75 317.92 L 195.75 316.93 Q 196.34 316.69 196.86 316.57 Q 197.38 316.44 197.81 316.44 Q 198.94 316.44 199.61 317.01 Q 200.29 317.58 200.29 318.52 Q 200.29 318.97 200.12 319.38 Q 199.95 319.78 199.51 320.33 Q 199.38 320.47 198.73 321.15 Q 198.07 321.82 196.88 323.04 z" fill="#000000"/>
<path d="M 255.99 307.58 L 255.99 311.08" fill="none" stroke="#000000" stroke-width="0.8" stroke-linejoin="round"/>
<path d="M 251.22 317.23 Q 250.46 317.23 250.07 317.98 Q 249.69 318.72 249.69 320.23 Q 249.69 321.73 250.07 322.48 Q 250.46 323.23 251.22 323.23 Q 251.99 323.23 252.37 322.48 Q 252.75 321.73 252.75 320.23 Q 252.75 318.72 252.37 317.98 Q 251.99 317.23 251.22 317.23 M 251.22 316.44 Q 252.45 316.44 253.09 317.42 Q 253.74 318.38 253.74 320.23 Q 253.74 322.07 253.09 323.04 Q 252.45 324.01 251.22 324.01 Q 249.99 324.01 249.34 323.04 Q 248.7 322.07 248.7 320.23 Q 248.7 318.38 249.34 317.42 Q 249.99 316.44 251.22 316.44 z M 255.47 322.63 L 256.5 322.63 L 256.5 323.87 L 255.47 323.87 L 255.47 322.63 z M 260.76 317.23 Q 260 317.23 259.61 317.98 Q 259.23 318.72 259.23 320.23 Q 259.23 321.73 259.61 322.48 Q 260 323.23 260.76 323.23 Q 261.53 323.23 261.91 322.48 Q 262.29 321.73 262.29 320.23 Q 262.29 318.72 261.91 317.98 Q 261.53 317.23 260.76 317.23 M 260.76 316.44 Q 261.99 316.44 262.63 317.42 Q 263.28 318.38 263.28 320.23 Q 263.28 322.07 262.63 323.04 Q 261.99 324.01 260.76 324.01 Q 259.53 324.01 258.89 323.04 Q 258.24 322.07 258.24 320.23 Q 258.24 318.38 258.89 317.42 Q 259.53 316.44 260.76 316.44 z" fill="#000000"/>
<path d="M 322.8 307.58 L 322.8 311.08" fill="none" stroke="#000000" stroke-width="0.8" stroke-linejoin="round"/>
<path d="M 318.03 317.23 Q 317.26 317.23 316.88 317.98 Q 316.5 318.72 316.5 320.23 Q 316.5 321.73 316.88 322.48 Q 317.26 323.23 318.03 323.23 Q 318.79 323.23 319.17 322.48 Q 319.56 321.73 319.56 320.23 Q 319.56 318.72 319.17 317.98 Q 318.79 317.23 318.03 317.23 M 318.03 316.44 Q 319.25 316.44 319.9 317.42 Q 320.55 318.38 320.55 320.23 Q 320.55 322.07 319.9 323.04 Q 319.25 324.01 318.03 324.01 Q 316.8 324.01 316.15 323.04 Q 315.51 322.07 315.51 320.23 Q 315.51 318.38 316.15 317.42 Q 316.8 316.44 318.03 316.44 z M 322.28 322.63 L 323.31 322.63 L 323.31 323.87 L 322.28 323.87 L 322.28 322.63 z M 326.31 323.04 L 329.75 323.04 L 329.75 323.87 L 325.12 323.87 L 325.12 323.04 Q 325.68 322.46 326.65 321.48 Q 327.62 320.5 327.87 320.21 Q 328.34 319.68 328.53 319.32 Q 328.72 318.94 328.72 318.59 Q 328.72 318.01 328.31 317.64 Q 327.9 317.27 327.25 317.27 Q 326.79 317.27 326.27 317.44 Q 325.76 317.6 325.17 317.92 L 325.17 316.93 Q 325.77 316.69 326.28 316.57 Q 326.8 316.44 327.23 316.44 Q 328.36 316.44 329.04 317.01 Q 329.71 317.58 329.71 318.52 Q 329.71 318.97 329.54 319.38 Q 329.37 319.78 328.93 320.33 Q 328.81 320.47 328.15 321.15 Q 327.5 321.82 326.31 323.04 z" fill="#000000"/>
<path d="M 389.61 307.58 L 389.61 311.08" fill="none" stroke="#000000" stroke-width="0.8" stroke-linejoin="round"/>
<path d="M 384.83 317.23 Q 384.07 317.23 383.69 317.98 Q 383.3 318.72 383.3 320.23 Q 383.3 321.73 383.69 322.48 Q 384.07 323.23 384.83 323.23 Q 385.6 323.23 385.98 322.48 Q 386.37 321.73 386.37 320.23 Q 386.37 318.72 385.98 317.98 Q 385.6 317.23 384.83 317.23 M 384.83 316.44 Q 386.06 316.44 386.7 317.42 Q 387.35 318.38 387.35 320.23 Q 387.35 322.07 386.7 323.04 Q 386.06 324.01 384.83 324.01 Q 383.61 324.01 382.96 323.04 Q 382.31 322.07 382.31 320.23 Q 382.31 318.38 382.96 317.42 Q 383.61 316.44 384.83 316.44 z M 389.09 322.63 L 390.12 322.63 L 390.12 323.87 L 389.09 323.87 L 389.09 322.63 z M 394.97 317.44 L 392.48 321.33 L 394.97 321.33 L 394.97 317.44 M 394.72 316.58 L 395.96 316.58 L 395.96 321.33 L 397 321.33 L 397 322.15 L 395.96 322.15 L 395.96 323.87 L 394.97 323.87 L 394.97 322.15 L 391.68 322.15 L 391.68 321.2 L 394.72 316.58 z" fill="#000000"/>
</g>
<g id="ytick_1">
<path d="M 57.6 265.76 L 54.1 265.76" fill="none" stroke="#000000" stroke-width="0.8" stroke-linejoin="round"/>
<path d="M 27.38 265.67 L 33.64 265.67 L 33.64 266.5 L 27.38 266.5 L 27.38 265.67 z M 37.88 262.58 Q 37.11 262.58 36.73 263.34 Q 36.35 264.08 36.35 265.59 Q 36.35 267.09 36.73 267.84 Q 37.11 268.58 37.88 268.58 Q 38.64 268.58 39.02 267.84 Q 39.41 267.09 39.41 265.59 Q 39.41 264.08 39.02 263.34 Q 38.64 262.58 37.88 262.58 M 37.88 261.8 Q 39.1 261.8 39.75 262.77 Q 40.39 263.74 40.39 265.59 Q 40.39 267.43 39.75 268.4 Q 39.1 269.37 37.88 269.37 Q 36.65 269.37 36 268.4 Q 35.36 267.43 35.36 265.59 Q 35.36 263.74 36 262.77 Q 36.65 261.8 37.88 261.8 z M 42.13 267.98 L 43.16 267.98 L 43.16 269.22 L 42.13 269.22 L 42.13 267.98 z M 48.02 262.79 L 45.53 266.69 L 48.02 266.69 L 48.02 262.79 M 47.76 261.93 L 49 261.93 L 49 266.69 L 50.04 266.69 L 50.04 267.51 L 49 267.51 L 49 269.22 L 48.02 269.22 L 48.02 267.51 L 44.73 267.51 L 44.73 266.55 L 47.76 261.93 z" fill="#000000"/>
<path d="M 57.6 216.48 L 54.1 216.48" fill="none" stroke="#000000" stroke-width="0.8" stroke-linejoin="round"/>
<path d="M 27.38 216.39 L 33.64 216.39 L 33.64 217.22 L 27.38 217.22 L 27.38 216.39 z M 37.88 213.3 Q 37.11 213.3 36.73 214.05 Q 36.35 214.8 36.35 216.3 Q 36.35 217.8 36.73 218.55 Q 37.11 219.3 37.88 219.3 Q 38.64 219.3 39.02 218.55 Q 39.41 217.8 39.41 216.3 Q 39.41 214.8 39.02 214.05 Q 38.64 213.3 37.88 213.3 M 37.88 212.52 Q 39.1 212.52 39.75 213.49 Q 40.39 214.46 40.39 216.3 Q 40.39 218.14 39.75 219.12 Q 39.1 220.08 37.88 220.08 Q 36.65 220.08 36 219.12 Q 35.36 218.14 35.36 216.3 Q 35.36 214.46 36 213.49 Q 36.65 212.52 37.88 212.52 z M 42.13 218.7 L 43.16 218.7 L 43.16 219.94 L 42.13 219.94 L 42.13 218.7 z M 46.16 219.11 L 49.6 219.11 L 49.6 219.94 L 44.97 219.94 L 44.97 219.11 Q 45.53 218.53 46.5 217.55 Q 47.47 216.57 47.72 216.29 Q 48.19 215.76 48.38 215.39 Q 48.57 215.02 48.57 214.66 Q 48.57 214.08 48.16 213.72 Q 47.75 213.35 47.1 213.35 Q 46.64 213.35 46.12 213.51 Q 45.6 213.67 45.02 214 L 45.02 213 Q 45.61 212.76 46.13 212.64 Q 46.65 212.52 47.08 212.52 Q 48.21 212.52 48.89 213.09 Q 49.56 213.65 49.56 214.6 Q 49.56 215.05 49.39 215.45 Q 49.22 215.85 48.78 216.4 Q 48.66 216.54 48 217.22 Q 47.35 217.9 46.16 219.11 z" fill="#000000"/>
<path d="M 57.6 167.2 L 54.1 167.2" fill="none" stroke="#000000" stroke-width="0.8" stroke-linejoin="round"/>
<path d="M 37.88 164.02 Q 37.11 164.02 36.73 164.77 Q 36.35 165.52 36.35 167.02 Q 36.35 168.52 36.73 169.27 Q 37.11 170.02 37.88 170.02 Q 38.64 170.02 39.02 169.27 Q 39.41 168.52 39.41 167.02 Q 39.41 165.52 39.02 164.77 Q 38.64 164.02 37.88 164.02 M 37.88 163.24 Q 39.1 163.24 39.75 164.21 Q 40.39 165.17 40.39 167.02 Q 40.39 168.86 39.75 169.83 Q 39.1 170.8 37.88 170.8 Q 36.65 170.8 36 169.83 Q 35.36 168.86 35.36 167.02 Q 35.36 165.17 36 164.21 Q 36.65 163.24 37.88 163.24 z M 42.13 169.42 L 43.16 169.42 L 43.16 170.66 L 42.13 170.66 L 42.13 169.42 z M 47.42 164.02 Q 46.65 164.02 46.27 164.77 Q 45.89 165.52 45.89 167.02 Q 45.89 168.52 46.27 169.27 Q 46.65 170.02 47.42 170.02 Q 48.18 170.02 48.56 169.27 Q 48.95 168.52 48.95 167.02 Q 48.95 165.52 48.56 164.77 Q 48.18 164.02 47.42 164.02 M 47.42 163.24 Q 48.64 163.24 49.29 164.21 Q 49.94 165.17 49.94 167.02 Q 49.94 168.86 49.29 169.83 Q 48.64 170.8 47.42 170.8 Q 46.19 170.8 45.54 169.83 Q 44.9 168.86 44.9 167.02 Q 44.9 165.17 45.54 164.21 Q 46.19 163.24 47.42 163.24 z" fill="#000000"/>
<path d="M 57.6 117.91 L 54.1 117.91" fill="none" stroke="#000000" stroke-width="0.8" stroke-linejoin="round"/>
<path d="M 37.88 114.73 Q 37.11 114.73 36.73 115.49 Q 36.35 116.23 36.35 117.74 Q 36.35 119.24 36.73 119.99 Q 37.11 120.74 37.88 120.74 Q 38.64 120.74 39.02 119.99 Q 39.41 119.24 39.41 117.74 Q 39.41 116.23 39.02 115.49 Q 38.64 114.73 37.88 114.73 M 37.88 113.95 Q 39.1 113.95 39.75 114.92 Q 40.39 115.89 40.39 117.74 Q 40.39 119.58 39.75 120.55 Q 39.1 121.52 37.88 121.52 Q 36.65 121.52 36 120.55 Q 35.36 119.58 35.36 117.74 Q 35.36 115.89 36 114.92 Q 36.65 113.95 37.88 113.95 z M 42.13 120.13 L 43.16 120.13 L 43.16 121.37 L 42.13 121.37 L 42.13 120.13 z M 46.16 120.54 L 49.6 120.54 L 49.6 121.37 L 44.97 121.37 L 44.97 120.54 Q 45.53 119.96 46.5 118.99 Q 47.47 118.01 47.72 117.72 Q 48.19 117.19 48.38 116.82 Q 48.57 116.45 48.57 116.1 Q 48.57 115.52 48.16 115.15 Q 47.75 114.78 47.1 114.78 Q 46.64 114.78 46.12 114.94 Q 45.6 115.11 45.02 115.43 L 45.02 114.44 Q 45.61 114.2 46.13 114.07 Q 46.65 113.95 47.08 113.95 Q 48.21 113.95 48.89 114.52 Q 49.56 115.09 49.56 116.03 Q 49.56 116.48 49.39 116.89 Q 49.22 117.29 48.78 117.83 Q 48.66 117.98 48 118.66 Q 47.35 119.33 46.16 120.54 z" fill="#000000"/>
<path d="M 57.6 68.63 L 54.1 68.63" fill="none" stroke="#000000" stroke-width="0.8" stroke-linejoin="round"/>
<path d="M 37.88 65.45 Q 37.11 65.45 36.73 66.2 Q 36.35 66.95 36.35 68.45 Q 36.35 69.95 36.73 70.7 Q 37.11 71.45 37.88 71.45 Q 38.64 71.45 39.02 70.7 Q 39.41 69.95 39.41 68.45 Q 39.41 66.95 39.02 66.2 Q 38.64 65.45 37.88 65.45 M 37.88 64.67 Q 39.1 64.67 39.75 65.64 Q 40.39 66.61 40.39 68.45 Q 40.39 70.29 39.75 71.27 Q 39.1 72.23 37.88 72.23 Q 36.65 72.23 36 71.27 Q 35.36 70.29 35.36 68.45 Q 35.36 66.61 36 65.64 Q 36.65 64.67 37.88 64.67 z M 42.13 70.85 L 43.16 70.85 L 43.16 72.09 L 42.13 72.09 L 42.13 70.85 z M 48.02 65.66 L 45.53 69.55 L 48.02 69.55 L 48.02 65.66 M 47.76 64.8 L 49 64.8 L 49 69.55 L 50.04 69.55 L 50.04 70.37 L 49 70.37 L 49 72.09 L 48.02 72.09 L 48.02 70.37 L 44.73 70.37 L 44.73 69.42 L 47.76 64.8 z" fill="#000000"/>
</g>
<g id="legend_1">
<path d="M 300.87 302.58 L 409.72 302.58 L 409.72 266.3 L 300.87 266.3 z" fill="#ffffff" fill-opacity="0.8" stroke="#cccccc" stroke-width="1" stroke-linejoin="round"/>
<g fill="#1f77b4" stroke="#1f77b4" stroke-width="1" stroke-linejoin="round">
<use href="#m2" x="314.87" y="276.12"/>
</g>
<path d="M 337.3 274.28 L 337.3 275.13 Q 336.92 274.93 336.51 274.83 Q 336.1 274.74 335.66 274.74 Q 334.99 274.74 334.65 274.94 Q 334.32 275.15 334.32 275.56 Q 334.32 275.87 334.56 276.05 Q 334.8 276.23 335.52 276.39 L 335.83 276.46 Q 336.78 276.66 337.18 277.04 Q 337.59 277.41 337.59 278.08 Q 337.59 278.84 336.98 279.28 Q 336.38 279.73 335.33 279.73 Q 334.89 279.73 334.41 279.64 Q 333.94 279.56 333.41 279.38 L 333.41 278.46 Q 333.91 278.72 334.39 278.85 Q 334.88 278.97 335.35 278.97 Q 335.98 278.97 336.33 278.76 Q 336.67 278.54 336.67 278.14 Q 336.67 277.78 336.42 277.58 Q 336.17 277.39 335.34 277.21 L 335.03 277.13 Q 334.19 276.96 333.82 276.6 Q 333.45 276.23 333.45 275.6 Q 333.45 274.82 334 274.4 Q 334.54 273.98 335.55 273.98 Q 336.05 273.98 336.49 274.06 Q 336.93 274.13 337.3 274.28 z M 338.5 274.12 L 339.4 274.12 L 340.52 278.38 L 341.64 274.12 L 342.7 274.12 L 343.82 278.38 L 344.94 274.12 L 345.84 274.12 L 344.41 279.58 L 343.35 279.58 L 342.17 275.1 L 340.99 279.58 L 339.93 279.58 L 338.5 274.12 z M 347.2 274.12 L 348.1 274.12 L 348.1 279.58 L 347.2 279.58 L 347.2 274.12 M 347.2 271.99 L 348.1 271.99 L 348.1 273.13 L 347.2 273.13 L 347.2 271.99 z M 353.15 274.96 Q 353 274.87 352.81 274.83 Q 352.64 274.79 352.42 274.79 Q 351.66 274.79 351.25 275.28 Q 350.85 275.78 350.85 276.7 L 350.85 279.58 L 349.94 279.58 L 349.94 274.12 L 350.85 274.12 L 350.85 274.97 Q 351.13 274.47 351.58 274.23 Q 352.04 273.98 352.69 273.98 Q 352.78 273.98 352.89 274 Q 353.01 274.01 353.14 274.03 L 353.15 274.96 z M 354.09 271.99 L 354.99 271.99 L 354.99 279.58 L 354.09 279.58 L 354.09 271.99 z" fill="#000000"/>
<g fill="#ff7f0e" stroke="#ff7f0e" stroke-width="1" stroke-linejoin="round">
<use href="#m1" x="314.87" y="292.76"/>
</g>
<path d="M 337.3 290.92 L 337.3 291.77 Q 336.92 291.57 336.51 291.47 Q 336.1 291.38 335.66 291.38 Q 334.99 291.38 334.65 291.58 Q 334.32 291.79 334.32 292.2 Q 334.32 292.51 334.56 292.69 Q 334.8 292.87 335.52 293.03 L 335.83 293.1 Q 336.78 293.3 337.18 293.68 Q 337.59 294.05 337.59 294.72 Q 337.59 295.48 336.98 295.92 Q 336.38 296.37 335.33 296.37 Q 334.89 296.37 334.41 296.28 Q 333.94 296.2 333.41 296.03 L 333.41 295.1 Q 333.91 295.36 334.39 295.49 Q 334.88 295.62 335.35 295.62 Q 335.98 295.62 336.33 295.4 Q 336.67 295.18 336.67 294.79 Q 336.67 294.42 336.42 294.22 Q 336.17 294.03 335.34 293.85 L 335.03 293.77 Q 334.19 293.6 333.82 293.24 Q 333.45 292.87 333.45 292.24 Q 333.45 291.46 334 291.04 Q 334.54 290.63 335.55 290.63 Q 336.05 290.63 336.49 290.7 Q 336.93 290.77 337.3 290.92 z M 343.7 293.27 L 343.7 293.71 L 339.57 293.71 Q 339.63 294.63 340.12 295.12 Q 340.63 295.61 341.52 295.61 Q 342.04 295.61 342.52 295.48 Q 343.01 295.35 343.49 295.1 L 343.49 295.95 Q 343.01 296.15 342.5 296.26 Q 341.99 296.37 341.47 296.37 Q 340.16 296.37 339.39 295.61 Q 338.63 294.84 338.63 293.54 Q 338.63 292.2 339.35 291.42 Q 340.08 290.63 341.31 290.63 Q 342.41 290.63 343.05 291.34 Q 343.7 292.05 343.7 293.27 M 342.8 293 Q 342.79 292.27 342.39 291.83 Q 341.98 291.39 341.32 291.39 Q 340.57 291.39 340.11 291.81 Q 339.67 292.24 339.6 293.01 L 342.8 293 z M 349.11 290.97 L 349.11 291.81 Q 348.73 291.6 348.34 291.49 Q 347.96 291.39 347.57 291.39 Q 346.7 291.39 346.21 291.94 Q 345.73 292.5 345.73 293.5 Q 345.73 294.5 346.21 295.05 Q 346.7 295.61 347.57 295.61 Q 347.96 295.61 348.34 295.5 Q 348.73 295.4 349.11 295.19 L 349.11 296.02 Q 348.73 296.19 348.33 296.28 Q 347.93 296.37 347.47 296.37 Q 346.24 296.37 345.51 295.59 Q 344.78 294.81 344.78 293.5 Q 344.78 292.16 345.51 291.39 Q 346.25 290.63 347.53 290.63 Q 347.95 290.63 348.34 290.71 Q 348.74 290.8 349.11 290.97 z M 352.79 291.39 Q 352.07 291.39 351.65 291.95 Q 351.23 292.51 351.23 293.5 Q 351.23 294.48 351.64 295.04 Q 352.06 295.61 352.79 295.61 Q 353.51 295.61 353.93 295.04 Q 354.35 294.47 354.35 293.5 Q 354.35 292.52 353.93 291.96 Q 353.51 291.39 352.79 291.39 M 352.79 290.63 Q 353.96 290.63 354.63 291.39 Q 355.3 292.15 355.3 293.5 Q 355.3 294.84 354.63 295.61 Q 353.96 296.37 352.79 296.37 Q 351.61 296.37 350.94 295.61 Q 350.28 294.84 350.28 293.5 Q 350.28 292.15 350.94 291.39 Q 351.61 290.63 352.79 290.63 z M 361.34 292.92 L 361.34 296.23 L 360.44 296.23 L 360.44 292.95 Q 360.44 292.18 360.13 291.79 Q 359.83 291.41 359.23 291.41 Q 358.5 291.41 358.08 291.87 Q 357.66 292.33 357.66 293.13 L 357.66 296.23 L 356.76 296.23 L 356.76 290.76 L 357.66 290.76 L 357.66 291.61 Q 357.98 291.11 358.42 290.87 Q 358.85 290.63 359.43 290.63 Q 360.37 290.63 360.85 291.21 Q 361.34 291.79 361.34 292.92 z M 366.73 291.59 L 366.73 288.63 L 367.62 288.63 L 367.62 296.23 L 366.73 296.23 L 366.73 295.41 Q 366.44 295.89 366.01 296.13 Q 365.58 296.37 364.97 296.37 Q 363.98 296.37 363.36 295.58 Q 362.74 294.79 362.74 293.5 Q 362.74 292.21 363.36 291.42 Q 363.98 290.63 364.97 290.63 Q 365.58 290.63 366.01 290.86 Q 366.44 291.1 366.73 291.59 M 363.66 293.5 Q 363.66 294.49 364.07 295.05 Q 364.48 295.62 365.19 295.62 Q 365.91 295.62 366.32 295.05 Q 366.73 294.49 366.73 293.5 Q 366.73 292.5 366.32 291.94 Q 365.91 291.38 365.19 291.38 Q 364.48 291.38 364.07 291.94 Q 363.66 292.5 363.66 293.5 z z M 376.59 290.97 L 376.59 291.81 Q 376.21 291.6 375.82 291.49 Q 375.44 291.39 375.05 291.39 Q 374.18 291.39 373.69 291.94 Q 373.21 292.5 373.21 293.5 Q 373.21 294.5 373.69 295.05 Q 374.18 295.61 375.05 295.61 Q 375.44 295.61 375.82 295.5 Q 376.21 295.4 376.59 295.19 L 376.59 296.02 Q 376.21 296.19 375.81 296.28 Q 375.41 296.37 374.95 296.37 Q 373.72 296.37 372.99 295.59 Q 372.26 294.81 372.26 293.5 Q 372.26 292.16 373 291.39 Q 373.73 290.63 375.01 290.63 Q 375.43 290.63 375.82 290.71 Q 376.22 290.8 376.59 290.97 z M 378.15 288.63 L 379.05 288.63 L 379.05 296.23 L 378.15 296.23 L 378.15 288.63 z M 380.84 294.07 L 380.84 290.76 L 381.74 290.76 L 381.74 294.03 Q 381.74 294.81 382.04 295.2 Q 382.34 295.59 382.95 295.59 Q 383.67 295.59 384.09 295.12 Q 384.52 294.66 384.52 293.86 L 384.52 290.76 L 385.42 290.76 L 385.42 296.23 L 384.52 296.23 L 384.52 295.39 Q 384.19 295.88 383.76 296.13 Q 383.33 296.37 382.76 296.37 Q 381.81 296.37 381.33 295.78 Q 380.84 295.2 380.84 294.07 M 383.1 290.63 L 383.1 290.63 z M 390.75 290.92 L 390.75 291.77 Q 390.37 291.57 389.96 291.47 Q 389.55 291.38 389.11 291.38 Q 388.44 291.38 388.11 291.58 Q 387.78 291.79 387.78 292.2 Q 387.78 292.51 388.01 292.69 Q 388.25 292.87 388.98 293.03 L 389.28 293.1 Q 390.24 293.3 390.64 293.68 Q 391.05 294.05 391.05 294.72 Q 391.05 295.48 390.44 295.92 Q 389.84 296.37 388.79 296.37 Q 388.35 296.37 387.87 296.28 Q 387.39 296.2 386.87 296.03 L 386.87 295.1 Q 387.37 295.36 387.85 295.49 Q 388.33 295.62 388.81 295.62 Q 389.44 295.62 389.78 295.4 Q 390.12 295.18 390.12 294.79 Q 390.12 294.42 389.88 294.22 Q 389.63 294.03 388.8 293.85 L 388.48 293.77 Q 387.65 293.6 387.28 293.24 Q 386.91 292.87 386.91 292.24 Q 386.91 291.46 387.45 291.04 Q 388 290.63 389.01 290.63 Q 389.5 290.63 389.94 290.7 Q 390.38 290.77 390.75 290.92 z M 393.37 289.2 L 393.37 290.76 L 395.22 290.76 L 395.22 291.46 L 393.37 291.46 L 393.37 294.42 Q 393.37 295.09 393.55 295.28 Q 393.73 295.47 394.29 295.47 L 395.22 295.47 L 395.22 296.23 L 394.29 296.23 Q 393.25 296.23 392.86 295.84 Q 392.46 295.45 392.46 294.42 L 392.46 291.46 L 391.8 291.46 L 391.8 290.76 L 392.46 290.76 L 392.46 289.2 L 393.37 289.2 z M 401.08 293.27 L 401.08 293.71 L 396.95 293.71 Q 397 294.63 397.5 295.12 Q 398.01 295.61 398.9 295.61 Q 399.42 295.61 399.9 295.48 Q 400.39 295.35 400.87 295.1 L 400.87 295.95 Q 400.38 296.15 399.88 296.26 Q 399.37 296.37 398.85 296.37 Q 397.54 296.37 396.77 295.61 Q 396.01 294.84 396.01 293.54 Q 396.01 292.2 396.73 291.42 Q 397.46 290.63 398.69 290.63 Q 399.79 290.63 400.43 291.34 Q 401.08 292.05 401.08 293.27 M 400.18 293 Q 400.17 292.27 399.76 291.83 Q 399.36 291.39 398.7 291.39 Q 397.95 291.39 397.49 291.81 Q 397.04 292.24 396.97 293.01 L 400.18 293 z M 405.72 291.6 Q 405.57 291.51 405.39 291.47 Q 405.21 291.43 405 291.43 Q 404.24 291.43 403.83 291.92 Q 403.42 292.42 403.42 293.34 L 403.42 296.23 L 402.52 296.23 L 402.52 290.76 L 403.42 290.76 L 403.42 291.61 Q 403.7 291.11 404.16 290.87 Q 404.61 290.63 405.26 290.63 Q 405.35 290.63 405.47 290.64 Q 405.58 290.65 405.72 290.67 L 405.72 291.6 z" fill="#000000"/>
</g>
<g id="text_1">
<path d="M 165.37 26.27 L 165.37 27.29 Q 164.91 27.06 164.42 26.94 Q 163.93 26.82 163.4 26.82 Q 162.6 26.82 162.19 27.07 Q 161.8 27.32 161.8 27.81 Q 161.8 28.18 162.08 28.4 Q 162.37 28.61 163.24 28.8 L 163.61 28.89 Q 164.75 29.13 165.24 29.58 Q 165.72 30.03 165.72 30.83 Q 165.72 31.75 164.99 32.28 Q 164.27 32.81 163.01 32.81 Q 162.48 32.81 161.91 32.71 Q 161.34 32.61 160.71 32.4 L 160.71 31.29 Q 161.3 31.6 161.88 31.76 Q 162.46 31.91 163.03 31.91 Q 163.79 31.91 164.2 31.65 Q 164.61 31.39 164.61 30.91 Q 164.61 30.47 164.32 30.24 Q 164.02 30.01 163.02 29.79 L 162.65 29.7 Q 161.64 29.49 161.2 29.06 Q 160.75 28.62 160.75 27.85 Q 160.75 26.93 161.41 26.43 Q 162.07 25.92 163.27 25.92 Q 163.87 25.92 164.4 26.01 Q 164.92 26.1 165.37 26.27 z M 172.16 26.33 L 172.16 27.34 Q 171.7 27.09 171.24 26.96 Q 170.78 26.84 170.32 26.84 Q 169.27 26.84 168.69 27.5 Q 168.11 28.17 168.11 29.37 Q 168.11 30.57 168.69 31.24 Q 169.27 31.9 170.32 31.9 Q 170.78 31.9 171.24 31.77 Q 171.7 31.65 172.16 31.39 L 172.16 32.39 Q 171.71 32.6 171.22 32.71 Q 170.74 32.81 170.2 32.81 Q 168.72 32.81 167.84 31.88 Q 166.97 30.95 166.97 29.37 Q 166.97 27.76 167.85 26.84 Q 168.73 25.92 170.27 25.92 Q 170.77 25.92 171.24 26.03 Q 171.72 26.13 172.16 26.33 z M 177.02 29.34 Q 175.71 29.34 175.21 29.64 Q 174.7 29.94 174.7 30.66 Q 174.7 31.24 175.08 31.58 Q 175.46 31.91 176.11 31.91 Q 177.01 31.91 177.55 31.28 Q 178.09 30.64 178.09 29.58 L 178.09 29.34 L 177.02 29.34 M 179.17 28.9 L 179.17 32.64 L 178.09 32.64 L 178.09 31.65 Q 177.72 32.24 177.17 32.53 Q 176.62 32.81 175.82 32.81 Q 174.82 32.81 174.22 32.25 Q 173.63 31.68 173.63 30.73 Q 173.63 29.62 174.36 29.06 Q 175.11 28.5 176.58 28.5 L 178.09 28.5 L 178.09 28.39 Q 178.09 27.65 177.6 27.25 Q 177.11 26.84 176.23 26.84 Q 175.66 26.84 175.13 26.97 Q 174.6 27.1 174.11 27.37 L 174.11 26.38 Q 174.7 26.15 175.25 26.04 Q 175.81 25.92 176.34 25.92 Q 177.76 25.92 178.47 26.66 Q 179.17 27.4 179.17 28.9 z M 182.46 24.22 L 182.46 26.08 L 184.68 26.08 L 184.68 26.92 L 182.46 26.92 L 182.46 30.48 Q 182.46 31.28 182.67 31.51 Q 182.9 31.74 183.57 31.74 L 184.68 31.74 L 184.68 32.64 L 183.57 32.64 Q 182.32 32.64 181.85 32.18 Q 181.37 31.71 181.37 30.48 L 181.37 26.92 L 180.58 26.92 L 180.58 26.08 L 181.37 26.08 L 181.37 24.22 L 182.46 24.22 z M 187.16 24.22 L 187.16 26.08 L 189.38 26.08 L 189.38 26.92 L 187.16 26.92 L 187.16 30.48 Q 187.16 31.28 187.38 31.51 Q 187.6 31.74 188.27 31.74 L 189.38 31.74 L 189.38 32.64 L 188.27 32.64 Q 187.03 32.64 186.55 32.18 Q 186.08 31.71 186.08 30.48 L 186.08 26.92 L 185.29 26.92 L 185.29 26.08 L 186.08 26.08 L 186.08 24.22 L 187.16 24.22 z M 196.41 29.09 L 196.41 29.62 L 191.46 29.62 Q 191.53 30.73 192.12 31.32 Q 192.73 31.9 193.8 31.9 Q 194.42 31.9 195 31.75 Q 195.59 31.59 196.16 31.29 L 196.16 32.31 Q 195.58 32.55 194.97 32.68 Q 194.36 32.81 193.74 32.81 Q 192.16 32.81 191.24 31.9 Q 190.33 30.98 190.33 29.43 Q 190.33 27.81 191.2 26.87 Q 192.07 25.92 193.55 25.92 Q 194.87 25.92 195.64 26.78 Q 196.41 27.63 196.41 29.09 M 195.33 28.77 Q 195.32 27.89 194.84 27.36 Q 194.36 26.84 193.56 26.84 Q 192.66 26.84 192.11 27.35 Q 191.57 27.85 191.49 28.78 L 195.33 28.77 z M 201.99 27.09 Q 201.8 26.98 201.59 26.93 Q 201.38 26.88 201.12 26.88 Q 200.2 26.88 199.71 27.48 Q 199.23 28.07 199.23 29.18 L 199.23 32.64 L 198.14 32.64 L 198.14 26.08 L 199.23 26.08 L 199.23 27.1 Q 199.57 26.5 200.11 26.21 Q 200.66 25.92 201.43 25.92 Q 201.55 25.92 201.68 25.94 Q 201.82 25.95 201.98 25.98 L 201.99 27.09 z M 203.18 31.15 L 204.42 31.15 L 204.42 32.64 L 203.18 32.64 L 203.18 31.15 M 203.18 26.44 L 204.42 26.44 L 204.42 27.93 L 203.18 27.93 L 203.18 26.44 z z M 214.95 26.27 L 214.95 27.29 Q 214.49 27.06 214 26.94 Q 213.5 26.82 212.98 26.82 Q 212.17 26.82 211.77 27.07 Q 211.37 27.32 211.37 27.81 Q 211.37 28.18 211.66 28.4 Q 211.95 28.61 212.81 28.8 L 213.18 28.89 Q 214.33 29.13 214.81 29.58 Q 215.3 30.03 215.3 30.83 Q 215.3 31.75 214.57 32.28 Q 213.85 32.81 212.58 32.81 Q 212.06 32.81 211.48 32.71 Q 210.91 32.61 210.28 32.4 L 210.28 31.29 Q 210.88 31.6 211.46 31.76 Q 212.04 31.91 212.61 31.91 Q 213.37 31.91 213.78 31.65 Q 214.19 31.39 214.19 30.91 Q 214.19 30.47 213.89 30.24 Q 213.6 30.01 212.6 29.79 L 212.22 29.7 Q 211.22 29.49 210.77 29.06 Q 210.33 28.62 210.33 27.85 Q 210.33 26.93 210.99 26.43 Q 211.64 25.92 212.85 25.92 Q 213.45 25.92 213.97 26.01 Q 214.5 26.1 214.95 26.27 z M 217.01 26.08 L 218.09 26.08 L 218.09 32.64 L 217.01 32.64 L 217.01 26.08 M 217.01 23.52 L 218.09 23.52 L 218.09 24.89 L 217.01 24.89 L 217.01 23.52 z M 219.88 26.08 L 225 26.08 L 225 27.06 L 220.95 31.78 L 225 31.78 L 225 32.64 L 219.73 32.64 L 219.73 31.66 L 223.79 26.94 L 219.88 26.94 L 219.88 26.08 z M 232.26 29.09 L 232.26 29.62 L 227.3 29.62 Q 227.37 30.73 227.97 31.32 Q 228.58 31.9 229.65 31.9 Q 230.27 31.9 230.85 31.75 Q 231.43 31.59 232.01 31.29 L 232.01 32.31 Q 231.43 32.55 230.82 32.68 Q 230.21 32.81 229.58 32.81 Q 228.01 32.81 227.09 31.9 Q 226.18 30.98 226.18 29.43 Q 226.18 27.81 227.05 26.87 Q 227.92 25.92 229.4 25.92 Q 230.72 25.92 231.49 26.78 Q 232.26 27.63 232.26 29.09 M 231.18 28.77 Q 231.17 27.89 230.68 27.36 Q 230.2 26.84 229.41 26.84 Q 228.5 26.84 227.96 27.35 Q 227.42 27.85 227.34 28.78 L 231.18 28.77 z M 238.21 26.27 L 238.21 27.29 Q 237.76 27.06 237.26 26.94 Q 236.77 26.82 236.24 26.82 Q 235.44 26.82 235.04 27.07 Q 234.64 27.32 234.64 27.81 Q 234.64 28.18 234.93 28.4 Q 235.21 28.61 236.08 28.8 L 236.45 28.89 Q 237.6 29.13 238.08 29.58 Q 238.57 30.03 238.57 30.83 Q 238.57 31.75 237.84 32.28 Q 237.12 32.81 235.85 32.81 Q 235.33 32.81 234.75 32.71 Q 234.18 32.61 233.55 32.4 L 233.55 31.29 Q 234.15 31.6 234.73 31.76 Q 235.31 31.91 235.88 31.91 Q 236.64 31.91 237.05 31.65 Q 237.46 31.39 237.46 30.91 Q 237.46 30.47 237.16 30.24 Q 236.87 30.01 235.86 29.79 L 235.49 29.7 Q 234.49 29.49 234.04 29.06 Q 233.6 28.62 233.6 27.85 Q 233.6 26.93 234.25 26.43 Q 234.91 25.92 236.12 25.92 Q 236.71 25.92 237.24 26.01 Q 237.77 26.1 238.21 26.27 z z M 244.1 26.08 L 245.17 26.08 L 245.17 32.64 L 244.1 32.64 L 244.1 26.08 M 244.1 23.52 L 245.17 23.52 L 245.17 24.89 L 244.1 24.89 L 244.1 23.52 z M 252.89 28.68 L 252.89 32.64 L 251.81 32.64 L 251.81 28.72 Q 251.81 27.78 251.44 27.32 Q 251.08 26.86 250.35 26.86 Q 249.48 26.86 248.98 27.42 Q 248.47 27.97 248.47 28.93 L 248.47 32.64 L 247.39 32.64 L 247.39 26.08 L 248.47 26.08 L 248.47 27.1 Q 248.86 26.51 249.38 26.21 Q 249.91 25.92 250.59 25.92 Q 251.73 25.92 252.31 26.62 Q 252.89 27.32 252.89 28.68 z z M 259.89 31.66 L 259.89 35.14 L 258.81 35.14 L 258.81 26.08 L 259.89 26.08 L 259.89 27.08 Q 260.23 26.49 260.75 26.21 Q 261.27 25.92 261.99 25.92 Q 263.19 25.92 263.93 26.87 Q 264.68 27.82 264.68 29.37 Q 264.68 30.91 263.93 31.86 Q 263.19 32.81 261.99 32.81 Q 261.27 32.81 260.75 32.53 Q 260.23 32.24 259.89 31.66 M 263.56 29.37 Q 263.56 28.18 263.07 27.5 Q 262.58 26.82 261.73 26.82 Q 260.87 26.82 260.38 27.5 Q 259.89 28.18 259.89 29.37 Q 259.89 30.56 260.38 31.24 Q 260.87 31.91 261.73 31.91 Q 262.58 31.91 263.07 31.24 Q 263.56 30.56 263.56 29.37 z M 269.01 26.84 Q 268.14 26.84 267.64 27.51 Q 267.14 28.19 267.14 29.37 Q 267.14 30.54 267.63 31.22 Q 268.14 31.9 269.01 31.9 Q 269.87 31.9 270.38 31.22 Q 270.88 30.54 270.88 29.37 Q 270.88 28.2 270.38 27.52 Q 269.87 26.84 269.01 26.84 M 269.01 25.92 Q 270.42 25.92 271.22 26.84 Q 272.02 27.75 272.02 29.37 Q 272.02 30.98 271.22 31.9 Q 270.42 32.81 269.01 32.81 Q 267.6 32.81 266.8 31.9 Q 266 30.98 266 29.37 Q 266 27.75 266.8 26.84 Q 267.6 25.92 269.01 25.92 z M 273.81 26.08 L 274.89 26.08 L 274.89 32.64 L 273.81 32.64 L 273.81 26.08 M 273.81 23.52 L 274.89 23.52 L 274.89 24.89 L 273.81 24.89 L 273.81 23.52 z M 282.6 28.68 L 282.6 32.64 L 281.52 32.64 L 281.52 28.72 Q 281.52 27.78 281.16 27.32 Q 280.79 26.86 280.07 26.86 Q 279.19 26.86 278.69 27.42 Q 278.19 27.97 278.19 28.93 L 278.19 32.64 L 277.1 32.64 L 277.1 26.08 L 278.19 26.08 L 278.19 27.1 Q 278.57 26.51 279.09 26.21 Q 279.62 25.92 280.31 25.92 Q 281.44 25.92 282.02 26.62 Q 282.6 27.32 282.6 28.68 z M 285.82 24.22 L 285.82 26.08 L 288.04 26.08 L 288.04 26.92 L 285.82 26.92 L 285.82 30.48 Q 285.82 31.28 286.03 31.51 Q 286.25 31.74 286.93 31.74 L 288.04 31.74 L 288.04 32.64 L 286.93 32.64 Q 285.68 32.64 285.21 32.18 Q 284.73 31.71 284.73 30.48 L 284.73 26.92 L 283.94 26.92 L 283.94 26.08 L 284.73 26.08 L 284.73 24.22 L 285.82 24.22 z M 293.64 26.27 L 293.64 27.29 Q 293.18 27.06 292.69 26.94 Q 292.2 26.82 291.67 26.82 Q 290.87 26.82 290.46 27.07 Q 290.06 27.32 290.06 27.81 Q 290.06 28.18 290.35 28.4 Q 290.64 28.61 291.5 28.8 L 291.87 28.89 Q 293.02 29.13 293.5 29.58 Q 293.99 30.03 293.99 30.83 Q 293.99 31.75 293.26 32.28 Q 292.54 32.81 291.28 32.81 Q 290.75 32.81 290.17 32.71 Q 289.61 32.61 288.97 32.4 L 288.97 31.29 Q 289.57 31.6 290.15 31.76 Q 290.73 31.91 291.3 31.91 Q 292.06 31.91 292.47 31.65 Q 292.88 31.39 292.88 30.91 Q 292.88 30.47 292.58 30.24 Q 292.29 30.01 291.29 29.79 L 290.91 29.7 Q 289.91 29.49 289.47 29.06 Q 289.02 28.62 289.02 27.85 Q 289.02 26.93 289.68 26.43 Q 290.33 25.92 291.54 25.92 Q 292.14 25.92 292.66 26.01 Q 293.19 26.1 293.64 26.27 z M 300.18 23.89 L 303.36 27.16 L 302.18 27.16 L 299.6 24.84 L 297.02 27.16 L 295.85 27.16 L 299.03 23.89 L 300.18 23.89 z M 306.93 31.65 L 311.06 31.65 L 311.06 32.64 L 305.51 32.64 L 305.51 31.65 Q 306.18 30.95 307.34 29.78 Q 308.51 28.6 308.81 28.26 Q 309.38 27.62 309.6 27.18 Q 309.83 26.74 309.83 26.31 Q 309.83 25.61 309.33 25.17 Q 308.85 24.73 308.06 24.73 Q 307.51 24.73 306.89 24.93 Q 306.27 25.12 305.57 25.51 L 305.57 24.32 Q 306.28 24.03 306.9 23.88 Q 307.52 23.74 308.04 23.74 Q 309.4 23.74 310.21 24.42 Q 311.02 25.1 311.02 26.23 Q 311.02 26.77 310.81 27.26 Q 310.61 27.74 310.08 28.39 Q 309.93 28.56 309.15 29.38 Q 308.36 30.19 306.93 31.65 z" fill="#000000"/>
</g>
</g>
</g>
</svg>
