<?xml version="1.0" encoding="utf-8" standalone="no"?>
<!DOCTYPE svg PUBLIC "-//W3C//DTD SVG 1.1//EN" "http://www.w3.org/Graphics/SVG/1.1/DTD/svg11.dtd">
<svg xmlns="http://www.w3.org/2000/svg" width="460.8pt" height="345.6pt" viewBox="0 0 460.8 345.6" version="1.1">
<defs>
<clipPath id="p1"><rect x="57.6" y="41.47" width="357.12" height="266.11"/></clipPath>
</defs>
<g id="figure_1">
<path d="M 0 345.6 L 460.8 345.6 L 460.8 0 L 0 0 z" fill="#ffffff"/>
<g id="axes_1">
<path d="M 57.6 307.58 L 414.72 307.58 L 414.72 41.47 L 57.6 41.47 z" fill="#ffffff"/>
<g id="line2d_1">
<path clip-path="url(#p1)" d="M 73.83 53.57 L 81.95 77.16 L 90.07 99.53 L 98.18 120.7 L 106.3 140.66 L 114.41 159.41 L 122.53 176.95 L 130.65 193.28 L 138.76 208.4 L 146.88 222.31 L 155 235.01 L 163.11 246.5 L 171.23 256.78 L 179.35 265.85 L 187.46 273.72 L 195.58 280.37 L 203.69 285.81 L 211.81 290.04 L 219.93 293.07 L 228.04 294.88 L 236.16 295.49 L 244.28 294.88 L 252.39 293.07 L 260.51 290.04 L 268.63 285.81 L 276.74 280.37 L 284.86 273.72 L 292.97 265.85 L 301.09 256.78 L 309.21 246.5 L 317.32 235.01 L 325.44 222.31 L 333.56 208.4 L 341.67 193.28 L 349.79 176.95 L 357.91 159.41 L 366.02 140.66 L 374.14 120.7 L 382.25 99.53 L 390.37 77.16 L 398.49 53.57" fill="none" stroke="#1f77b4" stroke-width="1.5" stroke-linecap="square" stroke-linejoin="round"/>
</g>
<g id="spines_1">
<path d="M 57.6 307.58 L 414.72 307.58 L 414.72 41.47 L 57.6 41.47 z" fill="none" stroke="#000000" stroke-width="0.8" stroke-linecap="square" stroke-linejoin="round"/>
</g>
<g id="xtick_1">
<path d="M 73.83 307.58 L 73.83 311.08" fill="none" stroke="#000000" stroke-width="0.8" stroke-linejoin="round"/>
<path d="M 62.75 320.32 L 69.01 320.32 L 69.01 321.15 L 62.75 321.15 L 62.75 320.32 z M 71.99 323.04 L 75.43 323.04 L 75.43 323.87 L 70.8 323.87 L 70.8 323.04 Q 71.36 322.46 72.33 321.48 Q 73.3 320.5 73.55 320.21 Q 74.03 319.68 74.21 319.32 Q 74.4 318.94 74.4 318.59 Q 74.4 318.01 73.99 317.64 Q 73.59 317.27 72.93 317.27 Q 72.47 317.27 71.95 317.44 Q 71.44 317.6 70.85 317.92 L 70.85 316.93 Q 71.45 316.69 71.97 316.57 Q 72.48 316.44 72.91 316.44 Q 74.05 316.44 74.72 317.01 Q 75.39 317.58 75.39 318.52 Q 75.39 318.97 75.22 319.38 Q 75.06 319.78 74.61 320.33 Q 74.49 320.47 73.84 321.15 Q 73.18 321.82 71.99 323.04 z M 77.5 322.63 L 78.53 322.63 L 78.53 323.87 L 77.5 323.87 L 77.5 322.63 z M 82.79 317.23 Q 82.03 317.23 81.64 317.98 Q 81.26 318.72 81.26 320.23 Q 81.26 321.73 81.64 322.48 Q 82.03 323.23 82.79 323.23 Q 83.56 323.23 83.94 322.48 Q 84.32 321.73 84.32 320.23 Q 84.32 318.72 83.94 317.98 Q 83.56 317.23 82.79 317.23 M 82.79 316.44 Q 84.02 316.44 84.66 317.42 Q 85.31 318.38 85.31 320.23 Q 85.31 322.07 84.66 323.04 Q 84.02 324.01 82.79 324.01 Q 81.56 324.01 80.92 323.04 Q 80.27 322.07 80.27 320.23 Q 80.27 318.38 80.92 317.42 Q 81.56 316.44 82.79 316.44 z" fill="#000000"/>
<path d="M 114.41 307.58 L 114.41 311.08" fill="none" stroke="#000000" stroke-width="0.8" stroke-linejoin="round"/>
<path d="M 103.33 320.32 L 109.59 320.32 L 109.59 321.15 L 103.33 321.15 L 103.33 320.32 z M 111.89 323.04 L 113.5 323.04 L 113.5 317.47 L 111.75 317.83 L 111.75 316.93 L 113.49 316.58 L 114.48 316.58 L 114.48 323.04 L 116.09 323.04 L 116.09 323.87 L 111.89 323.87 L 111.89 323.04 z M 118.08 322.63 L 119.11 322.63 L 119.11 323.87 L 118.08 323.87 L 118.08 322.63 z M 121.27 316.58 L 125.14 316.58 L 125.14 317.41 L 122.18 317.41 L 122.18 319.19 Q 122.39 319.12 122.61 319.09 Q 122.82 319.05 123.04 319.05 Q 124.26 319.05 124.97 319.72 Q 125.68 320.38 125.68 321.53 Q 125.68 322.7 124.95 323.36 Q 124.22 324.01 122.88 324.01 Q 122.42 324.01 121.95 323.93 Q 121.47 323.85 120.96 323.7 L 120.96 322.7 Q 121.4 322.94 121.87 323.06 Q 122.34 323.18 122.86 323.18 Q 123.71 323.18 124.2 322.73 Q 124.7 322.29 124.7 321.53 Q 124.7 320.77 124.2 320.32 Q 123.71 319.88 122.86 319.88 Q 122.47 319.88 122.07 319.96 Q 121.68 320.05 121.27 320.24 L 121.27 316.58 z" fill="#000000"/>
<path d="M 155 307.58 L 155 311.08" fill="none" stroke="#000000" stroke-width="0.8" stroke-linejoin="round"/>
<path d="M 143.91 320.32 L 150.17 320.32 L 150.17 321.15 L 143.91 321.15 L 143.91 320.32 z M 152.47 323.04 L 154.09 323.04 L 154.09 317.47 L 152.33 317.83 L 152.33 316.93 L 154.08 316.58 L 155.06 316.58 L 155.06 323.04 L 156.67 323.04 L 156.67 323.87 L 152.47 323.87 L 152.47 323.04 z M 158.67 322.63 L 159.7 322.63 L 159.7 323.87 L 158.67 323.87 L 158.67 322.63 z M 163.95 317.23 Q 163.19 317.23 162.81 317.98 Q 162.43 318.72 162.43 320.23 Q 162.43 321.73 162.81 322.48 Q 163.19 323.23 163.95 323.23 Q 164.72 323.23 165.1 322.48 Q 165.49 321.73 165.49 320.23 Q 165.49 318.72 165.1 317.98 Q 164.72 317.23 163.95 317.23 M 163.95 316.44 Q 165.18 316.44 165.82 317.42 Q 166.47 318.38 166.47 320.23 Q 166.47 322.07 165.82 323.04 Q 165.18 324.01 163.95 324.01 Q 162.73 324.01 162.08 323.04 Q 161.43 322.07 161.43 320.23 Q 161.43 318.38 162.08 317.42 Q 162.73 316.44 163.95 316.44 z" fill="#000000"/>
<path d="M 195.58 307.58 L 195.58 311.08" fill="none" stroke="#000000" stroke-width="0.8" stroke-linejoin="round"/>
<path d="M 184.5 320.32 L 190.76 320.32 L 190.76 321.15 L 184.5 321.15 L 184.5 320.32 z M 194.99 317.23 Q 194.23 317.23 193.85 317.98 Q 193.47 318.72 193.47 320.23 Q 193.47 321.73 193.85 322.48 Q 194.23 323.23 194.99 323.23 Q 195.76 323.23 196.14 322.48 Q 196.53 321.73 196.53 320.23 Q 196.53 318.72 196.14 317.98 Q 195.76 317.23 194.99 317.23 M 194.99 316.44 Q 196.22 316.44 196.86 317.42 Q 197.51 318.38 197.51 320.23 Q 197.51 322.07 196.86 323.04 Q 196.22 324.01 194.99 324.01 Q 193.77 324.01 193.12 323.04 Q 192.48 322.07 192.48 320.23 Q 192.48 318.38 193.12 317.42 Q 193.77 316.44 194.99 316.44 z M 199.25 322.63 L 200.28 322.63 L 200.28 323.87 L 199.25 323.87 L 199.25 322.63 z M 202.44 316.58 L 206.31 316.58 L 206.31 317.41 L 203.34 317.41 L 203.34 319.19 Q 203.55 319.12 203.77 319.09 Q 203.98 319.05 204.2 319.05 Q 205.42 319.05 206.13 319.72 Q 206.85 320.38 206.85 321.53 Q 206.85 322.7 206.11 323.36 Q 205.38 324.01 204.05 324.01 Q 203.59 324.01 203.11 323.93 Q 202.64 323.85 202.13 323.7 L 202.13 322.7 Q 202.57 322.94 203.04 323.06 Q 203.51 323.18 204.03 323.18 Q 204.87 323.18 205.37 322.73 Q 205.86 322.29 205.86 321.53 Q 205.86 320.77 205.37 320.32 Q 204.87 319.88 204.03 319.88 Q 203.63 319.88 203.24 319.96 Q 202.85 320.05 202.44 320.24 L 202.44 316.58 z" fill="#000000"/>
<path d="M 236.16 307.58 L 236.16 311.08" fill="none" stroke="#000000" stroke-width="0.8" stroke-linejoin="round"/>
<path d="M 231.39 317.23 Q 230.63 317.23 230.24 317.98 Q 229.86 318.72 229.86 320.23 Q 229.86 321.73 230.24 322.48 Q 230.63 323.23 231.39 323.23 Q 232.15 323.23 232.53 322.48 Q 232.92 321.73 232.92 320.23 Q 232.92 318.72 232.53 317.98 Q 232.15 317.23 231.39 317.23 M 231.39 316.44 Q 232.61 316.44 233.26 317.42 Q 233.91 318.38 233.91 320.23 Q 233.91 322.07 233.26 323.04 Q 232.61 324.01 231.39 324.01 Q 230.16 324.01 229.51 323.04 Q 228.87 322.07 228.87 320.23 Q 228.87 318.38 229.51 317.42 Q 230.16 316.44 231.39 316.44 z M 235.64 322.63 L 236.67 322.63 L 236.67 323.87 L 235.64 323.87 L 235.64 322.63 z M 240.93 317.23 Q 240.17 317.23 239.78 317.98 Q 239.4 318.72 239.4 320.23 Q 239.4 321.73 239.78 322.48 Q 240.17 323.23 240.93 323.23 Q 241.69 323.23 242.08 322.48 Q 242.46 321.73 242.46 320.23 Q 242.46 318.72 242.08 317.98 Q 241.69 317.23 240.93 317.23 M 240.93 316.44 Q 242.15 316.44 242.8 317.42 Q 243.45 318.38 243.45 320.23 Q 243.45 322.07 242.8 323.04 Q 242.15 324.01 240.93 324.01 Q 239.7 324.01 239.05 323.04 Q 238.41 322.07 238.41 320.23 Q 238.41 318.38 239.05 317.42 Q 239.7 316.44 240.93 316.44 z" fill="#000000"/>
<path d="M 276.74 307.58 L 276.74 311.08" fill="none" stroke="#000000" stroke-width="0.8" stroke-linejoin="round"/>
<path d="M 271.97 317.23 Q 271.21 317.23 270.82 317.98 Q 270.44 318.72 270.44 320.23 Q 270.44 321.73 270.82 322.48 Q 271.21 323.23 271.97 323.23 Q 272.74 323.23 273.12 322.48 Q 273.5 321.73 273.5 320.23 Q 273.5 318.72 273.12 317.98 Q 272.74 317.23 271.97 317.23 M 271.97 316.44 Q 273.19 316.44 273.84 317.42 Q 274.49 318.38 274.49 320.23 Q 274.49 322.07 273.84 323.04 Q 273.19 324.01 271.97 324.01 Q 270.74 324.01 270.09 323.04 Q 269.45 322.07 269.45 320.23 Q 269.45 318.38 270.09 317.42 Q 270.74 316.44 271.97 316.44 z M 276.22 322.63 L 277.25 322.63 L 277.25 323.87 L 276.22 323.87 L 276.22 322.63 z M 279.41 316.58 L 283.28 316.58 L 283.28 317.41 L 280.31 317.41 L 280.31 319.19 Q 280.53 319.12 280.74 319.09 Q 280.96 319.05 281.17 319.05 Q 282.39 319.05 283.11 319.72 Q 283.82 320.38 283.82 321.53 Q 283.82 322.7 283.09 323.36 Q 282.35 324.01 281.02 324.01 Q 280.56 324.01 280.08 323.93 Q 279.61 323.85 279.1 323.7 L 279.1 322.7 Q 279.54 322.94 280.01 323.06 Q 280.48 323.18 281 323.18 Q 281.85 323.18 282.34 322.73 Q 282.83 322.29 282.83 321.53 Q 282.83 320.77 282.34 320.32 Q 281.85 319.88 281 319.88 Q 280.61 319.88 280.21 319.96 Q 279.82 320.05 279.41 320.24 L 279.41 316.58 z" fill="#000000"/>
<path d="M 317.32 307.58 L 317.32 311.08" fill="none" stroke="#000000" stroke-width="0.8" stroke-linejoin="round"/>
<path d="M 310.61 323.04 L 312.22 323.04 L 312.22 317.47 L 310.47 317.83 L 310.47 316.93 L 312.21 316.58 L 313.2 316.58 L 313.2 323.04 L 314.81 323.04 L 314.81 323.87 L 310.61 323.87 L 310.61 323.04 z M 316.8 322.63 L 317.83 322.63 L 317.83 323.87 L 316.8 323.87 L 316.8 322.63 z M 322.09 317.23 Q 321.33 317.23 320.94 317.98 Q 320.56 318.72 320.56 320.23 Q 320.56 321.73 320.94 322.48 Q 321.33 323.23 322.09 323.23 Q 322.86 323.23 323.24 322.48 Q 323.62 321.73 323.62 320.23 Q 323.62 318.72 323.24 317.98 Q 322.86 317.23 322.09 317.23 M 322.09 316.44 Q 323.32 316.44 323.96 317.42 Q 324.61 318.38 324.61 320.23 Q 324.61 322.07 323.96 323.04 Q 323.32 324.01 322.09 324.01 Q 320.87 324.01 320.22 323.04 Q 319.57 322.07 319.57 320.23 Q 319.57 318.38 320.22 317.42 Q 320.87 316.44 322.09 316.44 z" fill="#000000"/>
<path d="M 357.91 307.58 L 357.91 311.08" fill="none" stroke="#000000" stroke-width="0.8" stroke-linejoin="round"/>
<path d="M 351.19 323.04 L 352.81 323.04 L 352.81 317.47 L 351.05 317.83 L 351.05 316.93 L 352.8 316.58 L 353.78 316.58 L 353.78 323.04 L 355.39 323.04 L 355.39 323.87 L 351.19 323.87 L 351.19 323.04 z M 357.39 322.63 L 358.42 322.63 L 358.42 323.87 L 357.39 323.87 L 357.39 322.63 z M 360.57 316.58 L 364.45 316.58 L 364.45 317.41 L 361.48 317.41 L 361.48 319.19 Q 361.69 319.12 361.91 319.09 Q 362.12 319.05 362.34 319.05 Q 363.56 319.05 364.27 319.72 Q 364.98 320.38 364.98 321.53 Q 364.98 322.7 364.25 323.36 Q 363.52 324.01 362.19 324.01 Q 361.73 324.01 361.25 323.93 Q 360.77 323.85 360.27 323.7 L 360.27 322.7 Q 360.71 322.94 361.17 323.06 Q 361.64 323.18 362.17 323.18 Q 363.01 323.18 363.5 322.73 Q 364 322.29 364 321.53 Q 364 320.77 363.5 320.32 Q 363.01 319.88 362.17 319.88 Q 361.77 319.88 361.37 319.96 Q 360.98 320.05 360.57 320.24 L 360.57 316.58 z" fill="#000000"/>
<path d="M 398.49 307.58 L 398.49 311.08" fill="none" stroke="#000000" stroke-width="0.8" stroke-linejoin="round"/>
<path d="M 392.45 323.04 L 395.9 323.04 L 395.9 323.87 L 391.27 323.87 L 391.27 323.04 Q 391.83 322.46 392.8 321.48 Q 393.77 320.5 394.02 320.21 Q 394.49 319.68 394.68 319.32 Q 394.87 318.94 394.87 318.59 Q 394.87 318.01 394.46 317.64 Q 394.05 317.27 393.4 317.27 Q 392.93 317.27 392.42 317.44 Q 391.9 317.6 391.32 317.92 L 391.32 316.93 Q 391.91 316.69 392.43 316.57 Q 392.95 316.44 393.38 316.44 Q 394.51 316.44 395.18 317.01 Q 395.86 317.58 395.86 318.52 Q 395.86 318.97 395.69 319.38 Q 395.52 319.78 395.08 320.33 Q 394.95 320.47 394.3 321.15 Q 393.65 321.82 392.45 323.04 z M 397.97 322.63 L 399 322.63 L 399 323.87 L 397.97 323.87 L 397.97 322.63 z M 403.26 317.23 Q 402.49 317.23 402.11 317.98 Q 401.73 318.72 401.73 320.23 Q 401.73 321.73 402.11 322.48 Q 402.49 323.23 403.26 323.23 Q 404.02 323.23 404.4 322.48 Q 404.79 321.73 404.79 320.23 Q 404.79 318.72 404.4 317.98 Q 404.02 317.23 403.26 317.23 M 403.26 316.44 Q 404.48 316.44 405.13 317.42 Q 405.77 318.38 405.77 320.23 Q 405.77 322.07 405.13 323.04 Q 404.48 324.01 403.26 324.01 Q 402.03 324.01 401.38 323.04 Q 400.74 322.07 400.74 320.23 Q 400.74 318.38 401.38 317.42 Q 402.03 316.44 403.26 316.44 z" fill="#000000"/>
</g>
<g id="ytick_1">
<path d="M 57.6 295.49 L 54.1 295.49" fill="none" stroke="#000000" stroke-width="0.8" stroke-linejoin="round"/>
<path d="M 27.38 295.4 L 33.64 295.4 L 33.64 296.23 L 27.38 296.23 L 27.38 295.4 z M 35.94 298.12 L 37.55 298.12 L 37.55 292.56 L 35.8 292.91 L 35.8 292.01 L 37.54 291.66 L 38.52 291.66 L 38.52 298.12 L 40.14 298.12 L 40.14 298.95 L 35.94 298.95 L 35.94 298.12 z M 42.13 297.71 L 43.16 297.71 L 43.16 298.95 L 42.13 298.95 L 42.13 297.71 z M 47.42 292.31 Q 46.65 292.31 46.27 293.06 Q 45.89 293.81 45.89 295.31 Q 45.89 296.81 46.27 297.56 Q 46.65 298.31 47.42 298.31 Q 48.18 298.31 48.56 297.56 Q 48.95 296.81 48.95 295.31 Q 48.95 293.81 48.56 293.06 Q 48.18 292.31 47.42 292.31 M 47.42 291.53 Q 48.64 291.53 49.29 292.5 Q 49.94 293.47 49.94 295.31 Q 49.94 297.15 49.29 298.12 Q 48.64 299.09 47.42 299.09 Q 46.19 299.09 45.54 298.12 Q 44.9 297.15 44.9 295.31 Q 44.9 293.47 45.54 292.5 Q 46.19 291.53 47.42 291.53 z" fill="#000000"/>
<path d="M 57.6 265.25 L 54.1 265.25" fill="none" stroke="#000000" stroke-width="0.8" stroke-linejoin="round"/>
<path d="M 27.38 265.16 L 33.64 265.16 L 33.64 265.99 L 27.38 265.99 L 27.38 265.16 z M 37.88 262.07 Q 37.11 262.07 36.73 262.82 Q 36.35 263.57 36.35 265.07 Q 36.35 266.57 36.73 267.32 Q 37.11 268.07 37.88 268.07 Q 38.64 268.07 39.02 267.32 Q 39.41 266.57 39.41 265.07 Q 39.41 263.57 39.02 262.82 Q 38.64 262.07 37.88 262.07 M 37.88 261.29 Q 39.1 261.29 39.75 262.26 Q 40.39 263.23 40.39 265.07 Q 40.39 266.91 39.75 267.88 Q 39.1 268.85 37.88 268.85 Q 36.65 268.85 36 267.88 Q 35.36 266.91 35.36 265.07 Q 35.36 263.23 36 262.26 Q 36.65 261.29 37.88 261.29 z M 42.13 267.47 L 43.16 267.47 L 43.16 268.71 L 42.13 268.71 L 42.13 267.47 z M 45.32 261.42 L 49.19 261.42 L 49.19 262.25 L 46.22 262.25 L 46.22 264.04 Q 46.43 263.96 46.65 263.93 Q 46.86 263.89 47.08 263.89 Q 48.3 263.89 49.01 264.56 Q 49.73 265.23 49.73 266.37 Q 49.73 267.55 48.99 268.2 Q 48.26 268.85 46.93 268.85 Q 46.47 268.85 45.99 268.77 Q 45.52 268.7 45.01 268.54 L 45.01 267.55 Q 45.45 267.79 45.92 267.9 Q 46.39 268.02 46.91 268.02 Q 47.75 268.02 48.25 267.58 Q 48.74 267.13 48.74 266.37 Q 48.74 265.61 48.25 265.16 Q 47.75 264.72 46.91 264.72 Q 46.51 264.72 46.12 264.81 Q 45.73 264.9 45.32 265.08 L 45.32 261.42 z" fill="#000000"/>
<path d="M 57.6 235.01 L 54.1 235.01" fill="none" stroke="#000000" stroke-width="0.8" stroke-linejoin="round"/>
<path d="M 37.88 231.83 Q 37.11 231.83 36.73 232.58 Q 36.35 233.33 36.35 234.83 Q 36.35 236.33 36.73 237.08 Q 37.11 237.83 37.88 237.83 Q 38.64 237.83 39.02 237.08 Q 39.41 236.33 39.41 234.83 Q 39.41 233.33 39.02 232.58 Q 38.64 231.83 37.88 231.83 M 37.88 231.05 Q 39.1 231.05 39.75 232.02 Q 40.39 232.99 40.39 234.83 Q 40.39 236.67 39.75 237.64 Q 39.1 238.61 37.88 238.61 Q 36.65 238.61 36 237.64 Q 35.36 236.67 35.36 234.83 Q 35.36 232.99 36 232.02 Q 36.65 231.05 37.88 231.05 z M 42.13 237.23 L 43.16 237.23 L 43.16 238.47 L 42.13 238.47 L 42.13 237.23 z M 47.42 231.83 Q 46.65 231.83 46.27 232.58 Q 45.89 233.33 45.89 234.83 Q 45.89 236.33 46.27 237.08 Q 46.65 237.83 47.42 237.83 Q 48.18 237.83 48.56 237.08 Q 48.95 236.33 48.95 234.83 Q 48.95 233.33 48.56 232.58 Q 48.18 231.83 47.42 231.83 M 47.42 231.05 Q 48.64 231.05 49.29 232.02 Q 49.94 232.99 49.94 234.83 Q 49.94 236.67 49.29 237.64 Q 48.64 238.61 47.42 238.61 Q 46.19 238.61 45.54 237.64 Q 44.9 236.67 44.9 234.83 Q 44.9 232.99 45.54 232.02 Q 46.19 231.05 47.42 231.05 z" fill="#000000"/>
<path d="M 57.6 204.77 L 54.1 204.77" fill="none" stroke="#000000" stroke-width="0.8" stroke-linejoin="round"/>
<path d="M 37.88 201.59 Q 37.11 201.59 36.73 202.34 Q 36.35 203.09 36.35 204.59 Q 36.35 206.09 36.73 206.84 Q 37.11 207.59 37.88 207.59 Q 38.64 207.59 39.02 206.84 Q 39.41 206.09 39.41 204.59 Q 39.41 203.09 39.02 202.34 Q 38.64 201.59 37.88 201.59 M 37.88 200.81 Q 39.1 200.81 39.75 201.78 Q 40.39 202.75 40.39 204.59 Q 40.39 206.43 39.75 207.4 Q 39.1 208.37 37.88 208.37 Q 36.65 208.37 36 207.4 Q 35.36 206.43 35.36 204.59 Q 35.36 202.75 36 201.78 Q 36.65 200.81 37.88 200.81 z M 42.13 206.99 L 43.16 206.99 L 43.16 208.23 L 42.13 208.23 L 42.13 206.99 z M 45.32 200.94 L 49.19 200.94 L 49.19 201.77 L 46.22 201.77 L 46.22 203.56 Q 46.43 203.48 46.65 203.45 Q 46.86 203.41 47.08 203.41 Q 48.3 203.41 49.01 204.08 Q 49.73 204.75 49.73 205.89 Q 49.73 207.07 48.99 207.72 Q 48.26 208.37 46.93 208.37 Q 46.47 208.37 45.99 208.29 Q 45.52 208.22 45.01 208.06 L 45.01 207.07 Q 45.45 207.31 45.92 207.42 Q 46.39 207.54 46.91 207.54 Q 47.75 207.54 48.25 207.1 Q 48.74 206.65 48.74 205.89 Q 48.74 205.13 48.25 204.68 Q 47.75 204.24 46.91 204.24 Q 46.51 204.24 46.12 204.33 Q 45.73 204.42 45.32 204.6 L 45.32 200.94 z" fill="#000000"/>
<path d="M 57.6 174.53 L 54.1 174.53" fill="none" stroke="#000000" stroke-width="0.8" stroke-linejoin="round"/>
<path d="M 35.94 177.16 L 37.55 177.16 L 37.55 171.6 L 35.8 171.95 L 35.8 171.05 L 37.54 170.7 L 38.52 170.7 L 38.52 177.16 L 40.14 177.16 L 40.14 177.99 L 35.94 177.99 L 35.94 177.16 z M 42.13 176.75 L 43.16 176.75 L 43.16 177.99 L 42.13 177.99 L 42.13 176.75 z M 47.42 171.35 Q 46.65 171.35 46.27 172.1 Q 45.89 172.85 45.89 174.35 Q 45.89 175.85 46.27 176.6 Q 46.65 177.35 47.42 177.35 Q 48.18 177.35 48.56 176.6 Q 48.95 175.85 48.95 174.35 Q 48.95 172.85 48.56 172.1 Q 48.18 171.35 47.42 171.35 M 47.42 170.57 Q 48.64 170.57 49.29 171.54 Q 49.94 172.51 49.94 174.35 Q 49.94 176.19 49.29 177.16 Q 48.64 178.13 47.42 178.13 Q 46.19 178.13 45.54 177.16 Q 44.9 176.19 44.9 174.35 Q 44.9 172.51 45.54 171.54 Q 46.19 170.57 47.42 170.57 z" fill="#000000"/>
<path d="M 57.6 144.29 L 54.1 144.29" fill="none" stroke="#000000" stroke-width="0.8" stroke-linejoin="round"/>
<path d="M 35.94 146.92 L 37.55 146.92 L 37.55 141.36 L 35.8 141.71 L 35.8 140.81 L 37.54 140.46 L 38.52 140.46 L 38.52 146.92 L 40.14 146.92 L 40.14 147.75 L 35.94 147.75 L 35.94 146.92 z M 42.13 146.51 L 43.16 146.51 L 43.16 147.75 L 42.13 147.75 L 42.13 146.51 z M 45.32 140.46 L 49.19 140.46 L 49.19 141.29 L 46.22 141.29 L 46.22 143.08 Q 46.43 143 46.65 142.97 Q 46.86 142.93 47.08 142.93 Q 48.3 142.93 49.01 143.6 Q 49.73 144.27 49.73 145.41 Q 49.73 146.59 48.99 147.24 Q 48.26 147.89 46.93 147.89 Q 46.47 147.89 45.99 147.81 Q 45.52 147.74 45.01 147.58 L 45.01 146.59 Q 45.45 146.83 45.92 146.94 Q 46.39 147.06 46.91 147.06 Q 47.75 147.06 48.25 146.62 Q 48.74 146.17 48.74 145.41 Q 48.74 144.65 48.25 144.2 Q 47.75 143.76 46.91 143.76 Q 46.51 143.76 46.12 143.85 Q 45.73 143.94 45.32 144.12 L 45.32 140.46 z" fill="#000000"/>
<path d="M 57.6 114.05 L 54.1 114.05" fill="none" stroke="#000000" stroke-width="0.8" stroke-linejoin="round"/>
<path d="M 36.62 116.68 L 40.06 116.68 L 40.06 117.51 L 35.43 117.51 L 35.43 116.68 Q 35.99 116.1 36.96 115.12 Q 37.93 114.14 38.18 113.86 Q 38.65 113.33 38.84 112.96 Q 39.03 112.59 39.03 112.23 Q 39.03 111.65 38.62 111.28 Q 38.21 110.92 37.56 110.92 Q 37.09 110.92 36.58 111.08 Q 36.06 111.24 35.48 111.57 L 35.48 110.57 Q 36.07 110.33 36.59 110.21 Q 37.11 110.09 37.54 110.09 Q 38.67 110.09 39.35 110.65 Q 40.02 111.22 40.02 112.17 Q 40.02 112.62 39.85 113.02 Q 39.68 113.42 39.24 113.97 Q 39.12 114.11 38.46 114.79 Q 37.81 115.46 36.62 116.68 z M 42.13 116.27 L 43.16 116.27 L 43.16 117.51 L 42.13 117.51 L 42.13 116.27 z M 47.42 110.87 Q 46.65 110.87 46.27 111.62 Q 45.89 112.37 45.89 113.87 Q 45.89 115.37 46.27 116.12 Q 46.65 116.87 47.42 116.87 Q 48.18 116.87 48.56 116.12 Q 48.95 115.37 48.95 113.87 Q 48.95 112.37 48.56 111.62 Q 48.18 110.87 47.42 110.87 M 47.42 110.09 Q 48.64 110.09 49.29 111.06 Q 49.94 112.03 49.94 113.87 Q 49.94 115.71 49.29 116.68 Q 48.64 117.65 47.42 117.65 Q 46.19 117.65 45.54 116.68 Q 44.9 115.71 44.9 113.87 Q 44.9 112.03 45.54 111.06 Q 46.19 110.09 47.42 110.09 z" fill="#000000"/>
<path d="M 57.6 83.81 L 54.1 83.81" fill="none" stroke="#000000" stroke-width="0.8" stroke-linejoin="round"/>
<path d="M 36.62 86.44 L 40.06 86.44 L 40.06 87.27 L 35.43 87.27 L 35.43 86.44 Q 35.99 85.86 36.96 84.88 Q 37.93 83.9 38.18 83.62 Q 38.65 83.09 38.84 82.72 Q 39.03 82.35 39.03 81.99 Q 39.03 81.41 38.62 81.04 Q 38.21 80.68 37.56 80.68 Q 37.09 80.68 36.58 80.84 Q 36.06 81 35.48 81.33 L 35.48 80.33 Q 36.07 80.09 36.59 79.97 Q 37.11 79.85 37.54 79.85 Q 38.67 79.85 39.35 80.41 Q 40.02 80.98 40.02 81.93 Q 40.02 82.38 39.85 82.78 Q 39.68 83.18 39.24 83.73 Q 39.12 83.87 38.46 84.55 Q 37.81 85.22 36.62 86.44 z M 42.13 86.03 L 43.16 86.03 L 43.16 87.27 L 42.13 87.27 L 42.13 86.03 z M 45.32 79.98 L 49.19 79.98 L 49.19 80.81 L 46.22 80.81 L 46.22 82.6 Q 46.43 82.52 46.65 82.49 Q 46.86 82.45 47.08 82.45 Q 48.3 82.45 49.01 83.12 Q 49.73 83.79 49.73 84.93 Q 49.73 86.11 48.99 86.76 Q 48.26 87.41 46.93 87.41 Q 46.47 87.41 45.99 87.33 Q 45.52 87.26 45.01 87.1 L 45.01 86.11 Q 45.45 86.35 45.92 86.46 Q 46.39 86.58 46.91 86.58 Q 47.75 86.58 48.25 86.14 Q 48.74 85.69 48.74 84.93 Q 48.74 84.17 48.25 83.72 Q 47.75 83.28 46.91 83.28 Q 46.51 83.28 46.12 83.37 Q 45.73 83.46 45.32 83.64 L 45.32 79.98 z" fill="#000000"/>
<path d="M 57.6 53.57 L 54.1 53.57" fill="none" stroke="#000000" stroke-width="0.8" stroke-linejoin="round"/>
<path d="M 38.75 53.1 Q 39.46 53.25 39.86 53.73 Q 40.26 54.21 40.26 54.91 Q 40.26 55.99 39.52 56.58 Q 38.77 57.17 37.41 57.17 Q 36.95 57.17 36.46 57.08 Q 35.98 56.99 35.46 56.81 L 35.46 55.86 Q 35.87 56.1 36.36 56.22 Q 36.85 56.34 37.38 56.34 Q 38.31 56.34 38.79 55.98 Q 39.28 55.61 39.28 54.91 Q 39.28 54.27 38.82 53.9 Q 38.37 53.54 37.57 53.54 L 36.72 53.54 L 36.72 52.73 L 37.61 52.73 Q 38.33 52.73 38.72 52.44 Q 39.11 52.15 39.11 51.6 Q 39.11 51.04 38.71 50.74 Q 38.31 50.44 37.57 50.44 Q 37.16 50.44 36.7 50.53 Q 36.23 50.61 35.68 50.8 L 35.68 49.92 Q 36.24 49.76 36.73 49.69 Q 37.22 49.61 37.66 49.61 Q 38.78 49.61 39.43 50.12 Q 40.09 50.63 40.09 51.5 Q 40.09 52.1 39.74 52.52 Q 39.39 52.94 38.75 53.1 z M 42.13 55.79 L 43.16 55.79 L 43.16 57.03 L 42.13 57.03 L 42.13 55.79 z M 47.42 50.39 Q 46.65 50.39 46.27 51.14 Q 45.89 51.89 45.89 53.39 Q 45.89 54.89 46.27 55.64 Q 46.65 56.39 47.42 56.39 Q 48.18 56.39 48.56 55.64 Q 48.95 54.89 48.95 53.39 Q 48.95 51.89 48.56 51.14 Q 48.18 50.39 47.42 50.39 M 47.42 49.61 Q 48.64 49.61 49.29 50.58 Q 49.94 51.55 49.94 53.39 Q 49.94 55.23 49.29 56.2 Q 48.64 57.17 47.42 57.17 Q 46.19 57.17 45.54 56.2 Q 44.9 55.23 44.9 53.39 Q 44.9 51.55 45.54 50.58 Q 46.19 49.61 47.42 49.61 z" fill="#000000"/>
</g>
<g id="text_1">
<path d="M 238.69 334.04 L 236.71 336.7 L 238.79 339.51 L 237.73 339.51 L 236.14 337.36 L 234.55 339.51 L 233.49 339.51 L 235.61 336.65 L 233.67 334.04 L 234.73 334.04 L 236.18 335.99 L 237.63 334.04 L 238.69 334.04 z" fill="#000000"/>
</g>
<g id="text_2">
<path d="M 12.36 179.44 L 13.11 179.44 L 13.11 180.3 Q 13.11 180.78 13.3 180.97 Q 13.5 181.16 14.01 181.16 L 14.49 181.16 L 14.49 179.68 L 15.19 179.68 L 15.19 181.16 L 19.96 181.16 L 19.96 182.06 L 15.19 182.06 L 15.19 182.92 L 14.49 182.92 L 14.49 182.06 L 14.11 182.06 Q 13.2 182.06 12.78 181.63 Q 12.36 181.21 12.36 180.29 L 12.36 179.44 z M 12.37 176.53 Q 13.49 177.18 14.59 177.5 Q 15.69 177.82 16.82 177.82 Q 17.95 177.82 19.06 177.5 Q 20.16 177.18 21.28 176.53 L 21.28 177.31 Q 20.13 178.04 19.02 178.41 Q 17.91 178.77 16.82 178.77 Q 15.73 178.77 14.63 178.41 Q 13.52 178.05 12.37 177.31 L 12.37 176.53 z M 14.49 170.24 L 17.15 172.22 L 19.96 170.14 L 19.96 171.2 L 17.81 172.79 L 19.96 174.38 L 19.96 175.44 L 17.1 173.31 L 14.49 175.26 L 14.49 174.2 L 16.44 172.75 L 14.49 171.3 L 14.49 170.24 z M 12.37 169.01 L 12.37 168.23 Q 13.52 167.49 14.63 167.13 Q 15.73 166.77 16.82 166.77 Q 17.91 166.77 19.02 167.13 Q 20.13 167.49 21.28 168.23 L 21.28 169.01 Q 20.16 168.36 19.06 168.04 Q 17.95 167.72 16.82 167.72 Q 15.69 167.72 14.59 168.04 Q 13.49 168.36 12.37 169.01 z" fill="#000000"/>
</g>
<g id="text_3">
<path d="M 188.07 29.28 Q 188.07 28.11 187.58 27.47 Q 187.1 26.82 186.23 26.82 Q 185.36 26.82 184.87 27.47 Q 184.39 28.11 184.39 29.28 Q 184.39 30.45 184.87 31.1 Q 185.36 31.74 186.23 31.74 Q 187.1 31.74 187.58 31.1 Q 188.07 30.45 188.07 29.28 M 189.14 31.83 Q 189.14 33.5 188.4 34.32 Q 187.66 35.14 186.12 35.14 Q 185.55 35.14 185.05 35.06 Q 184.54 34.97 184.07 34.79 L 184.07 33.74 Q 184.54 34 185.01 34.12 Q 185.47 34.25 185.95 34.25 Q 187.01 34.25 187.54 33.7 Q 188.07 33.14 188.07 32.02 L 188.07 31.49 Q 187.73 32.07 187.21 32.35 Q 186.69 32.64 185.96 32.64 Q 184.76 32.64 184.02 31.72 Q 183.28 30.8 183.28 29.28 Q 183.28 27.76 184.02 26.84 Q 184.76 25.92 185.96 25.92 Q 186.69 25.92 187.21 26.21 Q 187.73 26.5 188.07 27.08 L 188.07 26.08 L 189.14 26.08 L 189.14 31.83 z M 195.17 27.09 Q 194.99 26.98 194.77 26.93 Q 194.56 26.88 194.3 26.88 Q 193.39 26.88 192.89 27.48 Q 192.41 28.07 192.41 29.18 L 192.41 32.64 L 191.32 32.64 L 191.32 26.08 L 192.41 26.08 L 192.41 27.1 Q 192.75 26.5 193.29 26.21 Q 193.84 25.92 194.62 25.92 Q 194.73 25.92 194.86 25.94 Q 195 25.95 195.16 25.98 L 195.17 27.09 z M 199.28 29.34 Q 197.97 29.34 197.47 29.64 Q 196.97 29.94 196.97 30.66 Q 196.97 31.24 197.34 31.58 Q 197.72 31.91 198.37 31.91 Q 199.27 31.91 199.81 31.28 Q 200.35 30.64 200.35 29.58 L 200.35 29.34 L 199.28 29.34 M 201.43 28.9 L 201.43 32.64 L 200.35 32.64 L 200.35 31.65 Q 199.98 32.24 199.43 32.53 Q 198.88 32.81 198.09 32.81 Q 197.08 32.81 196.48 32.25 Q 195.89 31.68 195.89 30.73 Q 195.89 29.62 196.63 29.06 Q 197.37 28.5 198.84 28.5 L 200.35 28.5 L 200.35 28.39 Q 200.35 27.65 199.86 27.25 Q 199.37 26.84 198.49 26.84 Q 197.93 26.84 197.39 26.97 Q 196.86 27.1 196.37 27.37 L 196.37 26.38 Q 196.96 26.15 197.52 26.04 Q 198.07 25.92 198.6 25.92 Q 200.03 25.92 200.73 26.66 Q 201.43 27.4 201.43 28.9 z M 204.7 31.66 L 204.7 35.14 L 203.61 35.14 L 203.61 26.08 L 204.7 26.08 L 204.7 27.08 Q 205.04 26.49 205.55 26.21 Q 206.07 25.92 206.79 25.92 Q 207.99 25.92 208.73 26.87 Q 209.48 27.82 209.48 29.37 Q 209.48 30.91 208.73 31.86 Q 207.99 32.81 206.79 32.81 Q 206.07 32.81 205.55 32.53 Q 205.04 32.24 204.7 31.66 M 208.36 29.37 Q 208.36 28.18 207.87 27.5 Q 207.38 26.82 206.53 26.82 Q 205.67 26.82 205.18 27.5 Q 204.7 28.18 204.7 29.37 Q 204.7 30.56 205.18 31.24 Q 205.67 31.91 206.53 31.91 Q 207.38 31.91 207.87 31.24 Q 208.36 30.56 208.36 29.37 z M 216.72 28.68 L 216.72 32.64 L 215.65 32.64 L 215.65 28.72 Q 215.65 27.78 215.28 27.32 Q 214.92 26.86 214.19 26.86 Q 213.32 26.86 212.82 27.42 Q 212.31 27.97 212.31 28.93 L 212.31 32.64 L 211.23 32.64 L 211.23 23.52 L 212.31 23.52 L 212.31 27.1 Q 212.7 26.51 213.22 26.21 Q 213.75 25.92 214.43 25.92 Q 215.56 25.92 216.14 26.62 Q 216.72 27.32 216.72 28.68 z M 218.87 23.52 L 219.95 23.52 L 219.95 32.64 L 218.87 32.64 L 218.87 23.52 z M 222.21 26.08 L 223.29 26.08 L 223.29 32.64 L 222.21 32.64 L 222.21 26.08 M 222.21 23.52 L 223.29 23.52 L 223.29 24.89 L 222.21 24.89 L 222.21 23.52 z M 230.25 29.37 Q 230.25 28.18 229.76 27.5 Q 229.28 26.82 228.42 26.82 Q 227.56 26.82 227.07 27.5 Q 226.59 28.18 226.59 29.37 Q 226.59 30.56 227.07 31.24 Q 227.56 31.91 228.42 31.91 Q 229.28 31.91 229.76 31.24 Q 230.25 30.56 230.25 29.37 M 226.59 27.08 Q 226.93 26.49 227.44 26.21 Q 227.96 25.92 228.68 25.92 Q 229.88 25.92 230.62 26.87 Q 231.37 27.82 231.37 29.37 Q 231.37 30.91 230.62 31.86 Q 229.88 32.81 228.68 32.81 Q 227.96 32.81 227.44 32.53 Q 226.93 32.24 226.59 31.66 L 226.59 32.64 L 225.5 32.64 L 225.5 23.52 L 226.59 23.52 L 226.59 27.08 z z M 240.3 23.52 L 240.3 24.42 L 239.27 24.42 Q 238.69 24.42 238.46 24.66 Q 238.23 24.89 238.23 25.5 L 238.23 26.08 L 240.01 26.08 L 240.01 26.92 L 238.23 26.92 L 238.23 32.64 L 237.15 32.64 L 237.15 26.92 L 236.12 26.92 L 236.12 26.08 L 237.15 26.08 L 237.15 25.62 Q 237.15 24.53 237.66 24.03 Q 238.17 23.52 239.28 23.52 L 240.3 23.52 z M 241.2 26.08 L 242.28 26.08 L 242.28 32.64 L 241.2 32.64 L 241.2 26.08 M 241.2 23.52 L 242.28 23.52 L 242.28 24.89 L 241.2 24.89 L 241.2 23.52 z M 248.34 27.09 Q 248.15 26.98 247.94 26.93 Q 247.73 26.88 247.47 26.88 Q 246.55 26.88 246.06 27.48 Q 245.58 28.07 245.58 29.18 L 245.58 32.64 L 244.49 32.64 L 244.49 26.08 L 245.58 26.08 L 245.58 27.1 Q 245.92 26.5 246.46 26.21 Q 247.01 25.92 247.79 25.92 Q 247.9 25.92 248.03 25.94 Q 248.17 25.95 248.33 25.98 L 248.34 27.09 z M 253.65 26.27 L 253.65 27.29 Q 253.19 27.06 252.7 26.94 Q 252.21 26.82 251.68 26.82 Q 250.88 26.82 250.47 27.07 Q 250.08 27.32 250.08 27.81 Q 250.08 28.18 250.36 28.4 Q 250.65 28.61 251.52 28.8 L 251.89 28.89 Q 253.04 29.13 253.52 29.58 Q 254 30.03 254 30.83 Q 254 31.75 253.28 32.28 Q 252.55 32.81 251.29 32.81 Q 250.76 32.81 250.19 32.71 Q 249.62 32.61 248.99 32.4 L 248.99 31.29 Q 249.58 31.6 250.16 31.76 Q 250.74 31.91 251.31 31.91 Q 252.07 31.91 252.48 31.65 Q 252.89 31.39 252.89 30.91 Q 252.89 30.47 252.6 30.24 Q 252.3 30.01 251.3 29.79 L 250.93 29.7 Q 249.92 29.49 249.48 29.06 Q 249.03 28.62 249.03 27.85 Q 249.03 26.93 249.69 26.43 Q 250.35 25.92 251.55 25.92 Q 252.15 25.92 252.68 26.01 Q 253.2 26.1 253.65 26.27 z M 256.79 24.22 L 256.79 26.08 L 259.01 26.08 L 259.01 26.92 L 256.79 26.92 L 256.79 30.48 Q 256.79 31.28 257 31.51 Q 257.22 31.74 257.9 31.74 L 259.01 31.74 L 259.01 32.64 L 257.9 32.64 Q 256.65 32.64 256.18 32.18 Q 255.7 31.71 255.7 30.48 L 255.7 26.92 L 254.91 26.92 L 254.91 26.08 L 255.7 26.08 L 255.7 24.22 L 256.79 24.22 z z M 264.24 23.52 L 265.32 23.52 L 265.32 32.64 L 264.24 32.64 L 264.24 23.52 z M 267.57 26.08 L 268.65 26.08 L 268.65 32.64 L 267.57 32.64 L 267.57 26.08 M 267.57 23.52 L 268.65 23.52 L 268.65 24.89 L 267.57 24.89 L 267.57 23.52 z M 275.22 29.28 Q 275.22 28.11 274.74 27.47 Q 274.26 26.82 273.38 26.82 Q 272.52 26.82 272.03 27.47 Q 271.55 28.11 271.55 29.28 Q 271.55 30.45 272.03 31.1 Q 272.52 31.74 273.38 31.74 Q 274.26 31.74 274.74 31.1 Q 275.22 30.45 275.22 29.28 M 276.3 31.83 Q 276.3 33.5 275.56 34.32 Q 274.81 35.14 273.28 35.14 Q 272.71 35.14 272.21 35.06 Q 271.7 34.97 271.23 34.79 L 271.23 33.74 Q 271.7 34 272.17 34.12 Q 272.63 34.25 273.11 34.25 Q 274.17 34.25 274.7 33.7 Q 275.22 33.14 275.22 32.02 L 275.22 31.49 Q 274.89 32.07 274.37 32.35 Q 273.85 32.64 273.12 32.64 Q 271.91 32.64 271.18 31.72 Q 270.44 30.8 270.44 29.28 Q 270.44 27.76 271.18 26.84 Q 271.91 25.92 273.12 25.92 Q 273.85 25.92 274.37 26.21 Q 274.89 26.5 275.22 27.08 L 275.22 26.08 L 276.3 26.08 L 276.3 31.83 z M 283.98 28.68 L 283.98 32.64 L 282.9 32.64 L 282.9 28.72 Q 282.9 27.78 282.54 27.32 Q 282.17 26.86 281.45 26.86 Q 280.57 26.86 280.07 27.42 Q 279.57 27.97 279.57 28.93 L 279.57 32.64 L 278.48 32.64 L 278.48 23.52 L 279.57 23.52 L 279.57 27.1 Q 279.95 26.51 280.47 26.21 Q 281 25.92 281.69 25.92 Q 282.82 25.92 283.4 26.62 Q 283.98 27.32 283.98 28.68 z M 287.2 24.22 L 287.2 26.08 L 289.42 26.08 L 289.42 26.92 L 287.2 26.92 L 287.2 30.48 Q 287.2 31.28 287.41 31.51 Q 287.63 31.74 288.31 31.74 L 289.42 31.74 L 289.42 32.64 L 288.31 32.64 Q 287.06 32.64 286.59 32.18 Q 286.11 31.71 286.11 30.48 L 286.11 26.92 L 285.32 26.92 L 285.32 26.08 L 286.11 26.08 L 286.11 24.22 L 287.2 24.22 z" fill="#000000"/>
</g>
</g>
</g>
</svg>
