<?xml version="1.0" encoding="utf-8" standalone="no"?>
<!DOCTYPE svg PUBLIC "-//W3C//DTD SVG 1.1//EN"
  "http://www.w3.org/Graphics/SVG/1.1/DTD/svg11.dtd">
<svg xmlns:xlink="http://www.w3.org/1999/xlink" width="460.8pt" height="345.6pt" viewBox="0 0 460.8 345.6" xmlns="http://www.w3.org/2000/svg" version="1.1">
 <metadata>
  <rdf:RDF xmlns:dc="http://purl.org/dc/elements/1.1/" xmlns:cc="http://creativecommons.org/ns#" xmlns:rdf="http://www.w3.org/1999/02/22-rdf-syntax-ns#">
   <cc:Work>
    <dc:type rdf:resource="http://purl.org/dc/dcmitype/StillImage"/>
    <dc:format>image/svg+xml</dc:format>
    <dc:creator>
     <cc:Agent>
      <dc:title>Matplotlib v3.10.8, https://matplotlib.org/</dc:title>
     </cc:Agent>
    </dc:creator>
   </cc:Work>
  </rdf:RDF>
 </metadata>
 <defs>
  <style type="text/css">*{stroke-linejoin: round; stroke-linecap: butt}</style>
 </defs>
 <g id="figure_1">
  <g id="patch_1">
   <path d="M 0 345.6 
L 460.8 345.6 
L 460.8 0 
L 0 0 
z
" style="fill: #ffffff"/>
  </g>
  <g id="axes_1">
   <g id="patch_2">
    <path d="M 57.6 307.584 
L 414.72 307.584 
L 414.72 41.472 
L 57.6 41.472 
z
" style="fill: #ffffff"/>
   </g>
   <g id="matplotlib.axis_1">
    <g id="xtick_1">
     <g id="line2d_1">
      <defs>
       <path id="ma24f9baa4d" d="M 0 0 
L 0 3.5 
" style="stroke: #000000; stroke-width: 0.8"/>
      </defs>
      <g>
       <use xlink:href="#ma24f9baa4d" x="73.832727" y="307.584" style="stroke: #000000; stroke-width: 0.8"/>
      </g>
     </g>
     <g id="text_1">
      <!-- 0 -->
      <g transform="translate(70.651477 322.182437) scale(0.1 -0.1)">
       <defs>
        <path id="DejaVuSans-30" d="M 2034 4250 
Q 1547 4250 1301 3770 
Q 1056 3291 1056 2328 
Q 1056 1369 1301 889 
Q 1547 409 2034 409 
Q 2525 409 2770 889 
Q 3016 1369 3016 2328 
Q 3016 3291 2770 3770 
Q 2525 4250 2034 4250 
z
M 2034 4750 
Q 2819 4750 3233 4129 
Q 3647 3509 3647 2328 
Q 3647 1150 3233 529 
Q 2819 -91 2034 -91 
Q 1250 -91 836 529 
Q 422 1150 422 2328 
Q 422 3509 836 4129 
Q 1250 4750 2034 4750 
z
" transform="scale(0.015625)"/>
       </defs>
       <use xlink:href="#DejaVuSans-30"/>
      </g>
     </g>
    </g>
    <g id="xtick_2">
     <g id="line2d_2">
      <g>
       <use xlink:href="#ma24f9baa4d" x="125.503103" y="307.584" style="stroke: #000000; stroke-width: 0.8"/>
      </g>
     </g>
     <g id="text_2">
      <!-- 1 -->
      <g transform="translate(122.321853 322.182437) scale(0.1 -0.1)">
       <defs>
        <path id="DejaVuSans-31" d="M 794 531 
L 1825 531 
L 1825 4091 
L 703 3866 
L 703 4441 
L 1819 4666 
L 2450 4666 
L 2450 531 
L 3481 531 
L 3481 0 
L 794 0 
L 794 531 
z
" transform="scale(0.015625)"/>
       </defs>
       <use xlink:href="#DejaVuSans-31"/>
      </g>
     </g>
    </g>
    <g id="xtick_3">
     <g id="line2d_3">
      <g>
       <use xlink:href="#ma24f9baa4d" x="177.173479" y="307.584" style="stroke: #000000; stroke-width: 0.8"/>
      </g>
     </g>
     <g id="text_3">
      <!-- 2 -->
      <g transform="translate(173.992229 322.182437) scale(0.1 -0.1)">
       <defs>
        <path id="DejaVuSans-32" d="M 1228 531 
L 3431 531 
L 3431 0 
L 469 0 
L 469 531 
Q 828 903 1448 1529 
Q 2069 2156 2228 2338 
Q 2531 2678 2651 2914 
Q 2772 3150 2772 3378 
Q 2772 3750 2511 3984 
Q 2250 4219 1831 4219 
Q 1534 4219 1204 4116 
Q 875 4013 500 3803 
L 500 4441 
Q 881 4594 1212 4672 
Q 1544 4750 1819 4750 
Q 2544 4750 2975 4387 
Q 3406 4025 3406 3419 
Q 3406 3131 3298 2873 
Q 3191 2616 2906 2266 
Q 2828 2175 2409 1742 
Q 1991 1309 1228 531 
z
" transform="scale(0.015625)"/>
       </defs>
       <use xlink:href="#DejaVuSans-32"/>
      </g>
     </g>
    </g>
    <g id="xtick_4">
     <g id="line2d_4">
      <g>
       <use xlink:href="#ma24f9baa4d" x="228.843854" y="307.584" style="stroke: #000000; stroke-width: 0.8"/>
      </g>
     </g>
     <g id="text_4">
      <!-- 3 -->
      <g transform="translate(225.662604 322.182437) scale(0.1 -0.1)">
       <defs>
        <path id="DejaVuSans-33" d="M 2597 2516 
Q 3050 2419 3304 2112 
Q 3559 1806 3559 1356 
Q 3559 666 3084 287 
Q 2609 -91 1734 -91 
Q 1441 -91 1130 -33 
Q 819 25 488 141 
L 488 750 
Q 750 597 1062 519 
Q 1375 441 1716 441 
Q 2309 441 2620 675 
Q 2931 909 2931 1356 
Q 2931 1769 2642 2001 
Q 2353 2234 1838 2234 
L 1294 2234 
L 1294 2753 
L 1863 2753 
Q 2328 2753 2575 2939 
Q 2822 3125 2822 3475 
Q 2822 3834 2567 4026 
Q 2313 4219 1838 4219 
Q 1578 4219 1281 4162 
Q 984 4106 628 3988 
L 628 4550 
Q 988 4650 1302 4700 
Q 1616 4750 1894 4750 
Q 2613 4750 3031 4423 
Q 3450 4097 3450 3541 
Q 3450 3153 3228 2886 
Q 3006 2619 2597 2516 
z
" transform="scale(0.015625)"/>
       </defs>
       <use xlink:href="#DejaVuSans-33"/>
      </g>
     </g>
    </g>
    <g id="xtick_5">
     <g id="line2d_5">
      <g>
       <use xlink:href="#ma24f9baa4d" x="280.51423" y="307.584" style="stroke: #000000; stroke-width: 0.8"/>
      </g>
     </g>
     <g id="text_5">
      <!-- 4 -->
      <g transform="translate(277.33298 322.182437) scale(0.1 -0.1)">
       <defs>
        <path id="DejaVuSans-34" d="M 2419 4116 
L 825 1625 
L 2419 1625 
L 2419 4116 
z
M 2253 4666 
L 3047 4666 
L 3047 1625 
L 3713 1625 
L 3713 1100 
L 3047 1100 
L 3047 0 
L 2419 0 
L 2419 1100 
L 313 1100 
L 313 1709 
L 2253 4666 
z
" transform="scale(0.015625)"/>
       </defs>
       <use xlink:href="#DejaVuSans-34"/>
      </g>
     </g>
    </g>
    <g id="xtick_6">
     <g id="line2d_6">
      <g>
       <use xlink:href="#ma24f9baa4d" x="332.184606" y="307.584" style="stroke: #000000; stroke-width: 0.8"/>
      </g>
     </g>
     <g id="text_6">
      <!-- 5 -->
      <g transform="translate(329.003356 322.182437) scale(0.1 -0.1)">
       <defs>
        <path id="DejaVuSans-35" d="M 691 4666 
L 3169 4666 
L 3169 4134 
L 1269 4134 
L 1269 2991 
Q 1406 3038 1543 3061 
Q 1681 3084 1819 3084 
Q 2600 3084 3056 2656 
Q 3513 2228 3513 1497 
Q 3513 744 3044 326 
Q 2575 -91 1722 -91 
Q 1428 -91 1123 -41 
Q 819 9 494 109 
L 494 744 
Q 775 591 1075 516 
Q 1375 441 1709 441 
Q 2250 441 2565 725 
Q 2881 1009 2881 1497 
Q 2881 1984 2565 2268 
Q 2250 2553 1709 2553 
Q 1456 2553 1204 2497 
Q 953 2441 691 2322 
L 691 4666 
z
" transform="scale(0.015625)"/>
       </defs>
       <use xlink:href="#DejaVuSans-35"/>
      </g>
     </g>
    </g>
    <g id="xtick_7">
     <g id="line2d_7">
      <g>
       <use xlink:href="#ma24f9baa4d" x="383.854982" y="307.584" style="stroke: #000000; stroke-width: 0.8"/>
      </g>
     </g>
     <g id="text_7">
      <!-- 6 -->
      <g transform="translate(380.673732 322.182437) scale(0.1 -0.1)">
       <defs>
        <path id="DejaVuSans-36" d="M 2113 2584 
Q 1688 2584 1439 2293 
Q 1191 2003 1191 1497 
Q 1191 994 1439 701 
Q 1688 409 2113 409 
Q 2538 409 2786 701 
Q 3034 994 3034 1497 
Q 3034 2003 2786 2293 
Q 2538 2584 2113 2584 
z
M 3366 4563 
L 3366 3988 
Q 3128 4100 2886 4159 
Q 2644 4219 2406 4219 
Q 1781 4219 1451 3797 
Q 1122 3375 1075 2522 
Q 1259 2794 1537 2939 
Q 1816 3084 2150 3084 
Q 2853 3084 3261 2657 
Q 3669 2231 3669 1497 
Q 3669 778 3244 343 
Q 2819 -91 2113 -91 
Q 1303 -91 875 529 
Q 447 1150 447 2328 
Q 447 3434 972 4092 
Q 1497 4750 2381 4750 
Q 2619 4750 2861 4703 
Q 3103 4656 3366 4563 
z
" transform="scale(0.015625)"/>
       </defs>
       <use xlink:href="#DejaVuSans-36"/>
      </g>
     </g>
    </g>
   </g>
   <g id="matplotlib.axis_2">
    <g id="ytick_1">
     <g id="line2d_8">
      <defs>
       <path id="me5fa53e8c6" d="M 0 0 
L -3.5 0 
" style="stroke: #000000; stroke-width: 0.8"/>
      </defs>
      <g>
       <use xlink:href="#me5fa53e8c6" x="57.6" y="295.488596" style="stroke: #000000; stroke-width: 0.8"/>
      </g>
     </g>
     <g id="text_8">
      <!-- −1 -->
      <g transform="translate(35.857813 299.287815) scale(0.1 -0.1)">
       <defs>
        <path id="DejaVuSans-2212" d="M 678 2272 
L 4684 2272 
L 4684 1741 
L 678 1741 
L 678 2272 
z
" transform="scale(0.015625)"/>
       </defs>
       <use xlink:href="#DejaVuSans-2212"/>
       <use xlink:href="#DejaVuSans-31" transform="translate(83.789062 0)"/>
      </g>
     </g>
    </g>
    <g id="ytick_2">
     <g id="line2d_9">
      <g>
       <use xlink:href="#me5fa53e8c6" x="57.6" y="252.288395" style="stroke: #000000; stroke-width: 0.8"/>
      </g>
     </g>
     <g id="text_9">
      <!-- 0 -->
      <g transform="translate(44.2375 256.087614) scale(0.1 -0.1)">
       <use xlink:href="#DejaVuSans-30"/>
      </g>
     </g>
    </g>
    <g id="ytick_3">
     <g id="line2d_10">
      <g>
       <use xlink:href="#me5fa53e8c6" x="57.6" y="209.088194" style="stroke: #000000; stroke-width: 0.8"/>
      </g>
     </g>
     <g id="text_10">
      <!-- 1 -->
      <g transform="translate(44.2375 212.887413) scale(0.1 -0.1)">
       <use xlink:href="#DejaVuSans-31"/>
      </g>
     </g>
    </g>
    <g id="ytick_4">
     <g id="line2d_11">
      <g>
       <use xlink:href="#me5fa53e8c6" x="57.6" y="165.887993" style="stroke: #000000; stroke-width: 0.8"/>
      </g>
     </g>
     <g id="text_11">
      <!-- 2 -->
      <g transform="translate(44.2375 169.687211) scale(0.1 -0.1)">
       <use xlink:href="#DejaVuSans-32"/>
      </g>
     </g>
    </g>
    <g id="ytick_5">
     <g id="line2d_12">
      <g>
       <use xlink:href="#me5fa53e8c6" x="57.6" y="122.687792" style="stroke: #000000; stroke-width: 0.8"/>
      </g>
     </g>
     <g id="text_12">
      <!-- 3 -->
      <g transform="translate(44.2375 126.48701) scale(0.1 -0.1)">
       <use xlink:href="#DejaVuSans-33"/>
      </g>
     </g>
    </g>
    <g id="ytick_6">
     <g id="line2d_13">
      <g>
       <use xlink:href="#me5fa53e8c6" x="57.6" y="79.48759" style="stroke: #000000; stroke-width: 0.8"/>
      </g>
     </g>
     <g id="text_13">
      <!-- 4 -->
      <g transform="translate(44.2375 83.286809) scale(0.1 -0.1)">
       <use xlink:href="#DejaVuSans-34"/>
      </g>
     </g>
    </g>
   </g>
   <g id="line2d_14">
    <path d="M 73.832727 252.288395 
L 86.862341 241.509774 
L 94.462949 235.494656 
L 100.977756 230.622812 
L 106.406762 226.822567 
L 111.835768 223.303198 
L 116.178972 220.716134 
L 120.522177 218.35201 
L 124.865382 216.22752 
L 129.208586 214.357664 
L 133.551791 212.755647 
L 137.894995 211.43278 
L 142.2382 210.398405 
L 146.581405 209.659826 
L 149.838808 209.303224 
L 153.096212 209.117402 
L 156.353615 209.103097 
L 159.611019 209.260366 
L 162.868422 209.588584 
L 166.125825 210.086448 
L 170.46903 211.010644 
L 174.812235 212.226313 
L 179.155439 213.72487 
L 183.498644 215.495734 
L 187.841849 217.526401 
L 192.185053 219.80253 
L 196.528258 222.30805 
L 201.957264 225.735434 
L 207.386269 229.455685 
L 212.815275 233.427771 
L 219.330082 238.464843 
L 228.016491 245.50798 
L 255.16152 267.819389 
L 261.676327 272.765326 
L 267.105333 276.641791 
L 272.534339 280.249648 
L 277.963344 283.549105 
L 282.306549 285.942043 
L 286.649754 288.097343 
L 290.992958 289.999788 
L 295.336163 291.635944 
L 299.679368 292.994256 
L 304.022572 294.065135 
L 308.365777 294.841017 
L 311.62318 295.225962 
L 314.880584 295.440317 
L 318.137987 295.483231 
L 321.395391 295.354533 
L 324.652794 295.054733 
L 327.910198 294.585025 
L 332.253402 293.697764 
L 336.596607 292.518101 
L 340.939811 291.054367 
L 345.283016 289.316896 
L 349.626221 287.317958 
L 353.969425 285.071667 
L 358.31263 282.593885 
L 363.741636 279.197924 
L 369.170642 275.505163 
L 374.599647 271.556331 
L 381.114454 266.541215 
L 388.715062 260.410056 
L 398.487273 252.288395 
L 398.487273 252.288395 
" clip-path="url(#p97b36d5fdd)" style="fill: none; stroke: #1f77b4; stroke-width: 1.5; stroke-linecap: square"/>
   </g>
   <g id="line2d_15">
    <path d="M 73.832727 247.774847 
L 82.519137 240.6894 
L 106.406762 220.99243 
L 112.921569 215.965116 
L 119.436376 211.240135 
L 124.865382 207.58789 
L 130.294387 204.23808 
L 134.637592 201.800936 
L 138.980797 199.598278 
L 143.324001 197.645659 
L 147.667206 195.956867 
L 152.01041 194.543827 
L 156.353615 193.416517 
L 160.69682 192.582897 
L 163.954223 192.154036 
L 167.211627 191.895435 
L 170.46903 191.80812 
L 173.726434 191.892438 
L 176.983837 192.148055 
L 180.24124 192.573955 
L 184.584445 193.403684 
L 188.92765 194.527194 
L 193.270854 195.936551 
L 197.614059 197.621804 
L 201.957264 199.571052 
L 206.300468 201.770532 
L 210.643673 204.204712 
L 214.986877 206.856404 
L 220.415883 210.448234 
L 225.844889 214.310951 
L 232.359696 219.243612 
L 239.960304 225.308981 
L 250.818316 234.303706 
L 264.933731 245.983559 
L 272.534339 251.989056 
L 279.049146 256.849429 
L 284.478151 260.637977 
L 289.907157 264.143841 
L 294.250362 266.718899 
L 298.593566 269.070041 
L 302.936771 271.180665 
L 307.279976 273.035866 
L 311.62318 274.622546 
L 315.966385 275.9295 
L 320.30959 276.947498 
L 324.652794 277.669354 
L 327.910198 278.013256 
L 331.167601 278.1863 
L 334.425005 278.187799 
L 337.682408 278.017747 
L 340.939811 277.67682 
L 344.197215 277.166371 
L 348.54042 276.225675 
L 352.883624 274.993933 
L 357.226829 273.479842 
L 361.570033 271.694095 
L 365.913238 269.6493 
L 370.256443 267.359896 
L 374.599647 264.842049 
L 380.028653 261.400723 
L 385.457659 257.6683 
L 390.886665 253.685947 
L 397.401472 248.639227 
L 398.487273 247.774847 
L 398.487273 247.774847 
" clip-path="url(#p97b36d5fdd)" style="fill: none; stroke: #ff7f0e; stroke-width: 1.5; stroke-linecap: square"/>
   </g>
   <g id="line2d_16">
    <path d="M 73.832727 242.120903 
L 79.261733 238.247036 
L 85.77654 233.303605 
L 93.377148 227.229479 
L 104.23516 218.229694 
L 118.350575 206.556609 
L 125.951183 200.560866 
L 132.46599 195.712072 
L 137.894995 191.935305 
L 143.324001 188.443023 
L 147.667206 185.880027 
L 152.01041 183.541919 
L 156.353615 181.445209 
L 160.69682 179.604702 
L 165.040024 178.033396 
L 169.383229 176.742384 
L 173.726434 175.740784 
L 178.069638 175.035668 
L 181.327042 174.704473 
L 184.584445 174.544211 
L 187.841849 174.555518 
L 191.099252 174.738349 
L 194.356656 175.091978 
L 198.69986 175.826644 
L 203.043065 176.857187 
L 207.386269 178.17633 
L 211.729474 179.77476 
L 216.072679 181.641189 
L 220.415883 183.762437 
L 224.759088 186.123526 
L 229.102292 188.707784 
L 234.531298 192.223998 
L 239.960304 196.021512 
L 246.475111 200.890681 
L 254.075719 206.903558 
L 263.847929 214.959141 
L 281.220748 229.337699 
L 288.821356 235.311172 
L 295.336163 240.13371 
L 300.765169 243.883855 
L 306.194175 247.345514 
L 310.537379 249.881358 
L 314.880584 252.19016 
L 319.223788 254.255618 
L 323.566993 256.063147 
L 327.910198 257.599984 
L 332.253402 258.855276 
L 336.596607 259.82016 
L 340.939811 260.487822 
L 344.197215 260.790601 
L 347.454618 260.922294 
L 350.712022 260.882378 
L 353.969425 260.671012 
L 357.226829 260.289035 
L 361.570033 259.517058 
L 365.913238 258.45 
L 370.256443 257.095395 
L 374.599647 255.462808 
L 378.942852 253.563769 
L 383.286057 251.411685 
L 387.629261 249.021755 
L 391.972466 246.410853 
L 397.401472 242.864709 
L 398.487273 242.120903 
L 398.487273 242.120903 
" clip-path="url(#p97b36d5fdd)" style="fill: none; stroke: #2ca02c; stroke-width: 1.5; stroke-linecap: square"/>
   </g>
   <g id="line2d_17">
    <path d="M 73.832727 234.288034 
L 78.175932 231.914003 
L 82.519137 229.317783 
L 87.948142 225.788124 
L 93.377148 221.978977 
L 99.891955 217.098419 
L 107.492563 211.076023 
L 117.264773 203.014466 
L 134.637592 188.643122 
L 142.2382 182.679831 
L 148.753007 177.869218 
L 154.182013 174.131124 
L 159.611019 170.683295 
L 163.954223 168.159696 
L 168.297428 165.864094 
L 172.640632 163.812699 
L 176.983837 162.019995 
L 181.327042 160.498643 
L 185.670246 159.259384 
L 190.013451 158.310969 
L 194.356656 157.660095 
L 197.614059 157.370046 
L 200.871462 157.251146 
L 204.128866 157.303866 
L 207.386269 157.527997 
L 210.643673 157.922649 
L 214.986877 158.7113 
L 219.330082 159.794664 
L 223.673287 161.165094 
L 228.016491 162.812911 
L 232.359696 164.726479 
L 236.702901 166.892288 
L 241.046105 169.295043 
L 245.38931 171.917777 
L 250.818316 175.477191 
L 256.247321 179.312024 
L 262.762128 184.217635 
L 270.362736 190.260817 
L 281.220748 199.2422 
L 296.421964 211.815913 
L 304.022572 217.80177 
L 310.537379 222.638877 
L 315.966385 226.403779 
L 321.395391 229.882402 
L 325.738595 232.433279 
L 330.0818 234.758302 
L 334.425005 236.841052 
L 338.768209 238.666822 
L 343.111414 240.222721 
L 347.454618 241.497762 
L 351.797823 242.482941 
L 356.141028 243.171302 
L 359.398431 243.489782 
L 362.655835 243.637259 
L 365.913238 243.613146 
L 369.170642 243.41754 
L 372.428045 243.051217 
L 376.77125 242.299841 
L 381.114454 241.252939 
L 385.457659 239.917904 
L 389.800863 238.304164 
L 394.144068 236.423113 
L 398.487273 234.288034 
L 398.487273 234.288034 
" clip-path="url(#p97b36d5fdd)" style="fill: none; stroke: #d62728; stroke-width: 1.5; stroke-linecap: square"/>
   </g>
   <g id="line2d_18">
    <path d="M 73.832727 223.432349 
L 78.175932 221.975934 
L 82.519137 220.245486 
L 86.862341 218.253225 
L 91.205546 216.01322 
L 95.54875 213.541287 
L 100.977756 210.151959 
L 106.406762 206.465011 
L 111.835768 202.521109 
L 118.350575 197.510664 
L 125.951183 191.38315 
L 140.066598 179.635917 
L 150.924609 170.732367 
L 158.525217 164.802907 
L 165.040024 160.031588 
L 170.46903 156.333032 
L 175.898036 152.930453 
L 180.24124 150.446835 
L 184.584445 148.19427 
L 188.92765 146.188664 
L 193.270854 144.444178 
L 197.614059 142.973131 
L 201.957264 141.785912 
L 206.300468 140.890901 
L 209.557872 140.415287 
L 212.815275 140.109529 
L 216.072679 139.974841 
L 219.330082 140.011759 
L 222.587486 140.220136 
L 225.844889 140.599144 
L 230.188094 141.367215 
L 234.531298 142.430453 
L 238.874503 143.781348 
L 243.217708 145.410364 
L 247.560912 147.305996 
L 251.904117 149.454859 
L 256.247321 151.841779 
L 260.590526 154.449903 
L 266.019532 157.992929 
L 271.448538 161.813625 
L 277.963344 166.705463 
L 285.563953 172.737245 
L 296.421964 181.711503 
L 311.62318 194.293744 
L 319.223788 200.291782 
L 325.738595 205.143296 
L 331.167601 208.922829 
L 336.596607 212.418298 
L 340.939811 214.984123 
L 345.283016 217.325287 
L 349.626221 219.425259 
L 353.969425 221.26921 
L 358.31263 222.844118 
L 362.655835 224.138865 
L 366.999039 225.144306 
L 371.342244 225.853343 
L 374.599647 226.187513 
L 377.857051 226.350768 
L 381.114454 226.342459 
L 384.371858 226.16262 
L 387.629261 225.811964 
L 390.886665 225.291885 
L 395.229869 224.338566 
L 398.487273 223.432349 
L 398.487273 223.432349 
" clip-path="url(#p97b36d5fdd)" style="fill: none; stroke: #9467bd; stroke-width: 1.5; stroke-linecap: square"/>
   </g>
   <g id="line2d_19">
    <path d="M 73.832727 208.979977 
L 77.090131 208.701855 
L 80.347534 208.253635 
L 84.690739 207.394585 
L 89.033943 206.242446 
L 93.377148 204.805354 
L 97.720353 203.093457 
L 102.063557 201.118844 
L 106.406762 198.895456 
L 110.749967 196.438994 
L 116.178972 193.067229 
L 121.607978 189.395688 
L 127.036984 185.464869 
L 133.551791 180.466854 
L 141.152399 174.34909 
L 154.182013 163.511634 
L 165.040024 154.56613 
L 172.640632 148.577947 
L 179.155439 143.738094 
L 184.584445 139.970407 
L 190.013451 136.488579 
L 194.356656 133.934859 
L 198.69986 131.606769 
L 203.043065 129.520746 
L 207.386269 127.691522 
L 211.729474 126.132013 
L 216.072679 124.85323 
L 220.415883 123.864205 
L 224.759088 123.17192 
L 228.016491 122.850462 
L 231.273895 122.699992 
L 234.531298 122.721107 
L 237.788702 122.913722 
L 241.046105 123.277074 
L 245.38931 124.024539 
L 249.732514 125.067613 
L 254.075719 126.39893 
L 258.418924 128.009089 
L 262.762128 129.88672 
L 267.105333 132.018565 
L 271.448538 134.389571 
L 275.791742 136.982996 
L 281.220748 140.509514 
L 286.649754 144.315945 
L 293.164561 149.193846 
L 300.765169 155.214025 
L 310.537379 163.2742 
L 327.910198 177.647261 
L 335.510806 183.612948 
L 342.025613 188.426362 
L 347.454618 192.167285 
L 352.883624 195.618359 
L 357.226829 198.144829 
L 361.570033 200.443527 
L 365.913238 202.498219 
L 370.256443 204.294397 
L 374.599647 205.819377 
L 378.942852 207.062392 
L 383.286057 208.014665 
L 387.629261 208.66947 
L 390.886665 208.9625 
L 394.144068 209.084396 
L 397.401472 209.034674 
L 398.487273 208.979977 
L 398.487273 208.979977 
" clip-path="url(#p97b36d5fdd)" style="fill: none; stroke: #8c564b; stroke-width: 1.5; stroke-linecap: square"/>
   </g>
   <g id="line2d_20">
    <path d="M 73.832727 190.678326 
L 78.175932 191.353844 
L 81.433335 191.662581 
L 84.690739 191.800264 
L 87.948142 191.766344 
L 91.205546 191.560956 
L 94.462949 191.184917 
L 98.806154 190.420753 
L 103.149358 189.361338 
L 107.492563 188.014153 
L 111.835768 186.388711 
L 116.178972 184.496489 
L 120.522177 182.350849 
L 124.865382 179.966941 
L 129.208586 177.3616 
L 134.637592 173.821696 
L 140.066598 170.003696 
L 146.581405 165.114489 
L 154.182013 159.084893 
L 163.954223 151.01888 
L 181.327042 136.653277 
L 188.92765 130.697873 
L 195.442457 125.896466 
L 200.871462 122.167657 
L 206.300468 118.730472 
L 210.643673 116.216289 
L 214.986877 113.93083 
L 219.330082 111.890236 
L 223.673287 110.108914 
L 228.016491 108.599443 
L 232.359696 107.372482 
L 236.702901 106.436695 
L 241.046105 105.798689 
L 244.303509 105.518394 
L 247.560912 105.409293 
L 250.818316 105.471818 
L 254.075719 105.705723 
L 257.333123 106.110077 
L 261.676327 106.911485 
L 266.019532 108.007323 
L 270.362736 109.389851 
L 274.705941 111.049308 
L 279.049146 112.973976 
L 283.39235 115.150263 
L 287.735555 117.562804 
L 292.07876 120.194562 
L 297.507765 123.764086 
L 302.936771 127.607626 
L 309.451578 132.521702 
L 317.052186 138.571856 
L 327.910198 147.557508 
L 343.111414 160.125717 
L 350.712022 166.103912 
L 357.226829 170.931997 
L 362.655835 174.687755 
L 368.08484 178.155865 
L 372.428045 180.697422 
L 376.77125 183.012388 
L 381.114454 185.084415 
L 385.457659 186.898872 
L 389.800863 188.442948 
L 394.144068 189.705738 
L 398.487273 190.678326 
L 398.487273 190.678326 
" clip-path="url(#p97b36d5fdd)" style="fill: none; stroke: #e377c2; stroke-width: 1.5; stroke-linecap: square"/>
   </g>
   <g id="line2d_21">
    <path d="M 73.832727 168.61865 
L 78.175932 170.318047 
L 82.519137 171.742125 
L 86.862341 172.880827 
L 91.205546 173.726113 
L 94.462949 174.163854 
L 97.720353 174.431408 
L 100.977756 174.527712 
L 104.23516 174.452384 
L 107.492563 174.205724 
L 110.749967 173.788711 
L 115.093171 172.97066 
L 119.436376 171.858558 
L 123.77958 170.460259 
L 128.122785 168.785636 
L 132.46599 166.846514 
L 136.809194 164.656586 
L 141.152399 162.231316 
L 145.495604 159.587827 
L 150.924609 156.005173 
L 156.353615 152.150338 
L 162.868422 147.225306 
L 170.46903 141.166168 
L 181.327042 132.175116 
L 195.442457 120.490664 
L 203.043065 114.478396 
L 209.557872 109.609954 
L 214.986877 105.813182 
L 220.415883 102.297824 
L 224.759088 99.714328 
L 229.102292 97.354062 
L 233.445497 95.233694 
L 237.788702 93.368196 
L 242.131906 91.77074 
L 246.475111 90.452606 
L 250.818316 89.423103 
L 255.16152 88.6895 
L 258.418924 88.336677 
L 261.676327 88.154658 
L 264.933731 88.144164 
L 268.191134 88.305238 
L 271.448538 88.63724 
L 274.705941 89.138851 
L 279.049146 90.06796 
L 283.39235 91.288416 
L 287.735555 92.7916 
L 292.07876 94.566898 
L 296.421964 96.601774 
L 300.765169 98.881859 
L 305.108373 101.391054 
L 310.537379 104.822596 
L 315.966385 108.546478 
L 321.395391 112.521629 
L 327.910198 117.561584 
L 336.596607 124.607144 
L 362.655835 146.065203 
L 369.170642 151.05477 
L 374.599647 154.976723 
L 380.028653 158.637839 
L 385.457659 161.997738 
L 389.800863 164.443755 
L 394.144068 166.655933 
L 398.487273 168.61865 
L 398.487273 168.61865 
" clip-path="url(#p97b36d5fdd)" style="fill: none; stroke: #7f7f7f; stroke-width: 1.5; stroke-linecap: square"/>
   </g>
   <g id="line2d_22">
    <path d="M 73.832727 143.227897 
L 78.175932 145.799371 
L 82.519137 148.146639 
L 86.862341 150.253126 
L 91.205546 152.103958 
L 95.54875 153.686066 
L 99.891955 154.988278 
L 104.23516 156.001398 
L 108.578364 156.718273 
L 111.835768 157.058393 
L 115.093171 157.227634 
L 118.350575 157.225321 
L 121.607978 157.051465 
L 124.865382 156.706757 
L 128.122785 156.192565 
L 132.46599 155.246962 
L 136.809194 154.010441 
L 141.152399 152.491733 
L 145.495604 150.701563 
L 149.838808 148.652572 
L 154.182013 146.359226 
L 158.525217 143.837722 
L 163.954223 140.39226 
L 169.383229 136.65623 
L 174.812235 132.670839 
L 181.327042 127.62127 
L 190.013451 120.56767 
L 216.072679 99.119562 
L 222.587486 94.140282 
L 228.016491 90.2291 
L 233.445497 86.580626 
L 238.874503 83.235103 
L 243.217708 80.801727 
L 247.560912 78.60311 
L 251.904117 76.654777 
L 256.247321 74.970484 
L 260.590526 73.562127 
L 264.933731 72.439648 
L 269.276935 71.610974 
L 272.534339 71.185878 
L 275.791742 70.931071 
L 279.049146 70.847566 
L 282.306549 70.935694 
L 285.563953 71.195105 
L 288.821356 71.624769 
L 293.164561 72.459444 
L 297.507765 73.587785 
L 301.85097 75.001823 
L 306.194175 76.691575 
L 310.537379 78.645108 
L 314.880584 80.848628 
L 319.223788 83.286575 
L 323.566993 85.941735 
L 328.995999 89.537442 
L 334.425005 93.403486 
L 340.939811 98.339364 
L 348.54042 104.407354 
L 359.398431 113.403606 
L 373.513846 125.081471 
L 381.114454 131.084079 
L 387.629261 135.941017 
L 393.058267 139.726067 
L 398.487273 143.227897 
L 398.487273 143.227897 
" clip-path="url(#p97b36d5fdd)" style="fill: none; stroke: #bcbd22; stroke-width: 1.5; stroke-linecap: square"/>
   </g>
   <g id="line2d_23">
    <path d="M 73.832727 115.230568 
L 80.347534 119.99532 
L 85.77654 123.687293 
L 91.205546 127.082356 
L 95.54875 129.559345 
L 99.891955 131.804784 
L 104.23516 133.802817 
L 108.578364 135.539336 
L 112.921569 137.002078 
L 117.264773 138.180715 
L 121.607978 139.066924 
L 124.865382 139.535832 
L 128.122785 139.834822 
L 131.380189 139.962708 
L 134.637592 139.918981 
L 137.894995 139.703815 
L 141.152399 139.318065 
L 145.495604 138.541123 
L 149.838808 137.469209 
L 154.182013 136.109891 
L 158.525217 134.472768 
L 162.868422 132.569399 
L 167.211627 130.413226 
L 171.554831 128.019473 
L 175.898036 125.405043 
L 181.327042 121.854941 
L 186.756047 118.028138 
L 193.270854 113.130345 
L 200.871462 107.093626 
L 211.729474 98.116261 
L 226.93069 85.537643 
L 234.531298 79.544829 
L 241.046105 74.699502 
L 246.475111 70.926258 
L 251.904117 67.438033 
L 256.247321 64.878638 
L 260.590526 62.544419 
L 264.933731 60.45186 
L 269.276935 58.615735 
L 273.62014 57.04901 
L 277.963344 55.762749 
L 282.306549 54.766035 
L 286.649754 54.065904 
L 289.907157 53.738493 
L 293.164561 53.582036 
L 296.421964 53.597154 
L 299.679368 53.783788 
L 302.936771 54.141196 
L 307.279976 54.880837 
L 311.62318 55.916251 
L 315.966385 57.240127 
L 320.30959 58.843118 
L 324.652794 60.713903 
L 328.995999 62.839273 
L 333.339203 65.204219 
L 337.682408 67.792043 
L 343.111414 71.312267 
L 348.54042 75.113253 
L 355.055227 79.985822 
L 362.655835 86.001546 
L 372.428045 94.058926 
L 389.800863 108.435371 
L 397.401472 114.405827 
L 398.487273 115.230568 
L 398.487273 115.230568 
" clip-path="url(#p97b36d5fdd)" style="fill: none; stroke: #17becf; stroke-width: 1.5; stroke-linecap: square"/>
   </g>
   <g id="patch_3">
    <path d="M 57.6 307.584 
L 57.6 41.472 
" style="fill: none; stroke: #000000; stroke-width: 0.8; stroke-linejoin: miter; stroke-linecap: square"/>
   </g>
   <g id="patch_4">
    <path d="M 414.72 307.584 
L 414.72 41.472 
" style="fill: none; stroke: #000000; stroke-width: 0.8; stroke-linejoin: miter; stroke-linecap: square"/>
   </g>
   <g id="patch_5">
    <path d="M 57.6 307.584 
L 414.72 307.584 
" style="fill: none; stroke: #000000; stroke-width: 0.8; stroke-linejoin: miter; stroke-linecap: square"/>
   </g>
   <g id="patch_6">
    <path d="M 57.6 41.472 
L 414.72 41.472 
" style="fill: none; stroke: #000000; stroke-width: 0.8; stroke-linejoin: miter; stroke-linecap: square"/>
   </g>
   <g id="text_14">
    <!-- The tab10 property cycle -->
    <g transform="translate(160.61625 35.472) scale(0.12 -0.12)">
     <defs>
      <path id="DejaVuSans-54" d="M -19 4666 
L 3928 4666 
L 3928 4134 
L 2272 4134 
L 2272 0 
L 1638 0 
L 1638 4134 
L -19 4134 
L -19 4666 
z
" transform="scale(0.015625)"/>
      <path id="DejaVuSans-68" d="M 3513 2113 
L 3513 0 
L 2938 0 
L 2938 2094 
Q 2938 2591 2744 2837 
Q 2550 3084 2163 3084 
Q 1697 3084 1428 2787 
Q 1159 2491 1159 1978 
L 1159 0 
L 581 0 
L 581 4863 
L 1159 4863 
L 1159 2956 
Q 1366 3272 1645 3428 
Q 1925 3584 2291 3584 
Q 2894 3584 3203 3211 
Q 3513 2838 3513 2113 
z
" transform="scale(0.015625)"/>
      <path id="DejaVuSans-65" d="M 3597 1894 
L 3597 1613 
L 953 1613 
Q 991 1019 1311 708 
Q 1631 397 2203 397 
Q 2534 397 2845 478 
Q 3156 559 3463 722 
L 3463 178 
Q 3153 47 2828 -22 
Q 2503 -91 2169 -91 
Q 1331 -91 842 396 
Q 353 884 353 1716 
Q 353 2575 817 3079 
Q 1281 3584 2069 3584 
Q 2775 3584 3186 3129 
Q 3597 2675 3597 1894 
z
M 3022 2063 
Q 3016 2534 2758 2815 
Q 2500 3097 2075 3097 
Q 1594 3097 1305 2825 
Q 1016 2553 972 2059 
L 3022 2063 
z
" transform="scale(0.015625)"/>
      <path id="DejaVuSans-20" transform="scale(0.015625)"/>
      <path id="DejaVuSans-74" d="M 1172 4494 
L 1172 3500 
L 2356 3500 
L 2356 3053 
L 1172 3053 
L 1172 1153 
Q 1172 725 1289 603 
Q 1406 481 1766 481 
L 2356 481 
L 2356 0 
L 1766 0 
Q 1100 0 847 248 
Q 594 497 594 1153 
L 594 3053 
L 172 3053 
L 172 3500 
L 594 3500 
L 594 4494 
L 1172 4494 
z
" transform="scale(0.015625)"/>
      <path id="DejaVuSans-61" d="M 2194 1759 
Q 1497 1759 1228 1600 
Q 959 1441 959 1056 
Q 959 750 1161 570 
Q 1363 391 1709 391 
Q 2188 391 2477 730 
Q 2766 1069 2766 1631 
L 2766 1759 
L 2194 1759 
z
M 3341 1997 
L 3341 0 
L 2766 0 
L 2766 531 
Q 2569 213 2275 61 
Q 1981 -91 1556 -91 
Q 1019 -91 701 211 
Q 384 513 384 1019 
Q 384 1609 779 1909 
Q 1175 2209 1959 2209 
L 2766 2209 
L 2766 2266 
Q 2766 2663 2505 2880 
Q 2244 3097 1772 3097 
Q 1472 3097 1187 3025 
Q 903 2953 641 2809 
L 641 3341 
Q 956 3463 1253 3523 
Q 1550 3584 1831 3584 
Q 2591 3584 2966 3190 
Q 3341 2797 3341 1997 
z
" transform="scale(0.015625)"/>
      <path id="DejaVuSans-62" d="M 3116 1747 
Q 3116 2381 2855 2742 
Q 2594 3103 2138 3103 
Q 1681 3103 1420 2742 
Q 1159 2381 1159 1747 
Q 1159 1113 1420 752 
Q 1681 391 2138 391 
Q 2594 391 2855 752 
Q 3116 1113 3116 1747 
z
M 1159 2969 
Q 1341 3281 1617 3432 
Q 1894 3584 2278 3584 
Q 2916 3584 3314 3078 
Q 3713 2572 3713 1747 
Q 3713 922 3314 415 
Q 2916 -91 2278 -91 
Q 1894 -91 1617 61 
Q 1341 213 1159 525 
L 1159 0 
L 581 0 
L 581 4863 
L 1159 4863 
L 1159 2969 
z
" transform="scale(0.015625)"/>
      <path id="DejaVuSans-70" d="M 1159 525 
L 1159 -1331 
L 581 -1331 
L 581 3500 
L 1159 3500 
L 1159 2969 
Q 1341 3281 1617 3432 
Q 1894 3584 2278 3584 
Q 2916 3584 3314 3078 
Q 3713 2572 3713 1747 
Q 3713 922 3314 415 
Q 2916 -91 2278 -91 
Q 1894 -91 1617 61 
Q 1341 213 1159 525 
z
M 3116 1747 
Q 3116 2381 2855 2742 
Q 2594 3103 2138 3103 
Q 1681 3103 1420 2742 
Q 1159 2381 1159 1747 
Q 1159 1113 1420 752 
Q 1681 391 2138 391 
Q 2594 391 2855 752 
Q 3116 1113 3116 1747 
z
" transform="scale(0.015625)"/>
      <path id="DejaVuSans-72" d="M 2631 2963 
Q 2534 3019 2420 3045 
Q 2306 3072 2169 3072 
Q 1681 3072 1420 2755 
Q 1159 2438 1159 1844 
L 1159 0 
L 581 0 
L 581 3500 
L 1159 3500 
L 1159 2956 
Q 1341 3275 1631 3429 
Q 1922 3584 2338 3584 
Q 2397 3584 2469 3576 
Q 2541 3569 2628 3553 
L 2631 2963 
z
" transform="scale(0.015625)"/>
      <path id="DejaVuSans-6f" d="M 1959 3097 
Q 1497 3097 1228 2736 
Q 959 2375 959 1747 
Q 959 1119 1226 758 
Q 1494 397 1959 397 
Q 2419 397 2687 759 
Q 2956 1122 2956 1747 
Q 2956 2369 2687 2733 
Q 2419 3097 1959 3097 
z
M 1959 3584 
Q 2709 3584 3137 3096 
Q 3566 2609 3566 1747 
Q 3566 888 3137 398 
Q 2709 -91 1959 -91 
Q 1206 -91 779 398 
Q 353 888 353 1747 
Q 353 2609 779 3096 
Q 1206 3584 1959 3584 
z
" transform="scale(0.015625)"/>
      <path id="DejaVuSans-79" d="M 2059 -325 
Q 1816 -950 1584 -1140 
Q 1353 -1331 966 -1331 
L 506 -1331 
L 506 -850 
L 844 -850 
Q 1081 -850 1212 -737 
Q 1344 -625 1503 -206 
L 1606 56 
L 191 3500 
L 800 3500 
L 1894 763 
L 2988 3500 
L 3597 3500 
L 2059 -325 
z
" transform="scale(0.015625)"/>
      <path id="DejaVuSans-63" d="M 3122 3366 
L 3122 2828 
Q 2878 2963 2633 3030 
Q 2388 3097 2138 3097 
Q 1578 3097 1268 2742 
Q 959 2388 959 1747 
Q 959 1106 1268 751 
Q 1578 397 2138 397 
Q 2388 397 2633 464 
Q 2878 531 3122 666 
L 3122 134 
Q 2881 22 2623 -34 
Q 2366 -91 2075 -91 
Q 1284 -91 818 406 
Q 353 903 353 1747 
Q 353 2603 823 3093 
Q 1294 3584 2113 3584 
Q 2378 3584 2631 3529 
Q 2884 3475 3122 3366 
z
" transform="scale(0.015625)"/>
      <path id="DejaVuSans-6c" d="M 603 4863 
L 1178 4863 
L 1178 0 
L 603 0 
L 603 4863 
z
" transform="scale(0.015625)"/>
     </defs>
     <use xlink:href="#DejaVuSans-54"/>
     <use xlink:href="#DejaVuSans-68" transform="translate(61.083984 0)"/>
     <use xlink:href="#DejaVuSans-65" transform="translate(124.462891 0)"/>
     <use xlink:href="#DejaVuSans-20" transform="translate(185.986328 0)"/>
     <use xlink:href="#DejaVuSans-74" transform="translate(217.773438 0)"/>
     <use xlink:href="#DejaVuSans-61" transform="translate(256.982422 0)"/>
     <use xlink:href="#DejaVuSans-62" transform="translate(318.261719 0)"/>
     <use xlink:href="#DejaVuSans-31" transform="translate(381.738281 0)"/>
     <use xlink:href="#DejaVuSans-30" transform="translate(445.361328 0)"/>
     <use xlink:href="#DejaVuSans-20" transform="translate(508.984375 0)"/>
     <use xlink:href="#DejaVuSans-70" transform="translate(540.771484 0)"/>
     <use xlink:href="#DejaVuSans-72" transform="translate(604.248047 0)"/>
     <use xlink:href="#DejaVuSans-6f" transform="translate(643.111328 0)"/>
     <use xlink:href="#DejaVuSans-70" transform="translate(704.292969 0)"/>
     <use xlink:href="#DejaVuSans-65" transform="translate(767.769531 0)"/>
     <use xlink:href="#DejaVuSans-72" transform="translate(829.292969 0)"/>
     <use xlink:href="#DejaVuSans-74" transform="translate(870.40625 0)"/>
     <use xlink:href="#DejaVuSans-79" transform="translate(909.615234 0)"/>
     <use xlink:href="#DejaVuSans-20" transform="translate(968.794922 0)"/>
     <use xlink:href="#DejaVuSans-63" transform="translate(1000.582031 0)"/>
     <use xlink:href="#DejaVuSans-79" transform="translate(1055.5625 0)"/>
     <use xlink:href="#DejaVuSans-63" transform="translate(1114.742188 0)"/>
     <use xlink:href="#DejaVuSans-6c" transform="translate(1169.722656 0)"/>
     <use xlink:href="#DejaVuSans-65" transform="translate(1197.505859 0)"/>
    </g>
   </g>
  </g>
 </g>
 <defs>
  <clipPath id="p97b36d5fdd">
   <rect x="57.6" y="41.472" width="357.12" height="266.112"/>
  </clipPath>
 </defs>
</svg>
