<?xml version="1.0" encoding="utf-8" standalone="no"?>
<!DOCTYPE svg PUBLIC "-//W3C//DTD SVG 1.1//EN"
  "http://www.w3.org/Graphics/SVG/1.1/DTD/svg11.dtd">
<svg xmlns:xlink="http://www.w3.org/1999/xlink" width="576pt" height="259.2pt" viewBox="0 0 576 259.2" xmlns="http://www.w3.org/2000/svg" version="1.1">
 <metadata>
  <rdf:RDF xmlns:dc="http://purl.org/dc/elements/1.1/" xmlns:cc="http://creativecommons.org/ns#" xmlns:rdf="http://www.w3.org/1999/02/22-rdf-syntax-ns#">
   <cc:Work>
    <dc:type rdf:resource="http://purl.org/dc/dcmitype/StillImage"/>
    <dc:format>image/svg+xml</dc:format>
    <dc:creator>
     <cc:Agent>
      <dc:title>Matplotlib v3.10.8, https://matplotlib.org/</dc:title>
     </cc:Agent>
    </dc:creator>
   </cc:Work>
  </rdf:RDF>
 </metadata>
 <defs>
  <style type="text/css">*{stroke-linejoin: round; stroke-linecap: butt}</style>
 </defs>
 <g id="figure_1">
  <g id="patch_1">
   <path d="M 0 259.2 
L 576 259.2 
L 576 0 
L 0 0 
z
" style="fill: #ffffff"/>
  </g>
  <g id="axes_1">
   <g id="patch_2">
    <path d="M 56 215.8 
L 286.74 215.8 
L 286.74 28.32 
L 56 28.32 
z
" style="fill: #ffffff"/>
   </g>
   <g id="matplotlib.axis_1">
    <g id="xtick_1">
     <g id="line2d_1">
      <defs>
       <path id="ma24f9baa4d" d="M 0 0 
L 0 3.5 
" style="stroke: #000000; stroke-width: 0.8"/>
      </defs>
      <g>
       <use xlink:href="#ma24f9baa4d" x="66.488182" y="215.8" style="stroke: #000000; stroke-width: 0.8"/>
      </g>
     </g>
     <g id="text_1">
      <!-- 0 -->
      <g transform="translate(63.306932 230.398438) scale(0.1 -0.1)">
       <defs>
        <path id="DejaVuSans-30" d="M 2034 4250 
Q 1547 4250 1301 3770 
Q 1056 3291 1056 2328 
Q 1056 1369 1301 889 
Q 1547 409 2034 409 
Q 2525 409 2770 889 
Q 3016 1369 3016 2328 
Q 3016 3291 2770 3770 
Q 2525 4250 2034 4250 
z
M 2034 4750 
Q 2819 4750 3233 4129 
Q 3647 3509 3647 2328 
Q 3647 1150 3233 529 
Q 2819 -91 2034 -91 
Q 1250 -91 836 529 
Q 422 1150 422 2328 
Q 422 3509 836 4129 
Q 1250 4750 2034 4750 
z
" transform="scale(0.015625)"/>
       </defs>
       <use xlink:href="#DejaVuSans-30"/>
      </g>
     </g>
    </g>
    <g id="xtick_2">
     <g id="line2d_2">
      <g>
       <use xlink:href="#ma24f9baa4d" x="118.929091" y="215.8" style="stroke: #000000; stroke-width: 0.8"/>
      </g>
     </g>
     <g id="text_2">
      <!-- 1 -->
      <g transform="translate(115.747841 230.398438) scale(0.1 -0.1)">
       <defs>
        <path id="DejaVuSans-31" d="M 794 531 
L 1825 531 
L 1825 4091 
L 703 3866 
L 703 4441 
L 1819 4666 
L 2450 4666 
L 2450 531 
L 3481 531 
L 3481 0 
L 794 0 
L 794 531 
z
" transform="scale(0.015625)"/>
       </defs>
       <use xlink:href="#DejaVuSans-31"/>
      </g>
     </g>
    </g>
    <g id="xtick_3">
     <g id="line2d_3">
      <g>
       <use xlink:href="#ma24f9baa4d" x="171.37" y="215.8" style="stroke: #000000; stroke-width: 0.8"/>
      </g>
     </g>
     <g id="text_3">
      <!-- 2 -->
      <g transform="translate(168.18875 230.398438) scale(0.1 -0.1)">
       <defs>
        <path id="DejaVuSans-32" d="M 1228 531 
L 3431 531 
L 3431 0 
L 469 0 
L 469 531 
Q 828 903 1448 1529 
Q 2069 2156 2228 2338 
Q 2531 2678 2651 2914 
Q 2772 3150 2772 3378 
Q 2772 3750 2511 3984 
Q 2250 4219 1831 4219 
Q 1534 4219 1204 4116 
Q 875 4013 500 3803 
L 500 4441 
Q 881 4594 1212 4672 
Q 1544 4750 1819 4750 
Q 2544 4750 2975 4387 
Q 3406 4025 3406 3419 
Q 3406 3131 3298 2873 
Q 3191 2616 2906 2266 
Q 2828 2175 2409 1742 
Q 1991 1309 1228 531 
z
" transform="scale(0.015625)"/>
       </defs>
       <use xlink:href="#DejaVuSans-32"/>
      </g>
     </g>
    </g>
    <g id="xtick_4">
     <g id="line2d_4">
      <g>
       <use xlink:href="#ma24f9baa4d" x="223.810909" y="215.8" style="stroke: #000000; stroke-width: 0.8"/>
      </g>
     </g>
     <g id="text_4">
      <!-- 3 -->
      <g transform="translate(220.629659 230.398438) scale(0.1 -0.1)">
       <defs>
        <path id="DejaVuSans-33" d="M 2597 2516 
Q 3050 2419 3304 2112 
Q 3559 1806 3559 1356 
Q 3559 666 3084 287 
Q 2609 -91 1734 -91 
Q 1441 -91 1130 -33 
Q 819 25 488 141 
L 488 750 
Q 750 597 1062 519 
Q 1375 441 1716 441 
Q 2309 441 2620 675 
Q 2931 909 2931 1356 
Q 2931 1769 2642 2001 
Q 2353 2234 1838 2234 
L 1294 2234 
L 1294 2753 
L 1863 2753 
Q 2328 2753 2575 2939 
Q 2822 3125 2822 3475 
Q 2822 3834 2567 4026 
Q 2313 4219 1838 4219 
Q 1578 4219 1281 4162 
Q 984 4106 628 3988 
L 628 4550 
Q 988 4650 1302 4700 
Q 1616 4750 1894 4750 
Q 2613 4750 3031 4423 
Q 3450 4097 3450 3541 
Q 3450 3153 3228 2886 
Q 3006 2619 2597 2516 
z
" transform="scale(0.015625)"/>
       </defs>
       <use xlink:href="#DejaVuSans-33"/>
      </g>
     </g>
    </g>
    <g id="xtick_5">
     <g id="line2d_5">
      <g>
       <use xlink:href="#ma24f9baa4d" x="276.251818" y="215.8" style="stroke: #000000; stroke-width: 0.8"/>
      </g>
     </g>
     <g id="text_5">
      <!-- 4 -->
      <g transform="translate(273.070568 230.398438) scale(0.1 -0.1)">
       <defs>
        <path id="DejaVuSans-34" d="M 2419 4116 
L 825 1625 
L 2419 1625 
L 2419 4116 
z
M 2253 4666 
L 3047 4666 
L 3047 1625 
L 3713 1625 
L 3713 1100 
L 3047 1100 
L 3047 0 
L 2419 0 
L 2419 1100 
L 313 1100 
L 313 1709 
L 2253 4666 
z
" transform="scale(0.015625)"/>
       </defs>
       <use xlink:href="#DejaVuSans-34"/>
      </g>
     </g>
    </g>
    <g id="text_6">
     <!-- $t$ (s) -->
     <g transform="translate(161.27 244.076562) scale(0.1 -0.1)">
      <defs>
       <path id="DejaVuSans-Oblique-74" d="M 2706 3500 
L 2619 3053 
L 1472 3053 
L 1100 1153 
Q 1081 1047 1072 975 
Q 1063 903 1063 863 
Q 1063 663 1183 572 
Q 1303 481 1569 481 
L 2150 481 
L 2053 0 
L 1503 0 
Q 991 0 739 200 
Q 488 400 488 806 
Q 488 878 497 964 
Q 506 1050 525 1153 
L 897 3053 
L 409 3053 
L 500 3500 
L 978 3500 
L 1172 4494 
L 1747 4494 
L 1556 3500 
L 2706 3500 
z
" transform="scale(0.015625)"/>
       <path id="DejaVuSans-20" transform="scale(0.015625)"/>
       <path id="DejaVuSans-28" d="M 1984 4856 
Q 1566 4138 1362 3434 
Q 1159 2731 1159 2009 
Q 1159 1288 1364 580 
Q 1569 -128 1984 -844 
L 1484 -844 
Q 1016 -109 783 600 
Q 550 1309 550 2009 
Q 550 2706 781 3412 
Q 1013 4119 1484 4856 
L 1984 4856 
z
" transform="scale(0.015625)"/>
       <path id="DejaVuSans-73" d="M 2834 3397 
L 2834 2853 
Q 2591 2978 2328 3040 
Q 2066 3103 1784 3103 
Q 1356 3103 1142 2972 
Q 928 2841 928 2578 
Q 928 2378 1081 2264 
Q 1234 2150 1697 2047 
L 1894 2003 
Q 2506 1872 2764 1633 
Q 3022 1394 3022 966 
Q 3022 478 2636 193 
Q 2250 -91 1575 -91 
Q 1294 -91 989 -36 
Q 684 19 347 128 
L 347 722 
Q 666 556 975 473 
Q 1284 391 1588 391 
Q 1994 391 2212 530 
Q 2431 669 2431 922 
Q 2431 1156 2273 1281 
Q 2116 1406 1581 1522 
L 1381 1569 
Q 847 1681 609 1914 
Q 372 2147 372 2553 
Q 372 3047 722 3315 
Q 1072 3584 1716 3584 
Q 2034 3584 2315 3537 
Q 2597 3491 2834 3397 
z
" transform="scale(0.015625)"/>
       <path id="DejaVuSans-29" d="M 513 4856 
L 1013 4856 
Q 1481 4119 1714 3412 
Q 1947 2706 1947 2009 
Q 1947 1309 1714 600 
Q 1481 -109 1013 -844 
L 513 -844 
Q 928 -128 1133 580 
Q 1338 1288 1338 2009 
Q 1338 2731 1133 3434 
Q 928 4138 513 4856 
z
" transform="scale(0.015625)"/>
      </defs>
      <use xlink:href="#DejaVuSans-Oblique-74" transform="translate(0 0.125)"/>
      <use xlink:href="#DejaVuSans-20" transform="translate(39.208984 0.125)"/>
      <use xlink:href="#DejaVuSans-28" transform="translate(70.996094 0.125)"/>
      <use xlink:href="#DejaVuSans-73" transform="translate(110.009766 0.125)"/>
      <use xlink:href="#DejaVuSans-29" transform="translate(162.109375 0.125)"/>
     </g>
    </g>
   </g>
   <g id="matplotlib.axis_2">
    <g id="ytick_1">
     <g id="line2d_6">
      <defs>
       <path id="me5fa53e8c6" d="M 0 0 
L -3.5 0 
" style="stroke: #000000; stroke-width: 0.8"/>
      </defs>
      <g>
       <use xlink:href="#me5fa53e8c6" x="56" y="192.082859" style="stroke: #000000; stroke-width: 0.8"/>
      </g>
     </g>
     <g id="text_7">
      <!-- −0.2 -->
      <g transform="translate(24.717187 195.882078) scale(0.1 -0.1)">
       <defs>
        <path id="DejaVuSans-2212" d="M 678 2272 
L 4684 2272 
L 4684 1741 
L 678 1741 
L 678 2272 
z
" transform="scale(0.015625)"/>
        <path id="DejaVuSans-2e" d="M 684 794 
L 1344 794 
L 1344 0 
L 684 0 
L 684 794 
z
" transform="scale(0.015625)"/>
       </defs>
       <use xlink:href="#DejaVuSans-2212"/>
       <use xlink:href="#DejaVuSans-30" transform="translate(83.789062 0)"/>
       <use xlink:href="#DejaVuSans-2e" transform="translate(147.412109 0)"/>
       <use xlink:href="#DejaVuSans-32" transform="translate(179.199219 0)"/>
      </g>
     </g>
    </g>
    <g id="ytick_2">
     <g id="line2d_7">
      <g>
       <use xlink:href="#me5fa53e8c6" x="56" y="155.803808" style="stroke: #000000; stroke-width: 0.8"/>
      </g>
     </g>
     <g id="text_8">
      <!-- 0.0 -->
      <g transform="translate(33.096875 159.603026) scale(0.1 -0.1)">
       <use xlink:href="#DejaVuSans-30"/>
       <use xlink:href="#DejaVuSans-2e" transform="translate(63.623047 0)"/>
       <use xlink:href="#DejaVuSans-30" transform="translate(95.410156 0)"/>
      </g>
     </g>
    </g>
    <g id="ytick_3">
     <g id="line2d_8">
      <g>
       <use xlink:href="#me5fa53e8c6" x="56" y="119.524756" style="stroke: #000000; stroke-width: 0.8"/>
      </g>
     </g>
     <g id="text_9">
      <!-- 0.2 -->
      <g transform="translate(33.096875 123.323975) scale(0.1 -0.1)">
       <use xlink:href="#DejaVuSans-30"/>
       <use xlink:href="#DejaVuSans-2e" transform="translate(63.623047 0)"/>
       <use xlink:href="#DejaVuSans-32" transform="translate(95.410156 0)"/>
      </g>
     </g>
    </g>
    <g id="ytick_4">
     <g id="line2d_9">
      <g>
       <use xlink:href="#me5fa53e8c6" x="56" y="83.245705" style="stroke: #000000; stroke-width: 0.8"/>
      </g>
     </g>
     <g id="text_10">
      <!-- 0.4 -->
      <g transform="translate(33.096875 87.044924) scale(0.1 -0.1)">
       <use xlink:href="#DejaVuSans-30"/>
       <use xlink:href="#DejaVuSans-2e" transform="translate(63.623047 0)"/>
       <use xlink:href="#DejaVuSans-34" transform="translate(95.410156 0)"/>
      </g>
     </g>
    </g>
    <g id="ytick_5">
     <g id="line2d_10">
      <g>
       <use xlink:href="#me5fa53e8c6" x="56" y="46.966653" style="stroke: #000000; stroke-width: 0.8"/>
      </g>
     </g>
     <g id="text_11">
      <!-- 0.6 -->
      <g transform="translate(33.096875 50.765872) scale(0.1 -0.1)">
       <defs>
        <path id="DejaVuSans-36" d="M 2113 2584 
Q 1688 2584 1439 2293 
Q 1191 2003 1191 1497 
Q 1191 994 1439 701 
Q 1688 409 2113 409 
Q 2538 409 2786 701 
Q 3034 994 3034 1497 
Q 3034 2003 2786 2293 
Q 2538 2584 2113 2584 
z
M 3366 4563 
L 3366 3988 
Q 3128 4100 2886 4159 
Q 2644 4219 2406 4219 
Q 1781 4219 1451 3797 
Q 1122 3375 1075 2522 
Q 1259 2794 1537 2939 
Q 1816 3084 2150 3084 
Q 2853 3084 3261 2657 
Q 3669 2231 3669 1497 
Q 3669 778 3244 343 
Q 2819 -91 2113 -91 
Q 1303 -91 875 529 
Q 447 1150 447 2328 
Q 447 3434 972 4092 
Q 1497 4750 2381 4750 
Q 2619 4750 2861 4703 
Q 3103 4656 3366 4563 
z
" transform="scale(0.015625)"/>
       </defs>
       <use xlink:href="#DejaVuSans-30"/>
       <use xlink:href="#DejaVuSans-2e" transform="translate(63.623047 0)"/>
       <use xlink:href="#DejaVuSans-36" transform="translate(95.410156 0)"/>
      </g>
     </g>
    </g>
    <g id="text_12">
     <!-- $\Gamma$ -->
     <g transform="translate(18.6375 124.86) rotate(-90) scale(0.1 -0.1)">
      <defs>
       <path id="DejaVuSans-393" d="M 628 0 
L 628 4666 
L 3531 4666 
L 3531 4134 
L 1259 4134 
L 1259 0 
L 628 0 
z
" transform="scale(0.015625)"/>
      </defs>
      <use xlink:href="#DejaVuSans-393" transform="translate(0 0.09375)"/>
     </g>
    </g>
   </g>
   <g id="line2d_11">
    <path d="M 66.488182 155.803808 
L 67.891283 125.126751 
L 69.294384 101.242649 
L 70.697486 84.273952 
L 72.802137 64.50682 
L 74.906789 46.007397 
L 75.60834 41.32551 
L 76.309891 38.175207 
L 77.011441 36.841818 
L 77.712992 37.341551 
L 78.414542 39.407692 
L 79.817644 46.203811 
L 81.220745 53.102755 
L 84.026947 64.978093 
L 84.728498 69.603303 
L 85.430049 75.521549 
L 86.83315 90.666193 
L 88.937802 114.503859 
L 90.340903 126.297718 
L 93.147106 145.585328 
L 94.550207 158.574412 
L 95.953308 172.564035 
L 96.654859 178.649666 
L 97.356409 183.538814 
L 98.05796 187.066753 
L 98.75951 189.355139 
L 99.461061 190.774751 
L 100.864162 193.060318 
L 101.565713 194.802669 
L 102.267264 197.182715 
L 104.371915 205.447533 
L 105.073466 206.994153 
L 105.775017 207.278182 
L 106.476567 206.235334 
L 107.178118 204.084312 
L 109.28277 195.810345 
L 109.98432 194.001068 
L 110.685871 192.97636 
L 111.387422 192.519963 
L 112.088972 192.203863 
L 112.790523 191.513765 
L 113.492074 189.998751 
L 114.193624 187.403253 
L 114.895175 183.7444 
L 117.701377 166.460566 
L 118.402928 163.774188 
L 119.104479 162.082278 
L 119.806029 161.100505 
L 120.50758 160.359354 
L 121.20913 159.339767 
L 121.910681 157.622346 
L 122.612232 155.008392 
L 124.015333 147.675173 
L 125.418434 140.50803 
L 126.119985 138.197898 
L 126.821535 137.05741 
L 127.523086 136.984243 
L 128.224637 137.621651 
L 128.926187 138.458997 
L 129.627738 138.97498 
L 130.329289 138.783539 
L 131.030839 137.741636 
L 131.73239 135.988815 
L 133.135491 132.014969 
L 133.837042 130.817786 
L 134.538592 130.668457 
L 135.240143 131.665369 
L 135.941694 133.623408 
L 137.344795 138.628552 
L 138.046345 140.629494 
L 138.747896 141.787018 
L 139.449447 142.022999 
L 140.150997 141.539963 
L 140.852548 140.761836 
L 141.554099 140.212756 
L 142.255649 140.367855 
L 142.9572 141.517744 
L 143.65875 143.6846 
L 146.464953 155.077969 
L 147.166503 156.33498 
L 147.868054 156.589387 
L 148.569605 156.111981 
L 149.271155 155.369048 
L 149.972706 154.890152 
L 150.674257 155.118355 
L 151.375807 156.284772 
L 152.077358 158.342534 
L 154.18201 165.971813 
L 154.88356 167.363571 
L 155.585111 167.671442 
L 156.286662 166.97343 
L 158.391313 162.909848 
L 159.092864 162.510931 
L 159.794415 163.049393 
L 160.495965 164.411559 
L 161.899067 168.002254 
L 162.600617 169.202174 
L 163.302168 169.457696 
L 164.003718 168.640391 
L 164.705269 166.905611 
L 166.10837 162.402262 
L 166.809921 160.675455 
L 167.511472 159.825821 
L 168.213022 159.953886 
L 168.914573 160.877739 
L 170.317674 163.350225 
L 171.019225 163.881501 
L 171.720775 163.46085 
L 172.422326 162.033556 
L 173.825427 157.278248 
L 174.526978 154.932481 
L 175.228528 153.27221 
L 175.930079 152.59347 
L 176.63163 152.921921 
L 177.33318 154.006621 
L 178.736282 156.541563 
L 179.437832 156.997302 
L 180.139383 156.499719 
L 180.840933 155.065438 
L 182.945585 148.840664 
L 183.647136 147.762939 
L 184.348687 147.723342 
L 185.050237 148.670233 
L 187.154889 153.515716 
L 187.85644 154.173486 
L 188.55799 153.858024 
L 189.259541 152.656621 
L 190.662642 149.134365 
L 191.364193 147.842315 
L 192.065743 147.433397 
L 192.767294 148.064202 
L 193.468845 149.607786 
L 194.871946 153.78689 
L 195.573497 155.383395 
L 196.275047 156.103904 
L 196.976598 155.823236 
L 197.678148 154.699602 
L 199.08125 151.637285 
L 199.7828 150.725877 
L 200.484351 150.737592 
L 201.185901 151.756768 
L 201.887452 153.585825 
L 203.290553 157.86526 
L 203.992104 159.287681 
L 204.693655 159.750467 
L 205.395205 159.202369 
L 206.096756 157.871533 
L 207.499857 154.726033 
L 208.201408 153.921172 
L 208.902958 154.070273 
L 209.604509 155.185376 
L 211.709161 160.818058 
L 212.410711 161.819506 
L 213.112262 161.811947 
L 213.813813 160.819835 
L 215.918465 155.683813 
L 216.620015 154.886063 
L 217.321566 155.073623 
L 218.023116 156.186006 
L 220.127768 161.113756 
L 220.829319 161.670229 
L 221.53087 161.204557 
L 222.23242 159.815785 
L 223.635521 155.842571 
L 224.337072 154.293719 
L 225.038623 153.604066 
L 225.740173 153.924275 
L 226.441724 155.12145 
L 227.844825 158.490991 
L 228.546376 159.631353 
L 229.247926 159.873819 
L 229.949477 159.105884 
L 230.651028 157.498155 
L 232.054129 153.510826 
L 232.75568 152.16329 
L 233.45723 151.752 
L 234.158781 152.3547 
L 234.860331 153.767636 
L 236.263433 157.207231 
L 236.964983 158.213134 
L 237.666534 158.273381 
L 238.368085 157.347972 
L 239.069635 155.675179 
L 240.472736 151.973248 
L 241.174287 150.952009 
L 241.875838 150.917387 
L 242.577388 151.872418 
L 244.68204 157.105485 
L 245.383591 158.000932 
L 246.085141 157.911383 
L 246.786692 156.8702 
L 248.891344 151.835134 
L 249.592894 151.147697 
L 250.294445 151.470198 
L 250.995996 152.731306 
L 253.100648 158.11853 
L 253.802198 158.831772 
L 254.503749 158.534118 
L 255.205299 157.332224 
L 256.608401 153.806552 
L 257.309951 152.515606 
L 258.011502 152.097016 
L 258.713053 152.690577 
L 259.414603 154.152539 
L 260.817704 157.99737 
L 261.519255 159.345739 
L 262.220806 159.782522 
L 262.922356 159.203221 
L 263.623907 157.78622 
L 265.027008 154.202296 
L 265.728559 153.063661 
L 266.430109 152.856326 
L 267.13166 153.647863 
L 267.833211 155.22512 
L 269.236312 158.89993 
L 269.937863 159.979069 
L 270.639413 160.091865 
L 271.340964 159.20773 
L 272.042514 157.573442 
L 273.445616 153.956377 
L 274.147166 152.977692 
L 274.848717 152.976436 
L 275.550268 153.946571 
L 276.251818 155.609487 
L 276.251818 155.609487 
" clip-path="url(#p9162014c3a)" style="fill: none; stroke: #1f77b4; stroke-linecap: square"/>
   </g>
   <g id="line2d_12">
    <path d="M 66.488182 155.803808 
L 67.891283 128.309559 
L 69.294384 104.297628 
L 70.697486 84.023429 
L 72.100587 67.627545 
L 73.503688 55.143526 
L 74.205239 50.35196 
L 74.906789 46.507249 
L 75.60834 43.587863 
L 76.309891 41.567548 
L 77.011441 40.41571 
L 77.712992 40.097797 
L 78.414542 40.575694 
L 79.116093 41.808119 
L 79.817644 43.751012 
L 80.519194 46.357937 
L 81.220745 49.580464 
L 82.623846 57.670953 
L 84.026947 67.609627 
L 86.131599 85.062331 
L 88.937802 110.919454 
L 92.445555 143.166987 
L 94.550207 160.582171 
L 95.953308 170.876631 
L 97.356409 179.91142 
L 98.75951 187.560834 
L 100.162612 193.744503 
L 101.565713 198.425611 
L 102.267264 200.202461 
L 102.968814 201.608201 
L 103.670365 202.649153 
L 104.371915 203.333729 
L 105.073466 203.672288 
L 105.775017 203.676989 
L 106.476567 203.361643 
L 107.178118 202.741555 
L 107.879669 201.833369 
L 108.581219 200.654902 
L 109.98432 197.56332 
L 111.387422 193.626782 
L 112.790523 189.013881 
L 114.895175 181.203215 
L 121.910681 154.028559 
L 124.015333 147.303247 
L 125.418434 143.495574 
L 126.821535 140.296893 
L 128.224637 137.743485 
L 129.627738 135.852438 
L 130.329289 135.155636 
L 131.030839 134.622669 
L 131.73239 134.25079 
L 132.43394 134.03631 
L 133.135491 133.974651 
L 133.837042 134.060418 
L 134.538592 134.287458 
L 135.240143 134.648931 
L 136.643244 135.744801 
L 138.046345 137.282252 
L 139.449447 139.189087 
L 141.554099 142.574402 
L 144.360301 147.658634 
L 148.569605 155.309089 
L 150.674257 158.681927 
L 152.778908 161.535287 
L 154.18201 163.093849 
L 155.585111 164.3524 
L 156.988212 165.29975 
L 158.391313 165.933474 
L 159.794415 166.25936 
L 161.197516 166.29068 
L 162.600617 166.047322 
L 164.003718 165.554824 
L 165.40682 164.843324 
L 167.511472 163.43974 
L 169.616123 161.742259 
L 178.736282 153.949886 
L 180.840933 152.617808 
L 182.945585 151.601462 
L 185.050237 150.927103 
L 186.453338 150.670473 
L 188.55799 150.56552 
L 190.662642 150.770725 
L 192.767294 151.24364 
L 194.871946 151.930844 
L 197.678148 153.075766 
L 206.096756 156.710169 
L 208.902958 157.590879 
L 211.709161 158.181704 
L 213.813813 158.420149 
L 216.620015 158.471543 
L 219.426218 158.250701 
L 222.23242 157.813867 
L 226.441724 156.90966 
L 233.45723 155.352338 
L 236.964983 154.796128 
L 240.472736 154.478208 
L 243.98049 154.41061 
L 247.488243 154.565592 
L 252.399097 155.044009 
L 263.623907 156.278621 
L 268.534761 156.519761 
L 273.445616 156.507548 
L 276.251818 156.405541 
L 276.251818 156.405541 
" clip-path="url(#p9162014c3a)" style="fill: none; stroke-dasharray: 5.55,2.4; stroke-dashoffset: 0; stroke: #ff7f0e; stroke-width: 1.5"/>
   </g>
   <g id="patch_3">
    <path d="M 56 215.8 
L 56 28.32 
" style="fill: none; stroke: #000000; stroke-width: 0.8; stroke-linejoin: miter; stroke-linecap: square"/>
   </g>
   <g id="patch_4">
    <path d="M 286.74 215.8 
L 286.74 28.32 
" style="fill: none; stroke: #000000; stroke-width: 0.8; stroke-linejoin: miter; stroke-linecap: square"/>
   </g>
   <g id="patch_5">
    <path d="M 56 215.8 
L 286.74 215.8 
" style="fill: none; stroke: #000000; stroke-width: 0.8; stroke-linejoin: miter; stroke-linecap: square"/>
   </g>
   <g id="patch_6">
    <path d="M 56 28.32 
L 286.74 28.32 
" style="fill: none; stroke: #000000; stroke-width: 0.8; stroke-linejoin: miter; stroke-linecap: square"/>
   </g>
   <g id="patch_7">
    <path d="M 164.665015 170.807447 
Q 122.955071 109.408735 81.873386 48.934843 
" style="fill: none; stroke: #000000; stroke-linecap: round"/>
    <path d="M 82.466739 53.367442 
L 81.873386 48.934843 
L 85.775477 51.119719 
" style="fill: none; stroke: #000000; stroke-linecap: round"/>
   </g>
   <g id="text_13">
    <!-- ringing -->
    <g transform="translate(152.9108 182.0536) scale(0.1 -0.1)">
     <defs>
      <path id="DejaVuSans-72" d="M 2631 2963 
Q 2534 3019 2420 3045 
Q 2306 3072 2169 3072 
Q 1681 3072 1420 2755 
Q 1159 2438 1159 1844 
L 1159 0 
L 581 0 
L 581 3500 
L 1159 3500 
L 1159 2956 
Q 1341 3275 1631 3429 
Q 1922 3584 2338 3584 
Q 2397 3584 2469 3576 
Q 2541 3569 2628 3553 
L 2631 2963 
z
" transform="scale(0.015625)"/>
      <path id="DejaVuSans-69" d="M 603 3500 
L 1178 3500 
L 1178 0 
L 603 0 
L 603 3500 
z
M 603 4863 
L 1178 4863 
L 1178 4134 
L 603 4134 
L 603 4863 
z
" transform="scale(0.015625)"/>
      <path id="DejaVuSans-6e" d="M 3513 2113 
L 3513 0 
L 2938 0 
L 2938 2094 
Q 2938 2591 2744 2837 
Q 2550 3084 2163 3084 
Q 1697 3084 1428 2787 
Q 1159 2491 1159 1978 
L 1159 0 
L 581 0 
L 581 3500 
L 1159 3500 
L 1159 2956 
Q 1366 3272 1645 3428 
Q 1925 3584 2291 3584 
Q 2894 3584 3203 3211 
Q 3513 2838 3513 2113 
z
" transform="scale(0.015625)"/>
      <path id="DejaVuSans-67" d="M 2906 1791 
Q 2906 2416 2648 2759 
Q 2391 3103 1925 3103 
Q 1463 3103 1205 2759 
Q 947 2416 947 1791 
Q 947 1169 1205 825 
Q 1463 481 1925 481 
Q 2391 481 2648 825 
Q 2906 1169 2906 1791 
z
M 3481 434 
Q 3481 -459 3084 -895 
Q 2688 -1331 1869 -1331 
Q 1566 -1331 1297 -1286 
Q 1028 -1241 775 -1147 
L 775 -588 
Q 1028 -725 1275 -790 
Q 1522 -856 1778 -856 
Q 2344 -856 2625 -561 
Q 2906 -266 2906 331 
L 2906 616 
Q 2728 306 2450 153 
Q 2172 0 1784 0 
Q 1141 0 747 490 
Q 353 981 353 1791 
Q 353 2603 747 3093 
Q 1141 3584 1784 3584 
Q 2172 3584 2450 3431 
Q 2728 3278 2906 2969 
L 2906 3500 
L 3481 3500 
L 3481 434 
z
" transform="scale(0.015625)"/>
     </defs>
     <use xlink:href="#DejaVuSans-72"/>
     <use xlink:href="#DejaVuSans-69" transform="translate(41.113281 0)"/>
     <use xlink:href="#DejaVuSans-6e" transform="translate(68.896484 0)"/>
     <use xlink:href="#DejaVuSans-67" transform="translate(132.275391 0)"/>
     <use xlink:href="#DejaVuSans-69" transform="translate(195.751953 0)"/>
     <use xlink:href="#DejaVuSans-6e" transform="translate(223.535156 0)"/>
     <use xlink:href="#DejaVuSans-67" transform="translate(286.914062 0)"/>
    </g>
   </g>
   <g id="text_14">
    <!-- $\Gamma(t)$ response -->
    <g transform="translate(131.65 22.32) scale(0.12 -0.12)">
     <defs>
      <path id="DejaVuSans-65" d="M 3597 1894 
L 3597 1613 
L 953 1613 
Q 991 1019 1311 708 
Q 1631 397 2203 397 
Q 2534 397 2845 478 
Q 3156 559 3463 722 
L 3463 178 
Q 3153 47 2828 -22 
Q 2503 -91 2169 -91 
Q 1331 -91 842 396 
Q 353 884 353 1716 
Q 353 2575 817 3079 
Q 1281 3584 2069 3584 
Q 2775 3584 3186 3129 
Q 3597 2675 3597 1894 
z
M 3022 2063 
Q 3016 2534 2758 2815 
Q 2500 3097 2075 3097 
Q 1594 3097 1305 2825 
Q 1016 2553 972 2059 
L 3022 2063 
z
" transform="scale(0.015625)"/>
      <path id="DejaVuSans-70" d="M 1159 525 
L 1159 -1331 
L 581 -1331 
L 581 3500 
L 1159 3500 
L 1159 2969 
Q 1341 3281 1617 3432 
Q 1894 3584 2278 3584 
Q 2916 3584 3314 3078 
Q 3713 2572 3713 1747 
Q 3713 922 3314 415 
Q 2916 -91 2278 -91 
Q 1894 -91 1617 61 
Q 1341 213 1159 525 
z
M 3116 1747 
Q 3116 2381 2855 2742 
Q 2594 3103 2138 3103 
Q 1681 3103 1420 2742 
Q 1159 2381 1159 1747 
Q 1159 1113 1420 752 
Q 1681 391 2138 391 
Q 2594 391 2855 752 
Q 3116 1113 3116 1747 
z
" transform="scale(0.015625)"/>
      <path id="DejaVuSans-6f" d="M 1959 3097 
Q 1497 3097 1228 2736 
Q 959 2375 959 1747 
Q 959 1119 1226 758 
Q 1494 397 1959 397 
Q 2419 397 2687 759 
Q 2956 1122 2956 1747 
Q 2956 2369 2687 2733 
Q 2419 3097 1959 3097 
z
M 1959 3584 
Q 2709 3584 3137 3096 
Q 3566 2609 3566 1747 
Q 3566 888 3137 398 
Q 2709 -91 1959 -91 
Q 1206 -91 779 398 
Q 353 888 353 1747 
Q 353 2609 779 3096 
Q 1206 3584 1959 3584 
z
" transform="scale(0.015625)"/>
     </defs>
     <use xlink:href="#DejaVuSans-393" transform="translate(0 0.125)"/>
     <use xlink:href="#DejaVuSans-28" transform="translate(55.712891 0.125)"/>
     <use xlink:href="#DejaVuSans-Oblique-74" transform="translate(94.726562 0.125)"/>
     <use xlink:href="#DejaVuSans-29" transform="translate(133.935547 0.125)"/>
     <use xlink:href="#DejaVuSans-20" transform="translate(172.949219 0.125)"/>
     <use xlink:href="#DejaVuSans-72" transform="translate(204.736328 0.125)"/>
     <use xlink:href="#DejaVuSans-65" transform="translate(245.849609 0.125)"/>
     <use xlink:href="#DejaVuSans-73" transform="translate(307.373047 0.125)"/>
     <use xlink:href="#DejaVuSans-70" transform="translate(359.472656 0.125)"/>
     <use xlink:href="#DejaVuSans-6f" transform="translate(422.949219 0.125)"/>
     <use xlink:href="#DejaVuSans-6e" transform="translate(484.130859 0.125)"/>
     <use xlink:href="#DejaVuSans-73" transform="translate(547.509766 0.125)"/>
     <use xlink:href="#DejaVuSans-65" transform="translate(599.609375 0.125)"/>
    </g>
   </g>
   <g id="legend_1">
    <g id="patch_8">
     <path d="M 197.78375 70.498125 
L 279.74 70.498125 
Q 281.74 70.498125 281.74 68.498125 
L 281.74 35.32 
Q 281.74 33.32 279.74 33.32 
L 197.78375 33.32 
Q 195.78375 33.32 195.78375 35.32 
L 195.78375 68.498125 
Q 195.78375 70.498125 197.78375 70.498125 
z
" style="fill: #ffffff; opacity: 0.8; stroke: #cccccc; stroke-linejoin: miter"/>
    </g>
    <g id="line2d_13">
     <path d="M 199.78375 41.418438 
L 209.78375 41.418438 
L 219.78375 41.418438 
" style="fill: none; stroke: #1f77b4; stroke-linecap: square"/>
    </g>
    <g id="text_15">
     <!-- measured -->
     <g transform="translate(227.78375 44.918438) scale(0.1 -0.1)">
      <defs>
       <path id="DejaVuSans-6d" d="M 3328 2828 
Q 3544 3216 3844 3400 
Q 4144 3584 4550 3584 
Q 5097 3584 5394 3201 
Q 5691 2819 5691 2113 
L 5691 0 
L 5113 0 
L 5113 2094 
Q 5113 2597 4934 2840 
Q 4756 3084 4391 3084 
Q 3944 3084 3684 2787 
Q 3425 2491 3425 1978 
L 3425 0 
L 2847 0 
L 2847 2094 
Q 2847 2600 2669 2842 
Q 2491 3084 2119 3084 
Q 1678 3084 1418 2786 
Q 1159 2488 1159 1978 
L 1159 0 
L 581 0 
L 581 3500 
L 1159 3500 
L 1159 2956 
Q 1356 3278 1631 3431 
Q 1906 3584 2284 3584 
Q 2666 3584 2933 3390 
Q 3200 3197 3328 2828 
z
" transform="scale(0.015625)"/>
       <path id="DejaVuSans-61" d="M 2194 1759 
Q 1497 1759 1228 1600 
Q 959 1441 959 1056 
Q 959 750 1161 570 
Q 1363 391 1709 391 
Q 2188 391 2477 730 
Q 2766 1069 2766 1631 
L 2766 1759 
L 2194 1759 
z
M 3341 1997 
L 3341 0 
L 2766 0 
L 2766 531 
Q 2569 213 2275 61 
Q 1981 -91 1556 -91 
Q 1019 -91 701 211 
Q 384 513 384 1019 
Q 384 1609 779 1909 
Q 1175 2209 1959 2209 
L 2766 2209 
L 2766 2266 
Q 2766 2663 2505 2880 
Q 2244 3097 1772 3097 
Q 1472 3097 1187 3025 
Q 903 2953 641 2809 
L 641 3341 
Q 956 3463 1253 3523 
Q 1550 3584 1831 3584 
Q 2591 3584 2966 3190 
Q 3341 2797 3341 1997 
z
" transform="scale(0.015625)"/>
       <path id="DejaVuSans-75" d="M 544 1381 
L 544 3500 
L 1119 3500 
L 1119 1403 
Q 1119 906 1312 657 
Q 1506 409 1894 409 
Q 2359 409 2629 706 
Q 2900 1003 2900 1516 
L 2900 3500 
L 3475 3500 
L 3475 0 
L 2900 0 
L 2900 538 
Q 2691 219 2414 64 
Q 2138 -91 1772 -91 
Q 1169 -91 856 284 
Q 544 659 544 1381 
z
M 1991 3584 
L 1991 3584 
z
" transform="scale(0.015625)"/>
       <path id="DejaVuSans-64" d="M 2906 2969 
L 2906 4863 
L 3481 4863 
L 3481 0 
L 2906 0 
L 2906 525 
Q 2725 213 2448 61 
Q 2172 -91 1784 -91 
Q 1150 -91 751 415 
Q 353 922 353 1747 
Q 353 2572 751 3078 
Q 1150 3584 1784 3584 
Q 2172 3584 2448 3432 
Q 2725 3281 2906 2969 
z
M 947 1747 
Q 947 1113 1208 752 
Q 1469 391 1925 391 
Q 2381 391 2643 752 
Q 2906 1113 2906 1747 
Q 2906 2381 2643 2742 
Q 2381 3103 1925 3103 
Q 1469 3103 1208 2742 
Q 947 2381 947 1747 
z
" transform="scale(0.015625)"/>
      </defs>
      <use xlink:href="#DejaVuSans-6d"/>
      <use xlink:href="#DejaVuSans-65" transform="translate(97.412109 0)"/>
      <use xlink:href="#DejaVuSans-61" transform="translate(158.935547 0)"/>
      <use xlink:href="#DejaVuSans-73" transform="translate(220.214844 0)"/>
      <use xlink:href="#DejaVuSans-75" transform="translate(272.314453 0)"/>
      <use xlink:href="#DejaVuSans-72" transform="translate(335.693359 0)"/>
      <use xlink:href="#DejaVuSans-65" transform="translate(374.556641 0)"/>
      <use xlink:href="#DejaVuSans-64" transform="translate(436.080078 0)"/>
     </g>
    </g>
    <g id="line2d_14">
     <path d="M 199.78375 59.098125 
L 209.78375 59.098125 
L 219.78375 59.098125 
" style="fill: none; stroke-dasharray: 5.55,2.4; stroke-dashoffset: 0; stroke: #ff7f0e; stroke-width: 1.5"/>
    </g>
    <g id="text_16">
     <!-- $\frac{e^{-t}\sin 6t}{1+t}$ -->
     <g transform="translate(227.78375 62.598125) scale(0.1 -0.1)">
      <defs>
       <path id="DejaVuSans-Oblique-65" d="M 3078 2063 
Q 3088 2113 3092 2166 
Q 3097 2219 3097 2272 
Q 3097 2653 2873 2875 
Q 2650 3097 2266 3097 
Q 1838 3097 1509 2826 
Q 1181 2556 1013 2059 
L 3078 2063 
z
M 3578 1613 
L 903 1613 
Q 884 1494 878 1425 
Q 872 1356 872 1306 
Q 872 872 1139 634 
Q 1406 397 1894 397 
Q 2269 397 2603 481 
Q 2938 566 3225 728 
L 3116 159 
Q 2806 34 2476 -28 
Q 2147 -91 1806 -91 
Q 1078 -91 686 257 
Q 294 606 294 1247 
Q 294 1794 489 2264 
Q 684 2734 1063 3103 
Q 1306 3334 1642 3459 
Q 1978 3584 2356 3584 
Q 2950 3584 3301 3228 
Q 3653 2872 3653 2272 
Q 3653 2128 3634 1964 
Q 3616 1800 3578 1613 
z
" transform="scale(0.015625)"/>
       <path id="DejaVuSans-2b" d="M 2944 4013 
L 2944 2272 
L 4684 2272 
L 4684 1741 
L 2944 1741 
L 2944 0 
L 2419 0 
L 2419 1741 
L 678 1741 
L 678 2272 
L 2419 2272 
L 2419 4013 
L 2944 4013 
z
" transform="scale(0.015625)"/>
      </defs>
      <use xlink:href="#DejaVuSans-Oblique-65" transform="translate(0 44.795938) scale(0.7)"/>
      <use xlink:href="#DejaVuSans-2212" transform="translate(46.321333 71.592813) scale(0.49)"/>
      <use xlink:href="#DejaVuSans-Oblique-74" transform="translate(87.377974 71.592813) scale(0.49)"/>
      <use xlink:href="#DejaVuSans-73" transform="translate(108.504439 44.795938) scale(0.7)"/>
      <use xlink:href="#DejaVuSans-69" transform="translate(144.974165 44.795938) scale(0.7)"/>
      <use xlink:href="#DejaVuSans-6e" transform="translate(164.422408 44.795938) scale(0.7)"/>
      <use xlink:href="#DejaVuSans-36" transform="translate(220.152615 44.795938) scale(0.7)"/>
      <use xlink:href="#DejaVuSans-Oblique-74" transform="translate(264.688748 44.795938) scale(0.7)"/>
      <use xlink:href="#DejaVuSans-31" transform="translate(67 -38.48375) scale(0.7)"/>
      <use xlink:href="#DejaVuSans-2b" transform="translate(125.173828 -38.48375) scale(0.7)"/>
      <use xlink:href="#DejaVuSans-Oblique-74" transform="translate(197.463867 -38.48375) scale(0.7)"/>
      <path d="M 0 18.800625 
L 0 25.050625 
L 292.135037 25.050625 
L 292.135037 18.800625 
L 0 18.800625 
z
"/>
     </g>
    </g>
   </g>
  </g>
  <g id="axes_2">
   <g id="patch_9">
    <path d="M 334.46 215.8 
L 565.2 215.8 
L 565.2 28.32 
L 334.46 28.32 
z
" style="fill: #ffffff"/>
   </g>
   <g id="matplotlib.axis_3">
    <g id="xtick_6">
     <g id="line2d_15">
      <g>
       <use xlink:href="#ma24f9baa4d" x="359.414639" y="215.8" style="stroke: #000000; stroke-width: 0.8"/>
      </g>
     </g>
     <g id="text_17">
      <!-- 17 -->
      <g transform="translate(353.052139 230.398438) scale(0.1 -0.1)">
       <defs>
        <path id="DejaVuSans-37" d="M 525 4666 
L 3525 4666 
L 3525 4397 
L 1831 0 
L 1172 0 
L 2766 4134 
L 525 4134 
L 525 4666 
z
" transform="scale(0.015625)"/>
       </defs>
       <use xlink:href="#DejaVuSans-31"/>
       <use xlink:href="#DejaVuSans-37" transform="translate(63.623047 0)"/>
      </g>
     </g>
    </g>
    <g id="xtick_7">
     <g id="line2d_16">
      <g>
       <use xlink:href="#ma24f9baa4d" x="388.347555" y="215.8" style="stroke: #000000; stroke-width: 0.8"/>
      </g>
     </g>
     <g id="text_18">
      <!-- 21 -->
      <g transform="translate(381.985055 230.398438) scale(0.1 -0.1)">
       <use xlink:href="#DejaVuSans-32"/>
       <use xlink:href="#DejaVuSans-31" transform="translate(63.623047 0)"/>
      </g>
     </g>
    </g>
    <g id="xtick_8">
     <g id="line2d_17">
      <g>
       <use xlink:href="#ma24f9baa4d" x="417.28047" y="215.8" style="stroke: #000000; stroke-width: 0.8"/>
      </g>
     </g>
     <g id="text_19">
      <!-- 25 -->
      <g transform="translate(410.91797 230.398438) scale(0.1 -0.1)">
       <defs>
        <path id="DejaVuSans-35" d="M 691 4666 
L 3169 4666 
L 3169 4134 
L 1269 4134 
L 1269 2991 
Q 1406 3038 1543 3061 
Q 1681 3084 1819 3084 
Q 2600 3084 3056 2656 
Q 3513 2228 3513 1497 
Q 3513 744 3044 326 
Q 2575 -91 1722 -91 
Q 1428 -91 1123 -41 
Q 819 9 494 109 
L 494 744 
Q 775 591 1075 516 
Q 1375 441 1709 441 
Q 2250 441 2565 725 
Q 2881 1009 2881 1497 
Q 2881 1984 2565 2268 
Q 2250 2553 1709 2553 
Q 1456 2553 1204 2497 
Q 953 2441 691 2322 
L 691 4666 
z
" transform="scale(0.015625)"/>
       </defs>
       <use xlink:href="#DejaVuSans-32"/>
       <use xlink:href="#DejaVuSans-35" transform="translate(63.623047 0)"/>
      </g>
     </g>
    </g>
    <g id="xtick_9">
     <g id="line2d_18">
      <g>
       <use xlink:href="#ma24f9baa4d" x="446.213386" y="215.8" style="stroke: #000000; stroke-width: 0.8"/>
      </g>
     </g>
     <g id="text_20">
      <!-- 29 -->
      <g transform="translate(439.850886 230.398438) scale(0.1 -0.1)">
       <defs>
        <path id="DejaVuSans-39" d="M 703 97 
L 703 672 
Q 941 559 1184 500 
Q 1428 441 1663 441 
Q 2288 441 2617 861 
Q 2947 1281 2994 2138 
Q 2813 1869 2534 1725 
Q 2256 1581 1919 1581 
Q 1219 1581 811 2004 
Q 403 2428 403 3163 
Q 403 3881 828 4315 
Q 1253 4750 1959 4750 
Q 2769 4750 3195 4129 
Q 3622 3509 3622 2328 
Q 3622 1225 3098 567 
Q 2575 -91 1691 -91 
Q 1453 -91 1209 -44 
Q 966 3 703 97 
z
M 1959 2075 
Q 2384 2075 2632 2365 
Q 2881 2656 2881 3163 
Q 2881 3666 2632 3958 
Q 2384 4250 1959 4250 
Q 1534 4250 1286 3958 
Q 1038 3666 1038 3163 
Q 1038 2656 1286 2365 
Q 1534 2075 1959 2075 
z
" transform="scale(0.015625)"/>
       </defs>
       <use xlink:href="#DejaVuSans-32"/>
       <use xlink:href="#DejaVuSans-39" transform="translate(63.623047 0)"/>
      </g>
     </g>
    </g>
    <g id="xtick_10">
     <g id="line2d_19">
      <g>
       <use xlink:href="#ma24f9baa4d" x="460.679843" y="215.8" style="stroke: #000000; stroke-width: 0.8"/>
      </g>
     </g>
     <g id="text_21">
      <!-- Jul -->
      <g transform="translate(454.647031 230.398438) scale(0.1 -0.1)">
       <defs>
        <path id="DejaVuSans-4a" d="M 628 4666 
L 1259 4666 
L 1259 325 
Q 1259 -519 939 -900 
Q 619 -1281 -91 -1281 
L -331 -1281 
L -331 -750 
L -134 -750 
Q 284 -750 456 -515 
Q 628 -281 628 325 
L 628 4666 
z
" transform="scale(0.015625)"/>
        <path id="DejaVuSans-6c" d="M 603 4863 
L 1178 4863 
L 1178 0 
L 603 0 
L 603 4863 
z
" transform="scale(0.015625)"/>
       </defs>
       <use xlink:href="#DejaVuSans-4a"/>
       <use xlink:href="#DejaVuSans-75" transform="translate(29.492188 0)"/>
       <use xlink:href="#DejaVuSans-6c" transform="translate(92.871094 0)"/>
      </g>
     </g>
    </g>
    <g id="xtick_11">
     <g id="line2d_20">
      <g>
       <use xlink:href="#ma24f9baa4d" x="489.612759" y="215.8" style="stroke: #000000; stroke-width: 0.8"/>
      </g>
     </g>
     <g id="text_22">
      <!-- 05 -->
      <g transform="translate(483.250259 230.398438) scale(0.1 -0.1)">
       <use xlink:href="#DejaVuSans-30"/>
       <use xlink:href="#DejaVuSans-35" transform="translate(63.623047 0)"/>
      </g>
     </g>
    </g>
    <g id="xtick_12">
     <g id="line2d_21">
      <g>
       <use xlink:href="#ma24f9baa4d" x="518.545674" y="215.8" style="stroke: #000000; stroke-width: 0.8"/>
      </g>
     </g>
     <g id="text_23">
      <!-- 09 -->
      <g transform="translate(512.183174 230.398438) scale(0.1 -0.1)">
       <use xlink:href="#DejaVuSans-30"/>
       <use xlink:href="#DejaVuSans-39" transform="translate(63.623047 0)"/>
      </g>
     </g>
    </g>
    <g id="xtick_13">
     <g id="line2d_22">
      <g>
       <use xlink:href="#ma24f9baa4d" x="547.478589" y="215.8" style="stroke: #000000; stroke-width: 0.8"/>
      </g>
     </g>
     <g id="text_24">
      <!-- 13 -->
      <g transform="translate(541.116089 230.398438) scale(0.1 -0.1)">
       <use xlink:href="#DejaVuSans-31"/>
       <use xlink:href="#DejaVuSans-33" transform="translate(63.623047 0)"/>
      </g>
     </g>
    </g>
    <g id="text_25">
     <!-- 2026-Jul -->
     <g transform="translate(523.514062 243.076562) scale(0.1 -0.1)">
      <defs>
       <path id="DejaVuSans-2d" d="M 313 2009 
L 1997 2009 
L 1997 1497 
L 313 1497 
L 313 2009 
z
" transform="scale(0.015625)"/>
      </defs>
      <use xlink:href="#DejaVuSans-32"/>
      <use xlink:href="#DejaVuSans-30" transform="translate(63.623047 0)"/>
      <use xlink:href="#DejaVuSans-32" transform="translate(127.246094 0)"/>
      <use xlink:href="#DejaVuSans-36" transform="translate(190.869141 0)"/>
      <use xlink:href="#DejaVuSans-2d" transform="translate(254.492188 0)"/>
      <use xlink:href="#DejaVuSans-4a" transform="translate(296.201172 0)"/>
      <use xlink:href="#DejaVuSans-75" transform="translate(325.693359 0)"/>
      <use xlink:href="#DejaVuSans-6c" transform="translate(389.072266 0)"/>
     </g>
    </g>
   </g>
   <g id="matplotlib.axis_4">
    <g id="ytick_6">
     <g id="line2d_23">
      <g>
       <use xlink:href="#me5fa53e8c6" x="334.46" y="207.278182" style="stroke: #000000; stroke-width: 0.8"/>
      </g>
     </g>
     <g id="text_26">
      <!-- 5.0 -->
      <g transform="translate(311.556875 211.077401) scale(0.1 -0.1)">
       <use xlink:href="#DejaVuSans-35"/>
       <use xlink:href="#DejaVuSans-2e" transform="translate(63.623047 0)"/>
       <use xlink:href="#DejaVuSans-30" transform="translate(95.410156 0)"/>
      </g>
     </g>
    </g>
    <g id="ytick_7">
     <g id="line2d_24">
      <g>
       <use xlink:href="#me5fa53e8c6" x="334.46" y="174.46077" style="stroke: #000000; stroke-width: 0.8"/>
      </g>
     </g>
     <g id="text_27">
      <!-- 5.5 -->
      <g transform="translate(311.556875 178.259989) scale(0.1 -0.1)">
       <use xlink:href="#DejaVuSans-35"/>
       <use xlink:href="#DejaVuSans-2e" transform="translate(63.623047 0)"/>
       <use xlink:href="#DejaVuSans-35" transform="translate(95.410156 0)"/>
      </g>
     </g>
    </g>
    <g id="ytick_8">
     <g id="line2d_25">
      <g>
       <use xlink:href="#me5fa53e8c6" x="334.46" y="141.643359" style="stroke: #000000; stroke-width: 0.8"/>
      </g>
     </g>
     <g id="text_28">
      <!-- 6.0 -->
      <g transform="translate(311.556875 145.442577) scale(0.1 -0.1)">
       <use xlink:href="#DejaVuSans-36"/>
       <use xlink:href="#DejaVuSans-2e" transform="translate(63.623047 0)"/>
       <use xlink:href="#DejaVuSans-30" transform="translate(95.410156 0)"/>
      </g>
     </g>
    </g>
    <g id="ytick_9">
     <g id="line2d_26">
      <g>
       <use xlink:href="#me5fa53e8c6" x="334.46" y="108.825947" style="stroke: #000000; stroke-width: 0.8"/>
      </g>
     </g>
     <g id="text_29">
      <!-- 6.5 -->
      <g transform="translate(311.556875 112.625166) scale(0.1 -0.1)">
       <use xlink:href="#DejaVuSans-36"/>
       <use xlink:href="#DejaVuSans-2e" transform="translate(63.623047 0)"/>
       <use xlink:href="#DejaVuSans-35" transform="translate(95.410156 0)"/>
      </g>
     </g>
    </g>
    <g id="ytick_10">
     <g id="line2d_27">
      <g>
       <use xlink:href="#me5fa53e8c6" x="334.46" y="76.008536" style="stroke: #000000; stroke-width: 0.8"/>
      </g>
     </g>
     <g id="text_30">
      <!-- 7.0 -->
      <g transform="translate(311.556875 79.807754) scale(0.1 -0.1)">
       <use xlink:href="#DejaVuSans-37"/>
       <use xlink:href="#DejaVuSans-2e" transform="translate(63.623047 0)"/>
       <use xlink:href="#DejaVuSans-30" transform="translate(95.410156 0)"/>
      </g>
     </g>
    </g>
    <g id="ytick_11">
     <g id="line2d_28">
      <g>
       <use xlink:href="#me5fa53e8c6" x="334.46" y="43.191124" style="stroke: #000000; stroke-width: 0.8"/>
      </g>
     </g>
     <g id="text_31">
      <!-- 7.5 -->
      <g transform="translate(311.556875 46.990343) scale(0.1 -0.1)">
       <use xlink:href="#DejaVuSans-37"/>
       <use xlink:href="#DejaVuSans-2e" transform="translate(63.623047 0)"/>
       <use xlink:href="#DejaVuSans-35" transform="translate(95.410156 0)"/>
      </g>
     </g>
    </g>
    <g id="text_32">
     <!-- level (m) -->
     <g transform="translate(305.477188 144.311563) rotate(-90) scale(0.1 -0.1)">
      <defs>
       <path id="DejaVuSans-76" d="M 191 3500 
L 800 3500 
L 1894 563 
L 2988 3500 
L 3597 3500 
L 2284 0 
L 1503 0 
L 191 3500 
z
" transform="scale(0.015625)"/>
      </defs>
      <use xlink:href="#DejaVuSans-6c"/>
      <use xlink:href="#DejaVuSans-65" transform="translate(27.783203 0)"/>
      <use xlink:href="#DejaVuSans-76" transform="translate(89.306641 0)"/>
      <use xlink:href="#DejaVuSans-65" transform="translate(148.486328 0)"/>
      <use xlink:href="#DejaVuSans-6c" transform="translate(210.009766 0)"/>
      <use xlink:href="#DejaVuSans-20" transform="translate(237.792969 0)"/>
      <use xlink:href="#DejaVuSans-28" transform="translate(269.580078 0)"/>
      <use xlink:href="#DejaVuSans-6d" transform="translate(308.59375 0)"/>
      <use xlink:href="#DejaVuSans-29" transform="translate(406.005859 0)"/>
     </g>
    </g>
   </g>
   <g id="line2d_29">
    <path d="M 344.948182 207.278182 
L 352.181411 189.543056 
L 359.414639 173.095803 
L 366.647868 159.091439 
L 373.881097 148.432976 
L 381.114326 141.678265 
L 388.347555 138.982448 
L 395.580784 140.081957 
L 402.814013 144.321703 
L 410.047241 150.722651 
L 417.28047 158.082819 
L 424.513699 165.101273 
L 431.746928 170.51233 
L 438.980157 173.216125 
L 446.213386 172.392069 
L 453.446614 167.583507 
L 460.679843 158.744818 
L 467.913072 146.246127 
L 475.146301 130.835122 
L 482.37953 113.559921 
L 489.612759 95.660951 
L 496.845987 78.442987 
L 504.079216 63.140551 
L 511.312445 50.790563 
L 518.545674 42.12537 
L 525.778903 37.497197 
L 533.012132 36.841818 
L 540.245361 39.685174 
L 547.478589 45.192282 
L 554.711818 52.253367 
" clip-path="url(#p79a9f254d3)" style="fill: none; stroke: #1f77b4; stroke-width: 1.5; stroke-linecap: square"/>
    <defs>
     <path id="m4d65efc0c8" d="M 0 1.5 
C 0.397805 1.5 0.77937 1.341951 1.06066 1.06066 
C 1.341951 0.77937 1.5 0.397805 1.5 0 
C 1.5 -0.397805 1.341951 -0.77937 1.06066 -1.06066 
C 0.77937 -1.341951 0.397805 -1.5 0 -1.5 
C -0.397805 -1.5 -0.77937 -1.341951 -1.06066 -1.06066 
C -1.341951 -0.77937 -1.5 -0.397805 -1.5 0 
C -1.5 0.397805 -1.341951 0.77937 -1.06066 1.06066 
C -0.77937 1.341951 -0.397805 1.5 0 1.5 
z
" style="stroke: #1f77b4"/>
    </defs>
    <g clip-path="url(#p79a9f254d3)">
     <use xlink:href="#m4d65efc0c8" x="344.948182" y="207.278182" style="fill: #1f77b4; stroke: #1f77b4"/>
     <use xlink:href="#m4d65efc0c8" x="352.181411" y="189.543056" style="fill: #1f77b4; stroke: #1f77b4"/>
     <use xlink:href="#m4d65efc0c8" x="359.414639" y="173.095803" style="fill: #1f77b4; stroke: #1f77b4"/>
     <use xlink:href="#m4d65efc0c8" x="366.647868" y="159.091439" style="fill: #1f77b4; stroke: #1f77b4"/>
     <use xlink:href="#m4d65efc0c8" x="373.881097" y="148.432976" style="fill: #1f77b4; stroke: #1f77b4"/>
     <use xlink:href="#m4d65efc0c8" x="381.114326" y="141.678265" style="fill: #1f77b4; stroke: #1f77b4"/>
     <use xlink:href="#m4d65efc0c8" x="388.347555" y="138.982448" style="fill: #1f77b4; stroke: #1f77b4"/>
     <use xlink:href="#m4d65efc0c8" x="395.580784" y="140.081957" style="fill: #1f77b4; stroke: #1f77b4"/>
     <use xlink:href="#m4d65efc0c8" x="402.814013" y="144.321703" style="fill: #1f77b4; stroke: #1f77b4"/>
     <use xlink:href="#m4d65efc0c8" x="410.047241" y="150.722651" style="fill: #1f77b4; stroke: #1f77b4"/>
     <use xlink:href="#m4d65efc0c8" x="417.28047" y="158.082819" style="fill: #1f77b4; stroke: #1f77b4"/>
     <use xlink:href="#m4d65efc0c8" x="424.513699" y="165.101273" style="fill: #1f77b4; stroke: #1f77b4"/>
     <use xlink:href="#m4d65efc0c8" x="431.746928" y="170.51233" style="fill: #1f77b4; stroke: #1f77b4"/>
     <use xlink:href="#m4d65efc0c8" x="438.980157" y="173.216125" style="fill: #1f77b4; stroke: #1f77b4"/>
     <use xlink:href="#m4d65efc0c8" x="446.213386" y="172.392069" style="fill: #1f77b4; stroke: #1f77b4"/>
     <use xlink:href="#m4d65efc0c8" x="453.446614" y="167.583507" style="fill: #1f77b4; stroke: #1f77b4"/>
     <use xlink:href="#m4d65efc0c8" x="460.679843" y="158.744818" style="fill: #1f77b4; stroke: #1f77b4"/>
     <use xlink:href="#m4d65efc0c8" x="467.913072" y="146.246127" style="fill: #1f77b4; stroke: #1f77b4"/>
     <use xlink:href="#m4d65efc0c8" x="475.146301" y="130.835122" style="fill: #1f77b4; stroke: #1f77b4"/>
     <use xlink:href="#m4d65efc0c8" x="482.37953" y="113.559921" style="fill: #1f77b4; stroke: #1f77b4"/>
     <use xlink:href="#m4d65efc0c8" x="489.612759" y="95.660951" style="fill: #1f77b4; stroke: #1f77b4"/>
     <use xlink:href="#m4d65efc0c8" x="496.845987" y="78.442987" style="fill: #1f77b4; stroke: #1f77b4"/>
     <use xlink:href="#m4d65efc0c8" x="504.079216" y="63.140551" style="fill: #1f77b4; stroke: #1f77b4"/>
     <use xlink:href="#m4d65efc0c8" x="511.312445" y="50.790563" style="fill: #1f77b4; stroke: #1f77b4"/>
     <use xlink:href="#m4d65efc0c8" x="518.545674" y="42.12537" style="fill: #1f77b4; stroke: #1f77b4"/>
     <use xlink:href="#m4d65efc0c8" x="525.778903" y="37.497197" style="fill: #1f77b4; stroke: #1f77b4"/>
     <use xlink:href="#m4d65efc0c8" x="533.012132" y="36.841818" style="fill: #1f77b4; stroke: #1f77b4"/>
     <use xlink:href="#m4d65efc0c8" x="540.245361" y="39.685174" style="fill: #1f77b4; stroke: #1f77b4"/>
     <use xlink:href="#m4d65efc0c8" x="547.478589" y="45.192282" style="fill: #1f77b4; stroke: #1f77b4"/>
     <use xlink:href="#m4d65efc0c8" x="554.711818" y="52.253367" style="fill: #1f77b4; stroke: #1f77b4"/>
    </g>
   </g>
   <g id="patch_10">
    <path d="M 334.46 215.8 
L 334.46 28.32 
" style="fill: none; stroke: #000000; stroke-width: 0.8; stroke-linejoin: miter; stroke-linecap: square"/>
   </g>
   <g id="patch_11">
    <path d="M 565.2 215.8 
L 565.2 28.32 
" style="fill: none; stroke: #000000; stroke-width: 0.8; stroke-linejoin: miter; stroke-linecap: square"/>
   </g>
   <g id="patch_12">
    <path d="M 334.46 215.8 
L 565.2 215.8 
" style="fill: none; stroke: #000000; stroke-width: 0.8; stroke-linejoin: miter; stroke-linecap: square"/>
   </g>
   <g id="patch_13">
    <path d="M 334.46 28.32 
L 565.2 28.32 
" style="fill: none; stroke: #000000; stroke-width: 0.8; stroke-linejoin: miter; stroke-linecap: square"/>
   </g>
   <g id="text_33">
    <!-- field data, $\sigma &lt; 0.5$ -->
    <g transform="translate(396.91 22.32) scale(0.12 -0.12)">
     <defs>
      <path id="DejaVuSans-66" d="M 2375 4863 
L 2375 4384 
L 1825 4384 
Q 1516 4384 1395 4259 
Q 1275 4134 1275 3809 
L 1275 3500 
L 2222 3500 
L 2222 3053 
L 1275 3053 
L 1275 0 
L 697 0 
L 697 3053 
L 147 3053 
L 147 3500 
L 697 3500 
L 697 3744 
Q 697 4328 969 4595 
Q 1241 4863 1831 4863 
L 2375 4863 
z
" transform="scale(0.015625)"/>
      <path id="DejaVuSans-74" d="M 1172 4494 
L 1172 3500 
L 2356 3500 
L 2356 3053 
L 1172 3053 
L 1172 1153 
Q 1172 725 1289 603 
Q 1406 481 1766 481 
L 2356 481 
L 2356 0 
L 1766 0 
Q 1100 0 847 248 
Q 594 497 594 1153 
L 594 3053 
L 172 3053 
L 172 3500 
L 594 3500 
L 594 4494 
L 1172 4494 
z
" transform="scale(0.015625)"/>
      <path id="DejaVuSans-2c" d="M 750 794 
L 1409 794 
L 1409 256 
L 897 -744 
L 494 -744 
L 750 256 
L 750 794 
z
" transform="scale(0.015625)"/>
      <path id="DejaVuSans-Oblique-3c3" d="M 2219 3044 
Q 1744 3044 1422 2700 
Q 1081 2341 969 1747 
Q 844 1119 1044 756 
Q 1241 397 1706 397 
Q 2166 397 2503 759 
Q 2844 1122 2966 1747 
Q 3075 2319 2881 2700 
Q 2700 3044 2219 3044 
z
M 2309 3503 
L 4219 3500 
L 4106 2925 
L 3463 2925 
Q 3706 2438 3575 1747 
Q 3406 888 2884 400 
Q 2359 -91 1609 -91 
Q 856 -91 525 400 
Q 194 888 363 1747 
Q 528 2609 1050 3097 
Q 1484 3503 2309 3503 
z
" transform="scale(0.015625)"/>
      <path id="DejaVuSans-3c" d="M 4684 3150 
L 1459 2003 
L 4684 863 
L 4684 294 
L 678 1747 
L 678 2266 
L 4684 3719 
L 4684 3150 
z
" transform="scale(0.015625)"/>
     </defs>
     <use xlink:href="#DejaVuSans-66" transform="translate(0 0.015625)"/>
     <use xlink:href="#DejaVuSans-69" transform="translate(35.205078 0.015625)"/>
     <use xlink:href="#DejaVuSans-65" transform="translate(62.988281 0.015625)"/>
     <use xlink:href="#DejaVuSans-6c" transform="translate(124.511719 0.015625)"/>
     <use xlink:href="#DejaVuSans-64" transform="translate(152.294922 0.015625)"/>
     <use xlink:href="#DejaVuSans-20" transform="translate(215.771484 0.015625)"/>
     <use xlink:href="#DejaVuSans-64" transform="translate(247.558594 0.015625)"/>
     <use xlink:href="#DejaVuSans-61" transform="translate(311.035156 0.015625)"/>
     <use xlink:href="#DejaVuSans-74" transform="translate(372.314453 0.015625)"/>
     <use xlink:href="#DejaVuSans-61" transform="translate(411.523438 0.015625)"/>
     <use xlink:href="#DejaVuSans-2c" transform="translate(472.802734 0.015625)"/>
     <use xlink:href="#DejaVuSans-20" transform="translate(504.589844 0.015625)"/>
     <use xlink:href="#DejaVuSans-Oblique-3c3" transform="translate(536.376953 0.015625)"/>
     <use xlink:href="#DejaVuSans-3c" transform="translate(619.238281 0.015625)"/>
     <use xlink:href="#DejaVuSans-30" transform="translate(722.509766 0.015625)"/>
     <use xlink:href="#DejaVuSans-2e" transform="translate(786.132812 0.015625)"/>
     <use xlink:href="#DejaVuSans-35" transform="translate(817.919922 0.015625)"/>
    </g>
   </g>
   <g id="legend_2">
    <g id="patch_14">
     <path d="M 341.46 52.018438 
L 396.96 52.018438 
Q 398.96 52.018438 398.96 50.018438 
L 398.96 35.32 
Q 398.96 33.32 396.96 33.32 
L 341.46 33.32 
Q 339.46 33.32 339.46 35.32 
L 339.46 50.018438 
Q 339.46 52.018438 341.46 52.018438 
z
" style="fill: #ffffff; opacity: 0.8; stroke: #cccccc; stroke-linejoin: miter"/>
    </g>
    <g id="line2d_30">
     <path d="M 343.46 41.418438 
L 353.46 41.418438 
L 363.46 41.418438 
" style="fill: none; stroke: #1f77b4; stroke-width: 1.5; stroke-linecap: square"/>
     <g>
      <use xlink:href="#m4d65efc0c8" x="353.46" y="41.418438" style="fill: #1f77b4; stroke: #1f77b4"/>
     </g>
    </g>
    <g id="text_34">
     <!-- $\mu_{daily}$ -->
     <g transform="translate(371.46 44.918438) scale(0.1 -0.1)">
      <defs>
       <path id="DejaVuSans-Oblique-3bc" d="M -84 -1331 
L 856 3500 
L 1434 3500 
L 1009 1322 
Q 997 1256 987 1175 
Q 978 1094 978 1013 
Q 978 722 1161 565 
Q 1344 409 1684 409 
Q 2147 409 2431 671 
Q 2716 934 2816 1459 
L 3213 3500 
L 3788 3500 
L 3266 809 
Q 3253 750 3248 706 
Q 3244 663 3244 628 
Q 3244 531 3283 486 
Q 3322 441 3406 441 
Q 3438 441 3492 456 
Q 3547 472 3647 513 
L 3559 50 
Q 3422 -19 3297 -55 
Q 3172 -91 3053 -91 
Q 2847 -91 2730 40 
Q 2613 172 2613 403 
Q 2438 153 2195 31 
Q 1953 -91 1625 -91 
Q 1334 -91 1117 43 
Q 900 178 831 397 
L 494 -1331 
L -84 -1331 
z
" transform="scale(0.015625)"/>
       <path id="DejaVuSans-Oblique-64" d="M 2675 525 
Q 2444 222 2128 65 
Q 1813 -91 1428 -91 
Q 903 -91 598 267 
Q 294 625 294 1247 
Q 294 1766 478 2236 
Q 663 2706 1013 3078 
Q 1244 3325 1534 3454 
Q 1825 3584 2144 3584 
Q 2481 3584 2739 3421 
Q 2997 3259 3138 2956 
L 3513 4863 
L 4091 4863 
L 3144 0 
L 2566 0 
L 2675 525 
z
M 891 1350 
Q 891 897 1095 644 
Q 1300 391 1663 391 
Q 1931 391 2161 520 
Q 2391 650 2566 903 
Q 2750 1166 2856 1509 
Q 2963 1853 2963 2188 
Q 2963 2622 2758 2865 
Q 2553 3109 2194 3109 
Q 1922 3109 1687 2981 
Q 1453 2853 1288 2613 
Q 1106 2353 998 2009 
Q 891 1666 891 1350 
z
" transform="scale(0.015625)"/>
       <path id="DejaVuSans-Oblique-61" d="M 3438 1997 
L 3047 0 
L 2472 0 
L 2578 531 
Q 2325 219 2001 64 
Q 1678 -91 1281 -91 
Q 834 -91 548 182 
Q 263 456 263 884 
Q 263 1497 752 1853 
Q 1241 2209 2100 2209 
L 2900 2209 
L 2931 2363 
Q 2938 2388 2941 2417 
Q 2944 2447 2944 2509 
Q 2944 2788 2717 2942 
Q 2491 3097 2081 3097 
Q 1800 3097 1504 3025 
Q 1209 2953 897 2809 
L 997 3341 
Q 1322 3463 1633 3523 
Q 1944 3584 2234 3584 
Q 2853 3584 3176 3315 
Q 3500 3047 3500 2534 
Q 3500 2431 3484 2292 
Q 3469 2153 3438 1997 
z
M 2816 1759 
L 2241 1759 
Q 1534 1759 1195 1570 
Q 856 1381 856 984 
Q 856 709 1029 553 
Q 1203 397 1509 397 
Q 1978 397 2328 733 
Q 2678 1069 2791 1631 
L 2816 1759 
z
" transform="scale(0.015625)"/>
       <path id="DejaVuSans-Oblique-69" d="M 1172 4863 
L 1747 4863 
L 1606 4134 
L 1031 4134 
L 1172 4863 
z
M 909 3500 
L 1484 3500 
L 800 0 
L 225 0 
L 909 3500 
z
" transform="scale(0.015625)"/>
       <path id="DejaVuSans-Oblique-6c" d="M 1172 4863 
L 1747 4863 
L 800 0 
L 225 0 
L 1172 4863 
z
" transform="scale(0.015625)"/>
       <path id="DejaVuSans-Oblique-79" d="M 1588 -325 
Q 1188 -997 936 -1164 
Q 684 -1331 294 -1331 
L -159 -1331 
L -63 -850 
L 269 -850 
Q 509 -850 678 -719 
Q 847 -588 1056 -206 
L 1234 128 
L 459 3500 
L 1069 3500 
L 1650 819 
L 3256 3500 
L 3859 3500 
L 1588 -325 
z
" transform="scale(0.015625)"/>
      </defs>
      <use xlink:href="#DejaVuSans-Oblique-3bc" transform="translate(0 0.3125)"/>
      <use xlink:href="#DejaVuSans-Oblique-64" transform="translate(63.623047 -16.09375) scale(0.7)"/>
      <use xlink:href="#DejaVuSans-Oblique-61" transform="translate(108.056641 -16.09375) scale(0.7)"/>
      <use xlink:href="#DejaVuSans-Oblique-69" transform="translate(150.952148 -16.09375) scale(0.7)"/>
      <use xlink:href="#DejaVuSans-Oblique-6c" transform="translate(170.400391 -16.09375) scale(0.7)"/>
      <use xlink:href="#DejaVuSans-Oblique-79" transform="translate(189.848633 -16.09375) scale(0.7)"/>
     </g>
    </g>
   </g>
  </g>
 </g>
 <defs>
  <clipPath id="p9162014c3a">
   <rect x="56" y="28.32" width="230.74" height="187.48"/>
  </clipPath>
  <clipPath id="p79a9f254d3">
   <rect x="334.46" y="28.32" width="230.74" height="187.48"/>
  </clipPath>
 </defs>
</svg>
