<?xml version="1.0" encoding="utf-8" standalone="no"?>
<!DOCTYPE svg PUBLIC "-//W3C//DTD SVG 1.1//EN"
  "http://www.w3.org/Graphics/SVG/1.1/DTD/svg11.dtd">
<svg xmlns:xlink="http://www.w3.org/1999/xlink" width="460.8pt" height="345.6pt" viewBox="0 0 460.8 345.6" xmlns="http://www.w3.org/2000/svg" version="1.1">
 <metadata>
  <rdf:RDF xmlns:dc="http://purl.org/dc/elements/1.1/" xmlns:cc="http://creativecommons.org/ns#" xmlns:rdf="http://www.w3.org/1999/02/22-rdf-syntax-ns#">
   <cc:Work>
    <dc:type rdf:resource="http://purl.org/dc/dcmitype/StillImage"/>
    <dc:format>image/svg+xml</dc:format>
    <dc:creator>
     <cc:Agent>
      <dc:title>Matplotlib v3.10.8, https://matplotlib.org/</dc:title>
     </cc:Agent>
    </dc:creator>
   </cc:Work>
  </rdf:RDF>
 </metadata>
 <defs>
  <style type="text/css">*{stroke-linejoin: round; stroke-linecap: butt}</style>
 </defs>
 <g id="figure_1">
  <g id="patch_1">
   <path d="M 0 345.6 
L 460.8 345.6 
L 460.8 0 
L 0 0 
z
" style="fill: #ffffff"/>
  </g>
  <g id="axes_1">
   <g id="patch_2">
    <path d="M 57.6 307.584 
L 414.72 307.584 
L 414.72 41.472 
L 57.6 41.472 
z
" style="fill: #ffffff"/>
   </g>
   <g id="PathCollection_1">
    <path d="M 255.992406 168.696074 
C 256.390211 168.696074 256.771776 168.538025 257.053066 168.256734 
C 257.334357 167.975444 257.492406 167.593879 257.492406 167.196074 
C 257.492406 166.798269 257.334357 166.416704 257.053066 166.135414 
C 256.771776 165.854124 256.390211 165.696074 255.992406 165.696074 
C 255.594602 165.696074 255.213036 165.854124 254.931746 166.135414 
C 254.650456 166.416704 254.492406 166.798269 254.492406 167.196074 
C 254.492406 167.593879 254.650456 167.975444 254.931746 168.256734 
C 255.213036 168.538025 255.594602 168.696074 255.992406 168.696074 
z
" clip-path="url(#p97b36d5fdd)" style="fill: #1f77b4; stroke: #1f77b4"/>
    <path d="M 258.766053 168.036203 
C 259.215726 168.036203 259.647043 167.857546 259.965011 167.539579 
C 260.282978 167.221611 260.461635 166.790295 260.461635 166.340621 
C 260.461635 165.890947 260.282978 165.45963 259.965011 165.141663 
C 259.647043 164.823696 259.215726 164.645038 258.766053 164.645038 
C 258.316379 164.645038 257.885062 164.823696 257.567095 165.141663 
C 257.249127 165.45963 257.07047 165.890947 257.07047 166.340621 
C 257.07047 166.790295 257.249127 167.221611 257.567095 167.539579 
C 257.885062 167.857546 258.316379 168.036203 258.766053 168.036203 
z
" clip-path="url(#p97b36d5fdd)" style="fill: #1f77b4; stroke: #1f77b4"/>
    <path d="M 260.215796 165.909899 
C 260.711946 165.909899 261.187841 165.712777 261.538672 165.361946 
C 261.889502 165.011116 262.086625 164.53522 262.086625 164.039071 
C 262.086625 163.542921 261.889502 163.067026 261.538672 162.716195 
C 261.187841 162.365364 260.711946 162.168242 260.215796 162.168242 
C 259.719646 162.168242 259.243751 162.365364 258.89292 162.716195 
C 258.54209 163.067026 258.344967 163.542921 258.344967 164.039071 
C 258.344967 164.53522 258.54209 165.011116 258.89292 165.361946 
C 259.243751 165.712777 259.719646 165.909899 260.215796 165.909899 
z
" clip-path="url(#p97b36d5fdd)" style="fill: #1f77b4; stroke: #1f77b4"/>
    <path d="M 259.361109 163.055382 
C 259.899739 163.055382 260.41638 162.841382 260.797249 162.460513 
C 261.178118 162.079645 261.392118 161.563003 261.392118 161.024373 
C 261.392118 160.485743 261.178118 159.969101 260.797249 159.588232 
C 260.41638 159.207363 259.899739 158.993363 259.361109 158.993363 
C 258.822479 158.993363 258.305837 159.207363 257.924968 159.588232 
C 257.544099 159.969101 257.330099 160.485743 257.330099 161.024373 
C 257.330099 161.563003 257.544099 162.079645 257.924968 162.460513 
C 258.305837 162.841382 258.822479 163.055382 259.361109 163.055382 
z
" clip-path="url(#p97b36d5fdd)" style="fill: #1f77b4; stroke: #1f77b4"/>
    <path d="M 255.833634 160.505314 
C 256.411631 160.505314 256.966032 160.275673 257.374738 159.866968 
C 257.783443 159.458262 258.013084 158.903861 258.013084 158.325864 
C 258.013084 157.747867 257.783443 157.193466 257.374738 156.784761 
C 256.966032 156.376055 256.411631 156.146415 255.833634 156.146415 
C 255.255637 156.146415 254.701236 156.376055 254.292531 156.784761 
C 253.883825 157.193466 253.654185 157.747867 253.654185 158.325864 
C 253.654185 158.903861 253.883825 159.458262 254.292531 159.866968 
C 254.701236 160.275673 255.255637 160.505314 255.833634 160.505314 
z
" clip-path="url(#p97b36d5fdd)" style="fill: #1f77b4; stroke: #1f77b4"/>
    <path d="M 250.01169 159.341258 
C 250.626538 159.341258 251.216286 159.096976 251.65105 158.662213 
C 252.085813 158.22745 252.330095 157.637701 252.330095 157.022853 
C 252.330095 156.408005 252.085813 155.818257 251.65105 155.383494 
C 251.216286 154.94873 250.626538 154.704449 250.01169 154.704449 
C 249.396842 154.704449 248.807094 154.94873 248.37233 155.383494 
C 247.937567 155.818257 247.693285 156.408005 247.693285 157.022853 
C 247.693285 157.637701 247.937567 158.22745 248.37233 158.662213 
C 248.807094 159.096976 249.396842 159.341258 250.01169 159.341258 
z
" clip-path="url(#p97b36d5fdd)" style="fill: #1f77b4; stroke: #1f77b4"/>
    <path d="M 242.987661 160.42465 
C 243.637273 160.42465 244.260367 160.166557 244.719712 159.707211 
C 245.179057 159.247866 245.437151 158.624773 245.437151 157.975161 
C 245.437151 157.325548 245.179057 156.702455 244.719712 156.24311 
C 244.260367 155.783765 243.637273 155.525671 242.987661 155.525671 
C 242.338049 155.525671 241.714955 155.783765 241.25561 156.24311 
C 240.796265 156.702455 240.538171 157.325548 240.538171 157.975161 
C 240.538171 158.624773 240.796265 159.247866 241.25561 159.707211 
C 241.714955 160.166557 242.338049 160.42465 242.987661 160.42465 
z
" clip-path="url(#p97b36d5fdd)" style="fill: #1f77b4; stroke: #1f77b4"/>
    <path d="M 236.369318 164.16208 
C 237.051926 164.16208 237.706668 163.890877 238.189345 163.4082 
C 238.672022 162.925523 238.943225 162.270781 238.943225 161.588173 
C 238.943225 160.905564 238.672022 160.250822 238.189345 159.768145 
C 237.706668 159.285468 237.051926 159.014265 236.369318 159.014265 
C 235.68671 159.014265 235.031967 159.285468 234.54929 159.768145 
C 234.066613 160.250822 233.79541 160.905564 233.79541 161.588173 
C 233.79541 162.270781 234.066613 162.925523 234.54929 163.4082 
C 235.031967 163.890877 235.68671 164.16208 236.369318 164.16208 
z
" clip-path="url(#p97b36d5fdd)" style="fill: #1f77b4; stroke: #1f77b4"/>
    <path d="M 231.950391 170.35712 
C 232.664472 170.35712 233.349403 170.073413 233.854334 169.568481 
C 234.359266 169.06355 234.642974 168.378619 234.642974 167.664538 
C 234.642974 166.950457 234.359266 166.265526 233.854334 165.760595 
C 233.349403 165.255663 232.664472 164.971956 231.950391 164.971956 
C 231.23631 164.971956 230.55138 165.255663 230.046448 165.760595 
C 229.541516 166.265526 229.257809 166.950457 229.257809 167.664538 
C 229.257809 168.378619 229.541516 169.06355 230.046448 169.568481 
C 230.55138 170.073413 231.23631 170.35712 231.950391 170.35712 
z
" clip-path="url(#p97b36d5fdd)" style="fill: #1f77b4; stroke: #1f77b4"/>
    <path d="M 231.313863 178.184949 
C 232.058088 178.184949 232.771931 177.889265 233.298177 177.363019 
C 233.824423 176.836773 234.120106 176.12293 234.120106 175.378706 
C 234.120106 174.634481 233.824423 173.920638 233.298177 173.394392 
C 232.771931 172.868146 232.058088 172.572463 231.313863 172.572463 
C 230.569639 172.572463 229.855796 172.868146 229.32955 173.394392 
C 228.803304 173.920638 228.50762 174.634481 228.50762 175.378706 
C 228.50762 176.12293 228.803304 176.836773 229.32955 177.363019 
C 229.855796 177.889265 230.569639 178.184949 231.313863 178.184949 
z
" clip-path="url(#p97b36d5fdd)" style="fill: #1f77b4; stroke: #1f77b4"/>
    <path d="M 235.447809 186.302389 
C 236.221002 186.302389 236.962631 185.995196 237.509361 185.448466 
C 238.056092 184.901735 238.363285 184.160106 238.363285 183.386913 
C 238.363285 182.61372 238.056092 181.87209 237.509361 181.32536 
C 236.962631 180.77863 236.221002 180.471437 235.447809 180.471437 
C 234.674615 180.471437 233.932986 180.77863 233.386256 181.32536 
C 232.839526 181.87209 232.532333 182.61372 232.532333 183.386913 
C 232.532333 184.160106 232.839526 184.901735 233.386256 185.448466 
C 233.932986 185.995196 234.674615 186.302389 235.447809 186.302389 
z
" clip-path="url(#p97b36d5fdd)" style="fill: #1f77b4; stroke: #1f77b4"/>
    <path d="M 244.454779 193.079113 
C 245.255894 193.079113 246.024305 192.760826 246.59078 192.194352 
C 247.157254 191.627878 247.47554 190.859467 247.47554 190.058351 
C 247.47554 189.257236 247.157254 188.488825 246.59078 187.92235 
C 246.024305 187.355876 245.255894 187.03759 244.454779 187.03759 
C 243.653663 187.03759 242.885252 187.355876 242.318778 187.92235 
C 241.752304 188.488825 241.434017 189.257236 241.434017 190.058351 
C 241.434017 190.859467 241.752304 191.627878 242.318778 192.194352 
C 242.885252 192.760826 243.653663 193.079113 244.454779 193.079113 
z
" clip-path="url(#p97b36d5fdd)" style="fill: #1f77b4; stroke: #1f77b4"/>
    <path d="M 257.421024 196.910647 
C 258.24912 196.910647 259.043412 196.581641 259.628964 195.996088 
C 260.214517 195.410536 260.543523 194.616245 260.543523 193.788148 
C 260.543523 192.960052 260.214517 192.165761 259.628964 191.580208 
C 259.043412 190.994655 258.24912 190.665649 257.421024 190.665649 
C 256.592928 190.665649 255.798636 190.994655 255.213084 191.580208 
C 254.627531 192.165761 254.298525 192.960052 254.298525 193.788148 
C 254.298525 194.616245 254.627531 195.410536 255.213084 195.996088 
C 255.798636 196.581641 256.592928 196.910647 257.421024 196.910647 
z
" clip-path="url(#p97b36d5fdd)" style="fill: #1f77b4; stroke: #1f77b4"/>
    <path d="M 272.483578 196.555364 
C 273.337804 196.555364 274.157158 196.215977 274.761187 195.611948 
C 275.365216 195.007919 275.704603 194.188565 275.704603 193.33434 
C 275.704603 192.480114 275.365216 191.66076 274.761187 191.056731 
C 274.157158 190.452702 273.337804 190.113315 272.483578 190.113315 
C 271.629353 190.113315 270.809999 190.452702 270.20597 191.056731 
C 269.601941 191.66076 269.262554 192.480114 269.262554 193.33434 
C 269.262554 194.188565 269.601941 195.007919 270.20597 195.611948 
C 270.809999 196.215977 271.629353 196.555364 272.483578 196.555364 
z
" clip-path="url(#p97b36d5fdd)" style="fill: #1f77b4; stroke: #1f77b4"/>
    <path d="M 287.096329 191.429601 
C 287.975909 191.429601 288.819581 191.080141 289.441537 190.458184 
C 290.063494 189.836228 290.412954 188.992555 290.412954 188.112976 
C 290.412954 187.233397 290.063494 186.389725 289.441537 185.767768 
C 288.819581 185.145812 287.975909 184.796351 287.096329 184.796351 
C 286.21675 184.796351 285.373078 185.145812 284.751122 185.767768 
C 284.129165 186.389725 283.779705 187.233397 283.779705 188.112976 
C 283.779705 188.992555 284.129165 189.836228 284.751122 190.458184 
C 285.373078 191.080141 286.21675 191.429601 287.096329 191.429601 
z
" clip-path="url(#p97b36d5fdd)" style="fill: #1f77b4; stroke: #1f77b4"/>
    <path d="M 298.457339 181.799304 
C 299.361561 181.799304 300.228871 181.440053 300.868252 180.800671 
C 301.507634 180.16129 301.866885 179.293981 301.866885 178.389759 
C 301.866885 177.485537 301.507634 176.618228 300.868252 175.978846 
C 300.228871 175.339465 299.361561 174.980213 298.457339 174.980213 
C 297.553117 174.980213 296.685808 175.339465 296.046427 175.978846 
C 295.407045 176.618228 295.047794 177.485537 295.047794 178.389759 
C 295.047794 179.293981 295.407045 180.16129 296.046427 180.800671 
C 296.685808 181.440053 297.553117 181.799304 298.457339 181.799304 
z
" clip-path="url(#p97b36d5fdd)" style="fill: #1f77b4; stroke: #1f77b4"/>
    <path d="M 304.026137 168.822872 
C 304.954347 168.822872 305.844666 168.45409 306.50101 167.797746 
C 307.157354 167.141402 307.526137 166.251083 307.526137 165.322872 
C 307.526137 164.394661 307.157354 163.504343 306.50101 162.847999 
C 305.844666 162.191654 304.954347 161.822872 304.026137 161.822872 
C 303.097926 161.822872 302.207607 162.191654 301.551263 162.847999 
C 300.894919 163.504343 300.526137 164.394661 300.526137 165.322872 
C 300.526137 166.251083 300.894919 167.141402 301.551263 167.797746 
C 302.207607 168.45409 303.097926 168.822872 304.026137 168.822872 
z
" clip-path="url(#p97b36d5fdd)" style="fill: #1f77b4; stroke: #1f77b4"/>
    <path d="M 302.037964 154.425569 
C 302.989559 154.425569 303.902307 154.047496 304.575187 153.374617 
C 305.248066 152.701738 305.626139 151.788989 305.626139 150.837394 
C 305.626139 149.885799 305.248066 148.973051 304.575187 148.300171 
C 303.902307 147.627292 302.989559 147.249219 302.037964 147.249219 
C 301.086369 147.249219 300.17362 147.627292 299.500741 148.300171 
C 298.827862 148.973051 298.449789 149.885799 298.449789 150.837394 
C 298.449789 151.788989 298.827862 152.701738 299.500741 153.374617 
C 300.17362 154.047496 301.086369 154.425569 302.037964 154.425569 
z
" clip-path="url(#p97b36d5fdd)" style="fill: #1f77b4; stroke: #1f77b4"/>
    <path d="M 291.916663 141.016643 
C 292.891081 141.016643 293.825721 140.629502 294.514739 139.940484 
C 295.203757 139.251467 295.590897 138.316827 295.590897 137.342408 
C 295.590897 136.36799 295.203757 135.43335 294.514739 134.744332 
C 293.825721 134.055314 292.891081 133.668174 291.916663 133.668174 
C 290.942244 133.668174 290.007605 134.055314 289.318587 134.744332 
C 288.629569 135.43335 288.242428 136.36799 288.242428 137.342408 
C 288.242428 138.316827 288.629569 139.251467 289.318587 139.940484 
C 290.007605 140.629502 290.942244 141.016643 291.916663 141.016643 
z
" clip-path="url(#p97b36d5fdd)" style="fill: #1f77b4; stroke: #1f77b4"/>
    <path d="M 274.500655 131.0906 
C 275.497374 131.0906 276.453404 130.694599 277.158191 129.989812 
C 277.862978 129.285026 278.258979 128.328995 278.258979 127.332276 
C 278.258979 126.335557 277.862978 125.379526 277.158191 124.67474 
C 276.453404 123.969953 275.497374 123.573952 274.500655 123.573952 
C 273.503935 123.573952 272.547905 123.969953 271.843118 124.67474 
C 271.138331 125.379526 270.742331 126.335557 270.742331 127.332276 
C 270.742331 128.328995 271.138331 129.285026 271.843118 129.989812 
C 272.547905 130.694599 273.503935 131.0906 274.500655 131.0906 
z
" clip-path="url(#p97b36d5fdd)" style="fill: #1f77b4; stroke: #1f77b4"/>
    <path d="M 252.025869 126.778355 
C 253.044401 126.778355 254.021353 126.373688 254.741564 125.653477 
C 255.461775 124.933266 255.866442 123.956314 255.866442 122.937782 
C 255.866442 121.91925 255.461775 120.942297 254.741564 120.222087 
C 254.021353 119.501876 253.044401 119.097209 252.025869 119.097209 
C 251.007337 119.097209 250.030384 119.501876 249.310174 120.222087 
C 248.589963 120.942297 248.185296 121.91925 248.185296 122.937782 
C 248.185296 123.956314 248.589963 124.933266 249.310174 125.653477 
C 250.030384 126.373688 251.007337 126.778355 252.025869 126.778355 
z
" clip-path="url(#p97b36d5fdd)" style="fill: #1f77b4; stroke: #1f77b4"/>
    <path d="M 227.850819 129.427437 
C 228.890706 129.427437 229.888142 129.014286 230.623453 128.278975 
C 231.358765 127.543663 231.771916 126.546228 231.771916 125.506341 
C 231.771916 124.466454 231.358765 123.469018 230.623453 122.733706 
C 229.888142 121.998395 228.890706 121.585244 227.850819 121.585244 
C 226.810932 121.585244 225.813496 121.998395 225.078185 122.733706 
C 224.342874 123.469018 223.929723 124.466454 223.929723 125.506341 
C 223.929723 126.546228 224.342874 127.543663 225.078185 128.278975 
C 225.813496 129.014286 226.810932 129.427437 227.850819 129.427437 
z
" clip-path="url(#p97b36d5fdd)" style="fill: #1f77b4; stroke: #1f77b4"/>
    <path d="M 205.955368 139.290175 
C 207.01618 139.290175 208.033687 138.86871 208.783795 138.118602 
C 209.533903 137.368494 209.955368 136.350987 209.955368 135.290175 
C 209.955368 134.229362 209.533903 133.211855 208.783795 132.461748 
C 208.033687 131.71164 207.01618 131.290175 205.955368 131.290175 
C 204.894555 131.290175 203.877048 131.71164 203.126941 132.461748 
C 202.376833 133.211855 201.955368 134.229362 201.955368 135.290175 
C 201.955368 136.350987 202.376833 137.368494 203.126941 138.118602 
C 203.877048 138.86871 204.894555 139.290175 205.955368 139.290175 
z
" clip-path="url(#p97b36d5fdd)" style="fill: #1f77b4; stroke: #1f77b4"/>
    <path d="M 190.287877 155.384081 
C 191.36921 155.384081 192.406399 154.954463 193.171017 154.189845 
C 193.935635 153.425228 194.365253 152.388038 194.365253 151.306705 
C 194.365253 150.225372 193.935635 149.188182 193.171017 148.423564 
C 192.406399 147.658946 191.36921 147.229328 190.287877 147.229328 
C 189.206544 147.229328 188.169354 147.658946 187.404736 148.423564 
C 186.640118 149.188182 186.2105 150.225372 186.2105 151.306705 
C 186.2105 152.388038 186.640118 153.425228 187.404736 154.189845 
C 188.169354 154.954463 189.206544 155.384081 190.287877 155.384081 
z
" clip-path="url(#p97b36d5fdd)" style="fill: #1f77b4; stroke: #1f77b4"/>
    <path d="M 184.067502 175.561641 
C 185.168973 175.561641 186.225479 175.124022 187.004337 174.345164 
C 187.783195 173.566306 188.220814 172.5098 188.220814 171.408329 
C 188.220814 170.306858 187.783195 169.250352 187.004337 168.471494 
C 186.225479 167.692636 185.168973 167.255017 184.067502 167.255017 
C 182.966031 167.255017 181.909525 167.692636 181.130667 168.471494 
C 180.351809 169.250352 179.91419 170.306858 179.91419 171.408329 
C 179.91419 172.5098 180.351809 173.566306 181.130667 174.345164 
C 181.909525 175.124022 182.966031 175.561641 184.067502 175.561641 
z
" clip-path="url(#p97b36d5fdd)" style="fill: #1f77b4; stroke: #1f77b4"/>
    <path d="M 189.163021 196.791415 
C 190.284269 196.791415 191.359745 196.345939 192.152586 195.553097 
C 192.945428 194.760255 193.390905 193.68478 193.390905 192.563532 
C 193.390905 191.442284 192.945428 190.366809 192.152586 189.573967 
C 191.359745 188.781125 190.284269 188.335648 189.163021 188.335648 
C 188.041773 188.335648 186.966298 188.781125 186.173456 189.573967 
C 185.380614 190.366809 184.935138 191.442284 184.935138 192.563532 
C 184.935138 193.68478 185.380614 194.760255 186.173456 195.553097 
C 186.966298 196.345939 188.041773 196.791415 189.163021 196.791415 
z
" clip-path="url(#p97b36d5fdd)" style="fill: #1f77b4; stroke: #1f77b4"/>
    <path d="M 205.663358 215.614911 
C 206.80404 215.614911 207.898156 215.161713 208.704739 214.355129 
C 209.511323 213.548546 209.964521 212.45443 209.964521 211.313748 
C 209.964521 210.173067 209.511323 209.078951 208.704739 208.272367 
C 207.898156 207.465783 206.80404 207.012586 205.663358 207.012586 
C 204.522676 207.012586 203.42856 207.465783 202.621977 208.272367 
C 201.815393 209.078951 201.362195 210.173067 201.362195 211.313748 
C 201.362195 212.45443 201.815393 213.548546 202.621977 214.355129 
C 203.42856 215.161713 204.522676 215.614911 205.663358 215.614911 
z
" clip-path="url(#p97b36d5fdd)" style="fill: #1f77b4; stroke: #1f77b4"/>
    <path d="M 231.727988 228.710398 
C 232.887778 228.710398 234.000222 228.249609 234.820317 227.429513 
C 235.640412 226.609418 236.101202 225.496974 236.101202 224.337184 
C 236.101202 223.177394 235.640412 222.06495 234.820317 221.244855 
C 234.000222 220.42476 232.887778 219.96397 231.727988 219.96397 
C 230.568198 219.96397 229.455754 220.42476 228.635659 221.244855 
C 227.815563 222.06495 227.354774 223.177394 227.354774 224.337184 
C 227.354774 225.496974 227.815563 226.609418 228.635659 227.429513 
C 229.455754 228.249609 230.568198 228.710398 231.727988 228.710398 
z
" clip-path="url(#p97b36d5fdd)" style="fill: #1f77b4; stroke: #1f77b4"/>
    <path d="M 263.761398 233.472011 
C 264.939986 233.472011 266.070461 233.003753 266.903849 232.170365 
C 267.737237 231.336977 268.205495 230.206502 268.205495 229.027914 
C 268.205495 227.849325 267.737237 226.71885 266.903849 225.885462 
C 266.070461 225.052075 264.939986 224.583816 263.761398 224.583816 
C 262.58281 224.583816 261.452335 225.052075 260.618947 225.885462 
C 259.785559 226.71885 259.317301 227.849325 259.317301 229.027914 
C 259.317301 230.206502 259.785559 231.336977 260.618947 232.170365 
C 261.452335 233.003753 262.58281 233.472011 263.761398 233.472011 
z
" clip-path="url(#p97b36d5fdd)" style="fill: #1f77b4; stroke: #1f77b4"/>
    <path d="M 296.901691 228.504432 
C 298.098783 228.504432 299.247006 228.028822 300.093477 227.182351 
C 300.939949 226.335879 301.415558 225.187656 301.415558 223.990564 
C 301.415558 222.793473 300.939949 221.64525 300.093477 220.798778 
C 299.247006 219.952306 298.098783 219.476697 296.901691 219.476697 
C 295.704599 219.476697 294.556376 219.952306 293.709905 220.798778 
C 292.863433 221.64525 292.387823 222.793473 292.387823 223.990564 
C 292.387823 225.187656 292.863433 226.335879 293.709905 227.182351 
C 294.556376 228.028822 295.704599 228.504432 296.901691 228.504432 
z
" clip-path="url(#p97b36d5fdd)" style="fill: #1f77b4; stroke: #1f77b4"/>
    <path d="M 325.758214 213.942467 
C 326.973527 213.942467 328.139228 213.459618 328.998584 212.600262 
C 329.85794 211.740906 330.340789 210.575205 330.340789 209.359891 
C 330.340789 208.144578 329.85794 206.978877 328.998584 206.119521 
C 328.139228 205.260165 326.973527 204.777316 325.758214 204.777316 
C 324.5429 204.777316 323.3772 205.260165 322.517843 206.119521 
C 321.658487 206.978877 321.175638 208.144578 321.175638 209.359891 
C 321.175638 210.575205 321.658487 211.740906 322.517843 212.600262 
C 323.3772 213.459618 324.5429 213.942467 325.758214 213.942467 
z
" clip-path="url(#p97b36d5fdd)" style="fill: #1f77b4; stroke: #1f77b4"/>
    <path d="M 345.28635 191.530007 
C 346.519616 191.530007 347.702536 191.040026 348.574587 190.167975 
C 349.446637 189.295924 349.936619 188.113004 349.936619 186.879738 
C 349.936619 185.646473 349.446637 184.463552 348.574587 183.591502 
C 347.702536 182.719451 346.519616 182.22947 345.28635 182.22947 
C 344.053084 182.22947 342.870164 182.719451 341.998114 183.591502 
C 341.126063 184.463552 340.636081 185.646473 340.636081 186.879738 
C 340.636081 188.113004 341.126063 189.295924 341.998114 190.167975 
C 342.870164 191.040026 344.053084 191.530007 345.28635 191.530007 
z
" clip-path="url(#p97b36d5fdd)" style="fill: #1f77b4; stroke: #1f77b4"/>
    <path d="M 351.657818 164.430705 
C 352.908779 164.430705 354.108672 163.933693 354.993235 163.04913 
C 355.877797 162.164568 356.374809 160.964675 356.374809 159.713714 
C 356.374809 158.462754 355.877797 157.262861 354.993235 156.378298 
C 354.108672 155.493736 352.908779 154.996724 351.657818 154.996724 
C 350.406858 154.996724 349.206965 155.493736 348.322402 156.378298 
C 347.43784 157.262861 346.940828 158.462754 346.940828 159.713714 
C 346.940828 160.964675 347.43784 162.164568 348.322402 163.04913 
C 349.206965 163.933693 350.406858 164.430705 351.657818 164.430705 
z
" clip-path="url(#p97b36d5fdd)" style="fill: #1f77b4; stroke: #1f77b4"/>
    <path d="M 342.977917 136.787202 
C 344.246325 136.787202 345.462954 136.283257 346.359854 135.386357 
C 347.256754 134.489457 347.760698 133.272828 347.760698 132.00442 
C 347.760698 130.736011 347.256754 129.519383 346.359854 128.622483 
C 345.462954 127.725582 344.246325 127.221638 342.977917 127.221638 
C 341.709508 127.221638 340.49288 127.725582 339.595979 128.622483 
C 338.699079 129.519383 338.195135 130.736011 338.195135 132.00442 
C 338.195135 133.272828 338.699079 134.489457 339.595979 135.386357 
C 340.49288 136.283257 341.709508 136.787202 342.977917 136.787202 
z
" clip-path="url(#p97b36d5fdd)" style="fill: #1f77b4; stroke: #1f77b4"/>
    <path d="M 319.719402 113.089555 
C 321.005022 113.089555 322.238159 112.578773 323.14723 111.669703 
C 324.0563 110.760632 324.567082 109.527495 324.567082 108.241875 
C 324.567082 106.956256 324.0563 105.723118 323.14723 104.814048 
C 322.238159 103.904978 321.005022 103.394195 319.719402 103.394195 
C 318.433783 103.394195 317.200645 103.904978 316.291575 104.814048 
C 315.382505 105.723118 314.871722 106.956256 314.871722 108.241875 
C 314.871722 109.527495 315.382505 110.760632 316.291575 111.669703 
C 317.200645 112.578773 318.433783 113.089555 319.719402 113.089555 
z
" clip-path="url(#p97b36d5fdd)" style="fill: #1f77b4; stroke: #1f77b4"/>
    <path d="M 284.784083 97.449139 
C 286.086687 97.449139 287.336114 96.931609 288.257194 96.010529 
C 289.178274 95.089449 289.695804 93.840022 289.695804 92.537418 
C 289.695804 91.234815 289.178274 89.985387 288.257194 89.064307 
C 287.336114 88.143227 286.086687 87.625698 284.784083 87.625698 
C 283.48148 87.625698 282.232052 88.143227 281.310972 89.064307 
C 280.389892 89.985387 279.872363 91.234815 279.872363 92.537418 
C 279.872363 93.840022 280.389892 95.089449 281.310972 96.010529 
C 282.232052 96.931609 283.48148 97.449139 284.784083 97.449139 
z
" clip-path="url(#p97b36d5fdd)" style="fill: #1f77b4; stroke: #1f77b4"/>
    <path d="M 243.161732 92.895213 
C 244.481101 92.895213 245.746609 92.371023 246.679544 91.438088 
C 247.612478 90.505153 248.136669 89.239645 248.136669 87.920276 
C 248.136669 86.600907 247.612478 85.335399 246.679544 84.402464 
C 245.746609 83.46953 244.481101 82.945339 243.161732 82.945339 
C 241.842363 82.945339 240.576855 83.46953 239.64392 84.402464 
C 238.710985 85.335399 238.186795 86.600907 238.186795 87.920276 
C 238.186795 89.239645 238.710985 90.505153 239.64392 91.438088 
C 240.576855 92.371023 241.842363 92.895213 243.161732 92.895213 
z
" clip-path="url(#p97b36d5fdd)" style="fill: #1f77b4; stroke: #1f77b4"/>
    <path d="M 201.222389 100.813431 
C 202.558313 100.813431 203.8397 100.282663 204.784341 99.338023 
C 205.728981 98.393382 206.259749 97.111994 206.259749 95.776071 
C 206.259749 94.440147 205.728981 93.15876 204.784341 92.214119 
C 203.8397 91.269479 202.558313 90.73871 201.222389 90.73871 
C 199.886465 90.73871 198.605078 91.269479 197.660437 92.214119 
C 196.715797 93.15876 196.185029 94.440147 196.185029 95.776071 
C 196.185029 97.111994 196.715797 98.393382 197.660437 99.338023 
C 198.605078 100.282663 199.886465 100.813431 201.222389 100.813431 
z
" clip-path="url(#p97b36d5fdd)" style="fill: #1f77b4; stroke: #1f77b4"/>
    <path d="M 165.741594 120.627521 
C 167.09387 120.627521 168.390942 120.090256 169.347145 119.134053 
C 170.303348 118.177849 170.840613 116.880777 170.840613 115.528501 
C 170.840613 114.176225 170.303348 112.879153 169.347145 111.92295 
C 168.390942 110.966747 167.09387 110.429482 165.741594 110.429482 
C 164.389318 110.429482 163.092246 110.966747 162.136042 111.92295 
C 161.179839 112.879153 160.642574 114.176225 160.642574 115.528501 
C 160.642574 116.880777 161.179839 118.177849 162.136042 119.134053 
C 163.092246 120.090256 164.389318 120.627521 165.741594 120.627521 
z
" clip-path="url(#p97b36d5fdd)" style="fill: #1f77b4; stroke: #1f77b4"/>
    <path d="M 142.807684 149.789488 
C 144.176117 149.789488 145.488686 149.245804 146.456314 148.278176 
C 147.423942 147.310548 147.967626 145.997979 147.967626 144.629546 
C 147.967626 143.261114 147.423942 141.948544 146.456314 140.980916 
C 145.488686 140.013288 144.176117 139.469604 142.807684 139.469604 
C 141.439251 139.469604 140.126682 140.013288 139.159054 140.980916 
C 138.191426 141.948544 137.647742 143.261114 137.647742 144.629546 
C 137.647742 145.997979 138.191426 147.310548 139.159054 148.278176 
C 140.126682 149.245804 141.439251 149.789488 142.807684 149.789488 
z
" clip-path="url(#p97b36d5fdd)" style="fill: #1f77b4; stroke: #1f77b4"/>
    <path d="M 136.787101 184.09518 
C 138.171502 184.09518 139.499388 183.545152 140.478307 182.566233 
C 141.457226 181.587313 142.007254 180.259428 142.007254 178.875027 
C 142.007254 177.490626 141.457226 176.16274 140.478307 175.183821 
C 139.499388 174.204902 138.171502 173.654873 136.787101 173.654873 
C 135.4027 173.654873 134.074815 174.204902 133.095895 175.183821 
C 132.116976 176.16274 131.566948 177.490626 131.566948 178.875027 
C 131.566948 180.259428 132.116976 181.587313 133.095895 182.566233 
C 134.074815 183.545152 135.4027 184.09518 136.787101 184.09518 
z
" clip-path="url(#p97b36d5fdd)" style="fill: #1f77b4; stroke: #1f77b4"/>
    <path d="M 149.522144 218.288562 
C 150.922331 218.288562 152.265358 217.732262 153.25544 216.74218 
C 154.245521 215.752098 154.801822 214.409071 154.801822 213.008884 
C 154.801822 211.608697 154.245521 210.265669 153.25544 209.275588 
C 152.265358 208.285506 150.922331 207.729206 149.522144 207.729206 
C 148.121957 207.729206 146.778929 208.285506 145.788847 209.275588 
C 144.798766 210.265669 144.242466 211.608697 144.242466 213.008884 
C 144.242466 214.409071 144.798766 215.752098 145.788847 216.74218 
C 146.778929 217.732262 148.121957 218.288562 149.522144 218.288562 
z
" clip-path="url(#p97b36d5fdd)" style="fill: #1f77b4; stroke: #1f77b4"/>
    <path d="M 179.904903 246.868369 
C 181.3207 246.868369 182.6787 246.305867 183.67982 245.304747 
C 184.68094 244.303628 185.243442 242.945627 185.243442 241.52983 
C 185.243442 240.114033 184.68094 238.756033 183.67982 237.754913 
C 182.6787 236.753793 181.3207 236.191291 179.904903 236.191291 
C 178.489106 236.191291 177.131105 236.753793 176.129986 237.754913 
C 175.128866 238.756033 174.566364 240.114033 174.566364 241.52983 
C 174.566364 242.945627 175.128866 244.303628 176.129986 245.304747 
C 177.131105 246.305867 178.489106 246.868369 179.904903 246.868369 
z
" clip-path="url(#p97b36d5fdd)" style="fill: #1f77b4; stroke: #1f77b4"/>
    <path d="M 223.915142 264.973347 
C 225.346379 264.973347 226.719189 264.404711 227.731226 263.392673 
C 228.743263 262.380636 229.3119 261.007826 229.3119 259.576589 
C 229.3119 258.145352 228.743263 256.772542 227.731226 255.760504 
C 226.719189 254.748467 225.346379 254.179831 223.915142 254.179831 
C 222.483905 254.179831 221.111095 254.748467 220.099057 255.760504 
C 219.08702 256.772542 218.518383 258.145352 218.518383 259.576589 
C 218.518383 261.007826 219.08702 262.380636 220.099057 263.392673 
C 221.111095 264.404711 222.483905 264.973347 223.915142 264.973347 
z
" clip-path="url(#p97b36d5fdd)" style="fill: #1f77b4; stroke: #1f77b4"/>
    <path d="M 275.136926 269.203831 
C 276.583439 269.203831 277.9709 268.629125 278.993739 267.606287 
C 280.016577 266.583448 280.591282 265.195987 280.591282 263.749475 
C 280.591282 262.302963 280.016577 260.915501 278.993739 259.892663 
C 277.9709 258.869824 276.583439 258.295119 275.136926 258.295119 
C 273.690414 258.295119 272.302953 258.869824 271.280114 259.892663 
C 270.257276 260.915501 269.68257 262.302963 269.68257 263.749475 
C 269.68257 265.195987 270.257276 266.583448 271.280114 267.606287 
C 272.302953 268.629125 273.690414 269.203831 275.136926 269.203831 
z
" clip-path="url(#p97b36d5fdd)" style="fill: #1f77b4; stroke: #1f77b4"/>
    <path d="M 325.690399 258.241807 
C 327.152027 258.241807 328.553987 257.661096 329.587513 256.62757 
C 330.62104 255.594043 331.201751 254.192083 331.201751 252.730455 
C 331.201751 251.268828 330.62104 249.866868 329.587513 248.833341 
C 328.553987 247.799814 327.152027 247.219103 325.690399 247.219103 
C 324.228771 247.219103 322.826812 247.799814 321.793285 248.833341 
C 320.759758 249.866868 320.179047 251.268828 320.179047 252.730455 
C 320.179047 254.192083 320.759758 255.594043 321.793285 256.62757 
C 322.826812 257.661096 324.228771 258.241807 325.690399 258.241807 
z
" clip-path="url(#p97b36d5fdd)" style="fill: #1f77b4; stroke: #1f77b4"/>
    <path d="M 367.443954 233.158952 
C 368.920542 233.158952 370.336852 232.572297 371.380958 231.528192 
C 372.425063 230.484086 373.011718 229.067776 373.011718 227.591188 
C 373.011718 226.114599 372.425063 224.698289 371.380958 223.654184 
C 370.336852 222.610078 368.920542 222.023423 367.443954 222.023423 
C 365.967366 222.023423 364.551056 222.610078 363.50695 223.654184 
C 362.462844 224.698289 361.87619 226.114599 361.87619 227.591188 
C 361.87619 229.067776 362.462844 230.484086 363.50695 231.528192 
C 364.551056 232.572297 365.967366 233.158952 367.443954 233.158952 
z
" clip-path="url(#p97b36d5fdd)" style="fill: #1f77b4; stroke: #1f77b4"/>
    <path d="M 393.320354 197.348865 
C 394.811753 197.348865 396.242269 196.756326 397.296847 195.701748 
C 398.351426 194.647169 398.943965 193.216653 398.943965 191.725254 
C 398.943965 190.233855 398.351426 188.803339 397.296847 187.748761 
C 396.242269 186.694182 394.811753 186.101643 393.320354 186.101643 
C 391.828955 186.101643 390.398439 186.694182 389.34386 187.748761 
C 388.289282 188.803339 387.696743 190.233855 387.696743 191.725254 
C 387.696743 193.216653 388.289282 194.647169 389.34386 195.701748 
C 390.398439 196.756326 391.828955 197.348865 393.320354 197.348865 
z
" clip-path="url(#p97b36d5fdd)" style="fill: #1f77b4; stroke: #1f77b4"/>
    <path d="M 398.487273 156.078808 
C 399.993337 156.078808 401.437919 155.480443 402.502867 154.415495 
C 403.567815 153.350547 404.166181 151.905964 404.166181 150.3999 
C 404.166181 148.893836 403.567815 147.449254 402.502867 146.384305 
C 401.437919 145.319357 399.993337 144.720992 398.487273 144.720992 
C 396.981209 144.720992 395.536626 145.319357 394.471678 146.384305 
C 393.40673 147.449254 392.808364 148.893836 392.808364 150.3999 
C 392.808364 151.905964 393.40673 153.350547 394.471678 154.415495 
C 395.536626 155.480443 396.981209 156.078808 398.487273 156.078808 
z
" clip-path="url(#p97b36d5fdd)" style="fill: #1f77b4; stroke: #1f77b4"/>
    <path d="M 381.23327 115.718411 
C 382.753858 115.718411 384.212371 115.114275 385.287589 114.039057 
C 386.362807 112.963839 386.966943 111.505326 386.966943 109.984739 
C 386.966943 108.464151 386.362807 107.005638 385.287589 105.93042 
C 384.212371 104.855202 382.753858 104.251066 381.23327 104.251066 
C 379.712682 104.251066 378.254169 104.855202 377.178951 105.93042 
C 376.103734 107.005638 375.499598 108.464151 375.499598 109.984739 
C 375.499598 111.505326 376.103734 112.963839 377.178951 114.039057 
C 378.254169 115.114275 379.712682 115.718411 381.23327 115.718411 
z
" clip-path="url(#p97b36d5fdd)" style="fill: #1f77b4; stroke: #1f77b4"/>
    <path d="M 343.373796 82.757917 
C 344.90877 82.757917 346.381082 82.148065 347.466472 81.062675 
C 348.551862 79.977284 349.161714 78.504972 349.161714 76.969998 
C 349.161714 75.435024 348.551862 73.962712 347.466472 72.877322 
C 346.381082 71.791931 344.90877 71.18208 343.373796 71.18208 
C 341.838822 71.18208 340.36651 71.791931 339.281119 72.877322 
C 338.195729 73.962712 337.585877 75.435024 337.585877 76.969998 
C 337.585877 78.504972 338.195729 79.977284 339.281119 81.062675 
C 340.36651 82.148065 341.838822 82.757917 343.373796 82.757917 
z
" clip-path="url(#p97b36d5fdd)" style="fill: #1f77b4; stroke: #1f77b4"/>
    <path d="M 290.102546 62.76729 
C 291.651773 62.76729 293.137756 62.151776 294.233224 61.056307 
C 295.328693 59.960838 295.944207 58.474856 295.944207 56.925629 
C 295.944207 55.376403 295.328693 53.89042 294.233224 52.794951 
C 293.137756 51.699483 291.651773 51.083968 290.102546 51.083968 
C 288.55332 51.083968 287.067337 51.699483 285.971868 52.794951 
C 284.8764 53.89042 284.260885 55.376403 284.260885 56.925629 
C 284.260885 58.474856 284.8764 59.960838 285.971868 61.056307 
C 287.067337 62.151776 288.55332 62.76729 290.102546 62.76729 
z
" clip-path="url(#p97b36d5fdd)" style="fill: #1f77b4; stroke: #1f77b4"/>
    <path d="M 229.290695 59.462913 
C 230.854045 59.462913 232.353574 58.841788 233.459028 57.736333 
C 234.564483 56.630878 235.185609 55.131349 235.185609 53.568 
C 235.185609 52.004651 234.564483 50.505122 233.459028 49.399667 
C 232.353574 48.294212 230.854045 47.673087 229.290695 47.673087 
C 227.727346 47.673087 226.227817 48.294212 225.122362 49.399667 
C 224.016908 50.505122 223.395782 52.004651 223.395782 53.568 
C 223.395782 55.131349 224.016908 56.630878 225.122362 57.736333 
C 226.227817 58.841788 227.727346 59.462913 229.290695 59.462913 
z
" clip-path="url(#p97b36d5fdd)" style="fill: #1f77b4; stroke: #1f77b4"/>
    <path d="M 170.326502 74.037352 
C 171.903848 74.037352 173.416802 73.410666 174.532153 72.295314 
C 175.647505 71.179963 176.274191 69.667009 176.274191 68.089663 
C 176.274191 66.512318 175.647505 64.999364 174.532153 63.884012 
C 173.416802 62.768661 171.903848 62.141975 170.326502 62.141975 
C 168.749157 62.141975 167.236203 62.768661 166.120851 63.884012 
C 165.0055 64.999364 164.378814 66.512318 164.378814 68.089663 
C 164.378814 69.667009 165.0055 71.179963 166.120851 72.295314 
C 167.236203 73.410666 168.749157 74.037352 170.326502 74.037352 
z
" clip-path="url(#p97b36d5fdd)" style="fill: #1f77b4; stroke: #1f77b4"/>
    <path d="M 122.665942 104.87063 
C 124.25716 104.87063 125.783421 104.238432 126.908582 103.11327 
C 128.033744 101.988109 128.665942 100.461848 128.665942 98.87063 
C 128.665942 97.279411 128.033744 95.75315 126.908582 94.627989 
C 125.783421 93.502827 124.25716 92.87063 122.665942 92.87063 
C 121.074723 92.87063 119.548463 93.502827 118.423301 94.627989 
C 117.29814 95.75315 116.665942 97.279411 116.665942 98.87063 
C 116.665942 100.461848 117.29814 101.988109 118.423301 103.11327 
C 119.548463 104.238432 121.074723 104.87063 122.665942 104.87063 
z
" clip-path="url(#p97b36d5fdd)" style="fill: #1f77b4; stroke: #1f77b4"/>
    <path d="M 94.318111 147.683821 
C 95.923083 147.683821 97.462536 147.046159 98.597422 145.911272 
C 99.732308 144.776386 100.369971 143.236933 100.369971 141.631961 
C 100.369971 140.02699 99.732308 138.487537 98.597422 137.352651 
C 97.462536 136.217764 95.923083 135.580102 94.318111 135.580102 
C 92.713139 135.580102 91.173687 136.217764 90.038801 137.352651 
C 88.903914 138.487537 88.266252 140.02699 88.266252 141.631961 
C 88.266252 143.236933 88.903914 144.776386 90.038801 145.911272 
C 91.173687 147.046159 92.713139 147.683821 94.318111 147.683821 
z
" clip-path="url(#p97b36d5fdd)" style="fill: #1f77b4; stroke: #1f77b4"/>
    <path d="M 90.507735 196.126227 
C 92.126343 196.126227 93.678875 195.483147 94.823404 194.338618 
C 95.967933 193.194089 96.611013 191.641557 96.611013 190.022949 
C 96.611013 188.404341 95.967933 186.851809 94.823404 185.70728 
C 93.678875 184.562751 92.126343 183.919671 90.507735 183.919671 
C 88.889127 183.919671 87.336594 184.562751 86.192066 185.70728 
C 85.047537 186.851809 84.404457 188.404341 84.404457 190.022949 
C 84.404457 191.641557 85.047537 193.194089 86.192066 194.338618 
C 87.336594 195.483147 88.889127 196.126227 90.507735 196.126227 
z
" clip-path="url(#p97b36d5fdd)" style="fill: #1f77b4; stroke: #1f77b4"/>
    <path d="M 112.736926 242.716878 
C 114.369056 242.716878 115.934559 242.068426 117.08865 240.914335 
C 118.24274 239.760244 118.891193 238.194742 118.891193 236.562611 
C 118.891193 234.930481 118.24274 233.364978 117.08865 232.210887 
C 115.934559 231.056797 114.369056 230.408344 112.736926 230.408344 
C 111.104795 230.408344 109.539293 231.056797 108.385202 232.210887 
C 107.231111 233.364978 106.582659 234.930481 106.582659 236.562611 
C 106.582659 238.194742 107.231111 239.760244 108.385202 240.914335 
C 109.539293 242.068426 111.104795 242.716878 112.736926 242.716878 
z
" clip-path="url(#p97b36d5fdd)" style="fill: #1f77b4; stroke: #1f77b4"/>
    <path d="M 158.411483 280.001048 
C 160.057025 280.001048 161.635391 279.347267 162.798965 278.183693 
C 163.962539 277.020119 164.61632 275.441753 164.61632 273.796211 
C 164.61632 272.150669 163.962539 270.572303 162.798965 269.408729 
C 161.635391 268.245155 160.057025 267.591374 158.411483 267.591374 
C 156.765941 267.591374 155.187574 268.245155 154.024001 269.408729 
C 152.860427 270.572303 152.206646 272.150669 152.206646 273.796211 
C 152.206646 275.441753 152.860427 277.020119 154.024001 278.183693 
C 155.187574 279.347267 156.765941 280.001048 158.411483 280.001048 
z
" clip-path="url(#p97b36d5fdd)" style="fill: #1f77b4; stroke: #1f77b4"/>
    <path d="M 221.111413 301.742998 
C 222.770258 301.742998 224.361384 301.083932 225.534365 299.910952 
C 226.707345 298.737971 227.366411 297.146845 227.366411 295.488 
C 227.366411 293.829155 226.707345 292.238029 225.534365 291.065048 
C 224.361384 289.892068 222.770258 289.233002 221.111413 289.233002 
C 219.452568 289.233002 217.861442 289.892068 216.688462 291.065048 
C 215.515481 292.238029 214.856415 293.829155 214.856415 295.488 
C 214.856415 297.146845 215.515481 298.737971 216.688462 299.910952 
C 217.861442 301.083932 219.452568 301.742998 221.111413 301.742998 
z
" clip-path="url(#p97b36d5fdd)" style="fill: #1f77b4; stroke: #1f77b4"/>
   </g>
   <g id="PathCollection_2">
    <defs>
     <path id="md8a7656317" d="M 0 -3 
L -3 3 
L 3 3 
z
" style="stroke: #ff7f0e; stroke-opacity: 0.7"/>
    </defs>
    <g clip-path="url(#p97b36d5fdd)">
     <use xlink:href="#md8a7656317" x="139.080738" y="105.592024" style="fill: #ff7f0e; fill-opacity: 0.7; stroke: #ff7f0e; stroke-opacity: 0.7"/>
     <use xlink:href="#md8a7656317" x="138.261636" y="104.135312" style="fill: #ff7f0e; fill-opacity: 0.7; stroke: #ff7f0e; stroke-opacity: 0.7"/>
     <use xlink:href="#md8a7656317" x="135.848299" y="103.527477" style="fill: #ff7f0e; fill-opacity: 0.7; stroke: #ff7f0e; stroke-opacity: 0.7"/>
     <use xlink:href="#md8a7656317" x="132.86603" y="104.423376" style="fill: #ff7f0e; fill-opacity: 0.7; stroke: #ff7f0e; stroke-opacity: 0.7"/>
     <use xlink:href="#md8a7656317" x="130.725285" y="106.934221" style="fill: #ff7f0e; fill-opacity: 0.7; stroke: #ff7f0e; stroke-opacity: 0.7"/>
     <use xlink:href="#md8a7656317" x="130.758517" y="110.540486" style="fill: #ff7f0e; fill-opacity: 0.7; stroke: #ff7f0e; stroke-opacity: 0.7"/>
     <use xlink:href="#md8a7656317" x="133.752376" y="114.199349" style="fill: #ff7f0e; fill-opacity: 0.7; stroke: #ff7f0e; stroke-opacity: 0.7"/>
     <use xlink:href="#md8a7656317" x="139.613533" y="116.624471" style="fill: #ff7f0e; fill-opacity: 0.7; stroke: #ff7f0e; stroke-opacity: 0.7"/>
     <use xlink:href="#md8a7656317" x="147.274278" y="116.666405" style="fill: #ff7f0e; fill-opacity: 0.7; stroke: #ff7f0e; stroke-opacity: 0.7"/>
     <use xlink:href="#md8a7656317" x="154.88199" y="113.690283" style="fill: #ff7f0e; fill-opacity: 0.7; stroke: #ff7f0e; stroke-opacity: 0.7"/>
     <use xlink:href="#md8a7656317" x="160.240098" y="107.842439" style="fill: #ff7f0e; fill-opacity: 0.7; stroke: #ff7f0e; stroke-opacity: 0.7"/>
     <use xlink:href="#md8a7656317" x="161.396874" y="100.121604" style="fill: #ff7f0e; fill-opacity: 0.7; stroke: #ff7f0e; stroke-opacity: 0.7"/>
     <use xlink:href="#md8a7656317" x="157.231267" y="92.218005" style="fill: #ff7f0e; fill-opacity: 0.7; stroke: #ff7f0e; stroke-opacity: 0.7"/>
     <use xlink:href="#md8a7656317" x="147.875298" y="86.143781" style="fill: #ff7f0e; fill-opacity: 0.7; stroke: #ff7f0e; stroke-opacity: 0.7"/>
     <use xlink:href="#md8a7656317" x="134.844489" y="83.735415" style="fill: #ff7f0e; fill-opacity: 0.7; stroke: #ff7f0e; stroke-opacity: 0.7"/>
     <use xlink:href="#md8a7656317" x="120.81528" y="86.148663" style="fill: #ff7f0e; fill-opacity: 0.7; stroke: #ff7f0e; stroke-opacity: 0.7"/>
     <use xlink:href="#md8a7656317" x="109.075781" y="93.477447" style="fill: #ff7f0e; fill-opacity: 0.7; stroke: #ff7f0e; stroke-opacity: 0.7"/>
     <use xlink:href="#md8a7656317" x="102.762487" y="104.606226" style="fill: #ff7f0e; fill-opacity: 0.7; stroke: #ff7f0e; stroke-opacity: 0.7"/>
     <use xlink:href="#md8a7656317" x="104.058726" y="117.354071" style="fill: #ff7f0e; fill-opacity: 0.7; stroke: #ff7f0e; stroke-opacity: 0.7"/>
     <use xlink:href="#md8a7656317" x="113.553585" y="128.899395" style="fill: #ff7f0e; fill-opacity: 0.7; stroke: #ff7f0e; stroke-opacity: 0.7"/>
     <use xlink:href="#md8a7656317" x="129.934811" y="136.403234" style="fill: #ff7f0e; fill-opacity: 0.7; stroke: #ff7f0e; stroke-opacity: 0.7"/>
     <use xlink:href="#md8a7656317" x="150.119219" y="137.693652" style="fill: #ff7f0e; fill-opacity: 0.7; stroke: #ff7f0e; stroke-opacity: 0.7"/>
     <use xlink:href="#md8a7656317" x="169.824143" y="131.848757" style="fill: #ff7f0e; fill-opacity: 0.7; stroke: #ff7f0e; stroke-opacity: 0.7"/>
     <use xlink:href="#md8a7656317" x="184.476108" y="119.528891" style="fill: #ff7f0e; fill-opacity: 0.7; stroke: #ff7f0e; stroke-opacity: 0.7"/>
     <use xlink:href="#md8a7656317" x="190.263933" y="102.958714" style="fill: #ff7f0e; fill-opacity: 0.7; stroke: #ff7f0e; stroke-opacity: 0.7"/>
     <use xlink:href="#md8a7656317" x="185.095386" y="85.537236" style="fill: #ff7f0e; fill-opacity: 0.7; stroke: #ff7f0e; stroke-opacity: 0.7"/>
     <use xlink:href="#md8a7656317" x="169.223234" y="71.141254" style="fill: #ff7f0e; fill-opacity: 0.7; stroke: #ff7f0e; stroke-opacity: 0.7"/>
     <use xlink:href="#md8a7656317" x="145.36945" y="63.264779" style="fill: #ff7f0e; fill-opacity: 0.7; stroke: #ff7f0e; stroke-opacity: 0.7"/>
     <use xlink:href="#md8a7656317" x="118.283775" y="64.185072" style="fill: #ff7f0e; fill-opacity: 0.7; stroke: #ff7f0e; stroke-opacity: 0.7"/>
     <use xlink:href="#md8a7656317" x="93.801579" y="74.351742" style="fill: #ff7f0e; fill-opacity: 0.7; stroke: #ff7f0e; stroke-opacity: 0.7"/>
     <use xlink:href="#md8a7656317" x="77.587116" y="92.155444" style="fill: #ff7f0e; fill-opacity: 0.7; stroke: #ff7f0e; stroke-opacity: 0.7"/>
     <use xlink:href="#md8a7656317" x="73.832727" y="114.153898" style="fill: #ff7f0e; fill-opacity: 0.7; stroke: #ff7f0e; stroke-opacity: 0.7"/>
     <use xlink:href="#md8a7656317" x="84.210846" y="135.731599" style="fill: #ff7f0e; fill-opacity: 0.7; stroke: #ff7f0e; stroke-opacity: 0.7"/>
     <use xlink:href="#md8a7656317" x="107.334571" y="152.068134" style="fill: #ff7f0e; fill-opacity: 0.7; stroke: #ff7f0e; stroke-opacity: 0.7"/>
     <use xlink:href="#md8a7656317" x="138.880155" y="159.211985" style="fill: #ff7f0e; fill-opacity: 0.7; stroke: #ff7f0e; stroke-opacity: 0.7"/>
     <use xlink:href="#md8a7656317" x="172.381613" y="155.021205" style="fill: #ff7f0e; fill-opacity: 0.7; stroke: #ff7f0e; stroke-opacity: 0.7"/>
     <use xlink:href="#md8a7656317" x="200.554748" y="139.749856" style="fill: #ff7f0e; fill-opacity: 0.7; stroke: #ff7f0e; stroke-opacity: 0.7"/>
     <use xlink:href="#md8a7656317" x="216.879755" y="116.127953" style="fill: #ff7f0e; fill-opacity: 0.7; stroke: #ff7f0e; stroke-opacity: 0.7"/>
     <use xlink:href="#md8a7656317" x="217.098807" y="88.889751" style="fill: #ff7f0e; fill-opacity: 0.7; stroke: #ff7f0e; stroke-opacity: 0.7"/>
     <use xlink:href="#md8a7656317" x="200.286795" y="63.827794" style="fill: #ff7f0e; fill-opacity: 0.7; stroke: #ff7f0e; stroke-opacity: 0.7"/>
    </g>
   </g>
   <g id="matplotlib.axis_1">
    <g id="xtick_1">
     <g id="line2d_1">
      <path d="M 122.379071 307.584 
L 122.379071 41.472 
" clip-path="url(#p97b36d5fdd)" style="fill: none; stroke: #b0b0b0; stroke-width: 0.8; stroke-linecap: square"/>
     </g>
     <g id="line2d_2">
      <defs>
       <path id="ma24f9baa4d" d="M 0 0 
L 0 3.5 
" style="stroke: #000000; stroke-width: 0.8"/>
      </defs>
      <g>
       <use xlink:href="#ma24f9baa4d" x="122.379071" y="307.584" style="stroke: #000000; stroke-width: 0.8"/>
      </g>
     </g>
     <g id="text_1">
      <!-- −0.4 -->
      <g transform="translate(110.237665 322.182437) scale(0.1 -0.1)">
       <defs>
        <path id="DejaVuSans-2212" d="M 678 2272 
L 4684 2272 
L 4684 1741 
L 678 1741 
L 678 2272 
z
" transform="scale(0.015625)"/>
        <path id="DejaVuSans-30" d="M 2034 4250 
Q 1547 4250 1301 3770 
Q 1056 3291 1056 2328 
Q 1056 1369 1301 889 
Q 1547 409 2034 409 
Q 2525 409 2770 889 
Q 3016 1369 3016 2328 
Q 3016 3291 2770 3770 
Q 2525 4250 2034 4250 
z
M 2034 4750 
Q 2819 4750 3233 4129 
Q 3647 3509 3647 2328 
Q 3647 1150 3233 529 
Q 2819 -91 2034 -91 
Q 1250 -91 836 529 
Q 422 1150 422 2328 
Q 422 3509 836 4129 
Q 1250 4750 2034 4750 
z
" transform="scale(0.015625)"/>
        <path id="DejaVuSans-2e" d="M 684 794 
L 1344 794 
L 1344 0 
L 684 0 
L 684 794 
z
" transform="scale(0.015625)"/>
        <path id="DejaVuSans-34" d="M 2419 4116 
L 825 1625 
L 2419 1625 
L 2419 4116 
z
M 2253 4666 
L 3047 4666 
L 3047 1625 
L 3713 1625 
L 3713 1100 
L 3047 1100 
L 3047 0 
L 2419 0 
L 2419 1100 
L 313 1100 
L 313 1709 
L 2253 4666 
z
" transform="scale(0.015625)"/>
       </defs>
       <use xlink:href="#DejaVuSans-2212"/>
       <use xlink:href="#DejaVuSans-30" transform="translate(83.789062 0)"/>
       <use xlink:href="#DejaVuSans-2e" transform="translate(147.412109 0)"/>
       <use xlink:href="#DejaVuSans-34" transform="translate(179.199219 0)"/>
      </g>
     </g>
    </g>
    <g id="xtick_2">
     <g id="line2d_3">
      <path d="M 189.185739 307.584 
L 189.185739 41.472 
" clip-path="url(#p97b36d5fdd)" style="fill: none; stroke: #b0b0b0; stroke-width: 0.8; stroke-linecap: square"/>
     </g>
     <g id="line2d_4">
      <g>
       <use xlink:href="#ma24f9baa4d" x="189.185739" y="307.584" style="stroke: #000000; stroke-width: 0.8"/>
      </g>
     </g>
     <g id="text_2">
      <!-- −0.2 -->
      <g transform="translate(177.044332 322.182437) scale(0.1 -0.1)">
       <defs>
        <path id="DejaVuSans-32" d="M 1228 531 
L 3431 531 
L 3431 0 
L 469 0 
L 469 531 
Q 828 903 1448 1529 
Q 2069 2156 2228 2338 
Q 2531 2678 2651 2914 
Q 2772 3150 2772 3378 
Q 2772 3750 2511 3984 
Q 2250 4219 1831 4219 
Q 1534 4219 1204 4116 
Q 875 4013 500 3803 
L 500 4441 
Q 881 4594 1212 4672 
Q 1544 4750 1819 4750 
Q 2544 4750 2975 4387 
Q 3406 4025 3406 3419 
Q 3406 3131 3298 2873 
Q 3191 2616 2906 2266 
Q 2828 2175 2409 1742 
Q 1991 1309 1228 531 
z
" transform="scale(0.015625)"/>
       </defs>
       <use xlink:href="#DejaVuSans-2212"/>
       <use xlink:href="#DejaVuSans-30" transform="translate(83.789062 0)"/>
       <use xlink:href="#DejaVuSans-2e" transform="translate(147.412109 0)"/>
       <use xlink:href="#DejaVuSans-32" transform="translate(179.199219 0)"/>
      </g>
     </g>
    </g>
    <g id="xtick_3">
     <g id="line2d_5">
      <path d="M 255.992406 307.584 
L 255.992406 41.472 
" clip-path="url(#p97b36d5fdd)" style="fill: none; stroke: #b0b0b0; stroke-width: 0.8; stroke-linecap: square"/>
     </g>
     <g id="line2d_6">
      <g>
       <use xlink:href="#ma24f9baa4d" x="255.992406" y="307.584" style="stroke: #000000; stroke-width: 0.8"/>
      </g>
     </g>
     <g id="text_3">
      <!-- 0.0 -->
      <g transform="translate(248.040844 322.182437) scale(0.1 -0.1)">
       <use xlink:href="#DejaVuSans-30"/>
       <use xlink:href="#DejaVuSans-2e" transform="translate(63.623047 0)"/>
       <use xlink:href="#DejaVuSans-30" transform="translate(95.410156 0)"/>
      </g>
     </g>
    </g>
    <g id="xtick_4">
     <g id="line2d_7">
      <path d="M 322.799074 307.584 
L 322.799074 41.472 
" clip-path="url(#p97b36d5fdd)" style="fill: none; stroke: #b0b0b0; stroke-width: 0.8; stroke-linecap: square"/>
     </g>
     <g id="line2d_8">
      <g>
       <use xlink:href="#ma24f9baa4d" x="322.799074" y="307.584" style="stroke: #000000; stroke-width: 0.8"/>
      </g>
     </g>
     <g id="text_4">
      <!-- 0.2 -->
      <g transform="translate(314.847511 322.182437) scale(0.1 -0.1)">
       <use xlink:href="#DejaVuSans-30"/>
       <use xlink:href="#DejaVuSans-2e" transform="translate(63.623047 0)"/>
       <use xlink:href="#DejaVuSans-32" transform="translate(95.410156 0)"/>
      </g>
     </g>
    </g>
    <g id="xtick_5">
     <g id="line2d_9">
      <path d="M 389.605741 307.584 
L 389.605741 41.472 
" clip-path="url(#p97b36d5fdd)" style="fill: none; stroke: #b0b0b0; stroke-width: 0.8; stroke-linecap: square"/>
     </g>
     <g id="line2d_10">
      <g>
       <use xlink:href="#ma24f9baa4d" x="389.605741" y="307.584" style="stroke: #000000; stroke-width: 0.8"/>
      </g>
     </g>
     <g id="text_5">
      <!-- 0.4 -->
      <g transform="translate(381.654179 322.182437) scale(0.1 -0.1)">
       <use xlink:href="#DejaVuSans-30"/>
       <use xlink:href="#DejaVuSans-2e" transform="translate(63.623047 0)"/>
       <use xlink:href="#DejaVuSans-34" transform="translate(95.410156 0)"/>
      </g>
     </g>
    </g>
   </g>
   <g id="matplotlib.axis_2">
    <g id="ytick_1">
     <g id="line2d_11">
      <path d="M 57.6 265.762554 
L 414.72 265.762554 
" clip-path="url(#p97b36d5fdd)" style="fill: none; stroke: #b0b0b0; stroke-width: 0.8; stroke-linecap: square"/>
     </g>
     <g id="line2d_12">
      <defs>
       <path id="me5fa53e8c6" d="M 0 0 
L -3.5 0 
" style="stroke: #000000; stroke-width: 0.8"/>
      </defs>
      <g>
       <use xlink:href="#me5fa53e8c6" x="57.6" y="265.762554" style="stroke: #000000; stroke-width: 0.8"/>
      </g>
     </g>
     <g id="text_6">
      <!-- −0.4 -->
      <g transform="translate(26.317187 269.561773) scale(0.1 -0.1)">
       <use xlink:href="#DejaVuSans-2212"/>
       <use xlink:href="#DejaVuSans-30" transform="translate(83.789062 0)"/>
       <use xlink:href="#DejaVuSans-2e" transform="translate(147.412109 0)"/>
       <use xlink:href="#DejaVuSans-34" transform="translate(179.199219 0)"/>
      </g>
     </g>
    </g>
    <g id="ytick_2">
     <g id="line2d_13">
      <path d="M 57.6 216.479314 
L 414.72 216.479314 
" clip-path="url(#p97b36d5fdd)" style="fill: none; stroke: #b0b0b0; stroke-width: 0.8; stroke-linecap: square"/>
     </g>
     <g id="line2d_14">
      <g>
       <use xlink:href="#me5fa53e8c6" x="57.6" y="216.479314" style="stroke: #000000; stroke-width: 0.8"/>
      </g>
     </g>
     <g id="text_7">
      <!-- −0.2 -->
      <g transform="translate(26.317187 220.278533) scale(0.1 -0.1)">
       <use xlink:href="#DejaVuSans-2212"/>
       <use xlink:href="#DejaVuSans-30" transform="translate(83.789062 0)"/>
       <use xlink:href="#DejaVuSans-2e" transform="translate(147.412109 0)"/>
       <use xlink:href="#DejaVuSans-32" transform="translate(179.199219 0)"/>
      </g>
     </g>
    </g>
    <g id="ytick_3">
     <g id="line2d_15">
      <path d="M 57.6 167.196074 
L 414.72 167.196074 
" clip-path="url(#p97b36d5fdd)" style="fill: none; stroke: #b0b0b0; stroke-width: 0.8; stroke-linecap: square"/>
     </g>
     <g id="line2d_16">
      <g>
       <use xlink:href="#me5fa53e8c6" x="57.6" y="167.196074" style="stroke: #000000; stroke-width: 0.8"/>
      </g>
     </g>
     <g id="text_8">
      <!-- 0.0 -->
      <g transform="translate(34.696875 170.995293) scale(0.1 -0.1)">
       <use xlink:href="#DejaVuSans-30"/>
       <use xlink:href="#DejaVuSans-2e" transform="translate(63.623047 0)"/>
       <use xlink:href="#DejaVuSans-30" transform="translate(95.410156 0)"/>
      </g>
     </g>
    </g>
    <g id="ytick_4">
     <g id="line2d_17">
      <path d="M 57.6 117.912834 
L 414.72 117.912834 
" clip-path="url(#p97b36d5fdd)" style="fill: none; stroke: #b0b0b0; stroke-width: 0.8; stroke-linecap: square"/>
     </g>
     <g id="line2d_18">
      <g>
       <use xlink:href="#me5fa53e8c6" x="57.6" y="117.912834" style="stroke: #000000; stroke-width: 0.8"/>
      </g>
     </g>
     <g id="text_9">
      <!-- 0.2 -->
      <g transform="translate(34.696875 121.712053) scale(0.1 -0.1)">
       <use xlink:href="#DejaVuSans-30"/>
       <use xlink:href="#DejaVuSans-2e" transform="translate(63.623047 0)"/>
       <use xlink:href="#DejaVuSans-32" transform="translate(95.410156 0)"/>
      </g>
     </g>
    </g>
    <g id="ytick_5">
     <g id="line2d_19">
      <path d="M 57.6 68.629594 
L 414.72 68.629594 
" clip-path="url(#p97b36d5fdd)" style="fill: none; stroke: #b0b0b0; stroke-width: 0.8; stroke-linecap: square"/>
     </g>
     <g id="line2d_20">
      <g>
       <use xlink:href="#me5fa53e8c6" x="57.6" y="68.629594" style="stroke: #000000; stroke-width: 0.8"/>
      </g>
     </g>
     <g id="text_10">
      <!-- 0.4 -->
      <g transform="translate(34.696875 72.428813) scale(0.1 -0.1)">
       <use xlink:href="#DejaVuSans-30"/>
       <use xlink:href="#DejaVuSans-2e" transform="translate(63.623047 0)"/>
       <use xlink:href="#DejaVuSans-34" transform="translate(95.410156 0)"/>
      </g>
     </g>
    </g>
   </g>
   <g id="patch_3">
    <path d="M 57.6 307.584 
L 57.6 41.472 
" style="fill: none; stroke: #000000; stroke-width: 0.8; stroke-linejoin: miter; stroke-linecap: square"/>
   </g>
   <g id="patch_4">
    <path d="M 414.72 307.584 
L 414.72 41.472 
" style="fill: none; stroke: #000000; stroke-width: 0.8; stroke-linejoin: miter; stroke-linecap: square"/>
   </g>
   <g id="patch_5">
    <path d="M 57.6 307.584 
L 414.72 307.584 
" style="fill: none; stroke: #000000; stroke-width: 0.8; stroke-linejoin: miter; stroke-linecap: square"/>
   </g>
   <g id="patch_6">
    <path d="M 57.6 41.472 
L 414.72 41.472 
" style="fill: none; stroke: #000000; stroke-width: 0.8; stroke-linejoin: miter; stroke-linecap: square"/>
   </g>
   <g id="text_11">
    <!-- scatter: sizes in points^2 -->
    <g transform="translate(160.0575 35.472) scale(0.12 -0.12)">
     <defs>
      <path id="DejaVuSans-73" d="M 2834 3397 
L 2834 2853 
Q 2591 2978 2328 3040 
Q 2066 3103 1784 3103 
Q 1356 3103 1142 2972 
Q 928 2841 928 2578 
Q 928 2378 1081 2264 
Q 1234 2150 1697 2047 
L 1894 2003 
Q 2506 1872 2764 1633 
Q 3022 1394 3022 966 
Q 3022 478 2636 193 
Q 2250 -91 1575 -91 
Q 1294 -91 989 -36 
Q 684 19 347 128 
L 347 722 
Q 666 556 975 473 
Q 1284 391 1588 391 
Q 1994 391 2212 530 
Q 2431 669 2431 922 
Q 2431 1156 2273 1281 
Q 2116 1406 1581 1522 
L 1381 1569 
Q 847 1681 609 1914 
Q 372 2147 372 2553 
Q 372 3047 722 3315 
Q 1072 3584 1716 3584 
Q 2034 3584 2315 3537 
Q 2597 3491 2834 3397 
z
" transform="scale(0.015625)"/>
      <path id="DejaVuSans-63" d="M 3122 3366 
L 3122 2828 
Q 2878 2963 2633 3030 
Q 2388 3097 2138 3097 
Q 1578 3097 1268 2742 
Q 959 2388 959 1747 
Q 959 1106 1268 751 
Q 1578 397 2138 397 
Q 2388 397 2633 464 
Q 2878 531 3122 666 
L 3122 134 
Q 2881 22 2623 -34 
Q 2366 -91 2075 -91 
Q 1284 -91 818 406 
Q 353 903 353 1747 
Q 353 2603 823 3093 
Q 1294 3584 2113 3584 
Q 2378 3584 2631 3529 
Q 2884 3475 3122 3366 
z
" transform="scale(0.015625)"/>
      <path id="DejaVuSans-61" d="M 2194 1759 
Q 1497 1759 1228 1600 
Q 959 1441 959 1056 
Q 959 750 1161 570 
Q 1363 391 1709 391 
Q 2188 391 2477 730 
Q 2766 1069 2766 1631 
L 2766 1759 
L 2194 1759 
z
M 3341 1997 
L 3341 0 
L 2766 0 
L 2766 531 
Q 2569 213 2275 61 
Q 1981 -91 1556 -91 
Q 1019 -91 701 211 
Q 384 513 384 1019 
Q 384 1609 779 1909 
Q 1175 2209 1959 2209 
L 2766 2209 
L 2766 2266 
Q 2766 2663 2505 2880 
Q 2244 3097 1772 3097 
Q 1472 3097 1187 3025 
Q 903 2953 641 2809 
L 641 3341 
Q 956 3463 1253 3523 
Q 1550 3584 1831 3584 
Q 2591 3584 2966 3190 
Q 3341 2797 3341 1997 
z
" transform="scale(0.015625)"/>
      <path id="DejaVuSans-74" d="M 1172 4494 
L 1172 3500 
L 2356 3500 
L 2356 3053 
L 1172 3053 
L 1172 1153 
Q 1172 725 1289 603 
Q 1406 481 1766 481 
L 2356 481 
L 2356 0 
L 1766 0 
Q 1100 0 847 248 
Q 594 497 594 1153 
L 594 3053 
L 172 3053 
L 172 3500 
L 594 3500 
L 594 4494 
L 1172 4494 
z
" transform="scale(0.015625)"/>
      <path id="DejaVuSans-65" d="M 3597 1894 
L 3597 1613 
L 953 1613 
Q 991 1019 1311 708 
Q 1631 397 2203 397 
Q 2534 397 2845 478 
Q 3156 559 3463 722 
L 3463 178 
Q 3153 47 2828 -22 
Q 2503 -91 2169 -91 
Q 1331 -91 842 396 
Q 353 884 353 1716 
Q 353 2575 817 3079 
Q 1281 3584 2069 3584 
Q 2775 3584 3186 3129 
Q 3597 2675 3597 1894 
z
M 3022 2063 
Q 3016 2534 2758 2815 
Q 2500 3097 2075 3097 
Q 1594 3097 1305 2825 
Q 1016 2553 972 2059 
L 3022 2063 
z
" transform="scale(0.015625)"/>
      <path id="DejaVuSans-72" d="M 2631 2963 
Q 2534 3019 2420 3045 
Q 2306 3072 2169 3072 
Q 1681 3072 1420 2755 
Q 1159 2438 1159 1844 
L 1159 0 
L 581 0 
L 581 3500 
L 1159 3500 
L 1159 2956 
Q 1341 3275 1631 3429 
Q 1922 3584 2338 3584 
Q 2397 3584 2469 3576 
Q 2541 3569 2628 3553 
L 2631 2963 
z
" transform="scale(0.015625)"/>
      <path id="DejaVuSans-3a" d="M 750 794 
L 1409 794 
L 1409 0 
L 750 0 
L 750 794 
z
M 750 3309 
L 1409 3309 
L 1409 2516 
L 750 2516 
L 750 3309 
z
" transform="scale(0.015625)"/>
      <path id="DejaVuSans-20" transform="scale(0.015625)"/>
      <path id="DejaVuSans-69" d="M 603 3500 
L 1178 3500 
L 1178 0 
L 603 0 
L 603 3500 
z
M 603 4863 
L 1178 4863 
L 1178 4134 
L 603 4134 
L 603 4863 
z
" transform="scale(0.015625)"/>
      <path id="DejaVuSans-7a" d="M 353 3500 
L 3084 3500 
L 3084 2975 
L 922 459 
L 3084 459 
L 3084 0 
L 275 0 
L 275 525 
L 2438 3041 
L 353 3041 
L 353 3500 
z
" transform="scale(0.015625)"/>
      <path id="DejaVuSans-6e" d="M 3513 2113 
L 3513 0 
L 2938 0 
L 2938 2094 
Q 2938 2591 2744 2837 
Q 2550 3084 2163 3084 
Q 1697 3084 1428 2787 
Q 1159 2491 1159 1978 
L 1159 0 
L 581 0 
L 581 3500 
L 1159 3500 
L 1159 2956 
Q 1366 3272 1645 3428 
Q 1925 3584 2291 3584 
Q 2894 3584 3203 3211 
Q 3513 2838 3513 2113 
z
" transform="scale(0.015625)"/>
      <path id="DejaVuSans-70" d="M 1159 525 
L 1159 -1331 
L 581 -1331 
L 581 3500 
L 1159 3500 
L 1159 2969 
Q 1341 3281 1617 3432 
Q 1894 3584 2278 3584 
Q 2916 3584 3314 3078 
Q 3713 2572 3713 1747 
Q 3713 922 3314 415 
Q 2916 -91 2278 -91 
Q 1894 -91 1617 61 
Q 1341 213 1159 525 
z
M 3116 1747 
Q 3116 2381 2855 2742 
Q 2594 3103 2138 3103 
Q 1681 3103 1420 2742 
Q 1159 2381 1159 1747 
Q 1159 1113 1420 752 
Q 1681 391 2138 391 
Q 2594 391 2855 752 
Q 3116 1113 3116 1747 
z
" transform="scale(0.015625)"/>
      <path id="DejaVuSans-6f" d="M 1959 3097 
Q 1497 3097 1228 2736 
Q 959 2375 959 1747 
Q 959 1119 1226 758 
Q 1494 397 1959 397 
Q 2419 397 2687 759 
Q 2956 1122 2956 1747 
Q 2956 2369 2687 2733 
Q 2419 3097 1959 3097 
z
M 1959 3584 
Q 2709 3584 3137 3096 
Q 3566 2609 3566 1747 
Q 3566 888 3137 398 
Q 2709 -91 1959 -91 
Q 1206 -91 779 398 
Q 353 888 353 1747 
Q 353 2609 779 3096 
Q 1206 3584 1959 3584 
z
" transform="scale(0.015625)"/>
      <path id="DejaVuSans-5e" d="M 2988 4666 
L 4684 2925 
L 4056 2925 
L 2681 4159 
L 1306 2925 
L 678 2925 
L 2375 4666 
L 2988 4666 
z
" transform="scale(0.015625)"/>
     </defs>
     <use xlink:href="#DejaVuSans-73"/>
     <use xlink:href="#DejaVuSans-63" transform="translate(52.099609 0)"/>
     <use xlink:href="#DejaVuSans-61" transform="translate(107.080078 0)"/>
     <use xlink:href="#DejaVuSans-74" transform="translate(168.359375 0)"/>
     <use xlink:href="#DejaVuSans-74" transform="translate(207.568359 0)"/>
     <use xlink:href="#DejaVuSans-65" transform="translate(246.777344 0)"/>
     <use xlink:href="#DejaVuSans-72" transform="translate(308.300781 0)"/>
     <use xlink:href="#DejaVuSans-3a" transform="translate(347.664062 0)"/>
     <use xlink:href="#DejaVuSans-20" transform="translate(381.355469 0)"/>
     <use xlink:href="#DejaVuSans-73" transform="translate(413.142578 0)"/>
     <use xlink:href="#DejaVuSans-69" transform="translate(465.242188 0)"/>
     <use xlink:href="#DejaVuSans-7a" transform="translate(493.025391 0)"/>
     <use xlink:href="#DejaVuSans-65" transform="translate(545.515625 0)"/>
     <use xlink:href="#DejaVuSans-73" transform="translate(607.039062 0)"/>
     <use xlink:href="#DejaVuSans-20" transform="translate(659.138672 0)"/>
     <use xlink:href="#DejaVuSans-69" transform="translate(690.925781 0)"/>
     <use xlink:href="#DejaVuSans-6e" transform="translate(718.708984 0)"/>
     <use xlink:href="#DejaVuSans-20" transform="translate(782.087891 0)"/>
     <use xlink:href="#DejaVuSans-70" transform="translate(813.875 0)"/>
     <use xlink:href="#DejaVuSans-6f" transform="translate(877.351562 0)"/>
     <use xlink:href="#DejaVuSans-69" transform="translate(938.533203 0)"/>
     <use xlink:href="#DejaVuSans-6e" transform="translate(966.316406 0)"/>
     <use xlink:href="#DejaVuSans-74" transform="translate(1029.695312 0)"/>
     <use xlink:href="#DejaVuSans-73" transform="translate(1068.904297 0)"/>
     <use xlink:href="#DejaVuSans-5e" transform="translate(1121.003906 0)"/>
     <use xlink:href="#DejaVuSans-32" transform="translate(1204.792969 0)"/>
    </g>
   </g>
   <g id="legend_1">
    <g id="patch_7">
     <path d="M 302.868438 302.584 
L 407.72 302.584 
Q 409.72 302.584 409.72 300.584 
L 409.72 272.22775 
Q 409.72 270.22775 407.72 270.22775 
L 302.868438 270.22775 
Q 300.868438 270.22775 300.868438 272.22775 
L 300.868438 300.584 
Q 300.868438 302.584 302.868438 302.584 
z
" style="fill: #ffffff; opacity: 0.8; stroke: #cccccc; stroke-linejoin: miter"/>
    </g>
    <g id="PathCollection_3">
     <defs>
      <path id="m8f6f69d009" d="M 0 4.548351 
C 1.206237 4.548351 2.363232 4.069108 3.21617 3.21617 
C 4.069108 2.363232 4.548351 1.206237 4.548351 0 
C 4.548351 -1.206237 4.069108 -2.363232 3.21617 -3.21617 
C 2.363232 -4.069108 1.206237 -4.548351 0 -4.548351 
C -1.206237 -4.548351 -2.363232 -4.069108 -3.21617 -3.21617 
C -4.069108 -2.363232 -4.548351 -1.206237 -4.548351 0 
C -4.548351 1.206237 -4.069108 2.363232 -3.21617 3.21617 
C -2.363232 4.069108 -1.206237 4.548351 0 4.548351 
z
" style="stroke: #1f77b4"/>
     </defs>
     <g>
      <use xlink:href="#m8f6f69d009" x="314.868438" y="279.201187" style="fill: #1f77b4; stroke: #1f77b4"/>
     </g>
    </g>
    <g id="text_12">
     <!-- swirl -->
     <g transform="translate(332.868438 281.826187) scale(0.1 -0.1)">
      <defs>
       <path id="DejaVuSans-77" d="M 269 3500 
L 844 3500 
L 1563 769 
L 2278 3500 
L 2956 3500 
L 3675 769 
L 4391 3500 
L 4966 3500 
L 4050 0 
L 3372 0 
L 2619 2869 
L 1863 0 
L 1184 0 
L 269 3500 
z
" transform="scale(0.015625)"/>
       <path id="DejaVuSans-6c" d="M 603 4863 
L 1178 4863 
L 1178 0 
L 603 0 
L 603 4863 
z
" transform="scale(0.015625)"/>
      </defs>
      <use xlink:href="#DejaVuSans-73"/>
      <use xlink:href="#DejaVuSans-77" transform="translate(52.099609 0)"/>
      <use xlink:href="#DejaVuSans-69" transform="translate(133.886719 0)"/>
      <use xlink:href="#DejaVuSans-72" transform="translate(161.669922 0)"/>
      <use xlink:href="#DejaVuSans-6c" transform="translate(202.783203 0)"/>
     </g>
    </g>
    <g id="PathCollection_4">
     <g>
      <use xlink:href="#md8a7656317" x="314.868438" y="293.879312" style="fill: #ff7f0e; fill-opacity: 0.7; stroke: #ff7f0e; stroke-opacity: 0.7"/>
     </g>
    </g>
    <g id="text_13">
     <!-- second cluster -->
     <g transform="translate(332.868438 296.504312) scale(0.1 -0.1)">
      <defs>
       <path id="DejaVuSans-64" d="M 2906 2969 
L 2906 4863 
L 3481 4863 
L 3481 0 
L 2906 0 
L 2906 525 
Q 2725 213 2448 61 
Q 2172 -91 1784 -91 
Q 1150 -91 751 415 
Q 353 922 353 1747 
Q 353 2572 751 3078 
Q 1150 3584 1784 3584 
Q 2172 3584 2448 3432 
Q 2725 3281 2906 2969 
z
M 947 1747 
Q 947 1113 1208 752 
Q 1469 391 1925 391 
Q 2381 391 2643 752 
Q 2906 1113 2906 1747 
Q 2906 2381 2643 2742 
Q 2381 3103 1925 3103 
Q 1469 3103 1208 2742 
Q 947 2381 947 1747 
z
" transform="scale(0.015625)"/>
       <path id="DejaVuSans-75" d="M 544 1381 
L 544 3500 
L 1119 3500 
L 1119 1403 
Q 1119 906 1312 657 
Q 1506 409 1894 409 
Q 2359 409 2629 706 
Q 2900 1003 2900 1516 
L 2900 3500 
L 3475 3500 
L 3475 0 
L 2900 0 
L 2900 538 
Q 2691 219 2414 64 
Q 2138 -91 1772 -91 
Q 1169 -91 856 284 
Q 544 659 544 1381 
z
M 1991 3584 
L 1991 3584 
z
" transform="scale(0.015625)"/>
      </defs>
      <use xlink:href="#DejaVuSans-73"/>
      <use xlink:href="#DejaVuSans-65" transform="translate(52.099609 0)"/>
      <use xlink:href="#DejaVuSans-63" transform="translate(113.623047 0)"/>
      <use xlink:href="#DejaVuSans-6f" transform="translate(168.603516 0)"/>
      <use xlink:href="#DejaVuSans-6e" transform="translate(229.785156 0)"/>
      <use xlink:href="#DejaVuSans-64" transform="translate(293.164062 0)"/>
      <use xlink:href="#DejaVuSans-20" transform="translate(356.640625 0)"/>
      <use xlink:href="#DejaVuSans-63" transform="translate(388.427734 0)"/>
      <use xlink:href="#DejaVuSans-6c" transform="translate(443.408203 0)"/>
      <use xlink:href="#DejaVuSans-75" transform="translate(471.191406 0)"/>
      <use xlink:href="#DejaVuSans-73" transform="translate(534.570312 0)"/>
      <use xlink:href="#DejaVuSans-74" transform="translate(586.669922 0)"/>
      <use xlink:href="#DejaVuSans-65" transform="translate(625.878906 0)"/>
      <use xlink:href="#DejaVuSans-72" transform="translate(687.402344 0)"/>
     </g>
    </g>
   </g>
  </g>
 </g>
 <defs>
  <clipPath id="p97b36d5fdd">
   <rect x="57.6" y="41.472" width="357.12" height="266.112"/>
  </clipPath>
 </defs>
</svg>
