<?xml version="1.0" encoding="utf-8" standalone="no"?>
<!DOCTYPE svg PUBLIC "-//W3C//DTD SVG 1.1//EN"
  "http://www.w3.org/Graphics/SVG/1.1/DTD/svg11.dtd">
<svg xmlns:xlink="http://www.w3.org/1999/xlink" width="648pt" height="468pt" viewBox="0 0 648 468" xmlns="http://www.w3.org/2000/svg" version="1.1">
 <metadata>
  <rdf:RDF xmlns:dc="http://purl.org/dc/elements/1.1/" xmlns:cc="http://creativecommons.org/ns#" xmlns:rdf="http://www.w3.org/1999/02/22-rdf-syntax-ns#">
   <cc:Work>
    <dc:type rdf:resource="http://purl.org/dc/dcmitype/StillImage"/>
    <dc:format>image/svg+xml</dc:format>
    <dc:creator>
     <cc:Agent>
      <dc:title>Matplotlib v3.10.8, https://matplotlib.org/</dc:title>
     </cc:Agent>
    </dc:creator>
   </cc:Work>
  </rdf:RDF>
 </metadata>
 <defs>
  <style type="text/css">*{stroke-linejoin: round; stroke-linecap: butt}</style>
 </defs>
 <g id="figure_1">
  <g id="patch_1">
   <path d="M 0 468 
L 648 468 
L 648 0 
L 0 0 
z
" style="fill: #ffffff"/>
  </g>
  <g id="axes_1">
   <g id="patch_2">
    <path d="M 56.09 231.19 
L 600.28 231.19 
L 600.28 50.64 
L 56.09 50.64 
z
" style="fill: #ffffff"/>
   </g>
   <g id="FillBetweenPolyCollection_1">
    <defs>
     <path id="ma55a1ac90a" d="M 80.825909 -245.016818 
L 80.825909 -409.153182 
L 82.065804 -408.68925 
L 83.305699 -408.227941 
L 84.545595 -407.76924 
L 85.78549 -407.313132 
L 87.025385 -406.859603 
L 88.26528 -406.408637 
L 89.505175 -405.96022 
L 90.745071 -405.514338 
L 91.984966 -405.070977 
L 93.224861 -404.630123 
L 94.464756 -404.19176 
L 95.704651 -403.755875 
L 96.944547 -403.322455 
L 98.184442 -402.891484 
L 99.424337 -402.46295 
L 100.664232 -402.036839 
L 101.904127 -401.613136 
L 103.144023 -401.191828 
L 104.383918 -400.772902 
L 105.623813 -400.356345 
L 106.863708 -399.942142 
L 108.103603 -399.53028 
L 109.343499 -399.120747 
L 110.583394 -398.713529 
L 111.823289 -398.308613 
L 113.063184 -397.905986 
L 114.303079 -397.505635 
L 115.542974 -397.107547 
L 116.78287 -396.711709 
L 118.022765 -396.318109 
L 119.26266 -395.926734 
L 120.502555 -395.537572 
L 121.74245 -395.15061 
L 122.982346 -394.765835 
L 124.222241 -394.383235 
L 125.462136 -394.002798 
L 126.702031 -393.624512 
L 127.941926 -393.248364 
L 129.181822 -392.874342 
L 130.421717 -392.502435 
L 131.661612 -392.13263 
L 132.901507 -391.764916 
L 134.141402 -391.39928 
L 135.381298 -391.035712 
L 136.621193 -390.674198 
L 137.861088 -390.314728 
L 139.100983 -389.957291 
L 140.340878 -389.601874 
L 141.580774 -389.248466 
L 142.820669 -388.897056 
L 144.060564 -388.547632 
L 145.300459 -388.200184 
L 146.540354 -387.854699 
L 147.780249 -387.511168 
L 149.020145 -387.169579 
L 150.26004 -386.829921 
L 151.499935 -386.492183 
L 152.73983 -386.156354 
L 153.979725 -385.822424 
L 155.219621 -385.490381 
L 156.459516 -385.160215 
L 157.699411 -384.831916 
L 158.939306 -384.505473 
L 160.179201 -384.180875 
L 161.419097 -383.858112 
L 162.658992 -383.537173 
L 163.898887 -383.218049 
L 165.138782 -382.900729 
L 166.378677 -382.585203 
L 167.618573 -382.27146 
L 168.858468 -381.959491 
L 170.098363 -381.649285 
L 171.338258 -381.340833 
L 172.578153 -381.034125 
L 173.818049 -380.729151 
L 175.057944 -380.4259 
L 176.297839 -380.124364 
L 177.537734 -379.824532 
L 178.777629 -379.526396 
L 180.017524 -379.229945 
L 181.25742 -378.935169 
L 182.497315 -378.64206 
L 183.73721 -378.350608 
L 184.977105 -378.060804 
L 186.217 -377.772637 
L 187.456896 -377.4861 
L 188.696791 -377.201183 
L 189.936686 -376.917876 
L 191.176581 -376.63617 
L 192.416476 -376.356058 
L 193.656372 -376.077528 
L 194.896267 -375.800574 
L 196.136162 -375.525184 
L 197.376057 -375.251352 
L 198.615952 -374.979068 
L 199.855848 -374.708322 
L 201.095743 -374.439108 
L 202.335638 -374.171415 
L 203.575533 -373.905235 
L 204.815428 -373.640561 
L 206.055324 -373.377382 
L 207.295219 -373.115691 
L 208.535114 -372.85548 
L 209.775009 -372.596739 
L 211.014904 -372.339461 
L 212.254799 -372.083638 
L 213.494695 -371.82926 
L 214.73459 -371.576321 
L 215.974485 -371.324811 
L 217.21438 -371.074724 
L 218.454275 -370.82605 
L 219.694171 -370.578782 
L 220.934066 -370.332911 
L 222.173961 -370.088431 
L 223.413856 -369.845332 
L 224.653751 -369.603608 
L 225.893647 -369.36325 
L 227.133542 -369.124251 
L 228.373437 -368.886604 
L 229.613332 -368.650299 
L 230.853227 -368.41533 
L 232.093123 -368.18169 
L 233.333018 -367.94937 
L 234.572913 -367.718364 
L 235.812808 -367.488664 
L 237.052703 -367.260262 
L 238.292599 -367.033151 
L 239.532494 -366.807324 
L 240.772389 -366.582774 
L 242.012284 -366.359493 
L 243.252179 -366.137474 
L 244.492075 -365.91671 
L 245.73197 -365.697195 
L 246.971865 -365.47892 
L 248.21176 -365.261879 
L 249.451655 -365.046065 
L 250.69155 -364.831471 
L 251.931446 -364.61809 
L 253.171341 -364.405916 
L 254.411236 -364.194941 
L 255.651131 -363.985158 
L 256.891026 -363.776561 
L 258.130922 -363.569144 
L 259.370817 -363.362899 
L 260.610712 -363.15782 
L 261.850607 -362.9539 
L 263.090502 -362.751134 
L 264.330398 -362.549513 
L 265.570293 -362.349032 
L 266.810188 -362.149684 
L 268.050083 -361.951464 
L 269.289978 -361.754364 
L 270.529874 -361.558378 
L 271.769769 -361.3635 
L 273.009664 -361.169723 
L 274.249559 -360.977042 
L 275.489454 -360.785451 
L 276.72935 -360.594942 
L 277.969245 -360.40551 
L 279.20914 -360.217149 
L 280.449035 -360.029853 
L 281.68893 -359.843616 
L 282.928825 -359.658431 
L 284.168721 -359.474294 
L 285.408616 -359.291197 
L 286.648511 -359.109135 
L 287.888406 -358.928103 
L 289.128301 -358.748094 
L 290.368197 -358.569102 
L 291.608092 -358.391123 
L 292.847987 -358.214149 
L 294.087882 -358.038176 
L 295.327777 -357.863198 
L 296.567673 -357.689209 
L 297.807568 -357.516203 
L 299.047463 -357.344175 
L 300.287358 -357.17312 
L 301.527253 -357.003032 
L 302.767149 -356.833905 
L 304.007044 -356.665735 
L 305.246939 -356.498515 
L 306.486834 -356.33224 
L 307.726729 -356.166906 
L 308.966625 -356.002506 
L 310.20652 -355.839035 
L 311.446415 -355.676488 
L 312.68631 -355.514861 
L 313.926205 -355.354147 
L 315.1661 -355.194341 
L 316.405996 -355.035439 
L 317.645891 -354.877435 
L 318.885786 -354.720324 
L 320.125681 -354.564102 
L 321.365576 -354.408763 
L 322.605472 -354.254301 
L 323.845367 -354.100713 
L 325.085262 -353.947993 
L 326.325157 -353.796137 
L 327.565052 -353.645139 
L 328.804948 -353.494994 
L 330.044843 -353.345699 
L 331.284738 -353.197247 
L 332.524633 -353.049634 
L 333.764528 -352.902856 
L 335.004424 -352.756908 
L 336.244319 -352.611785 
L 337.484214 -352.467482 
L 338.724109 -352.323994 
L 339.964004 -352.181318 
L 341.2039 -352.039449 
L 342.443795 -351.898381 
L 343.68369 -351.758111 
L 344.923585 -351.618634 
L 346.16348 -351.479946 
L 347.403375 -351.342041 
L 348.643271 -351.204916 
L 349.883166 -351.068566 
L 351.123061 -350.932987 
L 352.362956 -350.798174 
L 353.602851 -350.664124 
L 354.842747 -350.530831 
L 356.082642 -350.398291 
L 357.322537 -350.266501 
L 358.562432 -350.135456 
L 359.802327 -350.005152 
L 361.042223 -349.875584 
L 362.282118 -349.746749 
L 363.522013 -349.618642 
L 364.761908 -349.49126 
L 366.001803 -349.364597 
L 367.241699 -349.238651 
L 368.481594 -349.113416 
L 369.721489 -348.988889 
L 370.961384 -348.865067 
L 372.201279 -348.741944 
L 373.441175 -348.619517 
L 374.68107 -348.497782 
L 375.920965 -348.376736 
L 377.16086 -348.256374 
L 378.400755 -348.136692 
L 379.64065 -348.017687 
L 380.880546 -347.899354 
L 382.120441 -347.781691 
L 383.360336 -347.664692 
L 384.600231 -347.548355 
L 385.840126 -347.432676 
L 387.080022 -347.317651 
L 388.319917 -347.203275 
L 389.559812 -347.089547 
L 390.799707 -346.976461 
L 392.039602 -346.864015 
L 393.279498 -346.752204 
L 394.519393 -346.641025 
L 395.759288 -346.530475 
L 396.999183 -346.42055 
L 398.239078 -346.311246 
L 399.478974 -346.20256 
L 400.718869 -346.094488 
L 401.958764 -345.987027 
L 403.198659 -345.880174 
L 404.438554 -345.773925 
L 405.67845 -345.668277 
L 406.918345 -345.563225 
L 408.15824 -345.458768 
L 409.398135 -345.354901 
L 410.63803 -345.251621 
L 411.877925 -345.148925 
L 413.117821 -345.04681 
L 414.357716 -344.945272 
L 415.597611 -344.844308 
L 416.837506 -344.743914 
L 418.077401 -344.644088 
L 419.317297 -344.544827 
L 420.557192 -344.446127 
L 421.797087 -344.347984 
L 423.036982 -344.250396 
L 424.276877 -344.15336 
L 425.516773 -344.056873 
L 426.756668 -343.960931 
L 427.996563 -343.865531 
L 429.236458 -343.770671 
L 430.476353 -343.676347 
L 431.716249 -343.582556 
L 432.956144 -343.489295 
L 434.196039 -343.396562 
L 435.435934 -343.304352 
L 436.675829 -343.212664 
L 437.915725 -343.121495 
L 439.15562 -343.03084 
L 440.395515 -342.940699 
L 441.63541 -342.851066 
L 442.875305 -342.761941 
L 444.115201 -342.673319 
L 445.355096 -342.585198 
L 446.594991 -342.497576 
L 447.834886 -342.410448 
L 449.074781 -342.323814 
L 450.314676 -342.237668 
L 451.554572 -342.15201 
L 452.794467 -342.066837 
L 454.034362 -341.982144 
L 455.274257 -341.897931 
L 456.514152 -341.814193 
L 457.754048 -341.730929 
L 458.993943 -341.648136 
L 460.233838 -341.56581 
L 461.473733 -341.48395 
L 462.713628 -341.402553 
L 463.953524 -341.321616 
L 465.193419 -341.241136 
L 466.433314 -341.161112 
L 467.673209 -341.081539 
L 468.913104 -341.002417 
L 470.153 -340.923742 
L 471.392895 -340.845511 
L 472.63279 -340.767723 
L 473.872685 -340.690375 
L 475.11258 -340.613463 
L 476.352476 -340.536987 
L 477.592371 -340.460943 
L 478.832266 -340.385329 
L 480.072161 -340.310142 
L 481.312056 -340.23538 
L 482.551951 -340.161041 
L 483.791847 -340.087122 
L 485.031742 -340.013621 
L 486.271637 -339.940536 
L 487.511532 -339.867863 
L 488.751427 -339.795602 
L 489.991323 -339.723749 
L 491.231218 -339.652302 
L 492.471113 -339.581259 
L 493.711008 -339.510618 
L 494.950903 -339.440376 
L 496.190799 -339.370531 
L 497.430694 -339.30108 
L 498.670589 -339.232023 
L 499.910484 -339.163356 
L 501.150379 -339.095077 
L 502.390275 -339.027184 
L 503.63017 -338.959675 
L 504.870065 -338.892547 
L 506.10996 -338.825799 
L 507.349855 -338.759428 
L 508.589751 -338.693433 
L 509.829646 -338.62781 
L 511.069541 -338.562559 
L 512.309436 -338.497676 
L 513.549331 -338.43316 
L 514.789226 -338.369009 
L 516.029122 -338.305221 
L 517.269017 -338.241793 
L 518.508912 -338.178723 
L 519.748807 -338.116011 
L 520.988702 -338.053652 
L 522.228598 -337.991646 
L 523.468493 -337.929991 
L 524.708388 -337.868684 
L 525.948283 -337.807724 
L 527.188178 -337.747109 
L 528.428074 -337.686836 
L 529.667969 -337.626904 
L 530.907864 -337.56731 
L 532.147759 -337.508054 
L 533.387654 -337.449132 
L 534.62755 -337.390544 
L 535.867445 -337.332286 
L 537.10734 -337.274359 
L 538.347235 -337.216758 
L 539.58713 -337.159483 
L 540.827026 -337.102532 
L 542.066921 -337.045903 
L 543.306816 -336.989594 
L 544.546711 -336.933603 
L 545.786606 -336.877929 
L 547.026501 -336.82257 
L 548.266397 -336.767523 
L 549.506292 -336.712788 
L 550.746187 -336.658362 
L 551.986082 -336.604244 
L 553.225977 -336.550432 
L 554.465873 -336.496924 
L 555.705768 -336.443718 
L 556.945663 -336.390813 
L 558.185558 -336.338207 
L 559.425453 -336.285899 
L 560.665349 -336.233886 
L 561.905244 -336.182168 
L 563.145139 -336.130741 
L 564.385034 -336.079606 
L 565.624929 -336.028759 
L 566.864825 -335.9782 
L 568.10472 -335.927927 
L 569.344615 -335.877938 
L 570.58451 -335.828231 
L 571.824405 -335.778806 
L 573.064301 -335.72966 
L 574.304196 -335.680791 
L 575.544091 -335.632199 
L 575.544091 -318.537801 
L 575.544091 -318.537801 
L 574.304196 -318.489209 
L 573.064301 -318.44034 
L 571.824405 -318.391194 
L 570.58451 -318.341769 
L 569.344615 -318.292062 
L 568.10472 -318.242073 
L 566.864825 -318.1918 
L 565.624929 -318.141241 
L 564.385034 -318.090394 
L 563.145139 -318.039259 
L 561.905244 -317.987832 
L 560.665349 -317.936114 
L 559.425453 -317.884101 
L 558.185558 -317.831793 
L 556.945663 -317.779187 
L 555.705768 -317.726282 
L 554.465873 -317.673076 
L 553.225977 -317.619568 
L 551.986082 -317.565756 
L 550.746187 -317.511638 
L 549.506292 -317.457212 
L 548.266397 -317.402477 
L 547.026501 -317.34743 
L 545.786606 -317.292071 
L 544.546711 -317.236397 
L 543.306816 -317.180406 
L 542.066921 -317.124097 
L 540.827026 -317.067468 
L 539.58713 -317.010517 
L 538.347235 -316.953242 
L 537.10734 -316.895641 
L 535.867445 -316.837714 
L 534.62755 -316.779456 
L 533.387654 -316.720868 
L 532.147759 -316.661946 
L 530.907864 -316.60269 
L 529.667969 -316.543096 
L 528.428074 -316.483164 
L 527.188178 -316.422891 
L 525.948283 -316.362276 
L 524.708388 -316.301316 
L 523.468493 -316.240009 
L 522.228598 -316.178354 
L 520.988702 -316.116348 
L 519.748807 -316.053989 
L 518.508912 -315.991277 
L 517.269017 -315.928207 
L 516.029122 -315.864779 
L 514.789226 -315.800991 
L 513.549331 -315.73684 
L 512.309436 -315.672324 
L 511.069541 -315.607441 
L 509.829646 -315.54219 
L 508.589751 -315.476567 
L 507.349855 -315.410572 
L 506.10996 -315.344201 
L 504.870065 -315.277453 
L 503.63017 -315.210325 
L 502.390275 -315.142816 
L 501.150379 -315.074923 
L 499.910484 -315.006644 
L 498.670589 -314.937977 
L 497.430694 -314.86892 
L 496.190799 -314.799469 
L 494.950903 -314.729624 
L 493.711008 -314.659382 
L 492.471113 -314.588741 
L 491.231218 -314.517698 
L 489.991323 -314.446251 
L 488.751427 -314.374398 
L 487.511532 -314.302137 
L 486.271637 -314.229464 
L 485.031742 -314.156379 
L 483.791847 -314.082878 
L 482.551951 -314.008959 
L 481.312056 -313.93462 
L 480.072161 -313.859858 
L 478.832266 -313.784671 
L 477.592371 -313.709057 
L 476.352476 -313.633013 
L 475.11258 -313.556537 
L 473.872685 -313.479625 
L 472.63279 -313.402277 
L 471.392895 -313.324489 
L 470.153 -313.246258 
L 468.913104 -313.167583 
L 467.673209 -313.088461 
L 466.433314 -313.008888 
L 465.193419 -312.928864 
L 463.953524 -312.848384 
L 462.713628 -312.767447 
L 461.473733 -312.68605 
L 460.233838 -312.60419 
L 458.993943 -312.521864 
L 457.754048 -312.439071 
L 456.514152 -312.355807 
L 455.274257 -312.272069 
L 454.034362 -312.187856 
L 452.794467 -312.103163 
L 451.554572 -312.01799 
L 450.314676 -311.932332 
L 449.074781 -311.846186 
L 447.834886 -311.759552 
L 446.594991 -311.672424 
L 445.355096 -311.584802 
L 444.115201 -311.496681 
L 442.875305 -311.408059 
L 441.63541 -311.318934 
L 440.395515 -311.229301 
L 439.15562 -311.13916 
L 437.915725 -311.048505 
L 436.675829 -310.957336 
L 435.435934 -310.865648 
L 434.196039 -310.773438 
L 432.956144 -310.680705 
L 431.716249 -310.587444 
L 430.476353 -310.493653 
L 429.236458 -310.399329 
L 427.996563 -310.304469 
L 426.756668 -310.209069 
L 425.516773 -310.113127 
L 424.276877 -310.01664 
L 423.036982 -309.919604 
L 421.797087 -309.822016 
L 420.557192 -309.723873 
L 419.317297 -309.625173 
L 418.077401 -309.525912 
L 416.837506 -309.426086 
L 415.597611 -309.325692 
L 414.357716 -309.224728 
L 413.117821 -309.12319 
L 411.877925 -309.021075 
L 410.63803 -308.918379 
L 409.398135 -308.815099 
L 408.15824 -308.711232 
L 406.918345 -308.606775 
L 405.67845 -308.501723 
L 404.438554 -308.396075 
L 403.198659 -308.289826 
L 401.958764 -308.182973 
L 400.718869 -308.075512 
L 399.478974 -307.96744 
L 398.239078 -307.858754 
L 396.999183 -307.74945 
L 395.759288 -307.639525 
L 394.519393 -307.528975 
L 393.279498 -307.417796 
L 392.039602 -307.305985 
L 390.799707 -307.193539 
L 389.559812 -307.080453 
L 388.319917 -306.966725 
L 387.080022 -306.852349 
L 385.840126 -306.737324 
L 384.600231 -306.621645 
L 383.360336 -306.505308 
L 382.120441 -306.388309 
L 380.880546 -306.270646 
L 379.64065 -306.152313 
L 378.400755 -306.033308 
L 377.16086 -305.913626 
L 375.920965 -305.793264 
L 374.68107 -305.672218 
L 373.441175 -305.550483 
L 372.201279 -305.428056 
L 370.961384 -305.304933 
L 369.721489 -305.181111 
L 368.481594 -305.056584 
L 367.241699 -304.931349 
L 366.001803 -304.805403 
L 364.761908 -304.67874 
L 363.522013 -304.551358 
L 362.282118 -304.423251 
L 361.042223 -304.294416 
L 359.802327 -304.164848 
L 358.562432 -304.034544 
L 357.322537 -303.903499 
L 356.082642 -303.771709 
L 354.842747 -303.639169 
L 353.602851 -303.505876 
L 352.362956 -303.371826 
L 351.123061 -303.237013 
L 349.883166 -303.101434 
L 348.643271 -302.965084 
L 347.403375 -302.827959 
L 346.16348 -302.690054 
L 344.923585 -302.551366 
L 343.68369 -302.411889 
L 342.443795 -302.271619 
L 341.2039 -302.130551 
L 339.964004 -301.988682 
L 338.724109 -301.846006 
L 337.484214 -301.702518 
L 336.244319 -301.558215 
L 335.004424 -301.413092 
L 333.764528 -301.267144 
L 332.524633 -301.120366 
L 331.284738 -300.972753 
L 330.044843 -300.824301 
L 328.804948 -300.675006 
L 327.565052 -300.524861 
L 326.325157 -300.373863 
L 325.085262 -300.222007 
L 323.845367 -300.069287 
L 322.605472 -299.915699 
L 321.365576 -299.761237 
L 320.125681 -299.605898 
L 318.885786 -299.449676 
L 317.645891 -299.292565 
L 316.405996 -299.134561 
L 315.1661 -298.975659 
L 313.926205 -298.815853 
L 312.68631 -298.655139 
L 311.446415 -298.493512 
L 310.20652 -298.330965 
L 308.966625 -298.167494 
L 307.726729 -298.003094 
L 306.486834 -297.83776 
L 305.246939 -297.671485 
L 304.007044 -297.504265 
L 302.767149 -297.336095 
L 301.527253 -297.166968 
L 300.287358 -296.99688 
L 299.047463 -296.825825 
L 297.807568 -296.653797 
L 296.567673 -296.480791 
L 295.327777 -296.306802 
L 294.087882 -296.131824 
L 292.847987 -295.955851 
L 291.608092 -295.778877 
L 290.368197 -295.600898 
L 289.128301 -295.421906 
L 287.888406 -295.241897 
L 286.648511 -295.060865 
L 285.408616 -294.878803 
L 284.168721 -294.695706 
L 282.928825 -294.511569 
L 281.68893 -294.326384 
L 280.449035 -294.140147 
L 279.20914 -293.952851 
L 277.969245 -293.76449 
L 276.72935 -293.575058 
L 275.489454 -293.384549 
L 274.249559 -293.192958 
L 273.009664 -293.000277 
L 271.769769 -292.8065 
L 270.529874 -292.611622 
L 269.289978 -292.415636 
L 268.050083 -292.218536 
L 266.810188 -292.020316 
L 265.570293 -291.820968 
L 264.330398 -291.620487 
L 263.090502 -291.418866 
L 261.850607 -291.2161 
L 260.610712 -291.01218 
L 259.370817 -290.807101 
L 258.130922 -290.600856 
L 256.891026 -290.393439 
L 255.651131 -290.184842 
L 254.411236 -289.975059 
L 253.171341 -289.764084 
L 251.931446 -289.55191 
L 250.69155 -289.338529 
L 249.451655 -289.123935 
L 248.21176 -288.908121 
L 246.971865 -288.69108 
L 245.73197 -288.472805 
L 244.492075 -288.25329 
L 243.252179 -288.032526 
L 242.012284 -287.810507 
L 240.772389 -287.587226 
L 239.532494 -287.362676 
L 238.292599 -287.136849 
L 237.052703 -286.909738 
L 235.812808 -286.681336 
L 234.572913 -286.451636 
L 233.333018 -286.22063 
L 232.093123 -285.98831 
L 230.853227 -285.75467 
L 229.613332 -285.519701 
L 228.373437 -285.283396 
L 227.133542 -285.045749 
L 225.893647 -284.80675 
L 224.653751 -284.566392 
L 223.413856 -284.324668 
L 222.173961 -284.081569 
L 220.934066 -283.837089 
L 219.694171 -283.591218 
L 218.454275 -283.34395 
L 217.21438 -283.095276 
L 215.974485 -282.845189 
L 214.73459 -282.593679 
L 213.494695 -282.34074 
L 212.254799 -282.086362 
L 211.014904 -281.830539 
L 209.775009 -281.573261 
L 208.535114 -281.31452 
L 207.295219 -281.054309 
L 206.055324 -280.792618 
L 204.815428 -280.529439 
L 203.575533 -280.264765 
L 202.335638 -279.998585 
L 201.095743 -279.730892 
L 199.855848 -279.461678 
L 198.615952 -279.190932 
L 197.376057 -278.918648 
L 196.136162 -278.644816 
L 194.896267 -278.369426 
L 193.656372 -278.092472 
L 192.416476 -277.813942 
L 191.176581 -277.53383 
L 189.936686 -277.252124 
L 188.696791 -276.968817 
L 187.456896 -276.6839 
L 186.217 -276.397363 
L 184.977105 -276.109196 
L 183.73721 -275.819392 
L 182.497315 -275.52794 
L 181.25742 -275.234831 
L 180.017524 -274.940055 
L 178.777629 -274.643604 
L 177.537734 -274.345468 
L 176.297839 -274.045636 
L 175.057944 -273.7441 
L 173.818049 -273.440849 
L 172.578153 -273.135875 
L 171.338258 -272.829167 
L 170.098363 -272.520715 
L 168.858468 -272.210509 
L 167.618573 -271.89854 
L 166.378677 -271.584797 
L 165.138782 -271.269271 
L 163.898887 -270.951951 
L 162.658992 -270.632827 
L 161.419097 -270.311888 
L 160.179201 -269.989125 
L 158.939306 -269.664527 
L 157.699411 -269.338084 
L 156.459516 -269.009785 
L 155.219621 -268.679619 
L 153.979725 -268.347576 
L 152.73983 -268.013646 
L 151.499935 -267.677817 
L 150.26004 -267.340079 
L 149.020145 -267.000421 
L 147.780249 -266.658832 
L 146.540354 -266.315301 
L 145.300459 -265.969816 
L 144.060564 -265.622368 
L 142.820669 -265.272944 
L 141.580774 -264.921534 
L 140.340878 -264.568126 
L 139.100983 -264.212709 
L 137.861088 -263.855272 
L 136.621193 -263.495802 
L 135.381298 -263.134288 
L 134.141402 -262.77072 
L 132.901507 -262.405084 
L 131.661612 -262.03737 
L 130.421717 -261.667565 
L 129.181822 -261.295658 
L 127.941926 -260.921636 
L 126.702031 -260.545488 
L 125.462136 -260.167202 
L 124.222241 -259.786765 
L 122.982346 -259.404165 
L 121.74245 -259.01939 
L 120.502555 -258.632428 
L 119.26266 -258.243266 
L 118.022765 -257.851891 
L 116.78287 -257.458291 
L 115.542974 -257.062453 
L 114.303079 -256.664365 
L 113.063184 -256.264014 
L 111.823289 -255.861387 
L 110.583394 -255.456471 
L 109.343499 -255.049253 
L 108.103603 -254.63972 
L 106.863708 -254.227858 
L 105.623813 -253.813655 
L 104.383918 -253.397098 
L 103.144023 -252.978172 
L 101.904127 -252.556864 
L 100.664232 -252.133161 
L 99.424337 -251.70705 
L 98.184442 -251.278516 
L 96.944547 -250.847545 
L 95.704651 -250.414125 
L 94.464756 -249.97824 
L 93.224861 -249.539877 
L 91.984966 -249.099023 
L 90.745071 -248.655662 
L 89.505175 -248.20978 
L 88.26528 -247.761363 
L 87.025385 -247.310397 
L 85.78549 -246.856868 
L 84.545595 -246.40076 
L 83.305699 -245.942059 
L 82.065804 -245.48075 
L 80.825909 -245.016818 
z
" style="stroke: #1f77b4; stroke-opacity: 0.2"/>
    </defs>
    <g clip-path="url(#p91e8daf41d)">
     <use xlink:href="#ma55a1ac90a" x="0" y="468" style="fill: #1f77b4; fill-opacity: 0.2; stroke: #1f77b4; stroke-opacity: 0.2"/>
    </g>
   </g>
   <g id="matplotlib.axis_1">
    <g id="xtick_1">
     <g id="line2d_1">
      <defs>
       <path id="ma24f9baa4d" d="M 0 0 
L 0 3.5 
" style="stroke: #000000; stroke-width: 0.8"/>
      </defs>
      <g>
       <use xlink:href="#ma24f9baa4d" x="80.825909" y="231.19" style="stroke: #000000; stroke-width: 0.8"/>
      </g>
     </g>
    </g>
    <g id="xtick_2">
     <g id="line2d_2">
      <g>
       <use xlink:href="#ma24f9baa4d" x="159.562753" y="231.19" style="stroke: #000000; stroke-width: 0.8"/>
      </g>
     </g>
    </g>
    <g id="xtick_3">
     <g id="line2d_3">
      <g>
       <use xlink:href="#ma24f9baa4d" x="238.299597" y="231.19" style="stroke: #000000; stroke-width: 0.8"/>
      </g>
     </g>
    </g>
    <g id="xtick_4">
     <g id="line2d_4">
      <g>
       <use xlink:href="#ma24f9baa4d" x="317.036441" y="231.19" style="stroke: #000000; stroke-width: 0.8"/>
      </g>
     </g>
    </g>
    <g id="xtick_5">
     <g id="line2d_5">
      <g>
       <use xlink:href="#ma24f9baa4d" x="395.773285" y="231.19" style="stroke: #000000; stroke-width: 0.8"/>
      </g>
     </g>
    </g>
    <g id="xtick_6">
     <g id="line2d_6">
      <g>
       <use xlink:href="#ma24f9baa4d" x="474.510129" y="231.19" style="stroke: #000000; stroke-width: 0.8"/>
      </g>
     </g>
    </g>
    <g id="xtick_7">
     <g id="line2d_7">
      <g>
       <use xlink:href="#ma24f9baa4d" x="553.246974" y="231.19" style="stroke: #000000; stroke-width: 0.8"/>
      </g>
     </g>
    </g>
   </g>
   <g id="matplotlib.axis_2">
    <g id="ytick_1">
     <g id="line2d_8">
      <defs>
       <path id="me5fa53e8c6" d="M 0 0 
L -3.5 0 
" style="stroke: #000000; stroke-width: 0.8"/>
      </defs>
      <g>
       <use xlink:href="#me5fa53e8c6" x="56.09" y="222.983182" style="stroke: #000000; stroke-width: 0.8"/>
      </g>
     </g>
     <g id="text_1">
      <!-- −1.00 -->
      <g transform="translate(18.444688 226.782401) scale(0.1 -0.1)">
       <defs>
        <path id="DejaVuSans-2212" d="M 678 2272 
L 4684 2272 
L 4684 1741 
L 678 1741 
L 678 2272 
z
" transform="scale(0.015625)"/>
        <path id="DejaVuSans-31" d="M 794 531 
L 1825 531 
L 1825 4091 
L 703 3866 
L 703 4441 
L 1819 4666 
L 2450 4666 
L 2450 531 
L 3481 531 
L 3481 0 
L 794 0 
L 794 531 
z
" transform="scale(0.015625)"/>
        <path id="DejaVuSans-2e" d="M 684 794 
L 1344 794 
L 1344 0 
L 684 0 
L 684 794 
z
" transform="scale(0.015625)"/>
        <path id="DejaVuSans-30" d="M 2034 4250 
Q 1547 4250 1301 3770 
Q 1056 3291 1056 2328 
Q 1056 1369 1301 889 
Q 1547 409 2034 409 
Q 2525 409 2770 889 
Q 3016 1369 3016 2328 
Q 3016 3291 2770 3770 
Q 2525 4250 2034 4250 
z
M 2034 4750 
Q 2819 4750 3233 4129 
Q 3647 3509 3647 2328 
Q 3647 1150 3233 529 
Q 2819 -91 2034 -91 
Q 1250 -91 836 529 
Q 422 1150 422 2328 
Q 422 3509 836 4129 
Q 1250 4750 2034 4750 
z
" transform="scale(0.015625)"/>
       </defs>
       <use xlink:href="#DejaVuSans-2212"/>
       <use xlink:href="#DejaVuSans-31" transform="translate(83.789062 0)"/>
       <use xlink:href="#DejaVuSans-2e" transform="translate(147.412109 0)"/>
       <use xlink:href="#DejaVuSans-30" transform="translate(179.199219 0)"/>
       <use xlink:href="#DejaVuSans-30" transform="translate(242.822266 0)"/>
      </g>
     </g>
    </g>
    <g id="ytick_2">
     <g id="line2d_9">
      <g>
       <use xlink:href="#me5fa53e8c6" x="56.09" y="202.466136" style="stroke: #000000; stroke-width: 0.8"/>
      </g>
     </g>
     <g id="text_2">
      <!-- −0.75 -->
      <g transform="translate(18.444688 206.265355) scale(0.1 -0.1)">
       <defs>
        <path id="DejaVuSans-37" d="M 525 4666 
L 3525 4666 
L 3525 4397 
L 1831 0 
L 1172 0 
L 2766 4134 
L 525 4134 
L 525 4666 
z
" transform="scale(0.015625)"/>
        <path id="DejaVuSans-35" d="M 691 4666 
L 3169 4666 
L 3169 4134 
L 1269 4134 
L 1269 2991 
Q 1406 3038 1543 3061 
Q 1681 3084 1819 3084 
Q 2600 3084 3056 2656 
Q 3513 2228 3513 1497 
Q 3513 744 3044 326 
Q 2575 -91 1722 -91 
Q 1428 -91 1123 -41 
Q 819 9 494 109 
L 494 744 
Q 775 591 1075 516 
Q 1375 441 1709 441 
Q 2250 441 2565 725 
Q 2881 1009 2881 1497 
Q 2881 1984 2565 2268 
Q 2250 2553 1709 2553 
Q 1456 2553 1204 2497 
Q 953 2441 691 2322 
L 691 4666 
z
" transform="scale(0.015625)"/>
       </defs>
       <use xlink:href="#DejaVuSans-2212"/>
       <use xlink:href="#DejaVuSans-30" transform="translate(83.789062 0)"/>
       <use xlink:href="#DejaVuSans-2e" transform="translate(147.412109 0)"/>
       <use xlink:href="#DejaVuSans-37" transform="translate(179.199219 0)"/>
       <use xlink:href="#DejaVuSans-35" transform="translate(242.822266 0)"/>
      </g>
     </g>
    </g>
    <g id="ytick_3">
     <g id="line2d_10">
      <g>
       <use xlink:href="#me5fa53e8c6" x="56.09" y="181.949091" style="stroke: #000000; stroke-width: 0.8"/>
      </g>
     </g>
     <g id="text_3">
      <!-- −0.50 -->
      <g transform="translate(18.444688 185.74831) scale(0.1 -0.1)">
       <use xlink:href="#DejaVuSans-2212"/>
       <use xlink:href="#DejaVuSans-30" transform="translate(83.789062 0)"/>
       <use xlink:href="#DejaVuSans-2e" transform="translate(147.412109 0)"/>
       <use xlink:href="#DejaVuSans-35" transform="translate(179.199219 0)"/>
       <use xlink:href="#DejaVuSans-30" transform="translate(242.822266 0)"/>
      </g>
     </g>
    </g>
    <g id="ytick_4">
     <g id="line2d_11">
      <g>
       <use xlink:href="#me5fa53e8c6" x="56.09" y="161.432045" style="stroke: #000000; stroke-width: 0.8"/>
      </g>
     </g>
     <g id="text_4">
      <!-- −0.25 -->
      <g transform="translate(18.444688 165.231264) scale(0.1 -0.1)">
       <defs>
        <path id="DejaVuSans-32" d="M 1228 531 
L 3431 531 
L 3431 0 
L 469 0 
L 469 531 
Q 828 903 1448 1529 
Q 2069 2156 2228 2338 
Q 2531 2678 2651 2914 
Q 2772 3150 2772 3378 
Q 2772 3750 2511 3984 
Q 2250 4219 1831 4219 
Q 1534 4219 1204 4116 
Q 875 4013 500 3803 
L 500 4441 
Q 881 4594 1212 4672 
Q 1544 4750 1819 4750 
Q 2544 4750 2975 4387 
Q 3406 4025 3406 3419 
Q 3406 3131 3298 2873 
Q 3191 2616 2906 2266 
Q 2828 2175 2409 1742 
Q 1991 1309 1228 531 
z
" transform="scale(0.015625)"/>
       </defs>
       <use xlink:href="#DejaVuSans-2212"/>
       <use xlink:href="#DejaVuSans-30" transform="translate(83.789062 0)"/>
       <use xlink:href="#DejaVuSans-2e" transform="translate(147.412109 0)"/>
       <use xlink:href="#DejaVuSans-32" transform="translate(179.199219 0)"/>
       <use xlink:href="#DejaVuSans-35" transform="translate(242.822266 0)"/>
      </g>
     </g>
    </g>
    <g id="ytick_5">
     <g id="line2d_12">
      <g>
       <use xlink:href="#me5fa53e8c6" x="56.09" y="140.915" style="stroke: #000000; stroke-width: 0.8"/>
      </g>
     </g>
     <g id="text_5">
      <!-- 0.00 -->
      <g transform="translate(26.824375 144.714219) scale(0.1 -0.1)">
       <use xlink:href="#DejaVuSans-30"/>
       <use xlink:href="#DejaVuSans-2e" transform="translate(63.623047 0)"/>
       <use xlink:href="#DejaVuSans-30" transform="translate(95.410156 0)"/>
       <use xlink:href="#DejaVuSans-30" transform="translate(159.033203 0)"/>
      </g>
     </g>
    </g>
    <g id="ytick_6">
     <g id="line2d_13">
      <g>
       <use xlink:href="#me5fa53e8c6" x="56.09" y="120.397955" style="stroke: #000000; stroke-width: 0.8"/>
      </g>
     </g>
     <g id="text_6">
      <!-- 0.25 -->
      <g transform="translate(26.824375 124.197173) scale(0.1 -0.1)">
       <use xlink:href="#DejaVuSans-30"/>
       <use xlink:href="#DejaVuSans-2e" transform="translate(63.623047 0)"/>
       <use xlink:href="#DejaVuSans-32" transform="translate(95.410156 0)"/>
       <use xlink:href="#DejaVuSans-35" transform="translate(159.033203 0)"/>
      </g>
     </g>
    </g>
    <g id="ytick_7">
     <g id="line2d_14">
      <g>
       <use xlink:href="#me5fa53e8c6" x="56.09" y="99.880909" style="stroke: #000000; stroke-width: 0.8"/>
      </g>
     </g>
     <g id="text_7">
      <!-- 0.50 -->
      <g transform="translate(26.824375 103.680128) scale(0.1 -0.1)">
       <use xlink:href="#DejaVuSans-30"/>
       <use xlink:href="#DejaVuSans-2e" transform="translate(63.623047 0)"/>
       <use xlink:href="#DejaVuSans-35" transform="translate(95.410156 0)"/>
       <use xlink:href="#DejaVuSans-30" transform="translate(159.033203 0)"/>
      </g>
     </g>
    </g>
    <g id="ytick_8">
     <g id="line2d_15">
      <g>
       <use xlink:href="#me5fa53e8c6" x="56.09" y="79.363864" style="stroke: #000000; stroke-width: 0.8"/>
      </g>
     </g>
     <g id="text_8">
      <!-- 0.75 -->
      <g transform="translate(26.824375 83.163082) scale(0.1 -0.1)">
       <use xlink:href="#DejaVuSans-30"/>
       <use xlink:href="#DejaVuSans-2e" transform="translate(63.623047 0)"/>
       <use xlink:href="#DejaVuSans-37" transform="translate(95.410156 0)"/>
       <use xlink:href="#DejaVuSans-35" transform="translate(159.033203 0)"/>
      </g>
     </g>
    </g>
    <g id="ytick_9">
     <g id="line2d_16">
      <g>
       <use xlink:href="#me5fa53e8c6" x="56.09" y="58.846818" style="stroke: #000000; stroke-width: 0.8"/>
      </g>
     </g>
     <g id="text_9">
      <!-- 1.00 -->
      <g transform="translate(26.824375 62.646037) scale(0.1 -0.1)">
       <use xlink:href="#DejaVuSans-31"/>
       <use xlink:href="#DejaVuSans-2e" transform="translate(63.623047 0)"/>
       <use xlink:href="#DejaVuSans-30" transform="translate(95.410156 0)"/>
       <use xlink:href="#DejaVuSans-30" transform="translate(159.033203 0)"/>
      </g>
     </g>
    </g>
    <g id="text_10">
     <!-- amplitude -->
     <g transform="translate(12.365 166.181406) rotate(-90) scale(0.1 -0.1)">
      <defs>
       <path id="DejaVuSans-61" d="M 2194 1759 
Q 1497 1759 1228 1600 
Q 959 1441 959 1056 
Q 959 750 1161 570 
Q 1363 391 1709 391 
Q 2188 391 2477 730 
Q 2766 1069 2766 1631 
L 2766 1759 
L 2194 1759 
z
M 3341 1997 
L 3341 0 
L 2766 0 
L 2766 531 
Q 2569 213 2275 61 
Q 1981 -91 1556 -91 
Q 1019 -91 701 211 
Q 384 513 384 1019 
Q 384 1609 779 1909 
Q 1175 2209 1959 2209 
L 2766 2209 
L 2766 2266 
Q 2766 2663 2505 2880 
Q 2244 3097 1772 3097 
Q 1472 3097 1187 3025 
Q 903 2953 641 2809 
L 641 3341 
Q 956 3463 1253 3523 
Q 1550 3584 1831 3584 
Q 2591 3584 2966 3190 
Q 3341 2797 3341 1997 
z
" transform="scale(0.015625)"/>
       <path id="DejaVuSans-6d" d="M 3328 2828 
Q 3544 3216 3844 3400 
Q 4144 3584 4550 3584 
Q 5097 3584 5394 3201 
Q 5691 2819 5691 2113 
L 5691 0 
L 5113 0 
L 5113 2094 
Q 5113 2597 4934 2840 
Q 4756 3084 4391 3084 
Q 3944 3084 3684 2787 
Q 3425 2491 3425 1978 
L 3425 0 
L 2847 0 
L 2847 2094 
Q 2847 2600 2669 2842 
Q 2491 3084 2119 3084 
Q 1678 3084 1418 2786 
Q 1159 2488 1159 1978 
L 1159 0 
L 581 0 
L 581 3500 
L 1159 3500 
L 1159 2956 
Q 1356 3278 1631 3431 
Q 1906 3584 2284 3584 
Q 2666 3584 2933 3390 
Q 3200 3197 3328 2828 
z
" transform="scale(0.015625)"/>
       <path id="DejaVuSans-70" d="M 1159 525 
L 1159 -1331 
L 581 -1331 
L 581 3500 
L 1159 3500 
L 1159 2969 
Q 1341 3281 1617 3432 
Q 1894 3584 2278 3584 
Q 2916 3584 3314 3078 
Q 3713 2572 3713 1747 
Q 3713 922 3314 415 
Q 2916 -91 2278 -91 
Q 1894 -91 1617 61 
Q 1341 213 1159 525 
z
M 3116 1747 
Q 3116 2381 2855 2742 
Q 2594 3103 2138 3103 
Q 1681 3103 1420 2742 
Q 1159 2381 1159 1747 
Q 1159 1113 1420 752 
Q 1681 391 2138 391 
Q 2594 391 2855 752 
Q 3116 1113 3116 1747 
z
" transform="scale(0.015625)"/>
       <path id="DejaVuSans-6c" d="M 603 4863 
L 1178 4863 
L 1178 0 
L 603 0 
L 603 4863 
z
" transform="scale(0.015625)"/>
       <path id="DejaVuSans-69" d="M 603 3500 
L 1178 3500 
L 1178 0 
L 603 0 
L 603 3500 
z
M 603 4863 
L 1178 4863 
L 1178 4134 
L 603 4134 
L 603 4863 
z
" transform="scale(0.015625)"/>
       <path id="DejaVuSans-74" d="M 1172 4494 
L 1172 3500 
L 2356 3500 
L 2356 3053 
L 1172 3053 
L 1172 1153 
Q 1172 725 1289 603 
Q 1406 481 1766 481 
L 2356 481 
L 2356 0 
L 1766 0 
Q 1100 0 847 248 
Q 594 497 594 1153 
L 594 3053 
L 172 3053 
L 172 3500 
L 594 3500 
L 594 4494 
L 1172 4494 
z
" transform="scale(0.015625)"/>
       <path id="DejaVuSans-75" d="M 544 1381 
L 544 3500 
L 1119 3500 
L 1119 1403 
Q 1119 906 1312 657 
Q 1506 409 1894 409 
Q 2359 409 2629 706 
Q 2900 1003 2900 1516 
L 2900 3500 
L 3475 3500 
L 3475 0 
L 2900 0 
L 2900 538 
Q 2691 219 2414 64 
Q 2138 -91 1772 -91 
Q 1169 -91 856 284 
Q 544 659 544 1381 
z
M 1991 3584 
L 1991 3584 
z
" transform="scale(0.015625)"/>
       <path id="DejaVuSans-64" d="M 2906 2969 
L 2906 4863 
L 3481 4863 
L 3481 0 
L 2906 0 
L 2906 525 
Q 2725 213 2448 61 
Q 2172 -91 1784 -91 
Q 1150 -91 751 415 
Q 353 922 353 1747 
Q 353 2572 751 3078 
Q 1150 3584 1784 3584 
Q 2172 3584 2448 3432 
Q 2725 3281 2906 2969 
z
M 947 1747 
Q 947 1113 1208 752 
Q 1469 391 1925 391 
Q 2381 391 2643 752 
Q 2906 1113 2906 1747 
Q 2906 2381 2643 2742 
Q 2381 3103 1925 3103 
Q 1469 3103 1208 2742 
Q 947 2381 947 1747 
z
" transform="scale(0.015625)"/>
       <path id="DejaVuSans-65" d="M 3597 1894 
L 3597 1613 
L 953 1613 
Q 991 1019 1311 708 
Q 1631 397 2203 397 
Q 2534 397 2845 478 
Q 3156 559 3463 722 
L 3463 178 
Q 3153 47 2828 -22 
Q 2503 -91 2169 -91 
Q 1331 -91 842 396 
Q 353 884 353 1716 
Q 353 2575 817 3079 
Q 1281 3584 2069 3584 
Q 2775 3584 3186 3129 
Q 3597 2675 3597 1894 
z
M 3022 2063 
Q 3016 2534 2758 2815 
Q 2500 3097 2075 3097 
Q 1594 3097 1305 2825 
Q 1016 2553 972 2059 
L 3022 2063 
z
" transform="scale(0.015625)"/>
      </defs>
      <use xlink:href="#DejaVuSans-61"/>
      <use xlink:href="#DejaVuSans-6d" transform="translate(61.279297 0)"/>
      <use xlink:href="#DejaVuSans-70" transform="translate(158.691406 0)"/>
      <use xlink:href="#DejaVuSans-6c" transform="translate(222.167969 0)"/>
      <use xlink:href="#DejaVuSans-69" transform="translate(249.951172 0)"/>
      <use xlink:href="#DejaVuSans-74" transform="translate(277.734375 0)"/>
      <use xlink:href="#DejaVuSans-75" transform="translate(316.943359 0)"/>
      <use xlink:href="#DejaVuSans-64" transform="translate(380.322266 0)"/>
      <use xlink:href="#DejaVuSans-65" transform="translate(443.798828 0)"/>
     </g>
    </g>
   </g>
   <g id="line2d_17">
    <path d="M 80.825909 140.915 
L 84.545595 118.349915 
L 87.025385 104.614165 
L 89.505175 92.468837 
L 90.745071 87.118481 
L 91.984966 82.307349 
L 93.224861 78.072189 
L 94.464756 74.44421 
L 95.704651 71.448864 
L 96.944547 69.105683 
L 98.184442 67.428174 
L 99.424337 66.423765 
L 100.664232 66.093809 
L 101.904127 66.43364 
L 103.144023 67.432681 
L 104.383918 69.074607 
L 105.623813 71.337553 
L 106.863708 74.194373 
L 108.103603 77.612939 
L 109.343499 81.556487 
L 110.583394 85.983991 
L 113.063184 96.107984 
L 115.542974 107.587951 
L 119.26266 126.389993 
L 125.462136 158.107333 
L 127.941926 169.622208 
L 130.421717 179.864725 
L 131.661612 184.402286 
L 132.901507 188.501561 
L 134.141402 192.130999 
L 135.381298 195.263589 
L 136.621193 197.877044 
L 137.861088 199.953953 
L 139.100983 201.481875 
L 140.340878 202.453398 
L 141.580774 202.866146 
L 142.820669 202.722745 
L 144.060564 202.03074 
L 145.300459 200.802479 
L 146.540354 199.054939 
L 147.780249 196.809533 
L 149.020145 194.091863 
L 150.26004 190.931445 
L 151.499935 187.361406 
L 153.979725 179.140971 
L 156.459516 169.754382 
L 160.179201 154.27655 
L 166.378677 127.926869 
L 168.858468 118.280211 
L 171.338258 109.649494 
L 173.818049 102.316849 
L 175.057944 99.211405 
L 176.297839 96.512222 
L 177.537734 94.238749 
L 178.777629 92.406424 
L 180.017524 91.026586 
L 181.25742 90.106417 
L 182.497315 89.648925 
L 183.73721 89.652967 
L 184.977105 90.113305 
L 186.217 91.020695 
L 187.456896 92.362019 
L 188.696791 94.120446 
L 189.936686 96.275618 
L 191.176581 98.803878 
L 192.416476 101.678512 
L 194.896267 108.346434 
L 197.376057 116.015451 
L 201.095743 128.748915 
L 207.295219 150.627075 
L 209.775009 158.703351 
L 212.254799 165.970113 
L 214.73459 172.188787 
L 215.974485 174.84195 
L 217.21438 177.163178 
L 218.454275 179.135552 
L 219.694171 180.745445 
L 220.934066 181.982613 
L 222.173961 182.840245 
L 223.413856 183.314984 
L 224.653751 183.406922 
L 225.893647 183.119556 
L 227.133542 182.459719 
L 228.373437 181.437486 
L 229.613332 180.066041 
L 230.853227 178.361531 
L 232.093123 176.342885 
L 233.333018 174.031614 
L 235.812808 168.628818 
L 238.292599 162.368071 
L 240.772389 155.489792 
L 250.69155 126.986443 
L 253.171341 120.872814 
L 255.651131 115.604318 
L 256.891026 113.340732 
L 258.130922 111.348135 
L 259.370817 109.64121 
L 260.610712 108.231932 
L 261.850607 107.129491 
L 263.090502 106.340241 
L 264.330398 105.867677 
L 265.570293 105.712436 
L 266.810188 105.872323 
L 268.050083 106.342361 
L 269.289978 107.11487 
L 270.529874 108.179561 
L 271.769769 109.523664 
L 273.009664 111.132063 
L 274.249559 112.98746 
L 276.72935 117.360231 
L 279.20914 122.467114 
L 281.68893 128.111232 
L 291.608092 151.776595 
L 294.087882 156.916214 
L 296.567673 161.375299 
L 297.807568 163.303964 
L 299.047463 165.011575 
L 300.287358 166.485425 
L 301.527253 167.715028 
L 302.767149 168.692191 
L 304.007044 169.411062 
L 305.246939 169.868153 
L 306.486834 170.062346 
L 307.726729 169.994877 
L 308.966625 169.669297 
L 310.20652 169.091413 
L 311.446415 168.269215 
L 312.68631 167.212775 
L 313.926205 165.934141 
L 315.1661 164.447198 
L 317.645891 160.912271 
L 320.125681 156.750127 
L 322.605472 152.121872 
L 327.565052 142.169287 
L 331.284738 134.804224 
L 333.764528 130.265576 
L 336.244319 126.204916 
L 338.724109 122.754986 
L 339.964004 121.293908 
L 341.2039 120.023972 
L 342.443795 118.954327 
L 343.68369 118.092238 
L 344.923585 117.443039 
L 346.16348 117.010109 
L 347.403375 116.794864 
L 348.643271 116.796766 
L 349.883166 117.01335 
L 351.123061 117.440267 
L 352.362956 118.071346 
L 353.602851 118.898667 
L 354.842747 119.912652 
L 356.082642 121.102171 
L 358.562432 123.956228 
L 361.042223 127.345422 
L 363.522013 131.138019 
L 368.481594 139.355307 
L 372.201279 145.484427 
L 374.68107 149.284227 
L 377.16086 152.70316 
L 379.64065 155.62898 
L 382.120441 157.969377 
L 383.360336 158.897358 
L 384.600231 159.654795 
L 385.840126 160.236869 
L 387.080022 160.640376 
L 388.319917 160.863736 
L 389.559812 160.906991 
L 390.799707 160.771788 
L 392.039602 160.461342 
L 393.279498 159.980393 
L 394.519393 159.335143 
L 395.759288 158.533189 
L 398.239078 156.49601 
L 400.718869 153.954053 
L 403.198659 151.008439 
L 406.918345 146.082834 
L 414.357716 135.91999 
L 416.837506 132.879443 
L 419.317297 130.190952 
L 421.797087 127.941604 
L 424.276877 126.201019 
L 425.516773 125.537969 
L 426.756668 125.019282 
L 427.996563 124.647949 
L 429.236458 124.425612 
L 430.476353 124.352573 
L 431.716249 124.427798 
L 432.956144 124.648946 
L 434.196039 125.012403 
L 435.435934 125.513329 
L 437.915725 126.902449 
L 440.395515 128.755466 
L 442.875305 130.996514 
L 445.355096 133.537721 
L 449.074781 137.699743 
L 455.274257 144.720697 
L 457.754048 147.26963 
L 460.233838 149.536915 
L 462.713628 151.448766 
L 465.193419 152.945609 
L 467.673209 153.983869 
L 468.913104 154.32209 
L 470.153 154.537146 
L 471.392895 154.628512 
L 472.63279 154.596769 
L 473.872685 154.443587 
L 475.11258 154.171699 
L 477.592371 153.28782 
L 480.072161 151.986645 
L 482.551951 150.3235 
L 485.031742 148.365257 
L 488.751427 145.042126 
L 497.430694 136.948445 
L 499.910484 134.917049 
L 502.390275 133.143097 
L 504.870065 131.683488 
L 507.349855 130.58274 
L 509.829646 129.871696 
L 512.309436 129.566736 
L 514.789226 129.669531 
L 517.269017 130.167307 
L 519.748807 131.033622 
L 522.228598 132.229607 
L 524.708388 133.705619 
L 527.188178 135.403233 
L 530.907864 138.221914 
L 538.347235 143.977525 
L 540.827026 145.682818 
L 543.306816 147.181438 
L 545.786606 148.425073 
L 548.266397 149.375505 
L 550.746187 150.005731 
L 553.225977 150.300665 
L 555.705768 150.257405 
L 558.185558 149.885062 
L 560.665349 149.204168 
L 563.145139 148.245697 
L 565.624929 147.049734 
L 569.344615 144.91616 
L 575.544091 140.915 
L 575.544091 140.915 
" clip-path="url(#p91e8daf41d)" style="fill: none; stroke: #1f77b4; stroke-width: 1.5; stroke-linecap: square"/>
   </g>
   <g id="line2d_18">
    <path d="M 56.09 140.915 
L 600.28 140.915 
" clip-path="url(#p91e8daf41d)" style="fill: none; stroke: #666666; stroke-width: 0.8; stroke-linecap: square"/>
   </g>
   <g id="patch_3">
    <path d="M 56.09 231.19 
L 56.09 50.64 
" style="fill: none; stroke: #000000; stroke-width: 0.8; stroke-linejoin: miter; stroke-linecap: square"/>
   </g>
   <g id="patch_4">
    <path d="M 600.28 231.19 
L 600.28 50.64 
" style="fill: none; stroke: #000000; stroke-width: 0.8; stroke-linejoin: miter; stroke-linecap: square"/>
   </g>
   <g id="patch_5">
    <path d="M 56.09 231.19 
L 600.28 231.19 
" style="fill: none; stroke: #000000; stroke-width: 0.8; stroke-linejoin: miter; stroke-linecap: square"/>
   </g>
   <g id="patch_6">
    <path d="M 56.09 50.64 
L 600.28 50.64 
" style="fill: none; stroke: #000000; stroke-width: 0.8; stroke-linejoin: miter; stroke-linecap: square"/>
   </g>
   <g id="text_11">
    <!-- damped oscillator -->
    <g transform="translate(274.374375 44.64) scale(0.12 -0.12)">
     <defs>
      <path id="DejaVuSans-20" transform="scale(0.015625)"/>
      <path id="DejaVuSans-6f" d="M 1959 3097 
Q 1497 3097 1228 2736 
Q 959 2375 959 1747 
Q 959 1119 1226 758 
Q 1494 397 1959 397 
Q 2419 397 2687 759 
Q 2956 1122 2956 1747 
Q 2956 2369 2687 2733 
Q 2419 3097 1959 3097 
z
M 1959 3584 
Q 2709 3584 3137 3096 
Q 3566 2609 3566 1747 
Q 3566 888 3137 398 
Q 2709 -91 1959 -91 
Q 1206 -91 779 398 
Q 353 888 353 1747 
Q 353 2609 779 3096 
Q 1206 3584 1959 3584 
z
" transform="scale(0.015625)"/>
      <path id="DejaVuSans-73" d="M 2834 3397 
L 2834 2853 
Q 2591 2978 2328 3040 
Q 2066 3103 1784 3103 
Q 1356 3103 1142 2972 
Q 928 2841 928 2578 
Q 928 2378 1081 2264 
Q 1234 2150 1697 2047 
L 1894 2003 
Q 2506 1872 2764 1633 
Q 3022 1394 3022 966 
Q 3022 478 2636 193 
Q 2250 -91 1575 -91 
Q 1294 -91 989 -36 
Q 684 19 347 128 
L 347 722 
Q 666 556 975 473 
Q 1284 391 1588 391 
Q 1994 391 2212 530 
Q 2431 669 2431 922 
Q 2431 1156 2273 1281 
Q 2116 1406 1581 1522 
L 1381 1569 
Q 847 1681 609 1914 
Q 372 2147 372 2553 
Q 372 3047 722 3315 
Q 1072 3584 1716 3584 
Q 2034 3584 2315 3537 
Q 2597 3491 2834 3397 
z
" transform="scale(0.015625)"/>
      <path id="DejaVuSans-63" d="M 3122 3366 
L 3122 2828 
Q 2878 2963 2633 3030 
Q 2388 3097 2138 3097 
Q 1578 3097 1268 2742 
Q 959 2388 959 1747 
Q 959 1106 1268 751 
Q 1578 397 2138 397 
Q 2388 397 2633 464 
Q 2878 531 3122 666 
L 3122 134 
Q 2881 22 2623 -34 
Q 2366 -91 2075 -91 
Q 1284 -91 818 406 
Q 353 903 353 1747 
Q 353 2603 823 3093 
Q 1294 3584 2113 3584 
Q 2378 3584 2631 3529 
Q 2884 3475 3122 3366 
z
" transform="scale(0.015625)"/>
      <path id="DejaVuSans-72" d="M 2631 2963 
Q 2534 3019 2420 3045 
Q 2306 3072 2169 3072 
Q 1681 3072 1420 2755 
Q 1159 2438 1159 1844 
L 1159 0 
L 581 0 
L 581 3500 
L 1159 3500 
L 1159 2956 
Q 1341 3275 1631 3429 
Q 1922 3584 2338 3584 
Q 2397 3584 2469 3576 
Q 2541 3569 2628 3553 
L 2631 2963 
z
" transform="scale(0.015625)"/>
     </defs>
     <use xlink:href="#DejaVuSans-64"/>
     <use xlink:href="#DejaVuSans-61" transform="translate(63.476562 0)"/>
     <use xlink:href="#DejaVuSans-6d" transform="translate(124.755859 0)"/>
     <use xlink:href="#DejaVuSans-70" transform="translate(222.167969 0)"/>
     <use xlink:href="#DejaVuSans-65" transform="translate(285.644531 0)"/>
     <use xlink:href="#DejaVuSans-64" transform="translate(347.167969 0)"/>
     <use xlink:href="#DejaVuSans-20" transform="translate(410.644531 0)"/>
     <use xlink:href="#DejaVuSans-6f" transform="translate(442.431641 0)"/>
     <use xlink:href="#DejaVuSans-73" transform="translate(503.613281 0)"/>
     <use xlink:href="#DejaVuSans-63" transform="translate(555.712891 0)"/>
     <use xlink:href="#DejaVuSans-69" transform="translate(610.693359 0)"/>
     <use xlink:href="#DejaVuSans-6c" transform="translate(638.476562 0)"/>
     <use xlink:href="#DejaVuSans-6c" transform="translate(666.259766 0)"/>
     <use xlink:href="#DejaVuSans-61" transform="translate(694.042969 0)"/>
     <use xlink:href="#DejaVuSans-74" transform="translate(755.322266 0)"/>
     <use xlink:href="#DejaVuSans-6f" transform="translate(794.53125 0)"/>
     <use xlink:href="#DejaVuSans-72" transform="translate(855.712891 0)"/>
    </g>
   </g>
  </g>
  <g id="axes_2">
   <g id="patch_7">
    <path d="M 56.09 426.04 
L 600.28 426.04 
L 600.28 245.49 
L 56.09 245.49 
z
" style="fill: #ffffff"/>
   </g>
   <g id="patch_8">
    <path d="M 238.299597 426.04 
L 317.036441 426.04 
L 317.036441 245.49 
L 238.299597 245.49 
z
" clip-path="url(#p3d131abe20)" style="fill: #ff7f0e; opacity: 0.25; stroke: #ff7f0e; stroke-linejoin: miter"/>
   </g>
   <g id="matplotlib.axis_3">
    <g id="xtick_8">
     <g id="line2d_19">
      <path d="M 80.825909 426.04 
L 80.825909 245.49 
" clip-path="url(#p3d131abe20)" style="fill: none; stroke: #b0b0b0; stroke-width: 0.8; stroke-linecap: square"/>
     </g>
     <g id="line2d_20">
      <g>
       <use xlink:href="#ma24f9baa4d" x="80.825909" y="426.04" style="stroke: #000000; stroke-width: 0.8"/>
      </g>
     </g>
     <g id="text_12">
      <!-- 0 -->
      <g transform="translate(77.644659 440.638438) scale(0.1 -0.1)">
       <use xlink:href="#DejaVuSans-30"/>
      </g>
     </g>
    </g>
    <g id="xtick_9">
     <g id="line2d_21">
      <path d="M 159.562753 426.04 
L 159.562753 245.49 
" clip-path="url(#p3d131abe20)" style="fill: none; stroke: #b0b0b0; stroke-width: 0.8; stroke-linecap: square"/>
     </g>
     <g id="line2d_22">
      <g>
       <use xlink:href="#ma24f9baa4d" x="159.562753" y="426.04" style="stroke: #000000; stroke-width: 0.8"/>
      </g>
     </g>
     <g id="text_13">
      <!-- 2 -->
      <g transform="translate(156.381503 440.638438) scale(0.1 -0.1)">
       <use xlink:href="#DejaVuSans-32"/>
      </g>
     </g>
    </g>
    <g id="xtick_10">
     <g id="line2d_23">
      <path d="M 238.299597 426.04 
L 238.299597 245.49 
" clip-path="url(#p3d131abe20)" style="fill: none; stroke: #b0b0b0; stroke-width: 0.8; stroke-linecap: square"/>
     </g>
     <g id="line2d_24">
      <g>
       <use xlink:href="#ma24f9baa4d" x="238.299597" y="426.04" style="stroke: #000000; stroke-width: 0.8"/>
      </g>
     </g>
     <g id="text_14">
      <!-- 4 -->
      <g transform="translate(235.118347 440.638438) scale(0.1 -0.1)">
       <defs>
        <path id="DejaVuSans-34" d="M 2419 4116 
L 825 1625 
L 2419 1625 
L 2419 4116 
z
M 2253 4666 
L 3047 4666 
L 3047 1625 
L 3713 1625 
L 3713 1100 
L 3047 1100 
L 3047 0 
L 2419 0 
L 2419 1100 
L 313 1100 
L 313 1709 
L 2253 4666 
z
" transform="scale(0.015625)"/>
       </defs>
       <use xlink:href="#DejaVuSans-34"/>
      </g>
     </g>
    </g>
    <g id="xtick_11">
     <g id="line2d_25">
      <path d="M 317.036441 426.04 
L 317.036441 245.49 
" clip-path="url(#p3d131abe20)" style="fill: none; stroke: #b0b0b0; stroke-width: 0.8; stroke-linecap: square"/>
     </g>
     <g id="line2d_26">
      <g>
       <use xlink:href="#ma24f9baa4d" x="317.036441" y="426.04" style="stroke: #000000; stroke-width: 0.8"/>
      </g>
     </g>
     <g id="text_15">
      <!-- 6 -->
      <g transform="translate(313.855191 440.638438) scale(0.1 -0.1)">
       <defs>
        <path id="DejaVuSans-36" d="M 2113 2584 
Q 1688 2584 1439 2293 
Q 1191 2003 1191 1497 
Q 1191 994 1439 701 
Q 1688 409 2113 409 
Q 2538 409 2786 701 
Q 3034 994 3034 1497 
Q 3034 2003 2786 2293 
Q 2538 2584 2113 2584 
z
M 3366 4563 
L 3366 3988 
Q 3128 4100 2886 4159 
Q 2644 4219 2406 4219 
Q 1781 4219 1451 3797 
Q 1122 3375 1075 2522 
Q 1259 2794 1537 2939 
Q 1816 3084 2150 3084 
Q 2853 3084 3261 2657 
Q 3669 2231 3669 1497 
Q 3669 778 3244 343 
Q 2819 -91 2113 -91 
Q 1303 -91 875 529 
Q 447 1150 447 2328 
Q 447 3434 972 4092 
Q 1497 4750 2381 4750 
Q 2619 4750 2861 4703 
Q 3103 4656 3366 4563 
z
" transform="scale(0.015625)"/>
       </defs>
       <use xlink:href="#DejaVuSans-36"/>
      </g>
     </g>
    </g>
    <g id="xtick_12">
     <g id="line2d_27">
      <path d="M 395.773285 426.04 
L 395.773285 245.49 
" clip-path="url(#p3d131abe20)" style="fill: none; stroke: #b0b0b0; stroke-width: 0.8; stroke-linecap: square"/>
     </g>
     <g id="line2d_28">
      <g>
       <use xlink:href="#ma24f9baa4d" x="395.773285" y="426.04" style="stroke: #000000; stroke-width: 0.8"/>
      </g>
     </g>
     <g id="text_16">
      <!-- 8 -->
      <g transform="translate(392.592035 440.638438) scale(0.1 -0.1)">
       <defs>
        <path id="DejaVuSans-38" d="M 2034 2216 
Q 1584 2216 1326 1975 
Q 1069 1734 1069 1313 
Q 1069 891 1326 650 
Q 1584 409 2034 409 
Q 2484 409 2743 651 
Q 3003 894 3003 1313 
Q 3003 1734 2745 1975 
Q 2488 2216 2034 2216 
z
M 1403 2484 
Q 997 2584 770 2862 
Q 544 3141 544 3541 
Q 544 4100 942 4425 
Q 1341 4750 2034 4750 
Q 2731 4750 3128 4425 
Q 3525 4100 3525 3541 
Q 3525 3141 3298 2862 
Q 3072 2584 2669 2484 
Q 3125 2378 3379 2068 
Q 3634 1759 3634 1313 
Q 3634 634 3220 271 
Q 2806 -91 2034 -91 
Q 1263 -91 848 271 
Q 434 634 434 1313 
Q 434 1759 690 2068 
Q 947 2378 1403 2484 
z
M 1172 3481 
Q 1172 3119 1398 2916 
Q 1625 2713 2034 2713 
Q 2441 2713 2670 2916 
Q 2900 3119 2900 3481 
Q 2900 3844 2670 4047 
Q 2441 4250 2034 4250 
Q 1625 4250 1398 4047 
Q 1172 3844 1172 3481 
z
" transform="scale(0.015625)"/>
       </defs>
       <use xlink:href="#DejaVuSans-38"/>
      </g>
     </g>
    </g>
    <g id="xtick_13">
     <g id="line2d_29">
      <path d="M 474.510129 426.04 
L 474.510129 245.49 
" clip-path="url(#p3d131abe20)" style="fill: none; stroke: #b0b0b0; stroke-width: 0.8; stroke-linecap: square"/>
     </g>
     <g id="line2d_30">
      <g>
       <use xlink:href="#ma24f9baa4d" x="474.510129" y="426.04" style="stroke: #000000; stroke-width: 0.8"/>
      </g>
     </g>
     <g id="text_17">
      <!-- 10 -->
      <g transform="translate(468.147629 440.638438) scale(0.1 -0.1)">
       <use xlink:href="#DejaVuSans-31"/>
       <use xlink:href="#DejaVuSans-30" transform="translate(63.623047 0)"/>
      </g>
     </g>
    </g>
    <g id="xtick_14">
     <g id="line2d_31">
      <path d="M 553.246974 426.04 
L 553.246974 245.49 
" clip-path="url(#p3d131abe20)" style="fill: none; stroke: #b0b0b0; stroke-width: 0.8; stroke-linecap: square"/>
     </g>
     <g id="line2d_32">
      <g>
       <use xlink:href="#ma24f9baa4d" x="553.246974" y="426.04" style="stroke: #000000; stroke-width: 0.8"/>
      </g>
     </g>
     <g id="text_18">
      <!-- 12 -->
      <g transform="translate(546.884474 440.638438) scale(0.1 -0.1)">
       <use xlink:href="#DejaVuSans-31"/>
       <use xlink:href="#DejaVuSans-32" transform="translate(63.623047 0)"/>
      </g>
     </g>
    </g>
    <g id="text_19">
     <!-- t [s] -->
     <g transform="translate(318.129531 454.316563) scale(0.1 -0.1)">
      <defs>
       <path id="DejaVuSans-5b" d="M 550 4863 
L 1875 4863 
L 1875 4416 
L 1125 4416 
L 1125 -397 
L 1875 -397 
L 1875 -844 
L 550 -844 
L 550 4863 
z
" transform="scale(0.015625)"/>
       <path id="DejaVuSans-5d" d="M 1947 4863 
L 1947 -844 
L 622 -844 
L 622 -397 
L 1369 -397 
L 1369 4416 
L 622 4416 
L 622 4863 
L 1947 4863 
z
" transform="scale(0.015625)"/>
      </defs>
      <use xlink:href="#DejaVuSans-74"/>
      <use xlink:href="#DejaVuSans-20" transform="translate(39.208984 0)"/>
      <use xlink:href="#DejaVuSans-5b" transform="translate(70.996094 0)"/>
      <use xlink:href="#DejaVuSans-73" transform="translate(110.009766 0)"/>
      <use xlink:href="#DejaVuSans-5d" transform="translate(162.109375 0)"/>
     </g>
    </g>
   </g>
   <g id="matplotlib.axis_4">
    <g id="ytick_10">
     <g id="line2d_33">
      <path d="M 56.09 417.833182 
L 600.28 417.833182 
" clip-path="url(#p3d131abe20)" style="fill: none; stroke: #b0b0b0; stroke-width: 0.8; stroke-linecap: square"/>
     </g>
     <g id="line2d_34">
      <g>
       <use xlink:href="#me5fa53e8c6" x="56.09" y="417.833182" style="stroke: #000000; stroke-width: 0.8"/>
      </g>
     </g>
     <g id="text_20">
      <!-- 0.0 -->
      <g transform="translate(33.186875 421.632401) scale(0.1 -0.1)">
       <use xlink:href="#DejaVuSans-30"/>
       <use xlink:href="#DejaVuSans-2e" transform="translate(63.623047 0)"/>
       <use xlink:href="#DejaVuSans-30" transform="translate(95.410156 0)"/>
      </g>
     </g>
    </g>
    <g id="ytick_11">
     <g id="line2d_35">
      <path d="M 56.09 390.477121 
L 600.28 390.477121 
" clip-path="url(#p3d131abe20)" style="fill: none; stroke: #b0b0b0; stroke-width: 0.8; stroke-linecap: square"/>
     </g>
     <g id="line2d_36">
      <g>
       <use xlink:href="#me5fa53e8c6" x="56.09" y="390.477121" style="stroke: #000000; stroke-width: 0.8"/>
      </g>
     </g>
     <g id="text_21">
      <!-- 0.5 -->
      <g transform="translate(33.186875 394.27634) scale(0.1 -0.1)">
       <use xlink:href="#DejaVuSans-30"/>
       <use xlink:href="#DejaVuSans-2e" transform="translate(63.623047 0)"/>
       <use xlink:href="#DejaVuSans-35" transform="translate(95.410156 0)"/>
      </g>
     </g>
    </g>
    <g id="ytick_12">
     <g id="line2d_37">
      <path d="M 56.09 363.121061 
L 600.28 363.121061 
" clip-path="url(#p3d131abe20)" style="fill: none; stroke: #b0b0b0; stroke-width: 0.8; stroke-linecap: square"/>
     </g>
     <g id="line2d_38">
      <g>
       <use xlink:href="#me5fa53e8c6" x="56.09" y="363.121061" style="stroke: #000000; stroke-width: 0.8"/>
      </g>
     </g>
     <g id="text_22">
      <!-- 1.0 -->
      <g transform="translate(33.186875 366.920279) scale(0.1 -0.1)">
       <use xlink:href="#DejaVuSans-31"/>
       <use xlink:href="#DejaVuSans-2e" transform="translate(63.623047 0)"/>
       <use xlink:href="#DejaVuSans-30" transform="translate(95.410156 0)"/>
      </g>
     </g>
    </g>
    <g id="ytick_13">
     <g id="line2d_39">
      <path d="M 56.09 335.765 
L 600.28 335.765 
" clip-path="url(#p3d131abe20)" style="fill: none; stroke: #b0b0b0; stroke-width: 0.8; stroke-linecap: square"/>
     </g>
     <g id="line2d_40">
      <g>
       <use xlink:href="#me5fa53e8c6" x="56.09" y="335.765" style="stroke: #000000; stroke-width: 0.8"/>
      </g>
     </g>
     <g id="text_23">
      <!-- 1.5 -->
      <g transform="translate(33.186875 339.564219) scale(0.1 -0.1)">
       <use xlink:href="#DejaVuSans-31"/>
       <use xlink:href="#DejaVuSans-2e" transform="translate(63.623047 0)"/>
       <use xlink:href="#DejaVuSans-35" transform="translate(95.410156 0)"/>
      </g>
     </g>
    </g>
    <g id="ytick_14">
     <g id="line2d_41">
      <path d="M 56.09 308.408939 
L 600.28 308.408939 
" clip-path="url(#p3d131abe20)" style="fill: none; stroke: #b0b0b0; stroke-width: 0.8; stroke-linecap: square"/>
     </g>
     <g id="line2d_42">
      <g>
       <use xlink:href="#me5fa53e8c6" x="56.09" y="308.408939" style="stroke: #000000; stroke-width: 0.8"/>
      </g>
     </g>
     <g id="text_24">
      <!-- 2.0 -->
      <g transform="translate(33.186875 312.208158) scale(0.1 -0.1)">
       <use xlink:href="#DejaVuSans-32"/>
       <use xlink:href="#DejaVuSans-2e" transform="translate(63.623047 0)"/>
       <use xlink:href="#DejaVuSans-30" transform="translate(95.410156 0)"/>
      </g>
     </g>
    </g>
    <g id="ytick_15">
     <g id="line2d_43">
      <path d="M 56.09 281.052879 
L 600.28 281.052879 
" clip-path="url(#p3d131abe20)" style="fill: none; stroke: #b0b0b0; stroke-width: 0.8; stroke-linecap: square"/>
     </g>
     <g id="line2d_44">
      <g>
       <use xlink:href="#me5fa53e8c6" x="56.09" y="281.052879" style="stroke: #000000; stroke-width: 0.8"/>
      </g>
     </g>
     <g id="text_25">
      <!-- 2.5 -->
      <g transform="translate(33.186875 284.852098) scale(0.1 -0.1)">
       <use xlink:href="#DejaVuSans-32"/>
       <use xlink:href="#DejaVuSans-2e" transform="translate(63.623047 0)"/>
       <use xlink:href="#DejaVuSans-35" transform="translate(95.410156 0)"/>
      </g>
     </g>
    </g>
    <g id="ytick_16">
     <g id="line2d_45">
      <path d="M 56.09 253.696818 
L 600.28 253.696818 
" clip-path="url(#p3d131abe20)" style="fill: none; stroke: #b0b0b0; stroke-width: 0.8; stroke-linecap: square"/>
     </g>
     <g id="line2d_46">
      <g>
       <use xlink:href="#me5fa53e8c6" x="56.09" y="253.696818" style="stroke: #000000; stroke-width: 0.8"/>
      </g>
     </g>
     <g id="text_26">
      <!-- 3.0 -->
      <g transform="translate(33.186875 257.496037) scale(0.1 -0.1)">
       <defs>
        <path id="DejaVuSans-33" d="M 2597 2516 
Q 3050 2419 3304 2112 
Q 3559 1806 3559 1356 
Q 3559 666 3084 287 
Q 2609 -91 1734 -91 
Q 1441 -91 1130 -33 
Q 819 25 488 141 
L 488 750 
Q 750 597 1062 519 
Q 1375 441 1716 441 
Q 2309 441 2620 675 
Q 2931 909 2931 1356 
Q 2931 1769 2642 2001 
Q 2353 2234 1838 2234 
L 1294 2234 
L 1294 2753 
L 1863 2753 
Q 2328 2753 2575 2939 
Q 2822 3125 2822 3475 
Q 2822 3834 2567 4026 
Q 2313 4219 1838 4219 
Q 1578 4219 1281 4162 
Q 984 4106 628 3988 
L 628 4550 
Q 988 4650 1302 4700 
Q 1616 4750 1894 4750 
Q 2613 4750 3031 4423 
Q 3450 4097 3450 3541 
Q 3450 3153 3228 2886 
Q 3006 2619 2597 2516 
z
" transform="scale(0.015625)"/>
       </defs>
       <use xlink:href="#DejaVuSans-33"/>
       <use xlink:href="#DejaVuSans-2e" transform="translate(63.623047 0)"/>
       <use xlink:href="#DejaVuSans-30" transform="translate(95.410156 0)"/>
      </g>
     </g>
    </g>
    <g id="text_27">
     <!-- level -->
     <g transform="translate(27.107188 347.655625) rotate(-90) scale(0.1 -0.1)">
      <defs>
       <path id="DejaVuSans-76" d="M 191 3500 
L 800 3500 
L 1894 563 
L 2988 3500 
L 3597 3500 
L 2284 0 
L 1503 0 
L 191 3500 
z
" transform="scale(0.015625)"/>
      </defs>
      <use xlink:href="#DejaVuSans-6c"/>
      <use xlink:href="#DejaVuSans-65" transform="translate(27.783203 0)"/>
      <use xlink:href="#DejaVuSans-76" transform="translate(89.306641 0)"/>
      <use xlink:href="#DejaVuSans-65" transform="translate(148.486328 0)"/>
      <use xlink:href="#DejaVuSans-6c" transform="translate(210.009766 0)"/>
     </g>
    </g>
   </g>
   <g id="line2d_47">
    <path d="M 80.825909 308.408939 
L 105.623813 308.408939 
L 105.623813 253.696818 
L 192.416476 253.696818 
L 192.416476 308.408939 
L 217.21438 308.408939 
L 217.21438 363.121061 
L 243.252179 363.121061 
L 243.252179 417.833182 
L 328.804948 417.833182 
L 328.804948 363.121061 
L 354.842747 363.121061 
L 354.842747 308.408939 
L 380.880546 308.408939 
L 380.880546 253.696818 
L 466.433314 253.696818 
L 466.433314 308.408939 
L 492.471113 308.408939 
L 492.471113 363.121061 
L 518.508912 363.121061 
L 518.508912 417.833182 
L 575.544091 417.833182 
L 575.544091 417.833182 
" clip-path="url(#p3d131abe20)" style="fill: none; stroke: #2ca02c; stroke-width: 1.5; stroke-linecap: square"/>
   </g>
   <g id="patch_9">
    <path d="M 56.09 426.04 
L 56.09 245.49 
" style="fill: none; stroke: #000000; stroke-width: 0.8; stroke-linejoin: miter; stroke-linecap: square"/>
   </g>
   <g id="patch_10">
    <path d="M 600.28 426.04 
L 600.28 245.49 
" style="fill: none; stroke: #000000; stroke-width: 0.8; stroke-linejoin: miter; stroke-linecap: square"/>
   </g>
   <g id="patch_11">
    <path d="M 56.09 426.04 
L 600.28 426.04 
" style="fill: none; stroke: #000000; stroke-width: 0.8; stroke-linejoin: miter; stroke-linecap: square"/>
   </g>
   <g id="patch_12">
    <path d="M 56.09 245.49 
L 600.28 245.49 
" style="fill: none; stroke: #000000; stroke-width: 0.8; stroke-linejoin: miter; stroke-linecap: square"/>
   </g>
  </g>
  <g id="axes_3">
   <g id="matplotlib.axis_5">
    <g id="ytick_17">
     <g id="line2d_48">
      <defs>
       <path id="mf2d8235266" d="M 0 0 
L 3.5 0 
" style="stroke: #000000; stroke-width: 0.8"/>
      </defs>
      <g>
       <use xlink:href="#mf2d8235266" x="600.28" y="224.783044" style="stroke: #000000; stroke-width: 0.8"/>
      </g>
     </g>
     <g id="text_28">
      <!-- 0.0 -->
      <g transform="translate(607.28 228.582263) scale(0.1 -0.1)">
       <use xlink:href="#DejaVuSans-30"/>
       <use xlink:href="#DejaVuSans-2e" transform="translate(63.623047 0)"/>
       <use xlink:href="#DejaVuSans-30" transform="translate(95.410156 0)"/>
      </g>
     </g>
    </g>
    <g id="ytick_18">
     <g id="line2d_49">
      <g>
       <use xlink:href="#mf2d8235266" x="600.28" y="191.595799" style="stroke: #000000; stroke-width: 0.8"/>
      </g>
     </g>
     <g id="text_29">
      <!-- 0.2 -->
      <g transform="translate(607.28 195.395018) scale(0.1 -0.1)">
       <use xlink:href="#DejaVuSans-30"/>
       <use xlink:href="#DejaVuSans-2e" transform="translate(63.623047 0)"/>
       <use xlink:href="#DejaVuSans-32" transform="translate(95.410156 0)"/>
      </g>
     </g>
    </g>
    <g id="ytick_19">
     <g id="line2d_50">
      <g>
       <use xlink:href="#mf2d8235266" x="600.28" y="158.408554" style="stroke: #000000; stroke-width: 0.8"/>
      </g>
     </g>
     <g id="text_30">
      <!-- 0.4 -->
      <g transform="translate(607.28 162.207772) scale(0.1 -0.1)">
       <use xlink:href="#DejaVuSans-30"/>
       <use xlink:href="#DejaVuSans-2e" transform="translate(63.623047 0)"/>
       <use xlink:href="#DejaVuSans-34" transform="translate(95.410156 0)"/>
      </g>
     </g>
    </g>
    <g id="ytick_20">
     <g id="line2d_51">
      <g>
       <use xlink:href="#mf2d8235266" x="600.28" y="125.221309" style="stroke: #000000; stroke-width: 0.8"/>
      </g>
     </g>
     <g id="text_31">
      <!-- 0.6 -->
      <g transform="translate(607.28 129.020527) scale(0.1 -0.1)">
       <use xlink:href="#DejaVuSans-30"/>
       <use xlink:href="#DejaVuSans-2e" transform="translate(63.623047 0)"/>
       <use xlink:href="#DejaVuSans-36" transform="translate(95.410156 0)"/>
      </g>
     </g>
    </g>
    <g id="ytick_21">
     <g id="line2d_52">
      <g>
       <use xlink:href="#mf2d8235266" x="600.28" y="92.034063" style="stroke: #000000; stroke-width: 0.8"/>
      </g>
     </g>
     <g id="text_32">
      <!-- 0.8 -->
      <g transform="translate(607.28 95.833282) scale(0.1 -0.1)">
       <use xlink:href="#DejaVuSans-30"/>
       <use xlink:href="#DejaVuSans-2e" transform="translate(63.623047 0)"/>
       <use xlink:href="#DejaVuSans-38" transform="translate(95.410156 0)"/>
      </g>
     </g>
    </g>
    <g id="ytick_22">
     <g id="line2d_53">
      <g>
       <use xlink:href="#mf2d8235266" x="600.28" y="58.846818" style="stroke: #000000; stroke-width: 0.8"/>
      </g>
     </g>
     <g id="text_33">
      <!-- 1.0 -->
      <g transform="translate(607.28 62.646037) scale(0.1 -0.1)">
       <use xlink:href="#DejaVuSans-31"/>
       <use xlink:href="#DejaVuSans-2e" transform="translate(63.623047 0)"/>
       <use xlink:href="#DejaVuSans-30" transform="translate(95.410156 0)"/>
      </g>
     </g>
    </g>
    <g id="text_34">
     <!-- energy -->
     <g transform="translate(634.781563 158.338437) rotate(-90) scale(0.1 -0.1)">
      <defs>
       <path id="DejaVuSans-6e" d="M 3513 2113 
L 3513 0 
L 2938 0 
L 2938 2094 
Q 2938 2591 2744 2837 
Q 2550 3084 2163 3084 
Q 1697 3084 1428 2787 
Q 1159 2491 1159 1978 
L 1159 0 
L 581 0 
L 581 3500 
L 1159 3500 
L 1159 2956 
Q 1366 3272 1645 3428 
Q 1925 3584 2291 3584 
Q 2894 3584 3203 3211 
Q 3513 2838 3513 2113 
z
" transform="scale(0.015625)"/>
       <path id="DejaVuSans-67" d="M 2906 1791 
Q 2906 2416 2648 2759 
Q 2391 3103 1925 3103 
Q 1463 3103 1205 2759 
Q 947 2416 947 1791 
Q 947 1169 1205 825 
Q 1463 481 1925 481 
Q 2391 481 2648 825 
Q 2906 1169 2906 1791 
z
M 3481 434 
Q 3481 -459 3084 -895 
Q 2688 -1331 1869 -1331 
Q 1566 -1331 1297 -1286 
Q 1028 -1241 775 -1147 
L 775 -588 
Q 1028 -725 1275 -790 
Q 1522 -856 1778 -856 
Q 2344 -856 2625 -561 
Q 2906 -266 2906 331 
L 2906 616 
Q 2728 306 2450 153 
Q 2172 0 1784 0 
Q 1141 0 747 490 
Q 353 981 353 1791 
Q 353 2603 747 3093 
Q 1141 3584 1784 3584 
Q 2172 3584 2450 3431 
Q 2728 3278 2906 2969 
L 2906 3500 
L 3481 3500 
L 3481 434 
z
" transform="scale(0.015625)"/>
       <path id="DejaVuSans-79" d="M 2059 -325 
Q 1816 -950 1584 -1140 
Q 1353 -1331 966 -1331 
L 506 -1331 
L 506 -850 
L 844 -850 
Q 1081 -850 1212 -737 
Q 1344 -625 1503 -206 
L 1606 56 
L 191 3500 
L 800 3500 
L 1894 763 
L 2988 3500 
L 3597 3500 
L 2059 -325 
z
" transform="scale(0.015625)"/>
      </defs>
      <use xlink:href="#DejaVuSans-65"/>
      <use xlink:href="#DejaVuSans-6e" transform="translate(61.523438 0)"/>
      <use xlink:href="#DejaVuSans-65" transform="translate(124.902344 0)"/>
      <use xlink:href="#DejaVuSans-72" transform="translate(186.425781 0)"/>
      <use xlink:href="#DejaVuSans-67" transform="translate(225.789062 0)"/>
      <use xlink:href="#DejaVuSans-79" transform="translate(289.265625 0)"/>
     </g>
    </g>
   </g>
   <g id="line2d_54">
    <path d="M 80.825909 58.846818 
L 85.78549 66.204309 
L 90.745071 73.235575 
L 95.704651 79.955079 
L 101.904127 87.937046 
L 108.103603 95.479098 
L 114.303079 102.605483 
L 120.502555 109.339108 
L 126.702031 115.701619 
L 132.901507 121.713471 
L 139.100983 127.393989 
L 145.300459 132.761434 
L 151.499935 137.833061 
L 157.699411 142.625173 
L 163.898887 147.153176 
L 170.098363 151.431624 
L 176.297839 155.474273 
L 183.73721 160.032442 
L 191.176581 164.290838 
L 198.615952 168.269176 
L 206.055324 171.985875 
L 213.494695 175.45814 
L 220.934066 178.702048 
L 228.373437 181.732617 
L 237.052703 185.017309 
L 245.73197 188.051384 
L 254.411236 190.853963 
L 263.090502 193.442708 
L 273.009664 196.160309 
L 282.928825 198.64226 
L 292.847987 200.908995 
L 304.007044 203.224993 
L 315.1661 205.316318 
L 327.565052 207.402944 
L 339.964004 209.265906 
L 353.602851 211.085368 
L 368.481594 212.827809 
L 383.360336 214.348599 
L 399.478974 215.778608 
L 416.837506 217.100243 
L 436.675829 218.374866 
L 457.754048 219.498282 
L 481.312056 220.522469 
L 507.349855 221.425182 
L 537.10734 222.225134 
L 570.58451 222.899675 
L 575.544091 222.983182 
L 575.544091 222.983182 
" clip-path="url(#p91e8daf41d)" style="fill: none; stroke-dasharray: 5.55,2.4; stroke-dashoffset: 0; stroke: #d62728; stroke-width: 1.5"/>
   </g>
   <g id="patch_13">
    <path d="M 56.09 231.19 
L 56.09 50.64 
" style="fill: none; stroke: #000000; stroke-width: 0.8; stroke-linejoin: miter; stroke-linecap: square"/>
   </g>
   <g id="patch_14">
    <path d="M 600.28 231.19 
L 600.28 50.64 
" style="fill: none; stroke: #000000; stroke-width: 0.8; stroke-linejoin: miter; stroke-linecap: square"/>
   </g>
   <g id="patch_15">
    <path d="M 56.09 231.19 
L 600.28 231.19 
" style="fill: none; stroke: #000000; stroke-width: 0.8; stroke-linejoin: miter; stroke-linecap: square"/>
   </g>
   <g id="patch_16">
    <path d="M 56.09 50.64 
L 600.28 50.64 
" style="fill: none; stroke: #000000; stroke-width: 0.8; stroke-linejoin: miter; stroke-linecap: square"/>
   </g>
  </g>
  <g id="text_35">
   <!-- layout: sharex + twinx + spans -->
   <g transform="translate(229.77375 18.478125) scale(0.12 -0.12)">
    <defs>
     <path id="DejaVuSans-3a" d="M 750 794 
L 1409 794 
L 1409 0 
L 750 0 
L 750 794 
z
M 750 3309 
L 1409 3309 
L 1409 2516 
L 750 2516 
L 750 3309 
z
" transform="scale(0.015625)"/>
     <path id="DejaVuSans-68" d="M 3513 2113 
L 3513 0 
L 2938 0 
L 2938 2094 
Q 2938 2591 2744 2837 
Q 2550 3084 2163 3084 
Q 1697 3084 1428 2787 
Q 1159 2491 1159 1978 
L 1159 0 
L 581 0 
L 581 4863 
L 1159 4863 
L 1159 2956 
Q 1366 3272 1645 3428 
Q 1925 3584 2291 3584 
Q 2894 3584 3203 3211 
Q 3513 2838 3513 2113 
z
" transform="scale(0.015625)"/>
     <path id="DejaVuSans-78" d="M 3513 3500 
L 2247 1797 
L 3578 0 
L 2900 0 
L 1881 1375 
L 863 0 
L 184 0 
L 1544 1831 
L 300 3500 
L 978 3500 
L 1906 2253 
L 2834 3500 
L 3513 3500 
z
" transform="scale(0.015625)"/>
     <path id="DejaVuSans-2b" d="M 2944 4013 
L 2944 2272 
L 4684 2272 
L 4684 1741 
L 2944 1741 
L 2944 0 
L 2419 0 
L 2419 1741 
L 678 1741 
L 678 2272 
L 2419 2272 
L 2419 4013 
L 2944 4013 
z
" transform="scale(0.015625)"/>
     <path id="DejaVuSans-77" d="M 269 3500 
L 844 3500 
L 1563 769 
L 2278 3500 
L 2956 3500 
L 3675 769 
L 4391 3500 
L 4966 3500 
L 4050 0 
L 3372 0 
L 2619 2869 
L 1863 0 
L 1184 0 
L 269 3500 
z
" transform="scale(0.015625)"/>
    </defs>
    <use xlink:href="#DejaVuSans-6c"/>
    <use xlink:href="#DejaVuSans-61" transform="translate(27.783203 0)"/>
    <use xlink:href="#DejaVuSans-79" transform="translate(89.0625 0)"/>
    <use xlink:href="#DejaVuSans-6f" transform="translate(148.242188 0)"/>
    <use xlink:href="#DejaVuSans-75" transform="translate(209.423828 0)"/>
    <use xlink:href="#DejaVuSans-74" transform="translate(272.802734 0)"/>
    <use xlink:href="#DejaVuSans-3a" transform="translate(312.011719 0)"/>
    <use xlink:href="#DejaVuSans-20" transform="translate(345.703125 0)"/>
    <use xlink:href="#DejaVuSans-73" transform="translate(377.490234 0)"/>
    <use xlink:href="#DejaVuSans-68" transform="translate(429.589844 0)"/>
    <use xlink:href="#DejaVuSans-61" transform="translate(492.96875 0)"/>
    <use xlink:href="#DejaVuSans-72" transform="translate(554.248047 0)"/>
    <use xlink:href="#DejaVuSans-65" transform="translate(593.111328 0)"/>
    <use xlink:href="#DejaVuSans-78" transform="translate(652.884766 0)"/>
    <use xlink:href="#DejaVuSans-20" transform="translate(712.064453 0)"/>
    <use xlink:href="#DejaVuSans-2b" transform="translate(743.851562 0)"/>
    <use xlink:href="#DejaVuSans-20" transform="translate(827.640625 0)"/>
    <use xlink:href="#DejaVuSans-74" transform="translate(859.427734 0)"/>
    <use xlink:href="#DejaVuSans-77" transform="translate(898.636719 0)"/>
    <use xlink:href="#DejaVuSans-69" transform="translate(980.423828 0)"/>
    <use xlink:href="#DejaVuSans-6e" transform="translate(1008.207031 0)"/>
    <use xlink:href="#DejaVuSans-78" transform="translate(1071.585938 0)"/>
    <use xlink:href="#DejaVuSans-20" transform="translate(1130.765625 0)"/>
    <use xlink:href="#DejaVuSans-2b" transform="translate(1162.552734 0)"/>
    <use xlink:href="#DejaVuSans-20" transform="translate(1246.341797 0)"/>
    <use xlink:href="#DejaVuSans-73" transform="translate(1278.128906 0)"/>
    <use xlink:href="#DejaVuSans-70" transform="translate(1330.228516 0)"/>
    <use xlink:href="#DejaVuSans-61" transform="translate(1393.705078 0)"/>
    <use xlink:href="#DejaVuSans-6e" transform="translate(1454.984375 0)"/>
    <use xlink:href="#DejaVuSans-73" transform="translate(1518.363281 0)"/>
   </g>
  </g>
 </g>
 <defs>
  <clipPath id="p91e8daf41d">
   <rect x="56.09" y="50.64" width="544.19" height="180.55"/>
  </clipPath>
  <clipPath id="p3d131abe20">
   <rect x="56.09" y="245.49" width="544.19" height="180.55"/>
  </clipPath>
 </defs>
</svg>
