<?xml version="1.0" encoding="utf-8" standalone="no"?>
<!DOCTYPE svg PUBLIC "-//W3C//DTD SVG 1.1//EN" "http://www.w3.org/Graphics/SVG/1.1/DTD/svg11.dtd">
<svg xmlns="http://www.w3.org/2000/svg" width="460.8pt" height="345.6pt" viewBox="0 0 460.8 345.6" version="1.1">
<defs>
<clipPath id="p1"><rect x="57.6" y="41.47" width="357.12" height="266.11"/></clipPath>
</defs>
<g id="figure_1">
<g id="axes_1">
<g id="line2d_1">
<path clip-path="url(#p1)" d="M 73.83 295.49 L 398.49 53.57" fill="none" stroke="#1f77b4" stroke-width="1.5" stroke-linecap="square" stroke-linejoin="round"/>
</g>
<g id="spines_1">
<path d="M 57.6 307.58 L 414.72 307.58 L 414.72 41.47 L 57.6 41.47 z" fill="none" stroke="#000000" stroke-width="0.8" stroke-linecap="square" stroke-linejoin="round"/>
</g>
<g id="xtick_1">
<path d="M 73.83 307.58 L 73.83 311.08" fill="none" stroke="#000000" stroke-width="0.8" stroke-linejoin="round"/>
<path d="M 69.06 317.23 Q 68.3 317.23 67.91 317.98 Q 67.53 318.72 67.53 320.23 Q 67.53 321.73 67.91 322.48 Q 68.3 323.23 69.06 323.23 Q 69.83 323.23 70.21 322.48 Q 70.59 321.73 70.59 320.23 Q 70.59 318.72 70.21 317.98 Q 69.83 317.23 69.06 317.23 M 69.06 316.44 Q 70.29 316.44 70.93 317.42 Q 71.58 318.38 71.58 320.23 Q 71.58 322.07 70.93 323.04 Q 70.29 324.01 69.06 324.01 Q 67.83 324.01 67.18 323.04 Q 66.54 322.07 66.54 320.23 Q 66.54 318.38 67.18 317.42 Q 67.83 316.44 69.06 316.44 z M 73.31 322.63 L 74.34 322.63 L 74.34 323.87 L 73.31 323.87 L 73.31 322.63 z M 78.6 317.23 Q 77.84 317.23 77.45 317.98 Q 77.07 318.72 77.07 320.23 Q 77.07 321.73 77.45 322.48 Q 77.84 323.23 78.6 323.23 Q 79.37 323.23 79.75 322.48 Q 80.13 321.73 80.13 320.23 Q 80.13 318.72 79.75 317.98 Q 79.37 317.23 78.6 317.23 M 78.6 316.44 Q 79.83 316.44 80.47 317.42 Q 81.12 318.38 81.12 320.23 Q 81.12 322.07 80.47 323.04 Q 79.83 324.01 78.6 324.01 Q 77.38 324.01 76.73 323.04 Q 76.08 322.07 76.08 320.23 Q 76.08 318.38 76.73 317.42 Q 77.38 316.44 78.6 316.44 z" fill="#000000"/>
<path d="M 138.76 307.58 L 138.76 311.08" fill="none" stroke="#000000" stroke-width="0.8" stroke-linejoin="round"/>
<path d="M 133.99 317.23 Q 133.23 317.23 132.84 317.98 Q 132.46 318.72 132.46 320.23 Q 132.46 321.73 132.84 322.48 Q 133.23 323.23 133.99 323.23 Q 134.76 323.23 135.14 322.48 Q 135.52 321.73 135.52 320.23 Q 135.52 318.72 135.14 317.98 Q 134.76 317.23 133.99 317.23 M 133.99 316.44 Q 135.22 316.44 135.86 317.42 Q 136.51 318.38 136.51 320.23 Q 136.51 322.07 135.86 323.04 Q 135.22 324.01 133.99 324.01 Q 132.77 324.01 132.12 323.04 Q 131.47 322.07 131.47 320.23 Q 131.47 318.38 132.12 317.42 Q 132.77 316.44 133.99 316.44 z M 138.24 322.63 L 139.27 322.63 L 139.27 323.87 L 138.24 323.87 L 138.24 322.63 z M 142.27 323.04 L 145.71 323.04 L 145.71 323.87 L 141.09 323.87 L 141.09 323.04 Q 141.65 322.46 142.61 321.48 Q 143.59 320.5 143.83 320.21 Q 144.31 319.68 144.49 319.32 Q 144.68 318.94 144.68 318.59 Q 144.68 318.01 144.27 317.64 Q 143.87 317.27 143.21 317.27 Q 142.75 317.27 142.23 317.44 Q 141.72 317.6 141.13 317.92 L 141.13 316.93 Q 141.73 316.69 142.25 316.57 Q 142.77 316.44 143.19 316.44 Q 144.33 316.44 145 317.01 Q 145.68 317.58 145.68 318.52 Q 145.68 318.97 145.5 319.38 Q 145.34 319.78 144.89 320.33 Q 144.77 320.47 144.12 321.15 Q 143.46 321.82 142.27 323.04 z" fill="#000000"/>
<path d="M 203.69 307.58 L 203.69 311.08" fill="none" stroke="#000000" stroke-width="0.8" stroke-linejoin="round"/>
<path d="M 198.92 317.23 Q 198.16 317.23 197.77 317.98 Q 197.39 318.72 197.39 320.23 Q 197.39 321.73 197.77 322.48 Q 198.16 323.23 198.92 323.23 Q 199.69 323.23 200.07 322.48 Q 200.45 321.73 200.45 320.23 Q 200.45 318.72 200.07 317.98 Q 199.69 317.23 198.92 317.23 M 198.92 316.44 Q 200.15 316.44 200.79 317.42 Q 201.44 318.38 201.44 320.23 Q 201.44 322.07 200.79 323.04 Q 200.15 324.01 198.92 324.01 Q 197.7 324.01 197.05 323.04 Q 196.4 322.07 196.4 320.23 Q 196.4 318.38 197.05 317.42 Q 197.7 316.44 198.92 316.44 z M 203.17 322.63 L 204.2 322.63 L 204.2 323.87 L 203.17 323.87 L 203.17 322.63 z M 209.06 317.44 L 206.57 321.33 L 209.06 321.33 L 209.06 317.44 M 208.8 316.58 L 210.04 316.58 L 210.04 321.33 L 211.08 321.33 L 211.08 322.15 L 210.04 322.15 L 210.04 323.87 L 209.06 323.87 L 209.06 322.15 L 205.77 322.15 L 205.77 321.2 L 208.8 316.58 z" fill="#000000"/>
<path d="M 268.63 307.58 L 268.63 311.08" fill="none" stroke="#000000" stroke-width="0.8" stroke-linejoin="round"/>
<path d="M 263.85 317.23 Q 263.09 317.23 262.71 317.98 Q 262.32 318.72 262.32 320.23 Q 262.32 321.73 262.71 322.48 Q 263.09 323.23 263.85 323.23 Q 264.62 323.23 265 322.48 Q 265.39 321.73 265.39 320.23 Q 265.39 318.72 265 317.98 Q 264.62 317.23 263.85 317.23 M 263.85 316.44 Q 265.08 316.44 265.72 317.42 Q 266.37 318.38 266.37 320.23 Q 266.37 322.07 265.72 323.04 Q 265.08 324.01 263.85 324.01 Q 262.63 324.01 261.98 323.04 Q 261.33 322.07 261.33 320.23 Q 261.33 318.38 261.98 317.42 Q 262.63 316.44 263.85 316.44 z M 268.11 322.63 L 269.14 322.63 L 269.14 323.87 L 268.11 323.87 L 268.11 322.63 z M 273.52 319.83 Q 272.85 319.83 272.46 320.28 Q 272.08 320.74 272.08 321.53 Q 272.08 322.31 272.46 322.77 Q 272.85 323.23 273.52 323.23 Q 274.18 323.23 274.57 322.77 Q 274.96 322.31 274.96 321.53 Q 274.96 320.74 274.57 320.28 Q 274.18 319.83 273.52 319.83 M 275.47 316.74 L 275.47 317.64 Q 275.1 317.46 274.72 317.37 Q 274.35 317.27 273.97 317.27 Q 273 317.27 272.48 317.93 Q 271.97 318.59 271.89 319.93 Q 272.18 319.5 272.62 319.28 Q 273.05 319.05 273.57 319.05 Q 274.67 319.05 275.31 319.72 Q 275.95 320.38 275.95 321.53 Q 275.95 322.65 275.28 323.33 Q 274.62 324.01 273.52 324.01 Q 272.25 324.01 271.58 323.04 Q 270.91 322.07 270.91 320.23 Q 270.91 318.5 271.73 317.47 Q 272.55 316.44 273.94 316.44 Q 274.31 316.44 274.68 316.52 Q 275.06 316.59 275.47 316.74 z" fill="#000000"/>
<path d="M 333.56 307.58 L 333.56 311.08" fill="none" stroke="#000000" stroke-width="0.8" stroke-linejoin="round"/>
<path d="M 328.78 317.23 Q 328.02 317.23 327.64 317.98 Q 327.26 318.72 327.26 320.23 Q 327.26 321.73 327.64 322.48 Q 328.02 323.23 328.78 323.23 Q 329.55 323.23 329.93 322.48 Q 330.32 321.73 330.32 320.23 Q 330.32 318.72 329.93 317.98 Q 329.55 317.23 328.78 317.23 M 328.78 316.44 Q 330.01 316.44 330.65 317.42 Q 331.3 318.38 331.3 320.23 Q 331.3 322.07 330.65 323.04 Q 330.01 324.01 328.78 324.01 Q 327.56 324.01 326.91 323.04 Q 326.26 322.07 326.26 320.23 Q 326.26 318.38 326.91 317.42 Q 327.56 316.44 328.78 316.44 z M 333.04 322.63 L 334.07 322.63 L 334.07 323.87 L 333.04 323.87 L 333.04 322.63 z M 338.32 320.4 Q 337.62 320.4 337.22 320.78 Q 336.82 321.16 336.82 321.82 Q 336.82 322.47 337.22 322.85 Q 337.62 323.23 338.32 323.23 Q 339.03 323.23 339.43 322.85 Q 339.84 322.47 339.84 321.82 Q 339.84 321.16 339.43 320.78 Q 339.03 320.4 338.32 320.4 M 337.34 319.98 Q 336.7 319.83 336.35 319.39 Q 336 318.96 336 318.33 Q 336 317.46 336.62 316.95 Q 337.24 316.44 338.32 316.44 Q 339.41 316.44 340.03 316.95 Q 340.65 317.46 340.65 318.33 Q 340.65 318.96 340.3 319.39 Q 339.95 319.83 339.32 319.98 Q 340.03 320.15 340.42 320.63 Q 340.82 321.12 340.82 321.82 Q 340.82 322.88 340.18 323.44 Q 339.53 324.01 338.32 324.01 Q 337.12 324.01 336.47 323.44 Q 335.82 322.88 335.82 321.82 Q 335.82 321.12 336.22 320.63 Q 336.63 320.15 337.34 319.98 M 336.98 318.43 Q 336.98 318.99 337.33 319.31 Q 337.68 319.63 338.32 319.63 Q 338.96 319.63 339.32 319.31 Q 339.68 318.99 339.68 318.43 Q 339.68 317.86 339.32 317.54 Q 338.96 317.23 338.32 317.23 Q 337.68 317.23 337.33 317.54 Q 336.98 317.86 336.98 318.43 z" fill="#000000"/>
<path d="M 398.49 307.58 L 398.49 311.08" fill="none" stroke="#000000" stroke-width="0.8" stroke-linejoin="round"/>
<path d="M 391.78 323.04 L 393.39 323.04 L 393.39 317.47 L 391.63 317.83 L 391.63 316.93 L 393.38 316.58 L 394.36 316.58 L 394.36 323.04 L 395.98 323.04 L 395.98 323.87 L 391.78 323.87 L 391.78 323.04 z M 397.97 322.63 L 399 322.63 L 399 323.87 L 397.97 323.87 L 397.97 322.63 z M 403.26 317.23 Q 402.49 317.23 402.11 317.98 Q 401.73 318.72 401.73 320.23 Q 401.73 321.73 402.11 322.48 Q 402.49 323.23 403.26 323.23 Q 404.02 323.23 404.4 322.48 Q 404.79 321.73 404.79 320.23 Q 404.79 318.72 404.4 317.98 Q 404.02 317.23 403.26 317.23 M 403.26 316.44 Q 404.48 316.44 405.13 317.42 Q 405.77 318.38 405.77 320.23 Q 405.77 322.07 405.13 323.04 Q 404.48 324.01 403.26 324.01 Q 402.03 324.01 401.38 323.04 Q 400.74 322.07 400.74 320.23 Q 400.74 318.38 401.38 317.42 Q 402.03 316.44 403.26 316.44 z" fill="#000000"/>
</g>
<g id="ytick_1">
<path d="M 57.6 295.49 L 54.1 295.49" fill="none" stroke="#000000" stroke-width="0.8" stroke-linejoin="round"/>
<path d="M 37.88 292.31 Q 37.11 292.31 36.73 293.06 Q 36.35 293.81 36.35 295.31 Q 36.35 296.81 36.73 297.56 Q 37.11 298.31 37.88 298.31 Q 38.64 298.31 39.02 297.56 Q 39.41 296.81 39.41 295.31 Q 39.41 293.81 39.02 293.06 Q 38.64 292.31 37.88 292.31 M 37.88 291.53 Q 39.1 291.53 39.75 292.5 Q 40.39 293.47 40.39 295.31 Q 40.39 297.15 39.75 298.12 Q 39.1 299.09 37.88 299.09 Q 36.65 299.09 36 298.12 Q 35.36 297.15 35.36 295.31 Q 35.36 293.47 36 292.5 Q 36.65 291.53 37.88 291.53 z M 42.13 297.71 L 43.16 297.71 L 43.16 298.95 L 42.13 298.95 L 42.13 297.71 z M 47.42 292.31 Q 46.65 292.31 46.27 293.06 Q 45.89 293.81 45.89 295.31 Q 45.89 296.81 46.27 297.56 Q 46.65 298.31 47.42 298.31 Q 48.18 298.31 48.56 297.56 Q 48.95 296.81 48.95 295.31 Q 48.95 293.81 48.56 293.06 Q 48.18 292.31 47.42 292.31 M 47.42 291.53 Q 48.64 291.53 49.29 292.5 Q 49.94 293.47 49.94 295.31 Q 49.94 297.15 49.29 298.12 Q 48.64 299.09 47.42 299.09 Q 46.19 299.09 45.54 298.12 Q 44.9 297.15 44.9 295.31 Q 44.9 293.47 45.54 292.5 Q 46.19 291.53 47.42 291.53 z" fill="#000000"/>
<path d="M 57.6 247.1 L 54.1 247.1" fill="none" stroke="#000000" stroke-width="0.8" stroke-linejoin="round"/>
<path d="M 37.88 243.93 Q 37.11 243.93 36.73 244.68 Q 36.35 245.42 36.35 246.93 Q 36.35 248.43 36.73 249.18 Q 37.11 249.93 37.88 249.93 Q 38.64 249.93 39.02 249.18 Q 39.41 248.43 39.41 246.93 Q 39.41 245.42 39.02 244.68 Q 38.64 243.93 37.88 243.93 M 37.88 243.14 Q 39.1 243.14 39.75 244.12 Q 40.39 245.08 40.39 246.93 Q 40.39 248.77 39.75 249.74 Q 39.1 250.71 37.88 250.71 Q 36.65 250.71 36 249.74 Q 35.36 248.77 35.36 246.93 Q 35.36 245.08 36 244.12 Q 36.65 243.14 37.88 243.14 z M 42.13 249.33 L 43.16 249.33 L 43.16 250.57 L 42.13 250.57 L 42.13 249.33 z M 46.16 249.74 L 49.6 249.74 L 49.6 250.57 L 44.97 250.57 L 44.97 249.74 Q 45.53 249.15 46.5 248.18 Q 47.47 247.2 47.72 246.91 Q 48.19 246.38 48.38 246.02 Q 48.57 245.64 48.57 245.29 Q 48.57 244.71 48.16 244.34 Q 47.75 243.97 47.1 243.97 Q 46.64 243.97 46.12 244.14 Q 45.6 244.3 45.02 244.62 L 45.02 243.63 Q 45.61 243.39 46.13 243.27 Q 46.65 243.14 47.08 243.14 Q 48.21 243.14 48.89 243.71 Q 49.56 244.28 49.56 245.22 Q 49.56 245.67 49.39 246.08 Q 49.22 246.48 48.78 247.03 Q 48.66 247.17 48 247.85 Q 47.35 248.52 46.16 249.74 z" fill="#000000"/>
<path d="M 57.6 198.72 L 54.1 198.72" fill="none" stroke="#000000" stroke-width="0.8" stroke-linejoin="round"/>
<path d="M 37.88 195.54 Q 37.11 195.54 36.73 196.29 Q 36.35 197.04 36.35 198.54 Q 36.35 200.04 36.73 200.8 Q 37.11 201.54 37.88 201.54 Q 38.64 201.54 39.02 200.8 Q 39.41 200.04 39.41 198.54 Q 39.41 197.04 39.02 196.29 Q 38.64 195.54 37.88 195.54 M 37.88 194.76 Q 39.1 194.76 39.75 195.73 Q 40.39 196.7 40.39 198.54 Q 40.39 200.39 39.75 201.36 Q 39.1 202.32 37.88 202.32 Q 36.65 202.32 36 201.36 Q 35.36 200.39 35.36 198.54 Q 35.36 196.7 36 195.73 Q 36.65 194.76 37.88 194.76 z M 42.13 200.94 L 43.16 200.94 L 43.16 202.18 L 42.13 202.18 L 42.13 200.94 z M 48.02 195.75 L 45.53 199.64 L 48.02 199.64 L 48.02 195.75 M 47.76 194.89 L 49 194.89 L 49 199.64 L 50.04 199.64 L 50.04 200.46 L 49 200.46 L 49 202.18 L 48.02 202.18 L 48.02 200.46 L 44.73 200.46 L 44.73 199.51 L 47.76 194.89 z" fill="#000000"/>
<path d="M 57.6 150.34 L 54.1 150.34" fill="none" stroke="#000000" stroke-width="0.8" stroke-linejoin="round"/>
<path d="M 37.88 147.16 Q 37.11 147.16 36.73 147.91 Q 36.35 148.66 36.35 150.16 Q 36.35 151.66 36.73 152.41 Q 37.11 153.16 37.88 153.16 Q 38.64 153.16 39.02 152.41 Q 39.41 151.66 39.41 150.16 Q 39.41 148.66 39.02 147.91 Q 38.64 147.16 37.88 147.16 M 37.88 146.38 Q 39.1 146.38 39.75 147.35 Q 40.39 148.31 40.39 150.16 Q 40.39 152 39.75 152.97 Q 39.1 153.94 37.88 153.94 Q 36.65 153.94 36 152.97 Q 35.36 152 35.36 150.16 Q 35.36 148.31 36 147.35 Q 36.65 146.38 37.88 146.38 z M 42.13 152.56 L 43.16 152.56 L 43.16 153.8 L 42.13 153.8 L 42.13 152.56 z M 47.54 149.76 Q 46.87 149.76 46.48 150.21 Q 46.1 150.67 46.1 151.46 Q 46.1 152.25 46.48 152.7 Q 46.87 153.16 47.54 153.16 Q 48.2 153.16 48.59 152.7 Q 48.98 152.25 48.98 151.46 Q 48.98 150.67 48.59 150.21 Q 48.2 149.76 47.54 149.76 M 49.5 146.67 L 49.5 147.57 Q 49.13 147.39 48.74 147.3 Q 48.37 147.21 48 147.21 Q 47.02 147.21 46.5 147.87 Q 45.99 148.52 45.92 149.86 Q 46.21 149.43 46.64 149.21 Q 47.07 148.98 47.6 148.98 Q 48.7 148.98 49.33 149.65 Q 49.97 150.31 49.97 151.46 Q 49.97 152.58 49.31 153.26 Q 48.64 153.94 47.54 153.94 Q 46.27 153.94 45.6 152.97 Q 44.94 152 44.94 150.16 Q 44.94 148.43 45.76 147.41 Q 46.58 146.38 47.96 146.38 Q 48.33 146.38 48.71 146.45 Q 49.09 146.52 49.5 146.67 z" fill="#000000"/>
<path d="M 57.6 101.95 L 54.1 101.95" fill="none" stroke="#000000" stroke-width="0.8" stroke-linejoin="round"/>
<path d="M 37.88 98.77 Q 37.11 98.77 36.73 99.53 Q 36.35 100.27 36.35 101.78 Q 36.35 103.28 36.73 104.03 Q 37.11 104.77 37.88 104.77 Q 38.64 104.77 39.02 104.03 Q 39.41 103.28 39.41 101.78 Q 39.41 100.27 39.02 99.53 Q 38.64 98.77 37.88 98.77 M 37.88 97.99 Q 39.1 97.99 39.75 98.96 Q 40.39 99.93 40.39 101.78 Q 40.39 103.62 39.75 104.59 Q 39.1 105.56 37.88 105.56 Q 36.65 105.56 36 104.59 Q 35.36 103.62 35.36 101.78 Q 35.36 99.93 36 98.96 Q 36.65 97.99 37.88 97.99 z M 42.13 104.17 L 43.16 104.17 L 43.16 105.41 L 42.13 105.41 L 42.13 104.17 z M 47.42 101.95 Q 46.71 101.95 46.31 102.33 Q 45.91 102.7 45.91 103.36 Q 45.91 104.02 46.31 104.4 Q 46.71 104.77 47.42 104.77 Q 48.12 104.77 48.52 104.4 Q 48.93 104.02 48.93 103.36 Q 48.93 102.7 48.52 102.33 Q 48.12 101.95 47.42 101.95 M 46.43 101.53 Q 45.8 101.38 45.44 100.94 Q 45.09 100.51 45.09 99.88 Q 45.09 99.01 45.71 98.5 Q 46.33 97.99 47.42 97.99 Q 48.51 97.99 49.13 98.5 Q 49.75 99.01 49.75 99.88 Q 49.75 100.51 49.39 100.94 Q 49.04 101.38 48.41 101.53 Q 49.12 101.7 49.52 102.18 Q 49.92 102.66 49.92 103.36 Q 49.92 104.42 49.27 104.99 Q 48.62 105.56 47.42 105.56 Q 46.21 105.56 45.56 104.99 Q 44.92 104.42 44.92 103.36 Q 44.92 102.66 45.32 102.18 Q 45.72 101.7 46.43 101.53 M 46.07 99.97 Q 46.07 100.54 46.42 100.86 Q 46.78 101.18 47.42 101.18 Q 48.05 101.18 48.41 100.86 Q 48.77 100.54 48.77 99.97 Q 48.77 99.41 48.41 99.09 Q 48.05 98.77 47.42 98.77 Q 46.78 98.77 46.42 99.09 Q 46.07 99.41 46.07 99.97 z" fill="#000000"/>
<path d="M 57.6 53.57 L 54.1 53.57" fill="none" stroke="#000000" stroke-width="0.8" stroke-linejoin="round"/>
<path d="M 35.94 56.2 L 37.55 56.2 L 37.55 50.64 L 35.8 50.99 L 35.8 50.09 L 37.54 49.74 L 38.52 49.74 L 38.52 56.2 L 40.14 56.2 L 40.14 57.03 L 35.94 57.03 L 35.94 56.2 z M 42.13 55.79 L 43.16 55.79 L 43.16 57.03 L 42.13 57.03 L 42.13 55.79 z M 47.42 50.39 Q 46.65 50.39 46.27 51.14 Q 45.89 51.89 45.89 53.39 Q 45.89 54.89 46.27 55.64 Q 46.65 56.39 47.42 56.39 Q 48.18 56.39 48.56 55.64 Q 48.95 54.89 48.95 53.39 Q 48.95 51.89 48.56 51.14 Q 48.18 50.39 47.42 50.39 M 47.42 49.61 Q 48.64 49.61 49.29 50.58 Q 49.94 51.55 49.94 53.39 Q 49.94 55.23 49.29 56.2 Q 48.64 57.17 47.42 57.17 Q 46.19 57.17 45.54 56.2 Q 44.9 55.23 44.9 53.39 Q 44.9 51.55 45.54 50.58 Q 46.19 49.61 47.42 49.61 z" fill="#000000"/>
</g>
</g>
</g>
</svg>
