<?xml version="1.0" encoding="utf-8" standalone="no"?>
<!DOCTYPE svg PUBLIC "-//W3C//DTD SVG 1.1//EN" "http://www.w3.org/Graphics/SVG/1.1/DTD/svg11.dtd">
<svg xmlns="http://www.w3.org/2000/svg" width="460.8pt" height="345.6pt" viewBox="0 0 460.8 345.6" version="1.1">
<defs>
<clipPath id="p1"><rect x="57.6" y="41.47" width="357.12" height="266.11"/></clipPath>
</defs>
<g id="figure_1">
<path d="M 0 345.6 L 460.8 345.6 L 460.8 0 L 0 0 z" fill="#ffffff"/>
<g id="axes_1">
<path d="M 57.6 307.58 L 414.72 307.58 L 414.72 41.47 L 57.6 41.47 z" fill="#ffffff"/>
<g id="line2d_1">
<path clip-path="url(#p1)" d="M 73.83 82.41 L 74.65 83.1 L 75.46 84.18 L 76.27 85.65 L 77.09 87.5 L 77.9 89.72 L 79.53 95.21 L 81.16 102.02 L 82.78 110 L 84.41 119.02 L 86.85 134.12 L 90.11 156.27 L 97.43 207.35 L 99.87 222.63 L 101.5 231.86 L 103.12 240.18 L 104.75 247.46 L 106.38 253.62 L 108.01 258.58 L 108.82 260.59 L 109.63 262.28 L 110.45 263.64 L 111.26 264.68 L 112.08 265.39 L 112.89 265.78 L 113.7 265.84 L 114.52 265.58 L 115.33 265 L 116.14 264.1 L 116.96 262.9 L 117.77 261.41 L 118.58 259.62 L 120.21 255.21 L 121.84 249.77 L 123.47 243.41 L 125.09 236.24 L 127.53 224.26 L 130.79 206.71 L 138.11 166.39 L 140.55 154.37 L 142.18 147.12 L 143.81 140.6 L 145.44 134.89 L 147.06 130.09 L 148.69 126.23 L 149.5 124.68 L 150.32 123.37 L 151.13 122.33 L 151.95 121.54 L 152.76 121.01 L 153.57 120.73 L 154.39 120.72 L 155.2 120.96 L 156.01 121.45 L 156.83 122.18 L 157.64 123.16 L 158.45 124.37 L 160.08 127.48 L 161.71 131.43 L 163.34 136.15 L 164.96 141.54 L 167.4 150.7 L 169.85 160.8 L 174.73 182.3 L 177.98 196.34 L 180.42 206.11 L 182.86 214.84 L 184.49 219.96 L 186.12 224.42 L 187.75 228.17 L 189.37 231.17 L 190.19 232.38 L 191 233.38 L 191.81 234.18 L 192.63 234.78 L 193.44 235.17 L 194.26 235.36 L 195.07 235.35 L 195.88 235.14 L 196.7 234.73 L 197.51 234.12 L 198.32 233.32 L 199.14 232.34 L 200.77 229.85 L 202.39 226.69 L 204.02 222.92 L 205.65 218.63 L 208.09 211.36 L 210.53 203.35 L 221.11 167.59 L 223.55 160.73 L 225.18 156.72 L 226.8 153.23 L 228.43 150.3 L 230.06 147.97 L 231.68 146.26 L 232.5 145.65 L 233.31 145.2 L 234.13 144.91 L 234.94 144.78 L 235.75 144.81 L 236.57 144.99 L 237.38 145.34 L 238.19 145.84 L 239.01 146.48 L 240.64 148.21 L 242.26 150.49 L 243.89 153.26 L 245.52 156.47 L 247.96 162 L 250.4 168.18 L 254.47 179.28 L 259.35 192.52 L 261.79 198.57 L 264.23 203.96 L 265.86 207.1 L 267.49 209.84 L 269.11 212.12 L 270.74 213.93 L 272.37 215.25 L 274 216.06 L 274.81 216.27 L 275.62 216.36 L 276.44 216.32 L 277.25 216.16 L 278.06 215.87 L 279.69 214.93 L 281.32 213.54 L 282.95 211.72 L 284.57 209.51 L 286.2 206.94 L 288.64 202.55 L 291.08 197.65 L 295.15 188.87 L 300.03 178.43 L 302.47 173.67 L 304.92 169.43 L 306.54 166.97 L 308.17 164.83 L 309.8 163.05 L 311.42 161.64 L 313.05 160.63 L 314.68 160.01 L 316.31 159.8 L 317.93 159.98 L 319.56 160.56 L 321.19 161.5 L 322.82 162.8 L 324.44 164.41 L 326.07 166.32 L 328.51 169.65 L 330.95 173.42 L 334.21 178.88 L 340.72 189.93 L 343.16 193.68 L 345.6 197.01 L 347.23 198.94 L 348.85 200.61 L 350.48 202 L 352.11 203.09 L 353.74 203.87 L 355.36 204.34 L 356.99 204.49 L 358.62 204.32 L 360.24 203.85 L 361.87 203.09 L 363.5 202.05 L 365.13 200.75 L 366.75 199.23 L 369.2 196.59 L 371.64 193.6 L 375.7 188.16 L 381.4 180.55 L 383.84 177.6 L 386.28 174.99 L 388.72 172.8 L 390.35 171.6 L 391.98 170.63 L 393.61 169.9 L 395.23 169.43 L 396.86 169.2 L 398.49 169.22 L 398.49 169.22" fill="none" stroke="#1f77b4" stroke-width="1.5" stroke-linecap="square" stroke-linejoin="round"/>
</g>
<g id="annotation-arrow_1">
<path d="M 206.91 77.81 L 157.4 118.88" fill="none" stroke="#000000" stroke-width="1" stroke-linecap="square"/>
<path d="M 161.75 117.87 L 157.4 118.88 L 159.2 114.79" fill="none" stroke="#000000" stroke-width="1" stroke-linecap="square"/>
</g>
<g id="text_1">
<path d="M 194.69 64.58 L 195.59 64.58 L 195.59 72.18 L 194.69 72.18 L 194.69 64.58 z M 199.59 67.34 Q 198.87 67.34 198.45 67.9 Q 198.03 68.47 198.03 69.45 Q 198.03 70.43 198.44 71 Q 198.86 71.56 199.59 71.56 Q 200.31 71.56 200.73 70.99 Q 201.15 70.42 201.15 69.45 Q 201.15 68.48 200.73 67.91 Q 200.31 67.34 199.59 67.34 M 199.59 66.58 Q 200.76 66.58 201.43 67.34 Q 202.1 68.1 202.1 69.45 Q 202.1 70.79 201.43 71.56 Q 200.76 72.32 199.59 72.32 Q 198.41 72.32 197.74 71.56 Q 197.08 70.79 197.08 69.45 Q 197.08 68.1 197.74 67.34 Q 198.41 66.58 199.59 66.58 z M 207.52 66.92 L 207.52 67.76 Q 207.14 67.55 206.76 67.45 Q 206.38 67.34 205.99 67.34 Q 205.11 67.34 204.63 67.9 Q 204.14 68.45 204.14 69.45 Q 204.14 70.45 204.63 71.01 Q 205.11 71.56 205.99 71.56 Q 206.38 71.56 206.76 71.45 Q 207.14 71.35 207.52 71.14 L 207.52 71.97 Q 207.15 72.14 206.74 72.23 Q 206.34 72.32 205.89 72.32 Q 204.65 72.32 203.92 71.54 Q 203.2 70.77 203.2 69.45 Q 203.2 68.11 203.93 67.34 Q 204.67 66.58 205.95 66.58 Q 206.36 66.58 206.76 66.66 Q 207.15 66.75 207.52 66.92 z M 211.57 69.43 Q 210.48 69.43 210.06 69.68 Q 209.64 69.93 209.64 70.53 Q 209.64 71.01 209.96 71.29 Q 210.27 71.57 210.81 71.57 Q 211.56 71.57 212.01 71.04 Q 212.46 70.51 212.46 69.63 L 212.46 69.43 L 211.57 69.43 M 213.36 69.06 L 213.36 72.18 L 212.46 72.18 L 212.46 71.35 Q 212.16 71.85 211.7 72.08 Q 211.24 72.32 210.58 72.32 Q 209.74 72.32 209.24 71.85 Q 208.74 71.38 208.74 70.59 Q 208.74 69.66 209.36 69.19 Q 209.98 68.73 211.21 68.73 L 212.46 68.73 L 212.46 68.64 Q 212.46 68.02 212.05 67.68 Q 211.65 67.34 210.91 67.34 Q 210.44 67.34 210 67.45 Q 209.55 67.56 209.14 67.79 L 209.14 66.96 Q 209.64 66.77 210.1 66.67 Q 210.57 66.58 211.01 66.58 Q 212.19 66.58 212.78 67.19 Q 213.36 67.81 213.36 69.06 z M 215.21 64.58 L 216.11 64.58 L 216.11 72.18 L 215.21 72.18 L 215.21 64.58 z z M 225.43 67.76 Q 225.77 67.15 226.23 66.86 Q 226.7 66.58 227.34 66.58 Q 228.19 66.58 228.66 67.18 Q 229.12 67.77 229.12 68.88 L 229.12 72.18 L 228.22 72.18 L 228.22 68.91 Q 228.22 68.12 227.94 67.74 Q 227.66 67.36 227.09 67.36 Q 226.39 67.36 225.99 67.82 Q 225.58 68.29 225.58 69.09 L 225.58 72.18 L 224.68 72.18 L 224.68 68.91 Q 224.68 68.11 224.4 67.74 Q 224.12 67.36 223.54 67.36 Q 222.85 67.36 222.45 67.83 Q 222.04 68.29 222.04 69.09 L 222.04 72.18 L 221.14 72.18 L 221.14 66.71 L 222.04 66.71 L 222.04 67.56 Q 222.35 67.06 222.78 66.82 Q 223.21 66.58 223.8 66.58 Q 224.39 66.58 224.81 66.88 Q 225.23 67.18 225.43 67.76 z M 233.4 69.43 Q 232.31 69.43 231.89 69.68 Q 231.47 69.93 231.47 70.53 Q 231.47 71.01 231.78 71.29 Q 232.1 71.57 232.64 71.57 Q 233.39 71.57 233.84 71.04 Q 234.29 70.51 234.29 69.63 L 234.29 69.43 L 233.4 69.43 M 235.19 69.06 L 235.19 72.18 L 234.29 72.18 L 234.29 71.35 Q 233.98 71.85 233.52 72.08 Q 233.07 72.32 232.4 72.32 Q 231.56 72.32 231.06 71.85 Q 230.57 71.38 230.57 70.59 Q 230.57 69.66 231.19 69.19 Q 231.81 68.73 233.03 68.73 L 234.29 68.73 L 234.29 68.64 Q 234.29 68.02 233.88 67.68 Q 233.48 67.34 232.74 67.34 Q 232.27 67.34 231.83 67.45 Q 231.38 67.56 230.97 67.79 L 230.97 66.96 Q 231.46 66.77 231.93 66.67 Q 232.39 66.58 232.83 66.58 Q 234.02 66.58 234.6 67.19 Q 235.19 67.81 235.19 69.06 z M 241.59 66.71 L 239.61 69.37 L 241.69 72.18 L 240.63 72.18 L 239.04 70.03 L 237.45 72.18 L 236.39 72.18 L 238.51 69.32 L 236.57 66.71 L 237.63 66.71 L 239.08 68.66 L 240.53 66.71 L 241.59 66.71 z" fill="#000000"/>
</g>
<g id="annotation-arrow_2">
<path d="M 309.25 95.13 L 256.9 146.76" fill="none" stroke="#000000" stroke-width="1" stroke-linecap="square"/>
<path d="M 261.15 145.37 L 256.9 146.76 L 258.34 142.52 z" fill="#1f77b4" stroke="#000000" stroke-width="1" stroke-linecap="square"/>
</g>
<g id="text_2">
<path d="M 283.56 84.73 L 283.56 81.77 L 284.45 81.77 L 284.45 89.37 L 283.56 89.37 L 283.56 88.55 Q 283.27 89.04 282.84 89.28 Q 282.41 89.51 281.8 89.51 Q 280.81 89.51 280.19 88.72 Q 279.57 87.93 279.57 86.64 Q 279.57 85.35 280.19 84.56 Q 280.81 83.77 281.8 83.77 Q 282.41 83.77 282.84 84.01 Q 283.27 84.25 283.56 84.73 M 280.49 86.64 Q 280.49 87.63 280.9 88.2 Q 281.31 88.76 282.02 88.76 Q 282.74 88.76 283.15 88.2 Q 283.56 87.63 283.56 86.64 Q 283.56 85.65 283.15 85.09 Q 282.74 84.52 282.02 84.52 Q 281.31 84.52 280.9 85.09 Q 280.49 85.65 280.49 86.64 z M 290.98 86.41 L 290.98 86.85 L 286.85 86.85 Q 286.91 87.78 287.41 88.27 Q 287.91 88.75 288.8 88.75 Q 289.32 88.75 289.81 88.63 Q 290.29 88.5 290.77 88.24 L 290.77 89.09 Q 290.29 89.3 289.78 89.41 Q 289.27 89.51 288.75 89.51 Q 287.44 89.51 286.68 88.75 Q 285.91 87.99 285.91 86.69 Q 285.91 85.35 286.64 84.56 Q 287.36 83.77 288.59 83.77 Q 289.7 83.77 290.34 84.48 Q 290.98 85.19 290.98 86.41 M 290.08 86.15 Q 290.07 85.41 289.67 84.97 Q 289.27 84.53 288.6 84.53 Q 287.85 84.53 287.4 84.96 Q 286.95 85.38 286.88 86.15 L 290.08 86.15 z M 296.39 84.11 L 296.39 84.95 Q 296.01 84.74 295.63 84.64 Q 295.24 84.53 294.85 84.53 Q 293.98 84.53 293.5 85.09 Q 293.01 85.64 293.01 86.64 Q 293.01 87.64 293.5 88.2 Q 293.98 88.75 294.85 88.75 Q 295.24 88.75 295.63 88.65 Q 296.01 88.54 296.39 88.33 L 296.39 89.16 Q 296.02 89.34 295.61 89.43 Q 295.21 89.51 294.76 89.51 Q 293.52 89.51 292.79 88.74 Q 292.07 87.96 292.07 86.64 Q 292.07 85.3 292.8 84.54 Q 293.54 83.77 294.82 83.77 Q 295.23 83.77 295.63 83.86 Q 296.02 83.94 296.39 84.11 z M 300.44 86.62 Q 299.35 86.62 298.93 86.87 Q 298.51 87.12 298.51 87.72 Q 298.51 88.2 298.82 88.48 Q 299.14 88.76 299.68 88.76 Q 300.43 88.76 300.88 88.23 Q 301.33 87.7 301.33 86.82 L 301.33 86.62 L 300.44 86.62 M 302.23 86.25 L 302.23 89.37 L 301.33 89.37 L 301.33 88.54 Q 301.03 89.04 300.57 89.28 Q 300.11 89.51 299.44 89.51 Q 298.6 89.51 298.11 89.05 Q 297.61 88.57 297.61 87.78 Q 297.61 86.86 298.23 86.39 Q 298.85 85.92 300.07 85.92 L 301.33 85.92 L 301.33 85.83 Q 301.33 85.21 300.92 84.88 Q 300.52 84.53 299.78 84.53 Q 299.31 84.53 298.87 84.65 Q 298.42 84.76 298.01 84.98 L 298.01 84.15 Q 298.51 83.96 298.97 83.87 Q 299.43 83.77 299.87 83.77 Q 301.06 83.77 301.65 84.39 Q 302.23 85 302.23 86.25 z M 306.36 89.88 Q 305.98 90.86 305.62 91.15 Q 305.25 91.45 304.65 91.45 L 303.93 91.45 L 303.93 90.7 L 304.46 90.7 Q 304.83 90.7 305.03 90.52 Q 305.24 90.35 305.49 89.69 L 305.65 89.28 L 303.44 83.9 L 304.39 83.9 L 306.1 88.18 L 307.81 83.9 L 308.76 83.9 L 306.36 89.88 z z M 317.86 86.41 L 317.86 86.85 L 313.73 86.85 Q 313.78 87.78 314.28 88.27 Q 314.79 88.75 315.68 88.75 Q 316.2 88.75 316.68 88.63 Q 317.17 88.5 317.65 88.24 L 317.65 89.09 Q 317.16 89.3 316.66 89.41 Q 316.15 89.51 315.63 89.51 Q 314.32 89.51 313.55 88.75 Q 312.79 87.99 312.79 86.69 Q 312.79 85.35 313.51 84.56 Q 314.24 83.77 315.47 83.77 Q 316.57 83.77 317.21 84.48 Q 317.86 85.19 317.86 86.41 M 316.96 86.15 Q 316.95 85.41 316.54 84.97 Q 316.14 84.53 315.48 84.53 Q 314.73 84.53 314.27 84.96 Q 313.82 85.38 313.76 86.15 L 316.96 86.15 z M 323.88 86.07 L 323.88 89.37 L 322.98 89.37 L 322.98 86.1 Q 322.98 85.32 322.68 84.94 Q 322.37 84.55 321.77 84.55 Q 321.04 84.55 320.62 85.02 Q 320.2 85.48 320.2 86.28 L 320.2 89.37 L 319.3 89.37 L 319.3 83.9 L 320.2 83.9 L 320.2 84.75 Q 320.52 84.26 320.96 84.02 Q 321.4 83.77 321.97 83.77 Q 322.91 83.77 323.39 84.36 Q 323.88 84.94 323.88 86.07 z M 325.03 83.9 L 325.98 83.9 L 327.69 88.49 L 329.4 83.9 L 330.35 83.9 L 328.3 89.37 L 327.08 89.37 L 325.03 83.9 z M 336.27 86.41 L 336.27 86.85 L 332.13 86.85 Q 332.19 87.78 332.69 88.27 Q 333.19 88.75 334.09 88.75 Q 334.61 88.75 335.09 88.63 Q 335.58 88.5 336.06 88.24 L 336.06 89.09 Q 335.57 89.3 335.06 89.41 Q 334.56 89.51 334.03 89.51 Q 332.73 89.51 331.96 88.75 Q 331.2 87.99 331.2 86.69 Q 331.2 85.35 331.92 84.56 Q 332.65 83.77 333.88 83.77 Q 334.98 83.77 335.62 84.48 Q 336.27 85.19 336.27 86.41 M 335.37 86.15 Q 335.36 85.41 334.95 84.97 Q 334.55 84.53 333.89 84.53 Q 333.14 84.53 332.68 84.96 Q 332.23 85.38 332.16 86.15 L 335.37 86.15 z M 337.74 81.77 L 338.64 81.77 L 338.64 89.37 L 337.74 89.37 L 337.74 81.77 z M 342.64 84.53 Q 341.91 84.53 341.49 85.1 Q 341.07 85.66 341.07 86.64 Q 341.07 87.62 341.49 88.19 Q 341.91 88.75 342.64 88.75 Q 343.36 88.75 343.78 88.19 Q 344.2 87.62 344.2 86.64 Q 344.2 85.67 343.78 85.1 Q 343.36 84.53 342.64 84.53 M 342.64 83.77 Q 343.81 83.77 344.48 84.53 Q 345.15 85.3 345.15 86.64 Q 345.15 87.99 344.48 88.75 Q 343.81 89.51 342.64 89.51 Q 341.46 89.51 340.79 88.75 Q 340.13 87.99 340.13 86.64 Q 340.13 85.3 340.79 84.53 Q 341.46 83.77 342.64 83.77 z M 347.51 88.55 L 347.51 91.45 L 346.6 91.45 L 346.6 83.9 L 347.51 83.9 L 347.51 84.73 Q 347.79 84.25 348.22 84.01 Q 348.65 83.77 349.25 83.77 Q 350.25 83.77 350.87 84.56 Q 351.49 85.35 351.49 86.64 Q 351.49 87.93 350.87 88.72 Q 350.25 89.51 349.25 89.51 Q 348.65 89.51 348.22 89.28 Q 347.79 89.04 347.51 88.55 M 350.56 86.64 Q 350.56 85.65 350.15 85.09 Q 349.75 84.52 349.03 84.52 Q 348.32 84.52 347.91 85.09 Q 347.51 85.65 347.51 86.64 Q 347.51 87.63 347.91 88.2 Q 348.32 88.76 349.03 88.76 Q 349.75 88.76 350.15 88.2 Q 350.56 87.63 350.56 86.64 z M 357.66 86.41 L 357.66 86.85 L 353.53 86.85 Q 353.59 87.78 354.09 88.27 Q 354.59 88.75 355.48 88.75 Q 356 88.75 356.49 88.63 Q 356.97 88.5 357.45 88.24 L 357.45 89.09 Q 356.97 89.3 356.46 89.41 Q 355.95 89.51 355.43 89.51 Q 354.12 89.51 353.36 88.75 Q 352.59 87.99 352.59 86.69 Q 352.59 85.35 353.32 84.56 Q 354.04 83.77 355.27 83.77 Q 356.38 83.77 357.02 84.48 Q 357.66 85.19 357.66 86.41 M 356.76 86.15 Q 356.75 85.41 356.35 84.97 Q 355.95 84.53 355.28 84.53 Q 354.53 84.53 354.08 84.96 Q 353.63 85.38 353.56 86.15 L 356.76 86.15 z" fill="#000000"/>
</g>
<g id="annotation-arrow_3">
<path d="M 218.03 167.05 L 234.89 146.43" fill="none" stroke="#000000" stroke-width="1" stroke-linecap="square"/>
</g>
<g id="text_3">
<path d="M 180.59 174.57 L 180.59 175.42 Q 180.21 175.23 179.8 175.13 Q 179.39 175.03 178.95 175.03 Q 178.28 175.03 177.94 175.24 Q 177.61 175.44 177.61 175.85 Q 177.61 176.17 177.85 176.35 Q 178.09 176.52 178.81 176.68 L 179.12 176.75 Q 180.08 176.96 180.48 177.33 Q 180.88 177.7 180.88 178.37 Q 180.88 179.13 180.28 179.58 Q 179.68 180.02 178.62 180.02 Q 178.18 180.02 177.7 179.94 Q 177.23 179.85 176.7 179.68 L 176.7 178.75 Q 177.2 179.01 177.68 179.14 Q 178.17 179.27 178.64 179.27 Q 179.28 179.27 179.62 179.06 Q 179.96 178.84 179.96 178.44 Q 179.96 178.07 179.71 177.88 Q 179.47 177.68 178.63 177.5 L 178.32 177.43 Q 177.48 177.25 177.11 176.89 Q 176.74 176.53 176.74 175.89 Q 176.74 175.12 177.29 174.7 Q 177.83 174.28 178.84 174.28 Q 179.34 174.28 179.78 174.35 Q 180.22 174.43 180.59 174.57 z M 184.8 177.13 Q 183.71 177.13 183.29 177.38 Q 182.87 177.63 182.87 178.23 Q 182.87 178.71 183.18 178.99 Q 183.5 179.27 184.04 179.27 Q 184.79 179.27 185.24 178.74 Q 185.69 178.21 185.69 177.33 L 185.69 177.13 L 184.8 177.13 M 186.59 176.76 L 186.59 179.88 L 185.69 179.88 L 185.69 179.05 Q 185.38 179.55 184.92 179.79 Q 184.47 180.02 183.8 180.02 Q 182.96 180.02 182.46 179.55 Q 181.97 179.08 181.97 178.29 Q 181.97 177.37 182.59 176.9 Q 183.21 176.43 184.43 176.43 L 185.69 176.43 L 185.69 176.34 Q 185.69 175.72 185.28 175.38 Q 184.88 175.04 184.14 175.04 Q 183.67 175.04 183.23 175.15 Q 182.78 175.27 182.37 175.49 L 182.37 174.66 Q 182.86 174.47 183.33 174.38 Q 183.79 174.28 184.23 174.28 Q 185.42 174.28 186 174.9 Q 186.59 175.51 186.59 176.76 z M 192.7 175.46 Q 193.04 174.86 193.5 174.57 Q 193.97 174.28 194.61 174.28 Q 195.46 174.28 195.93 174.88 Q 196.39 175.48 196.39 176.58 L 196.39 179.88 L 195.49 179.88 L 195.49 176.61 Q 195.49 175.82 195.21 175.44 Q 194.93 175.06 194.36 175.06 Q 193.66 175.06 193.25 175.53 Q 192.85 175.99 192.85 176.79 L 192.85 179.88 L 191.95 179.88 L 191.95 176.61 Q 191.95 175.82 191.67 175.44 Q 191.39 175.06 190.81 175.06 Q 190.12 175.06 189.71 175.53 Q 189.31 175.99 189.31 176.79 L 189.31 179.88 L 188.41 179.88 L 188.41 174.41 L 189.31 174.41 L 189.31 175.26 Q 189.62 174.76 190.05 174.52 Q 190.48 174.28 191.07 174.28 Q 191.66 174.28 192.08 174.58 Q 192.5 174.89 192.7 175.46 z M 199.05 179.06 L 199.05 181.96 L 198.15 181.96 L 198.15 174.41 L 199.05 174.41 L 199.05 175.24 Q 199.33 174.75 199.76 174.52 Q 200.2 174.28 200.8 174.28 Q 201.79 174.28 202.41 175.07 Q 203.04 175.86 203.04 177.15 Q 203.04 178.44 202.41 179.23 Q 201.79 180.02 200.8 180.02 Q 200.2 180.02 199.76 179.79 Q 199.33 179.55 199.05 179.06 M 202.11 177.15 Q 202.11 176.16 201.7 175.6 Q 201.29 175.03 200.58 175.03 Q 199.87 175.03 199.46 175.6 Q 199.05 176.16 199.05 177.15 Q 199.05 178.14 199.46 178.71 Q 199.87 179.27 200.58 179.27 Q 201.29 179.27 201.7 178.71 Q 202.11 178.14 202.11 177.15 z M 204.53 172.28 L 205.43 172.28 L 205.43 179.88 L 204.53 179.88 L 204.53 172.28 z M 211.99 176.92 L 211.99 177.36 L 207.85 177.36 Q 207.91 178.29 208.41 178.78 Q 208.91 179.26 209.81 179.26 Q 210.33 179.26 210.81 179.13 Q 211.3 179.01 211.78 178.75 L 211.78 179.6 Q 211.29 179.81 210.78 179.92 Q 210.28 180.02 209.75 180.02 Q 208.45 180.02 207.68 179.26 Q 206.92 178.5 206.92 177.2 Q 206.92 175.86 207.64 175.07 Q 208.37 174.28 209.6 174.28 Q 210.7 174.28 211.34 174.99 Q 211.99 175.7 211.99 176.92 M 211.09 176.66 Q 211.08 175.92 210.67 175.48 Q 210.27 175.04 209.61 175.04 Q 208.86 175.04 208.4 175.47 Q 207.95 175.89 207.88 176.66 L 211.09 176.66 z M 217.06 175.24 L 217.06 172.28 L 217.96 172.28 L 217.96 179.88 L 217.06 179.88 L 217.06 179.06 Q 216.78 179.55 216.34 179.79 Q 215.91 180.02 215.31 180.02 Q 214.31 180.02 213.69 179.23 Q 213.07 178.44 213.07 177.15 Q 213.07 175.86 213.69 175.07 Q 214.31 174.28 215.31 174.28 Q 215.91 174.28 216.34 174.52 Q 216.78 174.75 217.06 175.24 M 214 177.15 Q 214 178.14 214.4 178.71 Q 214.81 179.27 215.53 179.27 Q 216.24 179.27 216.65 178.71 Q 217.06 178.14 217.06 177.15 Q 217.06 176.16 216.65 175.6 Q 216.24 175.03 215.53 175.03 Q 214.81 175.03 214.4 175.6 Q 214 176.16 214 177.15 z z M 227.53 176.58 L 227.53 179.88 L 226.63 179.88 L 226.63 176.61 Q 226.63 175.83 226.33 175.45 Q 226.03 175.06 225.42 175.06 Q 224.7 175.06 224.28 175.53 Q 223.86 175.99 223.86 176.79 L 223.86 179.88 L 222.95 179.88 L 222.95 172.28 L 223.86 172.28 L 223.86 175.26 Q 224.18 174.77 224.61 174.52 Q 225.05 174.28 225.62 174.28 Q 226.57 174.28 227.05 174.87 Q 227.53 175.45 227.53 176.58 z M 234 176.92 L 234 177.36 L 229.87 177.36 Q 229.93 178.29 230.43 178.78 Q 230.93 179.26 231.82 179.26 Q 232.34 179.26 232.83 179.13 Q 233.31 179.01 233.79 178.75 L 233.79 179.6 Q 233.31 179.81 232.8 179.92 Q 232.29 180.02 231.77 180.02 Q 230.46 180.02 229.7 179.26 Q 228.93 178.5 228.93 177.2 Q 228.93 175.86 229.66 175.07 Q 230.38 174.28 231.61 174.28 Q 232.72 174.28 233.36 174.99 Q 234 175.7 234 176.92 M 233.1 176.66 Q 233.09 175.92 232.69 175.48 Q 232.29 175.04 231.62 175.04 Q 230.87 175.04 230.42 175.47 Q 229.97 175.89 229.9 176.66 L 233.1 176.66 z M 238.65 175.25 Q 238.49 175.16 238.31 175.13 Q 238.14 175.08 237.92 175.08 Q 237.16 175.08 236.75 175.58 Q 236.35 176.07 236.35 177 L 236.35 179.88 L 235.44 179.88 L 235.44 174.41 L 236.35 174.41 L 236.35 175.26 Q 236.63 174.76 237.08 174.52 Q 237.54 174.28 238.19 174.28 Q 238.28 174.28 238.39 174.3 Q 238.5 174.3 238.64 174.33 L 238.65 175.25 z M 244.05 176.92 L 244.05 177.36 L 239.91 177.36 Q 239.97 178.29 240.47 178.78 Q 240.97 179.26 241.87 179.26 Q 242.39 179.26 242.87 179.13 Q 243.36 179.01 243.84 178.75 L 243.84 179.6 Q 243.35 179.81 242.84 179.92 Q 242.34 180.02 241.81 180.02 Q 240.51 180.02 239.74 179.26 Q 238.98 178.5 238.98 177.2 Q 238.98 175.86 239.7 175.07 Q 240.43 174.28 241.66 174.28 Q 242.76 174.28 243.4 174.99 Q 244.05 175.7 244.05 176.92 M 243.15 176.66 Q 243.14 175.92 242.73 175.48 Q 242.33 175.04 241.67 175.04 Q 240.92 175.04 240.46 175.47 Q 240.01 175.89 239.94 176.66 L 243.15 176.66 z" fill="#000000"/>
</g>
<g id="spines_1">
<path d="M 57.6 307.58 L 414.72 307.58 L 414.72 41.47 L 57.6 41.47 z" fill="none" stroke="#000000" stroke-width="0.8" stroke-linecap="square" stroke-linejoin="round"/>
</g>
<g id="xtick_1">
<path d="M 73.83 307.58 L 73.83 311.08" fill="none" stroke="#000000" stroke-width="0.8" stroke-linejoin="round"/>
<path d="M 73.83 317.23 Q 73.07 317.23 72.68 317.98 Q 72.3 318.72 72.3 320.23 Q 72.3 321.73 72.68 322.48 Q 73.07 323.23 73.83 323.23 Q 74.6 323.23 74.98 322.48 Q 75.36 321.73 75.36 320.23 Q 75.36 318.72 74.98 317.98 Q 74.6 317.23 73.83 317.23 M 73.83 316.44 Q 75.06 316.44 75.7 317.42 Q 76.35 318.38 76.35 320.23 Q 76.35 322.07 75.7 323.04 Q 75.06 324.01 73.83 324.01 Q 72.6 324.01 71.96 323.04 Q 71.31 322.07 71.31 320.23 Q 71.31 318.38 71.96 317.42 Q 72.6 316.44 73.83 316.44 z" fill="#000000"/>
<path d="M 125.5 307.58 L 125.5 311.08" fill="none" stroke="#000000" stroke-width="0.8" stroke-linejoin="round"/>
<path d="M 124.24 323.04 L 127.68 323.04 L 127.68 323.87 L 123.05 323.87 L 123.05 323.04 Q 123.62 322.46 124.58 321.48 Q 125.55 320.5 125.8 320.21 Q 126.28 319.68 126.46 319.32 Q 126.65 318.94 126.65 318.59 Q 126.65 318.01 126.24 317.64 Q 125.84 317.27 125.18 317.27 Q 124.72 317.27 124.2 317.44 Q 123.69 317.6 123.1 317.92 L 123.1 316.93 Q 123.7 316.69 124.22 316.57 Q 124.73 316.44 125.16 316.44 Q 126.3 316.44 126.97 317.01 Q 127.64 317.58 127.64 318.52 Q 127.64 318.97 127.47 319.38 Q 127.31 319.78 126.86 320.33 Q 126.74 320.47 126.09 321.15 Q 125.43 321.82 124.24 323.04 z" fill="#000000"/>
<path d="M 177.17 307.58 L 177.17 311.08" fill="none" stroke="#000000" stroke-width="0.8" stroke-linejoin="round"/>
<path d="M 177.77 317.44 L 175.28 321.33 L 177.77 321.33 L 177.77 317.44 M 177.51 316.58 L 178.75 316.58 L 178.75 321.33 L 179.79 321.33 L 179.79 322.15 L 178.75 322.15 L 178.75 323.87 L 177.77 323.87 L 177.77 322.15 L 174.48 322.15 L 174.48 321.2 L 177.51 316.58 z" fill="#000000"/>
<path d="M 228.84 307.58 L 228.84 311.08" fill="none" stroke="#000000" stroke-width="0.8" stroke-linejoin="round"/>
<path d="M 228.96 319.83 Q 228.3 319.83 227.91 320.28 Q 227.52 320.74 227.52 321.53 Q 227.52 322.31 227.91 322.77 Q 228.3 323.23 228.96 323.23 Q 229.63 323.23 230.01 322.77 Q 230.4 322.31 230.4 321.53 Q 230.4 320.74 230.01 320.28 Q 229.63 319.83 228.96 319.83 M 230.92 316.74 L 230.92 317.64 Q 230.55 317.46 230.17 317.37 Q 229.79 317.27 229.42 317.27 Q 228.45 317.27 227.93 317.93 Q 227.42 318.59 227.34 319.93 Q 227.63 319.5 228.07 319.28 Q 228.5 319.05 229.02 319.05 Q 230.12 319.05 230.76 319.72 Q 231.4 320.38 231.4 321.53 Q 231.4 322.65 230.73 323.33 Q 230.07 324.01 228.96 324.01 Q 227.7 324.01 227.03 323.04 Q 226.36 322.07 226.36 320.23 Q 226.36 318.5 227.18 317.47 Q 228 316.44 229.38 316.44 Q 229.75 316.44 230.13 316.52 Q 230.51 316.59 230.92 316.74 z" fill="#000000"/>
<path d="M 280.51 307.58 L 280.51 311.08" fill="none" stroke="#000000" stroke-width="0.8" stroke-linejoin="round"/>
<path d="M 280.51 320.4 Q 279.81 320.4 279.4 320.78 Q 279 321.16 279 321.82 Q 279 322.47 279.4 322.85 Q 279.81 323.23 280.51 323.23 Q 281.21 323.23 281.62 322.85 Q 282.03 322.47 282.03 321.82 Q 282.03 321.16 281.62 320.78 Q 281.22 320.4 280.51 320.4 M 279.53 319.98 Q 278.89 319.83 278.53 319.39 Q 278.18 318.96 278.18 318.33 Q 278.18 317.46 278.8 316.95 Q 279.43 316.44 280.51 316.44 Q 281.6 316.44 282.22 316.95 Q 282.84 317.46 282.84 318.33 Q 282.84 318.96 282.48 319.39 Q 282.13 319.83 281.5 319.98 Q 282.22 320.15 282.61 320.63 Q 283.01 321.12 283.01 321.82 Q 283.01 322.88 282.36 323.44 Q 281.72 324.01 280.51 324.01 Q 279.31 324.01 278.66 323.44 Q 278.01 322.88 278.01 321.82 Q 278.01 321.12 278.41 320.63 Q 278.81 320.15 279.53 319.98 M 279.16 318.43 Q 279.16 318.99 279.52 319.31 Q 279.87 319.63 280.51 319.63 Q 281.15 319.63 281.5 319.31 Q 281.86 318.99 281.86 318.43 Q 281.86 317.86 281.5 317.54 Q 281.15 317.23 280.51 317.23 Q 279.87 317.23 279.52 317.54 Q 279.16 317.86 279.16 318.43 z" fill="#000000"/>
<path d="M 332.18 307.58 L 332.18 311.08" fill="none" stroke="#000000" stroke-width="0.8" stroke-linejoin="round"/>
<path d="M 327.06 323.04 L 328.67 323.04 L 328.67 317.47 L 326.92 317.83 L 326.92 316.93 L 328.66 316.58 L 329.65 316.58 L 329.65 323.04 L 331.26 323.04 L 331.26 323.87 L 327.06 323.87 L 327.06 323.04 z M 335.36 317.23 Q 334.6 317.23 334.22 317.98 Q 333.83 318.72 333.83 320.23 Q 333.83 321.73 334.22 322.48 Q 334.6 323.23 335.36 323.23 Q 336.13 323.23 336.51 322.48 Q 336.9 321.73 336.9 320.23 Q 336.9 318.72 336.51 317.98 Q 336.13 317.23 335.36 317.23 M 335.36 316.44 Q 336.59 316.44 337.23 317.42 Q 337.88 318.38 337.88 320.23 Q 337.88 322.07 337.23 323.04 Q 336.59 324.01 335.36 324.01 Q 334.14 324.01 333.49 323.04 Q 332.84 322.07 332.84 320.23 Q 332.84 318.38 333.49 317.42 Q 334.14 316.44 335.36 316.44 z" fill="#000000"/>
<path d="M 383.85 307.58 L 383.85 311.08" fill="none" stroke="#000000" stroke-width="0.8" stroke-linejoin="round"/>
<path d="M 378.73 323.04 L 380.34 323.04 L 380.34 317.47 L 378.59 317.83 L 378.59 316.93 L 380.33 316.58 L 381.32 316.58 L 381.32 323.04 L 382.93 323.04 L 382.93 323.87 L 378.73 323.87 L 378.73 323.04 z M 385.77 323.04 L 389.22 323.04 L 389.22 323.87 L 384.59 323.87 L 384.59 323.04 Q 385.15 322.46 386.12 321.48 Q 387.09 320.5 387.34 320.21 Q 387.81 319.68 388 319.32 Q 388.19 318.94 388.19 318.59 Q 388.19 318.01 387.78 317.64 Q 387.37 317.27 386.72 317.27 Q 386.25 317.27 385.73 317.44 Q 385.22 317.6 384.64 317.92 L 384.64 316.93 Q 385.23 316.69 385.75 316.57 Q 386.27 316.44 386.7 316.44 Q 387.83 316.44 388.5 317.01 Q 389.18 317.58 389.18 318.52 Q 389.18 318.97 389.01 319.38 Q 388.84 319.78 388.4 320.33 Q 388.27 320.47 387.62 321.15 Q 386.97 321.82 385.77 323.04 z" fill="#000000"/>
</g>
<g id="ytick_1">
<path d="M 57.6 287.11 L 54.1 287.11" fill="none" stroke="#000000" stroke-width="0.8" stroke-linejoin="round"/>
<path d="M 27.38 287.03 L 33.64 287.03 L 33.64 287.86 L 27.38 287.86 L 27.38 287.03 z M 35.94 289.75 L 37.55 289.75 L 37.55 284.18 L 35.8 284.54 L 35.8 283.64 L 37.54 283.29 L 38.52 283.29 L 38.52 289.75 L 40.14 289.75 L 40.14 290.58 L 35.94 290.58 L 35.94 289.75 z M 42.13 289.34 L 43.16 289.34 L 43.16 290.58 L 42.13 290.58 L 42.13 289.34 z M 47.42 283.94 Q 46.65 283.94 46.27 284.69 Q 45.89 285.43 45.89 286.94 Q 45.89 288.44 46.27 289.19 Q 46.65 289.94 47.42 289.94 Q 48.18 289.94 48.56 289.19 Q 48.95 288.44 48.95 286.94 Q 48.95 285.43 48.56 284.69 Q 48.18 283.94 47.42 283.94 M 47.42 283.15 Q 48.64 283.15 49.29 284.13 Q 49.94 285.09 49.94 286.94 Q 49.94 288.78 49.29 289.75 Q 48.64 290.72 47.42 290.72 Q 46.19 290.72 45.54 289.75 Q 44.9 288.78 44.9 286.94 Q 44.9 285.09 45.54 284.13 Q 46.19 283.15 47.42 283.15 z" fill="#000000"/>
<path d="M 57.6 235.94 L 54.1 235.94" fill="none" stroke="#000000" stroke-width="0.8" stroke-linejoin="round"/>
<path d="M 27.38 235.85 L 33.64 235.85 L 33.64 236.68 L 27.38 236.68 L 27.38 235.85 z M 37.88 232.76 Q 37.11 232.76 36.73 233.51 Q 36.35 234.26 36.35 235.76 Q 36.35 237.26 36.73 238.01 Q 37.11 238.76 37.88 238.76 Q 38.64 238.76 39.02 238.01 Q 39.41 237.26 39.41 235.76 Q 39.41 234.26 39.02 233.51 Q 38.64 232.76 37.88 232.76 M 37.88 231.98 Q 39.1 231.98 39.75 232.95 Q 40.39 233.92 40.39 235.76 Q 40.39 237.6 39.75 238.58 Q 39.1 239.54 37.88 239.54 Q 36.65 239.54 36 238.58 Q 35.36 237.6 35.36 235.76 Q 35.36 233.92 36 232.95 Q 36.65 231.98 37.88 231.98 z M 42.13 238.16 L 43.16 238.16 L 43.16 239.4 L 42.13 239.4 L 42.13 238.16 z M 45.32 232.11 L 49.19 232.11 L 49.19 232.94 L 46.22 232.94 L 46.22 234.73 Q 46.43 234.65 46.65 234.62 Q 46.86 234.58 47.08 234.58 Q 48.3 234.58 49.01 235.25 Q 49.73 235.92 49.73 237.06 Q 49.73 238.24 48.99 238.89 Q 48.26 239.54 46.93 239.54 Q 46.47 239.54 45.99 239.46 Q 45.52 239.39 45.01 239.23 L 45.01 238.24 Q 45.45 238.48 45.92 238.59 Q 46.39 238.71 46.91 238.71 Q 47.75 238.71 48.25 238.27 Q 48.74 237.82 48.74 237.06 Q 48.74 236.3 48.25 235.86 Q 47.75 235.41 46.91 235.41 Q 46.51 235.41 46.12 235.5 Q 45.73 235.59 45.32 235.77 L 45.32 232.11 z" fill="#000000"/>
<path d="M 57.6 184.76 L 54.1 184.76" fill="none" stroke="#000000" stroke-width="0.8" stroke-linejoin="round"/>
<path d="M 37.88 181.58 Q 37.11 181.58 36.73 182.34 Q 36.35 183.08 36.35 184.59 Q 36.35 186.09 36.73 186.84 Q 37.11 187.59 37.88 187.59 Q 38.64 187.59 39.02 186.84 Q 39.41 186.09 39.41 184.59 Q 39.41 183.08 39.02 182.34 Q 38.64 181.58 37.88 181.58 M 37.88 180.8 Q 39.1 180.8 39.75 181.77 Q 40.39 182.74 40.39 184.59 Q 40.39 186.43 39.75 187.4 Q 39.1 188.37 37.88 188.37 Q 36.65 188.37 36 187.4 Q 35.36 186.43 35.36 184.59 Q 35.36 182.74 36 181.77 Q 36.65 180.8 37.88 180.8 z M 42.13 186.98 L 43.16 186.98 L 43.16 188.22 L 42.13 188.22 L 42.13 186.98 z M 47.42 181.58 Q 46.65 181.58 46.27 182.34 Q 45.89 183.08 45.89 184.59 Q 45.89 186.09 46.27 186.84 Q 46.65 187.59 47.42 187.59 Q 48.18 187.59 48.56 186.84 Q 48.95 186.09 48.95 184.59 Q 48.95 183.08 48.56 182.34 Q 48.18 181.58 47.42 181.58 M 47.42 180.8 Q 48.64 180.8 49.29 181.77 Q 49.94 182.74 49.94 184.59 Q 49.94 186.43 49.29 187.4 Q 48.64 188.37 47.42 188.37 Q 46.19 188.37 45.54 187.4 Q 44.9 186.43 44.9 184.59 Q 44.9 182.74 45.54 181.77 Q 46.19 180.8 47.42 180.8 z" fill="#000000"/>
<path d="M 57.6 133.59 L 54.1 133.59" fill="none" stroke="#000000" stroke-width="0.8" stroke-linejoin="round"/>
<path d="M 37.88 130.41 Q 37.11 130.41 36.73 131.16 Q 36.35 131.91 36.35 133.41 Q 36.35 134.91 36.73 135.66 Q 37.11 136.41 37.88 136.41 Q 38.64 136.41 39.02 135.66 Q 39.41 134.91 39.41 133.41 Q 39.41 131.91 39.02 131.16 Q 38.64 130.41 37.88 130.41 M 37.88 129.63 Q 39.1 129.63 39.75 130.6 Q 40.39 131.57 40.39 133.41 Q 40.39 135.25 39.75 136.22 Q 39.1 137.19 37.88 137.19 Q 36.65 137.19 36 136.22 Q 35.36 135.25 35.36 133.41 Q 35.36 131.57 36 130.6 Q 36.65 129.63 37.88 129.63 z M 42.13 135.81 L 43.16 135.81 L 43.16 137.05 L 42.13 137.05 L 42.13 135.81 z M 45.32 129.76 L 49.19 129.76 L 49.19 130.59 L 46.22 130.59 L 46.22 132.38 Q 46.43 132.3 46.65 132.27 Q 46.86 132.23 47.08 132.23 Q 48.3 132.23 49.01 132.9 Q 49.73 133.57 49.73 134.71 Q 49.73 135.89 48.99 136.54 Q 48.26 137.19 46.93 137.19 Q 46.47 137.19 45.99 137.11 Q 45.52 137.03 45.01 136.88 L 45.01 135.89 Q 45.45 136.13 45.92 136.24 Q 46.39 136.36 46.91 136.36 Q 47.75 136.36 48.25 135.92 Q 48.74 135.47 48.74 134.71 Q 48.74 133.95 48.25 133.5 Q 47.75 133.06 46.91 133.06 Q 46.51 133.06 46.12 133.15 Q 45.73 133.24 45.32 133.42 L 45.32 129.76 z" fill="#000000"/>
<path d="M 57.6 82.41 L 54.1 82.41" fill="none" stroke="#000000" stroke-width="0.8" stroke-linejoin="round"/>
<path d="M 35.94 85.04 L 37.55 85.04 L 37.55 79.48 L 35.8 79.83 L 35.8 78.94 L 37.54 78.58 L 38.52 78.58 L 38.52 85.04 L 40.14 85.04 L 40.14 85.87 L 35.94 85.87 L 35.94 85.04 z M 42.13 84.63 L 43.16 84.63 L 43.16 85.87 L 42.13 85.87 L 42.13 84.63 z M 47.42 79.23 Q 46.65 79.23 46.27 79.99 Q 45.89 80.73 45.89 82.24 Q 45.89 83.74 46.27 84.49 Q 46.65 85.23 47.42 85.23 Q 48.18 85.23 48.56 84.49 Q 48.95 83.74 48.95 82.24 Q 48.95 80.73 48.56 79.99 Q 48.18 79.23 47.42 79.23 M 47.42 78.45 Q 48.64 78.45 49.29 79.42 Q 49.94 80.39 49.94 82.24 Q 49.94 84.08 49.29 85.05 Q 48.64 86.02 47.42 86.02 Q 46.19 86.02 45.54 85.05 Q 44.9 84.08 44.9 82.24 Q 44.9 80.39 45.54 79.42 Q 46.19 78.45 47.42 78.45 z" fill="#000000"/>
</g>
<g id="text_4">
<path d="M 236.03 332.49 L 236.03 334.04 L 237.88 334.04 L 237.88 334.74 L 236.03 334.74 L 236.03 337.71 Q 236.03 338.37 236.21 338.56 Q 236.4 338.75 236.96 338.75 L 237.88 338.75 L 237.88 339.51 L 236.96 339.51 Q 235.92 339.51 235.52 339.12 Q 235.13 338.73 235.13 337.71 L 235.13 334.74 L 234.47 334.74 L 234.47 334.04 L 235.13 334.04 L 235.13 332.49 L 236.03 332.49 z" fill="#000000"/>
</g>
<g id="text_5">
<path d="M 17.21 196.37 Q 17.21 197.46 17.46 197.88 Q 17.71 198.3 18.31 198.3 Q 18.79 198.3 19.07 197.98 Q 19.35 197.67 19.35 197.12 Q 19.35 196.38 18.82 195.93 Q 18.29 195.47 17.41 195.47 L 17.21 195.47 L 17.21 196.37 M 16.84 194.57 L 19.96 194.57 L 19.96 195.47 L 19.13 195.47 Q 19.63 195.78 19.87 196.24 Q 20.1 196.7 20.1 197.36 Q 20.1 198.2 19.63 198.7 Q 19.16 199.19 18.37 199.19 Q 17.44 199.19 16.98 198.58 Q 16.51 197.96 16.51 196.73 L 16.51 195.47 L 16.42 195.47 Q 15.8 195.47 15.46 195.88 Q 15.12 196.29 15.12 197.03 Q 15.12 197.49 15.23 197.94 Q 15.35 198.38 15.57 198.79 L 14.74 198.79 Q 14.55 198.3 14.46 197.84 Q 14.36 197.37 14.36 196.93 Q 14.36 195.75 14.97 195.16 Q 15.59 194.57 16.84 194.57 z M 15.54 188.47 Q 14.93 188.13 14.65 187.66 Q 14.36 187.19 14.36 186.56 Q 14.36 185.7 14.96 185.24 Q 15.56 184.77 16.66 184.77 L 19.96 184.77 L 19.96 185.68 L 16.69 185.68 Q 15.9 185.68 15.52 185.96 Q 15.14 186.23 15.14 186.81 Q 15.14 187.5 15.6 187.91 Q 16.07 188.31 16.87 188.31 L 19.96 188.31 L 19.96 189.22 L 16.69 189.22 Q 15.9 189.22 15.52 189.5 Q 15.14 189.77 15.14 190.36 Q 15.14 191.04 15.61 191.45 Q 16.07 191.85 16.87 191.85 L 19.96 191.85 L 19.96 192.76 L 14.49 192.76 L 14.49 191.85 L 15.34 191.85 Q 14.84 191.55 14.6 191.12 Q 14.36 190.69 14.36 190.1 Q 14.36 189.5 14.66 189.09 Q 14.96 188.67 15.54 188.47 z M 19.14 182.11 L 22.04 182.11 L 22.04 183.02 L 14.49 183.02 L 14.49 182.11 L 15.32 182.11 Q 14.83 181.83 14.6 181.4 Q 14.36 180.97 14.36 180.37 Q 14.36 179.37 15.15 178.75 Q 15.94 178.12 17.23 178.12 Q 18.52 178.12 19.31 178.75 Q 20.1 179.37 20.1 180.37 Q 20.1 180.97 19.87 181.4 Q 19.63 181.83 19.14 182.11 M 17.23 179.06 Q 16.24 179.06 15.68 179.47 Q 15.11 179.87 15.11 180.59 Q 15.11 181.3 15.68 181.71 Q 16.24 182.11 17.23 182.11 Q 18.22 182.11 18.79 181.71 Q 19.35 181.3 19.35 180.59 Q 19.35 179.87 18.79 179.47 Q 18.22 179.06 17.23 179.06 z M 12.36 176.63 L 12.36 175.74 L 19.96 175.74 L 19.96 176.63 L 12.36 176.63 z M 14.49 173.86 L 14.49 172.96 L 19.96 172.96 L 19.96 173.86 L 14.49 173.86 M 12.36 173.86 L 12.36 172.96 L 13.5 172.96 L 13.5 173.86 L 12.36 173.86 z M 12.94 170.19 L 14.49 170.19 L 14.49 168.34 L 15.19 168.34 L 15.19 170.19 L 18.16 170.19 Q 18.83 170.19 19.02 170.01 Q 19.21 169.82 19.21 169.26 L 19.21 168.34 L 19.96 168.34 L 19.96 169.26 Q 19.96 170.3 19.57 170.7 Q 19.18 171.09 18.16 171.09 L 15.19 171.09 L 15.19 171.75 L 14.49 171.75 L 14.49 171.09 L 12.94 171.09 L 12.94 170.19 z M 17.8 167.25 L 14.49 167.25 L 14.49 166.35 L 17.77 166.35 Q 18.54 166.35 18.93 166.05 Q 19.32 165.75 19.32 165.14 Q 19.32 164.41 18.86 163.99 Q 18.39 163.57 17.59 163.57 L 14.49 163.57 L 14.49 162.67 L 19.96 162.67 L 19.96 163.57 L 19.12 163.57 Q 19.62 163.9 19.86 164.33 Q 20.1 164.76 20.1 165.33 Q 20.1 166.27 19.52 166.76 Q 18.93 167.25 17.8 167.25 M 14.36 164.99 L 14.36 164.99 z M 15.32 157.22 L 12.36 157.22 L 12.36 156.32 L 19.96 156.32 L 19.96 157.22 L 19.14 157.22 Q 19.63 157.5 19.87 157.94 Q 20.1 158.37 20.1 158.97 Q 20.1 159.97 19.31 160.59 Q 18.52 161.21 17.23 161.21 Q 15.94 161.21 15.15 160.59 Q 14.36 159.97 14.36 158.97 Q 14.36 158.37 14.6 157.94 Q 14.83 157.5 15.32 157.22 M 17.23 160.28 Q 18.22 160.28 18.79 159.88 Q 19.35 159.47 19.35 158.75 Q 19.35 158.04 18.79 157.63 Q 18.22 157.22 17.23 157.22 Q 16.24 157.22 15.68 157.63 Q 15.11 158.04 15.11 158.75 Q 15.11 159.47 15.68 159.88 Q 16.24 160.28 17.23 160.28 z M 17 149.79 L 17.44 149.79 L 17.44 153.92 Q 18.37 153.87 18.86 153.37 Q 19.34 152.87 19.34 151.97 Q 19.34 151.45 19.21 150.97 Q 19.09 150.48 18.83 150 L 19.68 150 Q 19.89 150.49 19.99 151 Q 20.1 151.5 20.1 152.03 Q 20.1 153.33 19.34 154.1 Q 18.58 154.86 17.28 154.86 Q 15.94 154.86 15.15 154.14 Q 14.36 153.41 14.36 152.18 Q 14.36 151.08 15.07 150.44 Q 15.78 149.79 17 149.79 M 16.74 150.69 Q 16 150.7 15.56 151.11 Q 15.12 151.51 15.12 152.17 Q 15.12 152.92 15.55 153.38 Q 15.97 153.83 16.74 153.9 L 16.74 150.69 z" fill="#000000"/>
</g>
<g id="text_6">
<path d="M 180.9 24.87 L 180.9 31.67 L 182.33 31.67 Q 184.14 31.67 184.98 30.85 Q 185.82 30.03 185.82 28.26 Q 185.82 26.5 184.98 25.69 Q 184.14 24.87 182.33 24.87 L 180.9 24.87 M 179.71 23.89 L 182.15 23.89 Q 184.69 23.89 185.88 24.95 Q 187.07 26.01 187.07 28.26 Q 187.07 30.52 185.87 31.58 Q 184.68 32.64 182.15 32.64 L 179.71 32.64 L 179.71 23.89 z M 191.89 29.34 Q 190.58 29.34 190.08 29.64 Q 189.58 29.94 189.58 30.66 Q 189.58 31.24 189.95 31.58 Q 190.33 31.91 190.98 31.91 Q 191.88 31.91 192.42 31.28 Q 192.96 30.64 192.96 29.58 L 192.96 29.34 L 191.89 29.34 M 194.04 28.9 L 194.04 32.64 L 192.96 32.64 L 192.96 31.65 Q 192.59 32.24 192.04 32.53 Q 191.49 32.81 190.69 32.81 Q 189.69 32.81 189.09 32.25 Q 188.5 31.68 188.5 30.73 Q 188.5 29.62 189.24 29.06 Q 189.98 28.5 191.45 28.5 L 192.96 28.5 L 192.96 28.39 Q 192.96 27.65 192.47 27.25 Q 191.98 26.84 191.1 26.84 Q 190.54 26.84 190 26.97 Q 189.47 27.1 188.98 27.37 L 188.98 26.38 Q 189.57 26.15 190.13 26.04 Q 190.68 25.92 191.21 25.92 Q 192.63 25.92 193.34 26.66 Q 194.04 27.4 194.04 28.9 z M 201.37 27.34 Q 201.77 26.61 202.34 26.27 Q 202.9 25.92 203.66 25.92 Q 204.69 25.92 205.24 26.64 Q 205.8 27.36 205.8 28.68 L 205.8 32.64 L 204.72 32.64 L 204.72 28.72 Q 204.72 27.77 204.38 27.32 Q 204.05 26.86 203.36 26.86 Q 202.52 26.86 202.04 27.42 Q 201.55 27.97 201.55 28.93 L 201.55 32.64 L 200.47 32.64 L 200.47 28.72 Q 200.47 27.77 200.13 27.32 Q 199.8 26.86 199.1 26.86 Q 198.28 26.86 197.79 27.42 Q 197.3 27.98 197.3 28.93 L 197.3 32.64 L 196.22 32.64 L 196.22 26.08 L 197.3 26.08 L 197.3 27.1 Q 197.67 26.5 198.19 26.21 Q 198.7 25.92 199.41 25.92 Q 200.13 25.92 200.63 26.28 Q 201.13 26.65 201.37 27.34 z M 208.99 31.66 L 208.99 35.14 L 207.91 35.14 L 207.91 26.08 L 208.99 26.08 L 208.99 27.08 Q 209.33 26.49 209.85 26.21 Q 210.37 25.92 211.09 25.92 Q 212.29 25.92 213.03 26.87 Q 213.78 27.82 213.78 29.37 Q 213.78 30.91 213.03 31.86 Q 212.29 32.81 211.09 32.81 Q 210.37 32.81 209.85 32.53 Q 209.33 32.24 208.99 31.66 M 212.66 29.37 Q 212.66 28.18 212.17 27.5 Q 211.68 26.82 210.83 26.82 Q 209.97 26.82 209.48 27.5 Q 208.99 28.18 208.99 29.37 Q 208.99 30.56 209.48 31.24 Q 209.97 31.91 210.83 31.91 Q 211.68 31.91 212.17 31.24 Q 212.66 30.56 212.66 29.37 z M 221.18 29.09 L 221.18 29.62 L 216.22 29.62 Q 216.29 30.73 216.89 31.32 Q 217.49 31.9 218.57 31.9 Q 219.19 31.9 219.77 31.75 Q 220.35 31.59 220.93 31.29 L 220.93 32.31 Q 220.35 32.55 219.74 32.68 Q 219.13 32.81 218.5 32.81 Q 216.93 32.81 216.01 31.9 Q 215.1 30.98 215.1 29.43 Q 215.1 27.81 215.97 26.87 Q 216.84 25.92 218.32 25.92 Q 219.64 25.92 220.41 26.78 Q 221.18 27.63 221.18 29.09 M 220.1 28.77 Q 220.09 27.89 219.6 27.36 Q 219.12 26.84 218.33 26.84 Q 217.42 26.84 216.88 27.35 Q 216.34 27.85 216.26 28.78 L 220.1 28.77 z M 227.27 27.08 L 227.27 23.52 L 228.35 23.52 L 228.35 32.64 L 227.27 32.64 L 227.27 31.66 Q 226.93 32.24 226.41 32.53 Q 225.89 32.81 225.16 32.81 Q 223.98 32.81 223.23 31.86 Q 222.48 30.91 222.48 29.37 Q 222.48 27.82 223.23 26.87 Q 223.98 25.92 225.16 25.92 Q 225.89 25.92 226.41 26.21 Q 226.93 26.49 227.27 27.08 M 223.59 29.37 Q 223.59 30.56 224.08 31.24 Q 224.57 31.91 225.43 31.91 Q 226.28 31.91 226.78 31.24 Q 227.27 30.56 227.27 29.37 Q 227.27 28.18 226.78 27.5 Q 226.28 26.82 225.43 26.82 Q 224.57 26.82 224.08 27.5 Q 223.59 28.18 223.59 29.37 z z M 236.92 26.84 Q 236.06 26.84 235.55 27.51 Q 235.05 28.19 235.05 29.37 Q 235.05 30.54 235.55 31.22 Q 236.05 31.9 236.92 31.9 Q 237.79 31.9 238.29 31.22 Q 238.79 30.54 238.79 29.37 Q 238.79 28.2 238.29 27.52 Q 237.79 26.84 236.92 26.84 M 236.92 25.92 Q 238.33 25.92 239.13 26.84 Q 239.94 27.75 239.94 29.37 Q 239.94 30.98 239.13 31.9 Q 238.33 32.81 236.92 32.81 Q 235.51 32.81 234.71 31.9 Q 233.91 30.98 233.91 29.37 Q 233.91 27.75 234.71 26.84 Q 235.51 25.92 236.92 25.92 z M 245.91 26.27 L 245.91 27.29 Q 245.45 27.06 244.96 26.94 Q 244.47 26.82 243.94 26.82 Q 243.14 26.82 242.73 27.07 Q 242.33 27.32 242.33 27.81 Q 242.33 28.18 242.62 28.4 Q 242.91 28.61 243.77 28.8 L 244.14 28.89 Q 245.29 29.13 245.77 29.58 Q 246.26 30.03 246.26 30.83 Q 246.26 31.75 245.53 32.28 Q 244.81 32.81 243.55 32.81 Q 243.02 32.81 242.44 32.71 Q 241.88 32.61 241.24 32.4 L 241.24 31.29 Q 241.84 31.6 242.42 31.76 Q 243 31.91 243.57 31.91 Q 244.33 31.91 244.74 31.65 Q 245.15 31.39 245.15 30.91 Q 245.15 30.47 244.85 30.24 Q 244.56 30.01 243.56 29.79 L 243.18 29.7 Q 242.18 29.49 241.74 29.06 Q 241.29 28.62 241.29 27.85 Q 241.29 26.93 241.95 26.43 Q 242.6 25.92 243.81 25.92 Q 244.41 25.92 244.93 26.01 Q 245.46 26.1 245.91 26.27 z M 252.7 26.33 L 252.7 27.34 Q 252.24 27.09 251.78 26.96 Q 251.32 26.84 250.85 26.84 Q 249.8 26.84 249.22 27.5 Q 248.64 28.17 248.64 29.37 Q 248.64 30.57 249.22 31.24 Q 249.8 31.9 250.85 31.9 Q 251.32 31.9 251.78 31.77 Q 252.24 31.65 252.7 31.39 L 252.7 32.39 Q 252.25 32.6 251.76 32.71 Q 251.28 32.81 250.74 32.81 Q 249.25 32.81 248.38 31.88 Q 247.51 30.95 247.51 29.37 Q 247.51 27.76 248.39 26.84 Q 249.27 25.92 250.81 25.92 Q 251.3 25.92 251.78 26.03 Q 252.25 26.13 252.7 26.33 z M 254.57 26.08 L 255.65 26.08 L 255.65 32.64 L 254.57 32.64 L 254.57 26.08 M 254.57 23.52 L 255.65 23.52 L 255.65 24.89 L 254.57 24.89 L 254.57 23.52 z M 257.91 23.52 L 258.99 23.52 L 258.99 32.64 L 257.91 32.64 L 257.91 23.52 z M 261.24 23.52 L 262.32 23.52 L 262.32 32.64 L 261.24 32.64 L 261.24 23.52 z M 267.56 29.34 Q 266.25 29.34 265.75 29.64 Q 265.24 29.94 265.24 30.66 Q 265.24 31.24 265.62 31.58 Q 266 31.91 266.65 31.91 Q 267.55 31.91 268.08 31.28 Q 268.63 30.64 268.63 29.58 L 268.63 29.34 L 267.56 29.34 M 269.71 28.9 L 269.71 32.64 L 268.63 32.64 L 268.63 31.65 Q 268.26 32.24 267.71 32.53 Q 267.16 32.81 266.36 32.81 Q 265.35 32.81 264.76 32.25 Q 264.16 31.68 264.16 30.73 Q 264.16 29.62 264.9 29.06 Q 265.65 28.5 267.12 28.5 L 268.63 28.5 L 268.63 28.39 Q 268.63 27.65 268.14 27.25 Q 267.65 26.84 266.77 26.84 Q 266.2 26.84 265.67 26.97 Q 265.14 27.1 264.65 27.37 L 264.65 26.38 Q 265.24 26.15 265.79 26.04 Q 266.35 25.92 266.88 25.92 Q 268.3 25.92 269 26.66 Q 269.71 27.4 269.71 28.9 z M 272.99 24.22 L 272.99 26.08 L 275.22 26.08 L 275.22 26.92 L 272.99 26.92 L 272.99 30.48 Q 272.99 31.28 273.21 31.51 Q 273.43 31.74 274.11 31.74 L 275.22 31.74 L 275.22 32.64 L 274.11 32.64 Q 272.86 32.64 272.39 32.18 Q 271.91 31.71 271.91 30.48 L 271.91 26.92 L 271.12 26.92 L 271.12 26.08 L 271.91 26.08 L 271.91 24.22 L 272.99 24.22 z M 276.63 26.08 L 277.71 26.08 L 277.71 32.64 L 276.63 32.64 L 276.63 26.08 M 276.63 23.52 L 277.71 23.52 L 277.71 24.89 L 276.63 24.89 L 276.63 23.52 z M 282.51 26.84 Q 281.64 26.84 281.14 27.51 Q 280.64 28.19 280.64 29.37 Q 280.64 30.54 281.13 31.22 Q 281.64 31.9 282.51 31.9 Q 283.37 31.9 283.88 31.22 Q 284.38 30.54 284.38 29.37 Q 284.38 28.2 283.88 27.52 Q 283.37 26.84 282.51 26.84 M 282.51 25.92 Q 283.92 25.92 284.72 26.84 Q 285.52 27.75 285.52 29.37 Q 285.52 30.98 284.72 31.9 Q 283.92 32.81 282.51 32.81 Q 281.1 32.81 280.3 31.9 Q 279.5 30.98 279.5 29.37 Q 279.5 27.75 280.3 26.84 Q 281.1 25.92 282.51 25.92 z M 292.76 28.68 L 292.76 32.64 L 291.69 32.64 L 291.69 28.72 Q 291.69 27.78 291.32 27.32 Q 290.96 26.86 290.23 26.86 Q 289.36 26.86 288.86 27.42 Q 288.35 27.97 288.35 28.93 L 288.35 32.64 L 287.27 32.64 L 287.27 26.08 L 288.35 26.08 L 288.35 27.1 Q 288.74 26.51 289.26 26.21 Q 289.79 25.92 290.47 25.92 Q 291.6 25.92 292.18 26.62 Q 292.76 27.32 292.76 28.68 z" fill="#000000"/>
</g>
</g>
</g>
</svg>
