<?xml version="1.0" encoding="utf-8" standalone="no"?>
<!DOCTYPE svg PUBLIC "-//W3C//DTD SVG 1.1//EN" "http://www.w3.org/Graphics/SVG/1.1/DTD/svg11.dtd">
<svg xmlns="http://www.w3.org/2000/svg" width="720pt" height="540pt" viewBox="0 0 720 540" version="1.1">
<defs>
<clipPath id="p1"><rect x="39.8" y="30.77" width="309.4" height="194.15"/></clipPath>
<clipPath id="p2"><rect x="406.17" y="30.77" width="303.03" height="194.15"/></clipPath>
<clipPath id="p3"><rect x="49.34" y="300.77" width="299.86" height="194.15"/></clipPath>
<path id="m1" d="M -3 3 L 3 3 L 3 -3 L -3 -3 z"/>
<path id="m2" d="M 3 0 L -3 0"/>
<clipPath id="p4"><rect x="466.39" y="300.77" width="194.15" height="194.15"/></clipPath>
</defs>
<g id="figure_1">
<path d="M 0 540 L 720 540 L 720 0 L 0 0 z" fill="#ffffff"/>
<g id="axes_1">
<path d="M 39.8 224.92 L 349.2 224.92 L 349.2 30.77 L 39.8 30.77 z" fill="#ffffff"/>
<g id="patch_1">
<path clip-path="url(#p1)" d="M 53.87 224.92 L 100.74 224.92 L 100.74 131.35 L 53.87 131.35 z" fill="#1f77b4"/>
</g>
<g id="patch_2">
<path clip-path="url(#p1)" d="M 112.46 224.92 L 159.34 224.92 L 159.34 66.75 L 112.46 66.75 z" fill="#1f77b4"/>
</g>
<g id="patch_3">
<path clip-path="url(#p1)" d="M 171.06 224.92 L 217.94 224.92 L 217.94 82.34 L 171.06 82.34 z" fill="#1f77b4"/>
</g>
<g id="patch_4">
<path clip-path="url(#p1)" d="M 229.66 224.92 L 276.54 224.92 L 276.54 40.01 L 229.66 40.01 z" fill="#1f77b4"/>
</g>
<g id="patch_5">
<path clip-path="url(#p1)" d="M 288.26 224.92 L 335.14 224.92 L 335.14 93.48 L 288.26 93.48 z" fill="#1f77b4"/>
</g>
<g id="spines_1">
<path d="M 39.8 224.92 L 349.2 224.92 L 349.2 30.77 L 39.8 30.77 z" fill="none" stroke="#000000" stroke-width="0.8" stroke-linecap="square" stroke-linejoin="round"/>
</g>
<g id="xtick_1">
<path d="M 77.31 224.92 L 77.31 228.42" fill="none" stroke="#000000" stroke-width="0.8" stroke-linejoin="round"/>
<path d="M 71.41 236.78 Q 71.74 236.18 72.21 235.89 Q 72.68 235.6 73.32 235.6 Q 74.17 235.6 74.63 236.2 Q 75.1 236.8 75.1 237.9 L 75.1 241.2 L 74.2 241.2 L 74.2 237.93 Q 74.2 237.14 73.92 236.76 Q 73.64 236.38 73.07 236.38 Q 72.37 236.38 71.96 236.85 Q 71.56 237.31 71.56 238.11 L 71.56 241.2 L 70.66 241.2 L 70.66 237.93 Q 70.66 237.14 70.38 236.76 Q 70.1 236.38 69.52 236.38 Q 68.83 236.38 68.42 236.85 Q 68.02 237.31 68.02 238.11 L 68.02 241.2 L 67.12 241.2 L 67.12 235.73 L 68.02 235.73 L 68.02 236.58 Q 68.33 236.08 68.76 235.84 Q 69.19 235.6 69.78 235.6 Q 70.37 235.6 70.79 235.9 Q 71.21 236.21 71.41 236.78 z M 79.01 236.36 Q 78.29 236.36 77.87 236.93 Q 77.45 237.49 77.45 238.47 Q 77.45 239.45 77.86 240.02 Q 78.28 240.58 79.01 240.58 Q 79.73 240.58 80.15 240.01 Q 80.57 239.45 80.57 238.47 Q 80.57 237.5 80.15 236.93 Q 79.73 236.36 79.01 236.36 M 79.01 235.6 Q 80.18 235.6 80.85 236.36 Q 81.52 237.12 81.52 238.47 Q 81.52 239.81 80.85 240.58 Q 80.18 241.34 79.01 241.34 Q 77.83 241.34 77.16 240.58 Q 76.5 239.81 76.5 238.47 Q 76.5 237.12 77.16 236.36 Q 77.83 235.6 79.01 235.6 z M 87.55 237.9 L 87.55 241.2 L 86.66 241.2 L 86.66 237.93 Q 86.66 237.15 86.35 236.77 Q 86.05 236.38 85.45 236.38 Q 84.72 236.38 84.3 236.85 Q 83.88 237.31 83.88 238.11 L 83.88 241.2 L 82.97 241.2 L 82.97 235.73 L 83.88 235.73 L 83.88 236.58 Q 84.2 236.09 84.63 235.84 Q 85.07 235.6 85.65 235.6 Q 86.59 235.6 87.07 236.19 Q 87.55 236.77 87.55 237.9 z" fill="#000000"/>
<path d="M 135.9 224.92 L 135.9 228.42" fill="none" stroke="#000000" stroke-width="0.8" stroke-linejoin="round"/>
<path d="M 129.53 234.18 L 129.53 235.73 L 131.38 235.73 L 131.38 236.43 L 129.53 236.43 L 129.53 239.4 Q 129.53 240.07 129.71 240.26 Q 129.9 240.45 130.46 240.45 L 131.38 240.45 L 131.38 241.2 L 130.46 241.2 Q 129.42 241.2 129.02 240.82 Q 128.63 240.42 128.63 239.4 L 128.63 236.43 L 127.97 236.43 L 127.97 235.73 L 128.63 235.73 L 128.63 234.18 L 129.53 234.18 z M 132.47 239.04 L 132.47 235.73 L 133.37 235.73 L 133.37 239.01 Q 133.37 239.78 133.67 240.18 Q 133.97 240.56 134.58 240.56 Q 135.31 240.56 135.73 240.1 Q 136.15 239.63 136.15 238.83 L 136.15 235.73 L 137.05 235.73 L 137.05 241.2 L 136.15 241.2 L 136.15 240.36 Q 135.82 240.86 135.39 241.1 Q 134.96 241.34 134.39 241.34 Q 133.45 241.34 132.96 240.76 Q 132.47 240.17 132.47 239.04 M 134.73 235.6 L 134.73 235.6 z M 143.58 238.24 L 143.58 238.68 L 139.45 238.68 Q 139.5 239.61 140 240.1 Q 140.51 240.58 141.4 240.58 Q 141.92 240.58 142.4 240.45 Q 142.89 240.33 143.37 240.07 L 143.37 240.92 Q 142.88 241.13 142.38 241.24 Q 141.87 241.34 141.35 241.34 Q 140.04 241.34 139.27 240.58 Q 138.51 239.82 138.51 238.52 Q 138.51 237.18 139.23 236.39 Q 139.96 235.6 141.19 235.6 Q 142.29 235.6 142.93 236.31 Q 143.58 237.02 143.58 238.24 M 142.68 237.98 Q 142.67 237.24 142.26 236.8 Q 141.86 236.36 141.2 236.36 Q 140.45 236.36 139.99 236.79 Q 139.54 237.21 139.48 237.98 L 142.68 237.98 z" fill="#000000"/>
<path d="M 194.5 224.92 L 194.5 228.42" fill="none" stroke="#000000" stroke-width="0.8" stroke-linejoin="round"/>
<path d="M 184.58 235.73 L 185.48 235.73 L 186.6 240 L 187.72 235.73 L 188.78 235.73 L 189.9 240 L 191.02 235.73 L 191.92 235.73 L 190.49 241.2 L 189.43 241.2 L 188.25 236.72 L 187.07 241.2 L 186.01 241.2 L 184.58 235.73 z M 197.96 238.24 L 197.96 238.68 L 193.83 238.68 Q 193.89 239.61 194.39 240.1 Q 194.89 240.58 195.78 240.58 Q 196.3 240.58 196.78 240.45 Q 197.27 240.33 197.75 240.07 L 197.75 240.92 Q 197.27 241.13 196.76 241.24 Q 196.25 241.34 195.73 241.34 Q 194.42 241.34 193.65 240.58 Q 192.89 239.82 192.89 238.52 Q 192.89 237.18 193.62 236.39 Q 194.34 235.6 195.57 235.6 Q 196.68 235.6 197.32 236.31 Q 197.96 237.02 197.96 238.24 M 197.06 237.98 Q 197.05 237.24 196.65 236.8 Q 196.25 236.36 195.58 236.36 Q 194.83 236.36 194.38 236.79 Q 193.93 237.21 193.86 237.98 L 197.06 237.98 z M 203.03 236.56 L 203.03 233.6 L 203.93 233.6 L 203.93 241.2 L 203.03 241.2 L 203.03 240.38 Q 202.75 240.87 202.32 241.11 Q 201.89 241.34 201.28 241.34 Q 200.29 241.34 199.67 240.55 Q 199.04 239.76 199.04 238.47 Q 199.04 237.18 199.67 236.39 Q 200.29 235.6 201.28 235.6 Q 201.89 235.6 202.32 235.84 Q 202.75 236.07 203.03 236.56 M 199.97 238.47 Q 199.97 239.46 200.38 240.03 Q 200.79 240.59 201.5 240.59 Q 202.21 240.59 202.62 240.03 Q 203.03 239.46 203.03 238.47 Q 203.03 237.48 202.62 236.92 Q 202.21 236.35 201.5 236.35 Q 200.79 236.35 200.38 236.92 Q 199.97 237.48 199.97 238.47 z" fill="#000000"/>
<path d="M 253.1 224.92 L 253.1 228.42" fill="none" stroke="#000000" stroke-width="0.8" stroke-linejoin="round"/>
<path d="M 246.63 234.18 L 246.63 235.73 L 248.48 235.73 L 248.48 236.43 L 246.63 236.43 L 246.63 239.4 Q 246.63 240.07 246.81 240.26 Q 247 240.45 247.56 240.45 L 248.48 240.45 L 248.48 241.2 L 247.56 241.2 Q 246.52 241.2 246.12 240.82 Q 245.73 240.42 245.73 239.4 L 245.73 236.43 L 245.07 236.43 L 245.07 235.73 L 245.73 235.73 L 245.73 234.18 L 246.63 234.18 z M 254.21 237.9 L 254.21 241.2 L 253.31 241.2 L 253.31 237.93 Q 253.31 237.15 253.01 236.77 Q 252.71 236.38 252.1 236.38 Q 251.37 236.38 250.95 236.85 Q 250.53 237.31 250.53 238.11 L 250.53 241.2 L 249.63 241.2 L 249.63 233.6 L 250.53 233.6 L 250.53 236.58 Q 250.86 236.09 251.29 235.84 Q 251.73 235.6 252.3 235.6 Q 253.24 235.6 253.73 236.19 Q 254.21 236.77 254.21 237.9 z M 255.91 239.04 L 255.91 235.73 L 256.81 235.73 L 256.81 239.01 Q 256.81 239.78 257.11 240.18 Q 257.41 240.56 258.02 240.56 Q 258.75 240.56 259.17 240.1 Q 259.59 239.63 259.59 238.83 L 259.59 235.73 L 260.49 235.73 L 260.49 241.2 L 259.59 241.2 L 259.59 240.36 Q 259.26 240.86 258.83 241.1 Q 258.4 241.34 257.83 241.34 Q 256.89 241.34 256.4 240.76 Q 255.91 240.17 255.91 239.04 M 258.17 235.6 L 258.17 235.6 z" fill="#000000"/>
<path d="M 311.7 224.92 L 311.7 228.42" fill="none" stroke="#000000" stroke-width="0.8" stroke-linejoin="round"/>
<path d="M 310.2 233.6 L 310.2 234.35 L 309.34 234.35 Q 308.86 234.35 308.67 234.55 Q 308.48 234.74 308.48 235.25 L 308.48 235.73 L 309.96 235.73 L 309.96 236.43 L 308.48 236.43 L 308.48 241.2 L 307.58 241.2 L 307.58 236.43 L 306.72 236.43 L 306.72 235.73 L 307.58 235.73 L 307.58 235.35 Q 307.58 234.44 308.01 234.02 Q 308.43 233.6 309.35 233.6 L 310.2 233.6 z M 314.12 236.57 Q 313.97 236.48 313.79 236.45 Q 313.62 236.4 313.4 236.4 Q 312.64 236.4 312.23 236.9 Q 311.82 237.39 311.82 238.32 L 311.82 241.2 L 310.92 241.2 L 310.92 235.73 L 311.82 235.73 L 311.82 236.58 Q 312.11 236.08 312.56 235.84 Q 313.02 235.6 313.67 235.6 Q 313.76 235.6 313.87 235.62 Q 313.98 235.62 314.12 235.65 L 314.12 236.57 z M 315.07 235.73 L 315.96 235.73 L 315.96 241.2 L 315.07 241.2 L 315.07 235.73 M 315.07 233.6 L 315.96 233.6 L 315.96 234.74 L 315.07 234.74 L 315.07 233.6 z" fill="#000000"/>
</g>
<g id="ytick_1">
<path d="M 39.8 224.92 L 36.3 224.92" fill="none" stroke="#000000" stroke-width="0.8" stroke-linejoin="round"/>
<path d="M 29.62 221.74 Q 28.86 221.74 28.47 222.49 Q 28.09 223.24 28.09 224.74 Q 28.09 226.24 28.47 226.99 Q 28.86 227.74 29.62 227.74 Q 30.39 227.74 30.77 226.99 Q 31.15 226.24 31.15 224.74 Q 31.15 223.24 30.77 222.49 Q 30.39 221.74 29.62 221.74 M 29.62 220.96 Q 30.84 220.96 31.49 221.93 Q 32.14 222.9 32.14 224.74 Q 32.14 226.58 31.49 227.56 Q 30.84 228.52 29.62 228.52 Q 28.39 228.52 27.74 227.56 Q 27.1 226.58 27.1 224.74 Q 27.1 222.9 27.74 221.93 Q 28.39 220.96 29.62 220.96 z" fill="#000000"/>
<path d="M 39.8 202.64 L 36.3 202.64" fill="none" stroke="#000000" stroke-width="0.8" stroke-linejoin="round"/>
<path d="M 27.68 205.27 L 29.29 205.27 L 29.29 199.71 L 27.54 200.06 L 27.54 199.16 L 29.28 198.81 L 30.27 198.81 L 30.27 205.27 L 31.88 205.27 L 31.88 206.1 L 27.68 206.1 L 27.68 205.27 z" fill="#000000"/>
<path d="M 39.8 180.36 L 36.3 180.36" fill="none" stroke="#000000" stroke-width="0.8" stroke-linejoin="round"/>
<path d="M 28.36 183 L 31.8 183 L 31.8 183.83 L 27.17 183.83 L 27.17 183 Q 27.73 182.41 28.7 181.44 Q 29.67 180.46 29.92 180.17 Q 30.4 179.64 30.58 179.27 Q 30.77 178.9 30.77 178.55 Q 30.77 177.97 30.36 177.6 Q 29.96 177.23 29.3 177.23 Q 28.84 177.23 28.32 177.39 Q 27.81 177.56 27.22 177.88 L 27.22 176.89 Q 27.82 176.65 28.34 176.53 Q 28.85 176.4 29.28 176.4 Q 30.42 176.4 31.09 176.97 Q 31.76 177.54 31.76 178.48 Q 31.76 178.93 31.59 179.34 Q 31.43 179.74 30.98 180.29 Q 30.86 180.43 30.21 181.11 Q 29.55 181.78 28.36 183 z" fill="#000000"/>
<path d="M 39.8 158.09 L 36.3 158.09" fill="none" stroke="#000000" stroke-width="0.8" stroke-linejoin="round"/>
<path d="M 30.5 157.62 Q 31.21 157.77 31.6 158.25 Q 32 158.73 32 159.43 Q 32 160.51 31.26 161.1 Q 30.52 161.69 29.15 161.69 Q 28.69 161.69 28.2 161.6 Q 27.72 161.51 27.2 161.33 L 27.2 160.38 Q 27.61 160.62 28.1 160.74 Q 28.59 160.86 29.12 160.86 Q 30.05 160.86 30.53 160.49 Q 31.02 160.13 31.02 159.43 Q 31.02 158.78 30.57 158.42 Q 30.12 158.06 29.31 158.06 L 28.46 158.06 L 28.46 157.25 L 29.35 157.25 Q 30.08 157.25 30.46 156.96 Q 30.85 156.66 30.85 156.12 Q 30.85 155.56 30.45 155.26 Q 30.05 154.96 29.31 154.96 Q 28.91 154.96 28.44 155.04 Q 27.98 155.13 27.42 155.32 L 27.42 154.44 Q 27.98 154.28 28.47 154.2 Q 28.97 154.13 29.4 154.13 Q 30.52 154.13 31.18 154.64 Q 31.83 155.15 31.83 156.02 Q 31.83 156.62 31.48 157.04 Q 31.14 157.46 30.5 157.62 z" fill="#000000"/>
<path d="M 39.8 135.81 L 36.3 135.81" fill="none" stroke="#000000" stroke-width="0.8" stroke-linejoin="round"/>
<path d="M 30.22 132.84 L 27.73 136.73 L 30.22 136.73 L 30.22 132.84 M 29.96 131.98 L 31.2 131.98 L 31.2 136.73 L 32.24 136.73 L 32.24 137.55 L 31.2 137.55 L 31.2 139.27 L 30.22 139.27 L 30.22 137.55 L 26.93 137.55 L 26.93 136.6 L 29.96 131.98 z" fill="#000000"/>
<path d="M 39.8 113.53 L 36.3 113.53" fill="none" stroke="#000000" stroke-width="0.8" stroke-linejoin="round"/>
<path d="M 27.52 109.7 L 31.39 109.7 L 31.39 110.53 L 28.42 110.53 L 28.42 112.32 Q 28.64 112.25 28.85 112.21 Q 29.07 112.17 29.28 112.17 Q 30.5 112.17 31.22 112.84 Q 31.93 113.51 31.93 114.65 Q 31.93 115.83 31.2 116.48 Q 30.46 117.13 29.13 117.13 Q 28.67 117.13 28.19 117.06 Q 27.72 116.98 27.21 116.82 L 27.21 115.83 Q 27.65 116.07 28.12 116.19 Q 28.59 116.3 29.11 116.3 Q 29.96 116.3 30.45 115.86 Q 30.94 115.42 30.94 114.65 Q 30.94 113.89 30.45 113.45 Q 29.96 113 29.11 113 Q 28.72 113 28.32 113.09 Q 27.93 113.18 27.52 113.36 L 27.52 109.7 z" fill="#000000"/>
<path d="M 39.8 91.25 L 36.3 91.25" fill="none" stroke="#000000" stroke-width="0.8" stroke-linejoin="round"/>
<path d="M 29.74 90.68 Q 29.08 90.68 28.69 91.13 Q 28.3 91.58 28.3 92.38 Q 28.3 93.16 28.69 93.62 Q 29.08 94.07 29.74 94.07 Q 30.41 94.07 30.79 93.62 Q 31.18 93.16 31.18 92.38 Q 31.18 91.58 30.79 91.13 Q 30.41 90.68 29.74 90.68 M 31.7 87.59 L 31.7 88.48 Q 31.33 88.31 30.95 88.22 Q 30.57 88.12 30.2 88.12 Q 29.22 88.12 28.71 88.78 Q 28.19 89.44 28.12 90.77 Q 28.41 90.35 28.84 90.12 Q 29.28 89.9 29.8 89.9 Q 30.9 89.9 31.53 90.56 Q 32.17 91.23 32.17 92.38 Q 32.17 93.5 31.51 94.18 Q 30.84 94.86 29.74 94.86 Q 28.48 94.86 27.81 93.89 Q 27.14 92.92 27.14 91.08 Q 27.14 89.35 27.96 88.32 Q 28.78 87.29 30.16 87.29 Q 30.53 87.29 30.91 87.37 Q 31.29 87.44 31.7 87.59 z" fill="#000000"/>
<path d="M 39.8 68.97 L 36.3 68.97" fill="none" stroke="#000000" stroke-width="0.8" stroke-linejoin="round"/>
<path d="M 27.26 65.15 L 31.95 65.15 L 31.95 65.57 L 29.3 72.44 L 28.27 72.44 L 30.76 65.98 L 27.26 65.98 L 27.26 65.15 z" fill="#000000"/>
<path d="M 39.8 46.7 L 36.3 46.7" fill="none" stroke="#000000" stroke-width="0.8" stroke-linejoin="round"/>
<path d="M 29.62 46.7 Q 28.92 46.7 28.51 47.07 Q 28.11 47.45 28.11 48.11 Q 28.11 48.77 28.51 49.14 Q 28.92 49.52 29.62 49.52 Q 30.32 49.52 30.73 49.14 Q 31.13 48.76 31.13 48.11 Q 31.13 47.45 30.73 47.07 Q 30.33 46.7 29.62 46.7 M 28.63 46.28 Q 28 46.12 27.64 45.69 Q 27.29 45.25 27.29 44.63 Q 27.29 43.75 27.91 43.25 Q 28.54 42.74 29.62 42.74 Q 30.71 42.74 31.33 43.25 Q 31.95 43.75 31.95 44.63 Q 31.95 45.25 31.59 45.69 Q 31.24 46.12 30.61 46.28 Q 31.32 46.44 31.72 46.93 Q 32.12 47.41 32.12 48.11 Q 32.12 49.17 31.47 49.73 Q 30.83 50.3 29.62 50.3 Q 28.41 50.3 27.76 49.73 Q 27.12 49.17 27.12 48.11 Q 27.12 47.41 27.52 46.93 Q 27.92 46.44 28.63 46.28 M 28.27 44.72 Q 28.27 45.29 28.62 45.6 Q 28.98 45.92 29.62 45.92 Q 30.25 45.92 30.61 45.6 Q 30.97 45.29 30.97 44.72 Q 30.97 44.15 30.61 43.84 Q 30.25 43.52 29.62 43.52 Q 28.98 43.52 28.62 43.84 Q 28.27 44.15 28.27 44.72 z" fill="#000000"/>
</g>
<g id="text_1">
<path d="M 14.82 137.07 L 15.66 137.07 Q 15.45 137.45 15.35 137.84 Q 15.24 138.22 15.24 138.61 Q 15.24 139.48 15.8 139.97 Q 16.35 140.45 17.35 140.45 Q 18.35 140.45 18.91 139.97 Q 19.46 139.48 19.46 138.61 Q 19.46 138.22 19.36 137.84 Q 19.25 137.45 19.04 137.07 L 19.87 137.07 Q 20.05 137.45 20.14 137.85 Q 20.22 138.25 20.22 138.71 Q 20.22 139.94 19.45 140.67 Q 18.67 141.4 17.35 141.4 Q 16.01 141.4 15.25 140.67 Q 14.48 139.93 14.48 138.65 Q 14.48 138.23 14.57 137.84 Q 14.65 137.44 14.82 137.07 z M 15.24 133.39 Q 15.24 134.11 15.81 134.53 Q 16.37 134.95 17.35 134.95 Q 18.33 134.95 18.9 134.54 Q 19.46 134.12 19.46 133.39 Q 19.46 132.67 18.9 132.25 Q 18.33 131.83 17.35 131.83 Q 16.38 131.83 15.81 132.25 Q 15.24 132.67 15.24 133.39 M 14.48 133.39 Q 14.48 132.22 15.24 131.55 Q 16.01 130.88 17.35 130.88 Q 18.7 130.88 19.46 131.55 Q 20.22 132.22 20.22 133.39 Q 20.22 134.57 19.46 135.24 Q 18.7 135.9 17.35 135.9 Q 16.01 135.9 15.24 135.24 Q 14.48 134.57 14.48 133.39 z M 17.92 129.48 L 14.61 129.48 L 14.61 128.59 L 17.89 128.59 Q 18.67 128.59 19.06 128.28 Q 19.44 127.98 19.44 127.38 Q 19.44 126.65 18.98 126.23 Q 18.51 125.8 17.71 125.8 L 14.61 125.8 L 14.61 124.9 L 20.08 124.9 L 20.08 125.8 L 19.24 125.8 Q 19.74 126.13 19.98 126.56 Q 20.22 126.99 20.22 127.57 Q 20.22 128.51 19.64 129 Q 19.05 129.48 17.92 129.48 M 14.48 127.22 L 14.48 127.22 z M 16.78 118.51 L 20.08 118.51 L 20.08 119.41 L 16.81 119.41 Q 16.03 119.41 15.65 119.71 Q 15.26 120.01 15.26 120.62 Q 15.26 121.34 15.73 121.76 Q 16.19 122.18 16.99 122.18 L 20.08 122.18 L 20.08 123.09 L 14.61 123.09 L 14.61 122.18 L 15.46 122.18 Q 14.97 121.86 14.73 121.43 Q 14.48 120.99 14.48 120.42 Q 14.48 119.47 15.07 118.99 Q 15.65 118.51 16.78 118.51 z M 13.06 115.83 L 14.61 115.83 L 14.61 113.98 L 15.31 113.98 L 15.31 115.83 L 18.28 115.83 Q 18.95 115.83 19.14 115.65 Q 19.33 115.46 19.33 114.9 L 19.33 113.98 L 20.08 113.98 L 20.08 114.9 Q 20.08 115.94 19.7 116.33 Q 19.31 116.73 18.28 116.73 L 15.31 116.73 L 15.31 117.39 L 14.61 117.39 L 14.61 116.73 L 13.06 116.73 L 13.06 115.83 z" fill="#000000"/>
</g>
<g id="text_2">
<path d="M 190.39 18.66 Q 190.39 17.47 189.9 16.8 Q 189.41 16.12 188.56 16.12 Q 187.7 16.12 187.21 16.8 Q 186.72 17.47 186.72 18.66 Q 186.72 19.85 187.21 20.53 Q 187.7 21.21 188.56 21.21 Q 189.41 21.21 189.9 20.53 Q 190.39 19.85 190.39 18.66 M 186.72 16.37 Q 187.06 15.79 187.58 15.51 Q 188.1 15.22 188.82 15.22 Q 190.02 15.22 190.76 16.17 Q 191.51 17.12 191.51 18.66 Q 191.51 20.21 190.76 21.16 Q 190.02 22.11 188.82 22.11 Q 188.1 22.11 187.58 21.83 Q 187.06 21.54 186.72 20.95 L 186.72 21.94 L 185.64 21.94 L 185.64 12.82 L 186.72 12.82 L 186.72 16.37 z M 196.28 18.64 Q 194.97 18.64 194.47 18.94 Q 193.97 19.24 193.97 19.96 Q 193.97 20.53 194.34 20.87 Q 194.72 21.21 195.37 21.21 Q 196.27 21.21 196.81 20.57 Q 197.35 19.93 197.35 18.88 L 197.35 18.64 L 196.28 18.64 M 198.43 18.19 L 198.43 21.94 L 197.35 21.94 L 197.35 20.94 Q 196.98 21.54 196.43 21.83 Q 195.88 22.11 195.08 22.11 Q 194.08 22.11 193.48 21.55 Q 192.89 20.98 192.89 20.03 Q 192.89 18.92 193.63 18.36 Q 194.37 17.8 195.84 17.8 L 197.35 17.8 L 197.35 17.69 Q 197.35 16.95 196.86 16.54 Q 196.37 16.13 195.49 16.13 Q 194.93 16.13 194.39 16.27 Q 193.86 16.4 193.37 16.67 L 193.37 15.67 Q 193.96 15.45 194.52 15.34 Q 195.07 15.22 195.6 15.22 Q 197.02 15.22 197.73 15.96 Q 198.43 16.69 198.43 18.19 z M 204.45 16.38 Q 204.27 16.28 204.06 16.23 Q 203.84 16.18 203.59 16.18 Q 202.67 16.18 202.18 16.78 Q 201.69 17.37 201.69 18.48 L 201.69 21.94 L 200.61 21.94 L 200.61 15.38 L 201.69 15.38 L 201.69 16.4 Q 202.03 15.8 202.58 15.51 Q 203.12 15.22 203.9 15.22 Q 204.01 15.22 204.15 15.24 Q 204.28 15.25 204.45 15.28 L 204.45 16.38 z" fill="#000000"/>
</g>
</g>
<g id="axes_2">
<path d="M 406.17 224.92 L 709.2 224.92 L 709.2 30.77 L 406.17 30.77 z" fill="#ffffff"/>
<g id="patch_6">
<path clip-path="url(#p2)" d="M 419.94 224.92 L 438.31 224.92 L 438.31 129.28 L 419.94 129.28 z" fill="#1f77b4" fill-opacity="0.85"/>
</g>
<g id="patch_7">
<path clip-path="url(#p2)" d="M 438.31 224.92 L 456.67 224.92 L 456.67 142.03 L 438.31 142.03 z" fill="#1f77b4" fill-opacity="0.85"/>
</g>
<g id="patch_8">
<path clip-path="url(#p2)" d="M 456.67 224.92 L 475.04 224.92 L 475.04 103.77 L 456.67 103.77 z" fill="#1f77b4" fill-opacity="0.85"/>
</g>
<g id="patch_9">
<path clip-path="url(#p2)" d="M 475.04 224.92 L 493.4 224.92 L 493.4 122.9 L 475.04 122.9 z" fill="#1f77b4" fill-opacity="0.85"/>
</g>
<g id="patch_10">
<path clip-path="url(#p2)" d="M 493.4 224.92 L 511.77 224.92 L 511.77 40.01 L 493.4 40.01 z" fill="#1f77b4" fill-opacity="0.85"/>
</g>
<g id="patch_11">
<path clip-path="url(#p2)" d="M 511.77 224.92 L 530.13 224.92 L 530.13 78.27 L 511.77 78.27 z" fill="#1f77b4" fill-opacity="0.85"/>
</g>
<g id="patch_12">
<path clip-path="url(#p2)" d="M 530.13 224.92 L 548.5 224.92 L 548.5 84.65 L 530.13 84.65 z" fill="#1f77b4" fill-opacity="0.85"/>
</g>
<g id="patch_13">
<path clip-path="url(#p2)" d="M 548.5 224.92 L 566.87 224.92 L 566.87 97.4 L 548.5 97.4 z" fill="#1f77b4" fill-opacity="0.85"/>
</g>
<g id="patch_14">
<path clip-path="url(#p2)" d="M 566.87 224.92 L 585.23 224.92 L 585.23 91.02 L 566.87 91.02 z" fill="#1f77b4" fill-opacity="0.85"/>
</g>
<g id="patch_15">
<path clip-path="url(#p2)" d="M 585.23 224.92 L 603.6 224.92 L 603.6 40.01 L 585.23 40.01 z" fill="#1f77b4" fill-opacity="0.85"/>
</g>
<g id="patch_16">
<path clip-path="url(#p2)" d="M 603.6 224.92 L 621.96 224.92 L 621.96 78.27 L 603.6 78.27 z" fill="#1f77b4" fill-opacity="0.85"/>
</g>
<g id="patch_17">
<path clip-path="url(#p2)" d="M 621.96 224.92 L 640.33 224.92 L 640.33 84.65 L 621.96 84.65 z" fill="#1f77b4" fill-opacity="0.85"/>
</g>
<g id="patch_18">
<path clip-path="url(#p2)" d="M 640.33 224.92 L 658.69 224.92 L 658.69 116.53 L 640.33 116.53 z" fill="#1f77b4" fill-opacity="0.85"/>
</g>
<g id="patch_19">
<path clip-path="url(#p2)" d="M 658.69 224.92 L 677.06 224.92 L 677.06 135.65 L 658.69 135.65 z" fill="#1f77b4" fill-opacity="0.85"/>
</g>
<g id="patch_20">
<path clip-path="url(#p2)" d="M 677.06 224.92 L 695.43 224.92 L 695.43 116.53 L 677.06 116.53 z" fill="#1f77b4" fill-opacity="0.85"/>
</g>
<g id="spines_2">
<path d="M 406.17 224.92 L 709.2 224.92 L 709.2 30.77 L 406.17 30.77 z" fill="none" stroke="#000000" stroke-width="0.8" stroke-linecap="square" stroke-linejoin="round"/>
</g>
<g id="xtick_2">
<path d="M 419.39 224.92 L 419.39 228.42" fill="none" stroke="#000000" stroke-width="0.8" stroke-linejoin="round"/>
<path d="M 413.08 237.65 L 419.34 237.65 L 419.34 238.48 L 413.08 238.48 L 413.08 237.65 z M 424.46 237.27 Q 425.16 237.42 425.56 237.9 Q 425.96 238.38 425.96 239.08 Q 425.96 240.16 425.22 240.75 Q 424.48 241.34 423.11 241.34 Q 422.65 241.34 422.16 241.25 Q 421.68 241.16 421.16 240.98 L 421.16 240.03 Q 421.57 240.27 422.06 240.39 Q 422.55 240.51 423.08 240.51 Q 424.01 240.51 424.49 240.15 Q 424.98 239.78 424.98 239.08 Q 424.98 238.44 424.52 238.08 Q 424.08 237.71 423.27 237.71 L 422.42 237.71 L 422.42 236.9 L 423.31 236.9 Q 424.04 236.9 424.42 236.61 Q 424.81 236.32 424.81 235.77 Q 424.81 235.21 424.41 234.91 Q 424.01 234.61 423.27 234.61 Q 422.86 234.61 422.4 234.7 Q 421.94 234.78 421.38 234.97 L 421.38 234.09 Q 421.94 233.94 422.43 233.86 Q 422.92 233.78 423.36 233.78 Q 424.48 233.78 425.13 234.29 Q 425.79 234.8 425.79 235.67 Q 425.79 236.27 425.44 236.69 Q 425.1 237.11 424.46 237.27 z" fill="#000000"/>
<path d="M 465.4 224.92 L 465.4 228.42" fill="none" stroke="#000000" stroke-width="0.8" stroke-linejoin="round"/>
<path d="M 459.09 237.65 L 465.35 237.65 L 465.35 238.48 L 459.09 238.48 L 459.09 237.65 z M 468.32 240.37 L 471.77 240.37 L 471.77 241.2 L 467.14 241.2 L 467.14 240.37 Q 467.7 239.79 468.67 238.81 Q 469.64 237.83 469.89 237.55 Q 470.36 237.02 470.55 236.65 Q 470.74 236.28 470.74 235.92 Q 470.74 235.34 470.33 234.98 Q 469.92 234.61 469.27 234.61 Q 468.8 234.61 468.29 234.77 Q 467.77 234.93 467.19 235.26 L 467.19 234.26 Q 467.78 234.02 468.3 233.9 Q 468.82 233.78 469.25 233.78 Q 470.38 233.78 471.05 234.35 Q 471.73 234.91 471.73 235.86 Q 471.73 236.31 471.56 236.71 Q 471.39 237.11 470.95 237.66 Q 470.82 237.8 470.17 238.48 Q 469.52 239.16 468.32 240.37 z" fill="#000000"/>
<path d="M 511.41 224.92 L 511.41 228.42" fill="none" stroke="#000000" stroke-width="0.8" stroke-linejoin="round"/>
<path d="M 505.09 237.65 L 511.35 237.65 L 511.35 238.48 L 505.09 238.48 L 505.09 237.65 z M 513.65 240.37 L 515.27 240.37 L 515.27 234.81 L 513.51 235.16 L 513.51 234.26 L 515.26 233.91 L 516.24 233.91 L 516.24 240.37 L 517.85 240.37 L 517.85 241.2 L 513.65 241.2 L 513.65 240.37 z" fill="#000000"/>
<path d="M 557.41 224.92 L 557.41 228.42" fill="none" stroke="#000000" stroke-width="0.8" stroke-linejoin="round"/>
<path d="M 557.41 234.56 Q 556.65 234.56 556.26 235.31 Q 555.88 236.06 555.88 237.56 Q 555.88 239.06 556.26 239.81 Q 556.65 240.56 557.41 240.56 Q 558.18 240.56 558.56 239.81 Q 558.94 239.06 558.94 237.56 Q 558.94 236.06 558.56 235.31 Q 558.18 234.56 557.41 234.56 M 557.41 233.78 Q 558.64 233.78 559.28 234.75 Q 559.93 235.72 559.93 237.56 Q 559.93 239.4 559.28 240.38 Q 558.64 241.34 557.41 241.34 Q 556.19 241.34 555.54 240.38 Q 554.89 239.4 554.89 237.56 Q 554.89 235.72 555.54 234.75 Q 556.19 233.78 557.41 233.78 z" fill="#000000"/>
<path d="M 603.42 224.92 L 603.42 228.42" fill="none" stroke="#000000" stroke-width="0.8" stroke-linejoin="round"/>
<path d="M 601.48 240.37 L 603.09 240.37 L 603.09 234.81 L 601.34 235.16 L 601.34 234.26 L 603.08 233.91 L 604.07 233.91 L 604.07 240.37 L 605.68 240.37 L 605.68 241.2 L 601.48 241.2 L 601.48 240.37 z" fill="#000000"/>
<path d="M 649.43 224.92 L 649.43 228.42" fill="none" stroke="#000000" stroke-width="0.8" stroke-linejoin="round"/>
<path d="M 648.17 240.37 L 651.61 240.37 L 651.61 241.2 L 646.98 241.2 L 646.98 240.37 Q 647.54 239.79 648.51 238.81 Q 649.48 237.83 649.73 237.55 Q 650.2 237.02 650.39 236.65 Q 650.58 236.28 650.58 235.92 Q 650.58 235.34 650.17 234.98 Q 649.76 234.61 649.11 234.61 Q 648.64 234.61 648.13 234.77 Q 647.61 234.93 647.03 235.26 L 647.03 234.26 Q 647.62 234.02 648.14 233.9 Q 648.66 233.78 649.09 233.78 Q 650.22 233.78 650.9 234.35 Q 651.57 234.91 651.57 235.86 Q 651.57 236.31 651.4 236.71 Q 651.23 237.11 650.79 237.66 Q 650.67 237.8 650.01 238.48 Q 649.36 239.16 648.17 240.37 z" fill="#000000"/>
<path d="M 695.44 224.92 L 695.44 228.42" fill="none" stroke="#000000" stroke-width="0.8" stroke-linejoin="round"/>
<path d="M 696.31 237.27 Q 697.02 237.42 697.42 237.9 Q 697.82 238.38 697.82 239.08 Q 697.82 240.16 697.07 240.75 Q 696.33 241.34 694.96 241.34 Q 694.51 241.34 694.02 241.25 Q 693.53 241.16 693.02 240.98 L 693.02 240.03 Q 693.43 240.27 693.92 240.39 Q 694.4 240.51 694.94 240.51 Q 695.86 240.51 696.35 240.15 Q 696.84 239.78 696.84 239.08 Q 696.84 238.44 696.38 238.08 Q 695.93 237.71 695.13 237.71 L 694.28 237.71 L 694.28 236.9 L 695.17 236.9 Q 695.89 236.9 696.28 236.61 Q 696.66 236.32 696.66 235.77 Q 696.66 235.21 696.26 234.91 Q 695.87 234.61 695.13 234.61 Q 694.72 234.61 694.26 234.7 Q 693.79 234.78 693.24 234.97 L 693.24 234.09 Q 693.8 233.94 694.29 233.86 Q 694.78 233.78 695.21 233.78 Q 696.34 233.78 696.99 234.29 Q 697.65 234.8 697.65 235.67 Q 697.65 236.27 697.3 236.69 Q 696.95 237.11 696.31 237.27 z" fill="#000000"/>
</g>
<g id="ytick_2">
<path d="M 406.17 224.92 L 402.67 224.92" fill="none" stroke="#000000" stroke-width="0.8" stroke-linejoin="round"/>
<path d="M 395.98 221.74 Q 395.22 221.74 394.83 222.49 Q 394.45 223.24 394.45 224.74 Q 394.45 226.24 394.83 226.99 Q 395.22 227.74 395.98 227.74 Q 396.75 227.74 397.13 226.99 Q 397.51 226.24 397.51 224.74 Q 397.51 223.24 397.13 222.49 Q 396.75 221.74 395.98 221.74 M 395.98 220.96 Q 397.21 220.96 397.85 221.93 Q 398.5 222.9 398.5 224.74 Q 398.5 226.58 397.85 227.56 Q 397.21 228.52 395.98 228.52 Q 394.76 228.52 394.11 227.56 Q 393.46 226.58 393.46 224.74 Q 393.46 222.9 394.11 221.93 Q 394.76 220.96 395.98 220.96 z" fill="#000000"/>
<path d="M 406.17 193.04 L 402.67 193.04" fill="none" stroke="#000000" stroke-width="0.8" stroke-linejoin="round"/>
<path d="M 393.88 189.21 L 397.75 189.21 L 397.75 190.04 L 394.79 190.04 L 394.79 191.83 Q 395 191.75 395.22 191.72 Q 395.43 191.68 395.64 191.68 Q 396.87 191.68 397.58 192.35 Q 398.29 193.02 398.29 194.16 Q 398.29 195.34 397.56 195.99 Q 396.83 196.64 395.49 196.64 Q 395.03 196.64 394.56 196.56 Q 394.08 196.49 393.57 196.33 L 393.57 195.34 Q 394.01 195.58 394.48 195.69 Q 394.95 195.81 395.47 195.81 Q 396.32 195.81 396.81 195.37 Q 397.3 194.92 397.3 194.16 Q 397.3 193.4 396.81 192.96 Q 396.32 192.51 395.47 192.51 Q 395.08 192.51 394.68 192.6 Q 394.29 192.69 393.88 192.87 L 393.88 189.21 z" fill="#000000"/>
<path d="M 406.17 161.16 L 402.67 161.16" fill="none" stroke="#000000" stroke-width="0.8" stroke-linejoin="round"/>
<path d="M 387.68 163.79 L 389.29 163.79 L 389.29 158.23 L 387.54 158.58 L 387.54 157.68 L 389.28 157.33 L 390.27 157.33 L 390.27 163.79 L 391.88 163.79 L 391.88 164.62 L 387.68 164.62 L 387.68 163.79 z M 395.98 157.98 Q 395.22 157.98 394.83 158.73 Q 394.45 159.48 394.45 160.98 Q 394.45 162.48 394.83 163.23 Q 395.22 163.98 395.98 163.98 Q 396.75 163.98 397.13 163.23 Q 397.51 162.48 397.51 160.98 Q 397.51 159.48 397.13 158.73 Q 396.75 157.98 395.98 157.98 M 395.98 157.2 Q 397.21 157.2 397.85 158.17 Q 398.5 159.14 398.5 160.98 Q 398.5 162.82 397.85 163.8 Q 397.21 164.76 395.98 164.76 Q 394.76 164.76 394.11 163.8 Q 393.46 162.82 393.46 160.98 Q 393.46 159.14 394.11 158.17 Q 394.76 157.2 395.98 157.2 z" fill="#000000"/>
<path d="M 406.17 129.28 L 402.67 129.28" fill="none" stroke="#000000" stroke-width="0.8" stroke-linejoin="round"/>
<path d="M 387.68 131.91 L 389.29 131.91 L 389.29 126.35 L 387.54 126.7 L 387.54 125.8 L 389.28 125.45 L 390.27 125.45 L 390.27 131.91 L 391.88 131.91 L 391.88 132.74 L 387.68 132.74 L 387.68 131.91 z M 393.88 125.45 L 397.75 125.45 L 397.75 126.28 L 394.79 126.28 L 394.79 128.07 Q 395 127.99 395.22 127.96 Q 395.43 127.92 395.64 127.92 Q 396.87 127.92 397.58 128.59 Q 398.29 129.26 398.29 130.4 Q 398.29 131.58 397.56 132.23 Q 396.83 132.88 395.49 132.88 Q 395.03 132.88 394.56 132.8 Q 394.08 132.73 393.57 132.57 L 393.57 131.58 Q 394.01 131.82 394.48 131.93 Q 394.95 132.05 395.47 132.05 Q 396.32 132.05 396.81 131.61 Q 397.3 131.16 397.3 130.4 Q 397.3 129.64 396.81 129.2 Q 396.32 128.75 395.47 128.75 Q 395.08 128.75 394.68 128.84 Q 394.29 128.93 393.88 129.11 L 393.88 125.45 z" fill="#000000"/>
<path d="M 406.17 97.4 L 402.67 97.4" fill="none" stroke="#000000" stroke-width="0.8" stroke-linejoin="round"/>
<path d="M 388.36 100.03 L 391.8 100.03 L 391.8 100.86 L 387.17 100.86 L 387.17 100.03 Q 387.73 99.45 388.7 98.47 Q 389.67 97.49 389.92 97.21 Q 390.4 96.68 390.58 96.31 Q 390.77 95.94 390.77 95.58 Q 390.77 95 390.36 94.63 Q 389.96 94.27 389.3 94.27 Q 388.84 94.27 388.32 94.43 Q 387.81 94.59 387.22 94.92 L 387.22 93.92 Q 387.82 93.68 388.34 93.56 Q 388.85 93.44 389.28 93.44 Q 390.42 93.44 391.09 94 Q 391.76 94.57 391.76 95.52 Q 391.76 95.97 391.59 96.37 Q 391.43 96.77 390.98 97.32 Q 390.86 97.46 390.21 98.14 Q 389.55 98.81 388.36 100.03 z M 395.98 94.22 Q 395.22 94.22 394.83 94.97 Q 394.45 95.72 394.45 97.22 Q 394.45 98.72 394.83 99.47 Q 395.22 100.22 395.98 100.22 Q 396.75 100.22 397.13 99.47 Q 397.51 98.72 397.51 97.22 Q 397.51 95.72 397.13 94.97 Q 396.75 94.22 395.98 94.22 M 395.98 93.44 Q 397.21 93.44 397.85 94.41 Q 398.5 95.38 398.5 97.22 Q 398.5 99.06 397.85 100.03 Q 397.21 101 395.98 101 Q 394.76 101 394.11 100.03 Q 393.46 99.06 393.46 97.22 Q 393.46 95.38 394.11 94.41 Q 394.76 93.44 395.98 93.44 z" fill="#000000"/>
<path d="M 406.17 65.52 L 402.67 65.52" fill="none" stroke="#000000" stroke-width="0.8" stroke-linejoin="round"/>
<path d="M 388.36 68.15 L 391.8 68.15 L 391.8 68.98 L 387.17 68.98 L 387.17 68.15 Q 387.73 67.57 388.7 66.59 Q 389.67 65.61 389.92 65.33 Q 390.4 64.8 390.58 64.43 Q 390.77 64.06 390.77 63.7 Q 390.77 63.12 390.36 62.75 Q 389.96 62.39 389.3 62.39 Q 388.84 62.39 388.32 62.55 Q 387.81 62.71 387.22 63.04 L 387.22 62.04 Q 387.82 61.8 388.34 61.68 Q 388.85 61.56 389.28 61.56 Q 390.42 61.56 391.09 62.12 Q 391.76 62.69 391.76 63.64 Q 391.76 64.09 391.59 64.49 Q 391.43 64.89 390.98 65.44 Q 390.86 65.58 390.21 66.26 Q 389.55 66.93 388.36 68.15 z M 393.88 61.69 L 397.75 61.69 L 397.75 62.52 L 394.79 62.52 L 394.79 64.31 Q 395 64.23 395.22 64.2 Q 395.43 64.16 395.64 64.16 Q 396.87 64.16 397.58 64.83 Q 398.29 65.5 398.29 66.64 Q 398.29 67.82 397.56 68.47 Q 396.83 69.12 395.49 69.12 Q 395.03 69.12 394.56 69.04 Q 394.08 68.97 393.57 68.81 L 393.57 67.82 Q 394.01 68.06 394.48 68.17 Q 394.95 68.29 395.47 68.29 Q 396.32 68.29 396.81 67.85 Q 397.3 67.4 397.3 66.64 Q 397.3 65.88 396.81 65.44 Q 396.32 64.99 395.47 64.99 Q 395.08 64.99 394.68 65.08 Q 394.29 65.17 393.88 65.35 L 393.88 61.69 z" fill="#000000"/>
<path d="M 406.17 33.64 L 402.67 33.64" fill="none" stroke="#000000" stroke-width="0.8" stroke-linejoin="round"/>
<path d="M 390.5 33.17 Q 391.21 33.32 391.6 33.8 Q 392 34.28 392 34.98 Q 392 36.06 391.26 36.65 Q 390.52 37.24 389.15 37.24 Q 388.69 37.24 388.2 37.15 Q 387.72 37.06 387.2 36.88 L 387.2 35.93 Q 387.61 36.17 388.1 36.29 Q 388.59 36.41 389.12 36.41 Q 390.05 36.41 390.53 36.05 Q 391.02 35.68 391.02 34.98 Q 391.02 34.34 390.57 33.97 Q 390.12 33.61 389.31 33.61 L 388.46 33.61 L 388.46 32.8 L 389.35 32.8 Q 390.08 32.8 390.46 32.51 Q 390.85 32.22 390.85 31.67 Q 390.85 31.11 390.45 30.81 Q 390.05 30.51 389.31 30.51 Q 388.91 30.51 388.44 30.6 Q 387.98 30.68 387.42 30.87 L 387.42 29.99 Q 387.98 29.83 388.47 29.76 Q 388.97 29.68 389.4 29.68 Q 390.52 29.68 391.18 30.19 Q 391.83 30.7 391.83 31.57 Q 391.83 32.17 391.48 32.59 Q 391.14 33.01 390.5 33.17 z M 395.98 30.46 Q 395.22 30.46 394.83 31.21 Q 394.45 31.96 394.45 33.46 Q 394.45 34.96 394.83 35.71 Q 395.22 36.46 395.98 36.46 Q 396.75 36.46 397.13 35.71 Q 397.51 34.96 397.51 33.46 Q 397.51 31.96 397.13 31.21 Q 396.75 30.46 395.98 30.46 M 395.98 29.68 Q 397.21 29.68 397.85 30.65 Q 398.5 31.62 398.5 33.46 Q 398.5 35.3 397.85 36.27 Q 397.21 37.24 395.98 37.24 Q 394.76 37.24 394.11 36.27 Q 393.46 35.3 393.46 33.46 Q 393.46 31.62 394.11 30.65 Q 394.76 29.68 395.98 29.68 z" fill="#000000"/>
</g>
<g id="text_3">
<path d="M 553.32 17.98 L 553.32 21.94 L 552.24 21.94 L 552.24 18.01 Q 552.24 17.08 551.88 16.62 Q 551.52 16.16 550.79 16.16 Q 549.92 16.16 549.41 16.71 Q 548.91 17.27 548.91 18.23 L 548.91 21.94 L 547.82 21.94 L 547.82 12.82 L 548.91 12.82 L 548.91 16.4 Q 549.29 15.8 549.82 15.51 Q 550.34 15.22 551.03 15.22 Q 552.16 15.22 552.74 15.92 Q 553.32 16.62 553.32 17.98 z M 555.47 15.38 L 556.55 15.38 L 556.55 21.94 L 555.47 21.94 L 555.47 15.38 M 555.47 12.82 L 556.55 12.82 L 556.55 14.19 L 555.47 14.19 L 555.47 12.82 z M 562.99 15.57 L 562.99 16.59 Q 562.53 16.35 562.04 16.24 Q 561.55 16.12 561.02 16.12 Q 560.22 16.12 559.81 16.37 Q 559.41 16.61 559.41 17.1 Q 559.41 17.48 559.7 17.7 Q 559.99 17.91 560.86 18.1 L 561.22 18.18 Q 562.37 18.43 562.85 18.88 Q 563.34 19.33 563.34 20.13 Q 563.34 21.04 562.61 21.58 Q 561.89 22.11 560.63 22.11 Q 560.1 22.11 559.53 22.01 Q 558.96 21.9 558.32 21.7 L 558.32 20.59 Q 558.92 20.9 559.5 21.05 Q 560.08 21.21 560.65 21.21 Q 561.41 21.21 561.82 20.95 Q 562.23 20.68 562.23 20.21 Q 562.23 19.77 561.93 19.54 Q 561.64 19.3 560.64 19.09 L 560.26 19 Q 559.26 18.79 558.82 18.35 Q 558.37 17.91 558.37 17.15 Q 558.37 16.23 559.03 15.72 Q 559.68 15.22 560.89 15.22 Q 561.49 15.22 562.02 15.31 Q 562.54 15.39 562.99 15.57 z M 566.12 13.51 L 566.12 15.38 L 568.34 15.38 L 568.34 16.21 L 566.12 16.21 L 566.12 19.78 Q 566.12 20.58 566.34 20.81 Q 566.56 21.04 567.24 21.04 L 568.34 21.04 L 568.34 21.94 L 567.24 21.94 Q 565.99 21.94 565.51 21.48 Q 565.04 21.01 565.04 19.78 L 565.04 16.21 L 564.25 16.21 L 564.25 15.38 L 565.04 15.38 L 565.04 13.51 L 566.12 13.51 z" fill="#000000"/>
</g>
</g>
<g id="axes_3">
<path d="M 49.34 494.92 L 349.2 494.92 L 349.2 300.77 L 49.34 300.77 z" fill="#ffffff"/>
<g id="grid_1">
<path d="M 62.97 494.92 L 62.97 300.77" fill="none" stroke="#b0b0b0" stroke-width="0.8" stroke-linejoin="round"/>
<path d="M 117.49 494.92 L 117.49 300.77" fill="none" stroke="#b0b0b0" stroke-width="0.8" stroke-linejoin="round"/>
<path d="M 172.01 494.92 L 172.01 300.77" fill="none" stroke="#b0b0b0" stroke-width="0.8" stroke-linejoin="round"/>
<path d="M 226.53 494.92 L 226.53 300.77" fill="none" stroke="#b0b0b0" stroke-width="0.8" stroke-linejoin="round"/>
<path d="M 281.05 494.92 L 281.05 300.77" fill="none" stroke="#b0b0b0" stroke-width="0.8" stroke-linejoin="round"/>
<path d="M 335.57 494.92 L 335.57 300.77" fill="none" stroke="#b0b0b0" stroke-width="0.8" stroke-linejoin="round"/>
<path d="M 49.34 490.74 L 349.2 490.74" fill="none" stroke="#b0b0b0" stroke-width="0.8" stroke-linejoin="round"/>
<path d="M 49.34 467.51 L 349.2 467.51" fill="none" stroke="#b0b0b0" stroke-width="0.8" stroke-linejoin="round"/>
<path d="M 49.34 444.29 L 349.2 444.29" fill="none" stroke="#b0b0b0" stroke-width="0.8" stroke-linejoin="round"/>
<path d="M 49.34 421.07 L 349.2 421.07" fill="none" stroke="#b0b0b0" stroke-width="0.8" stroke-linejoin="round"/>
<path d="M 49.34 397.84 L 349.2 397.84" fill="none" stroke="#b0b0b0" stroke-width="0.8" stroke-linejoin="round"/>
<path d="M 49.34 374.62 L 349.2 374.62" fill="none" stroke="#b0b0b0" stroke-width="0.8" stroke-linejoin="round"/>
<path d="M 49.34 351.4 L 349.2 351.4" fill="none" stroke="#b0b0b0" stroke-width="0.8" stroke-linejoin="round"/>
<path d="M 49.34 328.17 L 349.2 328.17" fill="none" stroke="#b0b0b0" stroke-width="0.8" stroke-linejoin="round"/>
<path d="M 49.34 304.95 L 349.2 304.95" fill="none" stroke="#b0b0b0" stroke-width="0.8" stroke-linejoin="round"/>
</g>
<g id="line2d_1">
<path clip-path="url(#p3)" d="M 62.97 467.51 L 117.49 397.84 L 172.01 416.42 L 226.53 346.75 L 281.05 365.33 L 335.57 323.53" fill="none" stroke="#1f77b4" stroke-width="1.5" stroke-linecap="square" stroke-linejoin="round"/>
<g clip-path="url(#p3)" fill="#1f77b4" stroke="#1f77b4" stroke-width="1" stroke-linejoin="round">
<use href="#m1" x="62.97" y="467.51"/>
<use href="#m1" x="117.49" y="397.84"/>
<use href="#m1" x="172.01" y="416.42"/>
<use href="#m1" x="226.53" y="346.75"/>
<use href="#m1" x="281.05" y="365.33"/>
<use href="#m1" x="335.57" y="323.53"/>
</g>
</g>
<g id="line2d_2">
<path clip-path="url(#p3)" d="M 62.97 486.09 L 62.97 448.94 M 117.49 411.78 L 117.49 383.91 M 172.01 439.65 L 172.01 393.2 M 226.53 358.36 L 226.53 335.14 M 281.05 386.23 L 281.05 344.43 M 335.57 337.46 L 335.57 309.59" fill="none" stroke="#1f77b4" stroke-width="1.5" stroke-linecap="square" stroke-linejoin="round"/>
</g>
<g id="line2d_3">
<g clip-path="url(#p3)" fill="none" stroke="#1f77b4" stroke-width="1.5" stroke-linejoin="round">
<use href="#m2" x="62.97" y="486.09"/>
<use href="#m2" x="117.49" y="411.78"/>
<use href="#m2" x="172.01" y="439.65"/>
<use href="#m2" x="226.53" y="358.36"/>
<use href="#m2" x="281.05" y="386.23"/>
<use href="#m2" x="335.57" y="337.46"/>
</g>
</g>
<g id="line2d_4">
<g clip-path="url(#p3)" fill="none" stroke="#1f77b4" stroke-width="1.5" stroke-linejoin="round">
<use href="#m2" x="62.97" y="448.94"/>
<use href="#m2" x="117.49" y="383.91"/>
<use href="#m2" x="172.01" y="393.2"/>
<use href="#m2" x="226.53" y="335.14"/>
<use href="#m2" x="281.05" y="344.43"/>
<use href="#m2" x="335.57" y="309.59"/>
</g>
</g>
<g id="spines_3">
<path d="M 49.34 494.92 L 349.2 494.92 L 349.2 300.77 L 49.34 300.77 z" fill="none" stroke="#000000" stroke-width="0.8" stroke-linecap="square" stroke-linejoin="round"/>
</g>
<g id="xtick_3">
<path d="M 62.97 494.92 L 62.97 498.42" fill="none" stroke="#000000" stroke-width="0.8" stroke-linejoin="round"/>
<path d="M 61.03 510.37 L 62.64 510.37 L 62.64 504.81 L 60.89 505.16 L 60.89 504.26 L 62.63 503.91 L 63.62 503.91 L 63.62 510.37 L 65.23 510.37 L 65.23 511.2 L 61.03 511.2 L 61.03 510.37 z" fill="#000000"/>
<path d="M 117.49 494.92 L 117.49 498.42" fill="none" stroke="#000000" stroke-width="0.8" stroke-linejoin="round"/>
<path d="M 116.23 510.37 L 119.67 510.37 L 119.67 511.2 L 115.04 511.2 L 115.04 510.37 Q 115.61 509.79 116.57 508.81 Q 117.54 507.83 117.79 507.55 Q 118.27 507.02 118.45 506.65 Q 118.64 506.28 118.64 505.92 Q 118.64 505.34 118.23 504.98 Q 117.83 504.61 117.17 504.61 Q 116.71 504.61 116.19 504.77 Q 115.68 504.93 115.09 505.26 L 115.09 504.26 Q 115.69 504.02 116.21 503.9 Q 116.72 503.78 117.15 503.78 Q 118.29 503.78 118.96 504.35 Q 119.63 504.91 119.63 505.86 Q 119.63 506.31 119.46 506.71 Q 119.3 507.11 118.85 507.66 Q 118.73 507.8 118.08 508.48 Q 117.42 509.16 116.23 510.37 z" fill="#000000"/>
<path d="M 172.01 494.92 L 172.01 498.42" fill="none" stroke="#000000" stroke-width="0.8" stroke-linejoin="round"/>
<path d="M 172.89 507.27 Q 173.6 507.42 173.99 507.9 Q 174.39 508.38 174.39 509.08 Q 174.39 510.16 173.65 510.75 Q 172.91 511.34 171.54 511.34 Q 171.08 511.34 170.59 511.25 Q 170.11 511.16 169.59 510.98 L 169.59 510.03 Q 170 510.27 170.49 510.39 Q 170.98 510.51 171.51 510.51 Q 172.44 510.51 172.92 510.15 Q 173.41 509.78 173.41 509.08 Q 173.41 508.44 172.96 508.08 Q 172.51 507.71 171.7 507.71 L 170.85 507.71 L 170.85 506.9 L 171.74 506.9 Q 172.47 506.9 172.85 506.61 Q 173.24 506.32 173.24 505.77 Q 173.24 505.21 172.84 504.91 Q 172.44 504.61 171.7 504.61 Q 171.3 504.61 170.83 504.7 Q 170.37 504.78 169.81 504.97 L 169.81 504.09 Q 170.37 503.94 170.86 503.86 Q 171.36 503.78 171.79 503.78 Q 172.91 503.78 173.57 504.29 Q 174.22 504.8 174.22 505.67 Q 174.22 506.27 173.88 506.69 Q 173.53 507.11 172.89 507.27 z" fill="#000000"/>
<path d="M 226.53 494.92 L 226.53 498.42" fill="none" stroke="#000000" stroke-width="0.8" stroke-linejoin="round"/>
<path d="M 227.13 504.77 L 224.64 508.66 L 227.13 508.66 L 227.13 504.77 M 226.87 503.91 L 228.11 503.91 L 228.11 508.66 L 229.15 508.66 L 229.15 509.48 L 228.11 509.48 L 228.11 511.2 L 227.13 511.2 L 227.13 509.48 L 223.84 509.48 L 223.84 508.53 L 226.87 503.91 z" fill="#000000"/>
<path d="M 281.05 494.92 L 281.05 498.42" fill="none" stroke="#000000" stroke-width="0.8" stroke-linejoin="round"/>
<path d="M 278.95 503.91 L 282.82 503.91 L 282.82 504.74 L 279.85 504.74 L 279.85 506.53 Q 280.07 506.45 280.28 506.42 Q 280.5 506.38 280.71 506.38 Q 281.93 506.38 282.65 507.05 Q 283.36 507.72 283.36 508.86 Q 283.36 510.04 282.63 510.69 Q 281.89 511.34 280.56 511.34 Q 280.1 511.34 279.62 511.26 Q 279.15 511.19 278.64 511.03 L 278.64 510.04 Q 279.08 510.28 279.55 510.4 Q 280.02 510.51 280.54 510.51 Q 281.39 510.51 281.88 510.07 Q 282.37 509.62 282.37 508.86 Q 282.37 508.1 281.88 507.66 Q 281.39 507.21 280.54 507.21 Q 280.15 507.21 279.75 507.3 Q 279.36 507.39 278.95 507.57 L 278.95 503.91 z" fill="#000000"/>
<path d="M 335.57 494.92 L 335.57 498.42" fill="none" stroke="#000000" stroke-width="0.8" stroke-linejoin="round"/>
<path d="M 335.69 507.16 Q 335.03 507.16 334.64 507.62 Q 334.25 508.07 334.25 508.86 Q 334.25 509.65 334.64 510.11 Q 335.03 510.56 335.69 510.56 Q 336.35 510.56 336.74 510.11 Q 337.13 509.65 337.13 508.86 Q 337.13 508.07 336.74 507.62 Q 336.35 507.16 335.69 507.16 M 337.65 504.07 L 337.65 504.97 Q 337.28 504.79 336.9 504.7 Q 336.52 504.61 336.15 504.61 Q 335.17 504.61 334.65 505.27 Q 334.14 505.93 334.07 507.26 Q 334.36 506.84 334.79 506.61 Q 335.23 506.38 335.75 506.38 Q 336.85 506.38 337.48 507.05 Q 338.12 507.71 338.12 508.86 Q 338.12 509.99 337.46 510.66 Q 336.79 511.34 335.69 511.34 Q 334.43 511.34 333.76 510.38 Q 333.09 509.4 333.09 507.56 Q 333.09 505.83 333.91 504.81 Q 334.73 503.78 336.11 503.78 Q 336.48 503.78 336.86 503.85 Q 337.24 503.93 337.65 504.07 z" fill="#000000"/>
</g>
<g id="ytick_3">
<path d="M 49.34 490.74 L 45.84 490.74" fill="none" stroke="#000000" stroke-width="0.8" stroke-linejoin="round"/>
<path d="M 27.68 493.37 L 29.29 493.37 L 29.29 487.81 L 27.54 488.16 L 27.54 487.26 L 29.28 486.91 L 30.27 486.91 L 30.27 493.37 L 31.88 493.37 L 31.88 494.2 L 27.68 494.2 L 27.68 493.37 z M 33.87 492.96 L 34.9 492.96 L 34.9 494.2 L 33.87 494.2 L 33.87 492.96 z M 37.06 486.91 L 40.93 486.91 L 40.93 487.74 L 37.96 487.74 L 37.96 489.53 Q 38.18 489.45 38.39 489.42 Q 38.61 489.38 38.82 489.38 Q 40.04 489.38 40.76 490.05 Q 41.47 490.72 41.47 491.86 Q 41.47 493.04 40.74 493.69 Q 40.01 494.34 38.67 494.34 Q 38.21 494.34 37.73 494.26 Q 37.26 494.19 36.75 494.03 L 36.75 493.04 Q 37.19 493.28 37.66 493.39 Q 38.13 493.51 38.65 493.51 Q 39.5 493.51 39.99 493.07 Q 40.48 492.62 40.48 491.86 Q 40.48 491.1 39.99 490.66 Q 39.5 490.21 38.65 490.21 Q 38.26 490.21 37.86 490.3 Q 37.47 490.39 37.06 490.57 L 37.06 486.91 z" fill="#000000"/>
<path d="M 49.34 467.51 L 45.84 467.51" fill="none" stroke="#000000" stroke-width="0.8" stroke-linejoin="round"/>
<path d="M 28.36 470.15 L 31.8 470.15 L 31.8 470.98 L 27.17 470.98 L 27.17 470.15 Q 27.73 469.57 28.7 468.59 Q 29.67 467.61 29.92 467.32 Q 30.4 466.79 30.58 466.43 Q 30.77 466.05 30.77 465.7 Q 30.77 465.12 30.36 464.75 Q 29.96 464.38 29.3 464.38 Q 28.84 464.38 28.32 464.55 Q 27.81 464.71 27.22 465.03 L 27.22 464.04 Q 27.82 463.8 28.34 463.68 Q 28.85 463.55 29.28 463.55 Q 30.42 463.55 31.09 464.12 Q 31.76 464.69 31.76 465.63 Q 31.76 466.08 31.59 466.49 Q 31.43 466.89 30.98 467.44 Q 30.86 467.58 30.21 468.26 Q 29.55 468.93 28.36 470.15 z M 33.87 469.74 L 34.9 469.74 L 34.9 470.98 L 33.87 470.98 L 33.87 469.74 z M 39.16 464.34 Q 38.4 464.34 38.01 465.09 Q 37.63 465.84 37.63 467.34 Q 37.63 468.84 38.01 469.59 Q 38.4 470.34 39.16 470.34 Q 39.93 470.34 40.31 469.59 Q 40.69 468.84 40.69 467.34 Q 40.69 465.84 40.31 465.09 Q 39.93 464.34 39.16 464.34 M 39.16 463.55 Q 40.39 463.55 41.03 464.53 Q 41.68 465.49 41.68 467.34 Q 41.68 469.18 41.03 470.15 Q 40.39 471.12 39.16 471.12 Q 37.93 471.12 37.29 470.15 Q 36.64 469.18 36.64 467.34 Q 36.64 465.49 37.29 464.53 Q 37.93 463.55 39.16 463.55 z" fill="#000000"/>
<path d="M 49.34 444.29 L 45.84 444.29" fill="none" stroke="#000000" stroke-width="0.8" stroke-linejoin="round"/>
<path d="M 28.36 446.92 L 31.8 446.92 L 31.8 447.75 L 27.17 447.75 L 27.17 446.92 Q 27.73 446.34 28.7 445.37 Q 29.67 444.38 29.92 444.1 Q 30.4 443.57 30.58 443.2 Q 30.77 442.83 30.77 442.47 Q 30.77 441.89 30.36 441.53 Q 29.96 441.16 29.3 441.16 Q 28.84 441.16 28.32 441.32 Q 27.81 441.48 27.22 441.81 L 27.22 440.81 Q 27.82 440.58 28.34 440.45 Q 28.85 440.33 29.28 440.33 Q 30.42 440.33 31.09 440.9 Q 31.76 441.46 31.76 442.41 Q 31.76 442.86 31.59 443.27 Q 31.43 443.67 30.98 444.21 Q 30.86 444.35 30.21 445.03 Q 29.55 445.71 28.36 446.92 z M 33.87 446.51 L 34.9 446.51 L 34.9 447.75 L 33.87 447.75 L 33.87 446.51 z M 37.06 440.46 L 40.93 440.46 L 40.93 441.29 L 37.96 441.29 L 37.96 443.08 Q 38.18 443.01 38.39 442.97 Q 38.61 442.93 38.82 442.93 Q 40.04 442.93 40.76 443.6 Q 41.47 444.27 41.47 445.41 Q 41.47 446.59 40.74 447.25 Q 40.01 447.89 38.67 447.89 Q 38.21 447.89 37.73 447.82 Q 37.26 447.74 36.75 447.58 L 36.75 446.59 Q 37.19 446.83 37.66 446.95 Q 38.13 447.06 38.65 447.06 Q 39.5 447.06 39.99 446.62 Q 40.48 446.18 40.48 445.41 Q 40.48 444.65 39.99 444.21 Q 39.5 443.76 38.65 443.76 Q 38.26 443.76 37.86 443.85 Q 37.47 443.94 37.06 444.13 L 37.06 440.46 z" fill="#000000"/>
<path d="M 49.34 421.07 L 45.84 421.07" fill="none" stroke="#000000" stroke-width="0.8" stroke-linejoin="round"/>
<path d="M 30.5 420.6 Q 31.21 420.75 31.6 421.23 Q 32 421.71 32 422.41 Q 32 423.49 31.26 424.08 Q 30.52 424.67 29.15 424.67 Q 28.69 424.67 28.2 424.58 Q 27.72 424.49 27.2 424.31 L 27.2 423.36 Q 27.61 423.6 28.1 423.72 Q 28.59 423.84 29.12 423.84 Q 30.05 423.84 30.53 423.47 Q 31.02 423.11 31.02 422.41 Q 31.02 421.77 30.57 421.4 Q 30.12 421.04 29.31 421.04 L 28.46 421.04 L 28.46 420.23 L 29.35 420.23 Q 30.08 420.23 30.46 419.94 Q 30.85 419.65 30.85 419.1 Q 30.85 418.54 30.45 418.24 Q 30.05 417.94 29.31 417.94 Q 28.91 417.94 28.44 418.03 Q 27.98 418.11 27.42 418.3 L 27.42 417.42 Q 27.98 417.26 28.47 417.19 Q 28.97 417.11 29.4 417.11 Q 30.52 417.11 31.18 417.62 Q 31.83 418.13 31.83 419 Q 31.83 419.6 31.48 420.02 Q 31.14 420.44 30.5 420.6 z M 33.87 423.29 L 34.9 423.29 L 34.9 424.53 L 33.87 424.53 L 33.87 423.29 z M 39.16 417.89 Q 38.4 417.89 38.01 418.64 Q 37.63 419.39 37.63 420.89 Q 37.63 422.39 38.01 423.14 Q 38.4 423.89 39.16 423.89 Q 39.93 423.89 40.31 423.14 Q 40.69 422.39 40.69 420.89 Q 40.69 419.39 40.31 418.64 Q 39.93 417.89 39.16 417.89 M 39.16 417.11 Q 40.39 417.11 41.03 418.08 Q 41.68 419.05 41.68 420.89 Q 41.68 422.73 41.03 423.7 Q 40.39 424.67 39.16 424.67 Q 37.93 424.67 37.29 423.7 Q 36.64 422.73 36.64 420.89 Q 36.64 419.05 37.29 418.08 Q 37.93 417.11 39.16 417.11 z" fill="#000000"/>
<path d="M 49.34 397.84 L 45.84 397.84" fill="none" stroke="#000000" stroke-width="0.8" stroke-linejoin="round"/>
<path d="M 30.5 397.38 Q 31.21 397.53 31.6 398 Q 32 398.48 32 399.19 Q 32 400.27 31.26 400.86 Q 30.52 401.45 29.15 401.45 Q 28.69 401.45 28.2 401.36 Q 27.72 401.27 27.2 401.09 L 27.2 400.13 Q 27.61 400.37 28.1 400.5 Q 28.59 400.62 29.12 400.62 Q 30.05 400.62 30.53 400.25 Q 31.02 399.88 31.02 399.19 Q 31.02 398.54 30.57 398.18 Q 30.12 397.81 29.31 397.81 L 28.46 397.81 L 28.46 397 L 29.35 397 Q 30.08 397 30.46 396.72 Q 30.85 396.42 30.85 395.88 Q 30.85 395.31 30.45 395.02 Q 30.05 394.71 29.31 394.71 Q 28.91 394.71 28.44 394.8 Q 27.98 394.89 27.42 395.08 L 27.42 394.2 Q 27.98 394.04 28.47 393.96 Q 28.97 393.88 29.4 393.88 Q 30.52 393.88 31.18 394.4 Q 31.83 394.9 31.83 395.77 Q 31.83 396.38 31.48 396.8 Q 31.14 397.21 30.5 397.38 z M 33.87 400.07 L 34.9 400.07 L 34.9 401.31 L 33.87 401.31 L 33.87 400.07 z M 37.06 394.02 L 40.93 394.02 L 40.93 394.85 L 37.96 394.85 L 37.96 396.63 Q 38.18 396.56 38.39 396.53 Q 38.61 396.49 38.82 396.49 Q 40.04 396.49 40.76 397.16 Q 41.47 397.82 41.47 398.97 Q 41.47 400.14 40.74 400.8 Q 40.01 401.45 38.67 401.45 Q 38.21 401.45 37.73 401.37 Q 37.26 401.29 36.75 401.13 L 36.75 400.14 Q 37.19 400.38 37.66 400.5 Q 38.13 400.62 38.65 400.62 Q 39.5 400.62 39.99 400.17 Q 40.48 399.73 40.48 398.97 Q 40.48 398.21 39.99 397.76 Q 39.5 397.32 38.65 397.32 Q 38.26 397.32 37.86 397.4 Q 37.47 397.49 37.06 397.68 L 37.06 394.02 z" fill="#000000"/>
<path d="M 49.34 374.62 L 45.84 374.62" fill="none" stroke="#000000" stroke-width="0.8" stroke-linejoin="round"/>
<path d="M 30.22 371.65 L 27.73 375.54 L 30.22 375.54 L 30.22 371.65 M 29.96 370.79 L 31.2 370.79 L 31.2 375.54 L 32.24 375.54 L 32.24 376.36 L 31.2 376.36 L 31.2 378.08 L 30.22 378.08 L 30.22 376.36 L 26.93 376.36 L 26.93 375.41 L 29.96 370.79 z M 33.87 376.84 L 34.9 376.84 L 34.9 378.08 L 33.87 378.08 L 33.87 376.84 z M 39.16 371.44 Q 38.4 371.44 38.01 372.19 Q 37.63 372.94 37.63 374.44 Q 37.63 375.94 38.01 376.7 Q 38.4 377.44 39.16 377.44 Q 39.93 377.44 40.31 376.7 Q 40.69 375.94 40.69 374.44 Q 40.69 372.94 40.31 372.19 Q 39.93 371.44 39.16 371.44 M 39.16 370.66 Q 40.39 370.66 41.03 371.63 Q 41.68 372.6 41.68 374.44 Q 41.68 376.29 41.03 377.26 Q 40.39 378.22 39.16 378.22 Q 37.93 378.22 37.29 377.26 Q 36.64 376.29 36.64 374.44 Q 36.64 372.6 37.29 371.63 Q 37.93 370.66 39.16 370.66 z" fill="#000000"/>
<path d="M 49.34 351.4 L 45.84 351.4" fill="none" stroke="#000000" stroke-width="0.8" stroke-linejoin="round"/>
<path d="M 30.22 348.43 L 27.73 352.32 L 30.22 352.32 L 30.22 348.43 M 29.96 347.57 L 31.2 347.57 L 31.2 352.32 L 32.24 352.32 L 32.24 353.14 L 31.2 353.14 L 31.2 354.86 L 30.22 354.86 L 30.22 353.14 L 26.93 353.14 L 26.93 352.19 L 29.96 347.57 z M 33.87 353.62 L 34.9 353.62 L 34.9 354.86 L 33.87 354.86 L 33.87 353.62 z M 37.06 347.57 L 40.93 347.57 L 40.93 348.4 L 37.96 348.4 L 37.96 350.19 Q 38.18 350.11 38.39 350.08 Q 38.61 350.04 38.82 350.04 Q 40.04 350.04 40.76 350.71 Q 41.47 351.38 41.47 352.52 Q 41.47 353.7 40.74 354.35 Q 40.01 355 38.67 355 Q 38.21 355 37.73 354.92 Q 37.26 354.84 36.75 354.69 L 36.75 353.7 Q 37.19 353.94 37.66 354.05 Q 38.13 354.17 38.65 354.17 Q 39.5 354.17 39.99 353.73 Q 40.48 353.28 40.48 352.52 Q 40.48 351.76 39.99 351.31 Q 39.5 350.87 38.65 350.87 Q 38.26 350.87 37.86 350.96 Q 37.47 351.04 37.06 351.23 L 37.06 347.57 z" fill="#000000"/>
<path d="M 49.34 328.17 L 45.84 328.17" fill="none" stroke="#000000" stroke-width="0.8" stroke-linejoin="round"/>
<path d="M 27.52 324.34 L 31.39 324.34 L 31.39 325.17 L 28.42 325.17 L 28.42 326.96 Q 28.64 326.89 28.85 326.85 Q 29.07 326.82 29.28 326.82 Q 30.5 326.82 31.22 327.48 Q 31.93 328.15 31.93 329.3 Q 31.93 330.47 31.2 331.13 Q 30.46 331.78 29.13 331.78 Q 28.67 331.78 28.19 331.7 Q 27.72 331.62 27.21 331.46 L 27.21 330.47 Q 27.65 330.71 28.12 330.83 Q 28.59 330.95 29.11 330.95 Q 29.96 330.95 30.45 330.5 Q 30.94 330.06 30.94 329.3 Q 30.94 328.53 30.45 328.09 Q 29.96 327.65 29.11 327.65 Q 28.72 327.65 28.32 327.73 Q 27.93 327.82 27.52 328.01 L 27.52 324.34 z M 33.87 330.39 L 34.9 330.39 L 34.9 331.63 L 33.87 331.63 L 33.87 330.39 z M 39.16 324.99 Q 38.4 324.99 38.01 325.75 Q 37.63 326.49 37.63 328 Q 37.63 329.5 38.01 330.25 Q 38.4 330.99 39.16 330.99 Q 39.93 330.99 40.31 330.25 Q 40.69 329.5 40.69 328 Q 40.69 326.49 40.31 325.75 Q 39.93 324.99 39.16 324.99 M 39.16 324.21 Q 40.39 324.21 41.03 325.18 Q 41.68 326.15 41.68 328 Q 41.68 329.84 41.03 330.81 Q 40.39 331.78 39.16 331.78 Q 37.93 331.78 37.29 330.81 Q 36.64 329.84 36.64 328 Q 36.64 326.15 37.29 325.18 Q 37.93 324.21 39.16 324.21 z" fill="#000000"/>
<path d="M 49.34 304.95 L 45.84 304.95" fill="none" stroke="#000000" stroke-width="0.8" stroke-linejoin="round"/>
<path d="M 27.52 301.12 L 31.39 301.12 L 31.39 301.95 L 28.42 301.95 L 28.42 303.74 Q 28.64 303.66 28.85 303.63 Q 29.07 303.59 29.28 303.59 Q 30.5 303.59 31.22 304.26 Q 31.93 304.93 31.93 306.07 Q 31.93 307.25 31.2 307.9 Q 30.46 308.55 29.13 308.55 Q 28.67 308.55 28.19 308.47 Q 27.72 308.4 27.21 308.24 L 27.21 307.25 Q 27.65 307.49 28.12 307.61 Q 28.59 307.72 29.11 307.72 Q 29.96 307.72 30.45 307.28 Q 30.94 306.83 30.94 306.07 Q 30.94 305.31 30.45 304.87 Q 29.96 304.42 29.11 304.42 Q 28.72 304.42 28.32 304.51 Q 27.93 304.6 27.52 304.78 L 27.52 301.12 z M 33.87 307.17 L 34.9 307.17 L 34.9 308.41 L 33.87 308.41 L 33.87 307.17 z M 37.06 301.12 L 40.93 301.12 L 40.93 301.95 L 37.96 301.95 L 37.96 303.74 Q 38.18 303.66 38.39 303.63 Q 38.61 303.59 38.82 303.59 Q 40.04 303.59 40.76 304.26 Q 41.47 304.93 41.47 306.07 Q 41.47 307.25 40.74 307.9 Q 40.01 308.55 38.67 308.55 Q 38.21 308.55 37.73 308.47 Q 37.26 308.4 36.75 308.24 L 36.75 307.25 Q 37.19 307.49 37.66 307.61 Q 38.13 307.72 38.65 307.72 Q 39.5 307.72 39.99 307.28 Q 40.48 306.83 40.48 306.07 Q 40.48 305.31 39.99 304.87 Q 39.5 304.42 38.65 304.42 Q 38.26 304.42 37.86 304.51 Q 37.47 304.6 37.06 304.78 L 37.06 301.12 z" fill="#000000"/>
</g>
<g id="text_4">
<path d="M 181.54 288.39 L 181.54 288.92 L 176.58 288.92 Q 176.65 290.03 177.25 290.61 Q 177.85 291.19 178.93 291.19 Q 179.55 291.19 180.13 291.04 Q 180.71 290.89 181.29 290.59 L 181.29 291.6 Q 180.71 291.85 180.1 291.98 Q 179.49 292.11 178.86 292.11 Q 177.29 292.11 176.37 291.19 Q 175.46 290.28 175.46 288.72 Q 175.46 287.11 176.32 286.17 Q 177.2 285.22 178.67 285.22 Q 180 285.22 180.77 286.07 Q 181.54 286.92 181.54 288.39 M 180.46 288.07 Q 180.45 287.19 179.96 286.66 Q 179.48 286.13 178.69 286.13 Q 177.78 286.13 177.24 286.64 Q 176.7 287.15 176.62 288.08 L 180.46 288.07 z M 187.11 286.38 Q 186.93 286.28 186.71 286.23 Q 186.5 286.18 186.24 286.18 Q 185.33 286.18 184.84 286.78 Q 184.35 287.37 184.35 288.48 L 184.35 291.94 L 183.27 291.94 L 183.27 285.38 L 184.35 285.38 L 184.35 286.4 Q 184.69 285.8 185.24 285.51 Q 185.78 285.22 186.56 285.22 Q 186.67 285.22 186.81 285.24 Q 186.94 285.25 187.1 285.28 L 187.11 286.38 z M 191.83 286.38 Q 191.65 286.28 191.44 286.23 Q 191.22 286.18 190.97 286.18 Q 190.05 286.18 189.56 286.78 Q 189.07 287.37 189.07 288.48 L 189.07 291.94 L 187.99 291.94 L 187.99 285.38 L 189.07 285.38 L 189.07 286.4 Q 189.41 285.8 189.96 285.51 Q 190.5 285.22 191.28 285.22 Q 191.39 285.22 191.53 285.24 Q 191.66 285.25 191.83 285.28 L 191.83 286.38 z M 195.24 286.13 Q 194.38 286.13 193.87 286.81 Q 193.37 287.49 193.37 288.66 Q 193.37 289.84 193.87 290.52 Q 194.37 291.19 195.24 291.19 Q 196.1 291.19 196.61 290.51 Q 197.11 289.84 197.11 288.66 Q 197.11 287.5 196.61 286.82 Q 196.1 286.13 195.24 286.13 M 195.24 285.22 Q 196.65 285.22 197.45 286.13 Q 198.26 287.05 198.26 288.66 Q 198.26 290.27 197.45 291.19 Q 196.65 292.11 195.24 292.11 Q 193.83 292.11 193.03 291.19 Q 192.23 290.27 192.23 288.66 Q 192.23 287.05 193.03 286.13 Q 193.83 285.22 195.24 285.22 z M 203.85 286.38 Q 203.66 286.28 203.45 286.23 Q 203.24 286.18 202.98 286.18 Q 202.06 286.18 201.57 286.78 Q 201.09 287.37 201.09 288.48 L 201.09 291.94 L 200 291.94 L 200 285.38 L 201.09 285.38 L 201.09 286.4 Q 201.43 285.8 201.97 285.51 Q 202.52 285.22 203.29 285.22 Q 203.41 285.22 203.54 285.24 Q 203.68 285.25 203.84 285.28 L 203.85 286.38 z M 209.69 288.66 Q 209.69 287.47 209.19 286.8 Q 208.71 286.12 207.85 286.12 Q 207 286.12 206.51 286.8 Q 206.02 287.47 206.02 288.66 Q 206.02 289.85 206.51 290.53 Q 207 291.21 207.85 291.21 Q 208.71 291.21 209.19 290.53 Q 209.69 289.85 209.69 288.66 M 206.02 286.37 Q 206.36 285.79 206.87 285.51 Q 207.4 285.22 208.12 285.22 Q 209.31 285.22 210.06 286.17 Q 210.81 287.12 210.81 288.66 Q 210.81 290.21 210.06 291.16 Q 209.31 292.11 208.12 292.11 Q 207.4 292.11 206.87 291.83 Q 206.36 291.54 206.02 290.95 L 206.02 291.94 L 204.94 291.94 L 204.94 282.82 L 206.02 282.82 L 206.02 286.37 z M 215.58 288.64 Q 214.27 288.64 213.77 288.94 Q 213.26 289.24 213.26 289.96 Q 213.26 290.53 213.64 290.87 Q 214.02 291.21 214.67 291.21 Q 215.56 291.21 216.1 290.57 Q 216.65 289.93 216.65 288.88 L 216.65 288.64 L 215.58 288.64 M 217.73 288.19 L 217.73 291.94 L 216.65 291.94 L 216.65 290.94 Q 216.28 291.54 215.73 291.83 Q 215.18 292.11 214.38 292.11 Q 213.37 292.11 212.77 291.55 Q 212.18 290.98 212.18 290.03 Q 212.18 288.92 212.92 288.36 Q 213.67 287.8 215.14 287.8 L 216.65 287.8 L 216.65 287.69 Q 216.65 286.95 216.16 286.54 Q 215.67 286.13 214.78 286.13 Q 214.22 286.13 213.69 286.27 Q 213.16 286.4 212.66 286.67 L 212.66 285.68 Q 213.26 285.45 213.81 285.34 Q 214.37 285.22 214.9 285.22 Q 216.32 285.22 217.02 285.96 Q 217.73 286.69 217.73 288.19 z M 223.75 286.38 Q 223.57 286.28 223.35 286.23 Q 223.14 286.18 222.88 286.18 Q 221.97 286.18 221.48 286.78 Q 220.99 287.37 220.99 288.48 L 220.99 291.94 L 219.91 291.94 L 219.91 285.38 L 220.99 285.38 L 220.99 286.4 Q 221.33 285.8 221.87 285.51 Q 222.42 285.22 223.2 285.22 Q 223.31 285.22 223.44 285.24 Q 223.58 285.25 223.74 285.28 L 223.75 286.38 z" fill="#000000"/>
</g>
</g>
<g id="axes_4">
<g id="patch_21">
<path clip-path="url(#p4)" d="M 563.46 397.84 L 563.46 320.18 C 534.26 320.18 507.52 336.57 494.27 362.59 C 481.01 388.61 483.47 419.87 500.63 443.49 z" fill="#1f77b4"/>
</g>
<g id="patch_22">
<path clip-path="url(#p4)" d="M 563.46 397.84 L 500.63 443.49 C 525.84 478.19 574.41 485.88 609.11 460.67 z" fill="#ff7f0e"/>
</g>
<g id="patch_23">
<path clip-path="url(#p4)" d="M 563.46 397.84 L 609.11 460.67 C 636.33 440.9 647.72 405.84 637.32 373.85 z" fill="#2ca02c"/>
</g>
<g id="patch_24">
<path clip-path="url(#p4)" d="M 563.46 397.84 L 637.32 373.85 C 631.22 355.06 618.18 339.31 600.87 329.79 z" fill="#d62728"/>
</g>
<g id="patch_25">
<path clip-path="url(#p4)" d="M 563.46 397.84 L 600.87 329.79 C 589.41 323.49 576.54 320.18 563.46 320.18 z" fill="#9467bd"/>
</g>
<g id="text_5">
<path d="M 470.56 357.26 L 470.56 358.1 Q 470.18 357.89 469.8 357.79 Q 469.42 357.68 469.03 357.68 Q 468.15 357.68 467.67 358.24 Q 467.19 358.79 467.19 359.79 Q 467.19 360.79 467.67 361.35 Q 468.15 361.9 469.03 361.9 Q 469.42 361.9 469.8 361.8 Q 470.18 361.69 470.56 361.48 L 470.56 362.31 Q 470.19 362.49 469.78 362.58 Q 469.38 362.66 468.93 362.66 Q 467.69 362.66 466.97 361.89 Q 466.24 361.11 466.24 359.79 Q 466.24 358.46 466.97 357.69 Q 467.71 356.92 468.99 356.92 Q 469.4 356.92 469.8 357.01 Q 470.19 357.09 470.56 357.26 z M 474.25 357.68 Q 473.52 357.68 473.1 358.25 Q 472.68 358.81 472.68 359.79 Q 472.68 360.78 473.1 361.34 Q 473.52 361.9 474.25 361.9 Q 474.96 361.9 475.38 361.34 Q 475.8 360.77 475.8 359.79 Q 475.8 358.82 475.38 358.26 Q 474.96 357.68 474.25 357.68 M 474.25 356.92 Q 475.42 356.92 476.09 357.68 Q 476.76 358.45 476.76 359.79 Q 476.76 361.14 476.09 361.9 Q 475.42 362.66 474.25 362.66 Q 473.07 362.66 472.4 361.9 Q 471.74 361.14 471.74 359.79 Q 471.74 358.45 472.4 357.68 Q 473.07 356.92 474.25 356.92 z M 481.41 357.89 Q 481.26 357.81 481.08 357.77 Q 480.91 357.72 480.69 357.72 Q 479.93 357.72 479.52 358.22 Q 479.11 358.71 479.11 359.64 L 479.11 362.52 L 478.21 362.52 L 478.21 357.05 L 479.11 357.05 L 479.11 357.9 Q 479.4 357.41 479.85 357.17 Q 480.31 356.92 480.95 356.92 Q 481.05 356.92 481.16 356.94 Q 481.27 356.95 481.41 356.97 L 481.41 357.89 z M 486.81 359.56 L 486.81 360 L 482.68 360 Q 482.74 360.93 483.24 361.42 Q 483.74 361.9 484.64 361.9 Q 485.15 361.9 485.64 361.78 Q 486.13 361.65 486.6 361.4 L 486.6 362.24 Q 486.12 362.45 485.61 362.56 Q 485.11 362.66 484.58 362.66 Q 483.27 362.66 482.51 361.9 Q 481.75 361.14 481.75 359.84 Q 481.75 358.5 482.47 357.71 Q 483.2 356.92 484.43 356.92 Q 485.53 356.92 486.17 357.64 Q 486.81 358.34 486.81 359.56 M 485.92 359.3 Q 485.91 358.56 485.5 358.12 Q 485.1 357.68 484.44 357.68 Q 483.68 357.68 483.23 358.11 Q 482.78 358.53 482.71 359.31 L 485.92 359.3 z" fill="#000000"/>
</g>
<g id="text_6">
<path d="M 532.19 478.66 L 532.19 480.21 L 534.04 480.21 L 534.04 480.91 L 532.19 480.91 L 532.19 483.88 Q 532.19 484.55 532.37 484.74 Q 532.56 484.93 533.12 484.93 L 534.04 484.93 L 534.04 485.68 L 533.12 485.68 Q 532.08 485.68 531.68 485.29 Q 531.29 484.9 531.29 483.88 L 531.29 480.91 L 530.63 480.91 L 530.63 480.21 L 531.29 480.21 L 531.29 478.66 L 532.19 478.66 z M 539.9 482.72 L 539.9 483.16 L 535.77 483.16 Q 535.83 484.09 536.33 484.58 Q 536.83 485.06 537.72 485.06 Q 538.24 485.06 538.73 484.93 Q 539.21 484.81 539.69 484.55 L 539.69 485.4 Q 539.21 485.61 538.7 485.71 Q 538.19 485.82 537.67 485.82 Q 536.36 485.82 535.6 485.06 Q 534.83 484.3 534.83 483 Q 534.83 481.66 535.56 480.87 Q 536.28 480.08 537.51 480.08 Q 538.62 480.08 539.26 480.79 Q 539.9 481.5 539.9 482.72 M 539 482.46 Q 538.99 481.72 538.59 481.28 Q 538.19 480.84 537.52 480.84 Q 536.77 480.84 536.32 481.27 Q 535.87 481.69 535.8 482.46 L 539 482.46 z M 545.75 480.21 L 543.77 482.87 L 545.85 485.68 L 544.79 485.68 L 543.2 483.53 L 541.61 485.68 L 540.55 485.68 L 542.67 482.82 L 540.73 480.21 L 541.79 480.21 L 543.24 482.16 L 544.69 480.21 L 545.75 480.21 z M 548.01 478.66 L 548.01 480.21 L 549.86 480.21 L 549.86 480.91 L 548.01 480.91 L 548.01 483.88 Q 548.01 484.55 548.19 484.74 Q 548.37 484.93 548.94 484.93 L 549.86 484.93 L 549.86 485.68 L 548.94 485.68 Q 547.9 485.68 547.5 485.29 Q 547.1 484.9 547.1 483.88 L 547.1 480.91 L 546.45 480.91 L 546.45 480.21 L 547.1 480.21 L 547.1 478.66 L 548.01 478.66 z" fill="#000000"/>
</g>
<g id="text_7">
<path d="M 649.57 424.97 Q 649.57 423.98 649.16 423.42 Q 648.76 422.86 648.05 422.86 Q 647.33 422.86 646.92 423.42 Q 646.52 423.98 646.52 424.97 Q 646.52 425.97 646.92 426.53 Q 647.33 427.09 648.05 427.09 Q 648.76 427.09 649.16 426.53 Q 649.57 425.97 649.57 424.97 M 646.52 423.07 Q 646.8 422.58 647.23 422.34 Q 647.67 422.1 648.27 422.1 Q 649.26 422.1 649.88 422.89 Q 650.51 423.69 650.51 424.97 Q 650.51 426.26 649.88 427.05 Q 649.26 427.85 648.27 427.85 Q 647.67 427.85 647.23 427.61 Q 646.8 427.37 646.52 426.88 L 646.52 427.7 L 645.61 427.7 L 645.61 420.11 L 646.52 420.11 L 646.52 423.07 z M 654.48 424.95 Q 653.39 424.95 652.97 425.2 Q 652.55 425.45 652.55 426.05 Q 652.55 426.53 652.87 426.82 Q 653.18 427.09 653.72 427.09 Q 654.47 427.09 654.92 426.57 Q 655.38 426.03 655.38 425.15 L 655.38 424.95 L 654.48 424.95 M 656.27 424.58 L 656.27 427.7 L 655.38 427.7 L 655.38 426.87 Q 655.07 427.37 654.61 427.61 Q 654.15 427.85 653.49 427.85 Q 652.65 427.85 652.15 427.38 Q 651.65 426.9 651.65 426.11 Q 651.65 425.19 652.27 424.72 Q 652.89 424.25 654.12 424.25 L 655.38 424.25 L 655.38 424.16 Q 655.38 423.54 654.97 423.21 Q 654.56 422.86 653.82 422.86 Q 653.35 422.86 652.91 422.98 Q 652.47 423.09 652.06 423.31 L 652.06 422.48 Q 652.55 422.29 653.01 422.2 Q 653.48 422.1 653.92 422.1 Q 655.1 422.1 655.69 422.72 Q 656.27 423.33 656.27 424.58 z M 662.06 422.44 L 662.06 423.28 Q 661.68 423.07 661.29 422.97 Q 660.91 422.86 660.52 422.86 Q 659.65 422.86 659.16 423.42 Q 658.68 423.97 658.68 424.97 Q 658.68 425.98 659.16 426.53 Q 659.65 427.08 660.52 427.08 Q 660.91 427.08 661.29 426.98 Q 661.68 426.87 662.06 426.66 L 662.06 427.49 Q 661.68 427.67 661.28 427.76 Q 660.88 427.85 660.42 427.85 Q 659.19 427.85 658.46 427.07 Q 657.73 426.29 657.73 424.97 Q 657.73 423.64 658.47 422.87 Q 659.2 422.1 660.48 422.1 Q 660.9 422.1 661.29 422.19 Q 661.69 422.27 662.06 422.44 z M 663.59 420.11 L 664.49 420.11 L 664.49 424.59 L 667.17 422.23 L 668.32 422.23 L 665.42 424.79 L 668.44 427.7 L 667.27 427.7 L 664.49 425.03 L 664.49 427.7 L 663.59 427.7 L 663.59 420.11 z M 673.73 424.74 L 673.73 425.18 L 669.6 425.18 Q 669.66 426.11 670.16 426.6 Q 670.66 427.08 671.56 427.08 Q 672.07 427.08 672.56 426.96 Q 673.05 426.83 673.52 426.58 L 673.52 427.43 Q 673.04 427.63 672.53 427.74 Q 672.03 427.85 671.5 427.85 Q 670.19 427.85 669.43 427.08 Q 668.67 426.32 668.67 425.02 Q 668.67 423.68 669.39 422.89 Q 670.12 422.1 671.35 422.1 Q 672.45 422.1 673.09 422.82 Q 673.73 423.52 673.73 424.74 M 672.84 424.48 Q 672.83 423.74 672.42 423.3 Q 672.02 422.86 671.36 422.86 Q 670.6 422.86 670.15 423.29 Q 669.7 423.71 669.63 424.49 L 672.84 424.48 z M 679.76 424.4 L 679.76 427.7 L 678.86 427.7 L 678.86 424.43 Q 678.86 423.66 678.55 423.27 Q 678.25 422.88 677.65 422.88 Q 676.92 422.88 676.5 423.35 Q 676.08 423.81 676.08 424.61 L 676.08 427.7 L 675.18 427.7 L 675.18 422.23 L 676.08 422.23 L 676.08 423.08 Q 676.4 422.59 676.84 422.35 Q 677.27 422.1 677.85 422.1 Q 678.79 422.1 679.27 422.69 Q 679.76 423.27 679.76 424.4 z M 685.15 423.07 L 685.15 420.11 L 686.04 420.11 L 686.04 427.7 L 685.15 427.7 L 685.15 426.88 Q 684.86 427.37 684.43 427.61 Q 684 427.85 683.39 427.85 Q 682.4 427.85 681.78 427.05 Q 681.16 426.26 681.16 424.97 Q 681.16 423.69 681.78 422.89 Q 682.4 422.1 683.39 422.1 Q 684 422.1 684.43 422.34 Q 684.86 422.58 685.15 423.07 M 682.08 424.97 Q 682.08 425.97 682.49 426.53 Q 682.9 427.09 683.61 427.09 Q 684.33 427.09 684.74 426.53 Q 685.15 425.97 685.15 424.97 Q 685.15 423.98 684.74 423.42 Q 684.33 422.86 683.61 422.86 Q 682.9 422.86 682.49 423.42 Q 682.08 423.98 682.08 424.97 z M 691.38 422.4 L 691.38 423.25 Q 691 423.05 690.59 422.95 Q 690.18 422.86 689.74 422.86 Q 689.07 422.86 688.73 423.06 Q 688.4 423.27 688.4 423.68 Q 688.4 423.99 688.64 424.17 Q 688.88 424.34 689.6 424.51 L 689.91 424.57 Q 690.87 424.78 691.27 425.15 Q 691.67 425.53 691.67 426.19 Q 691.67 426.96 691.07 427.4 Q 690.47 427.85 689.41 427.85 Q 688.97 427.85 688.5 427.76 Q 688.02 427.67 687.49 427.5 L 687.49 426.58 Q 687.99 426.83 688.48 426.97 Q 688.96 427.09 689.43 427.09 Q 690.07 427.09 690.41 426.88 Q 690.75 426.66 690.75 426.26 Q 690.75 425.9 690.5 425.7 Q 690.26 425.51 689.42 425.33 L 689.11 425.25 Q 688.28 425.08 687.9 424.72 Q 687.53 424.35 687.53 423.71 Q 687.53 422.94 688.08 422.52 Q 688.63 422.1 689.63 422.1 Q 690.13 422.1 690.57 422.18 Q 691.01 422.25 691.38 422.4 z" fill="#000000"/>
</g>
<g id="text_8">
<path d="M 631.11 339.83 L 631.11 341.38 L 632.96 341.38 L 632.96 342.08 L 631.11 342.08 L 631.11 345.05 Q 631.11 345.72 631.3 345.91 Q 631.48 346.1 632.04 346.1 L 632.96 346.1 L 632.96 346.85 L 632.04 346.85 Q 631 346.85 630.61 346.47 Q 630.21 346.08 630.21 345.05 L 630.21 342.08 L 629.55 342.08 L 629.55 341.38 L 630.21 341.38 L 630.21 339.83 L 631.11 339.83 z M 638.82 343.89 L 638.82 344.33 L 634.69 344.33 Q 634.75 345.26 635.25 345.75 Q 635.75 346.23 636.65 346.23 Q 637.16 346.23 637.65 346.11 Q 638.14 345.98 638.61 345.73 L 638.61 346.57 Q 638.13 346.78 637.62 346.89 Q 637.12 346.99 636.59 346.99 Q 635.28 346.99 634.52 346.23 Q 633.76 345.47 633.76 344.17 Q 633.76 342.83 634.48 342.04 Q 635.21 341.25 636.44 341.25 Q 637.54 341.25 638.18 341.97 Q 638.82 342.67 638.82 343.89 M 637.93 343.63 Q 637.92 342.89 637.51 342.45 Q 637.11 342.01 636.45 342.01 Q 635.69 342.01 635.24 342.44 Q 634.79 342.86 634.72 343.64 L 637.93 343.63 z M 643.79 341.55 L 643.79 342.4 Q 643.4 342.2 642.99 342.1 Q 642.58 342 642.14 342 Q 641.48 342 641.14 342.21 Q 640.81 342.41 640.81 342.82 Q 640.81 343.14 641.05 343.32 Q 641.29 343.49 642.01 343.65 L 642.32 343.72 Q 643.27 343.93 643.67 344.3 Q 644.08 344.68 644.08 345.34 Q 644.08 346.11 643.47 346.55 Q 642.87 346.99 641.82 346.99 Q 641.38 346.99 640.9 346.91 Q 640.43 346.82 639.9 346.65 L 639.9 345.73 Q 640.4 345.98 640.88 346.12 Q 641.36 346.24 641.84 346.24 Q 642.47 346.24 642.81 346.03 Q 643.16 345.81 643.16 345.41 Q 643.16 345.05 642.91 344.85 Q 642.66 344.66 641.83 344.48 L 641.51 344.4 Q 640.68 344.23 640.31 343.86 Q 639.94 343.5 639.94 342.86 Q 639.94 342.09 640.48 341.67 Q 641.03 341.25 642.04 341.25 Q 642.54 341.25 642.97 341.33 Q 643.41 341.4 643.79 341.55 z M 646.4 339.83 L 646.4 341.38 L 648.25 341.38 L 648.25 342.08 L 646.4 342.08 L 646.4 345.05 Q 646.4 345.72 646.58 345.91 Q 646.76 346.1 647.33 346.1 L 648.25 346.1 L 648.25 346.85 L 647.33 346.85 Q 646.29 346.85 645.89 346.47 Q 645.49 346.08 645.49 345.05 L 645.49 342.08 L 644.84 342.08 L 644.84 341.38 L 645.49 341.38 L 645.49 339.83 L 646.4 339.83 z M 652.92 341.55 L 652.92 342.4 Q 652.54 342.2 652.13 342.1 Q 651.71 342 651.28 342 Q 650.61 342 650.27 342.21 Q 649.94 342.41 649.94 342.82 Q 649.94 343.14 650.18 343.32 Q 650.42 343.49 651.14 343.65 L 651.45 343.72 Q 652.4 343.93 652.8 344.3 Q 653.21 344.68 653.21 345.34 Q 653.21 346.11 652.6 346.55 Q 652 346.99 650.95 346.99 Q 650.51 346.99 650.03 346.91 Q 649.56 346.82 649.03 346.65 L 649.03 345.73 Q 649.53 345.98 650.01 346.12 Q 650.49 346.24 650.97 346.24 Q 651.6 346.24 651.94 346.03 Q 652.29 345.81 652.29 345.41 Q 652.29 345.05 652.04 344.85 Q 651.79 344.66 650.96 344.48 L 650.65 344.4 Q 649.81 344.23 649.44 343.86 Q 649.07 343.5 649.07 342.86 Q 649.07 342.09 649.62 341.67 Q 650.16 341.25 651.17 341.25 Q 651.67 341.25 652.11 341.33 Q 652.55 341.4 652.92 341.55 z" fill="#000000"/>
</g>
<g id="text_9">
<path d="M 589.25 313.92 L 589.25 310.97 L 590.15 310.97 L 590.15 318.56 L 589.25 318.56 L 589.25 317.74 Q 588.96 318.23 588.53 318.47 Q 588.1 318.71 587.49 318.71 Q 586.5 318.71 585.88 317.91 Q 585.26 317.12 585.26 315.83 Q 585.26 314.54 585.88 313.75 Q 586.5 312.96 587.49 312.96 Q 588.1 312.96 588.53 313.2 Q 588.96 313.44 589.25 313.92 M 586.19 315.83 Q 586.19 316.83 586.59 317.39 Q 587 317.95 587.71 317.95 Q 588.43 317.95 588.84 317.39 Q 589.25 316.83 589.25 315.83 Q 589.25 314.84 588.84 314.28 Q 588.43 313.71 587.71 313.71 Q 587 313.71 586.59 314.28 Q 586.19 314.84 586.19 315.83 z M 594.12 313.72 Q 593.39 313.72 592.97 314.29 Q 592.55 314.85 592.55 315.83 Q 592.55 316.82 592.97 317.38 Q 593.39 317.94 594.12 317.94 Q 594.83 317.94 595.25 317.38 Q 595.67 316.81 595.67 315.83 Q 595.67 314.86 595.25 314.3 Q 594.83 313.72 594.12 313.72 M 594.12 312.96 Q 595.29 312.96 595.96 313.72 Q 596.62 314.49 596.62 315.83 Q 596.62 317.18 595.96 317.94 Q 595.29 318.71 594.12 318.71 Q 592.94 318.71 592.27 317.94 Q 591.61 317.18 591.61 315.83 Q 591.61 314.49 592.27 313.72 Q 592.94 312.96 594.12 312.96 z M 602.05 313.3 L 602.05 314.14 Q 601.67 313.93 601.28 313.83 Q 600.9 313.72 600.51 313.72 Q 599.64 313.72 599.15 314.28 Q 598.67 314.83 598.67 315.83 Q 598.67 316.83 599.15 317.39 Q 599.64 317.94 600.51 317.94 Q 600.9 317.94 601.28 317.84 Q 601.67 317.73 602.05 317.52 L 602.05 318.35 Q 601.67 318.53 601.27 318.62 Q 600.87 318.71 600.41 318.71 Q 599.18 318.71 598.45 317.93 Q 597.72 317.15 597.72 315.83 Q 597.72 314.5 598.46 313.73 Q 599.19 312.96 600.47 312.96 Q 600.89 312.96 601.28 313.05 Q 601.68 313.13 602.05 313.3 z M 607.1 313.26 L 607.1 314.11 Q 606.72 313.91 606.31 313.81 Q 605.9 313.71 605.46 313.71 Q 604.79 313.71 604.45 313.92 Q 604.12 314.13 604.12 314.54 Q 604.12 314.85 604.36 315.03 Q 604.6 315.2 605.32 315.37 L 605.63 315.43 Q 606.59 315.64 606.99 316.01 Q 607.39 316.39 607.39 317.05 Q 607.39 317.82 606.79 318.26 Q 606.19 318.71 605.13 318.71 Q 604.69 318.71 604.21 318.62 Q 603.74 318.53 603.21 318.36 L 603.21 317.44 Q 603.71 317.69 604.19 317.83 Q 604.68 317.95 605.15 317.95 Q 605.79 317.95 606.13 317.74 Q 606.47 317.52 606.47 317.12 Q 606.47 316.76 606.22 316.56 Q 605.98 316.37 605.14 316.19 L 604.83 316.11 Q 603.99 315.94 603.62 315.58 Q 603.25 315.21 603.25 314.57 Q 603.25 313.8 603.8 313.38 Q 604.34 312.96 605.35 312.96 Q 605.85 312.96 606.29 313.04 Q 606.73 313.11 607.1 313.26 z" fill="#000000"/>
</g>
<g id="text_10">
<path d="M 556.47 290.95 L 556.47 294.43 L 555.38 294.43 L 555.38 285.38 L 556.47 285.38 L 556.47 286.37 Q 556.81 285.79 557.32 285.51 Q 557.85 285.22 558.57 285.22 Q 559.76 285.22 560.51 286.17 Q 561.26 287.12 561.26 288.66 Q 561.26 290.21 560.51 291.16 Q 559.76 292.11 558.57 292.11 Q 557.85 292.11 557.32 291.83 Q 556.81 291.54 556.47 290.95 M 560.14 288.66 Q 560.14 287.47 559.64 286.8 Q 559.16 286.12 558.3 286.12 Q 557.45 286.12 556.95 286.8 Q 556.47 287.47 556.47 288.66 Q 556.47 289.85 556.95 290.53 Q 557.45 291.21 558.3 291.21 Q 559.16 291.21 559.64 290.53 Q 560.14 289.85 560.14 288.66 z M 563.04 285.38 L 564.12 285.38 L 564.12 291.94 L 563.04 291.94 L 563.04 285.38 M 563.04 282.82 L 564.12 282.82 L 564.12 284.19 L 563.04 284.19 L 563.04 282.82 z M 571.99 288.39 L 571.99 288.92 L 567.03 288.92 Q 567.1 290.03 567.7 290.61 Q 568.3 291.19 569.38 291.19 Q 570 291.19 570.58 291.04 Q 571.16 290.89 571.74 290.59 L 571.74 291.6 Q 571.16 291.85 570.55 291.98 Q 569.94 292.11 569.31 292.11 Q 567.74 292.11 566.82 291.19 Q 565.91 290.28 565.91 288.72 Q 565.91 287.11 566.77 286.17 Q 567.65 285.22 569.12 285.22 Q 570.45 285.22 571.22 286.07 Q 571.99 286.92 571.99 288.39 M 570.91 288.07 Q 570.9 287.19 570.41 286.66 Q 569.93 286.13 569.14 286.13 Q 568.23 286.13 567.69 286.64 Q 567.15 287.15 567.07 288.08 L 570.91 288.07 z" fill="#000000"/>
</g>
</g>
<path d="M 294.32 18.58 Q 294.32 17.41 293.83 16.76 Q 293.35 16.12 292.48 16.12 Q 291.61 16.12 291.12 16.76 Q 290.64 17.41 290.64 18.58 Q 290.64 19.75 291.12 20.39 Q 291.61 21.04 292.48 21.04 Q 293.35 21.04 293.83 20.39 Q 294.32 19.75 294.32 18.58 M 295.39 21.12 Q 295.39 22.8 294.65 23.62 Q 293.91 24.43 292.37 24.43 Q 291.8 24.43 291.3 24.35 Q 290.79 24.26 290.32 24.09 L 290.32 23.04 Q 290.79 23.3 291.26 23.42 Q 291.72 23.54 292.2 23.54 Q 293.26 23.54 293.79 22.99 Q 294.32 22.44 294.32 21.32 L 294.32 20.78 Q 293.98 21.36 293.46 21.65 Q 292.94 21.94 292.21 21.94 Q 291.01 21.94 290.27 21.02 Q 289.53 20.1 289.53 18.58 Q 289.53 17.06 290.27 16.14 Q 291.01 15.22 292.21 15.22 Q 292.94 15.22 293.46 15.51 Q 293.98 15.79 294.32 16.37 L 294.32 15.38 L 295.39 15.38 L 295.39 21.12 z M 301.42 16.38 Q 301.24 16.28 301.02 16.23 Q 300.81 16.18 300.55 16.18 Q 299.64 16.18 299.14 16.78 Q 298.66 17.37 298.66 18.48 L 298.66 21.94 L 297.57 21.94 L 297.57 15.38 L 298.66 15.38 L 298.66 16.4 Q 299 15.8 299.54 15.51 Q 300.09 15.22 300.87 15.22 Q 300.98 15.22 301.11 15.24 Q 301.25 15.25 301.41 15.28 L 301.42 16.38 z M 305.53 18.64 Q 304.22 18.64 303.72 18.94 Q 303.22 19.24 303.22 19.96 Q 303.22 20.53 303.59 20.87 Q 303.97 21.21 304.62 21.21 Q 305.52 21.21 306.06 20.57 Q 306.6 19.93 306.6 18.88 L 306.6 18.64 L 305.53 18.64 M 307.68 18.19 L 307.68 21.94 L 306.6 21.94 L 306.6 20.94 Q 306.23 21.54 305.68 21.83 Q 305.13 22.11 304.34 22.11 Q 303.33 22.11 302.73 21.55 Q 302.14 20.98 302.14 20.03 Q 302.14 18.92 302.88 18.36 Q 303.62 17.8 305.09 17.8 L 306.6 17.8 L 306.6 17.69 Q 306.6 16.95 306.11 16.54 Q 305.62 16.13 304.74 16.13 Q 304.18 16.13 303.64 16.27 Q 303.11 16.4 302.62 16.67 L 302.62 15.67 Q 303.21 15.45 303.77 15.34 Q 304.32 15.22 304.85 15.22 Q 306.28 15.22 306.98 15.96 Q 307.68 16.69 307.68 18.19 z M 310.95 20.95 L 310.95 24.43 L 309.86 24.43 L 309.86 15.38 L 310.95 15.38 L 310.95 16.37 Q 311.29 15.79 311.8 15.51 Q 312.32 15.22 313.04 15.22 Q 314.24 15.22 314.98 16.17 Q 315.73 17.12 315.73 18.66 Q 315.73 20.21 314.98 21.16 Q 314.24 22.11 313.04 22.11 Q 312.32 22.11 311.8 21.83 Q 311.29 21.54 310.95 20.95 M 314.61 18.66 Q 314.61 17.47 314.12 16.8 Q 313.63 16.12 312.78 16.12 Q 311.92 16.12 311.43 16.8 Q 310.95 17.47 310.95 18.66 Q 310.95 19.85 311.43 20.53 Q 311.92 21.21 312.78 21.21 Q 313.63 21.21 314.12 20.53 Q 314.61 19.85 314.61 18.66 z M 322.97 17.98 L 322.97 21.94 L 321.9 21.94 L 321.9 18.01 Q 321.9 17.08 321.53 16.62 Q 321.17 16.16 320.44 16.16 Q 319.57 16.16 319.07 16.71 Q 318.56 17.27 318.56 18.23 L 318.56 21.94 L 317.48 21.94 L 317.48 12.82 L 318.56 12.82 L 318.56 16.4 Q 318.95 15.8 319.47 15.51 Q 320 15.22 320.68 15.22 Q 321.81 15.22 322.39 15.92 Q 322.97 16.62 322.97 17.98 z M 325.12 12.82 L 326.2 12.82 L 326.2 21.94 L 325.12 21.94 L 325.12 12.82 z M 328.46 15.38 L 329.54 15.38 L 329.54 21.94 L 328.46 21.94 L 328.46 15.38 M 328.46 12.82 L 329.54 12.82 L 329.54 14.19 L 328.46 14.19 L 328.46 12.82 z M 336.5 18.66 Q 336.5 17.47 336.01 16.8 Q 335.53 16.12 334.67 16.12 Q 333.81 16.12 333.32 16.8 Q 332.84 17.47 332.84 18.66 Q 332.84 19.85 333.32 20.53 Q 333.81 21.21 334.67 21.21 Q 335.53 21.21 336.01 20.53 Q 336.5 19.85 336.5 18.66 M 332.84 16.37 Q 333.18 15.79 333.69 15.51 Q 334.21 15.22 334.93 15.22 Q 336.13 15.22 336.87 16.17 Q 337.62 17.12 337.62 18.66 Q 337.62 20.21 336.87 21.16 Q 336.13 22.11 334.93 22.11 Q 334.21 22.11 333.69 21.83 Q 333.18 21.54 332.84 20.95 L 332.84 21.94 L 331.75 21.94 L 331.75 12.82 L 332.84 12.82 L 332.84 16.37 z z M 348.84 18.39 L 348.84 18.92 L 343.88 18.92 Q 343.95 20.03 344.55 20.61 Q 345.15 21.19 346.22 21.19 Q 346.85 21.19 347.43 21.04 Q 348.01 20.89 348.59 20.59 L 348.59 21.6 Q 348.01 21.85 347.4 21.98 Q 346.79 22.11 346.16 22.11 Q 344.59 22.11 343.67 21.19 Q 342.76 20.28 342.76 18.72 Q 342.76 17.11 343.62 16.17 Q 344.5 15.22 345.97 15.22 Q 347.3 15.22 348.06 16.07 Q 348.84 16.92 348.84 18.39 M 347.76 18.07 Q 347.75 17.19 347.26 16.66 Q 346.78 16.13 345.98 16.13 Q 345.08 16.13 344.54 16.64 Q 344 17.15 343.92 18.08 L 347.76 18.07 z M 349.83 15.38 L 350.98 15.38 L 353.03 20.88 L 355.08 15.38 L 356.22 15.38 L 353.76 21.94 L 352.29 21.94 L 349.83 15.38 z M 363.32 18.39 L 363.32 18.92 L 358.37 18.92 Q 358.44 20.03 359.03 20.61 Q 359.64 21.19 360.71 21.19 Q 361.33 21.19 361.91 21.04 Q 362.5 20.89 363.07 20.59 L 363.07 21.6 Q 362.49 21.85 361.88 21.98 Q 361.27 22.11 360.64 22.11 Q 359.07 22.11 358.15 21.19 Q 357.24 20.28 357.24 18.72 Q 357.24 17.11 358.11 16.17 Q 358.98 15.22 360.46 15.22 Q 361.78 15.22 362.55 16.07 Q 363.32 16.92 363.32 18.39 M 362.24 18.07 Q 362.23 17.19 361.75 16.66 Q 361.27 16.13 360.47 16.13 Q 359.57 16.13 359.02 16.64 Q 358.48 17.15 358.4 18.08 L 362.24 18.07 z M 368.89 16.38 Q 368.71 16.28 368.5 16.23 Q 368.29 16.18 368.03 16.18 Q 367.11 16.18 366.62 16.78 Q 366.13 17.37 366.13 18.48 L 366.13 21.94 L 365.05 21.94 L 365.05 15.38 L 366.13 15.38 L 366.13 16.4 Q 366.47 15.8 367.02 15.51 Q 367.56 15.22 368.34 15.22 Q 368.46 15.22 368.59 15.24 Q 368.72 15.25 368.89 15.28 L 368.89 16.38 z M 372.76 22.55 Q 372.3 23.72 371.87 24.08 Q 371.43 24.43 370.71 24.43 L 369.84 24.43 L 369.84 23.53 L 370.48 23.53 Q 370.92 23.53 371.17 23.32 Q 371.41 23.11 371.71 22.33 L 371.91 21.83 L 369.25 15.38 L 370.39 15.38 L 372.45 20.51 L 374.5 15.38 L 375.64 15.38 L 372.76 22.55 z M 381.45 16.37 L 381.45 12.82 L 382.52 12.82 L 382.52 21.94 L 381.45 21.94 L 381.45 20.95 Q 381.11 21.54 380.58 21.83 Q 380.07 22.11 379.34 22.11 Q 378.15 22.11 377.4 21.16 Q 376.66 20.21 376.66 18.66 Q 376.66 17.12 377.4 16.17 Q 378.15 15.22 379.34 15.22 Q 380.07 15.22 380.58 15.51 Q 381.11 15.79 381.45 16.37 M 377.77 18.66 Q 377.77 19.85 378.26 20.53 Q 378.75 21.21 379.61 21.21 Q 380.46 21.21 380.95 20.53 Q 381.45 19.85 381.45 18.66 Q 381.45 17.47 380.95 16.8 Q 380.46 16.12 379.61 16.12 Q 378.75 16.12 378.26 16.8 Q 377.77 17.47 377.77 18.66 z M 387.73 18.64 Q 386.42 18.64 385.92 18.94 Q 385.41 19.24 385.41 19.96 Q 385.41 20.53 385.79 20.87 Q 386.17 21.21 386.82 21.21 Q 387.71 21.21 388.25 20.57 Q 388.8 19.93 388.8 18.88 L 388.8 18.64 L 387.73 18.64 M 389.88 18.19 L 389.88 21.94 L 388.8 21.94 L 388.8 20.94 Q 388.43 21.54 387.88 21.83 Q 387.33 22.11 386.53 22.11 Q 385.52 22.11 384.93 21.55 Q 384.33 20.98 384.33 20.03 Q 384.33 18.92 385.07 18.36 Q 385.82 17.8 387.29 17.8 L 388.8 17.8 L 388.8 17.69 Q 388.8 16.95 388.31 16.54 Q 387.82 16.13 386.94 16.13 Q 386.37 16.13 385.84 16.27 Q 385.31 16.4 384.81 16.67 L 384.81 15.67 Q 385.41 15.45 385.96 15.34 Q 386.52 15.22 387.05 15.22 Q 388.47 15.22 389.17 15.96 Q 389.88 16.69 389.88 18.19 z M 394.83 22.55 Q 394.37 23.72 393.94 24.08 Q 393.5 24.43 392.78 24.43 L 391.92 24.43 L 391.92 23.53 L 392.55 23.53 Q 392.99 23.53 393.24 23.32 Q 393.49 23.11 393.79 22.33 L 393.98 21.83 L 391.32 15.38 L 392.47 15.38 L 394.52 20.51 L 396.57 15.38 L 397.71 15.38 L 394.83 22.55 z z M 404.06 20.95 L 404.06 24.43 L 402.97 24.43 L 402.97 15.38 L 404.06 15.38 L 404.06 16.37 Q 404.4 15.79 404.91 15.51 Q 405.43 15.22 406.15 15.22 Q 407.35 15.22 408.09 16.17 Q 408.84 17.12 408.84 18.66 Q 408.84 20.21 408.09 21.16 Q 407.35 22.11 406.15 22.11 Q 405.43 22.11 404.91 21.83 Q 404.4 21.54 404.06 20.95 M 407.72 18.66 Q 407.72 17.47 407.23 16.8 Q 406.75 16.12 405.89 16.12 Q 405.04 16.12 404.54 16.8 Q 404.06 17.47 404.06 18.66 Q 404.06 19.85 404.54 20.53 Q 405.04 21.21 405.89 21.21 Q 406.75 21.21 407.23 20.53 Q 407.72 19.85 407.72 18.66 z M 410.63 12.82 L 411.71 12.82 L 411.71 21.94 L 410.63 21.94 L 410.63 12.82 z M 416.51 16.13 Q 415.64 16.13 415.14 16.81 Q 414.63 17.49 414.63 18.66 Q 414.63 19.84 415.13 20.52 Q 415.63 21.19 416.51 21.19 Q 417.37 21.19 417.87 20.51 Q 418.38 19.84 418.38 18.66 Q 418.38 17.5 417.87 16.82 Q 417.37 16.13 416.51 16.13 M 416.51 15.22 Q 417.91 15.22 418.72 16.13 Q 419.52 17.05 419.52 18.66 Q 419.52 20.27 418.72 21.19 Q 417.91 22.11 416.51 22.11 Q 415.1 22.11 414.29 21.19 Q 413.5 20.27 413.5 18.66 Q 413.5 17.05 414.29 16.13 Q 415.1 15.22 416.51 15.22 z M 422.37 13.51 L 422.37 15.38 L 424.59 15.38 L 424.59 16.21 L 422.37 16.21 L 422.37 19.78 Q 422.37 20.58 422.59 20.81 Q 422.81 21.04 423.49 21.04 L 424.59 21.04 L 424.59 21.94 L 423.49 21.94 Q 422.24 21.94 421.76 21.48 Q 421.29 21.01 421.29 19.78 L 421.29 16.21 L 420.5 16.21 L 420.5 15.38 L 421.29 15.38 L 421.29 13.51 L 422.37 13.51 z M 430.2 15.57 L 430.2 16.59 Q 429.74 16.35 429.25 16.24 Q 428.75 16.12 428.23 16.12 Q 427.42 16.12 427.02 16.37 Q 426.62 16.61 426.62 17.1 Q 426.62 17.48 426.91 17.7 Q 427.2 17.91 428.06 18.1 L 428.43 18.18 Q 429.58 18.43 430.06 18.88 Q 430.55 19.33 430.55 20.13 Q 430.55 21.04 429.82 21.58 Q 429.1 22.11 427.83 22.11 Q 427.31 22.11 426.73 22.01 Q 426.16 21.9 425.53 21.7 L 425.53 20.59 Q 426.13 20.9 426.71 21.05 Q 427.29 21.21 427.86 21.21 Q 428.62 21.21 429.03 20.95 Q 429.44 20.68 429.44 20.21 Q 429.44 19.77 429.14 19.54 Q 428.85 19.3 427.85 19.09 L 427.47 19 Q 426.47 18.79 426.02 18.35 Q 425.58 17.91 425.58 17.15 Q 425.58 16.23 426.23 15.72 Q 426.89 15.22 428.1 15.22 Q 428.7 15.22 429.22 15.31 Q 429.75 15.39 430.2 15.57 z" fill="#000000"/>
</g>
</svg>
