<?xml version="1.0" encoding="utf-8" standalone="no"?>
<!DOCTYPE svg PUBLIC "-//W3C//DTD SVG 1.1//EN" "http://www.w3.org/Graphics/SVG/1.1/DTD/svg11.dtd">
<svg xmlns="http://www.w3.org/2000/svg" width="460.8pt" height="345.6pt" viewBox="0 0 460.8 345.6" version="1.1">
<defs>
<clipPath id="p1"><rect x="57.6" y="41.47" width="357.12" height="266.11"/></clipPath>
</defs>
<g id="figure_1">
<path d="M 0 345.6 L 460.8 345.6 L 460.8 0 L 0 0 z" fill="#ffffff"/>
<g id="axes_1">
<path d="M 57.6 307.58 L 414.72 307.58 L 414.72 41.47 L 57.6 41.47 z" fill="#ffffff"/>
<g id="line2d_1">
<path clip-path="url(#p1)" d="M 73.83 252.29 L 86.86 241.51 L 94.46 235.49 L 100.98 230.62 L 106.41 226.82 L 111.84 223.3 L 116.18 220.72 L 120.52 218.35 L 124.87 216.23 L 129.21 214.36 L 133.55 212.76 L 137.89 211.43 L 142.24 210.4 L 146.58 209.66 L 149.84 209.3 L 153.1 209.12 L 156.35 209.1 L 159.61 209.26 L 162.87 209.59 L 166.13 210.09 L 170.47 211.01 L 174.81 212.23 L 179.16 213.72 L 183.5 215.5 L 187.84 217.53 L 192.19 219.8 L 196.53 222.31 L 201.96 225.74 L 207.39 229.46 L 212.82 233.43 L 219.33 238.46 L 228.02 245.51 L 255.16 267.82 L 261.68 272.77 L 267.11 276.64 L 272.53 280.25 L 277.96 283.55 L 282.31 285.94 L 286.65 288.1 L 290.99 290 L 295.34 291.64 L 299.68 292.99 L 304.02 294.07 L 308.37 294.84 L 311.62 295.23 L 314.88 295.44 L 318.14 295.48 L 321.4 295.35 L 324.65 295.05 L 327.91 294.59 L 332.25 293.7 L 336.6 292.52 L 340.94 291.05 L 345.28 289.32 L 349.63 287.32 L 353.97 285.07 L 358.31 282.59 L 363.74 279.2 L 369.17 275.51 L 374.6 271.56 L 381.11 266.54 L 388.72 260.41 L 398.49 252.29 L 398.49 252.29" fill="none" stroke="#1f77b4" stroke-width="1.5" stroke-linecap="square" stroke-linejoin="round"/>
</g>
<g id="line2d_2">
<path clip-path="url(#p1)" d="M 73.83 247.77 L 82.52 240.69 L 106.41 220.99 L 112.92 215.97 L 119.44 211.24 L 124.87 207.59 L 130.29 204.24 L 134.64 201.8 L 138.98 199.6 L 143.32 197.65 L 147.67 195.96 L 152.01 194.54 L 156.35 193.42 L 160.7 192.58 L 163.95 192.15 L 167.21 191.9 L 170.47 191.81 L 173.73 191.89 L 176.98 192.15 L 180.24 192.57 L 184.58 193.4 L 188.93 194.53 L 193.27 195.94 L 197.61 197.62 L 201.96 199.57 L 206.3 201.77 L 210.64 204.2 L 214.99 206.86 L 220.42 210.45 L 225.84 214.31 L 232.36 219.24 L 239.96 225.31 L 250.82 234.3 L 264.93 245.98 L 272.53 251.99 L 279.05 256.85 L 284.48 260.64 L 289.91 264.14 L 294.25 266.72 L 298.59 269.07 L 302.94 271.18 L 307.28 273.04 L 311.62 274.62 L 315.97 275.93 L 320.31 276.95 L 324.65 277.67 L 327.91 278.01 L 331.17 278.19 L 334.43 278.19 L 337.68 278.02 L 340.94 277.68 L 344.2 277.17 L 348.54 276.23 L 352.88 274.99 L 357.23 273.48 L 361.57 271.69 L 365.91 269.65 L 370.26 267.36 L 374.6 264.84 L 380.03 261.4 L 385.46 257.67 L 390.89 253.69 L 397.4 248.64 L 398.49 247.77 L 398.49 247.77" fill="none" stroke="#ff7f0e" stroke-width="1.5" stroke-linecap="square" stroke-linejoin="round"/>
</g>
<g id="line2d_3">
<path clip-path="url(#p1)" d="M 73.83 242.12 L 79.26 238.25 L 85.78 233.3 L 93.38 227.23 L 104.24 218.23 L 118.35 206.56 L 125.95 200.56 L 132.47 195.71 L 137.89 191.94 L 143.32 188.44 L 147.67 185.88 L 152.01 183.54 L 156.35 181.45 L 160.7 179.6 L 165.04 178.03 L 169.38 176.74 L 173.73 175.74 L 178.07 175.04 L 181.33 174.7 L 184.58 174.54 L 187.84 174.56 L 191.1 174.74 L 194.36 175.09 L 198.7 175.83 L 203.04 176.86 L 207.39 178.18 L 211.73 179.77 L 216.07 181.64 L 220.42 183.76 L 224.76 186.12 L 229.1 188.71 L 234.53 192.22 L 239.96 196.02 L 246.48 200.89 L 254.08 206.9 L 263.85 214.96 L 281.22 229.34 L 288.82 235.31 L 295.34 240.13 L 300.77 243.88 L 306.19 247.35 L 310.54 249.88 L 314.88 252.19 L 319.22 254.26 L 323.57 256.06 L 327.91 257.6 L 332.25 258.86 L 336.6 259.82 L 340.94 260.49 L 344.2 260.79 L 347.45 260.92 L 350.71 260.88 L 353.97 260.67 L 357.23 260.29 L 361.57 259.52 L 365.91 258.45 L 370.26 257.1 L 374.6 255.46 L 378.94 253.56 L 383.29 251.41 L 387.63 249.02 L 391.97 246.41 L 397.4 242.86 L 398.49 242.12 L 398.49 242.12" fill="none" stroke="#2ca02c" stroke-width="1.5" stroke-linecap="square" stroke-linejoin="round"/>
</g>
<g id="line2d_4">
<path clip-path="url(#p1)" d="M 73.83 234.29 L 78.18 231.91 L 82.52 229.32 L 87.95 225.79 L 93.38 221.98 L 99.89 217.1 L 107.49 211.08 L 117.26 203.01 L 134.64 188.64 L 142.24 182.68 L 148.75 177.87 L 154.18 174.13 L 159.61 170.68 L 163.95 168.16 L 168.3 165.86 L 172.64 163.81 L 176.98 162.02 L 181.33 160.5 L 185.67 159.26 L 190.01 158.31 L 194.36 157.66 L 197.61 157.37 L 200.87 157.25 L 204.13 157.3 L 207.39 157.53 L 210.64 157.92 L 214.99 158.71 L 219.33 159.79 L 223.67 161.17 L 228.02 162.81 L 232.36 164.73 L 236.7 166.89 L 241.05 169.3 L 245.39 171.92 L 250.82 175.48 L 256.25 179.31 L 262.76 184.22 L 270.36 190.26 L 281.22 199.24 L 296.42 211.82 L 304.02 217.8 L 310.54 222.64 L 315.97 226.4 L 321.4 229.88 L 325.74 232.43 L 330.08 234.76 L 334.43 236.84 L 338.77 238.67 L 343.11 240.22 L 347.45 241.5 L 351.8 242.48 L 356.14 243.17 L 359.4 243.49 L 362.66 243.64 L 365.91 243.61 L 369.17 243.42 L 372.43 243.05 L 376.77 242.3 L 381.11 241.25 L 385.46 239.92 L 389.8 238.3 L 394.14 236.42 L 398.49 234.29 L 398.49 234.29" fill="none" stroke="#d62728" stroke-width="1.5" stroke-linecap="square" stroke-linejoin="round"/>
</g>
<g id="line2d_5">
<path clip-path="url(#p1)" d="M 73.83 223.43 L 78.18 221.98 L 82.52 220.25 L 86.86 218.25 L 91.21 216.01 L 95.55 213.54 L 100.98 210.15 L 106.41 206.47 L 111.84 202.52 L 118.35 197.51 L 125.95 191.38 L 140.07 179.64 L 150.92 170.73 L 158.53 164.8 L 165.04 160.03 L 170.47 156.33 L 175.9 152.93 L 180.24 150.45 L 184.58 148.19 L 188.93 146.19 L 193.27 144.44 L 197.61 142.97 L 201.96 141.79 L 206.3 140.89 L 209.56 140.42 L 212.82 140.11 L 216.07 139.97 L 219.33 140.01 L 222.59 140.22 L 225.84 140.6 L 230.19 141.37 L 234.53 142.43 L 238.87 143.78 L 243.22 145.41 L 247.56 147.31 L 251.9 149.45 L 256.25 151.84 L 260.59 154.45 L 266.02 157.99 L 271.45 161.81 L 277.96 166.71 L 285.56 172.74 L 296.42 181.71 L 311.62 194.29 L 319.22 200.29 L 325.74 205.14 L 331.17 208.92 L 336.6 212.42 L 340.94 214.98 L 345.28 217.33 L 349.63 219.43 L 353.97 221.27 L 358.31 222.84 L 362.66 224.14 L 367 225.14 L 371.34 225.85 L 374.6 226.19 L 377.86 226.35 L 381.11 226.34 L 384.37 226.16 L 387.63 225.81 L 390.89 225.29 L 395.23 224.34 L 398.49 223.43 L 398.49 223.43" fill="none" stroke="#9467bd" stroke-width="1.5" stroke-linecap="square" stroke-linejoin="round"/>
</g>
<g id="line2d_6">
<path clip-path="url(#p1)" d="M 73.83 208.98 L 77.09 208.7 L 80.35 208.25 L 84.69 207.39 L 89.03 206.24 L 93.38 204.81 L 97.72 203.09 L 102.06 201.12 L 106.41 198.9 L 110.75 196.44 L 116.18 193.07 L 121.61 189.4 L 127.04 185.46 L 133.55 180.47 L 141.15 174.35 L 154.18 163.51 L 165.04 154.57 L 172.64 148.58 L 179.16 143.74 L 184.58 139.97 L 190.01 136.49 L 194.36 133.93 L 198.7 131.61 L 203.04 129.52 L 207.39 127.69 L 211.73 126.13 L 216.07 124.85 L 220.42 123.86 L 224.76 123.17 L 228.02 122.85 L 231.27 122.7 L 234.53 122.72 L 237.79 122.91 L 241.05 123.28 L 245.39 124.02 L 249.73 125.07 L 254.08 126.4 L 258.42 128.01 L 262.76 129.89 L 267.11 132.02 L 271.45 134.39 L 275.79 136.98 L 281.22 140.51 L 286.65 144.32 L 293.16 149.19 L 300.77 155.21 L 310.54 163.27 L 327.91 177.65 L 335.51 183.61 L 342.03 188.43 L 347.45 192.17 L 352.88 195.62 L 357.23 198.14 L 361.57 200.44 L 365.91 202.5 L 370.26 204.29 L 374.6 205.82 L 378.94 207.06 L 383.29 208.01 L 387.63 208.67 L 390.89 208.96 L 394.14 209.08 L 397.4 209.03 L 398.49 208.98 L 398.49 208.98" fill="none" stroke="#8c564b" stroke-width="1.5" stroke-linecap="square" stroke-linejoin="round"/>
</g>
<g id="line2d_7">
<path clip-path="url(#p1)" d="M 73.83 190.68 L 78.18 191.35 L 81.43 191.66 L 84.69 191.8 L 87.95 191.77 L 91.21 191.56 L 94.46 191.18 L 98.81 190.42 L 103.15 189.36 L 107.49 188.01 L 111.84 186.39 L 116.18 184.5 L 120.52 182.35 L 124.87 179.97 L 129.21 177.36 L 134.64 173.82 L 140.07 170 L 146.58 165.11 L 154.18 159.08 L 163.95 151.02 L 181.33 136.65 L 188.93 130.7 L 195.44 125.9 L 200.87 122.17 L 206.3 118.73 L 210.64 116.22 L 214.99 113.93 L 219.33 111.89 L 223.67 110.11 L 228.02 108.6 L 232.36 107.37 L 236.7 106.44 L 241.05 105.8 L 244.3 105.52 L 247.56 105.41 L 250.82 105.47 L 254.08 105.71 L 257.33 106.11 L 261.68 106.91 L 266.02 108.01 L 270.36 109.39 L 274.71 111.05 L 279.05 112.97 L 283.39 115.15 L 287.74 117.56 L 292.08 120.19 L 297.51 123.76 L 302.94 127.61 L 309.45 132.52 L 317.05 138.57 L 327.91 147.56 L 343.11 160.13 L 350.71 166.1 L 357.23 170.93 L 362.66 174.69 L 368.08 178.16 L 372.43 180.7 L 376.77 183.01 L 381.11 185.08 L 385.46 186.9 L 389.8 188.44 L 394.14 189.71 L 398.49 190.68 L 398.49 190.68" fill="none" stroke="#e377c2" stroke-width="1.5" stroke-linecap="square" stroke-linejoin="round"/>
</g>
<g id="line2d_8">
<path clip-path="url(#p1)" d="M 73.83 168.62 L 78.18 170.32 L 82.52 171.74 L 86.86 172.88 L 91.21 173.73 L 94.46 174.16 L 97.72 174.43 L 100.98 174.53 L 104.24 174.45 L 107.49 174.21 L 110.75 173.79 L 115.09 172.97 L 119.44 171.86 L 123.78 170.46 L 128.12 168.79 L 132.47 166.85 L 136.81 164.66 L 141.15 162.23 L 145.5 159.59 L 150.92 156.01 L 156.35 152.15 L 162.87 147.23 L 170.47 141.17 L 181.33 132.18 L 195.44 120.49 L 203.04 114.48 L 209.56 109.61 L 214.99 105.81 L 220.42 102.3 L 224.76 99.71 L 229.1 97.35 L 233.45 95.23 L 237.79 93.37 L 242.13 91.77 L 246.48 90.45 L 250.82 89.42 L 255.16 88.69 L 258.42 88.34 L 261.68 88.15 L 264.93 88.14 L 268.19 88.31 L 271.45 88.64 L 274.71 89.14 L 279.05 90.07 L 283.39 91.29 L 287.74 92.79 L 292.08 94.57 L 296.42 96.6 L 300.77 98.88 L 305.11 101.39 L 310.54 104.82 L 315.97 108.55 L 321.4 112.52 L 327.91 117.56 L 336.6 124.61 L 362.66 146.07 L 369.17 151.05 L 374.6 154.98 L 380.03 158.64 L 385.46 162 L 389.8 164.44 L 394.14 166.66 L 398.49 168.62 L 398.49 168.62" fill="none" stroke="#7f7f7f" stroke-width="1.5" stroke-linecap="square" stroke-linejoin="round"/>
</g>
<g id="line2d_9">
<path clip-path="url(#p1)" d="M 73.83 143.23 L 78.18 145.8 L 82.52 148.15 L 86.86 150.25 L 91.21 152.1 L 95.55 153.69 L 99.89 154.99 L 104.24 156 L 108.58 156.72 L 111.84 157.06 L 115.09 157.23 L 118.35 157.23 L 121.61 157.05 L 124.87 156.71 L 128.12 156.19 L 132.47 155.25 L 136.81 154.01 L 141.15 152.49 L 145.5 150.7 L 149.84 148.65 L 154.18 146.36 L 158.53 143.84 L 163.95 140.39 L 169.38 136.66 L 174.81 132.67 L 181.33 127.62 L 190.01 120.57 L 216.07 99.12 L 222.59 94.14 L 228.02 90.23 L 233.45 86.58 L 238.87 83.24 L 243.22 80.8 L 247.56 78.6 L 251.9 76.65 L 256.25 74.97 L 260.59 73.56 L 264.93 72.44 L 269.28 71.61 L 272.53 71.19 L 275.79 70.93 L 279.05 70.85 L 282.31 70.94 L 285.56 71.2 L 288.82 71.62 L 293.16 72.46 L 297.51 73.59 L 301.85 75 L 306.19 76.69 L 310.54 78.65 L 314.88 80.85 L 319.22 83.29 L 323.57 85.94 L 329 89.54 L 334.43 93.4 L 340.94 98.34 L 348.54 104.41 L 359.4 113.4 L 373.51 125.08 L 381.11 131.08 L 387.63 135.94 L 393.06 139.73 L 398.49 143.23 L 398.49 143.23" fill="none" stroke="#bcbd22" stroke-width="1.5" stroke-linecap="square" stroke-linejoin="round"/>
</g>
<g id="line2d_10">
<path clip-path="url(#p1)" d="M 73.83 115.23 L 80.35 120 L 85.78 123.69 L 91.21 127.08 L 95.55 129.56 L 99.89 131.8 L 104.24 133.8 L 108.58 135.54 L 112.92 137 L 117.26 138.18 L 121.61 139.07 L 124.87 139.54 L 128.12 139.83 L 131.38 139.96 L 134.64 139.92 L 137.89 139.7 L 141.15 139.32 L 145.5 138.54 L 149.84 137.47 L 154.18 136.11 L 158.53 134.47 L 162.87 132.57 L 167.21 130.41 L 171.55 128.02 L 175.9 125.41 L 181.33 121.85 L 186.76 118.03 L 193.27 113.13 L 200.87 107.09 L 211.73 98.12 L 226.93 85.54 L 234.53 79.54 L 241.05 74.7 L 246.48 70.93 L 251.9 67.44 L 256.25 64.88 L 260.59 62.54 L 264.93 60.45 L 269.28 58.62 L 273.62 57.05 L 277.96 55.76 L 282.31 54.77 L 286.65 54.07 L 289.91 53.74 L 293.16 53.58 L 296.42 53.6 L 299.68 53.78 L 302.94 54.14 L 307.28 54.88 L 311.62 55.92 L 315.97 57.24 L 320.31 58.84 L 324.65 60.71 L 329 62.84 L 333.34 65.2 L 337.68 67.79 L 343.11 71.31 L 348.54 75.11 L 355.06 79.99 L 362.66 86 L 372.43 94.06 L 389.8 108.44 L 397.4 114.41 L 398.49 115.23 L 398.49 115.23" fill="none" stroke="#17becf" stroke-width="1.5" stroke-linecap="square" stroke-linejoin="round"/>
</g>
<g id="spines_1">
<path d="M 57.6 307.58 L 414.72 307.58 L 414.72 41.47 L 57.6 41.47 z" fill="none" stroke="#000000" stroke-width="0.8" stroke-linecap="square" stroke-linejoin="round"/>
</g>
<g id="xtick_1">
<path d="M 73.83 307.58 L 73.83 311.08" fill="none" stroke="#000000" stroke-width="0.8" stroke-linejoin="round"/>
<path d="M 73.83 317.23 Q 73.07 317.23 72.68 317.98 Q 72.3 318.72 72.3 320.23 Q 72.3 321.73 72.68 322.48 Q 73.07 323.23 73.83 323.23 Q 74.6 323.23 74.98 322.48 Q 75.36 321.73 75.36 320.23 Q 75.36 318.72 74.98 317.98 Q 74.6 317.23 73.83 317.23 M 73.83 316.44 Q 75.06 316.44 75.7 317.42 Q 76.35 318.38 76.35 320.23 Q 76.35 322.07 75.7 323.04 Q 75.06 324.01 73.83 324.01 Q 72.6 324.01 71.96 323.04 Q 71.31 322.07 71.31 320.23 Q 71.31 318.38 71.96 317.42 Q 72.6 316.44 73.83 316.44 z" fill="#000000"/>
<path d="M 125.5 307.58 L 125.5 311.08" fill="none" stroke="#000000" stroke-width="0.8" stroke-linejoin="round"/>
<path d="M 123.56 323.04 L 125.17 323.04 L 125.17 317.47 L 123.42 317.83 L 123.42 316.93 L 125.16 316.58 L 126.15 316.58 L 126.15 323.04 L 127.76 323.04 L 127.76 323.87 L 123.56 323.87 L 123.56 323.04 z" fill="#000000"/>
<path d="M 177.17 307.58 L 177.17 311.08" fill="none" stroke="#000000" stroke-width="0.8" stroke-linejoin="round"/>
<path d="M 175.91 323.04 L 179.35 323.04 L 179.35 323.87 L 174.72 323.87 L 174.72 323.04 Q 175.29 322.46 176.25 321.48 Q 177.22 320.5 177.47 320.21 Q 177.95 319.68 178.13 319.32 Q 178.32 318.94 178.32 318.59 Q 178.32 318.01 177.91 317.64 Q 177.51 317.27 176.85 317.27 Q 176.39 317.27 175.87 317.44 Q 175.36 317.6 174.77 317.92 L 174.77 316.93 Q 175.37 316.69 175.89 316.57 Q 176.4 316.44 176.83 316.44 Q 177.97 316.44 178.64 317.01 Q 179.31 317.58 179.31 318.52 Q 179.31 318.97 179.14 319.38 Q 178.98 319.78 178.53 320.33 Q 178.41 320.47 177.76 321.15 Q 177.1 321.82 175.91 323.04 z" fill="#000000"/>
<path d="M 228.84 307.58 L 228.84 311.08" fill="none" stroke="#000000" stroke-width="0.8" stroke-linejoin="round"/>
<path d="M 229.72 319.94 Q 230.43 320.09 230.82 320.57 Q 231.22 321.04 231.22 321.75 Q 231.22 322.83 230.48 323.42 Q 229.74 324.01 228.37 324.01 Q 227.91 324.01 227.43 323.92 Q 226.94 323.83 226.42 323.65 L 226.42 322.69 Q 226.83 322.93 227.32 323.06 Q 227.81 323.18 228.34 323.18 Q 229.27 323.18 229.75 322.81 Q 230.24 322.45 230.24 321.75 Q 230.24 321.1 229.79 320.74 Q 229.34 320.38 228.53 320.38 L 227.68 320.38 L 227.68 319.56 L 228.57 319.56 Q 229.3 319.56 229.69 319.28 Q 230.07 318.98 230.07 318.44 Q 230.07 317.88 229.67 317.58 Q 229.28 317.27 228.53 317.27 Q 228.13 317.27 227.66 317.36 Q 227.2 317.45 226.64 317.64 L 226.64 316.76 Q 227.21 316.6 227.69 316.52 Q 228.19 316.44 228.62 316.44 Q 229.74 316.44 230.4 316.96 Q 231.05 317.46 231.05 318.33 Q 231.05 318.94 230.71 319.36 Q 230.36 319.77 229.72 319.94 z" fill="#000000"/>
<path d="M 280.51 307.58 L 280.51 311.08" fill="none" stroke="#000000" stroke-width="0.8" stroke-linejoin="round"/>
<path d="M 281.11 317.44 L 278.62 321.33 L 281.11 321.33 L 281.11 317.44 M 280.85 316.58 L 282.09 316.58 L 282.09 321.33 L 283.13 321.33 L 283.13 322.15 L 282.09 322.15 L 282.09 323.87 L 281.11 323.87 L 281.11 322.15 L 277.82 322.15 L 277.82 321.2 L 280.85 316.58 z" fill="#000000"/>
<path d="M 332.18 307.58 L 332.18 311.08" fill="none" stroke="#000000" stroke-width="0.8" stroke-linejoin="round"/>
<path d="M 330.08 316.58 L 333.95 316.58 L 333.95 317.41 L 330.99 317.41 L 330.99 319.19 Q 331.2 319.12 331.42 319.09 Q 331.63 319.05 331.85 319.05 Q 333.07 319.05 333.78 319.72 Q 334.49 320.38 334.49 321.53 Q 334.49 322.7 333.76 323.36 Q 333.03 324.01 331.69 324.01 Q 331.23 324.01 330.76 323.93 Q 330.28 323.85 329.77 323.7 L 329.77 322.7 Q 330.21 322.94 330.68 323.06 Q 331.15 323.18 331.67 323.18 Q 332.52 323.18 333.01 322.73 Q 333.51 322.29 333.51 321.53 Q 333.51 320.77 333.01 320.32 Q 332.52 319.88 331.67 319.88 Q 331.28 319.88 330.88 319.96 Q 330.49 320.05 330.08 320.24 L 330.08 316.58 z" fill="#000000"/>
<path d="M 383.85 307.58 L 383.85 311.08" fill="none" stroke="#000000" stroke-width="0.8" stroke-linejoin="round"/>
<path d="M 383.97 319.83 Q 383.31 319.83 382.92 320.28 Q 382.53 320.74 382.53 321.53 Q 382.53 322.31 382.92 322.77 Q 383.31 323.23 383.97 323.23 Q 384.64 323.23 385.02 322.77 Q 385.42 322.31 385.42 321.53 Q 385.42 320.74 385.02 320.28 Q 384.64 319.83 383.97 319.83 M 385.93 316.74 L 385.93 317.64 Q 385.56 317.46 385.18 317.37 Q 384.8 317.27 384.43 317.27 Q 383.46 317.27 382.94 317.93 Q 382.43 318.59 382.35 319.93 Q 382.64 319.5 383.08 319.28 Q 383.51 319.05 384.03 319.05 Q 385.13 319.05 385.77 319.72 Q 386.41 320.38 386.41 321.53 Q 386.41 322.65 385.74 323.33 Q 385.08 324.01 383.97 324.01 Q 382.71 324.01 382.04 323.04 Q 381.37 322.07 381.37 320.23 Q 381.37 318.5 382.19 317.47 Q 383.01 316.44 384.39 316.44 Q 384.77 316.44 385.14 316.52 Q 385.52 316.59 385.93 316.74 z" fill="#000000"/>
</g>
<g id="ytick_1">
<path d="M 57.6 295.49 L 54.1 295.49" fill="none" stroke="#000000" stroke-width="0.8" stroke-linejoin="round"/>
<path d="M 36.92 295.4 L 43.18 295.4 L 43.18 296.23 L 36.92 296.23 L 36.92 295.4 z M 45.48 298.12 L 47.09 298.12 L 47.09 292.56 L 45.34 292.91 L 45.34 292.01 L 47.08 291.66 L 48.07 291.66 L 48.07 298.12 L 49.68 298.12 L 49.68 298.95 L 45.48 298.95 L 45.48 298.12 z" fill="#000000"/>
<path d="M 57.6 252.29 L 54.1 252.29" fill="none" stroke="#000000" stroke-width="0.8" stroke-linejoin="round"/>
<path d="M 47.42 249.11 Q 46.65 249.11 46.27 249.86 Q 45.89 250.61 45.89 252.11 Q 45.89 253.61 46.27 254.36 Q 46.65 255.11 47.42 255.11 Q 48.18 255.11 48.56 254.36 Q 48.95 253.61 48.95 252.11 Q 48.95 250.61 48.56 249.86 Q 48.18 249.11 47.42 249.11 M 47.42 248.33 Q 48.64 248.33 49.29 249.3 Q 49.94 250.27 49.94 252.11 Q 49.94 253.95 49.29 254.93 Q 48.64 255.89 47.42 255.89 Q 46.19 255.89 45.54 254.93 Q 44.9 253.95 44.9 252.11 Q 44.9 250.27 45.54 249.3 Q 46.19 248.33 47.42 248.33 z" fill="#000000"/>
<path d="M 57.6 209.09 L 54.1 209.09" fill="none" stroke="#000000" stroke-width="0.8" stroke-linejoin="round"/>
<path d="M 45.48 211.72 L 47.09 211.72 L 47.09 206.16 L 45.34 206.51 L 45.34 205.61 L 47.08 205.26 L 48.07 205.26 L 48.07 211.72 L 49.68 211.72 L 49.68 212.55 L 45.48 212.55 L 45.48 211.72 z" fill="#000000"/>
<path d="M 57.6 165.89 L 54.1 165.89" fill="none" stroke="#000000" stroke-width="0.8" stroke-linejoin="round"/>
<path d="M 46.16 168.52 L 49.6 168.52 L 49.6 169.35 L 44.97 169.35 L 44.97 168.52 Q 45.53 167.94 46.5 166.96 Q 47.47 165.98 47.72 165.7 Q 48.19 165.17 48.38 164.8 Q 48.57 164.43 48.57 164.07 Q 48.57 163.49 48.16 163.12 Q 47.75 162.76 47.1 162.76 Q 46.64 162.76 46.12 162.92 Q 45.6 163.08 45.02 163.41 L 45.02 162.41 Q 45.61 162.17 46.13 162.05 Q 46.65 161.93 47.08 161.93 Q 48.21 161.93 48.89 162.49 Q 49.56 163.06 49.56 164.01 Q 49.56 164.46 49.39 164.86 Q 49.22 165.26 48.78 165.81 Q 48.66 165.95 48 166.63 Q 47.35 167.3 46.16 168.52 z" fill="#000000"/>
<path d="M 57.6 122.69 L 54.1 122.69" fill="none" stroke="#000000" stroke-width="0.8" stroke-linejoin="round"/>
<path d="M 48.3 122.22 Q 49 122.37 49.4 122.85 Q 49.8 123.33 49.8 124.03 Q 49.8 125.11 49.06 125.7 Q 48.31 126.29 46.95 126.29 Q 46.49 126.29 46 126.2 Q 45.52 126.11 45 125.93 L 45 124.98 Q 45.41 125.22 45.9 125.34 Q 46.39 125.46 46.92 125.46 Q 47.85 125.46 48.33 125.1 Q 48.82 124.73 48.82 124.03 Q 48.82 123.39 48.36 123.02 Q 47.91 122.66 47.11 122.66 L 46.26 122.66 L 46.26 121.85 L 47.15 121.85 Q 47.88 121.85 48.26 121.56 Q 48.65 121.27 48.65 120.72 Q 48.65 120.16 48.25 119.86 Q 47.85 119.56 47.11 119.56 Q 46.7 119.56 46.24 119.65 Q 45.78 119.73 45.22 119.92 L 45.22 119.04 Q 45.78 118.88 46.27 118.81 Q 46.76 118.73 47.2 118.73 Q 48.32 118.73 48.97 119.24 Q 49.63 119.75 49.63 120.62 Q 49.63 121.22 49.28 121.64 Q 48.93 122.06 48.3 122.22 z" fill="#000000"/>
<path d="M 57.6 79.49 L 54.1 79.49" fill="none" stroke="#000000" stroke-width="0.8" stroke-linejoin="round"/>
<path d="M 48.02 76.52 L 45.53 80.41 L 48.02 80.41 L 48.02 76.52 M 47.76 75.66 L 49 75.66 L 49 80.41 L 50.04 80.41 L 50.04 81.23 L 49 81.23 L 49 82.95 L 48.02 82.95 L 48.02 81.23 L 44.73 81.23 L 44.73 80.28 L 47.76 75.66 z" fill="#000000"/>
</g>
<g id="text_1">
<path d="M 160.58 23.89 L 167.98 23.89 L 167.98 24.89 L 164.87 24.89 L 164.87 32.64 L 163.69 32.64 L 163.69 24.89 L 160.58 24.89 L 160.58 23.89 z M 174.53 28.68 L 174.53 32.64 L 173.45 32.64 L 173.45 28.72 Q 173.45 27.78 173.09 27.32 Q 172.73 26.86 172 26.86 Q 171.13 26.86 170.62 27.42 Q 170.12 27.97 170.12 28.93 L 170.12 32.64 L 169.04 32.64 L 169.04 23.52 L 170.12 23.52 L 170.12 27.1 Q 170.51 26.51 171.03 26.21 Q 171.55 25.92 172.24 25.92 Q 173.37 25.92 173.95 26.62 Q 174.53 27.32 174.53 28.68 z M 182.29 29.09 L 182.29 29.62 L 177.34 29.62 Q 177.41 30.73 178.01 31.32 Q 178.61 31.9 179.68 31.9 Q 180.3 31.9 180.88 31.75 Q 181.47 31.59 182.04 31.29 L 182.04 32.31 Q 181.46 32.55 180.85 32.68 Q 180.24 32.81 179.62 32.81 Q 178.05 32.81 177.13 31.9 Q 176.21 30.98 176.21 29.43 Q 176.21 27.81 177.08 26.87 Q 177.95 25.92 179.43 25.92 Q 180.75 25.92 181.52 26.78 Q 182.29 27.63 182.29 29.09 M 181.22 28.77 Q 181.2 27.89 180.72 27.36 Q 180.24 26.84 179.44 26.84 Q 178.54 26.84 177.99 27.35 Q 177.45 27.85 177.37 28.78 L 181.22 28.77 z z M 188.95 24.22 L 188.95 26.08 L 191.17 26.08 L 191.17 26.92 L 188.95 26.92 L 188.95 30.48 Q 188.95 31.28 189.16 31.51 Q 189.38 31.74 190.06 31.74 L 191.17 31.74 L 191.17 32.64 L 190.06 32.64 Q 188.81 32.64 188.34 32.18 Q 187.86 31.71 187.86 30.48 L 187.86 26.92 L 187.07 26.92 L 187.07 26.08 L 187.86 26.08 L 187.86 24.22 L 188.95 24.22 z M 195.57 29.34 Q 194.26 29.34 193.76 29.64 Q 193.25 29.94 193.25 30.66 Q 193.25 31.24 193.63 31.58 Q 194.01 31.91 194.66 31.91 Q 195.55 31.91 196.09 31.28 Q 196.64 30.64 196.64 29.58 L 196.64 29.34 L 195.57 29.34 M 197.72 28.9 L 197.72 32.64 L 196.64 32.64 L 196.64 31.65 Q 196.27 32.24 195.72 32.53 Q 195.17 32.81 194.37 32.81 Q 193.36 32.81 192.77 32.25 Q 192.17 31.68 192.17 30.73 Q 192.17 29.62 192.91 29.06 Q 193.66 28.5 195.13 28.5 L 196.64 28.5 L 196.64 28.39 Q 196.64 27.65 196.15 27.25 Q 195.66 26.84 194.78 26.84 Q 194.21 26.84 193.68 26.97 Q 193.15 27.1 192.65 27.37 L 192.65 26.38 Q 193.25 26.15 193.8 26.04 Q 194.36 25.92 194.89 25.92 Q 196.31 25.92 197.01 26.66 Q 197.72 27.4 197.72 28.9 z M 204.65 29.37 Q 204.65 28.18 204.16 27.5 Q 203.67 26.82 202.81 26.82 Q 201.96 26.82 201.47 27.5 Q 200.98 28.18 200.98 29.37 Q 200.98 30.56 201.47 31.24 Q 201.96 31.91 202.81 31.91 Q 203.67 31.91 204.16 31.24 Q 204.65 30.56 204.65 29.37 M 200.98 27.08 Q 201.32 26.49 201.84 26.21 Q 202.36 25.92 203.08 25.92 Q 204.27 25.92 205.02 26.87 Q 205.77 27.82 205.77 29.37 Q 205.77 30.91 205.02 31.86 Q 204.27 32.81 203.08 32.81 Q 202.36 32.81 201.84 32.53 Q 201.32 32.24 200.98 31.66 L 200.98 32.64 L 199.9 32.64 L 199.9 23.52 L 200.98 23.52 L 200.98 27.08 z M 207.91 31.65 L 209.85 31.65 L 209.85 24.97 L 207.74 25.39 L 207.74 24.32 L 209.83 23.89 L 211.02 23.89 L 211.02 31.65 L 212.95 31.65 L 212.95 32.64 L 207.91 32.64 L 207.91 31.65 z M 217.87 24.67 Q 216.96 24.67 216.5 25.58 Q 216.04 26.47 216.04 28.28 Q 216.04 30.08 216.5 30.98 Q 216.96 31.87 217.87 31.87 Q 218.79 31.87 219.25 30.98 Q 219.71 30.08 219.71 28.28 Q 219.71 26.47 219.25 25.58 Q 218.79 24.67 217.87 24.67 M 217.87 23.74 Q 219.34 23.74 220.12 24.9 Q 220.9 26.06 220.9 28.28 Q 220.9 30.49 220.12 31.65 Q 219.34 32.81 217.87 32.81 Q 216.4 32.81 215.62 31.65 Q 214.85 30.49 214.85 28.28 Q 214.85 26.06 215.62 24.9 Q 216.4 23.74 217.87 23.74 z z M 227.68 31.66 L 227.68 35.14 L 226.6 35.14 L 226.6 26.08 L 227.68 26.08 L 227.68 27.08 Q 228.02 26.49 228.54 26.21 Q 229.06 25.92 229.78 25.92 Q 230.97 25.92 231.72 26.87 Q 232.47 27.82 232.47 29.37 Q 232.47 30.91 231.72 31.86 Q 230.97 32.81 229.78 32.81 Q 229.06 32.81 228.54 32.53 Q 228.02 32.24 227.68 31.66 M 231.35 29.37 Q 231.35 28.18 230.86 27.5 Q 230.37 26.82 229.52 26.82 Q 228.66 26.82 228.17 27.5 Q 227.68 28.18 227.68 29.37 Q 227.68 30.56 228.17 31.24 Q 228.66 31.91 229.52 31.91 Q 230.37 31.91 230.86 31.24 Q 231.35 30.56 231.35 29.37 z M 238.06 27.09 Q 237.88 26.98 237.66 26.93 Q 237.45 26.88 237.19 26.88 Q 236.28 26.88 235.79 27.48 Q 235.3 28.07 235.3 29.18 L 235.3 32.64 L 234.21 32.64 L 234.21 26.08 L 235.3 26.08 L 235.3 27.1 Q 235.64 26.5 236.18 26.21 Q 236.73 25.92 237.51 25.92 Q 237.62 25.92 237.75 25.94 Q 237.89 25.95 238.05 25.98 L 238.06 27.09 z M 241.47 26.84 Q 240.6 26.84 240.1 27.51 Q 239.59 28.19 239.59 29.37 Q 239.59 30.54 240.09 31.22 Q 240.6 31.9 241.47 31.9 Q 242.33 31.9 242.83 31.22 Q 243.34 30.54 243.34 29.37 Q 243.34 28.2 242.83 27.52 Q 242.33 26.84 241.47 26.84 M 241.47 25.92 Q 242.87 25.92 243.68 26.84 Q 244.48 27.75 244.48 29.37 Q 244.48 30.98 243.68 31.9 Q 242.87 32.81 241.47 32.81 Q 240.06 32.81 239.25 31.9 Q 238.46 30.98 238.46 29.37 Q 238.46 27.75 239.25 26.84 Q 240.06 25.92 241.47 25.92 z M 247.31 31.66 L 247.31 35.14 L 246.23 35.14 L 246.23 26.08 L 247.31 26.08 L 247.31 27.08 Q 247.65 26.49 248.17 26.21 Q 248.69 25.92 249.41 25.92 Q 250.6 25.92 251.35 26.87 Q 252.1 27.82 252.1 29.37 Q 252.1 30.91 251.35 31.86 Q 250.6 32.81 249.41 32.81 Q 248.69 32.81 248.17 32.53 Q 247.65 32.24 247.31 31.66 M 250.98 29.37 Q 250.98 28.18 250.49 27.5 Q 250 26.82 249.14 26.82 Q 248.29 26.82 247.8 27.5 Q 247.31 28.18 247.31 29.37 Q 247.31 30.56 247.8 31.24 Q 248.29 31.91 249.14 31.91 Q 250 31.91 250.49 31.24 Q 250.98 30.56 250.98 29.37 z M 259.5 29.09 L 259.5 29.62 L 254.54 29.62 Q 254.61 30.73 255.21 31.32 Q 255.81 31.9 256.88 31.9 Q 257.51 31.9 258.09 31.75 Q 258.67 31.59 259.25 31.29 L 259.25 32.31 Q 258.67 32.55 258.06 32.68 Q 257.45 32.81 256.82 32.81 Q 255.25 32.81 254.33 31.9 Q 253.42 30.98 253.42 29.43 Q 253.42 27.81 254.28 26.87 Q 255.16 25.92 256.63 25.92 Q 257.96 25.92 258.72 26.78 Q 259.5 27.63 259.5 29.09 M 258.42 28.77 Q 258.41 27.89 257.92 27.36 Q 257.44 26.84 256.64 26.84 Q 255.74 26.84 255.2 27.35 Q 254.66 27.85 254.58 28.78 L 258.42 28.77 z M 265.07 27.09 Q 264.89 26.98 264.67 26.93 Q 264.46 26.88 264.2 26.88 Q 263.29 26.88 262.8 27.48 Q 262.31 28.07 262.31 29.18 L 262.31 32.64 L 261.23 32.64 L 261.23 26.08 L 262.31 26.08 L 262.31 27.1 Q 262.65 26.5 263.2 26.21 Q 263.74 25.92 264.52 25.92 Q 264.63 25.92 264.77 25.94 Q 264.9 25.95 265.06 25.98 L 265.07 27.09 z M 267.27 24.22 L 267.27 26.08 L 269.49 26.08 L 269.49 26.92 L 267.27 26.92 L 267.27 30.48 Q 267.27 31.28 267.48 31.51 Q 267.71 31.74 268.38 31.74 L 269.49 31.74 L 269.49 32.64 L 268.38 32.64 Q 267.13 32.64 266.66 32.18 Q 266.18 31.71 266.18 30.48 L 266.18 26.92 L 265.39 26.92 L 265.39 26.08 L 266.18 26.08 L 266.18 24.22 L 267.27 24.22 z M 273.64 33.25 Q 273.18 34.42 272.75 34.78 Q 272.31 35.14 271.59 35.14 L 270.72 35.14 L 270.72 34.24 L 271.36 34.24 Q 271.8 34.24 272.05 34.02 Q 272.29 33.81 272.59 33.03 L 272.79 32.54 L 270.13 26.08 L 271.28 26.08 L 273.33 31.21 L 275.38 26.08 L 276.52 26.08 L 273.64 33.25 z z M 286.54 26.33 L 286.54 27.34 Q 286.09 27.09 285.62 26.96 Q 285.17 26.84 284.7 26.84 Q 283.65 26.84 283.07 27.5 Q 282.49 28.17 282.49 29.37 Q 282.49 30.57 283.07 31.24 Q 283.65 31.9 284.7 31.9 Q 285.17 31.9 285.62 31.77 Q 286.09 31.65 286.54 31.39 L 286.54 32.39 Q 286.09 32.6 285.61 32.71 Q 285.13 32.81 284.58 32.81 Q 283.1 32.81 282.23 31.88 Q 281.35 30.95 281.35 29.37 Q 281.35 27.76 282.23 26.84 Q 283.12 25.92 284.65 25.92 Q 285.15 25.92 285.62 26.03 Q 286.1 26.13 286.54 26.33 z M 291.15 33.25 Q 290.69 34.42 290.26 34.78 Q 289.83 35.14 289.1 35.14 L 288.24 35.14 L 288.24 34.24 L 288.87 34.24 Q 289.32 34.24 289.56 34.02 Q 289.81 33.81 290.11 33.03 L 290.3 32.54 L 287.65 26.08 L 288.79 26.08 L 290.84 31.21 L 292.89 26.08 L 294.03 26.08 L 291.15 33.25 z M 300.24 26.33 L 300.24 27.34 Q 299.79 27.09 299.32 26.96 Q 298.87 26.84 298.4 26.84 Q 297.35 26.84 296.77 27.5 Q 296.19 28.17 296.19 29.37 Q 296.19 30.57 296.77 31.24 Q 297.35 31.9 298.4 31.9 Q 298.87 31.9 299.32 31.77 Q 299.79 31.65 300.24 31.39 L 300.24 32.39 Q 299.79 32.6 299.31 32.71 Q 298.83 32.81 298.28 32.81 Q 296.8 32.81 295.93 31.88 Q 295.05 30.95 295.05 29.37 Q 295.05 27.76 295.93 26.84 Q 296.82 25.92 298.35 25.92 Q 298.85 25.92 299.32 26.03 Q 299.8 26.13 300.24 26.33 z M 302.12 23.52 L 303.2 23.52 L 303.2 32.64 L 302.12 32.64 L 302.12 23.52 z M 311.07 29.09 L 311.07 29.62 L 306.11 29.62 Q 306.18 30.73 306.78 31.32 Q 307.38 31.9 308.45 31.9 Q 309.07 31.9 309.65 31.75 Q 310.24 31.59 310.81 31.29 L 310.81 32.31 Q 310.23 32.55 309.62 32.68 Q 309.02 32.81 308.39 32.81 Q 306.82 32.81 305.9 31.9 Q 304.98 30.98 304.98 29.43 Q 304.98 27.81 305.85 26.87 Q 306.72 25.92 308.2 25.92 Q 309.53 25.92 310.29 26.78 Q 311.07 27.63 311.07 29.09 M 309.99 28.77 Q 309.98 27.89 309.49 27.36 Q 309.01 26.84 308.21 26.84 Q 307.31 26.84 306.77 27.35 Q 306.23 27.85 306.14 28.78 L 309.99 28.77 z" fill="#000000"/>
</g>
</g>
</g>
</svg>
