<?xml version="1.0" encoding="utf-8" standalone="no"?>
<!DOCTYPE svg PUBLIC "-//W3C//DTD SVG 1.1//EN" "http://www.w3.org/Graphics/SVG/1.1/DTD/svg11.dtd">
<svg xmlns="http://www.w3.org/2000/svg" width="460.8pt" height="345.6pt" viewBox="0 0 460.8 345.6" version="1.1">
<defs>
<clipPath id="p1"><rect x="57.6" y="41.47" width="357.12" height="266.11"/></clipPath>
</defs>
<g id="figure_1">
<path d="M 0 345.6 L 460.8 345.6 L 460.8 0 L 0 0 z" fill="#ffffff"/>
<g id="axes_1">
<path d="M 57.6 307.58 L 414.72 307.58 L 414.72 41.47 L 57.6 41.47 z" fill="#ffffff"/>
<g id="line2d_1">
<path clip-path="url(#p1)" d="M 73.83 252.29 L 74.92 251.38 L 76 250.47 L 77.09 249.57 L 78.18 248.66 L 79.26 247.76 L 80.35 246.86 L 81.43 245.96 L 82.52 245.06 L 83.6 244.17 L 84.69 243.28 L 85.78 242.39 L 86.86 241.51 L 87.95 240.63 L 89.03 239.76 L 90.12 238.9 L 91.21 238.04 L 92.29 237.18 L 93.38 236.33 L 94.46 235.49 L 95.55 234.66 L 96.63 233.84 L 97.72 233.02 L 98.81 232.21 L 99.89 231.41 L 100.98 230.62 L 102.06 229.84 L 103.15 229.07 L 104.24 228.31 L 105.32 227.56 L 106.41 226.82 L 107.49 226.09 L 108.58 225.38 L 109.66 224.67 L 110.75 223.98 L 111.84 223.3 L 112.92 222.64 L 114.01 221.98 L 115.09 221.34 L 116.18 220.72 L 117.26 220.1 L 118.35 219.51 L 119.44 218.92 L 120.52 218.35 L 121.61 217.8 L 122.69 217.26 L 123.78 216.74 L 124.87 216.23 L 125.95 215.74 L 127.04 215.26 L 128.12 214.8 L 129.21 214.36 L 130.29 213.93 L 131.38 213.52 L 132.47 213.13 L 133.55 212.76 L 134.64 212.4 L 135.72 212.06 L 136.81 211.74 L 137.89 211.43 L 138.98 211.15 L 140.07 210.88 L 141.15 210.63 L 142.24 210.4 L 143.32 210.19 L 144.41 209.99 L 145.5 209.82 L 146.58 209.66 L 147.67 209.52 L 148.75 209.4 L 149.84 209.3 L 150.92 209.22 L 152.01 209.16 L 153.1 209.12 L 154.18 209.09 L 155.27 209.09 L 156.35 209.1 L 157.44 209.14 L 158.53 209.19 L 159.61 209.26 L 160.7 209.35 L 161.78 209.46 L 162.87 209.59 L 163.95 209.74 L 165.04 209.9 L 166.13 210.09 L 167.21 210.29 L 168.3 210.51 L 169.38 210.75 L 170.47 211.01 L 171.55 211.29 L 172.64 211.58 L 173.73 211.9 L 174.81 212.23 L 175.9 212.57 L 176.98 212.94 L 178.07 213.32 L 179.16 213.72 L 180.24 214.14 L 181.33 214.58 L 182.41 215.03 L 183.5 215.5 L 184.58 215.98 L 185.67 216.48 L 186.76 217 L 187.84 217.53 L 188.93 218.07 L 190.01 218.63 L 191.1 219.21 L 192.19 219.8 L 193.27 220.41 L 194.36 221.03 L 195.44 221.66 L 196.53 222.31 L 197.61 222.97 L 198.7 223.64 L 199.79 224.33 L 200.87 225.03 L 201.96 225.74 L 203.04 226.46 L 204.13 227.19 L 205.21 227.93 L 206.3 228.69 L 207.39 229.46 L 208.47 230.23 L 209.56 231.02 L 210.64 231.81 L 211.73 232.62 L 212.82 233.43 L 213.9 234.25 L 214.99 235.08 L 216.07 235.91 L 217.16 236.76 L 218.24 237.61 L 219.33 238.46 L 220.42 239.33 L 221.5 240.2 L 222.59 241.07 L 223.67 241.95 L 224.76 242.83 L 225.84 243.72 L 226.93 244.61 L 228.02 245.51 L 229.1 246.41 L 230.19 247.31 L 231.27 248.21 L 232.36 249.11 L 233.45 250.02 L 234.53 250.93 L 235.62 251.83 L 236.7 252.74 L 237.79 253.65 L 238.87 254.56 L 239.96 255.46 L 241.05 256.37 L 242.13 257.27 L 243.22 258.17 L 244.3 259.07 L 245.39 259.96 L 246.48 260.86 L 247.56 261.74 L 248.65 262.63 L 249.73 263.51 L 250.82 264.38 L 251.9 265.25 L 252.99 266.11 L 254.08 266.97 L 255.16 267.82 L 256.25 268.66 L 257.33 269.5 L 258.42 270.33 L 259.5 271.15 L 260.59 271.96 L 261.68 272.77 L 262.76 273.56 L 263.85 274.35 L 264.93 275.12 L 266.02 275.89 L 267.11 276.64 L 268.19 277.39 L 269.28 278.12 L 270.36 278.84 L 271.45 279.55 L 272.53 280.25 L 273.62 280.94 L 274.71 281.61 L 275.79 282.27 L 276.88 282.92 L 277.96 283.55 L 279.05 284.17 L 280.13 284.77 L 281.22 285.37 L 282.31 285.94 L 283.39 286.5 L 284.48 287.05 L 285.56 287.58 L 286.65 288.1 L 287.74 288.6 L 288.82 289.08 L 289.91 289.55 L 290.99 290 L 292.08 290.43 L 293.16 290.85 L 294.25 291.25 L 295.34 291.64 L 296.42 292 L 297.51 292.35 L 298.59 292.68 L 299.68 292.99 L 300.77 293.29 L 301.85 293.57 L 302.94 293.82 L 304.02 294.07 L 305.11 294.29 L 306.19 294.49 L 307.28 294.68 L 308.37 294.84 L 309.45 294.99 L 310.54 295.12 L 311.62 295.23 L 312.71 295.32 L 313.79 295.39 L 314.88 295.44 L 315.97 295.47 L 317.05 295.49 L 318.14 295.48 L 319.22 295.46 L 320.31 295.42 L 321.4 295.35 L 322.48 295.27 L 323.57 295.17 L 324.65 295.05 L 325.74 294.92 L 326.82 294.76 L 327.91 294.59 L 329 294.39 L 330.08 294.18 L 331.17 293.95 L 332.25 293.7 L 333.34 293.43 L 334.43 293.14 L 335.51 292.84 L 336.6 292.52 L 337.68 292.18 L 338.77 291.82 L 339.85 291.45 L 340.94 291.05 L 342.03 290.65 L 343.11 290.22 L 344.2 289.78 L 345.28 289.32 L 346.37 288.84 L 347.45 288.35 L 348.54 287.84 L 349.63 287.32 L 350.71 286.78 L 351.8 286.22 L 352.88 285.66 L 353.97 285.07 L 355.06 284.47 L 356.14 283.86 L 357.23 283.23 L 358.31 282.59 L 359.4 281.94 L 360.48 281.27 L 361.57 280.59 L 362.66 279.9 L 363.74 279.2 L 364.83 278.48 L 365.91 277.75 L 367 277.02 L 368.08 276.27 L 369.17 275.51 L 370.26 274.73 L 371.34 273.95 L 372.43 273.16 L 373.51 272.36 L 374.6 271.56 L 375.69 270.74 L 376.77 269.91 L 377.86 269.08 L 378.94 268.24 L 380.03 267.39 L 381.11 266.54 L 382.2 265.68 L 383.29 264.82 L 384.37 263.94 L 385.46 263.07 L 386.54 262.19 L 387.63 261.3 L 388.72 260.41 L 389.8 259.52 L 390.89 258.62 L 391.97 257.72 L 393.06 256.82 L 394.14 255.92 L 395.23 255.01 L 396.32 254.1 L 397.4 253.2 L 398.49 252.29" fill="none" stroke="#1f77b4" stroke-width="1.5" stroke-linecap="square" stroke-linejoin="round"/>
</g>
<g id="line2d_2">
<path clip-path="url(#p1)" d="M 73.83 247.77 L 74.92 246.9 L 76 246.03 L 77.09 245.15 L 78.18 244.26 L 79.26 243.38 L 80.35 242.48 L 81.43 241.59 L 82.52 240.69 L 83.6 239.79 L 84.69 238.89 L 85.78 237.98 L 86.86 237.07 L 87.95 236.17 L 89.03 235.26 L 90.12 234.35 L 91.21 233.44 L 92.29 232.54 L 93.38 231.63 L 94.46 230.73 L 95.55 229.82 L 96.63 228.92 L 97.72 228.03 L 98.81 227.13 L 99.89 226.24 L 100.98 225.36 L 102.06 224.47 L 103.15 223.59 L 104.24 222.72 L 105.32 221.85 L 106.41 220.99 L 107.49 220.14 L 108.58 219.29 L 109.66 218.45 L 110.75 217.61 L 111.84 216.78 L 112.92 215.97 L 114.01 215.15 L 115.09 214.35 L 116.18 213.56 L 117.26 212.78 L 118.35 212 L 119.44 211.24 L 120.52 210.49 L 121.61 209.75 L 122.69 209.01 L 123.78 208.3 L 124.87 207.59 L 125.95 206.89 L 127.04 206.21 L 128.12 205.54 L 129.21 204.88 L 130.29 204.24 L 131.38 203.61 L 132.47 202.99 L 133.55 202.39 L 134.64 201.8 L 135.72 201.23 L 136.81 200.67 L 137.89 200.13 L 138.98 199.6 L 140.07 199.09 L 141.15 198.59 L 142.24 198.11 L 143.32 197.65 L 144.41 197.2 L 145.5 196.77 L 146.58 196.35 L 147.67 195.96 L 148.75 195.58 L 149.84 195.22 L 150.92 194.87 L 152.01 194.54 L 153.1 194.23 L 154.18 193.94 L 155.27 193.67 L 156.35 193.42 L 157.44 193.18 L 158.53 192.96 L 159.61 192.76 L 160.7 192.58 L 161.78 192.42 L 162.87 192.28 L 163.95 192.15 L 165.04 192.05 L 166.13 191.96 L 167.21 191.9 L 168.3 191.85 L 169.38 191.82 L 170.47 191.81 L 171.55 191.82 L 172.64 191.85 L 173.73 191.89 L 174.81 191.96 L 175.9 192.04 L 176.98 192.15 L 178.07 192.27 L 179.16 192.41 L 180.24 192.57 L 181.33 192.75 L 182.41 192.95 L 183.5 193.17 L 184.58 193.4 L 185.67 193.66 L 186.76 193.93 L 187.84 194.22 L 188.93 194.53 L 190.01 194.85 L 191.1 195.2 L 192.19 195.56 L 193.27 195.94 L 194.36 196.33 L 195.44 196.75 L 196.53 197.18 L 197.61 197.62 L 198.7 198.08 L 199.79 198.56 L 200.87 199.06 L 201.96 199.57 L 203.04 200.1 L 204.13 200.64 L 205.21 201.2 L 206.3 201.77 L 207.39 202.36 L 208.47 202.96 L 209.56 203.58 L 210.64 204.2 L 211.73 204.85 L 212.82 205.5 L 213.9 206.17 L 214.99 206.86 L 216.07 207.55 L 217.16 208.26 L 218.24 208.98 L 219.33 209.71 L 220.42 210.45 L 221.5 211.2 L 222.59 211.96 L 223.67 212.74 L 224.76 213.52 L 225.84 214.31 L 226.93 215.11 L 228.02 215.92 L 229.1 216.74 L 230.19 217.57 L 231.27 218.4 L 232.36 219.24 L 233.45 220.09 L 234.53 220.95 L 235.62 221.81 L 236.7 222.68 L 237.79 223.55 L 238.87 224.43 L 239.96 225.31 L 241.05 226.2 L 242.13 227.09 L 243.22 227.98 L 244.3 228.88 L 245.39 229.78 L 246.48 230.68 L 247.56 231.58 L 248.65 232.49 L 249.73 233.4 L 250.82 234.3 L 251.9 235.21 L 252.99 236.12 L 254.08 237.03 L 255.16 237.93 L 256.25 238.84 L 257.33 239.74 L 258.42 240.64 L 259.5 241.54 L 260.59 242.44 L 261.68 243.33 L 262.76 244.22 L 263.85 245.1 L 264.93 245.98 L 266.02 246.86 L 267.11 247.73 L 268.19 248.59 L 269.28 249.45 L 270.36 250.31 L 271.45 251.15 L 272.53 251.99 L 273.62 252.82 L 274.71 253.64 L 275.79 254.46 L 276.88 255.26 L 277.96 256.06 L 279.05 256.85 L 280.13 257.63 L 281.22 258.4 L 282.31 259.15 L 283.39 259.9 L 284.48 260.64 L 285.56 261.36 L 286.65 262.08 L 287.74 262.78 L 288.82 263.47 L 289.91 264.14 L 290.99 264.81 L 292.08 265.46 L 293.16 266.1 L 294.25 266.72 L 295.34 267.33 L 296.42 267.92 L 297.51 268.5 L 298.59 269.07 L 299.68 269.62 L 300.77 270.16 L 301.85 270.68 L 302.94 271.18 L 304.02 271.67 L 305.11 272.14 L 306.19 272.6 L 307.28 273.04 L 308.37 273.46 L 309.45 273.86 L 310.54 274.25 L 311.62 274.62 L 312.71 274.98 L 313.79 275.31 L 314.88 275.63 L 315.97 275.93 L 317.05 276.21 L 318.14 276.48 L 319.22 276.72 L 320.31 276.95 L 321.4 277.16 L 322.48 277.35 L 323.57 277.52 L 324.65 277.67 L 325.74 277.8 L 326.82 277.92 L 327.91 278.01 L 329 278.09 L 330.08 278.15 L 331.17 278.19 L 332.25 278.21 L 333.34 278.21 L 334.43 278.19 L 335.51 278.15 L 336.6 278.09 L 337.68 278.02 L 338.77 277.92 L 339.85 277.81 L 340.94 277.68 L 342.03 277.53 L 343.11 277.36 L 344.2 277.17 L 345.28 276.96 L 346.37 276.73 L 347.45 276.49 L 348.54 276.23 L 349.63 275.94 L 350.71 275.65 L 351.8 275.33 L 352.88 274.99 L 353.97 274.64 L 355.06 274.27 L 356.14 273.88 L 357.23 273.48 L 358.31 273.06 L 359.4 272.62 L 360.48 272.17 L 361.57 271.69 L 362.66 271.21 L 363.74 270.7 L 364.83 270.18 L 365.91 269.65 L 367 269.1 L 368.08 268.53 L 369.17 267.95 L 370.26 267.36 L 371.34 266.75 L 372.43 266.13 L 373.51 265.49 L 374.6 264.84 L 375.69 264.18 L 376.77 263.5 L 377.86 262.81 L 378.94 262.11 L 380.03 261.4 L 381.11 260.68 L 382.2 259.94 L 383.29 259.19 L 384.37 258.44 L 385.46 257.67 L 386.54 256.89 L 387.63 256.1 L 388.72 255.31 L 389.8 254.5 L 390.89 253.69 L 391.97 252.86 L 393.06 252.03 L 394.14 251.19 L 395.23 250.35 L 396.32 249.5 L 397.4 248.64 L 398.49 247.77" fill="none" stroke="#ff7f0e" stroke-width="1.5" stroke-linecap="square" stroke-linejoin="round"/>
</g>
<g id="line2d_3">
<path clip-path="url(#p1)" d="M 73.83 242.12 L 74.92 241.37 L 76 240.6 L 77.09 239.83 L 78.18 239.04 L 79.26 238.25 L 80.35 237.44 L 81.43 236.63 L 82.52 235.81 L 83.6 234.98 L 84.69 234.15 L 85.78 233.3 L 86.86 232.45 L 87.95 231.6 L 89.03 230.73 L 90.12 229.87 L 91.21 228.99 L 92.29 228.11 L 93.38 227.23 L 94.46 226.34 L 95.55 225.45 L 96.63 224.56 L 97.72 223.66 L 98.81 222.76 L 99.89 221.85 L 100.98 220.95 L 102.06 220.04 L 103.15 219.14 L 104.24 218.23 L 105.32 217.32 L 106.41 216.41 L 107.49 215.51 L 108.58 214.6 L 109.66 213.7 L 110.75 212.79 L 111.84 211.89 L 112.92 210.99 L 114.01 210.1 L 115.09 209.21 L 116.18 208.32 L 117.26 207.44 L 118.35 206.56 L 119.44 205.68 L 120.52 204.81 L 121.61 203.95 L 122.69 203.09 L 123.78 202.24 L 124.87 201.4 L 125.95 200.56 L 127.04 199.73 L 128.12 198.91 L 129.21 198.1 L 130.29 197.29 L 131.38 196.5 L 132.47 195.71 L 133.55 194.94 L 134.64 194.17 L 135.72 193.41 L 136.81 192.67 L 137.89 191.94 L 138.98 191.21 L 140.07 190.5 L 141.15 189.8 L 142.24 189.12 L 143.32 188.44 L 144.41 187.78 L 145.5 187.13 L 146.58 186.5 L 147.67 185.88 L 148.75 185.27 L 149.84 184.68 L 150.92 184.1 L 152.01 183.54 L 153.1 182.99 L 154.18 182.46 L 155.27 181.95 L 156.35 181.45 L 157.44 180.96 L 158.53 180.49 L 159.61 180.04 L 160.7 179.6 L 161.78 179.19 L 162.87 178.78 L 163.95 178.4 L 165.04 178.03 L 166.13 177.68 L 167.21 177.35 L 168.3 177.04 L 169.38 176.74 L 170.47 176.46 L 171.55 176.2 L 172.64 175.96 L 173.73 175.74 L 174.81 175.54 L 175.9 175.35 L 176.98 175.18 L 178.07 175.04 L 179.16 174.91 L 180.24 174.8 L 181.33 174.7 L 182.41 174.63 L 183.5 174.58 L 184.58 174.54 L 185.67 174.53 L 186.76 174.53 L 187.84 174.56 L 188.93 174.6 L 190.01 174.66 L 191.1 174.74 L 192.19 174.84 L 193.27 174.96 L 194.36 175.09 L 195.44 175.25 L 196.53 175.42 L 197.61 175.62 L 198.7 175.83 L 199.79 176.06 L 200.87 176.31 L 201.96 176.57 L 203.04 176.86 L 204.13 177.16 L 205.21 177.48 L 206.3 177.82 L 207.39 178.18 L 208.47 178.55 L 209.56 178.94 L 210.64 179.35 L 211.73 179.77 L 212.82 180.22 L 213.9 180.68 L 214.99 181.15 L 216.07 181.64 L 217.16 182.15 L 218.24 182.67 L 219.33 183.21 L 220.42 183.76 L 221.5 184.33 L 222.59 184.91 L 223.67 185.51 L 224.76 186.12 L 225.84 186.75 L 226.93 187.39 L 228.02 188.04 L 229.1 188.71 L 230.19 189.39 L 231.27 190.08 L 232.36 190.78 L 233.45 191.5 L 234.53 192.22 L 235.62 192.96 L 236.7 193.71 L 237.79 194.47 L 238.87 195.24 L 239.96 196.02 L 241.05 196.81 L 242.13 197.61 L 243.22 198.42 L 244.3 199.23 L 245.39 200.06 L 246.48 200.89 L 247.56 201.73 L 248.65 202.58 L 249.73 203.43 L 250.82 204.29 L 251.9 205.16 L 252.99 206.03 L 254.08 206.9 L 255.16 207.78 L 256.25 208.67 L 257.33 209.56 L 258.42 210.45 L 259.5 211.35 L 260.59 212.25 L 261.68 213.15 L 262.76 214.05 L 263.85 214.96 L 264.93 215.87 L 266.02 216.77 L 267.11 217.68 L 268.19 218.59 L 269.28 219.5 L 270.36 220.4 L 271.45 221.31 L 272.53 222.21 L 273.62 223.11 L 274.71 224.01 L 275.79 224.91 L 276.88 225.8 L 277.96 226.69 L 279.05 227.58 L 280.13 228.46 L 281.22 229.34 L 282.31 230.21 L 283.39 231.08 L 284.48 231.94 L 285.56 232.79 L 286.65 233.64 L 287.74 234.48 L 288.82 235.31 L 289.91 236.14 L 290.99 236.95 L 292.08 237.76 L 293.16 238.56 L 294.25 239.35 L 295.34 240.13 L 296.42 240.9 L 297.51 241.67 L 298.59 242.42 L 299.68 243.16 L 300.77 243.88 L 301.85 244.6 L 302.94 245.31 L 304.02 246 L 305.11 246.68 L 306.19 247.35 L 307.28 248 L 308.37 248.64 L 309.45 249.27 L 310.54 249.88 L 311.62 250.48 L 312.71 251.07 L 313.79 251.64 L 314.88 252.19 L 315.97 252.73 L 317.05 253.25 L 318.14 253.76 L 319.22 254.26 L 320.31 254.73 L 321.4 255.19 L 322.48 255.64 L 323.57 256.06 L 324.65 256.47 L 325.74 256.87 L 326.82 257.24 L 327.91 257.6 L 329 257.94 L 330.08 258.26 L 331.17 258.57 L 332.25 258.86 L 333.34 259.12 L 334.43 259.37 L 335.51 259.61 L 336.6 259.82 L 337.68 260.02 L 338.77 260.19 L 339.85 260.35 L 340.94 260.49 L 342.03 260.61 L 343.11 260.71 L 344.2 260.79 L 345.28 260.85 L 346.37 260.9 L 347.45 260.92 L 348.54 260.93 L 349.63 260.91 L 350.71 260.88 L 351.8 260.83 L 352.88 260.76 L 353.97 260.67 L 355.06 260.56 L 356.14 260.44 L 357.23 260.29 L 358.31 260.12 L 359.4 259.94 L 360.48 259.74 L 361.57 259.52 L 362.66 259.28 L 363.74 259.02 L 364.83 258.74 L 365.91 258.45 L 367 258.14 L 368.08 257.81 L 369.17 257.46 L 370.26 257.1 L 371.34 256.71 L 372.43 256.31 L 373.51 255.9 L 374.6 255.46 L 375.69 255.01 L 376.77 254.55 L 377.86 254.06 L 378.94 253.56 L 380.03 253.05 L 381.11 252.52 L 382.2 251.97 L 383.29 251.41 L 384.37 250.84 L 385.46 250.25 L 386.54 249.64 L 387.63 249.02 L 388.72 248.39 L 389.8 247.74 L 390.89 247.08 L 391.97 246.41 L 393.06 245.73 L 394.14 245.03 L 395.23 244.32 L 396.32 243.6 L 397.4 242.86 L 398.49 242.12" fill="none" stroke="#2ca02c" stroke-width="1.5" stroke-linecap="square" stroke-linejoin="round"/>
</g>
<g id="line2d_4">
<path clip-path="url(#p1)" d="M 73.83 234.29 L 74.92 233.72 L 76 233.13 L 77.09 232.53 L 78.18 231.91 L 79.26 231.29 L 80.35 230.64 L 81.43 229.99 L 82.52 229.32 L 83.6 228.64 L 84.69 227.94 L 85.78 227.24 L 86.86 226.52 L 87.95 225.79 L 89.03 225.05 L 90.12 224.3 L 91.21 223.53 L 92.29 222.76 L 93.38 221.98 L 94.46 221.19 L 95.55 220.39 L 96.63 219.58 L 97.72 218.76 L 98.81 217.93 L 99.89 217.1 L 100.98 216.26 L 102.06 215.41 L 103.15 214.55 L 104.24 213.69 L 105.32 212.83 L 106.41 211.95 L 107.49 211.08 L 108.58 210.19 L 109.66 209.31 L 110.75 208.42 L 111.84 207.52 L 112.92 206.63 L 114.01 205.73 L 115.09 204.82 L 116.18 203.92 L 117.26 203.01 L 118.35 202.11 L 119.44 201.2 L 120.52 200.29 L 121.61 199.38 L 122.69 198.48 L 123.78 197.57 L 124.87 196.67 L 125.95 195.76 L 127.04 194.86 L 128.12 193.96 L 129.21 193.07 L 130.29 192.17 L 131.38 191.28 L 132.47 190.4 L 133.55 189.52 L 134.64 188.64 L 135.72 187.77 L 136.81 186.91 L 137.89 186.05 L 138.98 185.2 L 140.07 184.35 L 141.15 183.51 L 142.24 182.68 L 143.32 181.86 L 144.41 181.04 L 145.5 180.23 L 146.58 179.44 L 147.67 178.65 L 148.75 177.87 L 149.84 177.1 L 150.92 176.34 L 152.01 175.59 L 153.1 174.86 L 154.18 174.13 L 155.27 173.42 L 156.35 172.71 L 157.44 172.03 L 158.53 171.35 L 159.61 170.68 L 160.7 170.03 L 161.78 169.39 L 162.87 168.77 L 163.95 168.16 L 165.04 167.56 L 166.13 166.98 L 167.21 166.42 L 168.3 165.86 L 169.38 165.33 L 170.47 164.81 L 171.55 164.3 L 172.64 163.81 L 173.73 163.34 L 174.81 162.88 L 175.9 162.44 L 176.98 162.02 L 178.07 161.61 L 179.16 161.22 L 180.24 160.85 L 181.33 160.5 L 182.41 160.16 L 183.5 159.84 L 184.58 159.54 L 185.67 159.26 L 186.76 158.99 L 187.84 158.75 L 188.93 158.52 L 190.01 158.31 L 191.1 158.12 L 192.19 157.95 L 193.27 157.79 L 194.36 157.66 L 195.44 157.54 L 196.53 157.45 L 197.61 157.37 L 198.7 157.31 L 199.79 157.27 L 200.87 157.25 L 201.96 157.25 L 203.04 157.27 L 204.13 157.3 L 205.21 157.36 L 206.3 157.43 L 207.39 157.53 L 208.47 157.64 L 209.56 157.77 L 210.64 157.92 L 211.73 158.09 L 212.82 158.28 L 213.9 158.49 L 214.99 158.71 L 216.07 158.95 L 217.16 159.22 L 218.24 159.5 L 219.33 159.79 L 220.42 160.11 L 221.5 160.44 L 222.59 160.8 L 223.67 161.17 L 224.76 161.55 L 225.84 161.96 L 226.93 162.38 L 228.02 162.81 L 229.1 163.27 L 230.19 163.74 L 231.27 164.22 L 232.36 164.73 L 233.45 165.24 L 234.53 165.78 L 235.62 166.33 L 236.7 166.89 L 237.79 167.47 L 238.87 168.07 L 239.96 168.67 L 241.05 169.3 L 242.13 169.93 L 243.22 170.58 L 244.3 171.24 L 245.39 171.92 L 246.48 172.61 L 247.56 173.31 L 248.65 174.02 L 249.73 174.74 L 250.82 175.48 L 251.9 176.22 L 252.99 176.98 L 254.08 177.75 L 255.16 178.53 L 256.25 179.31 L 257.33 180.11 L 258.42 180.91 L 259.5 181.73 L 260.59 182.55 L 261.68 183.38 L 262.76 184.22 L 263.85 185.06 L 264.93 185.91 L 266.02 186.77 L 267.11 187.64 L 268.19 188.51 L 269.28 189.38 L 270.36 190.26 L 271.45 191.15 L 272.53 192.03 L 273.62 192.93 L 274.71 193.82 L 275.79 194.72 L 276.88 195.62 L 277.96 196.52 L 279.05 197.43 L 280.13 198.34 L 281.22 199.24 L 282.31 200.15 L 283.39 201.06 L 284.48 201.97 L 285.56 202.87 L 286.65 203.78 L 287.74 204.68 L 288.82 205.58 L 289.91 206.48 L 290.99 207.38 L 292.08 208.28 L 293.16 209.17 L 294.25 210.05 L 295.34 210.94 L 296.42 211.82 L 297.51 212.69 L 298.59 213.56 L 299.68 214.42 L 300.77 215.27 L 301.85 216.12 L 302.94 216.97 L 304.02 217.8 L 305.11 218.63 L 306.19 219.45 L 307.28 220.26 L 308.37 221.06 L 309.45 221.86 L 310.54 222.64 L 311.62 223.41 L 312.71 224.18 L 313.79 224.93 L 314.88 225.67 L 315.97 226.4 L 317.05 227.12 L 318.14 227.83 L 319.22 228.53 L 320.31 229.21 L 321.4 229.88 L 322.48 230.54 L 323.57 231.18 L 324.65 231.82 L 325.74 232.43 L 326.82 233.04 L 327.91 233.63 L 329 234.2 L 330.08 234.76 L 331.17 235.3 L 332.25 235.83 L 333.34 236.34 L 334.43 236.84 L 335.51 237.32 L 336.6 237.79 L 337.68 238.24 L 338.77 238.67 L 339.85 239.08 L 340.94 239.48 L 342.03 239.86 L 343.11 240.22 L 344.2 240.57 L 345.28 240.9 L 346.37 241.21 L 347.45 241.5 L 348.54 241.77 L 349.63 242.03 L 350.71 242.26 L 351.8 242.48 L 352.88 242.68 L 353.97 242.86 L 355.06 243.03 L 356.14 243.17 L 357.23 243.3 L 358.31 243.4 L 359.4 243.49 L 360.48 243.56 L 361.57 243.61 L 362.66 243.64 L 363.74 243.65 L 364.83 243.64 L 365.91 243.61 L 367 243.57 L 368.08 243.5 L 369.17 243.42 L 370.26 243.31 L 371.34 243.19 L 372.43 243.05 L 373.51 242.89 L 374.6 242.71 L 375.69 242.52 L 376.77 242.3 L 377.86 242.07 L 378.94 241.81 L 380.03 241.54 L 381.11 241.25 L 382.2 240.95 L 383.29 240.62 L 384.37 240.28 L 385.46 239.92 L 386.54 239.54 L 387.63 239.15 L 388.72 238.73 L 389.8 238.3 L 390.89 237.86 L 391.97 237.4 L 393.06 236.92 L 394.14 236.42 L 395.23 235.91 L 396.32 235.39 L 397.4 234.84 L 398.49 234.29" fill="none" stroke="#d62728" stroke-width="1.5" stroke-linecap="square" stroke-linejoin="round"/>
</g>
<g id="line2d_5">
<path clip-path="url(#p1)" d="M 73.83 223.43 L 74.92 223.09 L 76 222.74 L 77.09 222.37 L 78.18 221.98 L 79.26 221.57 L 80.35 221.14 L 81.43 220.7 L 82.52 220.25 L 83.6 219.77 L 84.69 219.28 L 85.78 218.78 L 86.86 218.25 L 87.95 217.72 L 89.03 217.16 L 90.12 216.6 L 91.21 216.01 L 92.29 215.42 L 93.38 214.81 L 94.46 214.18 L 95.55 213.54 L 96.63 212.89 L 97.72 212.22 L 98.81 211.55 L 99.89 210.85 L 100.98 210.15 L 102.06 209.44 L 103.15 208.71 L 104.24 207.97 L 105.32 207.22 L 106.41 206.47 L 107.49 205.7 L 108.58 204.92 L 109.66 204.13 L 110.75 203.33 L 111.84 202.52 L 112.92 201.71 L 114.01 200.88 L 115.09 200.05 L 116.18 199.21 L 117.26 198.36 L 118.35 197.51 L 119.44 196.65 L 120.52 195.79 L 121.61 194.91 L 122.69 194.04 L 123.78 193.16 L 124.87 192.27 L 125.95 191.38 L 127.04 190.49 L 128.12 189.59 L 129.21 188.69 L 130.29 187.79 L 131.38 186.89 L 132.47 185.98 L 133.55 185.08 L 134.64 184.17 L 135.72 183.26 L 136.81 182.36 L 137.89 181.45 L 138.98 180.54 L 140.07 179.64 L 141.15 178.73 L 142.24 177.83 L 143.32 176.93 L 144.41 176.03 L 145.5 175.14 L 146.58 174.25 L 147.67 173.36 L 148.75 172.48 L 149.84 171.6 L 150.92 170.73 L 152.01 169.87 L 153.1 169.01 L 154.18 168.15 L 155.27 167.3 L 156.35 166.46 L 157.44 165.63 L 158.53 164.8 L 159.61 163.99 L 160.7 163.18 L 161.78 162.38 L 162.87 161.58 L 163.95 160.8 L 165.04 160.03 L 166.13 159.27 L 167.21 158.52 L 168.3 157.78 L 169.38 157.05 L 170.47 156.33 L 171.55 155.63 L 172.64 154.93 L 173.73 154.25 L 174.81 153.59 L 175.9 152.93 L 176.98 152.29 L 178.07 151.66 L 179.16 151.05 L 180.24 150.45 L 181.33 149.86 L 182.41 149.29 L 183.5 148.73 L 184.58 148.19 L 185.67 147.67 L 186.76 147.16 L 187.84 146.67 L 188.93 146.19 L 190.01 145.73 L 191.1 145.28 L 192.19 144.86 L 193.27 144.44 L 194.36 144.05 L 195.44 143.67 L 196.53 143.31 L 197.61 142.97 L 198.7 142.65 L 199.79 142.34 L 200.87 142.06 L 201.96 141.79 L 203.04 141.53 L 204.13 141.3 L 205.21 141.09 L 206.3 140.89 L 207.39 140.71 L 208.47 140.56 L 209.56 140.42 L 210.64 140.29 L 211.73 140.19 L 212.82 140.11 L 213.9 140.05 L 214.99 140 L 216.07 139.97 L 217.16 139.97 L 218.24 139.98 L 219.33 140.01 L 220.42 140.06 L 221.5 140.13 L 222.59 140.22 L 223.67 140.33 L 224.76 140.45 L 225.84 140.6 L 226.93 140.76 L 228.02 140.95 L 229.1 141.15 L 230.19 141.37 L 231.27 141.61 L 232.36 141.86 L 233.45 142.14 L 234.53 142.43 L 235.62 142.74 L 236.7 143.07 L 237.79 143.42 L 238.87 143.78 L 239.96 144.16 L 241.05 144.56 L 242.13 144.98 L 243.22 145.41 L 244.3 145.86 L 245.39 146.33 L 246.48 146.81 L 247.56 147.31 L 248.65 147.82 L 249.73 148.35 L 250.82 148.89 L 251.9 149.45 L 252.99 150.03 L 254.08 150.62 L 255.16 151.22 L 256.25 151.84 L 257.33 152.47 L 258.42 153.12 L 259.5 153.78 L 260.59 154.45 L 261.68 155.13 L 262.76 155.83 L 263.85 156.54 L 264.93 157.26 L 266.02 157.99 L 267.11 158.74 L 268.19 159.49 L 269.28 160.25 L 270.36 161.03 L 271.45 161.81 L 272.53 162.61 L 273.62 163.41 L 274.71 164.22 L 275.79 165.04 L 276.88 165.87 L 277.96 166.71 L 279.05 167.55 L 280.13 168.4 L 281.22 169.25 L 282.31 170.12 L 283.39 170.99 L 284.48 171.86 L 285.56 172.74 L 286.65 173.62 L 287.74 174.51 L 288.82 175.4 L 289.91 176.29 L 290.99 177.19 L 292.08 178.09 L 293.16 178.99 L 294.25 179.9 L 295.34 180.8 L 296.42 181.71 L 297.51 182.62 L 298.59 183.53 L 299.68 184.43 L 300.77 185.34 L 301.85 186.25 L 302.94 187.15 L 304.02 188.06 L 305.11 188.96 L 306.19 189.85 L 307.28 190.75 L 308.37 191.64 L 309.45 192.53 L 310.54 193.41 L 311.62 194.29 L 312.71 195.17 L 313.79 196.04 L 314.88 196.9 L 315.97 197.76 L 317.05 198.61 L 318.14 199.45 L 319.22 200.29 L 320.31 201.12 L 321.4 201.94 L 322.48 202.76 L 323.57 203.56 L 324.65 204.36 L 325.74 205.14 L 326.82 205.92 L 327.91 206.69 L 329 207.44 L 330.08 208.19 L 331.17 208.92 L 332.25 209.65 L 333.34 210.36 L 334.43 211.06 L 335.51 211.74 L 336.6 212.42 L 337.68 213.08 L 338.77 213.73 L 339.85 214.36 L 340.94 214.98 L 342.03 215.59 L 343.11 216.18 L 344.2 216.76 L 345.28 217.33 L 346.37 217.87 L 347.45 218.41 L 348.54 218.92 L 349.63 219.43 L 350.71 219.91 L 351.8 220.38 L 352.88 220.83 L 353.97 221.27 L 355.06 221.69 L 356.14 222.09 L 357.23 222.48 L 358.31 222.84 L 359.4 223.19 L 360.48 223.53 L 361.57 223.84 L 362.66 224.14 L 363.74 224.42 L 364.83 224.68 L 365.91 224.92 L 367 225.14 L 368.08 225.35 L 369.17 225.54 L 370.26 225.7 L 371.34 225.85 L 372.43 225.98 L 373.51 226.1 L 374.6 226.19 L 375.69 226.26 L 376.77 226.32 L 377.86 226.35 L 378.94 226.37 L 380.03 226.36 L 381.11 226.34 L 382.2 226.3 L 383.29 226.24 L 384.37 226.16 L 385.46 226.06 L 386.54 225.95 L 387.63 225.81 L 388.72 225.66 L 389.8 225.48 L 390.89 225.29 L 391.97 225.08 L 393.06 224.85 L 394.14 224.6 L 395.23 224.34 L 396.32 224.05 L 397.4 223.75 L 398.49 223.43" fill="none" stroke="#9467bd" stroke-width="1.5" stroke-linecap="square" stroke-linejoin="round"/>
</g>
<g id="line2d_6">
<path clip-path="url(#p1)" d="M 73.83 208.98 L 74.92 208.91 L 76 208.81 L 77.09 208.7 L 78.18 208.57 L 79.26 208.42 L 80.35 208.25 L 81.43 208.07 L 82.52 207.86 L 83.6 207.64 L 84.69 207.39 L 85.78 207.13 L 86.86 206.85 L 87.95 206.56 L 89.03 206.24 L 90.12 205.91 L 91.21 205.56 L 92.29 205.19 L 93.38 204.81 L 94.46 204.4 L 95.55 203.98 L 96.63 203.55 L 97.72 203.09 L 98.81 202.62 L 99.89 202.14 L 100.98 201.64 L 102.06 201.12 L 103.15 200.59 L 104.24 200.04 L 105.32 199.47 L 106.41 198.9 L 107.49 198.3 L 108.58 197.7 L 109.66 197.07 L 110.75 196.44 L 111.84 195.79 L 112.92 195.13 L 114.01 194.45 L 115.09 193.77 L 116.18 193.07 L 117.26 192.36 L 118.35 191.63 L 119.44 190.9 L 120.52 190.15 L 121.61 189.4 L 122.69 188.63 L 123.78 187.85 L 124.87 187.07 L 125.95 186.27 L 127.04 185.46 L 128.12 184.65 L 129.21 183.83 L 130.29 183 L 131.38 182.16 L 132.47 181.32 L 133.55 180.47 L 134.64 179.61 L 135.72 178.75 L 136.81 177.88 L 137.89 177 L 138.98 176.12 L 140.07 175.24 L 141.15 174.35 L 142.24 173.46 L 143.32 172.56 L 144.41 171.66 L 145.5 170.76 L 146.58 169.86 L 147.67 168.95 L 148.75 168.05 L 149.84 167.14 L 150.92 166.23 L 152.01 165.33 L 153.1 164.42 L 154.18 163.51 L 155.27 162.61 L 156.35 161.7 L 157.44 160.8 L 158.53 159.9 L 159.61 159 L 160.7 158.11 L 161.78 157.22 L 162.87 156.33 L 163.95 155.44 L 165.04 154.57 L 166.13 153.69 L 167.21 152.82 L 168.3 151.96 L 169.38 151.11 L 170.47 150.26 L 171.55 149.41 L 172.64 148.58 L 173.73 147.75 L 174.81 146.93 L 175.9 146.12 L 176.98 145.32 L 178.07 144.52 L 179.16 143.74 L 180.24 142.96 L 181.33 142.2 L 182.41 141.45 L 183.5 140.7 L 184.58 139.97 L 185.67 139.25 L 186.76 138.54 L 187.84 137.84 L 188.93 137.16 L 190.01 136.49 L 191.1 135.83 L 192.19 135.18 L 193.27 134.55 L 194.36 133.93 L 195.44 133.33 L 196.53 132.74 L 197.61 132.17 L 198.7 131.61 L 199.79 131.06 L 200.87 130.53 L 201.96 130.02 L 203.04 129.52 L 204.13 129.04 L 205.21 128.57 L 206.3 128.12 L 207.39 127.69 L 208.47 127.28 L 209.56 126.88 L 210.64 126.5 L 211.73 126.13 L 212.82 125.79 L 213.9 125.46 L 214.99 125.15 L 216.07 124.85 L 217.16 124.58 L 218.24 124.32 L 219.33 124.08 L 220.42 123.86 L 221.5 123.66 L 222.59 123.48 L 223.67 123.32 L 224.76 123.17 L 225.84 123.05 L 226.93 122.94 L 228.02 122.85 L 229.1 122.78 L 230.19 122.73 L 231.27 122.7 L 232.36 122.69 L 233.45 122.69 L 234.53 122.72 L 235.62 122.77 L 236.7 122.83 L 237.79 122.91 L 238.87 123.02 L 239.96 123.14 L 241.05 123.28 L 242.13 123.44 L 243.22 123.61 L 244.3 123.81 L 245.39 124.02 L 246.48 124.26 L 247.56 124.51 L 248.65 124.78 L 249.73 125.07 L 250.82 125.37 L 251.9 125.7 L 252.99 126.04 L 254.08 126.4 L 255.16 126.78 L 256.25 127.17 L 257.33 127.58 L 258.42 128.01 L 259.5 128.45 L 260.59 128.92 L 261.68 129.39 L 262.76 129.89 L 263.85 130.4 L 264.93 130.92 L 266.02 131.46 L 267.11 132.02 L 268.19 132.59 L 269.28 133.18 L 270.36 133.78 L 271.45 134.39 L 272.53 135.02 L 273.62 135.66 L 274.71 136.31 L 275.79 136.98 L 276.88 137.66 L 277.96 138.36 L 279.05 139.06 L 280.13 139.78 L 281.22 140.51 L 282.31 141.25 L 283.39 142 L 284.48 142.76 L 285.56 143.53 L 286.65 144.32 L 287.74 145.11 L 288.82 145.91 L 289.91 146.72 L 290.99 147.53 L 292.08 148.36 L 293.16 149.19 L 294.25 150.03 L 295.34 150.88 L 296.42 151.74 L 297.51 152.6 L 298.59 153.46 L 299.68 154.34 L 300.77 155.21 L 301.85 156.1 L 302.94 156.98 L 304.02 157.87 L 305.11 158.77 L 306.19 159.66 L 307.28 160.56 L 308.37 161.46 L 309.45 162.37 L 310.54 163.27 L 311.62 164.18 L 312.71 165.09 L 313.79 166 L 314.88 166.9 L 315.97 167.81 L 317.05 168.72 L 318.14 169.62 L 319.22 170.53 L 320.31 171.43 L 321.4 172.33 L 322.48 173.22 L 323.57 174.12 L 324.65 175.01 L 325.74 175.89 L 326.82 176.77 L 327.91 177.65 L 329 178.52 L 330.08 179.38 L 331.17 180.24 L 332.25 181.1 L 333.34 181.94 L 334.43 182.78 L 335.51 183.61 L 336.6 184.44 L 337.68 185.25 L 338.77 186.06 L 339.85 186.86 L 340.94 187.65 L 342.03 188.43 L 343.11 189.2 L 344.2 189.95 L 345.28 190.7 L 346.37 191.44 L 347.45 192.17 L 348.54 192.88 L 349.63 193.58 L 350.71 194.28 L 351.8 194.95 L 352.88 195.62 L 353.97 196.27 L 355.06 196.91 L 356.14 197.53 L 357.23 198.14 L 358.31 198.74 L 359.4 199.32 L 360.48 199.89 L 361.57 200.44 L 362.66 200.98 L 363.74 201.5 L 364.83 202.01 L 365.91 202.5 L 367 202.97 L 368.08 203.43 L 369.17 203.87 L 370.26 204.29 L 371.34 204.7 L 372.43 205.09 L 373.51 205.46 L 374.6 205.82 L 375.69 206.16 L 376.77 206.48 L 377.86 206.78 L 378.94 207.06 L 380.03 207.33 L 381.11 207.58 L 382.2 207.8 L 383.29 208.01 L 384.37 208.21 L 385.46 208.38 L 386.54 208.53 L 387.63 208.67 L 388.72 208.79 L 389.8 208.88 L 390.89 208.96 L 391.97 209.02 L 393.06 209.06 L 394.14 209.08 L 395.23 209.09 L 396.32 209.07 L 397.4 209.03 L 398.49 208.98" fill="none" stroke="#8c564b" stroke-width="1.5" stroke-linecap="square" stroke-linejoin="round"/>
</g>
<g id="line2d_7">
<path clip-path="url(#p1)" d="M 73.83 190.68 L 74.92 190.88 L 76 191.05 L 77.09 191.21 L 78.18 191.35 L 79.26 191.48 L 80.35 191.58 L 81.43 191.66 L 82.52 191.73 L 83.6 191.77 L 84.69 191.8 L 85.78 191.81 L 86.86 191.8 L 87.95 191.77 L 89.03 191.72 L 90.12 191.65 L 91.21 191.56 L 92.29 191.45 L 93.38 191.33 L 94.46 191.18 L 95.55 191.02 L 96.63 190.84 L 97.72 190.64 L 98.81 190.42 L 99.89 190.18 L 100.98 189.93 L 102.06 189.65 L 103.15 189.36 L 104.24 189.05 L 105.32 188.72 L 106.41 188.38 L 107.49 188.01 L 108.58 187.63 L 109.66 187.24 L 110.75 186.82 L 111.84 186.39 L 112.92 185.94 L 114.01 185.48 L 115.09 184.99 L 116.18 184.5 L 117.26 183.98 L 118.35 183.45 L 119.44 182.91 L 120.52 182.35 L 121.61 181.78 L 122.69 181.19 L 123.78 180.58 L 124.87 179.97 L 125.95 179.34 L 127.04 178.69 L 128.12 178.03 L 129.21 177.36 L 130.29 176.68 L 131.38 175.98 L 132.47 175.27 L 133.55 174.55 L 134.64 173.82 L 135.72 173.08 L 136.81 172.33 L 137.89 171.56 L 138.98 170.79 L 140.07 170 L 141.15 169.21 L 142.24 168.41 L 143.32 167.6 L 144.41 166.78 L 145.5 165.95 L 146.58 165.11 L 147.67 164.27 L 148.75 163.42 L 149.84 162.57 L 150.92 161.7 L 152.01 160.84 L 153.1 159.96 L 154.18 159.08 L 155.27 158.2 L 156.35 157.31 L 157.44 156.42 L 158.53 155.53 L 159.61 154.63 L 160.7 153.73 L 161.78 152.83 L 162.87 151.92 L 163.95 151.02 L 165.04 150.11 L 166.13 149.2 L 167.21 148.3 L 168.3 147.39 L 169.38 146.48 L 170.47 145.58 L 171.55 144.67 L 172.64 143.77 L 173.73 142.87 L 174.81 141.97 L 175.9 141.07 L 176.98 140.18 L 178.07 139.29 L 179.16 138.41 L 180.24 137.53 L 181.33 136.65 L 182.41 135.78 L 183.5 134.92 L 184.58 134.06 L 185.67 133.21 L 186.76 132.37 L 187.84 131.53 L 188.93 130.7 L 190.01 129.88 L 191.1 129.06 L 192.19 128.26 L 193.27 127.46 L 194.36 126.67 L 195.44 125.9 L 196.53 125.13 L 197.61 124.37 L 198.7 123.63 L 199.79 122.89 L 200.87 122.17 L 201.96 121.46 L 203.04 120.76 L 204.13 120.07 L 205.21 119.39 L 206.3 118.73 L 207.39 118.08 L 208.47 117.45 L 209.56 116.82 L 210.64 116.22 L 211.73 115.62 L 212.82 115.04 L 213.9 114.48 L 214.99 113.93 L 216.07 113.4 L 217.16 112.88 L 218.24 112.38 L 219.33 111.89 L 220.42 111.42 L 221.5 110.97 L 222.59 110.53 L 223.67 110.11 L 224.76 109.71 L 225.84 109.32 L 226.93 108.95 L 228.02 108.6 L 229.1 108.27 L 230.19 107.95 L 231.27 107.65 L 232.36 107.37 L 233.45 107.11 L 234.53 106.87 L 235.62 106.64 L 236.7 106.44 L 237.79 106.25 L 238.87 106.08 L 239.96 105.93 L 241.05 105.8 L 242.13 105.69 L 243.22 105.59 L 244.3 105.52 L 245.39 105.46 L 246.48 105.43 L 247.56 105.41 L 248.65 105.41 L 249.73 105.43 L 250.82 105.47 L 251.9 105.53 L 252.99 105.61 L 254.08 105.71 L 255.16 105.82 L 256.25 105.96 L 257.33 106.11 L 258.42 106.28 L 259.5 106.47 L 260.59 106.68 L 261.68 106.91 L 262.76 107.16 L 263.85 107.42 L 264.93 107.71 L 266.02 108.01 L 267.11 108.33 L 268.19 108.66 L 269.28 109.02 L 270.36 109.39 L 271.45 109.78 L 272.53 110.19 L 273.62 110.61 L 274.71 111.05 L 275.79 111.51 L 276.88 111.98 L 277.96 112.47 L 279.05 112.97 L 280.13 113.5 L 281.22 114.03 L 282.31 114.58 L 283.39 115.15 L 284.48 115.73 L 285.56 116.33 L 286.65 116.94 L 287.74 117.56 L 288.82 118.2 L 289.91 118.85 L 290.99 119.52 L 292.08 120.19 L 293.16 120.88 L 294.25 121.59 L 295.34 122.3 L 296.42 123.03 L 297.51 123.76 L 298.59 124.51 L 299.68 125.27 L 300.77 126.04 L 301.85 126.82 L 302.94 127.61 L 304.02 128.41 L 305.11 129.21 L 306.19 130.03 L 307.28 130.85 L 308.37 131.68 L 309.45 132.52 L 310.54 133.37 L 311.62 134.22 L 312.71 135.08 L 313.79 135.94 L 314.88 136.82 L 315.97 137.69 L 317.05 138.57 L 318.14 139.46 L 319.22 140.35 L 320.31 141.24 L 321.4 142.14 L 322.48 143.03 L 323.57 143.94 L 324.65 144.84 L 325.74 145.74 L 326.82 146.65 L 327.91 147.56 L 329 148.47 L 330.08 149.37 L 331.17 150.28 L 332.25 151.19 L 333.34 152.09 L 334.43 153 L 335.51 153.9 L 336.6 154.8 L 337.68 155.7 L 338.77 156.59 L 339.85 157.48 L 340.94 158.37 L 342.03 159.25 L 343.11 160.13 L 344.2 161 L 345.28 161.86 L 346.37 162.73 L 347.45 163.58 L 348.54 164.43 L 349.63 165.27 L 350.71 166.1 L 351.8 166.93 L 352.88 167.75 L 353.97 168.56 L 355.06 169.36 L 356.14 170.15 L 357.23 170.93 L 358.31 171.7 L 359.4 172.47 L 360.48 173.22 L 361.57 173.96 L 362.66 174.69 L 363.74 175.41 L 364.83 176.11 L 365.91 176.81 L 367 177.49 L 368.08 178.16 L 369.17 178.81 L 370.26 179.45 L 371.34 180.08 L 372.43 180.7 L 373.51 181.3 L 374.6 181.88 L 375.69 182.46 L 376.77 183.01 L 377.86 183.55 L 378.94 184.08 L 380.03 184.59 L 381.11 185.08 L 382.2 185.56 L 383.29 186.02 L 384.37 186.47 L 385.46 186.9 L 386.54 187.31 L 387.63 187.71 L 388.72 188.08 L 389.8 188.44 L 390.89 188.79 L 391.97 189.11 L 393.06 189.42 L 394.14 189.71 L 395.23 189.98 L 396.32 190.23 L 397.4 190.46 L 398.49 190.68" fill="none" stroke="#e377c2" stroke-width="1.5" stroke-linecap="square" stroke-linejoin="round"/>
</g>
<g id="line2d_8">
<path clip-path="url(#p1)" d="M 73.83 168.62 L 74.92 169.07 L 76 169.5 L 77.09 169.92 L 78.18 170.32 L 79.26 170.7 L 80.35 171.07 L 81.43 171.41 L 82.52 171.74 L 83.6 172.05 L 84.69 172.35 L 85.78 172.62 L 86.86 172.88 L 87.95 173.12 L 89.03 173.34 L 90.12 173.54 L 91.21 173.73 L 92.29 173.89 L 93.38 174.04 L 94.46 174.16 L 95.55 174.27 L 96.63 174.36 L 97.72 174.43 L 98.81 174.48 L 99.89 174.51 L 100.98 174.53 L 102.06 174.52 L 103.15 174.5 L 104.24 174.45 L 105.32 174.39 L 106.41 174.31 L 107.49 174.21 L 108.58 174.09 L 109.66 173.95 L 110.75 173.79 L 111.84 173.61 L 112.92 173.42 L 114.01 173.2 L 115.09 172.97 L 116.18 172.72 L 117.26 172.45 L 118.35 172.16 L 119.44 171.86 L 120.52 171.54 L 121.61 171.19 L 122.69 170.84 L 123.78 170.46 L 124.87 170.07 L 125.95 169.66 L 127.04 169.23 L 128.12 168.79 L 129.21 168.33 L 130.29 167.85 L 131.38 167.36 L 132.47 166.85 L 133.55 166.32 L 134.64 165.78 L 135.72 165.23 L 136.81 164.66 L 137.89 164.07 L 138.98 163.47 L 140.07 162.86 L 141.15 162.23 L 142.24 161.59 L 143.32 160.94 L 144.41 160.27 L 145.5 159.59 L 146.58 158.9 L 147.67 158.19 L 148.75 157.47 L 149.84 156.74 L 150.92 156.01 L 152.01 155.25 L 153.1 154.49 L 154.18 153.72 L 155.27 152.94 L 156.35 152.15 L 157.44 151.35 L 158.53 150.54 L 159.61 149.72 L 160.7 148.9 L 161.78 148.07 L 162.87 147.23 L 163.95 146.38 L 165.04 145.52 L 166.13 144.66 L 167.21 143.8 L 168.3 142.92 L 169.38 142.05 L 170.47 141.17 L 171.55 140.28 L 172.64 139.39 L 173.73 138.5 L 174.81 137.6 L 175.9 136.7 L 176.98 135.8 L 178.07 134.89 L 179.16 133.99 L 180.24 133.08 L 181.33 132.18 L 182.41 131.27 L 183.5 130.36 L 184.58 129.45 L 185.67 128.55 L 186.76 127.64 L 187.84 126.74 L 188.93 125.84 L 190.01 124.94 L 191.1 124.04 L 192.19 123.15 L 193.27 122.26 L 194.36 121.37 L 195.44 120.49 L 196.53 119.61 L 197.61 118.74 L 198.7 117.88 L 199.79 117.02 L 200.87 116.16 L 201.96 115.32 L 203.04 114.48 L 204.13 113.65 L 205.21 112.82 L 206.3 112.01 L 207.39 111.2 L 208.47 110.4 L 209.56 109.61 L 210.64 108.83 L 211.73 108.06 L 212.82 107.3 L 213.9 106.55 L 214.99 105.81 L 216.07 105.09 L 217.16 104.37 L 218.24 103.67 L 219.33 102.98 L 220.42 102.3 L 221.5 101.63 L 222.59 100.98 L 223.67 100.34 L 224.76 99.71 L 225.84 99.1 L 226.93 98.51 L 228.02 97.92 L 229.1 97.35 L 230.19 96.8 L 231.27 96.26 L 232.36 95.74 L 233.45 95.23 L 234.53 94.74 L 235.62 94.27 L 236.7 93.81 L 237.79 93.37 L 238.87 92.94 L 239.96 92.54 L 241.05 92.14 L 242.13 91.77 L 243.22 91.41 L 244.3 91.08 L 245.39 90.76 L 246.48 90.45 L 247.56 90.17 L 248.65 89.9 L 249.73 89.65 L 250.82 89.42 L 251.9 89.21 L 252.99 89.02 L 254.08 88.84 L 255.16 88.69 L 256.25 88.55 L 257.33 88.44 L 258.42 88.34 L 259.5 88.26 L 260.59 88.2 L 261.68 88.15 L 262.76 88.13 L 263.85 88.13 L 264.93 88.14 L 266.02 88.18 L 267.11 88.23 L 268.19 88.31 L 269.28 88.4 L 270.36 88.51 L 271.45 88.64 L 272.53 88.79 L 273.62 88.95 L 274.71 89.14 L 275.79 89.34 L 276.88 89.57 L 277.96 89.81 L 279.05 90.07 L 280.13 90.35 L 281.22 90.64 L 282.31 90.96 L 283.39 91.29 L 284.48 91.64 L 285.56 92.01 L 286.65 92.39 L 287.74 92.79 L 288.82 93.21 L 289.91 93.65 L 290.99 94.1 L 292.08 94.57 L 293.16 95.05 L 294.25 95.55 L 295.34 96.07 L 296.42 96.6 L 297.51 97.15 L 298.59 97.71 L 299.68 98.29 L 300.77 98.88 L 301.85 99.49 L 302.94 100.11 L 304.02 100.74 L 305.11 101.39 L 306.19 102.05 L 307.28 102.73 L 308.37 103.41 L 309.45 104.11 L 310.54 104.82 L 311.62 105.55 L 312.71 106.28 L 313.79 107.02 L 314.88 107.78 L 315.97 108.55 L 317.05 109.32 L 318.14 110.11 L 319.22 110.9 L 320.31 111.71 L 321.4 112.52 L 322.48 113.34 L 323.57 114.17 L 324.65 115.01 L 325.74 115.85 L 326.82 116.7 L 327.91 117.56 L 329 118.43 L 330.08 119.29 L 331.17 120.17 L 332.25 121.05 L 333.34 121.93 L 334.43 122.82 L 335.51 123.71 L 336.6 124.61 L 337.68 125.51 L 338.77 126.41 L 339.85 127.31 L 340.94 128.21 L 342.03 129.12 L 343.11 130.03 L 344.2 130.93 L 345.28 131.84 L 346.37 132.75 L 347.45 133.66 L 348.54 134.56 L 349.63 135.47 L 350.71 136.37 L 351.8 137.27 L 352.88 138.17 L 353.97 139.06 L 355.06 139.95 L 356.14 140.84 L 357.23 141.73 L 358.31 142.6 L 359.4 143.48 L 360.48 144.35 L 361.57 145.21 L 362.66 146.07 L 363.74 146.92 L 364.83 147.76 L 365.91 148.59 L 367 149.42 L 368.08 150.24 L 369.17 151.05 L 370.26 151.86 L 371.34 152.65 L 372.43 153.44 L 373.51 154.21 L 374.6 154.98 L 375.69 155.73 L 376.77 156.47 L 377.86 157.21 L 378.94 157.93 L 380.03 158.64 L 381.11 159.34 L 382.2 160.02 L 383.29 160.69 L 384.37 161.35 L 385.46 162 L 386.54 162.63 L 387.63 163.25 L 388.72 163.85 L 389.8 164.44 L 390.89 165.02 L 391.97 165.58 L 393.06 166.13 L 394.14 166.66 L 395.23 167.17 L 396.32 167.67 L 397.4 168.15 L 398.49 168.62" fill="none" stroke="#7f7f7f" stroke-width="1.5" stroke-linecap="square" stroke-linejoin="round"/>
</g>
<g id="line2d_9">
<path clip-path="url(#p1)" d="M 73.83 143.23 L 74.92 143.89 L 76 144.54 L 77.09 145.18 L 78.18 145.8 L 79.26 146.41 L 80.35 147 L 81.43 147.58 L 82.52 148.15 L 83.6 148.7 L 84.69 149.23 L 85.78 149.75 L 86.86 150.25 L 87.95 150.74 L 89.03 151.21 L 90.12 151.67 L 91.21 152.1 L 92.29 152.53 L 93.38 152.93 L 94.46 153.32 L 95.55 153.69 L 96.63 154.04 L 97.72 154.37 L 98.81 154.69 L 99.89 154.99 L 100.98 155.27 L 102.06 155.53 L 103.15 155.78 L 104.24 156 L 105.32 156.21 L 106.41 156.4 L 107.49 156.57 L 108.58 156.72 L 109.66 156.85 L 110.75 156.96 L 111.84 157.06 L 112.92 157.13 L 114.01 157.19 L 115.09 157.23 L 116.18 157.25 L 117.26 157.25 L 118.35 157.23 L 119.44 157.19 L 120.52 157.13 L 121.61 157.05 L 122.69 156.96 L 123.78 156.84 L 124.87 156.71 L 125.95 156.55 L 127.04 156.38 L 128.12 156.19 L 129.21 155.98 L 130.29 155.76 L 131.38 155.51 L 132.47 155.25 L 133.55 154.96 L 134.64 154.66 L 135.72 154.35 L 136.81 154.01 L 137.89 153.66 L 138.98 153.29 L 140.07 152.9 L 141.15 152.49 L 142.24 152.07 L 143.32 151.63 L 144.41 151.17 L 145.5 150.7 L 146.58 150.21 L 147.67 149.71 L 148.75 149.19 L 149.84 148.65 L 150.92 148.1 L 152.01 147.54 L 153.1 146.95 L 154.18 146.36 L 155.27 145.75 L 156.35 145.13 L 157.44 144.49 L 158.53 143.84 L 159.61 143.17 L 160.7 142.5 L 161.78 141.81 L 162.87 141.11 L 163.95 140.39 L 165.04 139.67 L 166.13 138.93 L 167.21 138.18 L 168.3 137.42 L 169.38 136.66 L 170.47 135.88 L 171.55 135.09 L 172.64 134.29 L 173.73 133.49 L 174.81 132.67 L 175.9 131.85 L 176.98 131.02 L 178.07 130.18 L 179.16 129.33 L 180.24 128.48 L 181.33 127.62 L 182.41 126.76 L 183.5 125.89 L 184.58 125.01 L 185.67 124.13 L 186.76 123.25 L 187.84 122.36 L 188.93 121.46 L 190.01 120.57 L 191.1 119.67 L 192.19 118.77 L 193.27 117.86 L 194.36 116.96 L 195.44 116.05 L 196.53 115.15 L 197.61 114.24 L 198.7 113.33 L 199.79 112.42 L 200.87 111.52 L 201.96 110.61 L 203.04 109.71 L 204.13 108.8 L 205.21 107.9 L 206.3 107.01 L 207.39 106.11 L 208.47 105.22 L 209.56 104.34 L 210.64 103.45 L 211.73 102.58 L 212.82 101.7 L 213.9 100.84 L 214.99 99.97 L 216.07 99.12 L 217.16 98.27 L 218.24 97.43 L 219.33 96.6 L 220.42 95.77 L 221.5 94.95 L 222.59 94.14 L 223.67 93.34 L 224.76 92.55 L 225.84 91.76 L 226.93 90.99 L 228.02 90.23 L 229.1 89.48 L 230.19 88.74 L 231.27 88.01 L 232.36 87.29 L 233.45 86.58 L 234.53 85.89 L 235.62 85.2 L 236.7 84.53 L 237.79 83.88 L 238.87 83.24 L 239.96 82.61 L 241.05 81.99 L 242.13 81.39 L 243.22 80.8 L 244.3 80.23 L 245.39 79.67 L 246.48 79.13 L 247.56 78.6 L 248.65 78.09 L 249.73 77.6 L 250.82 77.12 L 251.9 76.65 L 252.99 76.21 L 254.08 75.78 L 255.16 75.37 L 256.25 74.97 L 257.33 74.59 L 258.42 74.23 L 259.5 73.89 L 260.59 73.56 L 261.68 73.25 L 262.76 72.96 L 263.85 72.69 L 264.93 72.44 L 266.02 72.2 L 267.11 71.99 L 268.19 71.79 L 269.28 71.61 L 270.36 71.45 L 271.45 71.31 L 272.53 71.19 L 273.62 71.08 L 274.71 71 L 275.79 70.93 L 276.88 70.88 L 277.96 70.86 L 279.05 70.85 L 280.13 70.86 L 281.22 70.89 L 282.31 70.94 L 283.39 71 L 284.48 71.09 L 285.56 71.2 L 286.65 71.32 L 287.74 71.46 L 288.82 71.62 L 289.91 71.81 L 290.99 72 L 292.08 72.22 L 293.16 72.46 L 294.25 72.71 L 295.34 72.99 L 296.42 73.28 L 297.51 73.59 L 298.59 73.91 L 299.68 74.26 L 300.77 74.62 L 301.85 75 L 302.94 75.4 L 304.02 75.81 L 305.11 76.24 L 306.19 76.69 L 307.28 77.16 L 308.37 77.64 L 309.45 78.13 L 310.54 78.65 L 311.62 79.17 L 312.71 79.72 L 313.79 80.28 L 314.88 80.85 L 315.97 81.44 L 317.05 82.04 L 318.14 82.66 L 319.22 83.29 L 320.31 83.93 L 321.4 84.59 L 322.48 85.26 L 323.57 85.94 L 324.65 86.64 L 325.74 87.34 L 326.82 88.06 L 327.91 88.8 L 329 89.54 L 330.08 90.29 L 331.17 91.05 L 332.25 91.83 L 333.34 92.61 L 334.43 93.4 L 335.51 94.21 L 336.6 95.02 L 337.68 95.84 L 338.77 96.66 L 339.85 97.5 L 340.94 98.34 L 342.03 99.19 L 343.11 100.04 L 344.2 100.91 L 345.28 101.77 L 346.37 102.65 L 347.45 103.52 L 348.54 104.41 L 349.63 105.29 L 350.71 106.19 L 351.8 107.08 L 352.88 107.98 L 353.97 108.88 L 355.06 109.78 L 356.14 110.68 L 357.23 111.59 L 358.31 112.5 L 359.4 113.4 L 360.48 114.31 L 361.57 115.22 L 362.66 116.13 L 363.74 117.03 L 364.83 117.94 L 365.91 118.84 L 367 119.74 L 368.08 120.64 L 369.17 121.54 L 370.26 122.43 L 371.34 123.32 L 372.43 124.2 L 373.51 125.08 L 374.6 125.96 L 375.69 126.83 L 376.77 127.69 L 377.86 128.55 L 378.94 129.4 L 380.03 130.25 L 381.11 131.08 L 382.2 131.91 L 383.29 132.74 L 384.37 133.55 L 385.46 134.36 L 386.54 135.15 L 387.63 135.94 L 388.72 136.72 L 389.8 137.49 L 390.89 138.24 L 391.97 138.99 L 393.06 139.73 L 394.14 140.45 L 395.23 141.16 L 396.32 141.86 L 397.4 142.55 L 398.49 143.23" fill="none" stroke="#bcbd22" stroke-width="1.5" stroke-linecap="square" stroke-linejoin="round"/>
</g>
<g id="line2d_10">
<path clip-path="url(#p1)" d="M 73.83 115.23 L 74.92 116.05 L 76 116.86 L 77.09 117.65 L 78.18 118.44 L 79.26 119.22 L 80.35 120 L 81.43 120.76 L 82.52 121.51 L 83.6 122.24 L 84.69 122.97 L 85.78 123.69 L 86.86 124.39 L 87.95 125.08 L 89.03 125.76 L 90.12 126.43 L 91.21 127.08 L 92.29 127.72 L 93.38 128.35 L 94.46 128.96 L 95.55 129.56 L 96.63 130.14 L 97.72 130.71 L 98.81 131.27 L 99.89 131.8 L 100.98 132.33 L 102.06 132.84 L 103.15 133.33 L 104.24 133.8 L 105.32 134.26 L 106.41 134.7 L 107.49 135.13 L 108.58 135.54 L 109.66 135.93 L 110.75 136.31 L 111.84 136.66 L 112.92 137 L 114.01 137.32 L 115.09 137.63 L 116.18 137.91 L 117.26 138.18 L 118.35 138.43 L 119.44 138.66 L 120.52 138.87 L 121.61 139.07 L 122.69 139.24 L 123.78 139.4 L 124.87 139.54 L 125.95 139.65 L 127.04 139.75 L 128.12 139.83 L 129.21 139.9 L 130.29 139.94 L 131.38 139.96 L 132.47 139.97 L 133.55 139.95 L 134.64 139.92 L 135.72 139.87 L 136.81 139.79 L 137.89 139.7 L 138.98 139.59 L 140.07 139.47 L 141.15 139.32 L 142.24 139.15 L 143.32 138.97 L 144.41 138.76 L 145.5 138.54 L 146.58 138.3 L 147.67 138.04 L 148.75 137.76 L 149.84 137.47 L 150.92 137.16 L 152.01 136.82 L 153.1 136.48 L 154.18 136.11 L 155.27 135.73 L 156.35 135.33 L 157.44 134.91 L 158.53 134.47 L 159.61 134.02 L 160.7 133.55 L 161.78 133.07 L 162.87 132.57 L 163.95 132.05 L 165.04 131.52 L 166.13 130.98 L 167.21 130.41 L 168.3 129.84 L 169.38 129.25 L 170.47 128.64 L 171.55 128.02 L 172.64 127.39 L 173.73 126.74 L 174.81 126.08 L 175.9 125.41 L 176.98 124.72 L 178.07 124.02 L 179.16 123.31 L 180.24 122.59 L 181.33 121.85 L 182.41 121.11 L 183.5 120.36 L 184.58 119.59 L 185.67 118.81 L 186.76 118.03 L 187.84 117.23 L 188.93 116.43 L 190.01 115.62 L 191.1 114.8 L 192.19 113.97 L 193.27 113.13 L 194.36 112.29 L 195.44 111.44 L 196.53 110.58 L 197.61 109.72 L 198.7 108.85 L 199.79 107.97 L 200.87 107.09 L 201.96 106.21 L 203.04 105.32 L 204.13 104.43 L 205.21 103.54 L 206.3 102.64 L 207.39 101.74 L 208.47 100.83 L 209.56 99.93 L 210.64 99.02 L 211.73 98.12 L 212.82 97.21 L 213.9 96.3 L 214.99 95.39 L 216.07 94.49 L 217.16 93.58 L 218.24 92.68 L 219.33 91.77 L 220.42 90.87 L 221.5 89.97 L 222.59 89.08 L 223.67 88.19 L 224.76 87.3 L 225.84 86.42 L 226.93 85.54 L 228.02 84.66 L 229.1 83.79 L 230.19 82.93 L 231.27 82.08 L 232.36 81.22 L 233.45 80.38 L 234.53 79.54 L 235.62 78.72 L 236.7 77.9 L 237.79 77.08 L 238.87 76.28 L 239.96 75.48 L 241.05 74.7 L 242.13 73.92 L 243.22 73.16 L 244.3 72.4 L 245.39 71.66 L 246.48 70.93 L 247.56 70.2 L 248.65 69.49 L 249.73 68.8 L 250.82 68.11 L 251.9 67.44 L 252.99 66.78 L 254.08 66.13 L 255.16 65.5 L 256.25 64.88 L 257.33 64.27 L 258.42 63.68 L 259.5 63.11 L 260.59 62.54 L 261.68 62 L 262.76 61.47 L 263.85 60.95 L 264.93 60.45 L 266.02 59.97 L 267.11 59.5 L 268.19 59.05 L 269.28 58.62 L 270.36 58.2 L 271.45 57.8 L 272.53 57.41 L 273.62 57.05 L 274.71 56.7 L 275.79 56.37 L 276.88 56.06 L 277.96 55.76 L 279.05 55.49 L 280.13 55.23 L 281.22 54.99 L 282.31 54.77 L 283.39 54.56 L 284.48 54.38 L 285.56 54.21 L 286.65 54.07 L 287.74 53.94 L 288.82 53.83 L 289.91 53.74 L 290.99 53.67 L 292.08 53.62 L 293.16 53.58 L 294.25 53.57 L 295.34 53.57 L 296.42 53.6 L 297.51 53.64 L 298.59 53.7 L 299.68 53.78 L 300.77 53.88 L 301.85 54 L 302.94 54.14 L 304.02 54.3 L 305.11 54.47 L 306.19 54.67 L 307.28 54.88 L 308.37 55.11 L 309.45 55.36 L 310.54 55.63 L 311.62 55.92 L 312.71 56.22 L 313.79 56.54 L 314.88 56.88 L 315.97 57.24 L 317.05 57.62 L 318.14 58.01 L 319.22 58.42 L 320.31 58.84 L 321.4 59.29 L 322.48 59.75 L 323.57 60.22 L 324.65 60.71 L 325.74 61.22 L 326.82 61.75 L 327.91 62.28 L 329 62.84 L 330.08 63.41 L 331.17 63.99 L 332.25 64.59 L 333.34 65.2 L 334.43 65.83 L 335.51 66.47 L 336.6 67.13 L 337.68 67.79 L 338.77 68.47 L 339.85 69.16 L 340.94 69.87 L 342.03 70.58 L 343.11 71.31 L 344.2 72.05 L 345.28 72.8 L 346.37 73.56 L 347.45 74.33 L 348.54 75.11 L 349.63 75.9 L 350.71 76.7 L 351.8 77.51 L 352.88 78.33 L 353.97 79.15 L 355.06 79.99 L 356.14 80.83 L 357.23 81.67 L 358.31 82.53 L 359.4 83.39 L 360.48 84.25 L 361.57 85.12 L 362.66 86 L 363.74 86.88 L 364.83 87.77 L 365.91 88.66 L 367 89.55 L 368.08 90.45 L 369.17 91.35 L 370.26 92.25 L 371.34 93.15 L 372.43 94.06 L 373.51 94.97 L 374.6 95.87 L 375.69 96.78 L 376.77 97.69 L 377.86 98.6 L 378.94 99.5 L 380.03 100.41 L 381.11 101.31 L 382.2 102.21 L 383.29 103.11 L 384.37 104.01 L 385.46 104.9 L 386.54 105.79 L 387.63 106.68 L 388.72 107.56 L 389.8 108.44 L 390.89 109.31 L 391.97 110.17 L 393.06 111.03 L 394.14 111.89 L 395.23 112.73 L 396.32 113.57 L 397.4 114.41 L 398.49 115.23" fill="none" stroke="#17becf" stroke-width="1.5" stroke-linecap="square" stroke-linejoin="round"/>
</g>
<g id="spines_1">
<path d="M 57.6 307.58 L 414.72 307.58 L 414.72 41.47 L 57.6 41.47 z" fill="none" stroke="#000000" stroke-width="0.8" stroke-linecap="square" stroke-linejoin="round"/>
</g>
<g id="xtick_1">
<path d="M 73.83 307.58 L 73.83 311.08" fill="none" stroke="#000000" stroke-width="0.8" stroke-linejoin="round"/>
<text x="73.83" y="314.58" dy="0.8em" font-family="DejaVu Sans, sans-serif" font-size="10" fill="#000000" text-anchor="middle">0</text>
<path d="M 125.5 307.58 L 125.5 311.08" fill="none" stroke="#000000" stroke-width="0.8" stroke-linejoin="round"/>
<text x="125.5" y="314.58" dy="0.8em" font-family="DejaVu Sans, sans-serif" font-size="10" fill="#000000" text-anchor="middle">1</text>
<path d="M 177.17 307.58 L 177.17 311.08" fill="none" stroke="#000000" stroke-width="0.8" stroke-linejoin="round"/>
<text x="177.17" y="314.58" dy="0.8em" font-family="DejaVu Sans, sans-serif" font-size="10" fill="#000000" text-anchor="middle">2</text>
<path d="M 228.84 307.58 L 228.84 311.08" fill="none" stroke="#000000" stroke-width="0.8" stroke-linejoin="round"/>
<text x="228.84" y="314.58" dy="0.8em" font-family="DejaVu Sans, sans-serif" font-size="10" fill="#000000" text-anchor="middle">3</text>
<path d="M 280.51 307.58 L 280.51 311.08" fill="none" stroke="#000000" stroke-width="0.8" stroke-linejoin="round"/>
<text x="280.51" y="314.58" dy="0.8em" font-family="DejaVu Sans, sans-serif" font-size="10" fill="#000000" text-anchor="middle">4</text>
<path d="M 332.18 307.58 L 332.18 311.08" fill="none" stroke="#000000" stroke-width="0.8" stroke-linejoin="round"/>
<text x="332.18" y="314.58" dy="0.8em" font-family="DejaVu Sans, sans-serif" font-size="10" fill="#000000" text-anchor="middle">5</text>
<path d="M 383.85 307.58 L 383.85 311.08" fill="none" stroke="#000000" stroke-width="0.8" stroke-linejoin="round"/>
<text x="383.85" y="314.58" dy="0.8em" font-family="DejaVu Sans, sans-serif" font-size="10" fill="#000000" text-anchor="middle">6</text>
</g>
<g id="ytick_1">
<path d="M 57.6 295.49 L 54.1 295.49" fill="none" stroke="#000000" stroke-width="0.8" stroke-linejoin="round"/>
<text x="50.6" y="295.49" dy="0.35em" font-family="DejaVu Sans, sans-serif" font-size="10" fill="#000000" text-anchor="end">−1</text>
<path d="M 57.6 252.29 L 54.1 252.29" fill="none" stroke="#000000" stroke-width="0.8" stroke-linejoin="round"/>
<text x="50.6" y="252.29" dy="0.35em" font-family="DejaVu Sans, sans-serif" font-size="10" fill="#000000" text-anchor="end">0</text>
<path d="M 57.6 209.09 L 54.1 209.09" fill="none" stroke="#000000" stroke-width="0.8" stroke-linejoin="round"/>
<text x="50.6" y="209.09" dy="0.35em" font-family="DejaVu Sans, sans-serif" font-size="10" fill="#000000" text-anchor="end">1</text>
<path d="M 57.6 165.89 L 54.1 165.89" fill="none" stroke="#000000" stroke-width="0.8" stroke-linejoin="round"/>
<text x="50.6" y="165.89" dy="0.35em" font-family="DejaVu Sans, sans-serif" font-size="10" fill="#000000" text-anchor="end">2</text>
<path d="M 57.6 122.69 L 54.1 122.69" fill="none" stroke="#000000" stroke-width="0.8" stroke-linejoin="round"/>
<text x="50.6" y="122.69" dy="0.35em" font-family="DejaVu Sans, sans-serif" font-size="10" fill="#000000" text-anchor="end">3</text>
<path d="M 57.6 79.49 L 54.1 79.49" fill="none" stroke="#000000" stroke-width="0.8" stroke-linejoin="round"/>
<text x="50.6" y="79.49" dy="0.35em" font-family="DejaVu Sans, sans-serif" font-size="10" fill="#000000" text-anchor="end">4</text>
</g>
<g id="text_1">
<text x="236.16" y="35.47" dy="-0.2em" font-family="DejaVu Sans, sans-serif" font-size="12" fill="#000000" text-anchor="middle">The tab10 property cycle</text>
</g>
</g>
</g>
</svg>
