<?xml version="1.0" encoding="utf-8" standalone="no"?>
<!DOCTYPE svg PUBLIC "-//W3C//DTD SVG 1.1//EN" "http://www.w3.org/Graphics/SVG/1.1/DTD/svg11.dtd">
<svg xmlns="http://www.w3.org/2000/svg" width="460.8pt" height="345.6pt" viewBox="0 0 460.8 345.6" version="1.1">
<defs>
<clipPath id="p1"><rect x="57.6" y="41.47" width="357.12" height="266.11"/></clipPath>
</defs>
<g id="figure_1">
<path d="M 0 345.6 L 460.8 345.6 L 460.8 0 L 0 0 z" fill="#ffffff"/>
<g id="axes_1">
<path d="M 57.6 307.58 L 414.72 307.58 L 414.72 41.47 L 57.6 41.47 z" fill="#ffffff"/>
<g id="line2d_1">
<path clip-path="url(#p1)" d="M 73.83 295.49 L 77.48 276.78 L 81.13 261.46 L 84.78 251.82 L 88.42 248.4 L 92.07 249.78 L 95.72 253.18 L 99.37 255.4 L 103.02 253.96 L 106.66 247.92 L 110.31 238.26 L 113.96 227.54 L 117.61 219.03 L 121.25 215.63 L 124.9 218.82 L 128.55 228.2 L 132.2 241.55 L 135.85 255.5 L 139.49 266.7 L 143.14 272.78 L 146.79 273.18 L 150.44 269.23 L 154.08 263.65 L 157.73 259.58 L 161.38 259.46 L 165.03 264.2 L 168.68 272.76 L 172.32 282.54 L 175.97 290.16 L 179.62 292.63 L 183.27 288.31 L 186.91 277.51 L 190.56 262.32 L 194.21 246.02 L 197.86 231.95 L 201.51 222.44 L 205.15 218.08 L 208.8 217.57 L 212.45 218.21 L 216.1 216.88 L 219.74 211.13 L 223.39 200.08 L 227.04 184.77 L 230.69 167.85 L 234.34 152.78 L 237.98 142.65 L 241.63 139.21 L 245.28 142.33 L 248.93 150 L 252.58 159.07 L 256.22 166.27 L 259.87 169.3 L 263.52 167.61 L 267.17 162.49 L 270.81 156.68 L 274.46 153.31 L 278.11 154.88 L 281.76 162.29 L 285.41 174.54 L 289.05 188.95 L 292.7 202.03 L 296.35 210.62 L 300 212.83 L 303.64 208.7 L 307.29 200.09 L 310.94 190.06 L 314.59 181.8 L 318.24 177.54 L 321.88 177.8 L 325.53 181.22 L 329.18 185.04 L 332.83 186.04 L 336.47 181.66 L 340.12 170.91 L 343.77 154.74 L 347.42 135.79 L 351.07 117.53 L 354.71 103.2 L 358.36 94.73 L 362.01 92.19 L 365.66 93.82 L 369.3 96.64 L 372.95 97.54 L 376.6 94.35 L 380.25 86.59 L 383.9 75.68 L 387.54 64.44 L 391.19 56.18 L 394.84 53.57 L 398.49 57.71" fill="none" stroke="#1f77b4" stroke-width="1.5" stroke-linecap="square" stroke-linejoin="round"/>
</g>
<g id="spines_1">
<path d="M 57.6 307.58 L 414.72 307.58 L 414.72 41.47 L 57.6 41.47 z" fill="none" stroke="#000000" stroke-width="0.8" stroke-linecap="square" stroke-linejoin="round"/>
</g>
<g id="xtick_1">
<path d="M 70.18 307.58 L 70.18 311.08" fill="none" stroke="#000000" stroke-width="0.8" stroke-linejoin="round"/>
<path d="M 65.06 323.04 L 66.67 323.04 L 66.67 317.47 L 64.92 317.83 L 64.92 316.93 L 66.66 316.58 L 67.65 316.58 L 67.65 323.04 L 69.26 323.04 L 69.26 323.87 L 65.06 323.87 L 65.06 323.04 z M 71.26 316.58 L 75.14 316.58 L 75.14 317.41 L 72.17 317.41 L 72.17 319.19 Q 72.38 319.12 72.6 319.09 Q 72.81 319.05 73.03 319.05 Q 74.25 319.05 74.96 319.72 Q 75.67 320.38 75.67 321.53 Q 75.67 322.7 74.94 323.36 Q 74.21 324.01 72.88 324.01 Q 72.42 324.01 71.94 323.93 Q 71.46 323.85 70.96 323.7 L 70.96 322.7 Q 71.4 322.94 71.86 323.06 Q 72.33 323.18 72.86 323.18 Q 73.7 323.18 74.19 322.73 Q 74.69 322.29 74.69 321.53 Q 74.69 320.77 74.19 320.32 Q 73.7 319.88 72.86 319.88 Q 72.46 319.88 72.06 319.96 Q 71.67 320.05 71.26 320.24 L 71.26 316.58 z" fill="#000000"/>
<path d="M 128.55 307.58 L 128.55 311.08" fill="none" stroke="#000000" stroke-width="0.8" stroke-linejoin="round"/>
<path d="M 119.19 316.58 L 120.66 316.58 L 122.52 321.54 L 124.39 316.58 L 125.86 316.58 L 125.86 323.87 L 124.9 323.87 L 124.9 317.46 L 123.02 322.46 L 122.03 322.46 L 120.15 317.46 L 120.15 323.87 L 119.19 323.87 L 119.19 316.58 z M 130.27 321.12 Q 129.18 321.12 128.76 321.37 Q 128.34 321.62 128.34 322.22 Q 128.34 322.69 128.65 322.98 Q 128.97 323.26 129.51 323.26 Q 130.26 323.26 130.71 322.73 Q 131.16 322.2 131.16 321.32 L 131.16 321.12 L 130.27 321.12 M 132.06 320.75 L 132.06 323.87 L 131.16 323.87 L 131.16 323.04 Q 130.85 323.53 130.4 323.77 Q 129.94 324.01 129.27 324.01 Q 128.43 324.01 127.93 323.54 Q 127.44 323.07 127.44 322.27 Q 127.44 321.35 128.06 320.88 Q 128.68 320.41 129.9 320.41 L 131.16 320.41 L 131.16 320.33 Q 131.16 319.71 130.75 319.37 Q 130.35 319.03 129.61 319.03 Q 129.14 319.03 128.7 319.14 Q 128.25 319.25 127.84 319.48 L 127.84 318.65 Q 128.33 318.46 128.8 318.36 Q 129.26 318.27 129.7 318.27 Q 130.89 318.27 131.47 318.88 Q 132.06 319.5 132.06 320.75 z M 136.19 324.37 Q 135.81 325.35 135.44 325.65 Q 135.08 325.95 134.48 325.95 L 133.76 325.95 L 133.76 325.19 L 134.29 325.19 Q 134.66 325.19 134.86 325.02 Q 135.07 324.84 135.32 324.19 L 135.48 323.78 L 133.27 318.4 L 134.22 318.4 L 135.93 322.67 L 137.64 318.4 L 138.59 318.4 L 136.19 324.37 z" fill="#000000"/>
<path d="M 179.62 307.58 L 179.62 311.08" fill="none" stroke="#000000" stroke-width="0.8" stroke-linejoin="round"/>
<path d="M 174.5 323.04 L 176.11 323.04 L 176.11 317.47 L 174.36 317.83 L 174.36 316.93 L 176.1 316.58 L 177.08 316.58 L 177.08 323.04 L 178.7 323.04 L 178.7 323.87 L 174.5 323.87 L 174.5 323.04 z M 180.7 316.58 L 184.57 316.58 L 184.57 317.41 L 181.6 317.41 L 181.6 319.19 Q 181.82 319.12 182.03 319.09 Q 182.25 319.05 182.46 319.05 Q 183.68 319.05 184.39 319.72 Q 185.11 320.38 185.11 321.53 Q 185.11 322.7 184.37 323.36 Q 183.64 324.01 182.31 324.01 Q 181.85 324.01 181.37 323.93 Q 180.9 323.85 180.39 323.7 L 180.39 322.7 Q 180.83 322.94 181.3 323.06 Q 181.77 323.18 182.29 323.18 Q 183.13 323.18 183.63 322.73 Q 184.12 322.29 184.12 321.53 Q 184.12 320.77 183.63 320.32 Q 183.13 319.88 182.29 319.88 Q 181.89 319.88 181.5 319.96 Q 181.11 320.05 180.7 320.24 L 180.7 316.58 z" fill="#000000"/>
<path d="M 241.63 307.58 L 241.63 311.08" fill="none" stroke="#000000" stroke-width="0.8" stroke-linejoin="round"/>
<path d="M 234.8 316.58 L 235.79 316.58 L 235.79 323.36 Q 235.79 324.68 235.28 325.27 Q 234.79 325.87 233.68 325.87 L 233.3 325.87 L 233.3 325.04 L 233.61 325.04 Q 234.26 325.04 234.53 324.67 Q 234.8 324.31 234.8 323.36 L 234.8 316.58 z M 237.62 321.71 L 237.62 318.4 L 238.52 318.4 L 238.52 321.67 Q 238.52 322.45 238.82 322.84 Q 239.12 323.23 239.73 323.23 Q 240.45 323.23 240.87 322.76 Q 241.3 322.3 241.3 321.5 L 241.3 318.4 L 242.2 318.4 L 242.2 323.87 L 241.3 323.87 L 241.3 323.03 Q 240.97 323.52 240.54 323.77 Q 240.11 324.01 239.54 324.01 Q 238.59 324.01 238.11 323.42 Q 237.62 322.84 237.62 321.71 M 239.88 318.27 L 239.88 318.27 z M 248.59 320.57 L 248.59 323.87 L 247.7 323.87 L 247.7 320.59 Q 247.7 319.82 247.39 319.43 Q 247.09 319.05 246.49 319.05 Q 245.76 319.05 245.34 319.51 Q 244.92 319.97 244.92 320.78 L 244.92 323.87 L 244.01 323.87 L 244.01 318.4 L 244.92 318.4 L 244.92 319.25 Q 245.24 318.75 245.67 318.51 Q 246.11 318.27 246.69 318.27 Q 247.63 318.27 248.11 318.85 Q 248.59 319.43 248.59 320.57 z" fill="#000000"/>
<path d="M 292.7 307.58 L 292.7 311.08" fill="none" stroke="#000000" stroke-width="0.8" stroke-linejoin="round"/>
<path d="M 287.58 323.04 L 289.19 323.04 L 289.19 317.47 L 287.44 317.83 L 287.44 316.93 L 289.18 316.58 L 290.17 316.58 L 290.17 323.04 L 291.78 323.04 L 291.78 323.87 L 287.58 323.87 L 287.58 323.04 z M 293.78 316.58 L 297.65 316.58 L 297.65 317.41 L 294.68 317.41 L 294.68 319.19 Q 294.9 319.12 295.11 319.09 Q 295.33 319.05 295.54 319.05 Q 296.76 319.05 297.48 319.72 Q 298.19 320.38 298.19 321.53 Q 298.19 322.7 297.46 323.36 Q 296.72 324.01 295.39 324.01 Q 294.93 324.01 294.45 323.93 Q 293.98 323.85 293.47 323.7 L 293.47 322.7 Q 293.91 322.94 294.38 323.06 Q 294.85 323.18 295.37 323.18 Q 296.22 323.18 296.71 322.73 Q 297.2 322.29 297.2 321.53 Q 297.2 320.77 296.71 320.32 Q 296.22 319.88 295.37 319.88 Q 294.98 319.88 294.58 319.96 Q 294.19 320.05 293.78 320.24 L 293.78 316.58 z" fill="#000000"/>
<path d="M 351.07 307.58 L 351.07 311.08" fill="none" stroke="#000000" stroke-width="0.8" stroke-linejoin="round"/>
<path d="M 346.01 316.58 L 347 316.58 L 347 323.36 Q 347 324.68 346.5 325.27 Q 346 325.87 344.89 325.87 L 344.52 325.87 L 344.52 325.04 L 344.82 325.04 Q 345.48 325.04 345.75 324.67 Q 346.01 324.31 346.01 323.36 L 346.01 316.58 z M 348.83 321.71 L 348.83 318.4 L 349.73 318.4 L 349.73 321.67 Q 349.73 322.45 350.03 322.84 Q 350.34 323.23 350.94 323.23 Q 351.67 323.23 352.09 322.76 Q 352.51 322.3 352.51 321.5 L 352.51 318.4 L 353.41 318.4 L 353.41 323.87 L 352.51 323.87 L 352.51 323.03 Q 352.19 323.52 351.75 323.77 Q 351.32 324.01 350.75 324.01 Q 349.81 324.01 349.32 323.42 Q 348.83 322.84 348.83 321.71 M 351.09 318.27 L 351.09 318.27 z M 355.26 316.27 L 356.16 316.27 L 356.16 323.87 L 355.26 323.87 L 355.26 316.27 z" fill="#000000"/>
<path d="M 402.14 307.58 L 402.14 311.08" fill="none" stroke="#000000" stroke-width="0.8" stroke-linejoin="round"/>
<path d="M 397.01 323.04 L 398.62 323.04 L 398.62 317.47 L 396.87 317.83 L 396.87 316.93 L 398.61 316.58 L 399.6 316.58 L 399.6 323.04 L 401.21 323.04 L 401.21 323.87 L 397.01 323.87 L 397.01 323.04 z M 403.21 316.58 L 407.09 316.58 L 407.09 317.41 L 404.12 317.41 L 404.12 319.19 Q 404.33 319.12 404.55 319.09 Q 404.76 319.05 404.98 319.05 Q 406.2 319.05 406.91 319.72 Q 407.62 320.38 407.62 321.53 Q 407.62 322.7 406.89 323.36 Q 406.16 324.01 404.83 324.01 Q 404.37 324.01 403.89 323.93 Q 403.41 323.85 402.91 323.7 L 402.91 322.7 Q 403.35 322.94 403.81 323.06 Q 404.28 323.18 404.81 323.18 Q 405.65 323.18 406.14 322.73 Q 406.64 322.29 406.64 321.53 Q 406.64 320.77 406.14 320.32 Q 405.65 319.88 404.81 319.88 Q 404.41 319.88 404.01 319.96 Q 403.62 320.05 403.21 320.24 L 403.21 316.58 z" fill="#000000"/>
</g>
<g id="ytick_1">
<path d="M 57.6 295.49 L 54.1 295.49" fill="none" stroke="#000000" stroke-width="0.8" stroke-linejoin="round"/>
<path d="M 47.42 292.31 Q 46.65 292.31 46.27 293.06 Q 45.89 293.81 45.89 295.31 Q 45.89 296.81 46.27 297.56 Q 46.65 298.31 47.42 298.31 Q 48.18 298.31 48.56 297.56 Q 48.95 296.81 48.95 295.31 Q 48.95 293.81 48.56 293.06 Q 48.18 292.31 47.42 292.31 M 47.42 291.53 Q 48.64 291.53 49.29 292.5 Q 49.94 293.47 49.94 295.31 Q 49.94 297.15 49.29 298.12 Q 48.64 299.09 47.42 299.09 Q 46.19 299.09 45.54 298.12 Q 44.9 297.15 44.9 295.31 Q 44.9 293.47 45.54 292.5 Q 46.19 291.53 47.42 291.53 z" fill="#000000"/>
<path d="M 57.6 252.76 L 54.1 252.76" fill="none" stroke="#000000" stroke-width="0.8" stroke-linejoin="round"/>
<path d="M 45.48 255.39 L 47.09 255.39 L 47.09 249.83 L 45.34 250.18 L 45.34 249.28 L 47.08 248.93 L 48.07 248.93 L 48.07 255.39 L 49.68 255.39 L 49.68 256.22 L 45.48 256.22 L 45.48 255.39 z" fill="#000000"/>
<path d="M 57.6 210.03 L 54.1 210.03" fill="none" stroke="#000000" stroke-width="0.8" stroke-linejoin="round"/>
<path d="M 46.16 212.67 L 49.6 212.67 L 49.6 213.5 L 44.97 213.5 L 44.97 212.67 Q 45.53 212.09 46.5 211.11 Q 47.47 210.13 47.72 209.84 Q 48.19 209.31 48.38 208.95 Q 48.57 208.57 48.57 208.22 Q 48.57 207.64 48.16 207.27 Q 47.75 206.9 47.1 206.9 Q 46.64 206.9 46.12 207.07 Q 45.6 207.23 45.02 207.55 L 45.02 206.56 Q 45.61 206.32 46.13 206.2 Q 46.65 206.07 47.08 206.07 Q 48.21 206.07 48.89 206.64 Q 49.56 207.21 49.56 208.15 Q 49.56 208.6 49.39 209.01 Q 49.22 209.41 48.78 209.96 Q 48.66 210.1 48 210.78 Q 47.35 211.45 46.16 212.67 z" fill="#000000"/>
<path d="M 57.6 167.31 L 54.1 167.31" fill="none" stroke="#000000" stroke-width="0.8" stroke-linejoin="round"/>
<path d="M 48.3 166.84 Q 49 166.99 49.4 167.47 Q 49.8 167.95 49.8 168.65 Q 49.8 169.73 49.06 170.32 Q 48.31 170.91 46.95 170.91 Q 46.49 170.91 46 170.82 Q 45.52 170.73 45 170.55 L 45 169.6 Q 45.41 169.84 45.9 169.96 Q 46.39 170.08 46.92 170.08 Q 47.85 170.08 48.33 169.72 Q 48.82 169.35 48.82 168.65 Q 48.82 168.01 48.36 167.64 Q 47.91 167.28 47.11 167.28 L 46.26 167.28 L 46.26 166.47 L 47.15 166.47 Q 47.88 166.47 48.26 166.18 Q 48.65 165.89 48.65 165.34 Q 48.65 164.78 48.25 164.48 Q 47.85 164.18 47.11 164.18 Q 46.7 164.18 46.24 164.27 Q 45.78 164.35 45.22 164.54 L 45.22 163.66 Q 45.78 163.5 46.27 163.43 Q 46.76 163.35 47.2 163.35 Q 48.32 163.35 48.97 163.86 Q 49.63 164.37 49.63 165.24 Q 49.63 165.84 49.28 166.26 Q 48.93 166.68 48.3 166.84 z" fill="#000000"/>
<path d="M 57.6 124.58 L 54.1 124.58" fill="none" stroke="#000000" stroke-width="0.8" stroke-linejoin="round"/>
<path d="M 48.02 121.61 L 45.53 125.5 L 48.02 125.5 L 48.02 121.61 M 47.76 120.75 L 49 120.75 L 49 125.5 L 50.04 125.5 L 50.04 126.32 L 49 126.32 L 49 128.04 L 48.02 128.04 L 48.02 126.32 L 44.73 126.32 L 44.73 125.37 L 47.76 120.75 z" fill="#000000"/>
<path d="M 57.6 81.85 L 54.1 81.85" fill="none" stroke="#000000" stroke-width="0.8" stroke-linejoin="round"/>
<path d="M 45.32 78.03 L 49.19 78.03 L 49.19 78.86 L 46.22 78.86 L 46.22 80.64 Q 46.43 80.57 46.65 80.54 Q 46.86 80.5 47.08 80.5 Q 48.3 80.5 49.01 81.17 Q 49.73 81.84 49.73 82.98 Q 49.73 84.15 48.99 84.81 Q 48.26 85.46 46.93 85.46 Q 46.47 85.46 45.99 85.38 Q 45.52 85.3 45.01 85.15 L 45.01 84.15 Q 45.45 84.39 45.92 84.51 Q 46.39 84.63 46.91 84.63 Q 47.75 84.63 48.25 84.18 Q 48.74 83.74 48.74 82.98 Q 48.74 82.22 48.25 81.77 Q 47.75 81.33 46.91 81.33 Q 46.51 81.33 46.12 81.42 Q 45.73 81.5 45.32 81.69 L 45.32 78.03 z" fill="#000000"/>
</g>
<g id="legend_1">
<path d="M 62.6 66.11 L 153.09 66.11 L 153.09 46.47 L 62.6 46.47 z" fill="#ffffff" fill-opacity="0.8" stroke="#cccccc" stroke-width="1" stroke-linejoin="round"/>
<path d="M 66.6 56.29 L 86.6 56.29" fill="none" stroke="#1f77b4" stroke-width="1.5" stroke-linecap="square" stroke-linejoin="round"/>
<path d="M 99.14 55.12 L 99.14 52.16 L 100.04 52.16 L 100.04 59.75 L 99.14 59.75 L 99.14 58.93 Q 98.86 59.42 98.42 59.66 Q 97.99 59.9 97.39 59.9 Q 96.4 59.9 95.77 59.1 Q 95.15 58.31 95.15 57.02 Q 95.15 55.74 95.77 54.94 Q 96.4 54.15 97.39 54.15 Q 97.99 54.15 98.42 54.39 Q 98.86 54.63 99.14 55.12 M 96.08 57.02 Q 96.08 58.02 96.48 58.58 Q 96.89 59.14 97.61 59.14 Q 98.32 59.14 98.73 58.58 Q 99.14 58.02 99.14 57.02 Q 99.14 56.03 98.73 55.47 Q 98.32 54.91 97.61 54.91 Q 96.89 54.91 96.48 55.47 Q 96.08 56.03 96.08 57.02 z M 104.38 57.01 Q 103.29 57.01 102.87 57.25 Q 102.45 57.5 102.45 58.1 Q 102.45 58.58 102.76 58.87 Q 103.08 59.14 103.62 59.14 Q 104.37 59.14 104.81 58.62 Q 105.27 58.08 105.27 57.21 L 105.27 57.01 L 104.38 57.01 M 106.17 56.63 L 106.17 59.75 L 105.27 59.75 L 105.27 58.92 Q 104.96 59.42 104.5 59.66 Q 104.04 59.9 103.38 59.9 Q 102.54 59.9 102.04 59.43 Q 101.55 58.95 101.55 58.16 Q 101.55 57.24 102.16 56.77 Q 102.78 56.3 104.01 56.3 L 105.27 56.3 L 105.27 56.21 Q 105.27 55.59 104.86 55.26 Q 104.45 54.92 103.72 54.92 Q 103.25 54.92 102.8 55.03 Q 102.36 55.14 101.95 55.36 L 101.95 54.53 Q 102.44 54.34 102.91 54.25 Q 103.37 54.15 103.81 54.15 Q 105 54.15 105.58 54.77 Q 106.17 55.38 106.17 56.63 z M 108.02 54.29 L 108.92 54.29 L 108.92 59.75 L 108.02 59.75 L 108.02 54.29 M 108.02 52.16 L 108.92 52.16 L 108.92 53.29 L 108.02 53.29 L 108.02 52.16 z M 110.8 52.16 L 111.69 52.16 L 111.69 59.75 L 110.8 59.75 L 110.8 52.16 z M 115.85 60.26 Q 115.47 61.24 115.11 61.54 Q 114.75 61.83 114.14 61.83 L 113.42 61.83 L 113.42 61.08 L 113.95 61.08 Q 114.32 61.08 114.53 60.91 Q 114.73 60.73 114.98 60.08 L 115.14 59.67 L 112.93 54.29 L 113.88 54.29 L 115.59 58.56 L 117.3 54.29 L 118.25 54.29 L 115.85 60.26 z z M 122.67 54.29 L 123.57 54.29 L 123.57 59.75 L 122.67 59.75 L 122.67 54.29 M 122.67 52.16 L 123.57 52.16 L 123.57 53.29 L 122.67 53.29 L 122.67 52.16 z M 130 56.45 L 130 59.75 L 129.1 59.75 L 129.1 56.48 Q 129.1 55.71 128.79 55.32 Q 128.49 54.93 127.89 54.93 Q 127.16 54.93 126.74 55.4 Q 126.32 55.86 126.32 56.66 L 126.32 59.75 L 125.42 59.75 L 125.42 54.29 L 126.32 54.29 L 126.32 55.14 Q 126.64 54.64 127.08 54.4 Q 127.52 54.15 128.09 54.15 Q 129.03 54.15 129.51 54.74 Q 130 55.32 130 56.45 z M 135.39 55.12 L 135.39 52.16 L 136.28 52.16 L 136.28 59.75 L 135.39 59.75 L 135.39 58.93 Q 135.1 59.42 134.67 59.66 Q 134.24 59.9 133.63 59.9 Q 132.64 59.9 132.02 59.1 Q 131.4 58.31 131.4 57.02 Q 131.4 55.74 132.02 54.94 Q 132.64 54.15 133.63 54.15 Q 134.24 54.15 134.67 54.39 Q 135.1 54.63 135.39 55.12 M 132.32 57.02 Q 132.32 58.02 132.73 58.58 Q 133.14 59.14 133.85 59.14 Q 134.57 59.14 134.98 58.58 Q 135.39 58.02 135.39 57.02 Q 135.39 56.03 134.98 55.47 Q 134.57 54.91 133.85 54.91 Q 133.14 54.91 132.73 55.47 Q 132.32 56.03 132.32 57.02 z M 142.81 56.8 L 142.81 57.23 L 138.68 57.23 Q 138.74 58.16 139.24 58.65 Q 139.74 59.13 140.64 59.13 Q 141.15 59.13 141.64 59.01 Q 142.12 58.88 142.6 58.63 L 142.6 59.48 Q 142.12 59.68 141.61 59.79 Q 141.1 59.9 140.58 59.9 Q 139.27 59.9 138.51 59.13 Q 137.74 58.37 137.74 57.07 Q 137.74 55.73 138.47 54.94 Q 139.19 54.15 140.43 54.15 Q 141.53 54.15 142.17 54.87 Q 142.81 55.57 142.81 56.8 M 141.91 56.53 Q 141.9 55.79 141.5 55.35 Q 141.1 54.92 140.43 54.92 Q 139.68 54.92 139.23 55.34 Q 138.78 55.76 138.71 56.54 L 141.91 56.53 z M 148.66 54.29 L 146.68 56.95 L 148.76 59.75 L 147.7 59.75 L 146.11 57.61 L 144.52 59.75 L 143.46 59.75 L 145.58 56.89 L 143.64 54.29 L 144.7 54.29 L 146.15 56.23 L 147.6 54.29 L 148.66 54.29 z" fill="#000000"/>
</g>
<g id="text_1">
<path d="M 32.41 187.26 L 32.41 186.37 L 37.88 186.37 L 37.88 187.26 L 32.41 187.26 M 30.28 187.26 L 30.28 186.37 L 31.42 186.37 L 31.42 187.26 L 30.28 187.26 z M 34.58 179.94 L 37.88 179.94 L 37.88 180.84 L 34.61 180.84 Q 33.83 180.84 33.45 181.14 Q 33.06 181.44 33.06 182.05 Q 33.06 182.78 33.52 183.2 Q 33.99 183.62 34.79 183.62 L 37.88 183.62 L 37.88 184.52 L 32.41 184.52 L 32.41 183.62 L 33.26 183.62 Q 32.77 183.3 32.52 182.86 Q 32.28 182.42 32.28 181.85 Q 32.28 180.91 32.86 180.42 Q 33.45 179.94 34.58 179.94 z M 33.24 174.55 L 30.28 174.55 L 30.28 173.65 L 37.88 173.65 L 37.88 174.55 L 37.06 174.55 Q 37.55 174.83 37.79 175.27 Q 38.02 175.7 38.02 176.3 Q 38.02 177.29 37.23 177.92 Q 36.44 178.54 35.15 178.54 Q 33.86 178.54 33.07 177.92 Q 32.28 177.29 32.28 176.3 Q 32.28 175.7 32.52 175.27 Q 32.75 174.83 33.24 174.55 M 35.15 177.61 Q 36.14 177.61 36.71 177.21 Q 37.27 176.8 37.27 176.08 Q 37.27 175.37 36.71 174.96 Q 36.14 174.55 35.15 174.55 Q 34.16 174.55 33.6 174.96 Q 33.03 175.37 33.03 176.08 Q 33.03 176.8 33.6 177.21 Q 34.16 177.61 35.15 177.61 z M 34.92 167.12 L 35.36 167.12 L 35.36 171.25 Q 36.29 171.2 36.78 170.7 Q 37.26 170.19 37.26 169.3 Q 37.26 168.78 37.13 168.3 Q 37.01 167.81 36.75 167.33 L 37.6 167.33 Q 37.81 167.82 37.91 168.32 Q 38.02 168.83 38.02 169.35 Q 38.02 170.66 37.26 171.43 Q 36.5 172.19 35.2 172.19 Q 33.86 172.19 33.07 171.47 Q 32.28 170.74 32.28 169.51 Q 32.28 168.41 32.99 167.77 Q 33.7 167.12 34.92 167.12 M 34.66 168.02 Q 33.92 168.03 33.48 168.44 Q 33.04 168.84 33.04 169.5 Q 33.04 170.25 33.47 170.71 Q 33.89 171.16 34.66 171.22 L 34.66 168.02 z M 32.41 161.28 L 35.07 163.26 L 37.88 161.18 L 37.88 162.24 L 35.73 163.83 L 37.88 165.42 L 37.88 166.48 L 35.02 164.35 L 32.41 166.3 L 32.41 165.24 L 34.36 163.79 L 32.41 162.34 L 32.41 161.28 z" fill="#000000"/>
</g>
<g id="text_2">
<path d="M 206.04 24.18 L 206.04 25.34 Q 205.37 25.01 204.77 24.85 Q 204.17 24.7 203.62 24.7 Q 202.65 24.7 202.12 25.07 Q 201.6 25.45 201.6 26.14 Q 201.6 26.72 201.95 27.02 Q 202.3 27.31 203.27 27.49 L 203.99 27.64 Q 205.31 27.89 205.94 28.53 Q 206.57 29.16 206.57 30.23 Q 206.57 31.5 205.71 32.16 Q 204.87 32.81 203.22 32.81 Q 202.6 32.81 201.89 32.67 Q 201.2 32.53 200.45 32.26 L 200.45 31.04 Q 201.17 31.44 201.86 31.65 Q 202.55 31.85 203.22 31.85 Q 204.23 31.85 204.78 31.45 Q 205.33 31.05 205.33 30.32 Q 205.33 29.67 204.94 29.31 Q 204.54 28.94 203.64 28.76 L 202.92 28.62 Q 201.6 28.36 201 27.8 Q 200.41 27.23 200.41 26.23 Q 200.41 25.07 201.23 24.4 Q 202.05 23.74 203.48 23.74 Q 204.1 23.74 204.74 23.85 Q 205.37 23.96 206.04 24.18 z M 209.41 31.66 L 209.41 35.14 L 208.33 35.14 L 208.33 26.08 L 209.41 26.08 L 209.41 27.08 Q 209.75 26.49 210.27 26.21 Q 210.79 25.92 211.51 25.92 Q 212.7 25.92 213.45 26.87 Q 214.2 27.82 214.2 29.37 Q 214.2 30.91 213.45 31.86 Q 212.7 32.81 211.51 32.81 Q 210.79 32.81 210.27 32.53 Q 209.75 32.24 209.41 31.66 M 213.08 29.37 Q 213.08 28.18 212.59 27.5 Q 212.1 26.82 211.25 26.82 Q 210.39 26.82 209.9 27.5 Q 209.41 28.18 209.41 29.37 Q 209.41 30.56 209.9 31.24 Q 210.39 31.91 211.25 31.91 Q 212.1 31.91 212.59 31.24 Q 213.08 30.56 213.08 29.37 z M 219.79 27.09 Q 219.61 26.98 219.39 26.93 Q 219.18 26.88 218.92 26.88 Q 218.01 26.88 217.52 27.48 Q 217.03 28.07 217.03 29.18 L 217.03 32.64 L 215.95 32.64 L 215.95 26.08 L 217.03 26.08 L 217.03 27.1 Q 217.37 26.5 217.91 26.21 Q 218.46 25.92 219.24 25.92 Q 219.35 25.92 219.48 25.94 Q 219.62 25.95 219.78 25.98 L 219.79 27.09 z M 220.92 26.08 L 222 26.08 L 222 32.64 L 220.92 32.64 L 220.92 26.08 M 220.92 23.52 L 222 23.52 L 222 24.89 L 220.92 24.89 L 220.92 23.52 z M 229.71 28.68 L 229.71 32.64 L 228.63 32.64 L 228.63 28.72 Q 228.63 27.78 228.27 27.32 Q 227.9 26.86 227.18 26.86 Q 226.3 26.86 225.8 27.42 Q 225.3 27.97 225.3 28.93 L 225.3 32.64 L 224.21 32.64 L 224.21 26.08 L 225.3 26.08 L 225.3 27.1 Q 225.68 26.51 226.2 26.21 Q 226.73 25.92 227.42 25.92 Q 228.55 25.92 229.13 26.62 Q 229.71 27.32 229.71 28.68 z M 236.18 29.28 Q 236.18 28.11 235.69 27.47 Q 235.21 26.82 234.34 26.82 Q 233.47 26.82 232.98 27.47 Q 232.5 28.11 232.5 29.28 Q 232.5 30.45 232.98 31.1 Q 233.47 31.74 234.34 31.74 Q 235.21 31.74 235.69 31.1 Q 236.18 30.45 236.18 29.28 M 237.26 31.83 Q 237.26 33.5 236.51 34.32 Q 235.77 35.14 234.23 35.14 Q 233.66 35.14 233.16 35.06 Q 232.66 34.97 232.18 34.79 L 232.18 33.74 Q 232.66 34 233.12 34.12 Q 233.58 34.25 234.06 34.25 Q 235.12 34.25 235.65 33.7 Q 236.18 33.14 236.18 32.02 L 236.18 31.49 Q 235.84 32.07 235.32 32.35 Q 234.8 32.64 234.07 32.64 Q 232.87 32.64 232.13 31.72 Q 231.39 30.8 231.39 29.28 Q 231.39 27.76 232.13 26.84 Q 232.87 25.92 234.07 25.92 Q 234.8 25.92 235.32 26.21 Q 235.84 26.5 236.18 27.08 L 236.18 26.08 L 237.26 26.08 L 237.26 31.83 z z M 244.46 31.65 L 248.59 31.65 L 248.59 32.64 L 243.04 32.64 L 243.04 31.65 Q 243.71 30.95 244.87 29.78 Q 246.04 28.6 246.34 28.26 Q 246.91 27.62 247.13 27.18 Q 247.36 26.74 247.36 26.31 Q 247.36 25.61 246.87 25.17 Q 246.38 24.73 245.59 24.73 Q 245.04 24.73 244.42 24.93 Q 243.8 25.12 243.1 25.51 L 243.1 24.32 Q 243.81 24.03 244.43 23.88 Q 245.05 23.74 245.57 23.74 Q 246.93 23.74 247.74 24.42 Q 248.55 25.1 248.55 26.23 Q 248.55 26.77 248.34 27.26 Q 248.14 27.74 247.61 28.39 Q 247.46 28.56 246.68 29.38 Q 245.89 30.19 244.46 31.65 z M 253.61 24.67 Q 252.7 24.67 252.23 25.58 Q 251.78 26.47 251.78 28.28 Q 251.78 30.08 252.23 30.98 Q 252.7 31.87 253.61 31.87 Q 254.53 31.87 254.99 30.98 Q 255.45 30.08 255.45 28.28 Q 255.45 26.47 254.99 25.58 Q 254.53 24.67 253.61 24.67 M 253.61 23.74 Q 255.08 23.74 255.85 24.9 Q 256.63 26.06 256.63 28.28 Q 256.63 30.49 255.85 31.65 Q 255.08 32.81 253.61 32.81 Q 252.14 32.81 251.36 31.65 Q 250.59 30.49 250.59 28.28 Q 250.59 26.06 251.36 24.9 Q 252.14 23.74 253.61 23.74 z M 259.73 31.65 L 263.86 31.65 L 263.86 32.64 L 258.31 32.64 L 258.31 31.65 Q 258.98 30.95 260.14 29.78 Q 261.31 28.6 261.61 28.26 Q 262.18 27.62 262.4 27.18 Q 262.63 26.74 262.63 26.31 Q 262.63 25.61 262.13 25.17 Q 261.65 24.73 260.86 24.73 Q 260.31 24.73 259.69 24.93 Q 259.07 25.12 258.37 25.51 L 258.37 24.32 Q 259.08 24.03 259.7 23.88 Q 260.32 23.74 260.84 23.74 Q 262.2 23.74 263.01 24.42 Q 263.82 25.1 263.82 26.23 Q 263.82 26.77 263.61 27.26 Q 263.41 27.74 262.88 28.39 Q 262.73 28.56 261.95 29.38 Q 261.16 30.19 259.73 31.65 z M 269.03 27.8 Q 268.23 27.8 267.76 28.34 Q 267.3 28.89 267.3 29.84 Q 267.3 30.78 267.76 31.33 Q 268.23 31.87 269.03 31.87 Q 269.82 31.87 270.29 31.33 Q 270.75 30.78 270.75 29.84 Q 270.75 28.89 270.29 28.34 Q 269.82 27.8 269.03 27.8 M 271.37 24.09 L 271.37 25.17 Q 270.93 24.95 270.47 24.84 Q 270.02 24.73 269.58 24.73 Q 268.4 24.73 267.78 25.52 Q 267.17 26.31 267.08 27.91 Q 267.43 27.4 267.95 27.13 Q 268.47 26.86 269.1 26.86 Q 270.41 26.86 271.18 27.66 Q 271.94 28.46 271.94 29.84 Q 271.94 31.18 271.15 32 Q 270.35 32.81 269.03 32.81 Q 267.51 32.81 266.7 31.65 Q 265.9 30.49 265.9 28.28 Q 265.9 26.2 266.89 24.97 Q 267.87 23.74 269.53 23.74 Q 269.97 23.74 270.43 23.82 Q 270.88 23.91 271.37 24.09 z" fill="#000000"/>
</g>
<path d="M 374.96 334.68 L 378.4 334.68 L 378.4 335.51 L 373.77 335.51 L 373.77 334.68 Q 374.33 334.1 375.3 333.12 Q 376.27 332.14 376.52 331.85 Q 377 331.32 377.18 330.96 Q 377.37 330.58 377.37 330.23 Q 377.37 329.65 376.96 329.28 Q 376.56 328.92 375.9 328.92 Q 375.44 328.92 374.92 329.08 Q 374.41 329.24 373.82 329.56 L 373.82 328.57 Q 374.42 328.33 374.93 328.21 Q 375.45 328.08 375.88 328.08 Q 377.01 328.08 377.69 328.65 Q 378.36 329.22 378.36 330.17 Q 378.36 330.61 378.19 331.02 Q 378.03 331.42 377.58 331.97 Q 377.46 332.11 376.8 332.79 Q 376.15 333.46 374.96 334.68 z M 382.58 328.87 Q 381.82 328.87 381.43 329.62 Q 381.05 330.37 381.05 331.87 Q 381.05 333.37 381.43 334.12 Q 381.82 334.87 382.58 334.87 Q 383.35 334.87 383.73 334.12 Q 384.11 333.37 384.11 331.87 Q 384.11 330.37 383.73 329.62 Q 383.35 328.87 382.58 328.87 M 382.58 328.08 Q 383.81 328.08 384.45 329.06 Q 385.1 330.02 385.1 331.87 Q 385.1 333.71 384.45 334.68 Q 383.81 335.65 382.58 335.65 Q 381.36 335.65 380.71 334.68 Q 380.06 333.71 380.06 331.87 Q 380.06 330.02 380.71 329.06 Q 381.36 328.08 382.58 328.08 z M 387.68 334.68 L 391.13 334.68 L 391.13 335.51 L 386.5 335.51 L 386.5 334.68 Q 387.06 334.1 388.03 333.12 Q 389 332.14 389.25 331.85 Q 389.72 331.32 389.91 330.96 Q 390.1 330.58 390.1 330.23 Q 390.1 329.65 389.69 329.28 Q 389.28 328.92 388.63 328.92 Q 388.16 328.92 387.64 329.08 Q 387.13 329.24 386.55 329.56 L 386.55 328.57 Q 387.14 328.33 387.66 328.21 Q 388.18 328.08 388.61 328.08 Q 389.74 328.08 390.41 328.65 Q 391.09 329.22 391.09 330.17 Q 391.09 330.61 390.92 331.02 Q 390.75 331.42 390.31 331.97 Q 390.18 332.11 389.53 332.79 Q 388.88 333.46 387.68 334.68 z M 395.43 331.47 Q 394.76 331.47 394.37 331.92 Q 393.99 332.38 393.99 333.17 Q 393.99 333.95 394.37 334.41 Q 394.76 334.87 395.43 334.87 Q 396.09 334.87 396.48 334.41 Q 396.87 333.95 396.87 333.17 Q 396.87 332.38 396.48 331.92 Q 396.09 331.47 395.43 331.47 M 397.39 328.38 L 397.39 329.28 Q 397.01 329.1 396.63 329.01 Q 396.26 328.92 395.89 328.92 Q 394.91 328.92 394.39 329.57 Q 393.88 330.23 393.81 331.57 Q 394.1 331.14 394.53 330.92 Q 394.96 330.69 395.49 330.69 Q 396.59 330.69 397.22 331.36 Q 397.86 332.02 397.86 333.17 Q 397.86 334.29 397.2 334.97 Q 396.53 335.65 395.43 335.65 Q 394.16 335.65 393.49 334.68 Q 392.83 333.71 392.83 331.87 Q 392.83 330.14 393.65 329.12 Q 394.47 328.08 395.85 328.08 Q 396.22 328.08 396.6 328.16 Q 396.98 328.23 397.39 328.38 z M 398.98 332.37 L 401.61 332.37 L 401.61 333.17 L 398.98 333.17 L 398.98 332.37 z M 403.64 328.22 L 404.62 328.22 L 404.62 335 Q 404.62 336.32 404.12 336.91 Q 403.62 337.51 402.51 337.51 L 402.14 337.51 L 402.14 336.68 L 402.44 336.68 Q 403.1 336.68 403.37 336.31 Q 403.64 335.95 403.64 335 L 403.64 328.22 z M 406.45 333.35 L 406.45 330.04 L 407.35 330.04 L 407.35 333.31 Q 407.35 334.09 407.65 334.48 Q 407.96 334.87 408.56 334.87 Q 409.29 334.87 409.71 334.4 Q 410.14 333.94 410.14 333.14 L 410.14 330.04 L 411.03 330.04 L 411.03 335.51 L 410.14 335.51 L 410.14 334.67 Q 409.81 335.17 409.37 335.41 Q 408.94 335.65 408.37 335.65 Q 407.43 335.65 406.94 335.06 Q 406.45 334.48 406.45 333.35 M 408.71 329.91 L 408.71 329.91 z M 412.88 327.91 L 413.78 327.91 L 413.78 335.51 L 412.88 335.51 L 412.88 327.91 z" fill="#000000"/>
</g>
</g>
</svg>
