<?xml version="1.0" encoding="utf-8" standalone="no"?>
<!DOCTYPE svg PUBLIC "-//W3C//DTD SVG 1.1//EN" "http://www.w3.org/Graphics/SVG/1.1/DTD/svg11.dtd">
<svg xmlns="http://www.w3.org/2000/svg" width="460.8pt" height="345.6pt" viewBox="0 0 460.8 345.6" version="1.1">
<defs>
<clipPath id="p1"><rect x="57.6" y="41.47" width="357.12" height="266.11"/></clipPath>
<path id="m1" d="M 0 3 C 0.8 3 1.56 2.68 2.12 2.12 C 2.68 1.56 3 0.8 3 0 C 3 -0.8 2.68 -1.56 2.12 -2.12 C 1.56 -2.68 0.8 -3 0 -3 C -0.8 -3 -1.56 -2.68 -2.12 -2.12 C -2.68 -1.56 -3 -0.8 -3 0 C -3 0.8 -2.68 1.56 -2.12 2.12 C -1.56 2.68 -0.8 3 0 3 z"/>
<path id="m2" d="M 0 -3 L -3 3 L 3 3 z"/>
<path id="m3" d="M -3 3 L 3 3 L 3 -3 L -3 -3 z"/>
<path id="m4" d="M 0 4.24 L 4.24 0 L 0 -4.24 L -4.24 0 z"/>
<path id="m5" d="M 0 -3 L -0.67 -0.93 L -2.85 -0.93 L -1.09 0.35 L -1.76 2.43 L 0 1.15 L 1.76 2.43 L 1.09 0.35 L 2.85 -0.93 L 0.67 -0.93 z"/>
</defs>
<g id="figure_1">
<path d="M 0 345.6 L 460.8 345.6 L 460.8 0 L 0 0 z" fill="#ffffff"/>
<g id="axes_1">
<path d="M 57.6 307.58 L 414.72 307.58 L 414.72 41.47 L 57.6 41.47 z" fill="#ffffff"/>
<g id="line2d_1">
<path clip-path="url(#p1)" d="M 73.83 295.49 L 109.91 286.53 L 145.98 277.57 L 182.05 268.61 L 218.12 259.65 L 254.2 250.69 L 290.27 241.73 L 326.34 232.77 L 362.41 223.81 L 398.49 214.85" fill="none" stroke="#ff0000" stroke-width="1.5" stroke-dasharray="5.55,2.4" stroke-linejoin="round"/>
<g clip-path="url(#p1)" fill="#ff0000" stroke="#ff0000" stroke-width="1" stroke-linejoin="round">
<use href="#m1" x="73.83" y="295.49"/>
<use href="#m1" x="109.91" y="286.53"/>
<use href="#m1" x="145.98" y="277.57"/>
<use href="#m1" x="182.05" y="268.61"/>
<use href="#m1" x="218.12" y="259.65"/>
<use href="#m1" x="254.2" y="250.69"/>
<use href="#m1" x="290.27" y="241.73"/>
<use href="#m1" x="326.34" y="232.77"/>
<use href="#m1" x="362.41" y="223.81"/>
<use href="#m1" x="398.49" y="214.85"/>
</g>
</g>
<g id="line2d_2">
<g clip-path="url(#p1)" fill="#008000" stroke="#008000" stroke-width="1" stroke-linejoin="round">
<use href="#m2" x="73.83" y="259.65"/>
<use href="#m2" x="109.91" y="250.69"/>
<use href="#m2" x="145.98" y="241.73"/>
<use href="#m2" x="182.05" y="232.77"/>
<use href="#m2" x="218.12" y="223.81"/>
<use href="#m2" x="254.2" y="214.85"/>
<use href="#m2" x="290.27" y="205.89"/>
<use href="#m2" x="326.34" y="196.93"/>
<use href="#m2" x="362.41" y="187.97"/>
<use href="#m2" x="398.49" y="179.01"/>
</g>
</g>
<g id="line2d_3">
<path clip-path="url(#p1)" d="M 73.83 223.81 L 109.91 214.85 L 145.98 205.89 L 182.05 196.93 L 218.12 187.97 L 254.2 179.01 L 290.27 170.05 L 326.34 161.09 L 362.41 152.13 L 398.49 143.17" fill="none" stroke="#9467bd" stroke-width="1.5" stroke-linecap="square" stroke-linejoin="round"/>
<g clip-path="url(#p1)" fill="#9467bd" stroke="#9467bd" stroke-width="1" stroke-linejoin="round">
<use href="#m3" x="73.83" y="223.81"/>
<use href="#m3" x="109.91" y="214.85"/>
<use href="#m3" x="145.98" y="205.89"/>
<use href="#m3" x="182.05" y="196.93"/>
<use href="#m3" x="218.12" y="187.97"/>
<use href="#m3" x="254.2" y="179.01"/>
<use href="#m3" x="290.27" y="170.05"/>
<use href="#m3" x="326.34" y="161.09"/>
<use href="#m3" x="362.41" y="152.13"/>
<use href="#m3" x="398.49" y="143.17"/>
</g>
</g>
<g id="line2d_4">
<path clip-path="url(#p1)" d="M 73.83 187.97 L 109.91 179.01 L 145.98 170.05 L 182.05 161.09 L 218.12 152.13 L 254.2 143.17 L 290.27 134.21 L 326.34 125.25 L 362.41 116.29 L 398.49 107.33" fill="none" stroke="#000000" stroke-width="1.5" stroke-dasharray="1.5,2.475" stroke-linejoin="round"/>
<g clip-path="url(#p1)" fill="#000000" stroke="#000000" stroke-width="1" stroke-linejoin="round">
<use href="#m4" x="73.83" y="187.97"/>
<use href="#m4" x="109.91" y="179.01"/>
<use href="#m4" x="145.98" y="170.05"/>
<use href="#m4" x="182.05" y="161.09"/>
<use href="#m4" x="218.12" y="152.13"/>
<use href="#m4" x="254.2" y="143.17"/>
<use href="#m4" x="290.27" y="134.21"/>
<use href="#m4" x="326.34" y="125.25"/>
<use href="#m4" x="362.41" y="116.29"/>
<use href="#m4" x="398.49" y="107.33"/>
</g>
</g>
<g id="line2d_5">
<path clip-path="url(#p1)" d="M 73.83 134.21 L 109.91 125.25 L 145.98 116.29 L 182.05 107.33 L 218.12 98.37 L 254.2 89.41 L 290.27 80.45 L 326.34 71.49 L 362.41 62.53 L 398.49 53.57" fill="none" stroke="#0000ff" stroke-width="1.5" stroke-linecap="square" stroke-linejoin="round"/>
<g clip-path="url(#p1)" fill="#0000ff" stroke="#0000ff" stroke-width="1" stroke-linejoin="round">
<use href="#m5" x="73.83" y="134.21"/>
<use href="#m5" x="109.91" y="125.25"/>
<use href="#m5" x="145.98" y="116.29"/>
<use href="#m5" x="182.05" y="107.33"/>
<use href="#m5" x="218.12" y="98.37"/>
<use href="#m5" x="254.2" y="89.41"/>
<use href="#m5" x="290.27" y="80.45"/>
<use href="#m5" x="326.34" y="71.49"/>
<use href="#m5" x="362.41" y="62.53"/>
<use href="#m5" x="398.49" y="53.57"/>
</g>
</g>
<g id="spines_1">
<path d="M 57.6 307.58 L 414.72 307.58 L 414.72 41.47 L 57.6 41.47 z" fill="none" stroke="#000000" stroke-width="0.8" stroke-linecap="square" stroke-linejoin="round"/>
</g>
<g id="xtick_1">
<path d="M 73.83 307.58 L 73.83 311.08" fill="none" stroke="#000000" stroke-width="0.8" stroke-linejoin="round"/>
<path d="M 73.83 317.23 Q 73.07 317.23 72.68 317.98 Q 72.3 318.72 72.3 320.23 Q 72.3 321.73 72.68 322.48 Q 73.07 323.23 73.83 323.23 Q 74.6 323.23 74.98 322.48 Q 75.36 321.73 75.36 320.23 Q 75.36 318.72 74.98 317.98 Q 74.6 317.23 73.83 317.23 M 73.83 316.44 Q 75.06 316.44 75.7 317.42 Q 76.35 318.38 76.35 320.23 Q 76.35 322.07 75.7 323.04 Q 75.06 324.01 73.83 324.01 Q 72.6 324.01 71.96 323.04 Q 71.31 322.07 71.31 320.23 Q 71.31 318.38 71.96 317.42 Q 72.6 316.44 73.83 316.44 z" fill="#000000"/>
<path d="M 145.98 307.58 L 145.98 311.08" fill="none" stroke="#000000" stroke-width="0.8" stroke-linejoin="round"/>
<path d="M 144.72 323.04 L 148.16 323.04 L 148.16 323.87 L 143.53 323.87 L 143.53 323.04 Q 144.09 322.46 145.06 321.48 Q 146.03 320.5 146.28 320.21 Q 146.75 319.68 146.94 319.32 Q 147.13 318.94 147.13 318.59 Q 147.13 318.01 146.72 317.64 Q 146.31 317.27 145.66 317.27 Q 145.19 317.27 144.68 317.44 Q 144.16 317.6 143.58 317.92 L 143.58 316.93 Q 144.17 316.69 144.69 316.57 Q 145.21 316.44 145.64 316.44 Q 146.77 316.44 147.45 317.01 Q 148.12 317.58 148.12 318.52 Q 148.12 318.97 147.95 319.38 Q 147.78 319.78 147.34 320.33 Q 147.22 320.47 146.56 321.15 Q 145.91 321.82 144.72 323.04 z" fill="#000000"/>
<path d="M 218.12 307.58 L 218.12 311.08" fill="none" stroke="#000000" stroke-width="0.8" stroke-linejoin="round"/>
<path d="M 218.72 317.44 L 216.23 321.33 L 218.72 321.33 L 218.72 317.44 M 218.46 316.58 L 219.7 316.58 L 219.7 321.33 L 220.74 321.33 L 220.74 322.15 L 219.7 322.15 L 219.7 323.87 L 218.72 323.87 L 218.72 322.15 L 215.43 322.15 L 215.43 321.2 L 218.46 316.58 z" fill="#000000"/>
<path d="M 290.27 307.58 L 290.27 311.08" fill="none" stroke="#000000" stroke-width="0.8" stroke-linejoin="round"/>
<path d="M 290.39 319.83 Q 289.72 319.83 289.33 320.28 Q 288.95 320.74 288.95 321.53 Q 288.95 322.31 289.33 322.77 Q 289.72 323.23 290.39 323.23 Q 291.05 323.23 291.44 322.77 Q 291.83 322.31 291.83 321.53 Q 291.83 320.74 291.44 320.28 Q 291.05 319.83 290.39 319.83 M 292.35 316.74 L 292.35 317.64 Q 291.98 317.46 291.59 317.37 Q 291.22 317.27 290.85 317.27 Q 289.87 317.27 289.35 317.93 Q 288.84 318.59 288.77 319.93 Q 289.06 319.5 289.49 319.28 Q 289.92 319.05 290.45 319.05 Q 291.55 319.05 292.18 319.72 Q 292.82 320.38 292.82 321.53 Q 292.82 322.65 292.16 323.33 Q 291.49 324.01 290.39 324.01 Q 289.12 324.01 288.46 323.04 Q 287.79 322.07 287.79 320.23 Q 287.79 318.5 288.61 317.47 Q 289.43 316.44 290.81 316.44 Q 291.18 316.44 291.56 316.52 Q 291.94 316.59 292.35 316.74 z" fill="#000000"/>
<path d="M 362.41 307.58 L 362.41 311.08" fill="none" stroke="#000000" stroke-width="0.8" stroke-linejoin="round"/>
<path d="M 362.41 320.4 Q 361.71 320.4 361.3 320.78 Q 360.9 321.16 360.9 321.82 Q 360.9 322.47 361.3 322.85 Q 361.71 323.23 362.41 323.23 Q 363.12 323.23 363.52 322.85 Q 363.93 322.47 363.93 321.82 Q 363.93 321.16 363.52 320.78 Q 363.12 320.4 362.41 320.4 M 361.43 319.98 Q 360.79 319.83 360.43 319.39 Q 360.08 318.96 360.08 318.33 Q 360.08 317.46 360.7 316.95 Q 361.33 316.44 362.41 316.44 Q 363.5 316.44 364.12 316.95 Q 364.74 317.46 364.74 318.33 Q 364.74 318.96 364.38 319.39 Q 364.03 319.83 363.4 319.98 Q 364.12 320.15 364.51 320.63 Q 364.91 321.12 364.91 321.82 Q 364.91 322.88 364.26 323.44 Q 363.62 324.01 362.41 324.01 Q 361.21 324.01 360.56 323.44 Q 359.91 322.88 359.91 321.82 Q 359.91 321.12 360.31 320.63 Q 360.71 320.15 361.43 319.98 M 361.06 318.43 Q 361.06 318.99 361.42 319.31 Q 361.77 319.63 362.41 319.63 Q 363.05 319.63 363.4 319.31 Q 363.76 318.99 363.76 318.43 Q 363.76 317.86 363.4 317.54 Q 363.05 317.23 362.41 317.23 Q 361.77 317.23 361.42 317.54 Q 361.06 317.86 361.06 318.43 z" fill="#000000"/>
</g>
<g id="ytick_1">
<path d="M 57.6 295.49 L 54.1 295.49" fill="none" stroke="#000000" stroke-width="0.8" stroke-linejoin="round"/>
<path d="M 47.42 292.31 Q 46.65 292.31 46.27 293.06 Q 45.89 293.81 45.89 295.31 Q 45.89 296.81 46.27 297.56 Q 46.65 298.31 47.42 298.31 Q 48.18 298.31 48.56 297.56 Q 48.95 296.81 48.95 295.31 Q 48.95 293.81 48.56 293.06 Q 48.18 292.31 47.42 292.31 M 47.42 291.53 Q 48.64 291.53 49.29 292.5 Q 49.94 293.47 49.94 295.31 Q 49.94 297.15 49.29 298.12 Q 48.64 299.09 47.42 299.09 Q 46.19 299.09 45.54 298.12 Q 44.9 297.15 44.9 295.31 Q 44.9 293.47 45.54 292.5 Q 46.19 291.53 47.42 291.53 z" fill="#000000"/>
<path d="M 57.6 259.65 L 54.1 259.65" fill="none" stroke="#000000" stroke-width="0.8" stroke-linejoin="round"/>
<path d="M 46.16 262.28 L 49.6 262.28 L 49.6 263.11 L 44.97 263.11 L 44.97 262.28 Q 45.53 261.7 46.5 260.72 Q 47.47 259.74 47.72 259.46 Q 48.19 258.93 48.38 258.56 Q 48.57 258.19 48.57 257.83 Q 48.57 257.25 48.16 256.88 Q 47.75 256.52 47.1 256.52 Q 46.64 256.52 46.12 256.68 Q 45.6 256.84 45.02 257.17 L 45.02 256.17 Q 45.61 255.93 46.13 255.81 Q 46.65 255.69 47.08 255.69 Q 48.21 255.69 48.89 256.25 Q 49.56 256.82 49.56 257.77 Q 49.56 258.22 49.39 258.62 Q 49.22 259.02 48.78 259.57 Q 48.66 259.71 48 260.39 Q 47.35 261.06 46.16 262.28 z" fill="#000000"/>
<path d="M 57.6 223.81 L 54.1 223.81" fill="none" stroke="#000000" stroke-width="0.8" stroke-linejoin="round"/>
<path d="M 48.02 220.84 L 45.53 224.73 L 48.02 224.73 L 48.02 220.84 M 47.76 219.98 L 49 219.98 L 49 224.73 L 50.04 224.73 L 50.04 225.55 L 49 225.55 L 49 227.27 L 48.02 227.27 L 48.02 225.55 L 44.73 225.55 L 44.73 224.6 L 47.76 219.98 z" fill="#000000"/>
<path d="M 57.6 187.97 L 54.1 187.97" fill="none" stroke="#000000" stroke-width="0.8" stroke-linejoin="round"/>
<path d="M 47.54 187.39 Q 46.87 187.39 46.48 187.85 Q 46.1 188.3 46.1 189.09 Q 46.1 189.88 46.48 190.34 Q 46.87 190.79 47.54 190.79 Q 48.2 190.79 48.59 190.34 Q 48.98 189.88 48.98 189.09 Q 48.98 188.3 48.59 187.85 Q 48.2 187.39 47.54 187.39 M 49.5 184.3 L 49.5 185.2 Q 49.13 185.02 48.74 184.93 Q 48.37 184.84 48 184.84 Q 47.02 184.84 46.5 185.5 Q 45.99 186.16 45.92 187.49 Q 46.21 187.06 46.64 186.84 Q 47.07 186.61 47.6 186.61 Q 48.7 186.61 49.33 187.28 Q 49.97 187.94 49.97 189.09 Q 49.97 190.21 49.31 190.89 Q 48.64 191.57 47.54 191.57 Q 46.27 191.57 45.6 190.6 Q 44.94 189.63 44.94 187.79 Q 44.94 186.06 45.76 185.04 Q 46.58 184.01 47.96 184.01 Q 48.33 184.01 48.71 184.08 Q 49.09 184.15 49.5 184.3 z" fill="#000000"/>
<path d="M 57.6 152.13 L 54.1 152.13" fill="none" stroke="#000000" stroke-width="0.8" stroke-linejoin="round"/>
<path d="M 47.42 152.13 Q 46.71 152.13 46.31 152.5 Q 45.91 152.88 45.91 153.54 Q 45.91 154.2 46.31 154.57 Q 46.71 154.95 47.42 154.95 Q 48.12 154.95 48.52 154.57 Q 48.93 154.19 48.93 153.54 Q 48.93 152.88 48.52 152.5 Q 48.12 152.13 47.42 152.13 M 46.43 151.71 Q 45.8 151.55 45.44 151.12 Q 45.09 150.68 45.09 150.06 Q 45.09 149.18 45.71 148.68 Q 46.33 148.17 47.42 148.17 Q 48.51 148.17 49.13 148.68 Q 49.75 149.18 49.75 150.06 Q 49.75 150.68 49.39 151.12 Q 49.04 151.55 48.41 151.71 Q 49.12 151.87 49.52 152.36 Q 49.92 152.84 49.92 153.54 Q 49.92 154.6 49.27 155.17 Q 48.62 155.73 47.42 155.73 Q 46.21 155.73 45.56 155.17 Q 44.92 154.6 44.92 153.54 Q 44.92 152.84 45.32 152.36 Q 45.72 151.87 46.43 151.71 M 46.07 150.15 Q 46.07 150.72 46.42 151.03 Q 46.78 151.35 47.42 151.35 Q 48.05 151.35 48.41 151.03 Q 48.77 150.72 48.77 150.15 Q 48.77 149.58 48.41 149.27 Q 48.05 148.95 47.42 148.95 Q 46.78 148.95 46.42 149.27 Q 46.07 149.58 46.07 150.15 z" fill="#000000"/>
<path d="M 57.6 116.29 L 54.1 116.29" fill="none" stroke="#000000" stroke-width="0.8" stroke-linejoin="round"/>
<path d="M 39.12 118.92 L 40.73 118.92 L 40.73 113.36 L 38.97 113.71 L 38.97 112.81 L 40.72 112.46 L 41.7 112.46 L 41.7 118.92 L 43.31 118.92 L 43.31 119.75 L 39.12 119.75 L 39.12 118.92 z M 47.42 113.11 Q 46.65 113.11 46.27 113.86 Q 45.89 114.61 45.89 116.11 Q 45.89 117.61 46.27 118.36 Q 46.65 119.11 47.42 119.11 Q 48.18 119.11 48.56 118.36 Q 48.95 117.61 48.95 116.11 Q 48.95 114.61 48.56 113.86 Q 48.18 113.11 47.42 113.11 M 47.42 112.33 Q 48.64 112.33 49.29 113.3 Q 49.94 114.27 49.94 116.11 Q 49.94 117.95 49.29 118.92 Q 48.64 119.89 47.42 119.89 Q 46.19 119.89 45.54 118.92 Q 44.9 117.95 44.9 116.11 Q 44.9 114.27 45.54 113.3 Q 46.19 112.33 47.42 112.33 z" fill="#000000"/>
<path d="M 57.6 80.45 L 54.1 80.45" fill="none" stroke="#000000" stroke-width="0.8" stroke-linejoin="round"/>
<path d="M 39.12 83.08 L 40.73 83.08 L 40.73 77.52 L 38.97 77.87 L 38.97 76.97 L 40.72 76.62 L 41.7 76.62 L 41.7 83.08 L 43.31 83.08 L 43.31 83.91 L 39.12 83.91 L 39.12 83.08 z M 46.16 83.08 L 49.6 83.08 L 49.6 83.91 L 44.97 83.91 L 44.97 83.08 Q 45.53 82.5 46.5 81.52 Q 47.47 80.54 47.72 80.26 Q 48.19 79.73 48.38 79.36 Q 48.57 78.99 48.57 78.63 Q 48.57 78.05 48.16 77.68 Q 47.75 77.32 47.1 77.32 Q 46.64 77.32 46.12 77.48 Q 45.6 77.64 45.02 77.97 L 45.02 76.97 Q 45.61 76.73 46.13 76.61 Q 46.65 76.49 47.08 76.49 Q 48.21 76.49 48.89 77.05 Q 49.56 77.62 49.56 78.57 Q 49.56 79.02 49.39 79.42 Q 49.22 79.82 48.78 80.37 Q 48.66 80.51 48 81.19 Q 47.35 81.86 46.16 83.08 z" fill="#000000"/>
<path d="M 57.6 44.61 L 54.1 44.61" fill="none" stroke="#000000" stroke-width="0.8" stroke-linejoin="round"/>
<path d="M 39.12 47.24 L 40.73 47.24 L 40.73 41.68 L 38.97 42.03 L 38.97 41.13 L 40.72 40.78 L 41.7 40.78 L 41.7 47.24 L 43.31 47.24 L 43.31 48.07 L 39.12 48.07 L 39.12 47.24 z M 48.02 41.64 L 45.53 45.53 L 48.02 45.53 L 48.02 41.64 M 47.76 40.78 L 49 40.78 L 49 45.53 L 50.04 45.53 L 50.04 46.35 L 49 46.35 L 49 48.07 L 48.02 48.07 L 48.02 46.35 L 44.73 46.35 L 44.73 45.4 L 47.76 40.78 z" fill="#000000"/>
</g>
<g id="text_1">
<path d="M 95.73 23.89 L 100.76 23.89 L 100.76 24.89 L 96.92 24.89 L 96.92 27.47 L 100.39 27.47 L 100.39 28.46 L 96.92 28.46 L 96.92 32.64 L 95.73 32.64 L 95.73 23.89 z M 104.7 26.84 Q 103.84 26.84 103.33 27.51 Q 102.83 28.19 102.83 29.37 Q 102.83 30.54 103.33 31.22 Q 103.83 31.9 104.7 31.9 Q 105.57 31.9 106.07 31.22 Q 106.57 30.54 106.57 29.37 Q 106.57 28.2 106.07 27.52 Q 105.57 26.84 104.7 26.84 M 104.7 25.92 Q 106.11 25.92 106.91 26.84 Q 107.72 27.75 107.72 29.37 Q 107.72 30.98 106.91 31.9 Q 106.11 32.81 104.7 32.81 Q 103.29 32.81 102.49 31.9 Q 101.69 30.98 101.69 29.37 Q 101.69 27.75 102.49 26.84 Q 103.29 25.92 104.7 25.92 z M 113.31 27.09 Q 113.12 26.98 112.91 26.93 Q 112.7 26.88 112.44 26.88 Q 111.53 26.88 111.03 27.48 Q 110.55 28.07 110.55 29.18 L 110.55 32.64 L 109.46 32.64 L 109.46 26.08 L 110.55 26.08 L 110.55 27.1 Q 110.89 26.5 111.43 26.21 Q 111.98 25.92 112.76 25.92 Q 112.87 25.92 113 25.94 Q 113.14 25.95 113.3 25.98 L 113.31 27.09 z M 119.34 27.34 Q 119.74 26.61 120.3 26.27 Q 120.87 25.92 121.63 25.92 Q 122.65 25.92 123.21 26.64 Q 123.77 27.36 123.77 28.68 L 123.77 32.64 L 122.68 32.64 L 122.68 28.72 Q 122.68 27.77 122.35 27.32 Q 122.01 26.86 121.33 26.86 Q 120.49 26.86 120 27.42 Q 119.52 27.97 119.52 28.93 L 119.52 32.64 L 118.43 32.64 L 118.43 28.72 Q 118.43 27.77 118.1 27.32 Q 117.77 26.86 117.07 26.86 Q 116.24 26.86 115.76 27.42 Q 115.27 27.98 115.27 28.93 L 115.27 32.64 L 114.19 32.64 L 114.19 26.08 L 115.27 26.08 L 115.27 27.1 Q 115.64 26.5 116.15 26.21 Q 116.67 25.92 117.38 25.92 Q 118.09 25.92 118.59 26.28 Q 119.1 26.65 119.34 27.34 z M 128.9 29.34 Q 127.59 29.34 127.09 29.64 Q 126.58 29.94 126.58 30.66 Q 126.58 31.24 126.96 31.58 Q 127.34 31.91 127.99 31.91 Q 128.89 31.91 129.43 31.28 Q 129.97 30.64 129.97 29.58 L 129.97 29.34 L 128.9 29.34 M 131.05 28.9 L 131.05 32.64 L 129.97 32.64 L 129.97 31.65 Q 129.6 32.24 129.05 32.53 Q 128.5 32.81 127.7 32.81 Q 126.7 32.81 126.1 32.25 Q 125.51 31.68 125.51 30.73 Q 125.51 29.62 126.24 29.06 Q 126.99 28.5 128.46 28.5 L 129.97 28.5 L 129.97 28.39 Q 129.97 27.65 129.48 27.25 Q 128.99 26.84 128.11 26.84 Q 127.54 26.84 127.01 26.97 Q 126.48 27.1 125.99 27.37 L 125.99 26.38 Q 126.58 26.15 127.13 26.04 Q 127.69 25.92 128.22 25.92 Q 129.64 25.92 130.35 26.66 Q 131.05 27.4 131.05 28.9 z M 134.34 24.22 L 134.34 26.08 L 136.56 26.08 L 136.56 26.92 L 134.34 26.92 L 134.34 30.48 Q 134.34 31.28 134.55 31.51 Q 134.78 31.74 135.45 31.74 L 136.56 31.74 L 136.56 32.64 L 135.45 32.64 Q 134.2 32.64 133.73 32.18 Q 133.25 31.71 133.25 30.48 L 133.25 26.92 L 132.46 26.92 L 132.46 26.08 L 133.25 26.08 L 133.25 24.22 L 134.34 24.22 z z M 145.97 26.27 L 145.97 27.29 Q 145.52 27.06 145.02 26.94 Q 144.53 26.82 144 26.82 Q 143.2 26.82 142.8 27.07 Q 142.4 27.32 142.4 27.81 Q 142.4 28.18 142.69 28.4 Q 142.97 28.61 143.84 28.8 L 144.21 28.89 Q 145.36 29.13 145.84 29.58 Q 146.32 30.03 146.32 30.83 Q 146.32 31.75 145.6 32.28 Q 144.88 32.81 143.61 32.81 Q 143.08 32.81 142.51 32.71 Q 141.94 32.61 141.31 32.4 L 141.31 31.29 Q 141.91 31.6 142.49 31.76 Q 143.07 31.91 143.63 31.91 Q 144.4 31.91 144.81 31.65 Q 145.22 31.39 145.22 30.91 Q 145.22 30.47 144.92 30.24 Q 144.62 30.01 143.62 29.79 L 143.25 29.7 Q 142.25 29.49 141.8 29.06 Q 141.36 28.62 141.36 27.85 Q 141.36 26.93 142.01 26.43 Q 142.67 25.92 143.87 25.92 Q 144.47 25.92 145 26.01 Q 145.53 26.1 145.97 26.27 z M 149.11 24.22 L 149.11 26.08 L 151.33 26.08 L 151.33 26.92 L 149.11 26.92 L 149.11 30.48 Q 149.11 31.28 149.32 31.51 Q 149.55 31.74 150.22 31.74 L 151.33 31.74 L 151.33 32.64 L 150.22 32.64 Q 148.97 32.64 148.5 32.18 Q 148.02 31.71 148.02 30.48 L 148.02 26.92 L 147.23 26.92 L 147.23 26.08 L 148.02 26.08 L 148.02 24.22 L 149.11 24.22 z M 156.55 27.09 Q 156.37 26.98 156.15 26.93 Q 155.94 26.88 155.68 26.88 Q 154.77 26.88 154.28 27.48 Q 153.79 28.07 153.79 29.18 L 153.79 32.64 L 152.7 32.64 L 152.7 26.08 L 153.79 26.08 L 153.79 27.1 Q 154.13 26.5 154.67 26.21 Q 155.22 25.92 156 25.92 Q 156.11 25.92 156.24 25.94 Q 156.38 25.95 156.54 25.98 L 156.55 27.09 z M 157.68 26.08 L 158.76 26.08 L 158.76 32.64 L 157.68 32.64 L 157.68 26.08 M 157.68 23.52 L 158.76 23.52 L 158.76 24.89 L 157.68 24.89 L 157.68 23.52 z M 166.47 28.68 L 166.47 32.64 L 165.39 32.64 L 165.39 28.72 Q 165.39 27.78 165.03 27.32 Q 164.66 26.86 163.94 26.86 Q 163.06 26.86 162.56 27.42 Q 162.06 27.97 162.06 28.93 L 162.06 32.64 L 160.97 32.64 L 160.97 26.08 L 162.06 26.08 L 162.06 27.1 Q 162.44 26.51 162.96 26.21 Q 163.49 25.92 164.18 25.92 Q 165.31 25.92 165.89 26.62 Q 166.47 27.32 166.47 28.68 z M 172.94 29.28 Q 172.94 28.11 172.45 27.47 Q 171.97 26.82 171.1 26.82 Q 170.23 26.82 169.74 27.47 Q 169.26 28.11 169.26 29.28 Q 169.26 30.45 169.74 31.1 Q 170.23 31.74 171.1 31.74 Q 171.97 31.74 172.45 31.1 Q 172.94 30.45 172.94 29.28 M 174.02 31.83 Q 174.02 33.5 173.27 34.32 Q 172.53 35.14 170.99 35.14 Q 170.42 35.14 169.92 35.06 Q 169.42 34.97 168.94 34.79 L 168.94 33.74 Q 169.42 34 169.88 34.12 Q 170.34 34.25 170.82 34.25 Q 171.88 34.25 172.41 33.7 Q 172.94 33.14 172.94 32.02 L 172.94 31.49 Q 172.6 32.07 172.08 32.35 Q 171.56 32.64 170.83 32.64 Q 169.63 32.64 168.89 31.72 Q 168.15 30.8 168.15 29.28 Q 168.15 27.76 168.89 26.84 Q 169.63 25.92 170.83 25.92 Q 171.56 25.92 172.08 26.21 Q 172.6 26.5 172.94 27.08 L 172.94 26.08 L 174.02 26.08 L 174.02 31.83 z M 180.42 26.27 L 180.42 27.29 Q 179.96 27.06 179.47 26.94 Q 178.98 26.82 178.45 26.82 Q 177.65 26.82 177.24 27.07 Q 176.85 27.32 176.85 27.81 Q 176.85 28.18 177.13 28.4 Q 177.42 28.61 178.29 28.8 L 178.66 28.89 Q 179.8 29.13 180.29 29.58 Q 180.77 30.03 180.77 30.83 Q 180.77 31.75 180.04 32.28 Q 179.32 32.81 178.06 32.81 Q 177.53 32.81 176.96 32.71 Q 176.39 32.61 175.76 32.4 L 175.76 31.29 Q 176.35 31.6 176.93 31.76 Q 177.51 31.91 178.08 31.91 Q 178.84 31.91 179.25 31.65 Q 179.66 31.39 179.66 30.91 Q 179.66 30.47 179.37 30.24 Q 179.07 30.01 178.07 29.79 L 177.7 29.7 Q 176.69 29.49 176.25 29.06 Q 175.8 28.62 175.8 27.85 Q 175.8 26.93 176.46 26.43 Q 177.12 25.92 178.32 25.92 Q 178.92 25.92 179.45 26.01 Q 179.97 26.1 180.42 26.27 z M 182.76 31.15 L 184 31.15 L 184 32.64 L 182.76 32.64 L 182.76 31.15 M 182.76 26.44 L 184 26.44 L 184 27.93 L 182.76 27.93 L 182.76 26.44 z z M 191.37 23.89 L 191.37 27.15 L 190.37 27.15 L 190.37 23.89 L 191.37 23.89 M 193.58 23.89 L 193.58 27.15 L 192.58 27.15 L 192.58 23.89 L 193.58 23.89 z M 199.67 27.09 Q 199.49 26.98 199.27 26.93 Q 199.06 26.88 198.8 26.88 Q 197.89 26.88 197.39 27.48 Q 196.91 28.07 196.91 29.18 L 196.91 32.64 L 195.82 32.64 L 195.82 26.08 L 196.91 26.08 L 196.91 27.1 Q 197.25 26.5 197.79 26.21 Q 198.34 25.92 199.12 25.92 Q 199.23 25.92 199.36 25.94 Q 199.5 25.95 199.66 25.98 L 199.67 27.09 z M 199.49 28.87 L 202.64 28.87 L 202.64 29.84 L 199.49 29.84 L 199.49 28.87 z M 203.82 28.87 L 206.97 28.87 L 206.97 29.84 L 203.82 29.84 L 203.82 28.87 z M 211.46 26.84 Q 210.59 26.84 210.09 27.51 Q 209.58 28.19 209.58 29.37 Q 209.58 30.54 210.08 31.22 Q 210.58 31.9 211.46 31.9 Q 212.32 31.9 212.82 31.22 Q 213.33 30.54 213.33 29.37 Q 213.33 28.2 212.82 27.52 Q 212.32 26.84 211.46 26.84 M 211.46 25.92 Q 212.86 25.92 213.67 26.84 Q 214.47 27.75 214.47 29.37 Q 214.47 30.98 213.67 31.9 Q 212.86 32.81 211.46 32.81 Q 210.04 32.81 209.24 31.9 Q 208.45 30.98 208.45 29.37 Q 208.45 27.75 209.24 26.84 Q 210.04 25.92 211.46 25.92 z M 217.28 23.89 L 217.28 27.15 L 216.28 27.15 L 216.28 23.89 L 217.28 23.89 M 219.49 23.89 L 219.49 27.15 L 218.49 27.15 L 218.49 23.89 L 219.49 23.89 z M 222.05 31.15 L 223.29 31.15 L 223.29 32.16 L 222.33 34.04 L 221.57 34.04 L 222.05 32.16 L 222.05 31.15 z z M 230.42 23.89 L 230.42 27.15 L 229.43 27.15 L 229.43 23.89 L 230.42 23.89 M 232.64 23.89 L 232.64 27.15 L 231.64 27.15 L 231.64 23.89 L 232.64 23.89 z M 239.24 29.28 Q 239.24 28.11 238.76 27.47 Q 238.28 26.82 237.4 26.82 Q 236.54 26.82 236.05 27.47 Q 235.57 28.11 235.57 29.28 Q 235.57 30.45 236.05 31.1 Q 236.54 31.74 237.4 31.74 Q 238.28 31.74 238.76 31.1 Q 239.24 30.45 239.24 29.28 M 240.32 31.83 Q 240.32 33.5 239.58 34.32 Q 238.83 35.14 237.3 35.14 Q 236.73 35.14 236.22 35.06 Q 235.72 34.97 235.25 34.79 L 235.25 33.74 Q 235.72 34 236.18 34.12 Q 236.65 34.25 237.13 34.25 Q 238.19 34.25 238.71 33.7 Q 239.24 33.14 239.24 32.02 L 239.24 31.49 Q 238.91 32.07 238.39 32.35 Q 237.87 32.64 237.14 32.64 Q 235.93 32.64 235.19 31.72 Q 234.45 30.8 234.45 29.28 Q 234.45 27.76 235.19 26.84 Q 235.93 25.92 237.14 25.92 Q 237.87 25.92 238.39 26.21 Q 238.91 26.5 239.24 27.08 L 239.24 26.08 L 240.32 26.08 L 240.32 31.83 z M 247.01 23.89 L 250.19 27.16 L 249.02 27.16 L 246.44 24.84 L 243.86 27.16 L 242.68 27.16 L 245.86 23.89 L 247.01 23.89 z M 253.62 23.89 L 253.62 27.15 L 252.62 27.15 L 252.62 23.89 L 253.62 23.89 M 255.83 23.89 L 255.83 27.15 L 254.83 27.15 L 254.83 23.89 L 255.83 23.89 z M 258.39 31.15 L 259.63 31.15 L 259.63 32.16 L 258.67 34.04 L 257.91 34.04 L 258.39 32.16 L 258.39 31.15 z z M 266.76 23.89 L 266.76 27.15 L 265.77 27.15 L 265.77 23.89 L 266.76 23.89 M 268.98 23.89 L 268.98 27.15 L 267.98 27.15 L 267.98 23.89 L 268.98 23.89 z M 277.86 24.57 L 277.86 25.82 Q 277.26 25.26 276.58 24.98 Q 275.91 24.71 275.15 24.71 Q 273.65 24.71 272.85 25.63 Q 272.05 26.54 272.05 28.28 Q 272.05 30.01 272.85 30.93 Q 273.65 31.84 275.15 31.84 Q 275.91 31.84 276.58 31.56 Q 277.26 31.29 277.86 30.73 L 277.86 31.97 Q 277.24 32.39 276.54 32.6 Q 275.85 32.81 275.08 32.81 Q 273.09 32.81 271.95 31.6 Q 270.81 30.38 270.81 28.28 Q 270.81 26.17 271.95 24.95 Q 273.09 23.74 275.08 23.74 Q 275.86 23.74 276.55 23.95 Q 277.25 24.15 277.86 24.57 z M 283.05 24.93 L 280.06 29.6 L 283.05 29.6 L 283.05 24.93 M 282.74 23.89 L 284.22 23.89 L 284.22 29.6 L 285.47 29.6 L 285.47 30.58 L 284.22 30.58 L 284.22 32.64 L 283.05 32.64 L 283.05 30.58 L 279.1 30.58 L 279.1 29.44 L 282.74 23.89 z M 291.46 26.27 L 291.46 27.29 Q 291 27.06 290.51 26.94 Q 290.02 26.82 289.49 26.82 Q 288.69 26.82 288.29 27.07 Q 287.89 27.32 287.89 27.81 Q 287.89 28.18 288.17 28.4 Q 288.46 28.61 289.33 28.8 L 289.7 28.89 Q 290.85 29.13 291.33 29.58 Q 291.81 30.03 291.81 30.83 Q 291.81 31.75 291.09 32.28 Q 290.37 32.81 289.1 32.81 Q 288.57 32.81 288 32.71 Q 287.43 32.61 286.8 32.4 L 286.8 31.29 Q 287.39 31.6 287.97 31.76 Q 288.55 31.91 289.12 31.91 Q 289.88 31.91 290.29 31.65 Q 290.7 31.39 290.7 30.91 Q 290.7 30.47 290.41 30.24 Q 290.11 30.01 289.11 29.79 L 288.74 29.7 Q 287.73 29.49 287.29 29.06 Q 286.84 28.62 286.84 27.85 Q 286.84 26.93 287.5 26.43 Q 288.16 25.92 289.36 25.92 Q 289.96 25.92 290.49 26.01 Q 291.02 26.1 291.46 26.27 z M 292.98 28.87 L 296.14 28.87 L 296.14 29.84 L 292.98 29.84 L 292.98 28.87 z M 298.88 23.89 L 298.88 27.15 L 297.88 27.15 L 297.88 23.89 L 298.88 23.89 M 301.09 23.89 L 301.09 27.15 L 300.1 27.15 L 300.1 23.89 L 301.09 23.89 z M 303.65 31.15 L 304.89 31.15 L 304.89 32.16 L 303.93 34.04 L 303.17 34.04 L 303.65 32.16 L 303.65 31.15 z z M 312.03 23.89 L 312.03 27.15 L 311.03 27.15 L 311.03 23.89 L 312.03 23.89 M 314.24 23.89 L 314.24 27.15 L 313.25 27.15 L 313.25 23.89 L 314.24 23.89 z M 316.49 23.52 L 317.57 23.52 L 317.57 28.91 L 320.79 26.08 L 322.16 26.08 L 318.68 29.15 L 322.31 32.64 L 320.9 32.64 L 317.57 29.44 L 317.57 32.64 L 316.49 32.64 L 316.49 23.52 z M 323.75 31.15 L 324.99 31.15 L 324.99 32.64 L 323.75 32.64 L 323.75 31.15 M 323.75 26.44 L 324.99 26.44 L 324.99 27.93 L 323.75 27.93 L 323.75 26.44 z M 328.75 24.87 L 328.75 31.67 L 330.18 31.67 Q 331.99 31.67 332.83 30.85 Q 333.67 30.03 333.67 28.26 Q 333.67 26.5 332.83 25.69 Q 331.99 24.87 330.18 24.87 L 328.75 24.87 M 327.57 23.89 L 330 23.89 Q 332.54 23.89 333.73 24.95 Q 334.92 26.01 334.92 28.26 Q 334.92 30.52 333.72 31.58 Q 332.53 32.64 330 32.64 L 327.57 32.64 L 327.57 23.89 z M 337.78 23.89 L 337.78 27.15 L 336.78 27.15 L 336.78 23.89 L 337.78 23.89 M 339.99 23.89 L 339.99 27.15 L 339 27.15 L 339 23.89 L 339.99 23.89 z M 342.55 31.15 L 343.79 31.15 L 343.79 32.16 L 342.83 34.04 L 342.07 34.04 L 342.55 32.16 L 342.55 31.15 z z M 350.93 23.89 L 350.93 27.15 L 349.93 27.15 L 349.93 23.89 L 350.93 23.89 M 353.14 23.89 L 353.14 27.15 L 352.15 27.15 L 352.15 23.89 L 353.14 23.89 z M 360.14 29.37 Q 360.14 28.18 359.65 27.5 Q 359.16 26.82 358.3 26.82 Q 357.45 26.82 356.96 27.5 Q 356.47 28.18 356.47 29.37 Q 356.47 30.56 356.96 31.24 Q 357.45 31.91 358.3 31.91 Q 359.16 31.91 359.65 31.24 Q 360.14 30.56 360.14 29.37 M 356.47 27.08 Q 356.81 26.49 357.33 26.21 Q 357.85 25.92 358.57 25.92 Q 359.76 25.92 360.51 26.87 Q 361.26 27.82 361.26 29.37 Q 361.26 30.91 360.51 31.86 Q 359.76 32.81 358.57 32.81 Q 357.85 32.81 357.33 32.53 Q 356.81 32.24 356.47 31.66 L 356.47 32.64 L 355.39 32.64 L 355.39 23.52 L 356.47 23.52 L 356.47 27.08 z M 367.56 25.34 L 365.45 26.47 L 367.56 27.61 L 367.22 28.19 L 365.25 27 L 365.25 29.21 L 364.58 29.21 L 364.58 27 L 362.61 28.19 L 362.27 27.61 L 364.37 26.47 L 362.27 25.34 L 362.61 24.76 L 364.58 25.94 L 364.58 23.74 L 365.25 23.74 L 365.25 25.94 L 367.22 24.76 L 367.56 25.34 z M 368.5 28.87 L 371.66 28.87 L 371.66 29.84 L 368.5 29.84 L 368.5 28.87 z M 374.39 23.89 L 374.39 27.15 L 373.4 27.15 L 373.4 23.89 L 374.39 23.89 M 376.61 23.89 L 376.61 27.15 L 375.61 27.15 L 375.61 23.89 L 376.61 23.89 z" fill="#000000"/>
</g>
</g>
</g>
</svg>
