<?xml version="1.0" encoding="utf-8" standalone="no"?>
<!DOCTYPE svg PUBLIC "-//W3C//DTD SVG 1.1//EN" "http://www.w3.org/Graphics/SVG/1.1/DTD/svg11.dtd">
<svg xmlns="http://www.w3.org/2000/svg" width="460.8pt" height="345.6pt" viewBox="0 0 460.8 345.6" version="1.1">
<defs>
<clipPath id="p1"><rect x="57.6" y="41.47" width="357.12" height="266.11"/></clipPath>
</defs>
<g id="figure_1">
<path d="M 0 345.6 L 460.8 345.6 L 460.8 0 L 0 0 z" fill="#ffffff"/>
<g id="axes_1">
<path d="M 57.6 307.58 L 414.72 307.58 L 414.72 41.47 L 57.6 41.47 z" fill="#ffffff"/>
<g id="grid_1">
<path d="M 73.83 307.58 L 73.83 41.47" fill="none" stroke="#b0b0b0" stroke-width="0.8" stroke-linejoin="round"/>
<path d="M 125.5 307.58 L 125.5 41.47" fill="none" stroke="#b0b0b0" stroke-width="0.8" stroke-linejoin="round"/>
<path d="M 177.17 307.58 L 177.17 41.47" fill="none" stroke="#b0b0b0" stroke-width="0.8" stroke-linejoin="round"/>
<path d="M 228.84 307.58 L 228.84 41.47" fill="none" stroke="#b0b0b0" stroke-width="0.8" stroke-linejoin="round"/>
<path d="M 280.51 307.58 L 280.51 41.47" fill="none" stroke="#b0b0b0" stroke-width="0.8" stroke-linejoin="round"/>
<path d="M 332.18 307.58 L 332.18 41.47" fill="none" stroke="#b0b0b0" stroke-width="0.8" stroke-linejoin="round"/>
<path d="M 383.85 307.58 L 383.85 41.47" fill="none" stroke="#b0b0b0" stroke-width="0.8" stroke-linejoin="round"/>
<path d="M 57.6 295.49 L 414.72 295.49" fill="none" stroke="#b0b0b0" stroke-width="0.8" stroke-linejoin="round"/>
<path d="M 57.6 265.25 L 414.72 265.25" fill="none" stroke="#b0b0b0" stroke-width="0.8" stroke-linejoin="round"/>
<path d="M 57.6 235.01 L 414.72 235.01" fill="none" stroke="#b0b0b0" stroke-width="0.8" stroke-linejoin="round"/>
<path d="M 57.6 204.77 L 414.72 204.77" fill="none" stroke="#b0b0b0" stroke-width="0.8" stroke-linejoin="round"/>
<path d="M 57.6 174.53 L 414.72 174.53" fill="none" stroke="#b0b0b0" stroke-width="0.8" stroke-linejoin="round"/>
<path d="M 57.6 144.29 L 414.72 144.29" fill="none" stroke="#b0b0b0" stroke-width="0.8" stroke-linejoin="round"/>
<path d="M 57.6 114.05 L 414.72 114.05" fill="none" stroke="#b0b0b0" stroke-width="0.8" stroke-linejoin="round"/>
<path d="M 57.6 83.81 L 414.72 83.81" fill="none" stroke="#b0b0b0" stroke-width="0.8" stroke-linejoin="round"/>
<path d="M 57.6 53.57 L 414.72 53.57" fill="none" stroke="#b0b0b0" stroke-width="0.8" stroke-linejoin="round"/>
</g>
<g id="line2d_1">
<path clip-path="url(#p1)" d="M 73.83 174.53 L 85.25 148.01 L 91.78 133.36 L 96.67 122.79 L 101.57 112.68 L 106.46 103.12 L 111.36 94.21 L 114.62 88.66 L 117.88 83.45 L 121.14 78.61 L 124.41 74.15 L 127.67 70.09 L 130.93 66.45 L 134.2 63.24 L 137.46 60.47 L 140.72 58.15 L 143.98 56.3 L 147.25 54.93 L 148.88 54.41 L 150.51 54.02 L 152.14 53.75 L 153.77 53.6 L 155.4 53.57 L 157.04 53.66 L 158.67 53.87 L 160.3 54.2 L 161.93 54.66 L 163.56 55.23 L 166.82 56.72 L 170.09 58.69 L 173.35 61.12 L 176.61 64 L 179.88 67.32 L 183.14 71.07 L 186.4 75.23 L 189.66 79.79 L 192.93 84.72 L 196.19 90.02 L 199.45 95.65 L 204.35 104.67 L 209.24 114.32 L 214.14 124.52 L 219.03 135.16 L 225.56 149.88 L 235.34 172.62 L 248.4 202.91 L 254.92 217.49 L 259.82 227.99 L 264.71 238.02 L 269.6 247.47 L 274.5 256.27 L 277.76 261.73 L 281.02 266.85 L 284.29 271.6 L 287.55 275.96 L 290.81 279.92 L 294.08 283.45 L 297.34 286.56 L 300.6 289.21 L 303.86 291.41 L 307.13 293.14 L 310.39 294.4 L 312.02 294.86 L 313.65 295.19 L 315.28 295.4 L 316.92 295.49 L 318.55 295.46 L 320.18 295.31 L 321.81 295.04 L 323.44 294.64 L 325.07 294.13 L 328.34 292.76 L 331.6 290.9 L 334.86 288.59 L 338.12 285.82 L 341.39 282.61 L 344.65 278.97 L 347.91 274.91 L 351.18 270.45 L 354.44 265.6 L 357.7 260.4 L 360.96 254.85 L 364.23 248.98 L 369.12 239.63 L 374.02 229.7 L 378.91 219.27 L 385.44 204.76 L 393.59 185.97 L 398.49 174.53 L 398.49 174.53" fill="none" stroke="#1f77b4" stroke-width="2" stroke-linecap="square" stroke-linejoin="round"/>
</g>
<g id="line2d_2">
<path clip-path="url(#p1)" d="M 73.83 53.57 L 75.46 53.63 L 77.1 53.81 L 78.73 54.11 L 80.36 54.53 L 81.99 55.07 L 85.25 56.51 L 88.52 58.42 L 91.78 60.79 L 95.04 63.62 L 98.3 66.88 L 101.57 70.58 L 104.83 74.69 L 108.09 79.2 L 111.36 84.09 L 114.62 89.34 L 117.88 94.92 L 122.78 103.89 L 127.67 113.5 L 132.56 123.65 L 137.46 134.26 L 143.98 148.94 L 153.77 171.67 L 166.82 201.98 L 173.35 216.6 L 178.24 227.14 L 183.14 237.2 L 188.03 246.71 L 192.93 255.56 L 196.19 261.07 L 199.45 266.23 L 202.72 271.03 L 205.98 275.44 L 209.24 279.44 L 212.5 283.03 L 215.77 286.19 L 219.03 288.91 L 222.29 291.16 L 225.56 292.95 L 228.82 294.27 L 230.45 294.75 L 232.08 295.12 L 233.71 295.36 L 235.34 295.48 L 236.98 295.48 L 238.61 295.36 L 240.24 295.12 L 241.87 294.75 L 243.5 294.27 L 245.13 293.67 L 248.4 292.12 L 251.66 290.09 L 254.92 287.61 L 258.18 284.67 L 261.45 281.29 L 264.71 277.49 L 267.97 273.28 L 271.24 268.67 L 274.5 263.69 L 277.76 258.36 L 281.02 252.69 L 285.92 243.61 L 290.81 233.9 L 295.71 223.67 L 302.23 209.36 L 310.39 190.71 L 333.23 137.88 L 339.76 123.65 L 344.65 113.5 L 349.54 103.89 L 354.44 94.92 L 357.7 89.34 L 360.96 84.09 L 364.23 79.2 L 367.49 74.69 L 370.75 70.58 L 374.02 66.88 L 377.28 63.62 L 380.54 60.79 L 383.8 58.42 L 387.07 56.51 L 390.33 55.07 L 391.96 54.53 L 393.59 54.11 L 395.22 53.81 L 396.86 53.63 L 398.49 53.57 L 398.49 53.57" fill="none" stroke="#ff7f0e" stroke-width="1.5" stroke-dasharray="5.55,2.4" stroke-linejoin="round"/>
</g>
<g id="spines_1">
<path d="M 57.6 307.58 L 414.72 307.58 L 414.72 41.47 L 57.6 41.47 z" fill="none" stroke="#000000" stroke-width="0.8" stroke-linecap="square" stroke-linejoin="round"/>
</g>
<g id="xtick_1">
<path d="M 73.83 307.58 L 73.83 311.08" fill="none" stroke="#000000" stroke-width="0.8" stroke-linejoin="round"/>
<path d="M 73.83 317.23 Q 73.07 317.23 72.68 317.98 Q 72.3 318.72 72.3 320.23 Q 72.3 321.73 72.68 322.48 Q 73.07 323.23 73.83 323.23 Q 74.6 323.23 74.98 322.48 Q 75.36 321.73 75.36 320.23 Q 75.36 318.72 74.98 317.98 Q 74.6 317.23 73.83 317.23 M 73.83 316.44 Q 75.06 316.44 75.7 317.42 Q 76.35 318.38 76.35 320.23 Q 76.35 322.07 75.7 323.04 Q 75.06 324.01 73.83 324.01 Q 72.6 324.01 71.96 323.04 Q 71.31 322.07 71.31 320.23 Q 71.31 318.38 71.96 317.42 Q 72.6 316.44 73.83 316.44 z" fill="#000000"/>
<path d="M 125.5 307.58 L 125.5 311.08" fill="none" stroke="#000000" stroke-width="0.8" stroke-linejoin="round"/>
<path d="M 123.56 323.04 L 125.17 323.04 L 125.17 317.47 L 123.42 317.83 L 123.42 316.93 L 125.16 316.58 L 126.15 316.58 L 126.15 323.04 L 127.76 323.04 L 127.76 323.87 L 123.56 323.87 L 123.56 323.04 z" fill="#000000"/>
<path d="M 177.17 307.58 L 177.17 311.08" fill="none" stroke="#000000" stroke-width="0.8" stroke-linejoin="round"/>
<path d="M 175.91 323.04 L 179.35 323.04 L 179.35 323.87 L 174.72 323.87 L 174.72 323.04 Q 175.29 322.46 176.25 321.48 Q 177.22 320.5 177.47 320.21 Q 177.95 319.68 178.13 319.32 Q 178.32 318.94 178.32 318.59 Q 178.32 318.01 177.91 317.64 Q 177.51 317.27 176.85 317.27 Q 176.39 317.27 175.87 317.44 Q 175.36 317.6 174.77 317.92 L 174.77 316.93 Q 175.37 316.69 175.89 316.57 Q 176.4 316.44 176.83 316.44 Q 177.97 316.44 178.64 317.01 Q 179.31 317.58 179.31 318.52 Q 179.31 318.97 179.14 319.38 Q 178.98 319.78 178.53 320.33 Q 178.41 320.47 177.76 321.15 Q 177.1 321.82 175.91 323.04 z" fill="#000000"/>
<path d="M 228.84 307.58 L 228.84 311.08" fill="none" stroke="#000000" stroke-width="0.8" stroke-linejoin="round"/>
<path d="M 229.72 319.94 Q 230.43 320.09 230.82 320.57 Q 231.22 321.04 231.22 321.75 Q 231.22 322.83 230.48 323.42 Q 229.74 324.01 228.37 324.01 Q 227.91 324.01 227.43 323.92 Q 226.94 323.83 226.42 323.65 L 226.42 322.69 Q 226.83 322.93 227.32 323.06 Q 227.81 323.18 228.34 323.18 Q 229.27 323.18 229.75 322.81 Q 230.24 322.45 230.24 321.75 Q 230.24 321.1 229.79 320.74 Q 229.34 320.38 228.53 320.38 L 227.68 320.38 L 227.68 319.56 L 228.57 319.56 Q 229.3 319.56 229.69 319.28 Q 230.07 318.98 230.07 318.44 Q 230.07 317.88 229.67 317.58 Q 229.28 317.27 228.53 317.27 Q 228.13 317.27 227.66 317.36 Q 227.2 317.45 226.64 317.64 L 226.64 316.76 Q 227.21 316.6 227.69 316.52 Q 228.19 316.44 228.62 316.44 Q 229.74 316.44 230.4 316.96 Q 231.05 317.46 231.05 318.33 Q 231.05 318.94 230.71 319.36 Q 230.36 319.77 229.72 319.94 z" fill="#000000"/>
<path d="M 280.51 307.58 L 280.51 311.08" fill="none" stroke="#000000" stroke-width="0.8" stroke-linejoin="round"/>
<path d="M 281.11 317.44 L 278.62 321.33 L 281.11 321.33 L 281.11 317.44 M 280.85 316.58 L 282.09 316.58 L 282.09 321.33 L 283.13 321.33 L 283.13 322.15 L 282.09 322.15 L 282.09 323.87 L 281.11 323.87 L 281.11 322.15 L 277.82 322.15 L 277.82 321.2 L 280.85 316.58 z" fill="#000000"/>
<path d="M 332.18 307.58 L 332.18 311.08" fill="none" stroke="#000000" stroke-width="0.8" stroke-linejoin="round"/>
<path d="M 330.08 316.58 L 333.95 316.58 L 333.95 317.41 L 330.99 317.41 L 330.99 319.19 Q 331.2 319.12 331.42 319.09 Q 331.63 319.05 331.85 319.05 Q 333.07 319.05 333.78 319.72 Q 334.49 320.38 334.49 321.53 Q 334.49 322.7 333.76 323.36 Q 333.03 324.01 331.69 324.01 Q 331.23 324.01 330.76 323.93 Q 330.28 323.85 329.77 323.7 L 329.77 322.7 Q 330.21 322.94 330.68 323.06 Q 331.15 323.18 331.67 323.18 Q 332.52 323.18 333.01 322.73 Q 333.51 322.29 333.51 321.53 Q 333.51 320.77 333.01 320.32 Q 332.52 319.88 331.67 319.88 Q 331.28 319.88 330.88 319.96 Q 330.49 320.05 330.08 320.24 L 330.08 316.58 z" fill="#000000"/>
<path d="M 383.85 307.58 L 383.85 311.08" fill="none" stroke="#000000" stroke-width="0.8" stroke-linejoin="round"/>
<path d="M 383.97 319.83 Q 383.31 319.83 382.92 320.28 Q 382.53 320.74 382.53 321.53 Q 382.53 322.31 382.92 322.77 Q 383.31 323.23 383.97 323.23 Q 384.64 323.23 385.02 322.77 Q 385.42 322.31 385.42 321.53 Q 385.42 320.74 385.02 320.28 Q 384.64 319.83 383.97 319.83 M 385.93 316.74 L 385.93 317.64 Q 385.56 317.46 385.18 317.37 Q 384.8 317.27 384.43 317.27 Q 383.46 317.27 382.94 317.93 Q 382.43 318.59 382.35 319.93 Q 382.64 319.5 383.08 319.28 Q 383.51 319.05 384.03 319.05 Q 385.13 319.05 385.77 319.72 Q 386.41 320.38 386.41 321.53 Q 386.41 322.65 385.74 323.33 Q 385.08 324.01 383.97 324.01 Q 382.71 324.01 382.04 323.04 Q 381.37 322.07 381.37 320.23 Q 381.37 318.5 382.19 317.47 Q 383.01 316.44 384.39 316.44 Q 384.77 316.44 385.14 316.52 Q 385.52 316.59 385.93 316.74 z" fill="#000000"/>
</g>
<g id="ytick_1">
<path d="M 57.6 295.49 L 54.1 295.49" fill="none" stroke="#000000" stroke-width="0.8" stroke-linejoin="round"/>
<path d="M 21.02 295.4 L 27.27 295.4 L 27.27 296.23 L 21.02 296.23 L 21.02 295.4 z M 29.57 298.12 L 31.19 298.12 L 31.19 292.56 L 29.43 292.91 L 29.43 292.02 L 31.18 291.66 L 32.16 291.66 L 32.16 298.12 L 33.77 298.12 L 33.77 298.95 L 29.57 298.95 L 29.57 298.12 z M 35.77 297.71 L 36.8 297.71 L 36.8 298.95 L 35.77 298.95 L 35.77 297.71 z M 41.05 292.31 Q 40.29 292.31 39.91 293.07 Q 39.53 293.81 39.53 295.32 Q 39.53 296.82 39.91 297.57 Q 40.29 298.31 41.05 298.31 Q 41.82 298.31 42.2 297.57 Q 42.59 296.82 42.59 295.32 Q 42.59 293.81 42.2 293.07 Q 41.82 292.31 41.05 292.31 M 41.05 291.53 Q 42.28 291.53 42.92 292.5 Q 43.57 293.47 43.57 295.32 Q 43.57 297.16 42.92 298.13 Q 42.28 299.1 41.05 299.1 Q 39.83 299.1 39.18 298.13 Q 38.53 297.16 38.53 295.32 Q 38.53 293.47 39.18 292.5 Q 39.83 291.53 41.05 291.53 z M 47.42 292.31 Q 46.65 292.31 46.27 293.07 Q 45.89 293.81 45.89 295.32 Q 45.89 296.82 46.27 297.57 Q 46.65 298.31 47.42 298.31 Q 48.18 298.31 48.56 297.57 Q 48.95 296.82 48.95 295.32 Q 48.95 293.81 48.56 293.07 Q 48.18 292.31 47.42 292.31 M 47.42 291.53 Q 48.64 291.53 49.29 292.5 Q 49.94 293.47 49.94 295.32 Q 49.94 297.16 49.29 298.13 Q 48.64 299.1 47.42 299.1 Q 46.19 299.1 45.54 298.13 Q 44.9 297.16 44.9 295.32 Q 44.9 293.47 45.54 292.5 Q 46.19 291.53 47.42 291.53 z" fill="#000000"/>
<path d="M 57.6 265.25 L 54.1 265.25" fill="none" stroke="#000000" stroke-width="0.8" stroke-linejoin="round"/>
<path d="M 21.02 265.16 L 27.27 265.16 L 27.27 265.99 L 21.02 265.99 L 21.02 265.16 z M 31.51 262.07 Q 30.75 262.07 30.37 262.82 Q 29.98 263.57 29.98 265.08 Q 29.98 266.57 30.37 267.33 Q 30.75 268.07 31.51 268.07 Q 32.28 268.07 32.66 267.33 Q 33.05 266.57 33.05 265.08 Q 33.05 263.57 32.66 262.82 Q 32.28 262.07 31.51 262.07 M 31.51 261.29 Q 32.74 261.29 33.38 262.26 Q 34.03 263.23 34.03 265.08 Q 34.03 266.92 33.38 267.89 Q 32.74 268.85 31.51 268.85 Q 30.29 268.85 29.64 267.89 Q 28.99 266.92 28.99 265.08 Q 28.99 263.23 29.64 262.26 Q 30.29 261.29 31.51 261.29 z M 35.77 267.47 L 36.8 267.47 L 36.8 268.71 L 35.77 268.71 L 35.77 267.47 z M 38.7 261.42 L 43.38 261.42 L 43.38 261.84 L 40.74 268.71 L 39.71 268.71 L 42.2 262.25 L 38.7 262.25 L 38.7 261.42 z M 45.32 261.42 L 49.19 261.42 L 49.19 262.25 L 46.22 262.25 L 46.22 264.04 Q 46.43 263.97 46.65 263.93 Q 46.86 263.89 47.08 263.89 Q 48.3 263.89 49.01 264.56 Q 49.73 265.23 49.73 266.37 Q 49.73 267.55 48.99 268.21 Q 48.26 268.85 46.93 268.85 Q 46.47 268.85 45.99 268.78 Q 45.52 268.7 45.01 268.54 L 45.01 267.55 Q 45.45 267.79 45.92 267.91 Q 46.39 268.02 46.91 268.02 Q 47.75 268.02 48.25 267.58 Q 48.74 267.14 48.74 266.37 Q 48.74 265.61 48.25 265.17 Q 47.75 264.72 46.91 264.72 Q 46.51 264.72 46.12 264.81 Q 45.73 264.9 45.32 265.09 L 45.32 261.42 z" fill="#000000"/>
<path d="M 57.6 235.01 L 54.1 235.01" fill="none" stroke="#000000" stroke-width="0.8" stroke-linejoin="round"/>
<path d="M 21.02 234.92 L 27.27 234.92 L 27.27 235.75 L 21.02 235.75 L 21.02 234.92 z M 31.51 231.83 Q 30.75 231.83 30.37 232.58 Q 29.98 233.33 29.98 234.84 Q 29.98 236.33 30.37 237.09 Q 30.75 237.83 31.51 237.83 Q 32.28 237.83 32.66 237.09 Q 33.05 236.33 33.05 234.84 Q 33.05 233.33 32.66 232.58 Q 32.28 231.83 31.51 231.83 M 31.51 231.05 Q 32.74 231.05 33.38 232.02 Q 34.03 232.99 34.03 234.84 Q 34.03 236.68 33.38 237.65 Q 32.74 238.61 31.51 238.61 Q 30.29 238.61 29.64 237.65 Q 28.99 236.68 28.99 234.84 Q 28.99 232.99 29.64 232.02 Q 30.29 231.05 31.51 231.05 z M 35.77 237.23 L 36.8 237.23 L 36.8 238.47 L 35.77 238.47 L 35.77 237.23 z M 38.95 231.18 L 42.83 231.18 L 42.83 232.01 L 39.86 232.01 L 39.86 233.8 Q 40.07 233.73 40.29 233.69 Q 40.5 233.65 40.72 233.65 Q 41.94 233.65 42.65 234.32 Q 43.36 234.99 43.36 236.13 Q 43.36 237.31 42.63 237.96 Q 41.9 238.61 40.57 238.61 Q 40.11 238.61 39.63 238.54 Q 39.15 238.46 38.65 238.3 L 38.65 237.31 Q 39.09 237.55 39.56 237.67 Q 40.02 237.78 40.55 237.78 Q 41.39 237.78 41.88 237.34 Q 42.38 236.9 42.38 236.13 Q 42.38 235.37 41.88 234.93 Q 41.39 234.48 40.55 234.48 Q 40.15 234.48 39.76 234.57 Q 39.36 234.66 38.95 234.84 L 38.95 231.18 z M 47.42 231.83 Q 46.65 231.83 46.27 232.58 Q 45.89 233.33 45.89 234.84 Q 45.89 236.33 46.27 237.09 Q 46.65 237.83 47.42 237.83 Q 48.18 237.83 48.56 237.09 Q 48.95 236.33 48.95 234.84 Q 48.95 233.33 48.56 232.58 Q 48.18 231.83 47.42 231.83 M 47.42 231.05 Q 48.64 231.05 49.29 232.02 Q 49.94 232.99 49.94 234.84 Q 49.94 236.68 49.29 237.65 Q 48.64 238.61 47.42 238.61 Q 46.19 238.61 45.54 237.65 Q 44.9 236.68 44.9 234.84 Q 44.9 232.99 45.54 232.02 Q 46.19 231.05 47.42 231.05 z" fill="#000000"/>
<path d="M 57.6 204.77 L 54.1 204.77" fill="none" stroke="#000000" stroke-width="0.8" stroke-linejoin="round"/>
<path d="M 21.02 204.68 L 27.27 204.68 L 27.27 205.51 L 21.02 205.51 L 21.02 204.68 z M 31.51 201.59 Q 30.75 201.59 30.37 202.34 Q 29.98 203.09 29.98 204.59 Q 29.98 206.09 30.37 206.85 Q 30.75 207.59 31.51 207.59 Q 32.28 207.59 32.66 206.85 Q 33.05 206.09 33.05 204.59 Q 33.05 203.09 32.66 202.34 Q 32.28 201.59 31.51 201.59 M 31.51 200.81 Q 32.74 200.81 33.38 201.78 Q 34.03 202.75 34.03 204.59 Q 34.03 206.44 33.38 207.41 Q 32.74 208.37 31.51 208.37 Q 30.29 208.37 29.64 207.41 Q 28.99 206.44 28.99 204.59 Q 28.99 202.75 29.64 201.78 Q 30.29 200.81 31.51 200.81 z M 35.77 206.99 L 36.8 206.99 L 36.8 208.23 L 35.77 208.23 L 35.77 206.99 z M 39.79 207.4 L 43.24 207.4 L 43.24 208.23 L 38.61 208.23 L 38.61 207.4 Q 39.17 206.82 40.14 205.84 Q 41.11 204.86 41.36 204.58 Q 41.83 204.05 42.02 203.68 Q 42.21 203.31 42.21 202.95 Q 42.21 202.37 41.8 202.01 Q 41.39 201.64 40.74 201.64 Q 40.27 201.64 39.76 201.8 Q 39.24 201.96 38.66 202.29 L 38.66 201.29 Q 39.25 201.05 39.77 200.93 Q 40.29 200.81 40.72 200.81 Q 41.85 200.81 42.52 201.38 Q 43.2 201.94 43.2 202.89 Q 43.2 203.34 43.03 203.74 Q 42.86 204.15 42.42 204.69 Q 42.29 204.83 41.64 205.51 Q 40.99 206.19 39.79 207.4 z M 45.32 200.94 L 49.19 200.94 L 49.19 201.77 L 46.22 201.77 L 46.22 203.56 Q 46.43 203.49 46.65 203.45 Q 46.86 203.41 47.08 203.41 Q 48.3 203.41 49.01 204.08 Q 49.73 204.75 49.73 205.89 Q 49.73 207.07 48.99 207.72 Q 48.26 208.37 46.93 208.37 Q 46.47 208.37 45.99 208.3 Q 45.52 208.22 45.01 208.06 L 45.01 207.07 Q 45.45 207.31 45.92 207.43 Q 46.39 207.54 46.91 207.54 Q 47.75 207.54 48.25 207.1 Q 48.74 206.66 48.74 205.89 Q 48.74 205.13 48.25 204.69 Q 47.75 204.24 46.91 204.24 Q 46.51 204.24 46.12 204.33 Q 45.73 204.42 45.32 204.6 L 45.32 200.94 z" fill="#000000"/>
<path d="M 57.6 174.53 L 54.1 174.53" fill="none" stroke="#000000" stroke-width="0.8" stroke-linejoin="round"/>
<path d="M 31.51 171.35 Q 30.75 171.35 30.37 172.1 Q 29.98 172.85 29.98 174.35 Q 29.98 175.85 30.37 176.61 Q 30.75 177.35 31.51 177.35 Q 32.28 177.35 32.66 176.61 Q 33.05 175.85 33.05 174.35 Q 33.05 172.85 32.66 172.1 Q 32.28 171.35 31.51 171.35 M 31.51 170.57 Q 32.74 170.57 33.38 171.54 Q 34.03 172.51 34.03 174.35 Q 34.03 176.19 33.38 177.17 Q 32.74 178.13 31.51 178.13 Q 30.29 178.13 29.64 177.17 Q 28.99 176.19 28.99 174.35 Q 28.99 172.51 29.64 171.54 Q 30.29 170.57 31.51 170.57 z M 35.77 176.75 L 36.8 176.75 L 36.8 177.99 L 35.77 177.99 L 35.77 176.75 z M 41.05 171.35 Q 40.29 171.35 39.91 172.1 Q 39.53 172.85 39.53 174.35 Q 39.53 175.85 39.91 176.61 Q 40.29 177.35 41.05 177.35 Q 41.82 177.35 42.2 176.61 Q 42.59 175.85 42.59 174.35 Q 42.59 172.85 42.2 172.1 Q 41.82 171.35 41.05 171.35 M 41.05 170.57 Q 42.28 170.57 42.92 171.54 Q 43.57 172.51 43.57 174.35 Q 43.57 176.19 42.92 177.17 Q 42.28 178.13 41.05 178.13 Q 39.83 178.13 39.18 177.17 Q 38.53 176.19 38.53 174.35 Q 38.53 172.51 39.18 171.54 Q 39.83 170.57 41.05 170.57 z M 47.42 171.35 Q 46.65 171.35 46.27 172.1 Q 45.89 172.85 45.89 174.35 Q 45.89 175.85 46.27 176.61 Q 46.65 177.35 47.42 177.35 Q 48.18 177.35 48.56 176.61 Q 48.95 175.85 48.95 174.35 Q 48.95 172.85 48.56 172.1 Q 48.18 171.35 47.42 171.35 M 47.42 170.57 Q 48.64 170.57 49.29 171.54 Q 49.94 172.51 49.94 174.35 Q 49.94 176.19 49.29 177.17 Q 48.64 178.13 47.42 178.13 Q 46.19 178.13 45.54 177.17 Q 44.9 176.19 44.9 174.35 Q 44.9 172.51 45.54 171.54 Q 46.19 170.57 47.42 170.57 z" fill="#000000"/>
<path d="M 57.6 144.29 L 54.1 144.29" fill="none" stroke="#000000" stroke-width="0.8" stroke-linejoin="round"/>
<path d="M 31.51 141.11 Q 30.75 141.11 30.37 141.86 Q 29.98 142.61 29.98 144.11 Q 29.98 145.61 30.37 146.36 Q 30.75 147.11 31.51 147.11 Q 32.28 147.11 32.66 146.36 Q 33.05 145.61 33.05 144.11 Q 33.05 142.61 32.66 141.86 Q 32.28 141.11 31.51 141.11 M 31.51 140.33 Q 32.74 140.33 33.38 141.3 Q 34.03 142.27 34.03 144.11 Q 34.03 145.95 33.38 146.93 Q 32.74 147.89 31.51 147.89 Q 30.29 147.89 29.64 146.93 Q 28.99 145.95 28.99 144.11 Q 28.99 142.27 29.64 141.3 Q 30.29 140.33 31.51 140.33 z M 35.77 146.51 L 36.8 146.51 L 36.8 147.75 L 35.77 147.75 L 35.77 146.51 z M 39.79 146.92 L 43.24 146.92 L 43.24 147.75 L 38.61 147.75 L 38.61 146.92 Q 39.17 146.34 40.14 145.36 Q 41.11 144.38 41.36 144.1 Q 41.83 143.57 42.02 143.2 Q 42.21 142.83 42.21 142.47 Q 42.21 141.89 41.8 141.53 Q 41.39 141.16 40.74 141.16 Q 40.27 141.16 39.76 141.32 Q 39.24 141.48 38.66 141.81 L 38.66 140.81 Q 39.25 140.57 39.77 140.45 Q 40.29 140.33 40.72 140.33 Q 41.85 140.33 42.52 140.9 Q 43.2 141.46 43.2 142.41 Q 43.2 142.86 43.03 143.26 Q 42.86 143.66 42.42 144.21 Q 42.29 144.35 41.64 145.03 Q 40.99 145.71 39.79 146.92 z M 45.32 140.46 L 49.19 140.46 L 49.19 141.29 L 46.22 141.29 L 46.22 143.08 Q 46.43 143.01 46.65 142.97 Q 46.86 142.93 47.08 142.93 Q 48.3 142.93 49.01 143.6 Q 49.73 144.27 49.73 145.41 Q 49.73 146.59 48.99 147.24 Q 48.26 147.89 46.93 147.89 Q 46.47 147.89 45.99 147.81 Q 45.52 147.74 45.01 147.58 L 45.01 146.59 Q 45.45 146.83 45.92 146.95 Q 46.39 147.06 46.91 147.06 Q 47.75 147.06 48.25 146.62 Q 48.74 146.17 48.74 145.41 Q 48.74 144.65 48.25 144.21 Q 47.75 143.76 46.91 143.76 Q 46.51 143.76 46.12 143.85 Q 45.73 143.94 45.32 144.12 L 45.32 140.46 z" fill="#000000"/>
<path d="M 57.6 114.05 L 54.1 114.05" fill="none" stroke="#000000" stroke-width="0.8" stroke-linejoin="round"/>
<path d="M 31.51 110.87 Q 30.75 110.87 30.37 111.62 Q 29.98 112.37 29.98 113.87 Q 29.98 115.37 30.37 116.12 Q 30.75 116.87 31.51 116.87 Q 32.28 116.87 32.66 116.12 Q 33.05 115.37 33.05 113.87 Q 33.05 112.37 32.66 111.62 Q 32.28 110.87 31.51 110.87 M 31.51 110.09 Q 32.74 110.09 33.38 111.06 Q 34.03 112.03 34.03 113.87 Q 34.03 115.71 33.38 116.69 Q 32.74 117.65 31.51 117.65 Q 30.29 117.65 29.64 116.69 Q 28.99 115.71 28.99 113.87 Q 28.99 112.03 29.64 111.06 Q 30.29 110.09 31.51 110.09 z M 35.77 116.27 L 36.8 116.27 L 36.8 117.51 L 35.77 117.51 L 35.77 116.27 z M 38.95 110.22 L 42.83 110.22 L 42.83 111.05 L 39.86 111.05 L 39.86 112.84 Q 40.07 112.76 40.29 112.73 Q 40.5 112.69 40.72 112.69 Q 41.94 112.69 42.65 113.36 Q 43.36 114.03 43.36 115.17 Q 43.36 116.35 42.63 117 Q 41.9 117.65 40.57 117.65 Q 40.11 117.65 39.63 117.57 Q 39.15 117.5 38.65 117.34 L 38.65 116.35 Q 39.09 116.59 39.56 116.71 Q 40.02 116.82 40.55 116.82 Q 41.39 116.82 41.88 116.38 Q 42.38 115.93 42.38 115.17 Q 42.38 114.41 41.88 113.97 Q 41.39 113.52 40.55 113.52 Q 40.15 113.52 39.76 113.61 Q 39.36 113.7 38.95 113.88 L 38.95 110.22 z M 47.42 110.87 Q 46.65 110.87 46.27 111.62 Q 45.89 112.37 45.89 113.87 Q 45.89 115.37 46.27 116.12 Q 46.65 116.87 47.42 116.87 Q 48.18 116.87 48.56 116.12 Q 48.95 115.37 48.95 113.87 Q 48.95 112.37 48.56 111.62 Q 48.18 110.87 47.42 110.87 M 47.42 110.09 Q 48.64 110.09 49.29 111.06 Q 49.94 112.03 49.94 113.87 Q 49.94 115.71 49.29 116.69 Q 48.64 117.65 47.42 117.65 Q 46.19 117.65 45.54 116.69 Q 44.9 115.71 44.9 113.87 Q 44.9 112.03 45.54 111.06 Q 46.19 110.09 47.42 110.09 z" fill="#000000"/>
<path d="M 57.6 83.81 L 54.1 83.81" fill="none" stroke="#000000" stroke-width="0.8" stroke-linejoin="round"/>
<path d="M 31.51 80.63 Q 30.75 80.63 30.37 81.38 Q 29.98 82.13 29.98 83.63 Q 29.98 85.13 30.37 85.88 Q 30.75 86.63 31.51 86.63 Q 32.28 86.63 32.66 85.88 Q 33.05 85.13 33.05 83.63 Q 33.05 82.13 32.66 81.38 Q 32.28 80.63 31.51 80.63 M 31.51 79.85 Q 32.74 79.85 33.38 80.82 Q 34.03 81.79 34.03 83.63 Q 34.03 85.47 33.38 86.45 Q 32.74 87.41 31.51 87.41 Q 30.29 87.41 29.64 86.45 Q 28.99 85.47 28.99 83.63 Q 28.99 81.79 29.64 80.82 Q 30.29 79.85 31.51 79.85 z M 35.77 86.03 L 36.8 86.03 L 36.8 87.27 L 35.77 87.27 L 35.77 86.03 z M 38.7 79.98 L 43.38 79.98 L 43.38 80.4 L 40.74 87.27 L 39.71 87.27 L 42.2 80.81 L 38.7 80.81 L 38.7 79.98 z M 45.32 79.98 L 49.19 79.98 L 49.19 80.81 L 46.22 80.81 L 46.22 82.6 Q 46.43 82.52 46.65 82.49 Q 46.86 82.45 47.08 82.45 Q 48.3 82.45 49.01 83.12 Q 49.73 83.79 49.73 84.93 Q 49.73 86.11 48.99 86.76 Q 48.26 87.41 46.93 87.41 Q 46.47 87.41 45.99 87.33 Q 45.52 87.26 45.01 87.1 L 45.01 86.11 Q 45.45 86.35 45.92 86.46 Q 46.39 86.58 46.91 86.58 Q 47.75 86.58 48.25 86.14 Q 48.74 85.69 48.74 84.93 Q 48.74 84.17 48.25 83.73 Q 47.75 83.28 46.91 83.28 Q 46.51 83.28 46.12 83.37 Q 45.73 83.46 45.32 83.64 L 45.32 79.98 z" fill="#000000"/>
<path d="M 57.6 53.57 L 54.1 53.57" fill="none" stroke="#000000" stroke-width="0.8" stroke-linejoin="round"/>
<path d="M 29.57 56.2 L 31.19 56.2 L 31.19 50.64 L 29.43 50.99 L 29.43 50.09 L 31.18 49.74 L 32.16 49.74 L 32.16 56.2 L 33.77 56.2 L 33.77 57.03 L 29.57 57.03 L 29.57 56.2 z M 35.77 55.79 L 36.8 55.79 L 36.8 57.03 L 35.77 57.03 L 35.77 55.79 z M 41.05 50.39 Q 40.29 50.39 39.91 51.14 Q 39.53 51.89 39.53 53.39 Q 39.53 54.89 39.91 55.64 Q 40.29 56.39 41.05 56.39 Q 41.82 56.39 42.2 55.64 Q 42.59 54.89 42.59 53.39 Q 42.59 51.89 42.2 51.14 Q 41.82 50.39 41.05 50.39 M 41.05 49.61 Q 42.28 49.61 42.92 50.58 Q 43.57 51.55 43.57 53.39 Q 43.57 55.23 42.92 56.2 Q 42.28 57.17 41.05 57.17 Q 39.83 57.17 39.18 56.2 Q 38.53 55.23 38.53 53.39 Q 38.53 51.55 39.18 50.58 Q 39.83 49.61 41.05 49.61 z M 47.42 50.39 Q 46.65 50.39 46.27 51.14 Q 45.89 51.89 45.89 53.39 Q 45.89 54.89 46.27 55.64 Q 46.65 56.39 47.42 56.39 Q 48.18 56.39 48.56 55.64 Q 48.95 54.89 48.95 53.39 Q 48.95 51.89 48.56 51.14 Q 48.18 50.39 47.42 50.39 M 47.42 49.61 Q 48.64 49.61 49.29 50.58 Q 49.94 51.55 49.94 53.39 Q 49.94 55.23 49.29 56.2 Q 48.64 57.17 47.42 57.17 Q 46.19 57.17 45.54 56.2 Q 44.9 55.23 44.9 53.39 Q 44.9 51.55 45.54 50.58 Q 46.19 49.61 47.42 49.61 z" fill="#000000"/>
</g>
<g id="text_1">
<path d="M 224.91 334.04 L 222.93 336.7 L 225.01 339.51 L 223.95 339.51 L 222.36 337.36 L 220.76 339.51 L 219.7 339.51 L 221.83 336.65 L 219.89 334.04 L 220.95 334.04 L 222.4 335.99 L 223.85 334.04 L 224.91 334.04 z z M 229.37 331.91 L 231.44 331.91 L 231.44 332.61 L 230.27 332.61 L 230.27 340.13 L 231.44 340.13 L 231.44 340.83 L 229.37 340.83 L 229.37 331.91 z M 236.53 334.88 Q 236.37 334.79 236.19 334.75 Q 236.02 334.71 235.8 334.71 Q 235.04 334.71 234.63 335.21 Q 234.23 335.7 234.23 336.63 L 234.23 339.51 L 233.32 339.51 L 233.32 334.04 L 234.23 334.04 L 234.23 334.89 Q 234.51 334.39 234.96 334.15 Q 235.42 333.91 236.07 333.91 Q 236.16 333.91 236.27 333.92 Q 236.38 333.93 236.52 333.96 L 236.53 334.88 z M 239.95 336.76 Q 238.87 336.76 238.45 337.01 Q 238.03 337.26 238.03 337.86 Q 238.03 338.33 238.34 338.62 Q 238.66 338.9 239.2 338.9 Q 239.94 338.9 240.39 338.37 Q 240.85 337.84 240.85 336.96 L 240.85 336.76 L 239.95 336.76 M 241.75 336.39 L 241.75 339.51 L 240.85 339.51 L 240.85 338.68 Q 240.54 339.17 240.08 339.41 Q 239.62 339.65 238.96 339.65 Q 238.12 339.65 237.62 339.18 Q 237.13 338.71 237.13 337.92 Q 237.13 336.99 237.74 336.52 Q 238.36 336.05 239.59 336.05 L 240.85 336.05 L 240.85 335.97 Q 240.85 335.35 240.44 335.01 Q 240.03 334.67 239.29 334.67 Q 238.83 334.67 238.38 334.78 Q 237.94 334.89 237.53 335.12 L 237.53 334.29 Q 238.02 334.1 238.48 334 Q 238.95 333.91 239.39 333.91 Q 240.57 333.91 241.16 334.52 Q 241.75 335.14 241.75 336.39 z M 247.2 334.87 L 247.2 331.91 L 248.09 331.91 L 248.09 339.51 L 247.2 339.51 L 247.2 338.69 Q 246.91 339.17 246.48 339.41 Q 246.05 339.65 245.44 339.65 Q 244.45 339.65 243.83 338.86 Q 243.21 338.07 243.21 336.78 Q 243.21 335.49 243.83 334.7 Q 244.45 333.91 245.44 333.91 Q 246.05 333.91 246.48 334.15 Q 246.91 334.38 247.2 334.87 M 244.13 336.78 Q 244.13 337.77 244.54 338.33 Q 244.95 338.9 245.66 338.9 Q 246.37 338.9 246.79 338.33 Q 247.2 337.77 247.2 336.78 Q 247.2 335.79 246.79 335.22 Q 246.37 334.66 245.66 334.66 Q 244.95 334.66 244.54 335.22 Q 244.13 335.79 244.13 336.78 z M 252.04 331.91 L 252.04 340.83 L 249.97 340.83 L 249.97 340.13 L 251.14 340.13 L 251.14 332.61 L 249.97 332.61 L 249.97 331.91 L 252.04 331.91 z" fill="#000000"/>
</g>
<g id="text_2">
<path d="M 10.85 196.37 Q 10.85 197.46 11.1 197.88 Q 11.35 198.3 11.95 198.3 Q 12.43 198.3 12.71 197.98 Q 12.99 197.67 12.99 197.12 Q 12.99 196.38 12.46 195.93 Q 11.93 195.47 11.05 195.47 L 10.85 195.47 L 10.85 196.37 M 10.48 194.57 L 13.6 194.57 L 13.6 195.47 L 12.77 195.47 Q 13.27 195.78 13.5 196.24 Q 13.74 196.7 13.74 197.36 Q 13.74 198.2 13.27 198.7 Q 12.8 199.19 12.01 199.19 Q 11.08 199.19 10.61 198.58 Q 10.14 197.96 10.14 196.73 L 10.14 195.47 L 10.06 195.47 Q 9.44 195.47 9.1 195.88 Q 8.76 196.29 8.76 197.03 Q 8.76 197.49 8.87 197.94 Q 8.98 198.38 9.21 198.79 L 8.38 198.79 Q 8.19 198.3 8.09 197.84 Q 8 197.37 8 196.93 Q 8 195.75 8.61 195.16 Q 9.23 194.57 10.48 194.57 z M 9.18 188.47 Q 8.57 188.13 8.28 187.66 Q 8 187.19 8 186.56 Q 8 185.7 8.6 185.24 Q 9.19 184.77 10.3 184.77 L 13.6 184.77 L 13.6 185.68 L 10.33 185.68 Q 9.54 185.68 9.16 185.96 Q 8.78 186.23 8.78 186.81 Q 8.78 187.5 9.24 187.91 Q 9.71 188.31 10.51 188.31 L 13.6 188.31 L 13.6 189.22 L 10.33 189.22 Q 9.53 189.22 9.16 189.5 Q 8.78 189.77 8.78 190.36 Q 8.78 191.04 9.25 191.45 Q 9.71 191.85 10.51 191.85 L 13.6 191.85 L 13.6 192.76 L 8.13 192.76 L 8.13 191.85 L 8.98 191.85 Q 8.48 191.55 8.24 191.12 Q 8 190.69 8 190.1 Q 8 189.5 8.3 189.09 Q 8.6 188.67 9.18 188.47 z M 12.78 182.11 L 15.68 182.11 L 15.68 183.02 L 8.13 183.02 L 8.13 182.11 L 8.96 182.11 Q 8.47 181.83 8.24 181.4 Q 8 180.97 8 180.37 Q 8 179.37 8.79 178.75 Q 9.58 178.12 10.87 178.12 Q 12.16 178.12 12.95 178.75 Q 13.74 179.37 13.74 180.37 Q 13.74 180.97 13.5 181.4 Q 13.27 181.83 12.78 182.11 M 10.87 179.06 Q 9.88 179.06 9.31 179.47 Q 8.75 179.87 8.75 180.59 Q 8.75 181.3 9.31 181.71 Q 9.88 182.11 10.87 182.11 Q 11.86 182.11 12.43 181.71 Q 12.99 181.3 12.99 180.59 Q 12.99 179.87 12.43 179.47 Q 11.86 179.06 10.87 179.06 z M 6 176.63 L 6 175.74 L 13.6 175.74 L 13.6 176.63 L 6 176.63 z M 8.13 173.86 L 8.13 172.96 L 13.6 172.96 L 13.6 173.86 L 8.13 173.86 M 6 173.86 L 6 172.96 L 7.14 172.96 L 7.14 173.86 L 6 173.86 z M 6.58 170.19 L 8.13 170.19 L 8.13 168.34 L 8.83 168.34 L 8.83 170.19 L 11.8 170.19 Q 12.46 170.19 12.65 170.01 Q 12.85 169.82 12.85 169.26 L 12.85 168.34 L 13.6 168.34 L 13.6 169.26 Q 13.6 170.3 13.21 170.7 Q 12.82 171.09 11.8 171.09 L 8.83 171.09 L 8.83 171.75 L 8.13 171.75 L 8.13 171.09 L 6.58 171.09 L 6.58 170.19 z M 11.44 167.25 L 8.13 167.25 L 8.13 166.35 L 11.4 166.35 Q 12.18 166.35 12.57 166.05 Q 12.96 165.75 12.96 165.14 Q 12.96 164.41 12.49 163.99 Q 12.03 163.57 11.23 163.57 L 8.13 163.57 L 8.13 162.67 L 13.6 162.67 L 13.6 163.57 L 12.76 163.57 Q 13.26 163.9 13.5 164.33 Q 13.74 164.76 13.74 165.33 Q 13.74 166.27 13.15 166.76 Q 12.57 167.25 11.44 167.25 M 8 164.99 L 8 164.99 z M 8.96 157.22 L 6 157.22 L 6 156.32 L 13.6 156.32 L 13.6 157.22 L 12.78 157.22 Q 13.27 157.5 13.5 157.94 Q 13.74 158.37 13.74 158.97 Q 13.74 159.97 12.95 160.59 Q 12.16 161.21 10.87 161.21 Q 9.58 161.21 8.79 160.59 Q 8 159.97 8 158.97 Q 8 158.37 8.24 157.94 Q 8.47 157.5 8.96 157.22 M 10.87 160.28 Q 11.86 160.28 12.43 159.88 Q 12.99 159.47 12.99 158.75 Q 12.99 158.04 12.43 157.63 Q 11.86 157.22 10.87 157.22 Q 9.88 157.22 9.31 157.63 Q 8.75 158.04 8.75 158.75 Q 8.75 159.47 9.31 159.88 Q 9.88 160.28 10.87 160.28 z M 10.64 149.79 L 11.08 149.79 L 11.08 153.92 Q 12.01 153.87 12.49 153.37 Q 12.98 152.87 12.98 151.97 Q 12.98 151.45 12.85 150.97 Q 12.72 150.48 12.47 150 L 13.32 150 Q 13.52 150.49 13.63 151 Q 13.74 151.5 13.74 152.03 Q 13.74 153.33 12.98 154.1 Q 12.22 154.86 10.92 154.86 Q 9.57 154.86 8.79 154.14 Q 8 153.41 8 152.18 Q 8 151.08 8.71 150.44 Q 9.42 149.79 10.64 149.79 M 10.37 150.69 Q 9.64 150.7 9.2 151.11 Q 8.76 151.51 8.76 152.17 Q 8.76 152.92 9.18 153.38 Q 9.61 153.83 10.38 153.9 L 10.37 150.69 z" fill="#000000"/>
</g>
<g id="text_3">
<path d="M 195.52 23.89 L 196.7 23.89 L 196.7 27.48 L 201 27.48 L 201 23.89 L 202.18 23.89 L 202.18 32.64 L 201 32.64 L 201 28.48 L 196.7 28.48 L 196.7 32.64 L 195.52 32.64 L 195.52 23.89 z M 210.11 29.09 L 210.11 29.62 L 205.15 29.62 Q 205.22 30.73 205.82 31.32 Q 206.42 31.9 207.49 31.9 Q 208.11 31.9 208.69 31.75 Q 209.28 31.59 209.85 31.29 L 209.85 32.31 Q 209.27 32.55 208.66 32.68 Q 208.06 32.81 207.43 32.81 Q 205.86 32.81 204.94 31.9 Q 204.02 30.98 204.02 29.43 Q 204.02 27.81 204.89 26.87 Q 205.76 25.92 207.24 25.92 Q 208.57 25.92 209.33 26.78 Q 210.11 27.63 210.11 29.09 M 209.03 28.77 Q 209.02 27.89 208.53 27.36 Q 208.05 26.84 207.25 26.84 Q 206.35 26.84 205.81 27.35 Q 205.27 27.85 205.18 28.78 L 209.03 28.77 z M 211.88 23.52 L 212.95 23.52 L 212.95 32.64 L 211.88 32.64 L 211.88 23.52 z M 215.21 23.52 L 216.29 23.52 L 216.29 32.64 L 215.21 32.64 L 215.21 23.52 z M 221.09 26.84 Q 220.22 26.84 219.72 27.51 Q 219.21 28.19 219.21 29.37 Q 219.21 30.54 219.71 31.22 Q 220.21 31.9 221.09 31.9 Q 221.95 31.9 222.45 31.22 Q 222.96 30.54 222.96 29.37 Q 222.96 28.2 222.45 27.52 Q 221.95 26.84 221.09 26.84 M 221.09 25.92 Q 222.49 25.92 223.3 26.84 Q 224.1 27.75 224.1 29.37 Q 224.1 30.98 223.3 31.9 Q 222.49 32.81 221.09 32.81 Q 219.67 32.81 218.87 31.9 Q 218.08 30.98 218.08 29.37 Q 218.08 27.75 218.87 26.84 Q 219.67 25.92 221.09 25.92 z z M 234.02 29.28 Q 234.02 28.11 233.53 27.47 Q 233.05 26.82 232.18 26.82 Q 231.31 26.82 230.83 27.47 Q 230.34 28.11 230.34 29.28 Q 230.34 30.45 230.83 31.1 Q 231.31 31.74 232.18 31.74 Q 233.05 31.74 233.53 31.1 Q 234.02 30.45 234.02 29.28 M 235.1 31.83 Q 235.1 33.5 234.35 34.32 Q 233.61 35.14 232.07 35.14 Q 231.5 35.14 231 35.06 Q 230.5 34.97 230.02 34.79 L 230.02 33.74 Q 230.5 34 230.96 34.12 Q 231.42 34.25 231.9 34.25 Q 232.96 34.25 233.49 33.7 Q 234.02 33.14 234.02 32.02 L 234.02 31.49 Q 233.68 32.07 233.16 32.35 Q 232.64 32.64 231.91 32.64 Q 230.71 32.64 229.97 31.72 Q 229.23 30.8 229.23 29.28 Q 229.23 27.76 229.97 26.84 Q 230.71 25.92 231.91 25.92 Q 232.64 25.92 233.16 26.21 Q 233.68 26.5 234.02 27.08 L 234.02 26.08 L 235.1 26.08 L 235.1 31.83 z M 241.12 27.09 Q 240.94 26.98 240.72 26.93 Q 240.51 26.88 240.25 26.88 Q 239.34 26.88 238.85 27.48 Q 238.36 28.07 238.36 29.18 L 238.36 32.64 L 237.28 32.64 L 237.28 26.08 L 238.36 26.08 L 238.36 27.1 Q 238.7 26.5 239.24 26.21 Q 239.79 25.92 240.57 25.92 Q 240.68 25.92 240.82 25.94 Q 240.95 25.95 241.11 25.98 L 241.12 27.09 z M 245.23 29.34 Q 243.93 29.34 243.42 29.64 Q 242.92 29.94 242.92 30.66 Q 242.92 31.24 243.29 31.58 Q 243.67 31.91 244.33 31.91 Q 245.22 31.91 245.76 31.28 Q 246.31 30.64 246.31 29.58 L 246.31 29.34 L 245.23 29.34 M 247.38 28.9 L 247.38 32.64 L 246.31 32.64 L 246.31 31.65 Q 245.94 32.24 245.39 32.53 Q 244.83 32.81 244.04 32.81 Q 243.03 32.81 242.43 32.25 Q 241.84 31.68 241.84 30.73 Q 241.84 29.62 242.58 29.06 Q 243.32 28.5 244.79 28.5 L 246.31 28.5 L 246.31 28.39 Q 246.31 27.65 245.81 27.25 Q 245.33 26.84 244.44 26.84 Q 243.88 26.84 243.35 26.97 Q 242.81 27.1 242.32 27.37 L 242.32 26.38 Q 242.91 26.15 243.47 26.04 Q 244.03 25.92 244.55 25.92 Q 245.98 25.92 246.68 26.66 Q 247.38 27.4 247.38 28.9 z M 250.65 31.66 L 250.65 35.14 L 249.56 35.14 L 249.56 26.08 L 250.65 26.08 L 250.65 27.08 Q 250.99 26.49 251.5 26.21 Q 252.02 25.92 252.74 25.92 Q 253.94 25.92 254.68 26.87 Q 255.43 27.82 255.43 29.37 Q 255.43 30.91 254.68 31.86 Q 253.94 32.81 252.74 32.81 Q 252.02 32.81 251.5 32.53 Q 250.99 32.24 250.65 31.66 M 254.32 29.37 Q 254.32 28.18 253.82 27.5 Q 253.34 26.82 252.48 26.82 Q 251.63 26.82 251.13 27.5 Q 250.65 28.18 250.65 29.37 Q 250.65 30.56 251.13 31.24 Q 251.63 31.91 252.48 31.91 Q 253.34 31.91 253.82 31.24 Q 254.32 30.56 254.32 29.37 z M 262.68 28.68 L 262.68 32.64 L 261.6 32.64 L 261.6 28.72 Q 261.6 27.78 261.24 27.32 Q 260.87 26.86 260.15 26.86 Q 259.27 26.86 258.77 27.42 Q 258.26 27.97 258.26 28.93 L 258.26 32.64 L 257.18 32.64 L 257.18 23.52 L 258.26 23.52 L 258.26 27.1 Q 258.65 26.51 259.17 26.21 Q 259.7 25.92 260.39 25.92 Q 261.52 25.92 262.1 26.62 Q 262.68 27.32 262.68 28.68 z M 264.83 23.52 L 265.91 23.52 L 265.91 32.64 L 264.83 32.64 L 264.83 23.52 z M 268.16 26.08 L 269.24 26.08 L 269.24 32.64 L 268.16 32.64 L 268.16 26.08 M 268.16 23.52 L 269.24 23.52 L 269.24 24.89 L 268.16 24.89 L 268.16 23.52 z M 276.21 29.37 Q 276.21 28.18 275.71 27.5 Q 275.23 26.82 274.37 26.82 Q 273.52 26.82 273.02 27.5 Q 272.54 28.18 272.54 29.37 Q 272.54 30.56 273.02 31.24 Q 273.52 31.91 274.37 31.91 Q 275.23 31.91 275.71 31.24 Q 276.21 30.56 276.21 29.37 M 272.54 27.08 Q 272.88 26.49 273.39 26.21 Q 273.91 25.92 274.64 25.92 Q 275.83 25.92 276.58 26.87 Q 277.33 27.82 277.33 29.37 Q 277.33 30.91 276.58 31.86 Q 275.83 32.81 274.64 32.81 Q 273.91 32.81 273.39 32.53 Q 272.88 32.24 272.54 31.66 L 272.54 32.64 L 271.45 32.64 L 271.45 23.52 L 272.54 23.52 L 272.54 27.08 z" fill="#000000"/>
</g>
</g>
</g>
</svg>
