<?xml version="1.0" encoding="utf-8" standalone="no"?>
<!DOCTYPE svg PUBLIC "-//W3C//DTD SVG 1.1//EN" "http://www.w3.org/Graphics/SVG/1.1/DTD/svg11.dtd">
<svg xmlns="http://www.w3.org/2000/svg" width="460.8pt" height="345.6pt" viewBox="0 0 460.8 345.6" version="1.1">
<defs>
<path id="m1" d="M 0 3 C 0.8 3 1.56 2.68 2.12 2.12 C 2.68 1.56 3 0.8 3 0 C 3 -0.8 2.68 -1.56 2.12 -2.12 C 1.56 -2.68 0.8 -3 0 -3 C -0.8 -3 -1.56 -2.68 -2.12 -2.12 C -2.68 -1.56 -3 -0.8 -3 0 C -3 0.8 -2.68 1.56 -2.12 2.12 C -1.56 2.68 -0.8 3 0 3 z"/>
<clipPath id="p1"><rect x="57.6" y="41.47" width="357.12" height="266.11"/></clipPath>
</defs>
<g id="figure_1">
<path d="M 0 345.6 L 460.8 345.6 L 460.8 0 L 0 0 z" fill="#ffffff"/>
<g id="axes_1">
<path d="M 57.6 307.58 L 414.72 307.58 L 414.72 41.47 L 57.6 41.47 z" fill="#ffffff"/>
<g id="grid_1">
<path d="M 73.83 307.58 L 73.83 41.47" fill="none" stroke="#b0b0b0" stroke-width="0.8" stroke-linejoin="round"/>
<path d="M 125.5 307.58 L 125.5 41.47" fill="none" stroke="#b0b0b0" stroke-width="0.8" stroke-linejoin="round"/>
<path d="M 177.17 307.58 L 177.17 41.47" fill="none" stroke="#b0b0b0" stroke-width="0.8" stroke-linejoin="round"/>
<path d="M 228.84 307.58 L 228.84 41.47" fill="none" stroke="#b0b0b0" stroke-width="0.8" stroke-linejoin="round"/>
<path d="M 280.51 307.58 L 280.51 41.47" fill="none" stroke="#b0b0b0" stroke-width="0.8" stroke-linejoin="round"/>
<path d="M 332.18 307.58 L 332.18 41.47" fill="none" stroke="#b0b0b0" stroke-width="0.8" stroke-linejoin="round"/>
<path d="M 383.85 307.58 L 383.85 41.47" fill="none" stroke="#b0b0b0" stroke-width="0.8" stroke-linejoin="round"/>
<path d="M 57.6 293.79 L 414.72 293.79" fill="none" stroke="#b0b0b0" stroke-width="0.8" stroke-linejoin="round"/>
<path d="M 57.6 259.47 L 414.72 259.47" fill="none" stroke="#b0b0b0" stroke-width="0.8" stroke-linejoin="round"/>
<path d="M 57.6 225.16 L 414.72 225.16" fill="none" stroke="#b0b0b0" stroke-width="0.8" stroke-linejoin="round"/>
<path d="M 57.6 190.84 L 414.72 190.84" fill="none" stroke="#b0b0b0" stroke-width="0.8" stroke-linejoin="round"/>
<path d="M 57.6 156.52 L 414.72 156.52" fill="none" stroke="#b0b0b0" stroke-width="0.8" stroke-linejoin="round"/>
<path d="M 57.6 122.2 L 414.72 122.2" fill="none" stroke="#b0b0b0" stroke-width="0.8" stroke-linejoin="round"/>
<path d="M 57.6 87.89 L 414.72 87.89" fill="none" stroke="#b0b0b0" stroke-width="0.8" stroke-linejoin="round"/>
<path d="M 57.6 53.57 L 414.72 53.57" fill="none" stroke="#b0b0b0" stroke-width="0.8" stroke-linejoin="round"/>
</g>
<g id="pathcollection_1">
<g clip-path="url(#p1)" fill="#d62728" stroke="#d62728" stroke-width="1" stroke-linejoin="round">
<use href="#m1" x="86.75" y="122.88"/>
<use href="#m1" x="125.5" y="254.07"/>
<use href="#m1" x="164.26" y="134.75"/>
<use href="#m1" x="203.01" y="238.85"/>
<use href="#m1" x="241.76" y="150.9"/>
<use href="#m1" x="280.51" y="223.26"/>
<use href="#m1" x="319.27" y="165.1"/>
<use href="#m1" x="358.02" y="210.86"/>
</g>
</g>
<g id="line2d_1">
<path clip-path="url(#p1)" d="M 73.83 53.57 L 75.46 56.16 L 77.1 60.83 L 78.73 67.46 L 80.36 75.91 L 81.99 86 L 83.62 97.53 L 85.25 110.29 L 88.52 138.56 L 98.3 227.82 L 99.94 240.86 L 101.57 252.82 L 103.2 263.54 L 104.83 272.86 L 106.46 280.68 L 108.09 286.9 L 109.72 291.46 L 111.36 294.33 L 112.99 295.49 L 114.62 294.96 L 116.25 292.79 L 117.88 289.05 L 119.51 283.83 L 121.14 277.25 L 122.78 269.45 L 124.41 260.56 L 126.04 250.76 L 129.3 229.14 L 137.46 171.97 L 140.72 151.65 L 142.35 142.68 L 143.98 134.67 L 145.62 127.72 L 147.25 121.93 L 148.88 117.36 L 150.51 114.05 L 152.14 112.04 L 153.77 111.32 L 155.4 111.88 L 157.04 113.68 L 158.67 116.67 L 160.3 120.77 L 161.93 125.89 L 163.56 131.93 L 165.19 138.77 L 166.82 146.29 L 170.09 162.82 L 178.24 206.19 L 181.51 221.49 L 183.14 228.22 L 184.77 234.21 L 186.4 239.38 L 188.03 243.67 L 189.66 247.02 L 191.3 249.41 L 192.93 250.82 L 194.56 251.24 L 196.19 250.7 L 197.82 249.22 L 199.45 246.84 L 201.08 243.63 L 202.72 239.64 L 204.35 234.97 L 205.98 229.71 L 209.24 217.77 L 214.14 197.94 L 217.4 184.71 L 220.66 172.43 L 222.29 166.88 L 223.92 161.84 L 225.56 157.36 L 227.19 153.52 L 228.82 150.35 L 230.45 147.89 L 232.08 146.17 L 233.71 145.19 L 235.34 144.96 L 236.98 145.47 L 238.61 146.68 L 240.24 148.57 L 241.87 151.09 L 243.5 154.18 L 245.13 157.79 L 246.76 161.84 L 250.03 170.99 L 254.92 186.08 L 258.18 196.11 L 261.45 205.37 L 263.08 209.54 L 264.71 213.32 L 266.34 216.66 L 267.97 219.52 L 269.6 221.86 L 271.24 223.66 L 272.87 224.9 L 274.5 225.57 L 276.13 225.67 L 277.76 225.22 L 279.39 224.23 L 281.02 222.74 L 282.66 220.77 L 284.29 218.36 L 285.92 215.58 L 287.55 212.46 L 290.81 205.46 L 295.71 193.97 L 298.97 186.38 L 302.23 179.39 L 303.86 176.26 L 305.5 173.42 L 307.13 170.93 L 308.76 168.81 L 310.39 167.08 L 312.02 165.76 L 313.65 164.88 L 315.28 164.42 L 316.92 164.4 L 318.55 164.79 L 320.18 165.59 L 321.81 166.78 L 323.44 168.31 L 325.07 170.18 L 326.7 172.33 L 328.34 174.73 L 331.6 180.08 L 341.39 197.29 L 344.65 202.2 L 346.28 204.32 L 347.91 206.18 L 349.54 207.76 L 351.18 209.03 L 352.81 209.99 L 354.44 210.62 L 356.07 210.92 L 357.7 210.9 L 359.33 210.56 L 360.96 209.92 L 362.6 208.99 L 364.23 207.78 L 365.86 206.34 L 367.49 204.68 L 370.75 200.85 L 374.02 196.55 L 380.54 187.73 L 383.8 183.77 L 385.44 182 L 387.07 180.41 L 388.7 179.02 L 390.33 177.85 L 391.96 176.91 L 393.59 176.22 L 395.22 175.77 L 396.86 175.57 L 398.49 175.62 L 398.49 175.62" fill="none" stroke="#1f77b4" stroke-width="1.5" stroke-linecap="square" stroke-linejoin="round"/>
</g>
<g id="line2d_2">
<path clip-path="url(#p1)" d="M 73.83 53.57 L 80.36 59.5 L 86.88 65.18 L 93.41 70.62 L 99.94 75.81 L 108.09 82 L 116.25 87.85 L 124.41 93.38 L 132.56 98.62 L 140.72 103.58 L 148.88 108.27 L 157.04 112.71 L 165.19 116.91 L 173.35 120.88 L 181.51 124.64 L 191.3 128.89 L 201.08 132.86 L 210.87 136.58 L 220.66 140.06 L 230.45 143.32 L 240.24 146.37 L 251.66 149.68 L 263.08 152.74 L 274.5 155.58 L 285.92 158.2 L 298.97 160.97 L 312.02 163.49 L 325.07 165.81 L 339.76 168.18 L 354.44 170.32 L 370.75 172.47 L 387.07 174.39 L 398.49 175.62 L 398.49 175.62" fill="none" stroke="#ff7f0e" stroke-width="1.5" stroke-dasharray="5.55,2.4" stroke-linejoin="round"/>
</g>
<g id="spines_1">
<path d="M 57.6 307.58 L 414.72 307.58 L 414.72 41.47 L 57.6 41.47 z" fill="none" stroke="#000000" stroke-width="0.8" stroke-linecap="square" stroke-linejoin="round"/>
</g>
<g id="xtick_1">
<path d="M 73.83 307.58 L 73.83 311.08" fill="none" stroke="#000000" stroke-width="0.8" stroke-linejoin="round"/>
<path d="M 73.83 317.23 Q 73.07 317.23 72.68 317.98 Q 72.3 318.72 72.3 320.23 Q 72.3 321.73 72.68 322.48 Q 73.07 323.23 73.83 323.23 Q 74.6 323.23 74.98 322.48 Q 75.36 321.73 75.36 320.23 Q 75.36 318.72 74.98 317.98 Q 74.6 317.23 73.83 317.23 M 73.83 316.44 Q 75.06 316.44 75.7 317.42 Q 76.35 318.38 76.35 320.23 Q 76.35 322.07 75.7 323.04 Q 75.06 324.01 73.83 324.01 Q 72.6 324.01 71.96 323.04 Q 71.31 322.07 71.31 320.23 Q 71.31 318.38 71.96 317.42 Q 72.6 316.44 73.83 316.44 z" fill="#000000"/>
<path d="M 125.5 307.58 L 125.5 311.08" fill="none" stroke="#000000" stroke-width="0.8" stroke-linejoin="round"/>
<path d="M 123.56 323.04 L 125.17 323.04 L 125.17 317.47 L 123.42 317.83 L 123.42 316.93 L 125.16 316.58 L 126.15 316.58 L 126.15 323.04 L 127.76 323.04 L 127.76 323.87 L 123.56 323.87 L 123.56 323.04 z" fill="#000000"/>
<path d="M 177.17 307.58 L 177.17 311.08" fill="none" stroke="#000000" stroke-width="0.8" stroke-linejoin="round"/>
<path d="M 175.91 323.04 L 179.35 323.04 L 179.35 323.87 L 174.72 323.87 L 174.72 323.04 Q 175.29 322.46 176.25 321.48 Q 177.22 320.5 177.47 320.21 Q 177.95 319.68 178.13 319.32 Q 178.32 318.94 178.32 318.59 Q 178.32 318.01 177.91 317.64 Q 177.51 317.27 176.85 317.27 Q 176.39 317.27 175.87 317.44 Q 175.36 317.6 174.77 317.92 L 174.77 316.93 Q 175.37 316.69 175.89 316.57 Q 176.4 316.44 176.83 316.44 Q 177.97 316.44 178.64 317.01 Q 179.31 317.58 179.31 318.52 Q 179.31 318.97 179.14 319.38 Q 178.98 319.78 178.53 320.33 Q 178.41 320.47 177.76 321.15 Q 177.1 321.82 175.91 323.04 z" fill="#000000"/>
<path d="M 228.84 307.58 L 228.84 311.08" fill="none" stroke="#000000" stroke-width="0.8" stroke-linejoin="round"/>
<path d="M 229.72 319.94 Q 230.43 320.09 230.82 320.57 Q 231.22 321.04 231.22 321.75 Q 231.22 322.83 230.48 323.42 Q 229.74 324.01 228.37 324.01 Q 227.91 324.01 227.43 323.92 Q 226.94 323.83 226.42 323.65 L 226.42 322.69 Q 226.83 322.93 227.32 323.06 Q 227.81 323.18 228.34 323.18 Q 229.27 323.18 229.75 322.81 Q 230.24 322.45 230.24 321.75 Q 230.24 321.1 229.79 320.74 Q 229.34 320.38 228.53 320.38 L 227.68 320.38 L 227.68 319.56 L 228.57 319.56 Q 229.3 319.56 229.69 319.28 Q 230.07 318.98 230.07 318.44 Q 230.07 317.88 229.67 317.58 Q 229.28 317.27 228.53 317.27 Q 228.13 317.27 227.66 317.36 Q 227.2 317.45 226.64 317.64 L 226.64 316.76 Q 227.21 316.6 227.69 316.52 Q 228.19 316.44 228.62 316.44 Q 229.74 316.44 230.4 316.96 Q 231.05 317.46 231.05 318.33 Q 231.05 318.94 230.71 319.36 Q 230.36 319.77 229.72 319.94 z" fill="#000000"/>
<path d="M 280.51 307.58 L 280.51 311.08" fill="none" stroke="#000000" stroke-width="0.8" stroke-linejoin="round"/>
<path d="M 281.11 317.44 L 278.62 321.33 L 281.11 321.33 L 281.11 317.44 M 280.85 316.58 L 282.09 316.58 L 282.09 321.33 L 283.13 321.33 L 283.13 322.15 L 282.09 322.15 L 282.09 323.87 L 281.11 323.87 L 281.11 322.15 L 277.82 322.15 L 277.82 321.2 L 280.85 316.58 z" fill="#000000"/>
<path d="M 332.18 307.58 L 332.18 311.08" fill="none" stroke="#000000" stroke-width="0.8" stroke-linejoin="round"/>
<path d="M 330.08 316.58 L 333.95 316.58 L 333.95 317.41 L 330.99 317.41 L 330.99 319.19 Q 331.2 319.12 331.42 319.09 Q 331.63 319.05 331.85 319.05 Q 333.07 319.05 333.78 319.72 Q 334.49 320.38 334.49 321.53 Q 334.49 322.7 333.76 323.36 Q 333.03 324.01 331.69 324.01 Q 331.23 324.01 330.76 323.93 Q 330.28 323.85 329.77 323.7 L 329.77 322.7 Q 330.21 322.94 330.68 323.06 Q 331.15 323.18 331.67 323.18 Q 332.52 323.18 333.01 322.73 Q 333.51 322.29 333.51 321.53 Q 333.51 320.77 333.01 320.32 Q 332.52 319.88 331.67 319.88 Q 331.28 319.88 330.88 319.96 Q 330.49 320.05 330.08 320.24 L 330.08 316.58 z" fill="#000000"/>
<path d="M 383.85 307.58 L 383.85 311.08" fill="none" stroke="#000000" stroke-width="0.8" stroke-linejoin="round"/>
<path d="M 383.97 319.83 Q 383.31 319.83 382.92 320.28 Q 382.53 320.74 382.53 321.53 Q 382.53 322.31 382.92 322.77 Q 383.31 323.23 383.97 323.23 Q 384.64 323.23 385.02 322.77 Q 385.42 322.31 385.42 321.53 Q 385.42 320.74 385.02 320.28 Q 384.64 319.83 383.97 319.83 M 385.93 316.74 L 385.93 317.64 Q 385.56 317.46 385.18 317.37 Q 384.8 317.27 384.43 317.27 Q 383.46 317.27 382.94 317.93 Q 382.43 318.59 382.35 319.93 Q 382.64 319.5 383.08 319.28 Q 383.51 319.05 384.03 319.05 Q 385.13 319.05 385.77 319.72 Q 386.41 320.38 386.41 321.53 Q 386.41 322.65 385.74 323.33 Q 385.08 324.01 383.97 324.01 Q 382.71 324.01 382.04 323.04 Q 381.37 322.07 381.37 320.23 Q 381.37 318.5 382.19 317.47 Q 383.01 316.44 384.39 316.44 Q 384.77 316.44 385.14 316.52 Q 385.52 316.59 385.93 316.74 z" fill="#000000"/>
</g>
<g id="ytick_1">
<path d="M 57.6 293.79 L 54.1 293.79" fill="none" stroke="#000000" stroke-width="0.8" stroke-linejoin="round"/>
<path d="M 21.02 293.7 L 27.27 293.7 L 27.27 294.53 L 21.02 294.53 L 21.02 293.7 z M 31.51 290.61 Q 30.75 290.61 30.37 291.36 Q 29.98 292.11 29.98 293.62 Q 29.98 295.11 30.37 295.87 Q 30.75 296.61 31.51 296.61 Q 32.28 296.61 32.66 295.87 Q 33.05 295.11 33.05 293.62 Q 33.05 292.11 32.66 291.36 Q 32.28 290.61 31.51 290.61 M 31.51 289.83 Q 32.74 289.83 33.38 290.8 Q 34.03 291.77 34.03 293.62 Q 34.03 295.46 33.38 296.43 Q 32.74 297.4 31.51 297.4 Q 30.29 297.4 29.64 296.43 Q 28.99 295.46 28.99 293.62 Q 28.99 291.77 29.64 290.8 Q 30.29 289.83 31.51 289.83 z M 35.77 296.01 L 36.8 296.01 L 36.8 297.25 L 35.77 297.25 L 35.77 296.01 z M 38.7 289.96 L 43.38 289.96 L 43.38 290.38 L 40.74 297.25 L 39.71 297.25 L 42.2 290.79 L 38.7 290.79 L 38.7 289.96 z M 45.32 289.96 L 49.19 289.96 L 49.19 290.79 L 46.22 290.79 L 46.22 292.58 Q 46.43 292.51 46.65 292.47 Q 46.86 292.43 47.08 292.43 Q 48.3 292.43 49.01 293.1 Q 49.73 293.77 49.73 294.91 Q 49.73 296.09 48.99 296.75 Q 48.26 297.4 46.93 297.4 Q 46.47 297.4 45.99 297.32 Q 45.52 297.24 45.01 297.08 L 45.01 296.09 Q 45.45 296.33 45.92 296.45 Q 46.39 296.56 46.91 296.56 Q 47.75 296.56 48.25 296.12 Q 48.74 295.68 48.74 294.91 Q 48.74 294.15 48.25 293.71 Q 47.75 293.26 46.91 293.26 Q 46.51 293.26 46.12 293.35 Q 45.73 293.44 45.32 293.63 L 45.32 289.96 z" fill="#000000"/>
<path d="M 57.6 259.47 L 54.1 259.47" fill="none" stroke="#000000" stroke-width="0.8" stroke-linejoin="round"/>
<path d="M 21.02 259.39 L 27.27 259.39 L 27.27 260.22 L 21.02 260.22 L 21.02 259.39 z M 31.51 256.3 Q 30.75 256.3 30.37 257.05 Q 29.98 257.79 29.98 259.3 Q 29.98 260.8 30.37 261.55 Q 30.75 262.3 31.51 262.3 Q 32.28 262.3 32.66 261.55 Q 33.05 260.8 33.05 259.3 Q 33.05 257.79 32.66 257.05 Q 32.28 256.3 31.51 256.3 M 31.51 255.51 Q 32.74 255.51 33.38 256.49 Q 34.03 257.45 34.03 259.3 Q 34.03 261.14 33.38 262.11 Q 32.74 263.08 31.51 263.08 Q 30.29 263.08 29.64 262.11 Q 28.99 261.14 28.99 259.3 Q 28.99 257.45 29.64 256.49 Q 30.29 255.51 31.51 255.51 z M 35.77 261.7 L 36.8 261.7 L 36.8 262.94 L 35.77 262.94 L 35.77 261.7 z M 38.95 255.65 L 42.83 255.65 L 42.83 256.48 L 39.86 256.48 L 39.86 258.26 Q 40.07 258.19 40.29 258.16 Q 40.5 258.12 40.72 258.12 Q 41.94 258.12 42.65 258.79 Q 43.36 259.45 43.36 260.6 Q 43.36 261.77 42.63 262.43 Q 41.9 263.08 40.57 263.08 Q 40.11 263.08 39.63 263 Q 39.15 262.92 38.65 262.76 L 38.65 261.77 Q 39.09 262.01 39.56 262.13 Q 40.02 262.25 40.55 262.25 Q 41.39 262.25 41.88 261.8 Q 42.38 261.36 42.38 260.6 Q 42.38 259.84 41.88 259.39 Q 41.39 258.95 40.55 258.95 Q 40.15 258.95 39.76 259.03 Q 39.36 259.12 38.95 259.31 L 38.95 255.65 z M 47.42 256.3 Q 46.65 256.3 46.27 257.05 Q 45.89 257.79 45.89 259.3 Q 45.89 260.8 46.27 261.55 Q 46.65 262.3 47.42 262.3 Q 48.18 262.3 48.56 261.55 Q 48.95 260.8 48.95 259.3 Q 48.95 257.79 48.56 257.05 Q 48.18 256.3 47.42 256.3 M 47.42 255.51 Q 48.64 255.51 49.29 256.49 Q 49.94 257.45 49.94 259.3 Q 49.94 261.14 49.29 262.11 Q 48.64 263.08 47.42 263.08 Q 46.19 263.08 45.54 262.11 Q 44.9 261.14 44.9 259.3 Q 44.9 257.45 45.54 256.49 Q 46.19 255.51 47.42 255.51 z" fill="#000000"/>
<path d="M 57.6 225.16 L 54.1 225.16" fill="none" stroke="#000000" stroke-width="0.8" stroke-linejoin="round"/>
<path d="M 21.02 225.07 L 27.27 225.07 L 27.27 225.9 L 21.02 225.9 L 21.02 225.07 z M 31.51 221.98 Q 30.75 221.98 30.37 222.73 Q 29.98 223.48 29.98 224.98 Q 29.98 226.48 30.37 227.23 Q 30.75 227.98 31.51 227.98 Q 32.28 227.98 32.66 227.23 Q 33.05 226.48 33.05 224.98 Q 33.05 223.48 32.66 222.73 Q 32.28 221.98 31.51 221.98 M 31.51 221.2 Q 32.74 221.2 33.38 222.17 Q 34.03 223.13 34.03 224.98 Q 34.03 226.82 33.38 227.79 Q 32.74 228.76 31.51 228.76 Q 30.29 228.76 29.64 227.79 Q 28.99 226.82 28.99 224.98 Q 28.99 223.13 29.64 222.17 Q 30.29 221.2 31.51 221.2 z M 35.77 227.38 L 36.8 227.38 L 36.8 228.62 L 35.77 228.62 L 35.77 227.38 z M 39.79 227.79 L 43.24 227.79 L 43.24 228.62 L 38.61 228.62 L 38.61 227.79 Q 39.17 227.21 40.14 226.23 Q 41.11 225.25 41.36 224.97 Q 41.83 224.43 42.02 224.07 Q 42.21 223.7 42.21 223.34 Q 42.21 222.76 41.8 222.39 Q 41.39 222.03 40.74 222.03 Q 40.27 222.03 39.76 222.19 Q 39.24 222.35 38.66 222.68 L 38.66 221.68 Q 39.25 221.44 39.77 221.32 Q 40.29 221.2 40.72 221.2 Q 41.85 221.2 42.52 221.76 Q 43.2 222.33 43.2 223.28 Q 43.2 223.73 43.03 224.13 Q 42.86 224.53 42.42 225.08 Q 42.29 225.22 41.64 225.9 Q 40.99 226.57 39.79 227.79 z M 45.32 221.33 L 49.19 221.33 L 49.19 222.16 L 46.22 222.16 L 46.22 223.95 Q 46.43 223.87 46.65 223.84 Q 46.86 223.8 47.08 223.8 Q 48.3 223.8 49.01 224.47 Q 49.73 225.14 49.73 226.28 Q 49.73 227.46 48.99 228.11 Q 48.26 228.76 46.93 228.76 Q 46.47 228.76 45.99 228.68 Q 45.52 228.6 45.01 228.45 L 45.01 227.46 Q 45.45 227.7 45.92 227.81 Q 46.39 227.93 46.91 227.93 Q 47.75 227.93 48.25 227.49 Q 48.74 227.04 48.74 226.28 Q 48.74 225.52 48.25 225.07 Q 47.75 224.63 46.91 224.63 Q 46.51 224.63 46.12 224.72 Q 45.73 224.8 45.32 224.99 L 45.32 221.33 z" fill="#000000"/>
<path d="M 57.6 190.84 L 54.1 190.84" fill="none" stroke="#000000" stroke-width="0.8" stroke-linejoin="round"/>
<path d="M 31.51 187.66 Q 30.75 187.66 30.37 188.41 Q 29.98 189.16 29.98 190.66 Q 29.98 192.16 30.37 192.91 Q 30.75 193.66 31.51 193.66 Q 32.28 193.66 32.66 192.91 Q 33.05 192.16 33.05 190.66 Q 33.05 189.16 32.66 188.41 Q 32.28 187.66 31.51 187.66 M 31.51 186.88 Q 32.74 186.88 33.38 187.85 Q 34.03 188.82 34.03 190.66 Q 34.03 192.5 33.38 193.48 Q 32.74 194.44 31.51 194.44 Q 30.29 194.44 29.64 193.48 Q 28.99 192.5 28.99 190.66 Q 28.99 188.82 29.64 187.85 Q 30.29 186.88 31.51 186.88 z M 35.77 193.06 L 36.8 193.06 L 36.8 194.3 L 35.77 194.3 L 35.77 193.06 z M 41.05 187.66 Q 40.29 187.66 39.91 188.41 Q 39.53 189.16 39.53 190.66 Q 39.53 192.16 39.91 192.91 Q 40.29 193.66 41.05 193.66 Q 41.82 193.66 42.2 192.91 Q 42.59 192.16 42.59 190.66 Q 42.59 189.16 42.2 188.41 Q 41.82 187.66 41.05 187.66 M 41.05 186.88 Q 42.28 186.88 42.92 187.85 Q 43.57 188.82 43.57 190.66 Q 43.57 192.5 42.92 193.48 Q 42.28 194.44 41.05 194.44 Q 39.83 194.44 39.18 193.48 Q 38.53 192.5 38.53 190.66 Q 38.53 188.82 39.18 187.85 Q 39.83 186.88 41.05 186.88 z M 47.42 187.66 Q 46.65 187.66 46.27 188.41 Q 45.89 189.16 45.89 190.66 Q 45.89 192.16 46.27 192.91 Q 46.65 193.66 47.42 193.66 Q 48.18 193.66 48.56 192.91 Q 48.95 192.16 48.95 190.66 Q 48.95 189.16 48.56 188.41 Q 48.18 187.66 47.42 187.66 M 47.42 186.88 Q 48.64 186.88 49.29 187.85 Q 49.94 188.82 49.94 190.66 Q 49.94 192.5 49.29 193.48 Q 48.64 194.44 47.42 194.44 Q 46.19 194.44 45.54 193.48 Q 44.9 192.5 44.9 190.66 Q 44.9 188.82 45.54 187.85 Q 46.19 186.88 47.42 186.88 z" fill="#000000"/>
<path d="M 57.6 156.52 L 54.1 156.52" fill="none" stroke="#000000" stroke-width="0.8" stroke-linejoin="round"/>
<path d="M 31.51 153.34 Q 30.75 153.34 30.37 154.09 Q 29.98 154.84 29.98 156.35 Q 29.98 157.84 30.37 158.6 Q 30.75 159.34 31.51 159.34 Q 32.28 159.34 32.66 158.6 Q 33.05 157.84 33.05 156.35 Q 33.05 154.84 32.66 154.09 Q 32.28 153.34 31.51 153.34 M 31.51 152.56 Q 32.74 152.56 33.38 153.53 Q 34.03 154.5 34.03 156.35 Q 34.03 158.19 33.38 159.16 Q 32.74 160.12 31.51 160.12 Q 30.29 160.12 29.64 159.16 Q 28.99 158.19 28.99 156.35 Q 28.99 154.5 29.64 153.53 Q 30.29 152.56 31.51 152.56 z M 35.77 158.74 L 36.8 158.74 L 36.8 159.98 L 35.77 159.98 L 35.77 158.74 z M 39.79 159.15 L 43.24 159.15 L 43.24 159.98 L 38.61 159.98 L 38.61 159.15 Q 39.17 158.57 40.14 157.6 Q 41.11 156.61 41.36 156.33 Q 41.83 155.8 42.02 155.43 Q 42.21 155.06 42.21 154.7 Q 42.21 154.12 41.8 153.76 Q 41.39 153.39 40.74 153.39 Q 40.27 153.39 39.76 153.55 Q 39.24 153.71 38.66 154.04 L 38.66 153.04 Q 39.25 152.81 39.77 152.68 Q 40.29 152.56 40.72 152.56 Q 41.85 152.56 42.52 153.13 Q 43.2 153.69 43.2 154.64 Q 43.2 155.09 43.03 155.5 Q 42.86 155.9 42.42 156.44 Q 42.29 156.58 41.64 157.26 Q 40.99 157.94 39.79 159.15 z M 45.32 152.69 L 49.19 152.69 L 49.19 153.52 L 46.22 153.52 L 46.22 155.31 Q 46.43 155.24 46.65 155.2 Q 46.86 155.16 47.08 155.16 Q 48.3 155.16 49.01 155.83 Q 49.73 156.5 49.73 157.64 Q 49.73 158.82 48.99 159.48 Q 48.26 160.12 46.93 160.12 Q 46.47 160.12 45.99 160.05 Q 45.52 159.97 45.01 159.81 L 45.01 158.82 Q 45.45 159.06 45.92 159.18 Q 46.39 159.29 46.91 159.29 Q 47.75 159.29 48.25 158.85 Q 48.74 158.41 48.74 157.64 Q 48.74 156.88 48.25 156.44 Q 47.75 155.99 46.91 155.99 Q 46.51 155.99 46.12 156.08 Q 45.73 156.17 45.32 156.35 L 45.32 152.69 z" fill="#000000"/>
<path d="M 57.6 122.2 L 54.1 122.2" fill="none" stroke="#000000" stroke-width="0.8" stroke-linejoin="round"/>
<path d="M 31.51 119.02 Q 30.75 119.02 30.37 119.78 Q 29.98 120.52 29.98 122.03 Q 29.98 123.53 30.37 124.28 Q 30.75 125.03 31.51 125.03 Q 32.28 125.03 32.66 124.28 Q 33.05 123.53 33.05 122.03 Q 33.05 120.52 32.66 119.78 Q 32.28 119.02 31.51 119.02 M 31.51 118.24 Q 32.74 118.24 33.38 119.22 Q 34.03 120.18 34.03 122.03 Q 34.03 123.87 33.38 124.84 Q 32.74 125.81 31.51 125.81 Q 30.29 125.81 29.64 124.84 Q 28.99 123.87 28.99 122.03 Q 28.99 120.18 29.64 119.22 Q 30.29 118.24 31.51 118.24 z M 35.77 124.42 L 36.8 124.42 L 36.8 125.67 L 35.77 125.67 L 35.77 124.42 z M 38.95 118.38 L 42.83 118.38 L 42.83 119.21 L 39.86 119.21 L 39.86 120.99 Q 40.07 120.92 40.29 120.88 Q 40.5 120.85 40.72 120.85 Q 41.94 120.85 42.65 121.51 Q 43.36 122.18 43.36 123.33 Q 43.36 124.5 42.63 125.16 Q 41.9 125.81 40.57 125.81 Q 40.11 125.81 39.63 125.73 Q 39.15 125.65 38.65 125.49 L 38.65 124.5 Q 39.09 124.74 39.56 124.86 Q 40.02 124.98 40.55 124.98 Q 41.39 124.98 41.88 124.53 Q 42.38 124.09 42.38 123.33 Q 42.38 122.56 41.88 122.12 Q 41.39 121.68 40.55 121.68 Q 40.15 121.68 39.76 121.76 Q 39.36 121.85 38.95 122.04 L 38.95 118.38 z M 47.42 119.02 Q 46.65 119.02 46.27 119.78 Q 45.89 120.52 45.89 122.03 Q 45.89 123.53 46.27 124.28 Q 46.65 125.03 47.42 125.03 Q 48.18 125.03 48.56 124.28 Q 48.95 123.53 48.95 122.03 Q 48.95 120.52 48.56 119.78 Q 48.18 119.02 47.42 119.02 M 47.42 118.24 Q 48.64 118.24 49.29 119.22 Q 49.94 120.18 49.94 122.03 Q 49.94 123.87 49.29 124.84 Q 48.64 125.81 47.42 125.81 Q 46.19 125.81 45.54 124.84 Q 44.9 123.87 44.9 122.03 Q 44.9 120.18 45.54 119.22 Q 46.19 118.24 47.42 118.24 z" fill="#000000"/>
<path d="M 57.6 87.89 L 54.1 87.89" fill="none" stroke="#000000" stroke-width="0.8" stroke-linejoin="round"/>
<path d="M 31.51 84.71 Q 30.75 84.71 30.37 85.46 Q 29.98 86.21 29.98 87.71 Q 29.98 89.21 30.37 89.96 Q 30.75 90.71 31.51 90.71 Q 32.28 90.71 32.66 89.96 Q 33.05 89.21 33.05 87.71 Q 33.05 86.21 32.66 85.46 Q 32.28 84.71 31.51 84.71 M 31.51 83.93 Q 32.74 83.93 33.38 84.9 Q 34.03 85.86 34.03 87.71 Q 34.03 89.55 33.38 90.52 Q 32.74 91.49 31.51 91.49 Q 30.29 91.49 29.64 90.52 Q 28.99 89.55 28.99 87.71 Q 28.99 85.86 29.64 84.9 Q 30.29 83.93 31.51 83.93 z M 35.77 90.11 L 36.8 90.11 L 36.8 91.35 L 35.77 91.35 L 35.77 90.11 z M 38.7 84.06 L 43.38 84.06 L 43.38 84.48 L 40.74 91.35 L 39.71 91.35 L 42.2 84.89 L 38.7 84.89 L 38.7 84.06 z M 45.32 84.06 L 49.19 84.06 L 49.19 84.89 L 46.22 84.89 L 46.22 86.67 Q 46.43 86.6 46.65 86.57 Q 46.86 86.53 47.08 86.53 Q 48.3 86.53 49.01 87.2 Q 49.73 87.87 49.73 89.01 Q 49.73 90.19 48.99 90.84 Q 48.26 91.49 46.93 91.49 Q 46.47 91.49 45.99 91.41 Q 45.52 91.33 45.01 91.18 L 45.01 90.19 Q 45.45 90.42 45.92 90.54 Q 46.39 90.66 46.91 90.66 Q 47.75 90.66 48.25 90.21 Q 48.74 89.77 48.74 89.01 Q 48.74 88.25 48.25 87.8 Q 47.75 87.36 46.91 87.36 Q 46.51 87.36 46.12 87.45 Q 45.73 87.53 45.32 87.72 L 45.32 84.06 z" fill="#000000"/>
<path d="M 57.6 53.57 L 54.1 53.57" fill="none" stroke="#000000" stroke-width="0.8" stroke-linejoin="round"/>
<path d="M 29.57 56.2 L 31.19 56.2 L 31.19 50.64 L 29.43 50.99 L 29.43 50.09 L 31.18 49.74 L 32.16 49.74 L 32.16 56.2 L 33.77 56.2 L 33.77 57.03 L 29.57 57.03 L 29.57 56.2 z M 35.77 55.79 L 36.8 55.79 L 36.8 57.03 L 35.77 57.03 L 35.77 55.79 z M 41.05 50.39 Q 40.29 50.39 39.91 51.14 Q 39.53 51.89 39.53 53.39 Q 39.53 54.89 39.91 55.64 Q 40.29 56.39 41.05 56.39 Q 41.82 56.39 42.2 55.64 Q 42.59 54.89 42.59 53.39 Q 42.59 51.89 42.2 51.14 Q 41.82 50.39 41.05 50.39 M 41.05 49.61 Q 42.28 49.61 42.92 50.58 Q 43.57 51.55 43.57 53.39 Q 43.57 55.23 42.92 56.2 Q 42.28 57.17 41.05 57.17 Q 39.83 57.17 39.18 56.2 Q 38.53 55.23 38.53 53.39 Q 38.53 51.55 39.18 50.58 Q 39.83 49.61 41.05 49.61 z M 47.42 50.39 Q 46.65 50.39 46.27 51.14 Q 45.89 51.89 45.89 53.39 Q 45.89 54.89 46.27 55.64 Q 46.65 56.39 47.42 56.39 Q 48.18 56.39 48.56 55.64 Q 48.95 54.89 48.95 53.39 Q 48.95 51.89 48.56 51.14 Q 48.18 50.39 47.42 50.39 M 47.42 49.61 Q 48.64 49.61 49.29 50.58 Q 49.94 51.55 49.94 53.39 Q 49.94 55.23 49.29 56.2 Q 48.64 57.17 47.42 57.17 Q 46.19 57.17 45.54 56.2 Q 44.9 55.23 44.9 53.39 Q 44.9 51.55 45.54 50.58 Q 46.19 49.61 47.42 49.61 z" fill="#000000"/>
</g>
<g id="legend_1">
<path d="M 295.74 99.39 L 409.72 99.39 L 409.72 46.47 L 295.74 46.47 z" fill="#ffffff" fill-opacity="0.8" stroke="#cccccc" stroke-width="1" stroke-linejoin="round"/>
<path d="M 299.74 56.29 L 319.74 56.29" fill="none" stroke="#1f77b4" stroke-width="1.5" stroke-linecap="square" stroke-linejoin="round"/>
<path d="M 333.36 56.8 L 333.36 57.23 L 329.23 57.23 Q 329.28 58.16 329.78 58.65 Q 330.29 59.13 331.18 59.13 Q 331.7 59.13 332.18 59.01 Q 332.67 58.88 333.15 58.63 L 333.15 59.48 Q 332.66 59.68 332.16 59.79 Q 331.65 59.9 331.13 59.9 Q 329.82 59.9 329.05 59.13 Q 328.29 58.37 328.29 57.07 Q 328.29 55.73 329.01 54.94 Q 329.74 54.15 330.97 54.15 Q 332.07 54.15 332.71 54.87 Q 333.36 55.57 333.36 56.8 M 332.46 56.53 Q 332.45 55.79 332.04 55.35 Q 331.64 54.92 330.98 54.92 Q 330.23 54.92 329.77 55.34 Q 329.32 55.76 329.26 56.54 L 332.46 56.53 z M 338.56 52.46 L 341.21 55.18 L 340.23 55.18 L 338.08 53.26 L 335.93 55.18 L 334.95 55.18 L 337.6 52.46 L 338.56 52.46 z M 347.38 60.68 L 347.38 61.39 L 347.08 61.39 Q 345.86 61.39 345.45 61.02 Q 345.04 60.66 345.04 59.58 L 345.04 58.42 Q 345.04 57.68 344.77 57.4 Q 344.51 57.11 343.82 57.11 L 343.52 57.11 L 343.52 56.41 L 343.82 56.41 Q 344.51 56.41 344.77 56.14 Q 345.04 55.85 345.04 55.13 L 345.04 53.95 Q 345.04 52.87 345.45 52.52 Q 345.86 52.16 347.08 52.16 L 347.38 52.16 L 347.38 52.85 L 347.05 52.85 Q 346.36 52.85 346.15 53.07 Q 345.94 53.28 345.94 53.97 L 345.94 55.18 Q 345.94 55.95 345.72 56.3 Q 345.5 56.64 344.96 56.77 Q 345.5 56.9 345.72 57.24 Q 345.94 57.59 345.94 58.35 L 345.94 59.56 Q 345.94 60.25 346.15 60.47 Q 346.36 60.68 347.05 60.68 L 347.38 60.68 z M 349.12 56.61 L 351.75 56.61 L 351.75 57.42 L 349.12 57.42 L 349.12 56.61 z M 354.07 52.73 L 354.07 54.29 L 355.92 54.29 L 355.92 54.98 L 354.07 54.98 L 354.07 57.95 Q 354.07 58.62 354.25 58.81 Q 354.44 59 355 59 L 355.92 59 L 355.92 59.75 L 355 59.75 Q 353.96 59.75 353.56 59.37 Q 353.17 58.98 353.17 57.95 L 353.17 54.98 L 352.51 54.98 L 352.51 54.29 L 353.17 54.29 L 353.17 52.73 L 354.07 52.73 z M 358.7 52.46 L 359.53 52.46 L 356.99 60.68 L 356.16 60.68 L 358.7 52.46 z M 363.59 55.82 Q 364.29 55.97 364.69 56.45 Q 365.09 56.93 365.09 57.64 Q 365.09 58.71 364.35 59.31 Q 363.61 59.9 362.24 59.9 Q 361.78 59.9 361.29 59.81 Q 360.81 59.72 360.29 59.53 L 360.29 58.58 Q 360.7 58.82 361.19 58.94 Q 361.68 59.07 362.21 59.07 Q 363.14 59.07 363.62 58.7 Q 364.11 58.33 364.11 57.64 Q 364.11 56.99 363.65 56.63 Q 363.21 56.26 362.4 56.26 L 361.55 56.26 L 361.55 55.45 L 362.44 55.45 Q 363.17 55.45 363.55 55.16 Q 363.94 54.87 363.94 54.32 Q 363.94 53.76 363.54 53.47 Q 363.14 53.16 362.4 53.16 Q 361.99 53.16 361.53 53.25 Q 361.07 53.34 360.51 53.52 L 360.51 52.64 Q 361.07 52.49 361.56 52.41 Q 362.05 52.33 362.49 52.33 Q 363.61 52.33 364.26 52.85 Q 364.92 53.35 364.92 54.22 Q 364.92 54.83 364.57 55.25 Q 364.23 55.66 363.59 55.82 z M 367.14 60.68 L 367.48 60.68 Q 368.17 60.68 368.37 60.47 Q 368.58 60.26 368.58 59.56 L 368.58 58.35 Q 368.58 57.59 368.8 57.24 Q 369.02 56.9 369.56 56.77 Q 369.02 56.64 368.8 56.3 Q 368.58 55.95 368.58 55.18 L 368.58 53.97 Q 368.58 53.28 368.37 53.07 Q 368.17 52.85 367.48 52.85 L 367.14 52.85 L 367.14 52.16 L 367.45 52.16 Q 368.66 52.16 369.07 52.52 Q 369.48 52.87 369.48 53.95 L 369.48 55.13 Q 369.48 55.85 369.74 56.14 Q 370.01 56.41 370.7 56.41 L 371 56.41 L 371 57.11 L 370.7 57.11 Q 370.01 57.11 369.74 57.4 Q 369.48 57.68 369.48 58.42 L 369.48 59.58 Q 369.48 60.66 369.07 61.02 Q 368.66 61.39 367.45 61.39 L 367.14 61.39 L 367.14 60.68 z z M 380.31 54.5 L 380.31 55.34 Q 379.93 55.13 379.54 55.02 Q 379.16 54.92 378.77 54.92 Q 377.9 54.92 377.41 55.47 Q 376.93 56.02 376.93 57.02 Q 376.93 58.03 377.41 58.58 Q 377.9 59.13 378.77 59.13 Q 379.16 59.13 379.54 59.03 Q 379.93 58.92 380.31 58.71 L 380.31 59.54 Q 379.93 59.72 379.53 59.81 Q 379.13 59.9 378.67 59.9 Q 377.44 59.9 376.71 59.12 Q 375.98 58.34 375.98 57.02 Q 375.98 55.69 376.72 54.92 Q 377.45 54.15 378.73 54.15 Q 379.15 54.15 379.54 54.24 Q 379.94 54.32 380.31 54.5 z M 383.99 54.92 Q 383.27 54.92 382.85 55.48 Q 382.43 56.04 382.43 57.02 Q 382.43 58.01 382.84 58.57 Q 383.26 59.13 383.99 59.13 Q 384.71 59.13 385.13 58.57 Q 385.55 58 385.55 57.02 Q 385.55 56.05 385.13 55.49 Q 384.71 54.92 383.99 54.92 M 383.99 54.15 Q 385.16 54.15 385.83 54.92 Q 386.5 55.68 386.5 57.02 Q 386.5 58.37 385.83 59.13 Q 385.16 59.9 383.99 59.9 Q 382.81 59.9 382.15 59.13 Q 381.48 58.37 381.48 57.02 Q 381.48 55.68 382.15 54.92 Q 382.81 54.15 383.99 54.15 z M 391.48 54.45 L 391.48 55.3 Q 391.1 55.1 390.69 55 Q 390.28 54.91 389.84 54.91 Q 389.17 54.91 388.83 55.11 Q 388.5 55.32 388.5 55.73 Q 388.5 56.04 388.74 56.22 Q 388.98 56.39 389.7 56.56 L 390.01 56.62 Q 390.96 56.83 391.36 57.21 Q 391.77 57.58 391.77 58.25 Q 391.77 59.01 391.16 59.45 Q 390.56 59.9 389.51 59.9 Q 389.07 59.9 388.59 59.81 Q 388.12 59.72 387.59 59.55 L 387.59 58.63 Q 388.09 58.89 388.57 59.02 Q 389.05 59.14 389.53 59.14 Q 390.16 59.14 390.51 58.93 Q 390.85 58.71 390.85 58.31 Q 390.85 57.95 390.6 57.75 Q 390.35 57.56 389.52 57.38 L 389.21 57.3 Q 388.37 57.13 388 56.77 Q 387.63 56.4 387.63 55.76 Q 387.63 54.99 388.18 54.57 Q 388.72 54.15 389.73 54.15 Q 390.23 54.15 390.67 54.23 Q 391.11 54.3 391.48 54.45 z z M 399.22 53.32 L 396.73 57.22 L 399.22 57.22 L 399.22 53.32 M 398.96 52.46 L 400.2 52.46 L 400.2 57.22 L 401.24 57.22 L 401.24 58.04 L 400.2 58.04 L 400.2 59.75 L 399.22 59.75 L 399.22 58.04 L 395.93 58.04 L 395.93 57.08 L 398.96 52.46 z M 403.63 52.73 L 403.63 54.29 L 405.48 54.29 L 405.48 54.98 L 403.63 54.98 L 403.63 57.95 Q 403.63 58.62 403.81 58.81 Q 404 59 404.56 59 L 405.48 59 L 405.48 59.75 L 404.56 59.75 Q 403.52 59.75 403.12 59.37 Q 402.73 58.98 402.73 57.95 L 402.73 54.98 L 402.07 54.98 L 402.07 54.29 L 402.73 54.29 L 402.73 52.73 L 403.63 52.73 z" fill="#000000"/>
<path d="M 299.74 72.93 L 319.74 72.93" fill="none" stroke="#ff7f0e" stroke-width="1.5" stroke-dasharray="5.55,2.4" stroke-linejoin="round"/>
<path d="M 333.36 73.44 L 333.36 73.88 L 329.23 73.88 Q 329.28 74.8 329.78 75.29 Q 330.29 75.77 331.18 75.77 Q 331.7 75.77 332.18 75.65 Q 332.67 75.52 333.15 75.27 L 333.15 76.12 Q 332.66 76.32 332.16 76.43 Q 331.65 76.54 331.13 76.54 Q 329.82 76.54 329.05 75.77 Q 328.29 75.01 328.29 73.71 Q 328.29 72.37 329.01 71.59 Q 329.74 70.79 330.97 70.79 Q 332.07 70.79 332.71 71.51 Q 333.36 72.22 333.36 73.44 M 332.46 73.17 Q 332.45 72.43 332.04 72 Q 331.64 71.56 330.98 71.56 Q 330.23 71.56 329.77 71.98 Q 329.32 72.41 329.26 73.18 L 332.46 73.17 z M 339.38 73.09 L 339.38 76.39 L 338.48 76.39 L 338.48 73.12 Q 338.48 72.35 338.18 71.96 Q 337.87 71.58 337.27 71.58 Q 336.54 71.58 336.12 72.04 Q 335.7 72.5 335.7 73.3 L 335.7 76.39 L 334.8 76.39 L 334.8 70.93 L 335.7 70.93 L 335.7 71.78 Q 336.02 71.28 336.46 71.04 Q 336.9 70.79 337.47 70.79 Q 338.41 70.79 338.89 71.38 Q 339.38 71.96 339.38 73.09 z M 340.52 70.93 L 341.48 70.93 L 343.19 75.52 L 344.89 70.93 L 345.85 70.93 L 343.8 76.39 L 342.58 76.39 L 340.52 70.93 z M 351.76 73.44 L 351.76 73.88 L 347.63 73.88 Q 347.69 74.8 348.19 75.29 Q 348.69 75.77 349.59 75.77 Q 350.1 75.77 350.59 75.65 Q 351.08 75.52 351.55 75.27 L 351.55 76.12 Q 351.07 76.32 350.56 76.43 Q 350.06 76.54 349.53 76.54 Q 348.22 76.54 347.46 75.77 Q 346.7 75.01 346.7 73.71 Q 346.7 72.37 347.42 71.59 Q 348.15 70.79 349.38 70.79 Q 350.48 70.79 351.12 71.51 Q 351.76 72.22 351.76 73.44 M 350.87 73.17 Q 350.86 72.43 350.45 72 Q 350.05 71.56 349.39 71.56 Q 348.64 71.56 348.18 71.98 Q 347.73 72.41 347.66 73.18 L 350.87 73.17 z M 353.24 68.8 L 354.14 68.8 L 354.14 76.39 L 353.24 76.39 L 353.24 68.8 z M 358.14 71.56 Q 357.41 71.56 356.99 72.12 Q 356.57 72.68 356.57 73.67 Q 356.57 74.65 356.99 75.21 Q 357.41 75.77 358.14 75.77 Q 358.85 75.77 359.27 75.21 Q 359.69 74.64 359.69 73.67 Q 359.69 72.69 359.27 72.13 Q 358.85 71.56 358.14 71.56 M 358.14 70.79 Q 359.31 70.79 359.98 71.56 Q 360.65 72.32 360.65 73.67 Q 360.65 75.01 359.98 75.77 Q 359.31 76.54 358.14 76.54 Q 356.96 76.54 356.29 75.77 Q 355.63 75.01 355.63 73.67 Q 355.63 72.32 356.29 71.56 Q 356.96 70.79 358.14 70.79 z M 363.01 75.57 L 363.01 78.47 L 362.1 78.47 L 362.1 70.93 L 363.01 70.93 L 363.01 71.76 Q 363.29 71.27 363.72 71.03 Q 364.15 70.79 364.75 70.79 Q 365.75 70.79 366.37 71.59 Q 366.99 72.38 366.99 73.67 Q 366.99 74.95 366.37 75.75 Q 365.75 76.54 364.75 76.54 Q 364.15 76.54 363.72 76.3 Q 363.29 76.06 363.01 75.57 M 366.06 73.67 Q 366.06 72.67 365.65 72.11 Q 365.25 71.55 364.53 71.55 Q 363.82 71.55 363.41 72.11 Q 363.01 72.67 363.01 73.67 Q 363.01 74.66 363.41 75.22 Q 363.82 75.78 364.53 75.78 Q 365.25 75.78 365.65 75.22 Q 366.06 74.66 366.06 73.67 z M 373.16 73.44 L 373.16 73.88 L 369.03 73.88 Q 369.09 74.8 369.59 75.29 Q 370.09 75.77 370.98 75.77 Q 371.5 75.77 371.98 75.65 Q 372.47 75.52 372.95 75.27 L 372.95 76.12 Q 372.47 76.32 371.96 76.43 Q 371.45 76.54 370.93 76.54 Q 369.62 76.54 368.85 75.77 Q 368.09 75.01 368.09 73.71 Q 368.09 72.37 368.82 71.59 Q 369.54 70.79 370.77 70.79 Q 371.88 70.79 372.52 71.51 Q 373.16 72.22 373.16 73.44 M 372.26 73.17 Q 372.25 72.43 371.85 72 Q 371.45 71.56 370.78 71.56 Q 370.03 71.56 369.58 71.98 Q 369.13 72.41 369.06 73.18 L 372.26 73.17 z" fill="#000000"/>
<g fill="#d62728" stroke="#d62728" stroke-width="1" stroke-linejoin="round">
<use href="#m1" x="309.74" y="89.57"/>
</g>
<path d="M 332.17 87.73 L 332.17 88.58 Q 331.78 88.38 331.37 88.28 Q 330.96 88.19 330.52 88.19 Q 329.86 88.19 329.52 88.39 Q 329.19 88.6 329.19 89.01 Q 329.19 89.32 329.43 89.5 Q 329.67 89.68 330.39 89.84 L 330.7 89.91 Q 331.65 90.11 332.05 90.49 Q 332.46 90.86 332.46 91.53 Q 332.46 92.29 331.85 92.73 Q 331.25 93.18 330.2 93.18 Q 329.76 93.18 329.28 93.09 Q 328.81 93.01 328.28 92.84 L 328.28 91.91 Q 328.78 92.17 329.26 92.3 Q 329.74 92.43 330.22 92.43 Q 330.85 92.43 331.19 92.21 Q 331.54 91.99 331.54 91.6 Q 331.54 91.23 331.29 91.03 Q 331.04 90.84 330.21 90.66 L 329.89 90.58 Q 329.06 90.41 328.69 90.05 Q 328.32 89.68 328.32 89.05 Q 328.32 88.27 328.86 87.85 Q 329.41 87.43 330.42 87.43 Q 330.92 87.43 331.35 87.51 Q 331.79 87.58 332.17 87.73 z M 336.37 90.29 Q 335.29 90.29 334.87 90.54 Q 334.45 90.78 334.45 91.39 Q 334.45 91.86 334.76 92.15 Q 335.08 92.43 335.62 92.43 Q 336.36 92.43 336.81 91.9 Q 337.27 91.37 337.27 90.49 L 337.27 90.29 L 336.37 90.29 M 338.17 89.92 L 338.17 93.04 L 337.27 93.04 L 337.27 92.21 Q 336.96 92.7 336.5 92.94 Q 336.04 93.18 335.38 93.18 Q 334.54 93.18 334.04 92.71 Q 333.55 92.23 333.55 91.44 Q 333.55 90.52 334.16 90.05 Q 334.78 89.58 336.01 89.58 L 337.27 89.58 L 337.27 89.5 Q 337.27 88.88 336.86 88.54 Q 336.45 88.2 335.72 88.2 Q 335.25 88.2 334.8 88.31 Q 334.36 88.42 333.95 88.65 L 333.95 87.82 Q 334.44 87.63 334.9 87.53 Q 335.37 87.43 335.81 87.43 Q 336.99 87.43 337.58 88.05 Q 338.17 88.67 338.17 89.92 z M 344.27 88.62 Q 344.61 88.01 345.08 87.72 Q 345.55 87.43 346.18 87.43 Q 347.04 87.43 347.5 88.04 Q 347.97 88.63 347.97 89.73 L 347.97 93.04 L 347.06 93.04 L 347.06 89.76 Q 347.06 88.98 346.78 88.6 Q 346.51 88.22 345.93 88.22 Q 345.24 88.22 344.83 88.68 Q 344.43 89.14 344.43 89.94 L 344.43 93.04 L 343.52 93.04 L 343.52 89.76 Q 343.52 88.97 343.24 88.6 Q 342.97 88.22 342.39 88.22 Q 341.7 88.22 341.29 88.68 Q 340.89 89.15 340.89 89.94 L 340.89 93.04 L 339.98 93.04 L 339.98 87.57 L 340.89 87.57 L 340.89 88.42 Q 341.19 87.91 341.62 87.67 Q 342.05 87.43 342.64 87.43 Q 343.24 87.43 343.65 87.74 Q 344.07 88.04 344.27 88.62 z M 350.63 92.22 L 350.63 95.12 L 349.72 95.12 L 349.72 87.57 L 350.63 87.57 L 350.63 88.4 Q 350.91 87.91 351.34 87.67 Q 351.77 87.43 352.38 87.43 Q 353.37 87.43 353.99 88.23 Q 354.62 89.02 354.62 90.31 Q 354.62 91.6 353.99 92.39 Q 353.37 93.18 352.38 93.18 Q 351.77 93.18 351.34 92.94 Q 350.91 92.7 350.63 92.22 M 353.68 90.31 Q 353.68 89.31 353.27 88.75 Q 352.87 88.19 352.16 88.19 Q 351.44 88.19 351.03 88.75 Q 350.63 89.31 350.63 90.31 Q 350.63 91.3 351.03 91.86 Q 351.44 92.43 352.16 92.43 Q 352.87 92.43 353.27 91.86 Q 353.68 91.3 353.68 90.31 z M 356.11 85.44 L 357 85.44 L 357 93.04 L 356.11 93.04 L 356.11 85.44 z M 363.56 90.08 L 363.56 90.52 L 359.43 90.52 Q 359.49 91.44 359.99 91.93 Q 360.49 92.42 361.38 92.42 Q 361.9 92.42 362.39 92.29 Q 362.87 92.16 363.35 91.91 L 363.35 92.76 Q 362.87 92.96 362.36 93.07 Q 361.85 93.18 361.33 93.18 Q 360.02 93.18 359.26 92.42 Q 358.49 91.65 358.49 90.35 Q 358.49 89.01 359.22 88.23 Q 359.94 87.43 361.17 87.43 Q 362.28 87.43 362.92 88.15 Q 363.56 88.86 363.56 90.08 M 362.66 89.81 Q 362.65 89.08 362.25 88.64 Q 361.85 88.2 361.18 88.2 Q 360.43 88.2 359.98 88.62 Q 359.53 89.05 359.46 89.82 L 362.66 89.81 z M 368.52 87.73 L 368.52 88.58 Q 368.14 88.38 367.73 88.28 Q 367.32 88.19 366.88 88.19 Q 366.21 88.19 365.88 88.39 Q 365.54 88.6 365.54 89.01 Q 365.54 89.32 365.78 89.5 Q 366.02 89.68 366.75 89.84 L 367.05 89.91 Q 368.01 90.11 368.41 90.49 Q 368.82 90.86 368.82 91.53 Q 368.82 92.29 368.21 92.73 Q 367.61 93.18 366.55 93.18 Q 366.12 93.18 365.64 93.09 Q 365.16 93.01 364.64 92.84 L 364.64 91.91 Q 365.13 92.17 365.62 92.3 Q 366.1 92.43 366.57 92.43 Q 367.21 92.43 367.55 92.21 Q 367.89 91.99 367.89 91.6 Q 367.89 91.23 367.64 91.03 Q 367.4 90.84 366.56 90.66 L 366.25 90.58 Q 365.42 90.41 365.05 90.05 Q 364.68 89.68 364.68 89.05 Q 364.68 88.27 365.22 87.85 Q 365.77 87.43 366.77 87.43 Q 367.27 87.43 367.71 87.51 Q 368.15 87.58 368.52 87.73 z" fill="#000000"/>
</g>
<g id="text_1">
<path d="M 227.93 332.49 L 227.93 334.04 L 229.79 334.04 L 229.79 334.74 L 227.93 334.74 L 227.93 337.71 Q 227.93 338.37 228.12 338.56 Q 228.3 338.75 228.86 338.75 L 229.79 338.75 L 229.79 339.51 L 228.86 339.51 Q 227.82 339.51 227.43 339.12 Q 227.03 338.73 227.03 337.71 L 227.03 334.74 L 226.37 334.74 L 226.37 334.04 L 227.03 334.04 L 227.03 332.49 L 227.93 332.49 z z M 234.06 331.91 L 236.13 331.91 L 236.13 332.61 L 234.96 332.61 L 234.96 340.13 L 236.13 340.13 L 236.13 340.83 L 234.06 340.83 L 234.06 331.91 z M 241.53 334.2 L 241.53 335.05 Q 241.15 334.85 240.74 334.76 Q 240.33 334.66 239.89 334.66 Q 239.22 334.66 238.89 334.86 Q 238.56 335.07 238.56 335.48 Q 238.56 335.79 238.79 335.97 Q 239.03 336.15 239.76 336.31 L 240.06 336.38 Q 241.02 336.58 241.42 336.96 Q 241.83 337.33 241.83 338 Q 241.83 338.76 241.22 339.2 Q 240.62 339.65 239.57 339.65 Q 239.13 339.65 238.65 339.57 Q 238.17 339.48 237.65 339.31 L 237.65 338.38 Q 238.14 338.64 238.63 338.77 Q 239.11 338.9 239.59 338.9 Q 240.22 338.9 240.56 338.68 Q 240.9 338.46 240.9 338.07 Q 240.9 337.7 240.65 337.5 Q 240.41 337.31 239.58 337.13 L 239.26 337.06 Q 238.43 336.88 238.06 336.52 Q 237.69 336.15 237.69 335.52 Q 237.69 334.75 238.23 334.33 Q 238.78 333.91 239.79 333.91 Q 240.28 333.91 240.72 333.98 Q 241.16 334.05 241.53 334.2 z M 245.36 331.91 L 245.36 340.83 L 243.29 340.83 L 243.29 340.13 L 244.45 340.13 L 244.45 332.61 L 243.29 332.61 L 243.29 331.91 L 245.36 331.91 z" fill="#000000"/>
</g>
<g id="text_2">
<path d="M 8.29 184.89 L 9.14 184.89 Q 8.94 185.27 8.85 185.68 Q 8.75 186.09 8.75 186.53 Q 8.75 187.2 8.95 187.54 Q 9.16 187.87 9.57 187.87 Q 9.88 187.87 10.06 187.63 Q 10.24 187.39 10.4 186.67 L 10.47 186.36 Q 10.67 185.4 11.05 185 Q 11.42 184.6 12.09 184.6 Q 12.85 184.6 13.29 185.2 Q 13.74 185.8 13.74 186.86 Q 13.74 187.3 13.66 187.78 Q 13.57 188.25 13.4 188.78 L 12.47 188.78 Q 12.73 188.28 12.86 187.79 Q 12.99 187.31 12.99 186.84 Q 12.99 186.2 12.77 185.86 Q 12.55 185.52 12.16 185.52 Q 11.79 185.52 11.6 185.77 Q 11.4 186.01 11.22 186.85 L 11.15 187.16 Q 10.97 187.99 10.61 188.37 Q 10.24 188.74 9.61 188.74 Q 8.84 188.74 8.42 188.19 Q 8 187.64 8 186.64 Q 8 186.14 8.07 185.7 Q 8.14 185.26 8.29 184.89 z M 8.13 183.17 L 8.13 182.27 L 13.6 182.27 L 13.6 183.17 L 8.13 183.17 M 6 183.17 L 6 182.27 L 7.14 182.27 L 7.14 183.17 L 6 183.17 z M 10.8 176.79 Q 9.82 176.79 9.29 177.19 Q 8.75 177.59 8.75 178.32 Q 8.75 179.04 9.29 179.45 Q 9.82 179.85 10.8 179.85 Q 11.77 179.85 12.31 179.45 Q 12.85 179.04 12.85 178.32 Q 12.85 177.59 12.31 177.19 Q 11.77 176.79 10.8 176.79 M 12.92 175.89 Q 14.31 175.89 15 176.51 Q 15.68 177.13 15.68 178.41 Q 15.68 178.88 15.61 179.3 Q 15.54 179.72 15.39 180.12 L 14.52 180.12 Q 14.73 179.72 14.83 179.34 Q 14.93 178.95 14.93 178.55 Q 14.93 177.67 14.48 177.23 Q 14.01 176.79 13.08 176.79 L 12.64 176.79 Q 13.12 177.07 13.36 177.5 Q 13.6 177.94 13.6 178.54 Q 13.6 179.55 12.83 180.16 Q 12.06 180.78 10.8 180.78 Q 9.53 180.78 8.76 180.16 Q 8 179.55 8 178.54 Q 8 177.94 8.24 177.5 Q 8.48 177.07 8.96 176.79 L 8.13 176.79 L 8.13 175.89 L 12.92 175.89 z M 10.3 169.49 L 13.6 169.49 L 13.6 170.39 L 10.33 170.39 Q 9.55 170.39 9.16 170.69 Q 8.78 171 8.78 171.6 Q 8.78 172.33 9.24 172.75 Q 9.71 173.17 10.51 173.17 L 13.6 173.17 L 13.6 174.07 L 8.13 174.07 L 8.13 173.17 L 8.98 173.17 Q 8.48 172.85 8.24 172.41 Q 8 171.97 8 171.4 Q 8 170.46 8.58 169.98 Q 9.16 169.49 10.3 169.49 z M 10.85 165.22 Q 10.85 166.31 11.1 166.73 Q 11.35 167.15 11.95 167.15 Q 12.43 167.15 12.71 166.83 Q 12.99 166.52 12.99 165.97 Q 12.99 165.23 12.46 164.78 Q 11.93 164.32 11.05 164.32 L 10.85 164.32 L 10.85 165.22 M 10.48 163.42 L 13.6 163.42 L 13.6 164.32 L 12.77 164.32 Q 13.27 164.63 13.5 165.09 Q 13.74 165.55 13.74 166.21 Q 13.74 167.05 13.27 167.55 Q 12.8 168.04 12.01 168.04 Q 11.08 168.04 10.61 167.43 Q 10.14 166.81 10.14 165.58 L 10.14 164.32 L 10.06 164.32 Q 9.44 164.32 9.1 164.73 Q 8.76 165.14 8.76 165.88 Q 8.76 166.34 8.87 166.79 Q 8.98 167.23 9.21 167.64 L 8.38 167.64 Q 8.19 167.15 8.09 166.69 Q 8 166.22 8 165.78 Q 8 164.6 8.61 164.01 Q 9.23 163.42 10.48 163.42 z M 6 161.57 L 6 160.68 L 13.6 160.68 L 13.6 161.57 L 6 161.57 z" fill="#000000"/>
</g>
<g id="text_3">
<path d="M 131.39 23.52 L 132.47 23.52 L 132.47 32.64 L 131.39 32.64 L 131.39 23.52 z M 140.34 29.09 L 140.34 29.62 L 135.38 29.62 Q 135.45 30.73 136.05 31.32 Q 136.66 31.9 137.73 31.9 Q 138.35 31.9 138.93 31.75 Q 139.52 31.59 140.09 31.29 L 140.09 32.31 Q 139.51 32.55 138.9 32.68 Q 138.29 32.81 137.66 32.81 Q 136.09 32.81 135.17 31.9 Q 134.26 30.98 134.26 29.43 Q 134.26 27.81 135.13 26.87 Q 136 25.92 137.48 25.92 Q 138.8 25.92 139.57 26.78 Q 140.34 27.63 140.34 29.09 M 139.26 28.77 Q 139.25 27.89 138.77 27.36 Q 138.29 26.84 137.49 26.84 Q 136.59 26.84 136.04 27.35 Q 135.5 27.85 135.42 28.78 L 139.26 28.77 z M 146.43 29.28 Q 146.43 28.11 145.94 27.47 Q 145.46 26.82 144.59 26.82 Q 143.72 26.82 143.24 27.47 Q 142.76 28.11 142.76 29.28 Q 142.76 30.45 143.24 31.1 Q 143.72 31.74 144.59 31.74 Q 145.46 31.74 145.94 31.1 Q 146.43 30.45 146.43 29.28 M 147.51 31.83 Q 147.51 33.5 146.76 34.32 Q 146.02 35.14 144.48 35.14 Q 143.92 35.14 143.41 35.06 Q 142.91 34.97 142.43 34.79 L 142.43 33.74 Q 142.91 34 143.37 34.12 Q 143.83 34.25 144.31 34.25 Q 145.37 34.25 145.9 33.7 Q 146.43 33.14 146.43 32.02 L 146.43 31.49 Q 146.1 32.07 145.57 32.35 Q 145.05 32.64 144.33 32.64 Q 143.12 32.64 142.38 31.72 Q 141.64 30.8 141.64 29.28 Q 141.64 27.76 142.38 26.84 Q 143.12 25.92 144.33 25.92 Q 145.05 25.92 145.57 26.21 Q 146.1 26.5 146.43 27.08 L 146.43 26.08 L 147.51 26.08 L 147.51 31.83 z M 155.34 29.09 L 155.34 29.62 L 150.38 29.62 Q 150.45 30.73 151.05 31.32 Q 151.66 31.9 152.73 31.9 Q 153.35 31.9 153.93 31.75 Q 154.52 31.59 155.09 31.29 L 155.09 32.31 Q 154.51 32.55 153.9 32.68 Q 153.29 32.81 152.66 32.81 Q 151.09 32.81 150.17 31.9 Q 149.26 30.98 149.26 29.43 Q 149.26 27.81 150.13 26.87 Q 151 25.92 152.48 25.92 Q 153.8 25.92 154.57 26.78 Q 155.34 27.63 155.34 29.09 M 154.26 28.77 Q 154.25 27.89 153.77 27.36 Q 153.29 26.84 152.49 26.84 Q 151.59 26.84 151.04 27.35 Q 150.5 27.85 150.42 28.78 L 154.26 28.77 z M 162.57 28.68 L 162.57 32.64 L 161.49 32.64 L 161.49 28.72 Q 161.49 27.78 161.12 27.32 Q 160.76 26.86 160.04 26.86 Q 159.16 26.86 158.66 27.42 Q 158.15 27.97 158.15 28.93 L 158.15 32.64 L 157.07 32.64 L 157.07 26.08 L 158.15 26.08 L 158.15 27.1 Q 158.54 26.51 159.06 26.21 Q 159.59 25.92 160.28 25.92 Q 161.41 25.92 161.99 26.62 Q 162.57 27.32 162.57 28.68 z M 169.04 27.08 L 169.04 23.52 L 170.11 23.52 L 170.11 32.64 L 169.04 32.64 L 169.04 31.66 Q 168.7 32.24 168.17 32.53 Q 167.66 32.81 166.93 32.81 Q 165.74 32.81 164.99 31.86 Q 164.25 30.91 164.25 29.37 Q 164.25 27.82 164.99 26.87 Q 165.74 25.92 166.93 25.92 Q 167.66 25.92 168.17 26.21 Q 168.7 26.49 169.04 27.08 M 165.36 29.37 Q 165.36 30.56 165.85 31.24 Q 166.34 31.91 167.2 31.91 Q 168.05 31.91 168.54 31.24 Q 169.04 30.56 169.04 29.37 Q 169.04 28.18 168.54 27.5 Q 168.05 26.82 167.2 26.82 Q 166.34 26.82 165.85 27.5 Q 165.36 28.18 165.36 29.37 z M 174.92 23.54 Q 174.14 24.88 173.76 26.2 Q 173.38 27.52 173.38 28.87 Q 173.38 30.23 173.76 31.56 Q 174.14 32.88 174.92 34.22 L 173.99 34.22 Q 173.11 32.85 172.67 31.52 Q 172.23 30.19 172.23 28.87 Q 172.23 27.57 172.67 26.24 Q 173.1 24.92 173.99 23.54 L 174.92 23.54 z M 177.02 23.52 L 178.09 23.52 L 178.09 32.64 L 177.02 32.64 L 177.02 23.52 z M 182.89 26.84 Q 182.03 26.84 181.52 27.51 Q 181.02 28.19 181.02 29.37 Q 181.02 30.54 181.52 31.22 Q 182.02 31.9 182.89 31.9 Q 183.75 31.9 184.26 31.22 Q 184.76 30.54 184.76 29.37 Q 184.76 28.2 184.26 27.52 Q 183.75 26.84 182.89 26.84 M 182.89 25.92 Q 184.3 25.92 185.1 26.84 Q 185.9 27.75 185.9 29.37 Q 185.9 30.98 185.1 31.9 Q 184.3 32.81 182.89 32.81 Q 181.48 32.81 180.68 31.9 Q 179.88 30.98 179.88 29.37 Q 179.88 27.75 180.68 26.84 Q 181.48 25.92 182.89 25.92 z M 192.41 26.33 L 192.41 27.34 Q 191.96 27.09 191.49 26.96 Q 191.04 26.84 190.57 26.84 Q 189.52 26.84 188.94 27.5 Q 188.36 28.17 188.36 29.37 Q 188.36 30.57 188.94 31.24 Q 189.52 31.9 190.57 31.9 Q 191.04 31.9 191.49 31.77 Q 191.96 31.65 192.41 31.39 L 192.41 32.39 Q 191.96 32.6 191.48 32.71 Q 191 32.81 190.45 32.81 Q 188.97 32.81 188.1 31.88 Q 187.22 30.95 187.22 29.37 Q 187.22 27.76 188.1 26.84 Q 188.99 25.92 190.52 25.92 Q 191.02 25.92 191.49 26.03 Q 191.97 26.13 192.41 26.33 z M 194.43 27.19 L 201.94 27.19 L 201.94 28.18 L 194.43 28.18 L 194.43 27.19 M 194.43 29.58 L 201.94 29.58 L 201.94 30.58 L 194.43 30.58 L 194.43 29.58 z M 205.36 23.89 L 205.36 27.15 L 204.37 27.15 L 204.37 23.89 L 205.36 23.89 M 207.58 23.89 L 207.58 27.15 L 206.58 27.15 L 206.58 23.89 L 207.58 23.89 z M 214.57 29.37 Q 214.57 28.18 214.08 27.5 Q 213.6 26.82 212.74 26.82 Q 211.88 26.82 211.39 27.5 Q 210.91 28.18 210.91 29.37 Q 210.91 30.56 211.39 31.24 Q 211.88 31.91 212.74 31.91 Q 213.6 31.91 214.08 31.24 Q 214.57 30.56 214.57 29.37 M 210.91 27.08 Q 211.25 26.49 211.76 26.21 Q 212.28 25.92 213 25.92 Q 214.2 25.92 214.94 26.87 Q 215.69 27.82 215.69 29.37 Q 215.69 30.91 214.94 31.86 Q 214.2 32.81 213 32.81 Q 212.28 32.81 211.76 32.53 Q 211.25 32.24 210.91 31.66 L 210.91 32.64 L 209.82 32.64 L 209.82 23.52 L 210.91 23.52 L 210.91 27.08 z M 223.09 29.09 L 223.09 29.62 L 218.14 29.62 Q 218.21 30.73 218.8 31.32 Q 219.41 31.9 220.48 31.9 Q 221.1 31.9 221.68 31.75 Q 222.27 31.59 222.84 31.29 L 222.84 32.31 Q 222.26 32.55 221.65 32.68 Q 221.04 32.81 220.42 32.81 Q 218.85 32.81 217.93 31.9 Q 217.01 30.98 217.01 29.43 Q 217.01 27.81 217.88 26.87 Q 218.75 25.92 220.23 25.92 Q 221.55 25.92 222.32 26.78 Q 223.09 27.63 223.09 29.09 M 222.02 28.77 Q 222 27.89 221.52 27.36 Q 221.04 26.84 220.24 26.84 Q 219.34 26.84 218.79 27.35 Q 218.25 27.85 218.17 28.78 L 222.02 28.77 z M 229.05 26.27 L 229.05 27.29 Q 228.59 27.06 228.1 26.94 Q 227.61 26.82 227.08 26.82 Q 226.28 26.82 225.87 27.07 Q 225.47 27.32 225.47 27.81 Q 225.47 28.18 225.76 28.4 Q 226.05 28.61 226.91 28.8 L 227.28 28.89 Q 228.43 29.13 228.91 29.58 Q 229.4 30.03 229.4 30.83 Q 229.4 31.75 228.67 32.28 Q 227.95 32.81 226.69 32.81 Q 226.16 32.81 225.58 32.71 Q 225.02 32.61 224.38 32.4 L 224.38 31.29 Q 224.98 31.6 225.56 31.76 Q 226.14 31.91 226.71 31.91 Q 227.47 31.91 227.88 31.65 Q 228.29 31.39 228.29 30.91 Q 228.29 30.47 227.99 30.24 Q 227.7 30.01 226.7 29.79 L 226.32 29.7 Q 225.32 29.49 224.87 29.06 Q 224.43 28.62 224.43 27.85 Q 224.43 26.93 225.09 26.43 Q 225.74 25.92 226.95 25.92 Q 227.55 25.92 228.07 26.01 Q 228.6 26.1 229.05 26.27 z M 232.18 24.22 L 232.18 26.08 L 234.4 26.08 L 234.4 26.92 L 232.18 26.92 L 232.18 30.48 Q 232.18 31.28 232.4 31.51 Q 232.62 31.74 233.29 31.74 L 234.4 31.74 L 234.4 32.64 L 233.29 32.64 Q 232.05 32.64 231.57 32.18 Q 231.1 31.71 231.1 30.48 L 231.1 26.92 L 230.31 26.92 L 230.31 26.08 L 231.1 26.08 L 231.1 24.22 L 232.18 24.22 z M 236.84 23.89 L 236.84 27.15 L 235.84 27.15 L 235.84 23.89 L 236.84 23.89 M 239.05 23.89 L 239.05 27.15 L 238.06 27.15 L 238.06 23.89 L 239.05 23.89 z M 241.17 23.54 L 242.11 23.54 Q 242.99 24.92 243.42 26.24 Q 243.86 27.57 243.86 28.87 Q 243.86 30.19 243.42 31.52 Q 242.99 32.85 242.11 34.22 L 241.17 34.22 Q 241.95 32.88 242.33 31.56 Q 242.72 30.23 242.72 28.87 Q 242.72 27.52 242.33 26.2 Q 241.95 24.88 241.17 23.54 z z M 252.82 29.34 Q 251.51 29.34 251.01 29.64 Q 250.5 29.94 250.5 30.66 Q 250.5 31.24 250.88 31.58 Q 251.26 31.91 251.91 31.91 Q 252.81 31.91 253.35 31.28 Q 253.89 30.64 253.89 29.58 L 253.89 29.34 L 252.82 29.34 M 254.97 28.9 L 254.97 32.64 L 253.89 32.64 L 253.89 31.65 Q 253.52 32.24 252.97 32.53 Q 252.42 32.81 251.62 32.81 Q 250.62 32.81 250.02 32.25 Q 249.43 31.68 249.43 30.73 Q 249.43 29.62 250.16 29.06 Q 250.91 28.5 252.38 28.5 L 253.89 28.5 L 253.89 28.39 Q 253.89 27.65 253.4 27.25 Q 252.91 26.84 252.03 26.84 Q 251.46 26.84 250.93 26.97 Q 250.4 27.1 249.91 27.37 L 249.91 26.38 Q 250.5 26.15 251.05 26.04 Q 251.61 25.92 252.14 25.92 Q 253.56 25.92 254.27 26.66 Q 254.97 27.4 254.97 28.9 z M 256.42 26.08 L 257.56 26.08 L 259.61 31.59 L 261.66 26.08 L 262.8 26.08 L 260.34 32.64 L 258.88 32.64 L 256.42 26.08 z M 266.83 26.84 Q 265.97 26.84 265.46 27.51 Q 264.96 28.19 264.96 29.37 Q 264.96 30.54 265.46 31.22 Q 265.96 31.9 266.83 31.9 Q 267.7 31.9 268.2 31.22 Q 268.7 30.54 268.7 29.37 Q 268.7 28.2 268.2 27.52 Q 267.7 26.84 266.83 26.84 M 266.83 25.92 Q 268.24 25.92 269.04 26.84 Q 269.85 27.75 269.85 29.37 Q 269.85 30.98 269.04 31.9 Q 268.24 32.81 266.83 32.81 Q 265.42 32.81 264.62 31.9 Q 263.82 30.98 263.82 29.37 Q 263.82 27.75 264.62 26.84 Q 265.42 25.92 266.83 25.92 z M 271.63 26.08 L 272.71 26.08 L 272.71 32.64 L 271.63 32.64 L 271.63 26.08 M 271.63 23.52 L 272.71 23.52 L 272.71 24.89 L 271.63 24.89 L 271.63 23.52 z M 279.29 27.08 L 279.29 23.52 L 280.36 23.52 L 280.36 32.64 L 279.29 32.64 L 279.29 31.66 Q 278.95 32.24 278.42 32.53 Q 277.91 32.81 277.18 32.81 Q 275.99 32.81 275.24 31.86 Q 274.5 30.91 274.5 29.37 Q 274.5 27.82 275.24 26.87 Q 275.99 25.92 277.18 25.92 Q 277.91 25.92 278.42 26.21 Q 278.95 26.49 279.29 27.08 M 275.61 29.37 Q 275.61 30.56 276.1 31.24 Q 276.59 31.91 277.45 31.91 Q 278.3 31.91 278.79 31.24 Q 279.29 30.56 279.29 29.37 Q 279.29 28.18 278.79 27.5 Q 278.3 26.82 277.45 26.82 Q 276.59 26.82 276.1 27.5 Q 275.61 28.18 275.61 29.37 z M 286.77 26.27 L 286.77 27.29 Q 286.31 27.06 285.82 26.94 Q 285.33 26.82 284.8 26.82 Q 284 26.82 283.59 27.07 Q 283.19 27.32 283.19 27.81 Q 283.19 28.18 283.48 28.4 Q 283.77 28.61 284.63 28.8 L 285 28.89 Q 286.15 29.13 286.63 29.58 Q 287.12 30.03 287.12 30.83 Q 287.12 31.75 286.39 32.28 Q 285.67 32.81 284.41 32.81 Q 283.88 32.81 283.3 32.71 Q 282.74 32.61 282.1 32.4 L 282.1 31.29 Q 282.7 31.6 283.28 31.76 Q 283.86 31.91 284.43 31.91 Q 285.19 31.91 285.6 31.65 Q 286.01 31.39 286.01 30.91 Q 286.01 30.47 285.71 30.24 Q 285.42 30.01 284.42 29.79 L 284.04 29.7 Q 283.04 29.49 282.6 29.06 Q 282.15 28.62 282.15 27.85 Q 282.15 26.93 282.81 26.43 Q 283.46 25.92 284.67 25.92 Q 285.27 25.92 285.79 26.01 Q 286.32 26.1 286.77 26.27 z z M 293.72 24.22 L 293.72 26.08 L 295.94 26.08 L 295.94 26.92 L 293.72 26.92 L 293.72 30.48 Q 293.72 31.28 293.93 31.51 Q 294.16 31.74 294.83 31.74 L 295.94 31.74 L 295.94 32.64 L 294.83 32.64 Q 293.58 32.64 293.11 32.18 Q 292.63 31.71 292.63 30.48 L 292.63 26.92 L 291.84 26.92 L 291.84 26.08 L 292.63 26.08 L 292.63 24.22 L 293.72 24.22 z M 302.81 28.68 L 302.81 32.64 L 301.73 32.64 L 301.73 28.72 Q 301.73 27.78 301.37 27.32 Q 301.01 26.86 300.28 26.86 Q 299.41 26.86 298.9 27.42 Q 298.4 27.97 298.4 28.93 L 298.4 32.64 L 297.31 32.64 L 297.31 23.52 L 298.4 23.52 L 298.4 27.1 Q 298.79 26.51 299.31 26.21 Q 299.83 25.92 300.52 25.92 Q 301.65 25.92 302.23 26.62 Q 302.81 27.32 302.81 28.68 z M 310.57 29.09 L 310.57 29.62 L 305.62 29.62 Q 305.69 30.73 306.29 31.32 Q 306.89 31.9 307.96 31.9 Q 308.58 31.9 309.16 31.75 Q 309.75 31.59 310.32 31.29 L 310.32 32.31 Q 309.74 32.55 309.13 32.68 Q 308.52 32.81 307.9 32.81 Q 306.33 32.81 305.41 31.9 Q 304.49 30.98 304.49 29.43 Q 304.49 27.81 305.36 26.87 Q 306.23 25.92 307.71 25.92 Q 309.03 25.92 309.8 26.78 Q 310.57 27.63 310.57 29.09 M 309.5 28.77 Q 309.48 27.89 309 27.36 Q 308.52 26.84 307.72 26.84 Q 306.82 26.84 306.27 27.35 Q 305.73 27.85 305.65 28.78 L 309.5 28.77 z z M 320.48 27.08 L 320.48 23.52 L 321.55 23.52 L 321.55 32.64 L 320.48 32.64 L 320.48 31.66 Q 320.14 32.24 319.62 32.53 Q 319.1 32.81 318.37 32.81 Q 317.18 32.81 316.43 31.86 Q 315.69 30.91 315.69 29.37 Q 315.69 27.82 316.43 26.87 Q 317.18 25.92 318.37 25.92 Q 319.1 25.92 319.62 26.21 Q 320.14 26.49 320.48 27.08 M 316.8 29.37 Q 316.8 30.56 317.29 31.24 Q 317.78 31.91 318.64 31.91 Q 319.49 31.91 319.98 31.24 Q 320.48 30.56 320.48 29.37 Q 320.48 28.18 319.98 27.5 Q 319.49 26.82 318.64 26.82 Q 317.78 26.82 317.29 27.5 Q 316.8 28.18 316.8 29.37 z M 326.76 29.34 Q 325.45 29.34 324.95 29.64 Q 324.44 29.94 324.44 30.66 Q 324.44 31.24 324.82 31.58 Q 325.2 31.91 325.85 31.91 Q 326.75 31.91 327.29 31.28 Q 327.83 30.64 327.83 29.58 L 327.83 29.34 L 326.76 29.34 M 328.91 28.9 L 328.91 32.64 L 327.83 32.64 L 327.83 31.65 Q 327.46 32.24 326.91 32.53 Q 326.36 32.81 325.56 32.81 Q 324.55 32.81 323.96 32.25 Q 323.37 31.68 323.37 30.73 Q 323.37 29.62 324.1 29.06 Q 324.85 28.5 326.32 28.5 L 327.83 28.5 L 327.83 28.39 Q 327.83 27.65 327.34 27.25 Q 326.85 26.84 325.97 26.84 Q 325.4 26.84 324.87 26.97 Q 324.34 27.1 323.85 27.37 L 323.85 26.38 Q 324.44 26.15 324.99 26.04 Q 325.55 25.92 326.08 25.92 Q 327.5 25.92 328.2 26.66 Q 328.91 27.4 328.91 28.9 z M 332.2 24.22 L 332.2 26.08 L 334.42 26.08 L 334.42 26.92 L 332.2 26.92 L 332.2 30.48 Q 332.2 31.28 332.41 31.51 Q 332.63 31.74 333.31 31.74 L 334.42 31.74 L 334.42 32.64 L 333.31 32.64 Q 332.06 32.64 331.59 32.18 Q 331.11 31.71 331.11 30.48 L 331.11 26.92 L 330.32 26.92 L 330.32 26.08 L 331.11 26.08 L 331.11 24.22 L 332.2 24.22 z M 338.82 29.34 Q 337.51 29.34 337.01 29.64 Q 336.5 29.94 336.5 30.66 Q 336.5 31.24 336.88 31.58 Q 337.26 31.91 337.91 31.91 Q 338.8 31.91 339.34 31.28 Q 339.89 30.64 339.89 29.58 L 339.89 29.34 L 338.82 29.34 M 340.97 28.9 L 340.97 32.64 L 339.89 32.64 L 339.89 31.65 Q 339.52 32.24 338.97 32.53 Q 338.42 32.81 337.62 32.81 Q 336.61 32.81 336.02 32.25 Q 335.42 31.68 335.42 30.73 Q 335.42 29.62 336.16 29.06 Q 336.91 28.5 338.38 28.5 L 339.89 28.5 L 339.89 28.39 Q 339.89 27.65 339.4 27.25 Q 338.91 26.84 338.03 26.84 Q 337.46 26.84 336.93 26.97 Q 336.4 27.1 335.9 27.37 L 335.9 26.38 Q 336.5 26.15 337.05 26.04 Q 337.61 25.92 338.14 25.92 Q 339.56 25.92 340.26 26.66 Q 340.97 27.4 340.97 28.9 z" fill="#000000"/>
</g>
</g>
</g>
</svg>
