<?xml version="1.0" encoding="utf-8" standalone="no"?>
<!DOCTYPE svg PUBLIC "-//W3C//DTD SVG 1.1//EN" "http://www.w3.org/Graphics/SVG/1.1/DTD/svg11.dtd">
<svg xmlns="http://www.w3.org/2000/svg" width="460.8pt" height="345.6pt" viewBox="0 0 460.8 345.6" version="1.1">
<defs>
<clipPath id="p1"><rect x="57.6" y="41.47" width="357.12" height="266.11"/></clipPath>
</defs>
<g id="figure_1">
<path d="M 0 345.6 L 460.8 345.6 L 460.8 0 L 0 0 z" fill="#ffffff"/>
<g id="axes_1">
<path d="M 57.6 307.58 L 414.72 307.58 L 414.72 41.47 L 57.6 41.47 z" fill="#ffffff"/>
<g id="grid_1">
<path d="M 93.31 307.58 L 93.31 41.47" fill="none" stroke="#b0b0b0" stroke-width="0.8" stroke-linejoin="round"/>
<path d="M 164.74 307.58 L 164.74 41.47" fill="none" stroke="#b0b0b0" stroke-width="0.8" stroke-linejoin="round"/>
<path d="M 236.16 307.58 L 236.16 41.47" fill="none" stroke="#b0b0b0" stroke-width="0.8" stroke-linejoin="round"/>
<path d="M 307.58 307.58 L 307.58 41.47" fill="none" stroke="#b0b0b0" stroke-width="0.8" stroke-linejoin="round"/>
<path d="M 379.01 307.58 L 379.01 41.47" fill="none" stroke="#b0b0b0" stroke-width="0.8" stroke-linejoin="round"/>
<path d="M 57.6 307.58 L 414.72 307.58" fill="none" stroke="#b0b0b0" stroke-width="0.8" stroke-linejoin="round"/>
<path d="M 57.6 274.32 L 414.72 274.32" fill="none" stroke="#b0b0b0" stroke-width="0.8" stroke-linejoin="round"/>
<path d="M 57.6 241.06 L 414.72 241.06" fill="none" stroke="#b0b0b0" stroke-width="0.8" stroke-linejoin="round"/>
<path d="M 57.6 207.79 L 414.72 207.79" fill="none" stroke="#b0b0b0" stroke-width="0.8" stroke-linejoin="round"/>
<path d="M 57.6 174.53 L 414.72 174.53" fill="none" stroke="#b0b0b0" stroke-width="0.8" stroke-linejoin="round"/>
<path d="M 57.6 141.26 L 414.72 141.26" fill="none" stroke="#b0b0b0" stroke-width="0.8" stroke-linejoin="round"/>
<path d="M 57.6 108 L 414.72 108" fill="none" stroke="#b0b0b0" stroke-width="0.8" stroke-linejoin="round"/>
<path d="M 57.6 74.74 L 414.72 74.74" fill="none" stroke="#b0b0b0" stroke-width="0.8" stroke-linejoin="round"/>
<path d="M 57.6 41.47 L 414.72 41.47" fill="none" stroke="#b0b0b0" stroke-width="0.8" stroke-linejoin="round"/>
</g>
<g id="line2d_1">
<path clip-path="url(#p1)" d="M 21.89 164.85 L 22.96 163.75 L 24.04 162.64 L 25.11 161.5 L 26.18 160.33 L 27.26 159.13 L 28.33 157.9 L 29.41 156.63 L 30.48 155.31 L 31.55 153.96 L 32.63 152.55 L 33.7 151.08 L 34.78 149.55 L 35.85 147.95 L 36.92 146.27 L 38 144.5 L 39.07 142.63 L 40.15 140.66 L 41.22 138.55 L 42.29 136.31 L 43.37 133.9 L 44.44 131.31 L 45.52 128.52 L 46.59 125.47 L 47.67 122.15 L 48.74 118.49 L 49.81 114.45 L 50.89 109.94 L 51.96 104.87 L 53.04 99.12 L 54.11 92.52 L 55.18 84.87 L 56.26 75.87 L 57.33 65.11 L 58.41 51.98 L 59.48 35.58 L 60.55 14.47 L 61.63 -13.8 L 62.7 -53.66 L 63.78 -114.26 L 64.85 -217.71 L 65.92 -434.9 M 69.15 1105.97 L 70.22 679.54 L 71.29 520.52 L 72.37 437.29 L 73.44 386.03 L 74.52 351.23 L 75.59 326.02 L 76.66 306.88 L 77.74 291.84 L 78.81 279.68 L 79.89 269.64 L 80.96 261.18 L 82.03 253.96 L 83.11 247.7 L 84.18 242.22 L 85.26 237.37 L 86.33 233.04 L 87.4 229.15 L 88.48 225.63 L 89.55 222.41 L 90.63 219.47 L 91.7 216.75 L 92.77 214.23 L 93.85 211.89 L 94.92 209.7 L 96 207.65 L 97.07 205.71 L 98.15 203.88 L 99.22 202.15 L 100.29 200.5 L 101.37 198.93 L 102.44 197.42 L 103.52 195.98 L 104.59 194.59 L 105.66 193.25 L 106.74 191.95 L 107.81 190.69 L 108.89 189.48 L 109.96 188.29 L 111.03 187.13 L 112.11 186 L 113.18 184.89 L 114.26 183.8 L 115.33 182.73 L 116.4 181.68 L 117.48 180.64 L 118.55 179.61 L 119.63 178.59 L 120.7 177.58 L 121.77 176.57 L 122.85 175.57 L 123.92 174.57 L 125 173.57 L 126.07 172.57 L 127.14 171.56 L 128.22 170.55 L 129.29 169.53 L 130.37 168.5 L 131.44 167.46 L 132.51 166.41 L 133.59 165.34 L 134.66 164.26 L 135.74 163.15 L 136.81 162.02 L 137.88 160.87 L 138.96 159.68 L 140.03 158.47 L 141.11 157.21 L 142.18 155.92 L 143.26 154.58 L 144.33 153.2 L 145.4 151.76 L 146.48 150.26 L 147.55 148.69 L 148.63 147.05 L 149.7 145.32 L 150.77 143.5 L 151.85 141.58 L 152.92 139.53 L 154 137.35 L 155.07 135.03 L 156.14 132.52 L 157.22 129.83 L 158.29 126.9 L 159.37 123.71 L 160.44 120.21 L 161.51 116.35 L 162.59 112.07 L 163.66 107.27 L 164.74 101.84 L 165.81 95.66 L 166.88 88.52 L 167.96 80.19 L 169.03 70.29 L 170.11 58.34 L 171.18 43.57 L 172.25 24.85 L 173.33 0.25 L 174.4 -33.54 L 175.48 -83.01 L 176.55 -162.51 L 177.62 -311.73 L 178.7 -695.24 M 181.92 813.65 L 182.99 578.91 L 184.07 469.89 L 185.14 406.83 L 186.22 365.67 L 187.29 336.65 L 188.36 315.04 L 189.44 298.31 L 190.51 284.95 L 191.59 274.01 L 192.66 264.88 L 193.74 257.13 L 194.81 250.46 L 195.88 244.64 L 196.96 239.52 L 198.03 234.97 L 199.11 230.89 L 200.18 227.2 L 201.25 223.85 L 202.33 220.79 L 203.4 217.97 L 204.48 215.36 L 205.55 212.94 L 206.62 210.69 L 207.7 208.57 L 208.77 206.58 L 209.85 204.71 L 210.92 202.93 L 211.99 201.25 L 213.07 199.64 L 214.14 198.1 L 215.22 196.63 L 216.29 195.22 L 217.36 193.85 L 218.44 192.54 L 219.51 191.26 L 220.59 190.03 L 221.66 188.83 L 222.73 187.66 L 223.81 186.51 L 224.88 185.4 L 225.96 184.3 L 227.03 183.22 L 228.1 182.16 L 229.18 181.11 L 230.25 180.08 L 231.33 179.06 L 232.4 178.04 L 233.47 177.03 L 234.55 176.03 L 235.62 175.03 L 236.7 174.03 L 237.77 173.03 L 238.85 172.02 L 239.92 171.01 L 240.99 170 L 242.07 168.97 L 243.14 167.94 L 244.22 166.89 L 245.29 165.83 L 246.36 164.76 L 247.44 163.66 L 248.51 162.54 L 249.59 161.4 L 250.66 160.23 L 251.73 159.03 L 252.81 157.79 L 253.88 156.52 L 254.96 155.2 L 256.03 153.84 L 257.1 152.43 L 258.18 150.95 L 259.25 149.42 L 260.33 147.81 L 261.4 146.12 L 262.47 144.35 L 263.55 142.47 L 264.62 140.48 L 265.7 138.37 L 266.77 136.11 L 267.84 133.69 L 268.92 131.09 L 269.99 128.27 L 271.07 125.21 L 272.14 121.86 L 273.21 118.17 L 274.29 114.09 L 275.36 109.54 L 276.44 104.41 L 277.51 98.6 L 278.58 91.92 L 279.66 84.17 L 280.73 75.04 L 281.81 64.11 L 282.88 50.74 L 283.96 34.01 L 285.03 12.41 L 286.1 -16.62 L 287.18 -57.78 L 288.25 -120.83 L 289.33 -229.85 L 290.4 -464.6 M 293.62 1044.29 L 294.7 660.79 L 295.77 511.57 L 296.84 432.06 L 297.92 382.6 L 298.99 348.8 L 300.07 324.21 L 301.14 305.48 L 302.21 290.72 L 303.29 278.77 L 304.36 268.87 L 305.44 260.53 L 306.51 253.4 L 307.58 247.21 L 308.66 241.79 L 309.73 236.99 L 310.81 232.7 L 311.88 228.84 L 312.95 225.35 L 314.03 222.16 L 315.1 219.23 L 316.18 216.53 L 317.25 214.03 L 318.32 211.7 L 319.4 209.52 L 320.47 207.48 L 321.55 205.55 L 322.62 203.73 L 323.69 202.01 L 324.77 200.37 L 325.84 198.8 L 326.92 197.3 L 327.99 195.86 L 329.06 194.47 L 330.14 193.14 L 331.21 191.84 L 332.29 190.59 L 333.36 189.37 L 334.44 188.19 L 335.51 187.03 L 336.58 185.91 L 337.66 184.8 L 338.73 183.71 L 339.81 182.64 L 340.88 181.59 L 341.95 180.55 L 343.03 179.53 L 344.1 178.51 L 345.18 177.5 L 346.25 176.49 L 347.32 175.49 L 348.4 174.49 L 349.47 173.49 L 350.55 172.48 L 351.62 171.48 L 352.69 170.46 L 353.77 169.44 L 354.84 168.42 L 355.92 167.38 L 356.99 166.32 L 358.06 165.25 L 359.14 164.16 L 360.21 163.06 L 361.29 161.92 L 362.36 160.77 L 363.43 159.58 L 364.51 158.36 L 365.58 157.11 L 366.66 155.81 L 367.73 154.47 L 368.8 153.08 L 369.88 151.64 L 370.95 150.13 L 372.03 148.56 L 373.1 146.91 L 374.17 145.17 L 375.25 143.34 L 376.32 141.41 L 377.4 139.35 L 378.47 137.17 L 379.55 134.82 L 380.62 132.31 L 381.69 129.59 L 382.77 126.64 L 383.84 123.43 L 384.92 119.9 L 385.99 116.01 L 387.06 111.68 L 388.14 106.84 L 389.21 101.36 L 390.29 95.1 L 391.36 87.87 L 392.43 79.42 L 393.51 69.37 L 394.58 57.22 L 395.66 42.17 L 396.73 23.04 L 397.8 -2.17 L 398.88 -36.97 L 399.95 -88.24 L 401.03 -171.46 L 402.1 -330.49 L 403.17 -756.91 M 406.4 783.95 L 407.47 566.76 L 408.54 463.32 L 409.62 402.72 L 410.69 362.85 L 411.77 334.59 L 412.84 313.47 L 413.91 297.07 L 414.99 283.95 L 416.06 273.18 L 417.14 264.18 L 418.21 256.53 L 419.28 249.94 L 420.36 244.19 L 421.43 239.12 L 422.51 234.61 L 423.58 230.56 L 424.65 226.91 L 425.73 223.58 L 426.8 220.54 L 427.88 217.74 L 428.95 215.15 L 430.03 212.75 L 431.1 210.5 L 432.17 208.4 L 433.25 206.42 L 434.32 204.56 L 435.4 202.79 L 436.47 201.11 L 437.54 199.51 L 438.62 197.98 L 439.69 196.51 L 440.77 195.1 L 441.84 193.74 L 442.91 192.43 L 443.99 191.16 L 445.06 189.93 L 446.14 188.73 L 447.21 187.56 L 448.28 186.42 L 449.36 185.3 L 450.43 184.21" fill="none" stroke="#1f77b4" stroke-width="1.5" stroke-linecap="square" stroke-linejoin="round"/>
</g>
<g id="text_1">
<path d="M 73.72 61.06 L 73.72 62.61 L 75.57 62.61 L 75.57 63.31 L 73.72 63.31 L 73.72 66.28 Q 73.72 66.95 73.9 67.14 Q 74.08 67.33 74.64 67.33 L 75.57 67.33 L 75.57 68.08 L 74.64 68.08 Q 73.6 68.08 73.21 67.7 Q 72.81 67.31 72.81 66.28 L 72.81 63.31 L 72.15 63.31 L 72.15 62.61 L 72.81 62.61 L 72.81 61.06 L 73.72 61.06 z M 79.23 65.33 Q 78.14 65.33 77.72 65.58 Q 77.3 65.83 77.3 66.43 Q 77.3 66.91 77.62 67.19 Q 77.93 67.47 78.48 67.47 Q 79.22 67.47 79.67 66.95 Q 80.13 66.41 80.13 65.53 L 80.13 65.33 L 79.23 65.33 M 81.03 64.96 L 81.03 68.08 L 80.13 68.08 L 80.13 67.25 Q 79.82 67.75 79.36 67.99 Q 78.9 68.22 78.24 68.22 Q 77.4 68.22 76.9 67.76 Q 76.41 67.28 76.41 66.49 Q 76.41 65.57 77.02 65.1 Q 77.64 64.63 78.87 64.63 L 80.13 64.63 L 80.13 64.54 Q 80.13 63.92 79.72 63.59 Q 79.31 63.24 78.57 63.24 Q 78.11 63.24 77.66 63.36 Q 77.22 63.47 76.81 63.69 L 76.81 62.86 Q 77.3 62.67 77.76 62.58 Q 78.23 62.48 78.67 62.48 Q 79.85 62.48 80.44 63.1 Q 81.03 63.71 81.03 64.96 z M 87.42 64.78 L 87.42 68.08 L 86.52 68.08 L 86.52 64.81 Q 86.52 64.04 86.22 63.65 Q 85.92 63.26 85.31 63.26 Q 84.58 63.26 84.17 63.73 Q 83.75 64.19 83.75 64.99 L 83.75 68.08 L 82.84 68.08 L 82.84 62.61 L 83.75 62.61 L 83.75 63.46 Q 84.07 62.97 84.5 62.73 Q 84.94 62.48 85.51 62.48 Q 86.46 62.48 86.94 63.07 Q 87.42 63.65 87.42 64.78 z M 91.37 60.5 Q 90.72 61.62 90.4 62.72 Q 90.08 63.82 90.08 64.94 Q 90.08 66.07 90.4 67.18 Q 90.72 68.28 91.37 69.4 L 90.59 69.4 Q 89.86 68.25 89.49 67.15 Q 89.13 66.04 89.13 64.94 Q 89.13 63.85 89.49 62.75 Q 89.85 61.65 90.59 60.5 L 91.37 60.5 z M 97.66 62.61 L 95.68 65.28 L 97.76 68.08 L 96.7 68.08 L 95.11 65.93 L 93.52 68.08 L 92.46 68.08 L 94.58 65.22 L 92.64 62.61 L 93.7 62.61 L 95.15 64.56 L 96.6 62.61 L 97.66 62.61 z M 98.89 60.5 L 99.67 60.5 Q 100.41 61.65 100.77 62.75 Q 101.13 63.85 101.13 64.94 Q 101.13 66.04 100.77 67.15 Q 100.41 68.25 99.67 69.4 L 98.89 69.4 Q 99.54 68.28 99.86 67.18 Q 100.18 66.07 100.18 64.94 Q 100.18 63.82 99.86 62.72 Q 99.54 61.62 98.89 60.5 z M 103.16 66.84 L 104.19 66.84 L 104.19 67.68 L 103.39 69.25 L 102.76 69.25 L 103.16 67.68 L 103.16 66.84 z z M 110.16 67.26 L 110.16 70.16 L 109.26 70.16 L 109.26 62.61 L 110.16 62.61 L 110.16 63.44 Q 110.44 62.96 110.87 62.72 Q 111.31 62.48 111.91 62.48 Q 112.91 62.48 113.53 63.27 Q 114.15 64.06 114.15 65.35 Q 114.15 66.64 113.53 67.43 Q 112.91 68.22 111.91 68.22 Q 111.31 68.22 110.87 67.99 Q 110.44 67.75 110.16 67.26 M 113.22 65.35 Q 113.22 64.36 112.81 63.8 Q 112.4 63.23 111.69 63.23 Q 110.98 63.23 110.57 63.8 Q 110.16 64.36 110.16 65.35 Q 110.16 66.34 110.57 66.91 Q 110.98 67.47 111.69 67.47 Q 112.4 67.47 112.81 66.91 Q 113.22 66.34 113.22 65.35 z M 117.76 63.24 Q 117.04 63.24 116.62 63.81 Q 116.2 64.37 116.2 65.35 Q 116.2 66.34 116.61 66.9 Q 117.03 67.46 117.76 67.46 Q 118.48 67.46 118.9 66.9 Q 119.32 66.33 119.32 65.35 Q 119.32 64.38 118.9 63.82 Q 118.48 63.24 117.76 63.24 M 117.76 62.48 Q 118.93 62.48 119.6 63.24 Q 120.27 64.01 120.27 65.35 Q 120.27 66.7 119.6 67.46 Q 118.93 68.22 117.76 68.22 Q 116.58 68.22 115.91 67.46 Q 115.25 66.7 115.25 65.35 Q 115.25 64.01 115.91 63.24 Q 116.58 62.48 117.76 62.48 z M 121.76 60.49 L 122.66 60.49 L 122.66 68.08 L 121.76 68.08 L 121.76 60.49 z M 129.21 65.12 L 129.21 65.56 L 125.08 65.56 Q 125.14 66.49 125.64 66.98 Q 126.14 67.46 127.04 67.46 Q 127.55 67.46 128.04 67.34 Q 128.53 67.21 129 66.96 L 129 67.8 Q 128.52 68.01 128.01 68.12 Q 127.5 68.22 126.98 68.22 Q 125.67 68.22 124.91 67.46 Q 124.15 66.7 124.15 65.4 Q 124.15 64.06 124.87 63.27 Q 125.6 62.48 126.83 62.48 Q 127.93 62.48 128.57 63.2 Q 129.21 63.9 129.21 65.12 M 128.32 64.86 Q 128.31 64.12 127.9 63.68 Q 127.5 63.24 126.84 63.24 Q 126.08 63.24 125.63 63.67 Q 125.18 64.09 125.11 64.87 L 128.32 64.86 z M 134.17 62.78 L 134.17 63.63 Q 133.79 63.43 133.38 63.33 Q 132.97 63.23 132.53 63.23 Q 131.87 63.23 131.53 63.44 Q 131.2 63.64 131.2 64.05 Q 131.2 64.37 131.44 64.55 Q 131.67 64.72 132.4 64.88 L 132.71 64.95 Q 133.66 65.16 134.06 65.53 Q 134.47 65.91 134.47 66.57 Q 134.47 67.34 133.86 67.78 Q 133.26 68.22 132.21 68.22 Q 131.77 68.22 131.29 68.14 Q 130.82 68.05 130.29 67.88 L 130.29 66.96 Q 130.79 67.21 131.27 67.35 Q 131.75 67.47 132.23 67.47 Q 132.86 67.47 133.2 67.26 Q 133.54 67.04 133.54 66.64 Q 133.54 66.28 133.3 66.08 Q 133.05 65.89 132.22 65.71 L 131.9 65.63 Q 131.07 65.46 130.7 65.09 Q 130.33 64.73 130.33 64.09 Q 130.33 63.32 130.87 62.9 Q 131.42 62.48 132.43 62.48 Q 132.92 62.48 133.36 62.56 Q 133.8 62.63 134.17 62.78 z z M 141.56 65.33 Q 140.47 65.33 140.05 65.58 Q 139.63 65.83 139.63 66.43 Q 139.63 66.91 139.95 67.19 Q 140.26 67.47 140.81 67.47 Q 141.55 67.47 142 66.95 Q 142.46 66.41 142.46 65.53 L 142.46 65.33 L 141.56 65.33 M 143.35 64.96 L 143.35 68.08 L 142.46 68.08 L 142.46 67.25 Q 142.15 67.75 141.69 67.99 Q 141.23 68.22 140.57 68.22 Q 139.73 68.22 139.23 67.76 Q 138.74 67.28 138.74 66.49 Q 138.74 65.57 139.35 65.1 Q 139.97 64.63 141.2 64.63 L 142.46 64.63 L 142.46 64.54 Q 142.46 63.92 142.05 63.59 Q 141.64 63.24 140.9 63.24 Q 140.43 63.24 139.99 63.36 Q 139.55 63.47 139.14 63.69 L 139.14 62.86 Q 139.63 62.67 140.09 62.58 Q 140.56 62.48 141 62.48 Q 142.18 62.48 142.77 63.1 Q 143.35 63.71 143.35 64.96 z M 148.69 62.78 L 148.69 63.63 Q 148.31 63.43 147.9 63.33 Q 147.49 63.23 147.05 63.23 Q 146.38 63.23 146.04 63.44 Q 145.71 63.64 145.71 64.05 Q 145.71 64.37 145.95 64.55 Q 146.19 64.72 146.91 64.88 L 147.22 64.95 Q 148.18 65.16 148.58 65.53 Q 148.98 65.91 148.98 66.57 Q 148.98 67.34 148.38 67.78 Q 147.78 68.22 146.72 68.22 Q 146.28 68.22 145.81 68.14 Q 145.33 68.05 144.8 67.88 L 144.8 66.96 Q 145.3 67.21 145.79 67.35 Q 146.27 67.47 146.74 67.47 Q 147.38 67.47 147.72 67.26 Q 148.06 67.04 148.06 66.64 Q 148.06 66.28 147.81 66.08 Q 147.57 65.89 146.73 65.71 L 146.42 65.63 Q 145.59 65.46 145.21 65.09 Q 144.84 64.73 144.84 64.09 Q 144.84 63.32 145.39 62.9 Q 145.94 62.48 146.94 62.48 Q 147.44 62.48 147.88 62.56 Q 148.32 62.63 148.69 62.78 z z M 157.19 65.29 Q 157.19 64.31 156.79 63.77 Q 156.39 63.23 155.66 63.23 Q 154.94 63.23 154.53 63.77 Q 154.13 64.31 154.13 65.29 Q 154.13 66.26 154.53 66.79 Q 154.94 67.33 155.66 67.33 Q 156.39 67.33 156.79 66.79 Q 157.19 66.26 157.19 65.29 M 158.09 67.4 Q 158.09 68.8 157.47 69.48 Q 156.85 70.16 155.57 70.16 Q 155.1 70.16 154.68 70.09 Q 154.26 70.02 153.86 69.88 L 153.86 69 Q 154.26 69.22 154.64 69.32 Q 155.03 69.42 155.43 69.42 Q 156.31 69.42 156.75 68.96 Q 157.19 68.5 157.19 67.57 L 157.19 67.12 Q 156.91 67.6 156.48 67.84 Q 156.04 68.08 155.44 68.08 Q 154.43 68.08 153.82 67.32 Q 153.2 66.55 153.2 65.29 Q 153.2 64.02 153.82 63.25 Q 154.43 62.48 155.44 62.48 Q 156.04 62.48 156.48 62.72 Q 156.91 62.96 157.19 63.44 L 157.19 62.61 L 158.09 62.61 L 158.09 67.4 z M 162.43 65.33 Q 161.34 65.33 160.92 65.58 Q 160.5 65.83 160.5 66.43 Q 160.5 66.91 160.81 67.19 Q 161.13 67.47 161.67 67.47 Q 162.42 67.47 162.87 66.95 Q 163.32 66.41 163.32 65.53 L 163.32 65.33 L 162.43 65.33 M 164.22 64.96 L 164.22 68.08 L 163.32 68.08 L 163.32 67.25 Q 163.01 67.75 162.55 67.99 Q 162.09 68.22 161.43 68.22 Q 160.59 68.22 160.09 67.76 Q 159.6 67.28 159.6 66.49 Q 159.6 65.57 160.21 65.1 Q 160.83 64.63 162.06 64.63 L 163.32 64.63 L 163.32 64.54 Q 163.32 63.92 162.91 63.59 Q 162.5 63.24 161.77 63.24 Q 161.3 63.24 160.85 63.36 Q 160.41 63.47 160 63.69 L 160 62.86 Q 160.49 62.67 160.96 62.58 Q 161.42 62.48 161.86 62.48 Q 163.05 62.48 163.63 63.1 Q 164.22 63.71 164.22 64.96 z M 166.94 67.26 L 166.94 70.16 L 166.04 70.16 L 166.04 62.61 L 166.94 62.61 L 166.94 63.44 Q 167.22 62.96 167.65 62.72 Q 168.09 62.48 168.69 62.48 Q 169.68 62.48 170.3 63.27 Q 170.93 64.06 170.93 65.35 Q 170.93 66.64 170.3 67.43 Q 169.68 68.22 168.69 68.22 Q 168.09 68.22 167.65 67.99 Q 167.22 67.75 166.94 67.26 M 170 65.35 Q 170 64.36 169.58 63.8 Q 169.18 63.23 168.47 63.23 Q 167.75 63.23 167.34 63.8 Q 166.94 64.36 166.94 65.35 Q 166.94 66.34 167.34 66.91 Q 167.75 67.47 168.47 67.47 Q 169.18 67.47 169.58 66.91 Q 170 66.34 170 65.35 z M 175.9 62.78 L 175.9 63.63 Q 175.52 63.43 175.11 63.33 Q 174.7 63.23 174.26 63.23 Q 173.59 63.23 173.26 63.44 Q 172.92 63.64 172.92 64.05 Q 172.92 64.37 173.16 64.55 Q 173.4 64.72 174.13 64.88 L 174.43 64.95 Q 175.39 65.16 175.79 65.53 Q 176.2 65.91 176.2 66.57 Q 176.2 67.34 175.59 67.78 Q 174.99 68.22 173.94 68.22 Q 173.5 68.22 173.02 68.14 Q 172.54 68.05 172.02 67.88 L 172.02 66.96 Q 172.51 67.21 173 67.35 Q 173.48 67.47 173.96 67.47 Q 174.59 67.47 174.93 67.26 Q 175.27 67.04 175.27 66.64 Q 175.27 66.28 175.02 66.08 Q 174.78 65.89 173.95 65.71 L 173.63 65.63 Q 172.8 65.46 172.43 65.09 Q 172.06 64.73 172.06 64.09 Q 172.06 63.32 172.6 62.9 Q 173.15 62.48 174.16 62.48 Q 174.65 62.48 175.09 62.56 Q 175.53 62.63 175.9 62.78 z" fill="#000000"/>
</g>
<g id="spines_1">
<path d="M 57.6 307.58 L 414.72 307.58 L 414.72 41.47 L 57.6 41.47 z" fill="none" stroke="#000000" stroke-width="0.8" stroke-linecap="square" stroke-linejoin="round"/>
</g>
<g id="xtick_1">
<path d="M 93.31 307.58 L 93.31 311.08" fill="none" stroke="#000000" stroke-width="0.8" stroke-linejoin="round"/>
<path d="M 87 320.32 L 93.26 320.32 L 93.26 321.15 L 87 321.15 L 87 320.32 z M 98.1 317.44 L 95.61 321.33 L 98.1 321.33 L 98.1 317.44 M 97.84 316.58 L 99.08 316.58 L 99.08 321.33 L 100.12 321.33 L 100.12 322.15 L 99.08 322.15 L 99.08 323.87 L 98.1 323.87 L 98.1 322.15 L 94.81 322.15 L 94.81 321.2 L 97.84 316.58 z" fill="#000000"/>
<path d="M 164.74 307.58 L 164.74 311.08" fill="none" stroke="#000000" stroke-width="0.8" stroke-linejoin="round"/>
<path d="M 158.42 320.32 L 164.68 320.32 L 164.68 321.15 L 158.42 321.15 L 158.42 320.32 z M 167.66 323.04 L 171.11 323.04 L 171.11 323.87 L 166.48 323.87 L 166.48 323.04 Q 167.04 322.46 168.01 321.48 Q 168.98 320.5 169.23 320.21 Q 169.7 319.68 169.88 319.32 Q 170.08 318.94 170.08 318.59 Q 170.08 318.01 169.67 317.64 Q 169.26 317.27 168.61 317.27 Q 168.14 317.27 167.62 317.44 Q 167.11 317.6 166.53 317.92 L 166.53 316.93 Q 167.12 316.69 167.64 316.57 Q 168.16 316.44 168.59 316.44 Q 169.72 316.44 170.39 317.01 Q 171.07 317.58 171.07 318.52 Q 171.07 318.97 170.9 319.38 Q 170.73 319.78 170.29 320.33 Q 170.16 320.47 169.51 321.15 Q 168.85 321.82 167.66 323.04 z" fill="#000000"/>
<path d="M 236.16 307.58 L 236.16 311.08" fill="none" stroke="#000000" stroke-width="0.8" stroke-linejoin="round"/>
<path d="M 236.16 317.23 Q 235.4 317.23 235.01 317.98 Q 234.63 318.72 234.63 320.23 Q 234.63 321.73 235.01 322.48 Q 235.4 323.23 236.16 323.23 Q 236.92 323.23 237.31 322.48 Q 237.69 321.73 237.69 320.23 Q 237.69 318.72 237.31 317.98 Q 236.92 317.23 236.16 317.23 M 236.16 316.44 Q 237.38 316.44 238.03 317.42 Q 238.68 318.38 238.68 320.23 Q 238.68 322.07 238.03 323.04 Q 237.38 324.01 236.16 324.01 Q 234.93 324.01 234.28 323.04 Q 233.64 322.07 233.64 320.23 Q 233.64 318.38 234.28 317.42 Q 234.93 316.44 236.16 316.44 z" fill="#000000"/>
<path d="M 307.58 307.58 L 307.58 311.08" fill="none" stroke="#000000" stroke-width="0.8" stroke-linejoin="round"/>
<path d="M 306.32 323.04 L 309.76 323.04 L 309.76 323.87 L 305.14 323.87 L 305.14 323.04 Q 305.7 322.46 306.66 321.48 Q 307.64 320.5 307.88 320.21 Q 308.36 319.68 308.54 319.32 Q 308.73 318.94 308.73 318.59 Q 308.73 318.01 308.32 317.64 Q 307.92 317.27 307.26 317.27 Q 306.8 317.27 306.28 317.44 Q 305.77 317.6 305.18 317.92 L 305.18 316.93 Q 305.78 316.69 306.3 316.57 Q 306.81 316.44 307.24 316.44 Q 308.38 316.44 309.05 317.01 Q 309.73 317.58 309.73 318.52 Q 309.73 318.97 309.55 319.38 Q 309.39 319.78 308.94 320.33 Q 308.82 320.47 308.17 321.15 Q 307.51 321.82 306.32 323.04 z" fill="#000000"/>
<path d="M 379.01 307.58 L 379.01 311.08" fill="none" stroke="#000000" stroke-width="0.8" stroke-linejoin="round"/>
<path d="M 379.61 317.44 L 377.12 321.33 L 379.61 321.33 L 379.61 317.44 M 379.35 316.58 L 380.59 316.58 L 380.59 321.33 L 381.63 321.33 L 381.63 322.15 L 380.59 322.15 L 380.59 323.87 L 379.61 323.87 L 379.61 322.15 L 376.32 322.15 L 376.32 321.2 L 379.35 316.58 z" fill="#000000"/>
</g>
<g id="ytick_1">
<path d="M 57.6 307.58 L 54.1 307.58" fill="none" stroke="#000000" stroke-width="0.8" stroke-linejoin="round"/>
<path d="M 36.92 307.5 L 43.18 307.5 L 43.18 308.33 L 36.92 308.33 L 36.92 307.5 z M 48.02 304.62 L 45.53 308.51 L 48.02 308.51 L 48.02 304.62 M 47.76 303.76 L 49 303.76 L 49 308.51 L 50.04 308.51 L 50.04 309.33 L 49 309.33 L 49 311.05 L 48.02 311.05 L 48.02 309.33 L 44.73 309.33 L 44.73 308.38 L 47.76 303.76 z" fill="#000000"/>
<path d="M 57.6 274.32 L 54.1 274.32" fill="none" stroke="#000000" stroke-width="0.8" stroke-linejoin="round"/>
<path d="M 36.92 274.23 L 43.18 274.23 L 43.18 275.06 L 36.92 275.06 L 36.92 274.23 z M 48.3 273.85 Q 49 274 49.4 274.48 Q 49.8 274.96 49.8 275.66 Q 49.8 276.74 49.06 277.33 Q 48.31 277.92 46.95 277.92 Q 46.49 277.92 46 277.84 Q 45.52 277.74 45 277.56 L 45 276.61 Q 45.41 276.85 45.9 276.97 Q 46.39 277.09 46.92 277.09 Q 47.85 277.09 48.33 276.73 Q 48.82 276.36 48.82 275.66 Q 48.82 275.02 48.36 274.66 Q 47.91 274.29 47.11 274.29 L 46.26 274.29 L 46.26 273.48 L 47.15 273.48 Q 47.88 273.48 48.26 273.19 Q 48.65 272.9 48.65 272.35 Q 48.65 271.79 48.25 271.49 Q 47.85 271.19 47.11 271.19 Q 46.7 271.19 46.24 271.28 Q 45.78 271.37 45.22 271.55 L 45.22 270.67 Q 45.78 270.52 46.27 270.44 Q 46.76 270.36 47.2 270.36 Q 48.32 270.36 48.97 270.87 Q 49.63 271.38 49.63 272.25 Q 49.63 272.86 49.28 273.28 Q 48.93 273.69 48.3 273.85 z" fill="#000000"/>
<path d="M 57.6 241.06 L 54.1 241.06" fill="none" stroke="#000000" stroke-width="0.8" stroke-linejoin="round"/>
<path d="M 36.92 240.97 L 43.18 240.97 L 43.18 241.8 L 36.92 241.8 L 36.92 240.97 z M 46.16 243.69 L 49.6 243.69 L 49.6 244.52 L 44.97 244.52 L 44.97 243.69 Q 45.53 243.11 46.5 242.13 Q 47.47 241.15 47.72 240.87 Q 48.19 240.33 48.38 239.97 Q 48.57 239.6 48.57 239.24 Q 48.57 238.66 48.16 238.29 Q 47.75 237.93 47.1 237.93 Q 46.64 237.93 46.12 238.09 Q 45.6 238.25 45.02 238.58 L 45.02 237.58 Q 45.61 237.34 46.13 237.22 Q 46.65 237.1 47.08 237.1 Q 48.21 237.1 48.89 237.66 Q 49.56 238.23 49.56 239.18 Q 49.56 239.63 49.39 240.03 Q 49.22 240.43 48.78 240.98 Q 48.66 241.12 48 241.8 Q 47.35 242.47 46.16 243.69 z" fill="#000000"/>
<path d="M 57.6 207.79 L 54.1 207.79" fill="none" stroke="#000000" stroke-width="0.8" stroke-linejoin="round"/>
<path d="M 36.92 207.7 L 43.18 207.7 L 43.18 208.53 L 36.92 208.53 L 36.92 207.7 z M 45.48 210.42 L 47.09 210.42 L 47.09 204.86 L 45.34 205.21 L 45.34 204.32 L 47.08 203.96 L 48.07 203.96 L 48.07 210.42 L 49.68 210.42 L 49.68 211.25 L 45.48 211.25 L 45.48 210.42 z" fill="#000000"/>
<path d="M 57.6 174.53 L 54.1 174.53" fill="none" stroke="#000000" stroke-width="0.8" stroke-linejoin="round"/>
<path d="M 47.42 171.35 Q 46.65 171.35 46.27 172.1 Q 45.89 172.85 45.89 174.35 Q 45.89 175.85 46.27 176.6 Q 46.65 177.35 47.42 177.35 Q 48.18 177.35 48.56 176.6 Q 48.95 175.85 48.95 174.35 Q 48.95 172.85 48.56 172.1 Q 48.18 171.35 47.42 171.35 M 47.42 170.57 Q 48.64 170.57 49.29 171.54 Q 49.94 172.51 49.94 174.35 Q 49.94 176.19 49.29 177.16 Q 48.64 178.13 47.42 178.13 Q 46.19 178.13 45.54 177.16 Q 44.9 176.19 44.9 174.35 Q 44.9 172.51 45.54 171.54 Q 46.19 170.57 47.42 170.57 z" fill="#000000"/>
<path d="M 57.6 141.26 L 54.1 141.26" fill="none" stroke="#000000" stroke-width="0.8" stroke-linejoin="round"/>
<path d="M 45.48 143.9 L 47.09 143.9 L 47.09 138.33 L 45.34 138.69 L 45.34 137.79 L 47.08 137.44 L 48.07 137.44 L 48.07 143.9 L 49.68 143.9 L 49.68 144.73 L 45.48 144.73 L 45.48 143.9 z" fill="#000000"/>
<path d="M 57.6 108 L 54.1 108" fill="none" stroke="#000000" stroke-width="0.8" stroke-linejoin="round"/>
<path d="M 46.16 110.63 L 49.6 110.63 L 49.6 111.46 L 44.97 111.46 L 44.97 110.63 Q 45.53 110.05 46.5 109.07 Q 47.47 108.09 47.72 107.81 Q 48.19 107.28 48.38 106.91 Q 48.57 106.54 48.57 106.18 Q 48.57 105.6 48.16 105.24 Q 47.75 104.87 47.1 104.87 Q 46.64 104.87 46.12 105.03 Q 45.6 105.19 45.02 105.52 L 45.02 104.52 Q 45.61 104.28 46.13 104.16 Q 46.65 104.04 47.08 104.04 Q 48.21 104.04 48.89 104.61 Q 49.56 105.17 49.56 106.12 Q 49.56 106.57 49.39 106.97 Q 49.22 107.38 48.78 107.92 Q 48.66 108.06 48 108.74 Q 47.35 109.42 46.16 110.63 z" fill="#000000"/>
<path d="M 57.6 74.74 L 54.1 74.74" fill="none" stroke="#000000" stroke-width="0.8" stroke-linejoin="round"/>
<path d="M 48.3 74.27 Q 49 74.42 49.4 74.9 Q 49.8 75.38 49.8 76.08 Q 49.8 77.16 49.06 77.75 Q 48.31 78.34 46.95 78.34 Q 46.49 78.34 46 78.25 Q 45.52 78.16 45 77.98 L 45 77.03 Q 45.41 77.27 45.9 77.39 Q 46.39 77.51 46.92 77.51 Q 47.85 77.51 48.33 77.14 Q 48.82 76.78 48.82 76.08 Q 48.82 75.43 48.36 75.07 Q 47.91 74.71 47.11 74.71 L 46.26 74.71 L 46.26 73.9 L 47.15 73.9 Q 47.88 73.9 48.26 73.61 Q 48.65 73.32 48.65 72.77 Q 48.65 72.21 48.25 71.91 Q 47.85 71.61 47.11 71.61 Q 46.7 71.61 46.24 71.69 Q 45.78 71.78 45.22 71.97 L 45.22 71.09 Q 45.78 70.93 46.27 70.85 Q 46.76 70.78 47.2 70.78 Q 48.32 70.78 48.97 71.29 Q 49.63 71.8 49.63 72.67 Q 49.63 73.27 49.28 73.69 Q 48.93 74.11 48.3 74.27 z" fill="#000000"/>
<path d="M 57.6 41.47 L 54.1 41.47" fill="none" stroke="#000000" stroke-width="0.8" stroke-linejoin="round"/>
<path d="M 48.02 38.5 L 45.53 42.39 L 48.02 42.39 L 48.02 38.5 M 47.76 37.64 L 49 37.64 L 49 42.39 L 50.04 42.39 L 50.04 43.22 L 49 43.22 L 49 44.93 L 48.02 44.93 L 48.02 43.22 L 44.73 43.22 L 44.73 42.26 L 47.76 37.64 z" fill="#000000"/>
</g>
<g id="text_2">
<path d="M 238.69 334.04 L 236.71 336.7 L 238.79 339.51 L 237.73 339.51 L 236.14 337.36 L 234.55 339.51 L 233.49 339.51 L 235.61 336.65 L 233.67 334.04 L 234.73 334.04 L 236.18 335.99 L 237.63 334.04 L 238.69 334.04 z" fill="#000000"/>
</g>
<g id="text_3">
<path d="M 22.48 187.75 L 24.03 187.75 L 24.03 185.9 L 24.73 185.9 L 24.73 187.75 L 27.7 187.75 Q 28.37 187.75 28.56 187.57 Q 28.75 187.38 28.75 186.82 L 28.75 185.9 L 29.5 185.9 L 29.5 186.82 Q 29.5 187.86 29.11 188.26 Q 28.72 188.65 27.7 188.65 L 24.73 188.65 L 24.73 189.31 L 24.03 189.31 L 24.03 188.65 L 22.48 188.65 L 22.48 187.75 z M 26.75 182.23 Q 26.75 183.32 27 183.74 Q 27.25 184.16 27.85 184.16 Q 28.33 184.16 28.61 183.85 Q 28.89 183.53 28.89 182.99 Q 28.89 182.24 28.36 181.79 Q 27.83 181.34 26.95 181.34 L 26.75 181.34 L 26.75 182.23 M 26.38 180.44 L 29.5 180.44 L 29.5 181.34 L 28.67 181.34 Q 29.17 181.65 29.41 182.11 Q 29.64 182.57 29.64 183.23 Q 29.64 184.07 29.17 184.57 Q 28.7 185.06 27.91 185.06 Q 26.99 185.06 26.52 184.44 Q 26.05 183.82 26.05 182.6 L 26.05 181.34 L 25.96 181.34 Q 25.34 181.34 25 181.75 Q 24.66 182.15 24.66 182.89 Q 24.66 183.36 24.77 183.81 Q 24.89 184.25 25.11 184.66 L 24.28 184.66 Q 24.09 184.17 24 183.7 Q 23.9 183.24 23.9 182.8 Q 23.9 181.61 24.52 181.03 Q 25.13 180.44 26.38 180.44 z M 26.2 174.04 L 29.5 174.04 L 29.5 174.94 L 26.23 174.94 Q 25.45 174.94 25.07 175.25 Q 24.68 175.55 24.68 176.15 Q 24.68 176.88 25.14 177.3 Q 25.61 177.72 26.41 177.72 L 29.5 177.72 L 29.5 178.62 L 24.03 178.62 L 24.03 177.72 L 24.88 177.72 Q 24.39 177.4 24.14 176.96 Q 23.9 176.53 23.9 175.95 Q 23.9 175.01 24.49 174.53 Q 25.07 174.04 26.2 174.04 z M 21.91 170.09 Q 23.04 170.75 24.13 171.07 Q 25.23 171.38 26.36 171.38 Q 27.49 171.38 28.6 171.07 Q 29.7 170.74 30.82 170.09 L 30.82 170.88 Q 29.67 171.61 28.56 171.97 Q 27.45 172.34 26.36 172.34 Q 25.27 172.34 24.17 171.97 Q 23.06 171.61 21.91 170.88 L 21.91 170.09 z M 24.03 163.81 L 26.69 165.78 L 29.5 163.7 L 29.5 164.76 L 27.35 166.35 L 29.5 167.95 L 29.5 169.01 L 26.64 166.88 L 24.03 168.82 L 24.03 167.77 L 25.98 166.32 L 24.03 164.86 L 24.03 163.81 z M 21.91 162.57 L 21.91 161.79 Q 23.06 161.06 24.17 160.7 Q 25.27 160.33 26.36 160.33 Q 27.45 160.33 28.56 160.7 Q 29.67 161.06 30.82 161.79 L 30.82 162.57 Q 29.7 161.93 28.6 161.61 Q 27.49 161.29 26.36 161.29 Q 25.23 161.29 24.13 161.61 Q 23.04 161.93 21.91 162.57 z" fill="#000000"/>
</g>
<g id="text_4">
<path d="M 176.71 23.89 L 178.47 23.89 L 180.71 29.85 L 182.95 23.89 L 184.71 23.89 L 184.71 32.64 L 183.56 32.64 L 183.56 24.96 L 181.3 30.96 L 180.12 30.96 L 177.86 24.96 L 177.86 32.64 L 176.71 32.64 L 176.71 23.89 z M 190 29.34 Q 188.69 29.34 188.19 29.64 Q 187.69 29.94 187.69 30.66 Q 187.69 31.24 188.06 31.58 Q 188.44 31.91 189.09 31.91 Q 189.99 31.91 190.53 31.28 Q 191.07 30.64 191.07 29.58 L 191.07 29.34 L 190 29.34 M 192.15 28.9 L 192.15 32.64 L 191.07 32.64 L 191.07 31.65 Q 190.7 32.24 190.15 32.53 Q 189.6 32.81 188.8 32.81 Q 187.8 32.81 187.2 32.25 Q 186.61 31.68 186.61 30.73 Q 186.61 29.62 187.35 29.06 Q 188.09 28.5 189.56 28.5 L 191.07 28.5 L 191.07 28.39 Q 191.07 27.65 190.58 27.25 Q 190.09 26.84 189.21 26.84 Q 188.65 26.84 188.11 26.97 Q 187.58 27.1 187.09 27.37 L 187.09 26.38 Q 187.68 26.15 188.24 26.04 Q 188.79 25.92 189.32 25.92 Q 190.74 25.92 191.45 26.66 Q 192.15 27.4 192.15 28.9 z M 199.83 28.68 L 199.83 32.64 L 198.75 32.64 L 198.75 28.72 Q 198.75 27.78 198.38 27.32 Q 198.02 26.86 197.29 26.86 Q 196.42 26.86 195.92 27.42 Q 195.41 27.97 195.41 28.93 L 195.41 32.64 L 194.33 32.64 L 194.33 26.08 L 195.41 26.08 L 195.41 27.1 Q 195.8 26.51 196.32 26.21 Q 196.85 25.92 197.54 25.92 Q 198.67 25.92 199.25 26.62 Q 199.83 27.32 199.83 28.68 z M 201.87 30.05 L 201.87 26.08 L 202.94 26.08 L 202.94 30.01 Q 202.94 30.94 203.31 31.41 Q 203.67 31.87 204.4 31.87 Q 205.27 31.87 205.77 31.32 Q 206.28 30.76 206.28 29.8 L 206.28 26.08 L 207.36 26.08 L 207.36 32.64 L 206.28 32.64 L 206.28 31.63 Q 205.89 32.23 205.37 32.52 Q 204.85 32.81 204.17 32.81 Q 203.04 32.81 202.45 32.11 Q 201.87 31.41 201.87 30.05 M 204.58 25.92 L 204.58 25.92 z M 212.56 29.34 Q 211.26 29.34 210.75 29.64 Q 210.25 29.94 210.25 30.66 Q 210.25 31.24 210.62 31.58 Q 211.01 31.91 211.66 31.91 Q 212.55 31.91 213.09 31.28 Q 213.64 30.64 213.64 29.58 L 213.64 29.34 L 212.56 29.34 M 214.71 28.9 L 214.71 32.64 L 213.64 32.64 L 213.64 31.65 Q 213.27 32.24 212.72 32.53 Q 212.17 32.81 211.37 32.81 Q 210.36 32.81 209.76 32.25 Q 209.17 31.68 209.17 30.73 Q 209.17 29.62 209.91 29.06 Q 210.65 28.5 212.12 28.5 L 213.64 28.5 L 213.64 28.39 Q 213.64 27.65 213.14 27.25 Q 212.66 26.84 211.77 26.84 Q 211.21 26.84 210.68 26.97 Q 210.14 27.1 209.65 27.37 L 209.65 26.38 Q 210.24 26.15 210.8 26.04 Q 211.36 25.92 211.88 25.92 Q 213.31 25.92 214.01 26.66 Q 214.71 27.4 214.71 28.9 z M 216.94 23.52 L 218.01 23.52 L 218.01 32.64 L 216.94 32.64 L 216.94 23.52 z z M 224.08 23.52 L 225.16 23.52 L 225.16 32.64 L 224.08 32.64 L 224.08 23.52 z M 227.42 26.08 L 228.5 26.08 L 228.5 32.64 L 227.42 32.64 L 227.42 26.08 M 227.42 23.52 L 228.5 23.52 L 228.5 24.89 L 227.42 24.89 L 227.42 23.52 z M 235.86 27.34 Q 236.27 26.61 236.83 26.27 Q 237.39 25.92 238.15 25.92 Q 239.18 25.92 239.73 26.64 Q 240.29 27.36 240.29 28.68 L 240.29 32.64 L 239.21 32.64 L 239.21 28.72 Q 239.21 27.77 238.87 27.32 Q 238.54 26.86 237.85 26.86 Q 237.02 26.86 236.53 27.42 Q 236.04 27.97 236.04 28.93 L 236.04 32.64 L 234.96 32.64 L 234.96 28.72 Q 234.96 27.77 234.62 27.32 Q 234.29 26.86 233.59 26.86 Q 232.77 26.86 232.28 27.42 Q 231.79 27.98 231.79 28.93 L 231.79 32.64 L 230.71 32.64 L 230.71 26.08 L 231.79 26.08 L 231.79 27.1 Q 232.16 26.5 232.68 26.21 Q 233.2 25.92 233.9 25.92 Q 234.62 25.92 235.12 26.28 Q 235.62 26.65 235.86 27.34 z M 242.44 26.08 L 243.52 26.08 L 243.52 32.64 L 242.44 32.64 L 242.44 26.08 M 242.44 23.52 L 243.52 23.52 L 243.52 24.89 L 242.44 24.89 L 242.44 23.52 z M 246.84 24.22 L 246.84 26.08 L 249.06 26.08 L 249.06 26.92 L 246.84 26.92 L 246.84 30.48 Q 246.84 31.28 247.06 31.51 Q 247.28 31.74 247.95 31.74 L 249.06 31.74 L 249.06 32.64 L 247.95 32.64 Q 246.71 32.64 246.23 32.18 Q 245.76 31.71 245.76 30.48 L 245.76 26.92 L 244.97 26.92 L 244.97 26.08 L 245.76 26.08 L 245.76 24.22 L 246.84 24.22 z M 254.66 26.27 L 254.66 27.29 Q 254.21 27.06 253.71 26.94 Q 253.22 26.82 252.7 26.82 Q 251.89 26.82 251.49 27.07 Q 251.09 27.32 251.09 27.81 Q 251.09 28.18 251.38 28.4 Q 251.66 28.61 252.53 28.8 L 252.9 28.89 Q 254.05 29.13 254.53 29.58 Q 255.02 30.03 255.02 30.83 Q 255.02 31.75 254.29 32.28 Q 253.57 32.81 252.3 32.81 Q 251.78 32.81 251.2 32.71 Q 250.63 32.61 250 32.4 L 250 31.29 Q 250.6 31.6 251.18 31.76 Q 251.76 31.91 252.33 31.91 Q 253.09 31.91 253.5 31.65 Q 253.91 31.39 253.91 30.91 Q 253.91 30.47 253.61 30.24 Q 253.32 30.01 252.31 29.79 L 251.94 29.7 Q 250.94 29.49 250.49 29.06 Q 250.05 28.62 250.05 27.85 Q 250.05 26.93 250.7 26.43 Q 251.36 25.92 252.57 25.92 Q 253.16 25.92 253.69 26.01 Q 254.22 26.1 254.66 26.27 z z M 264.94 25.12 L 264.94 28.38 L 268.2 28.38 L 268.2 29.38 L 264.94 29.38 L 264.94 32.64 L 263.95 32.64 L 263.95 29.38 L 260.69 29.38 L 260.69 28.38 L 263.95 28.38 L 263.95 25.12 L 264.94 25.12 z z M 278.73 29.28 Q 278.73 28.11 278.25 27.47 Q 277.77 26.82 276.89 26.82 Q 276.03 26.82 275.54 27.47 Q 275.06 28.11 275.06 29.28 Q 275.06 30.45 275.54 31.1 Q 276.03 31.74 276.89 31.74 Q 277.77 31.74 278.25 31.1 Q 278.73 30.45 278.73 29.28 M 279.81 31.83 Q 279.81 33.5 279.07 34.32 Q 278.32 35.14 276.79 35.14 Q 276.22 35.14 275.72 35.06 Q 275.21 34.97 274.74 34.79 L 274.74 33.74 Q 275.21 34 275.68 34.12 Q 276.14 34.25 276.62 34.25 Q 277.68 34.25 278.21 33.7 Q 278.73 33.14 278.73 32.02 L 278.73 31.49 Q 278.4 32.07 277.88 32.35 Q 277.36 32.64 276.63 32.64 Q 275.42 32.64 274.69 31.72 Q 273.95 30.8 273.95 29.28 Q 273.95 27.76 274.69 26.84 Q 275.42 25.92 276.63 25.92 Q 277.36 25.92 277.88 26.21 Q 278.4 26.5 278.73 27.08 L 278.73 26.08 L 279.81 26.08 L 279.81 31.83 z M 285.84 27.09 Q 285.65 26.98 285.44 26.93 Q 285.23 26.88 284.97 26.88 Q 284.05 26.88 283.56 27.48 Q 283.08 28.07 283.08 29.18 L 283.08 32.64 L 281.99 32.64 L 281.99 26.08 L 283.08 26.08 L 283.08 27.1 Q 283.42 26.5 283.96 26.21 Q 284.51 25.92 285.29 25.92 Q 285.4 25.92 285.53 25.94 Q 285.67 25.95 285.83 25.98 L 285.84 27.09 z M 286.97 26.08 L 288.04 26.08 L 288.04 32.64 L 286.97 32.64 L 286.97 26.08 M 286.97 23.52 L 288.04 23.52 L 288.04 24.89 L 286.97 24.89 L 286.97 23.52 z M 294.62 27.08 L 294.62 23.52 L 295.7 23.52 L 295.7 32.64 L 294.62 32.64 L 294.62 31.66 Q 294.28 32.24 293.76 32.53 Q 293.24 32.81 292.52 32.81 Q 291.33 32.81 290.58 31.86 Q 289.83 30.91 289.83 29.37 Q 289.83 27.82 290.58 26.87 Q 291.33 25.92 292.52 25.92 Q 293.24 25.92 293.76 26.21 Q 294.28 26.49 294.62 27.08 M 290.95 29.37 Q 290.95 30.56 291.43 31.24 Q 291.92 31.91 292.78 31.91 Q 293.63 31.91 294.13 31.24 Q 294.62 30.56 294.62 29.37 Q 294.62 28.18 294.13 27.5 Q 293.63 26.82 292.78 26.82 Q 291.92 26.82 291.43 27.5 Q 290.95 28.18 290.95 29.37 z" fill="#000000"/>
</g>
</g>
</g>
</svg>
