<?xml version="1.0" encoding="utf-8" standalone="no"?>
<!DOCTYPE svg PUBLIC "-//W3C//DTD SVG 1.1//EN" "http://www.w3.org/Graphics/SVG/1.1/DTD/svg11.dtd">
<svg xmlns="http://www.w3.org/2000/svg" width="720pt" height="302.4pt" viewBox="0 0 720 302.4" version="1.1">
<defs>
<clipPath id="p1"><rect x="55.45" y="30.77" width="293.75" height="226.55"/></clipPath>
<clipPath id="p2"><rect x="412.53" y="30.77" width="296.67" height="226.55"/></clipPath>
</defs>
<g id="figure_1">
<path d="M 0 302.4 L 720 302.4 L 720 0 L 0 0 z" fill="#ffffff"/>
<g id="axes_1">
<path d="M 55.45 257.32 L 349.2 257.32 L 349.2 30.77 L 55.45 30.77 z" fill="#ffffff"/>
<g id="grid_1">
<path d="M 68.8 257.32 L 68.8 30.77" fill="none" stroke="#b0b0b0" stroke-width="0.8" stroke-linejoin="round"/>
<path d="M 157.82 257.32 L 157.82 30.77" fill="none" stroke="#b0b0b0" stroke-width="0.8" stroke-linejoin="round"/>
<path d="M 246.83 257.32 L 246.83 30.77" fill="none" stroke="#b0b0b0" stroke-width="0.8" stroke-linejoin="round"/>
<path d="M 335.85 257.32 L 335.85 30.77" fill="none" stroke="#b0b0b0" stroke-width="0.8" stroke-linejoin="round"/>
<path d="M 55.45 229.07 L 349.2 229.07" fill="none" stroke="#b0b0b0" stroke-width="0.8" stroke-linejoin="round"/>
<path d="M 55.45 194.75 L 349.2 194.75" fill="none" stroke="#b0b0b0" stroke-width="0.8" stroke-linejoin="round"/>
<path d="M 55.45 160.42 L 349.2 160.42" fill="none" stroke="#b0b0b0" stroke-width="0.8" stroke-linejoin="round"/>
<path d="M 55.45 126.1 L 349.2 126.1" fill="none" stroke="#b0b0b0" stroke-width="0.8" stroke-linejoin="round"/>
<path d="M 55.45 91.77 L 349.2 91.77" fill="none" stroke="#b0b0b0" stroke-width="0.8" stroke-linejoin="round"/>
<path d="M 55.45 57.44 L 349.2 57.44" fill="none" stroke="#b0b0b0" stroke-width="0.8" stroke-linejoin="round"/>
</g>
<g id="line2d_1">
<path clip-path="url(#p1)" d="M 68.8 247.02 L 335.85 41.07 L 335.85 41.07" fill="none" stroke="#1f77b4" stroke-width="1.5" stroke-linecap="square" stroke-linejoin="round"/>
</g>
<g id="line2d_2">
<path clip-path="url(#p1)" d="M 68.8 167.25 L 335.85 115.76 L 335.85 115.76" fill="none" stroke="#ff7f0e" stroke-width="1.5" stroke-dasharray="5.55,2.4" stroke-linejoin="round"/>
</g>
<g id="spines_1">
<path d="M 55.45 257.32 L 349.2 257.32 L 349.2 30.77 L 55.45 30.77 z" fill="none" stroke="#000000" stroke-width="0.8" stroke-linecap="square" stroke-linejoin="round"/>
</g>
<g id="xtick_1">
<path d="M 68.8 257.32 L 68.8 260.82" fill="none" stroke="#000000" stroke-width="0.8" stroke-linejoin="round"/>
<path d="M 59.04 272.77 L 60.65 272.77 L 60.65 267.21 L 58.9 267.56 L 58.9 266.66 L 60.64 266.31 L 61.63 266.31 L 61.63 272.77 L 63.24 272.77 L 63.24 273.6 L 59.04 273.6 L 59.04 272.77 z M 67.34 266.96 Q 66.58 266.96 66.19 267.71 Q 65.81 268.46 65.81 269.96 Q 65.81 271.46 66.19 272.21 Q 66.58 272.96 67.34 272.96 Q 68.11 272.96 68.49 272.21 Q 68.87 271.46 68.87 269.96 Q 68.87 268.46 68.49 267.71 Q 68.11 266.96 67.34 266.96 M 67.34 266.18 Q 68.57 266.18 69.21 267.15 Q 69.86 268.12 69.86 269.96 Q 69.86 271.8 69.21 272.78 Q 68.57 273.74 67.34 273.74 Q 66.11 273.74 65.46 272.78 Q 64.82 271.8 64.82 269.96 Q 64.82 268.12 65.46 267.15 Q 66.11 266.18 67.34 266.18 z M 71.19 268.35 L 75.13 268.35 L 75.13 268.82 L 71.19 268.82 L 71.19 268.35 z M 76.56 269.8 L 77.56 269.8 L 77.56 266.82 L 76.47 267.02 L 76.47 266.45 L 77.59 266.26 L 78.26 266.26 L 78.26 269.8 L 79.26 269.8 L 79.26 270.34 L 76.56 270.34 L 76.56 269.8 z" fill="#000000"/>
<path d="M 157.82 257.32 L 157.82 260.82" fill="none" stroke="#000000" stroke-width="0.8" stroke-linejoin="round"/>
<path d="M 150.69 272.77 L 152.3 272.77 L 152.3 267.21 L 150.55 267.56 L 150.55 266.66 L 152.29 266.31 L 153.28 266.31 L 153.28 272.77 L 154.89 272.77 L 154.89 273.6 L 150.69 273.6 L 150.69 272.77 z M 158.99 266.96 Q 158.23 266.96 157.85 267.71 Q 157.46 268.46 157.46 269.96 Q 157.46 271.46 157.85 272.21 Q 158.23 272.96 158.99 272.96 Q 159.76 272.96 160.14 272.21 Q 160.53 271.46 160.53 269.96 Q 160.53 268.46 160.14 267.71 Q 159.76 266.96 158.99 266.96 M 158.99 266.18 Q 160.22 266.18 160.86 267.15 Q 161.51 268.12 161.51 269.96 Q 161.51 271.8 160.86 272.78 Q 160.22 273.74 158.99 273.74 Q 157.77 273.74 157.12 272.78 Q 156.47 271.8 156.47 269.96 Q 156.47 268.12 157.12 267.15 Q 157.77 266.18 158.99 266.18 z M 164.22 266.61 Q 163.73 266.61 163.49 267.03 Q 163.24 267.45 163.24 268.29 Q 163.24 269.14 163.49 269.56 Q 163.73 269.98 164.22 269.98 Q 164.72 269.98 164.96 269.56 Q 165.21 269.14 165.21 268.29 Q 165.21 267.45 164.96 267.03 Q 164.72 266.61 164.22 266.61 M 164.22 266.18 Q 165.01 266.18 165.42 266.72 Q 165.84 267.26 165.84 268.29 Q 165.84 269.33 165.42 269.87 Q 165.01 270.41 164.22 270.41 Q 163.43 270.41 163.02 269.87 Q 162.6 269.33 162.6 268.29 Q 162.6 267.26 163.02 266.72 Q 163.43 266.18 164.22 266.18 z" fill="#000000"/>
<path d="M 246.83 257.32 L 246.83 260.82" fill="none" stroke="#000000" stroke-width="0.8" stroke-linejoin="round"/>
<path d="M 239.71 272.77 L 241.32 272.77 L 241.32 267.21 L 239.57 267.56 L 239.57 266.66 L 241.31 266.31 L 242.29 266.31 L 242.29 272.77 L 243.91 272.77 L 243.91 273.6 L 239.71 273.6 L 239.71 272.77 z M 248.01 266.96 Q 247.25 266.96 246.86 267.71 Q 246.48 268.46 246.48 269.96 Q 246.48 271.46 246.86 272.21 Q 247.25 272.96 248.01 272.96 Q 248.77 272.96 249.16 272.21 Q 249.54 271.46 249.54 269.96 Q 249.54 268.46 249.16 267.71 Q 248.77 266.96 248.01 266.96 M 248.01 266.18 Q 249.23 266.18 249.88 267.15 Q 250.53 268.12 250.53 269.96 Q 250.53 271.8 249.88 272.78 Q 249.23 273.74 248.01 273.74 Q 246.78 273.74 246.13 272.78 Q 245.49 271.8 245.49 269.96 Q 245.49 268.12 246.13 267.15 Q 246.78 266.18 248.01 266.18 z M 251.95 269.8 L 252.95 269.8 L 252.95 266.82 L 251.86 267.02 L 251.86 266.45 L 252.98 266.26 L 253.65 266.26 L 253.65 269.8 L 254.65 269.8 L 254.65 270.34 L 251.95 270.34 L 251.95 269.8 z" fill="#000000"/>
<path d="M 335.85 257.32 L 335.85 260.82" fill="none" stroke="#000000" stroke-width="0.8" stroke-linejoin="round"/>
<path d="M 328.72 272.77 L 330.33 272.77 L 330.33 267.21 L 328.58 267.56 L 328.58 266.66 L 330.32 266.31 L 331.31 266.31 L 331.31 272.77 L 332.92 272.77 L 332.92 273.6 L 328.72 273.6 L 328.72 272.77 z M 337.02 266.96 Q 336.26 266.96 335.87 267.71 Q 335.49 268.46 335.49 269.96 Q 335.49 271.46 335.87 272.21 Q 336.26 272.96 337.02 272.96 Q 337.79 272.96 338.17 272.21 Q 338.56 271.46 338.56 269.96 Q 338.56 268.46 338.17 267.71 Q 337.79 266.96 337.02 266.96 M 337.02 266.18 Q 338.25 266.18 338.89 267.15 Q 339.54 268.12 339.54 269.96 Q 339.54 271.8 338.89 272.78 Q 338.25 273.74 337.02 273.74 Q 335.8 273.74 335.15 272.78 Q 334.5 271.8 334.5 269.96 Q 334.5 268.12 335.15 267.15 Q 335.8 266.18 337.02 266.18 z M 341.51 269.78 L 343.58 269.78 L 343.58 270.34 L 340.66 270.34 L 340.66 269.8 Q 340.83 269.65 341.14 269.38 Q 342.82 267.89 342.82 267.43 Q 342.82 267.11 342.56 266.91 Q 342.31 266.71 341.9 266.71 Q 341.64 266.71 341.34 266.8 Q 341.05 266.88 340.69 267.05 L 340.69 266.45 Q 341.07 266.32 341.39 266.25 Q 341.72 266.18 342 266.18 Q 342.71 266.18 343.13 266.5 Q 343.56 266.82 343.56 267.35 Q 343.56 268.03 341.94 269.42 Q 341.67 269.65 341.51 269.78 z" fill="#000000"/>
</g>
<g id="xtick_minor_1">
<path d="M 60.18 257.32 L 60.18 259.32" fill="none" stroke="#000000" stroke-width="0.6" stroke-linejoin="round"/>
<path d="M 64.73 257.32 L 64.73 259.32" fill="none" stroke="#000000" stroke-width="0.6" stroke-linejoin="round"/>
<path d="M 95.6 257.32 L 95.6 259.32" fill="none" stroke="#000000" stroke-width="0.6" stroke-linejoin="round"/>
<path d="M 111.28 257.32 L 111.28 259.32" fill="none" stroke="#000000" stroke-width="0.6" stroke-linejoin="round"/>
<path d="M 122.4 257.32 L 122.4 259.32" fill="none" stroke="#000000" stroke-width="0.6" stroke-linejoin="round"/>
<path d="M 131.02 257.32 L 131.02 259.32" fill="none" stroke="#000000" stroke-width="0.6" stroke-linejoin="round"/>
<path d="M 138.07 257.32 L 138.07 259.32" fill="none" stroke="#000000" stroke-width="0.6" stroke-linejoin="round"/>
<path d="M 144.03 257.32 L 144.03 259.32" fill="none" stroke="#000000" stroke-width="0.6" stroke-linejoin="round"/>
<path d="M 149.19 257.32 L 149.19 259.32" fill="none" stroke="#000000" stroke-width="0.6" stroke-linejoin="round"/>
<path d="M 153.75 257.32 L 153.75 259.32" fill="none" stroke="#000000" stroke-width="0.6" stroke-linejoin="round"/>
<path d="M 184.61 257.32 L 184.61 259.32" fill="none" stroke="#000000" stroke-width="0.6" stroke-linejoin="round"/>
<path d="M 200.29 257.32 L 200.29 259.32" fill="none" stroke="#000000" stroke-width="0.6" stroke-linejoin="round"/>
<path d="M 211.41 257.32 L 211.41 259.32" fill="none" stroke="#000000" stroke-width="0.6" stroke-linejoin="round"/>
<path d="M 220.04 257.32 L 220.04 259.32" fill="none" stroke="#000000" stroke-width="0.6" stroke-linejoin="round"/>
<path d="M 227.09 257.32 L 227.09 259.32" fill="none" stroke="#000000" stroke-width="0.6" stroke-linejoin="round"/>
<path d="M 233.04 257.32 L 233.04 259.32" fill="none" stroke="#000000" stroke-width="0.6" stroke-linejoin="round"/>
<path d="M 238.21 257.32 L 238.21 259.32" fill="none" stroke="#000000" stroke-width="0.6" stroke-linejoin="round"/>
<path d="M 242.76 257.32 L 242.76 259.32" fill="none" stroke="#000000" stroke-width="0.6" stroke-linejoin="round"/>
<path d="M 273.63 257.32 L 273.63 259.32" fill="none" stroke="#000000" stroke-width="0.6" stroke-linejoin="round"/>
<path d="M 289.3 257.32 L 289.3 259.32" fill="none" stroke="#000000" stroke-width="0.6" stroke-linejoin="round"/>
<path d="M 300.43 257.32 L 300.43 259.32" fill="none" stroke="#000000" stroke-width="0.6" stroke-linejoin="round"/>
<path d="M 309.05 257.32 L 309.05 259.32" fill="none" stroke="#000000" stroke-width="0.6" stroke-linejoin="round"/>
<path d="M 316.1 257.32 L 316.1 259.32" fill="none" stroke="#000000" stroke-width="0.6" stroke-linejoin="round"/>
<path d="M 322.06 257.32 L 322.06 259.32" fill="none" stroke="#000000" stroke-width="0.6" stroke-linejoin="round"/>
<path d="M 327.22 257.32 L 327.22 259.32" fill="none" stroke="#000000" stroke-width="0.6" stroke-linejoin="round"/>
<path d="M 331.77 257.32 L 331.77 259.32" fill="none" stroke="#000000" stroke-width="0.6" stroke-linejoin="round"/>
</g>
<g id="ytick_1">
<path d="M 55.45 229.07 L 51.95 229.07" fill="none" stroke="#000000" stroke-width="0.8" stroke-linejoin="round"/>
<path d="M 27.68 231.7 L 29.29 231.7 L 29.29 226.14 L 27.54 226.49 L 27.54 225.6 L 29.28 225.24 L 30.27 225.24 L 30.27 231.7 L 31.88 231.7 L 31.88 232.53 L 27.68 232.53 L 27.68 231.7 z M 35.98 225.89 Q 35.22 225.89 34.83 226.65 Q 34.45 227.39 34.45 228.9 Q 34.45 230.4 34.83 231.15 Q 35.22 231.9 35.98 231.9 Q 36.75 231.9 37.13 231.15 Q 37.51 230.4 37.51 228.9 Q 37.51 227.39 37.13 226.65 Q 36.75 225.89 35.98 225.89 M 35.98 225.11 Q 37.21 225.11 37.85 226.08 Q 38.5 227.05 38.5 228.9 Q 38.5 230.74 37.85 231.71 Q 37.21 232.68 35.98 232.68 Q 34.76 232.68 34.11 231.71 Q 33.46 230.74 33.46 228.9 Q 33.46 227.05 34.11 226.08 Q 34.76 225.11 35.98 225.11 z M 39.83 227.29 L 43.77 227.29 L 43.77 227.75 L 39.83 227.75 L 39.83 227.29 z M 45.21 228.74 L 46.2 228.74 L 46.2 225.75 L 45.11 225.95 L 45.11 225.39 L 46.24 225.2 L 46.9 225.2 L 46.9 228.74 L 47.91 228.74 L 47.91 229.27 L 45.21 229.27 L 45.21 228.74 z" fill="#000000"/>
<path d="M 55.45 194.75 L 51.95 194.75" fill="none" stroke="#000000" stroke-width="0.8" stroke-linejoin="round"/>
<path d="M 32.96 197.38 L 34.57 197.38 L 34.57 191.82 L 32.82 192.17 L 32.82 191.27 L 34.56 190.92 L 35.55 190.92 L 35.55 197.38 L 37.16 197.38 L 37.16 198.21 L 32.96 198.21 L 32.96 197.38 z M 41.26 191.57 Q 40.5 191.57 40.11 192.32 Q 39.73 193.07 39.73 194.57 Q 39.73 196.07 40.11 196.82 Q 40.5 197.57 41.26 197.57 Q 42.03 197.57 42.41 196.82 Q 42.79 196.07 42.79 194.57 Q 42.79 193.07 42.41 192.32 Q 42.03 191.57 41.26 191.57 M 41.26 190.79 Q 42.49 190.79 43.13 191.76 Q 43.78 192.73 43.78 194.57 Q 43.78 196.41 43.13 197.38 Q 42.49 198.35 41.26 198.35 Q 40.03 198.35 39.38 197.38 Q 38.74 196.41 38.74 194.57 Q 38.74 192.73 39.38 191.76 Q 40.03 190.79 41.26 190.79 z M 46.49 191.22 Q 46 191.22 45.75 191.64 Q 45.5 192.06 45.5 192.9 Q 45.5 193.75 45.75 194.17 Q 46 194.59 46.49 194.59 Q 46.98 194.59 47.23 194.17 Q 47.48 193.75 47.48 192.9 Q 47.48 192.06 47.23 191.64 Q 46.98 191.22 46.49 191.22 M 46.49 190.79 Q 47.28 190.79 47.69 191.33 Q 48.11 191.87 48.11 192.9 Q 48.11 193.94 47.69 194.48 Q 47.28 195.02 46.49 195.02 Q 45.7 195.02 45.28 194.48 Q 44.87 193.94 44.87 192.9 Q 44.87 191.87 45.28 191.33 Q 45.7 190.79 46.49 190.79 z" fill="#000000"/>
<path d="M 55.45 160.42 L 51.95 160.42" fill="none" stroke="#000000" stroke-width="0.8" stroke-linejoin="round"/>
<path d="M 32.96 163.05 L 34.57 163.05 L 34.57 157.49 L 32.82 157.84 L 32.82 156.94 L 34.56 156.59 L 35.55 156.59 L 35.55 163.05 L 37.16 163.05 L 37.16 163.88 L 32.96 163.88 L 32.96 163.05 z M 41.26 157.24 Q 40.5 157.24 40.11 157.99 Q 39.73 158.74 39.73 160.25 Q 39.73 161.74 40.11 162.5 Q 40.5 163.24 41.26 163.24 Q 42.03 163.24 42.41 162.5 Q 42.79 161.74 42.79 160.25 Q 42.79 158.74 42.41 157.99 Q 42.03 157.24 41.26 157.24 M 41.26 156.46 Q 42.49 156.46 43.13 157.43 Q 43.78 158.4 43.78 160.25 Q 43.78 162.09 43.13 163.06 Q 42.49 164.02 41.26 164.02 Q 40.03 164.02 39.38 163.06 Q 38.74 162.09 38.74 160.25 Q 38.74 158.4 39.38 157.43 Q 40.03 156.46 41.26 156.46 z M 45.21 160.08 L 46.2 160.08 L 46.2 157.1 L 45.11 157.3 L 45.11 156.73 L 46.24 156.54 L 46.9 156.54 L 46.9 160.08 L 47.91 160.08 L 47.91 160.62 L 45.21 160.62 L 45.21 160.08 z" fill="#000000"/>
<path d="M 55.45 126.1 L 51.95 126.1" fill="none" stroke="#000000" stroke-width="0.8" stroke-linejoin="round"/>
<path d="M 32.96 128.73 L 34.57 128.73 L 34.57 123.17 L 32.82 123.52 L 32.82 122.62 L 34.56 122.27 L 35.55 122.27 L 35.55 128.73 L 37.16 128.73 L 37.16 129.56 L 32.96 129.56 L 32.96 128.73 z M 41.26 122.92 Q 40.5 122.92 40.11 123.67 Q 39.73 124.42 39.73 125.92 Q 39.73 127.42 40.11 128.17 Q 40.5 128.92 41.26 128.92 Q 42.03 128.92 42.41 128.17 Q 42.79 127.42 42.79 125.92 Q 42.79 124.42 42.41 123.67 Q 42.03 122.92 41.26 122.92 M 41.26 122.14 Q 42.49 122.14 43.13 123.11 Q 43.78 124.07 43.78 125.92 Q 43.78 127.76 43.13 128.73 Q 42.49 129.7 41.26 129.7 Q 40.03 129.7 39.38 128.73 Q 38.74 127.76 38.74 125.92 Q 38.74 124.07 39.38 123.11 Q 40.03 122.14 41.26 122.14 z M 45.75 125.74 L 47.82 125.74 L 47.82 126.3 L 44.9 126.3 L 44.9 125.76 Q 45.07 125.61 45.38 125.33 Q 47.06 123.84 47.06 123.39 Q 47.06 123.06 46.8 122.87 Q 46.55 122.67 46.13 122.67 Q 45.88 122.67 45.58 122.76 Q 45.28 122.84 44.93 123.01 L 44.93 122.41 Q 45.31 122.27 45.63 122.2 Q 45.96 122.14 46.24 122.14 Q 46.94 122.14 47.37 122.46 Q 47.79 122.78 47.79 123.31 Q 47.79 123.99 46.18 125.37 Q 45.9 125.61 45.75 125.74 z" fill="#000000"/>
<path d="M 55.45 91.77 L 51.95 91.77" fill="none" stroke="#000000" stroke-width="0.8" stroke-linejoin="round"/>
<path d="M 32.96 94.4 L 34.57 94.4 L 34.57 88.84 L 32.82 89.19 L 32.82 88.29 L 34.56 87.94 L 35.55 87.94 L 35.55 94.4 L 37.16 94.4 L 37.16 95.23 L 32.96 95.23 L 32.96 94.4 z M 41.26 88.59 Q 40.5 88.59 40.11 89.34 Q 39.73 90.09 39.73 91.59 Q 39.73 93.09 40.11 93.84 Q 40.5 94.59 41.26 94.59 Q 42.03 94.59 42.41 93.84 Q 42.79 93.09 42.79 91.59 Q 42.79 90.09 42.41 89.34 Q 42.03 88.59 41.26 88.59 M 41.26 87.81 Q 42.49 87.81 43.13 88.78 Q 43.78 89.75 43.78 91.59 Q 43.78 93.43 43.13 94.41 Q 42.49 95.37 41.26 95.37 Q 40.03 95.37 39.38 94.41 Q 38.74 93.43 38.74 91.59 Q 38.74 89.75 39.38 88.78 Q 40.03 87.81 41.26 87.81 z M 47 89.76 Q 47.45 89.85 47.7 90.12 Q 47.94 90.38 47.94 90.78 Q 47.94 91.39 47.48 91.72 Q 47.02 92.04 46.15 92.04 Q 45.87 92.04 45.57 91.99 Q 45.26 91.94 44.92 91.84 L 44.92 91.25 Q 45.18 91.38 45.46 91.45 Q 45.76 91.51 46.08 91.51 Q 46.62 91.51 46.91 91.32 Q 47.2 91.13 47.2 90.78 Q 47.2 90.42 46.93 90.24 Q 46.66 90.05 46.13 90.05 L 45.71 90.05 L 45.71 89.52 L 46.17 89.52 Q 46.63 89.52 46.87 89.37 Q 47.1 89.22 47.1 88.92 Q 47.1 88.64 46.86 88.49 Q 46.62 88.34 46.15 88.34 Q 45.96 88.34 45.71 88.39 Q 45.46 88.43 45.06 88.54 L 45.06 87.98 Q 45.42 87.9 45.73 87.85 Q 46.05 87.81 46.31 87.81 Q 47.02 87.81 47.43 88.1 Q 47.84 88.39 47.84 88.87 Q 47.84 89.21 47.62 89.44 Q 47.4 89.68 47 89.76 z" fill="#000000"/>
<path d="M 55.45 57.44 L 51.95 57.44" fill="none" stroke="#000000" stroke-width="0.8" stroke-linejoin="round"/>
<path d="M 32.96 60.08 L 34.57 60.08 L 34.57 54.51 L 32.82 54.87 L 32.82 53.97 L 34.56 53.62 L 35.55 53.62 L 35.55 60.08 L 37.16 60.08 L 37.16 60.91 L 32.96 60.91 L 32.96 60.08 z M 41.26 54.27 Q 40.5 54.27 40.11 55.02 Q 39.73 55.76 39.73 57.27 Q 39.73 58.77 40.11 59.52 Q 40.5 60.27 41.26 60.27 Q 42.03 60.27 42.41 59.52 Q 42.79 58.77 42.79 57.27 Q 42.79 55.76 42.41 55.02 Q 42.03 54.27 41.26 54.27 M 41.26 53.48 Q 42.49 53.48 43.13 54.46 Q 43.78 55.42 43.78 57.27 Q 43.78 59.11 43.13 60.08 Q 42.49 61.05 41.26 61.05 Q 40.03 61.05 39.38 60.08 Q 38.74 59.11 38.74 57.27 Q 38.74 55.42 39.38 54.46 Q 40.03 53.48 41.26 53.48 z M 46.77 54.16 L 45.26 56.2 L 46.77 56.2 L 46.77 54.16 M 46.67 53.57 L 47.48 53.57 L 47.48 56.2 L 48.13 56.2 L 48.13 56.74 L 47.48 56.74 L 47.48 57.64 L 46.77 57.64 L 46.77 56.74 L 44.75 56.74 L 44.75 56.15 L 46.67 53.57 z" fill="#000000"/>
</g>
<g id="ytick_minor_1">
<path d="M 55.45 253.07 L 53.45 253.07" fill="none" stroke="#000000" stroke-width="0.6" stroke-linejoin="round"/>
<path d="M 55.45 247.02 L 53.45 247.02" fill="none" stroke="#000000" stroke-width="0.6" stroke-linejoin="round"/>
<path d="M 55.45 242.73 L 53.45 242.73" fill="none" stroke="#000000" stroke-width="0.6" stroke-linejoin="round"/>
<path d="M 55.45 239.41 L 53.45 239.41" fill="none" stroke="#000000" stroke-width="0.6" stroke-linejoin="round"/>
<path d="M 55.45 236.69 L 53.45 236.69" fill="none" stroke="#000000" stroke-width="0.6" stroke-linejoin="round"/>
<path d="M 55.45 234.39 L 53.45 234.39" fill="none" stroke="#000000" stroke-width="0.6" stroke-linejoin="round"/>
<path d="M 55.45 232.4 L 53.45 232.4" fill="none" stroke="#000000" stroke-width="0.6" stroke-linejoin="round"/>
<path d="M 55.45 230.64 L 53.45 230.64" fill="none" stroke="#000000" stroke-width="0.6" stroke-linejoin="round"/>
<path d="M 55.45 218.74 L 53.45 218.74" fill="none" stroke="#000000" stroke-width="0.6" stroke-linejoin="round"/>
<path d="M 55.45 212.7 L 53.45 212.7" fill="none" stroke="#000000" stroke-width="0.6" stroke-linejoin="round"/>
<path d="M 55.45 208.41 L 53.45 208.41" fill="none" stroke="#000000" stroke-width="0.6" stroke-linejoin="round"/>
<path d="M 55.45 205.08 L 53.45 205.08" fill="none" stroke="#000000" stroke-width="0.6" stroke-linejoin="round"/>
<path d="M 55.45 202.36 L 53.45 202.36" fill="none" stroke="#000000" stroke-width="0.6" stroke-linejoin="round"/>
<path d="M 55.45 200.06 L 53.45 200.06" fill="none" stroke="#000000" stroke-width="0.6" stroke-linejoin="round"/>
<path d="M 55.45 198.07 L 53.45 198.07" fill="none" stroke="#000000" stroke-width="0.6" stroke-linejoin="round"/>
<path d="M 55.45 196.32 L 53.45 196.32" fill="none" stroke="#000000" stroke-width="0.6" stroke-linejoin="round"/>
<path d="M 55.45 184.41 L 53.45 184.41" fill="none" stroke="#000000" stroke-width="0.6" stroke-linejoin="round"/>
<path d="M 55.45 178.37 L 53.45 178.37" fill="none" stroke="#000000" stroke-width="0.6" stroke-linejoin="round"/>
<path d="M 55.45 174.08 L 53.45 174.08" fill="none" stroke="#000000" stroke-width="0.6" stroke-linejoin="round"/>
<path d="M 55.45 170.75 L 53.45 170.75" fill="none" stroke="#000000" stroke-width="0.6" stroke-linejoin="round"/>
<path d="M 55.45 168.04 L 53.45 168.04" fill="none" stroke="#000000" stroke-width="0.6" stroke-linejoin="round"/>
<path d="M 55.45 165.74 L 53.45 165.74" fill="none" stroke="#000000" stroke-width="0.6" stroke-linejoin="round"/>
<path d="M 55.45 163.75 L 53.45 163.75" fill="none" stroke="#000000" stroke-width="0.6" stroke-linejoin="round"/>
<path d="M 55.45 161.99 L 53.45 161.99" fill="none" stroke="#000000" stroke-width="0.6" stroke-linejoin="round"/>
<path d="M 55.45 150.09 L 53.45 150.09" fill="none" stroke="#000000" stroke-width="0.6" stroke-linejoin="round"/>
<path d="M 55.45 144.04 L 53.45 144.04" fill="none" stroke="#000000" stroke-width="0.6" stroke-linejoin="round"/>
<path d="M 55.45 139.76 L 53.45 139.76" fill="none" stroke="#000000" stroke-width="0.6" stroke-linejoin="round"/>
<path d="M 55.45 136.43 L 53.45 136.43" fill="none" stroke="#000000" stroke-width="0.6" stroke-linejoin="round"/>
<path d="M 55.45 133.71 L 53.45 133.71" fill="none" stroke="#000000" stroke-width="0.6" stroke-linejoin="round"/>
<path d="M 55.45 131.41 L 53.45 131.41" fill="none" stroke="#000000" stroke-width="0.6" stroke-linejoin="round"/>
<path d="M 55.45 129.42 L 53.45 129.42" fill="none" stroke="#000000" stroke-width="0.6" stroke-linejoin="round"/>
<path d="M 55.45 127.67 L 53.45 127.67" fill="none" stroke="#000000" stroke-width="0.6" stroke-linejoin="round"/>
<path d="M 55.45 115.76 L 53.45 115.76" fill="none" stroke="#000000" stroke-width="0.6" stroke-linejoin="round"/>
<path d="M 55.45 109.72 L 53.45 109.72" fill="none" stroke="#000000" stroke-width="0.6" stroke-linejoin="round"/>
<path d="M 55.45 105.43 L 53.45 105.43" fill="none" stroke="#000000" stroke-width="0.6" stroke-linejoin="round"/>
<path d="M 55.45 102.1 L 53.45 102.1" fill="none" stroke="#000000" stroke-width="0.6" stroke-linejoin="round"/>
<path d="M 55.45 99.38 L 53.45 99.38" fill="none" stroke="#000000" stroke-width="0.6" stroke-linejoin="round"/>
<path d="M 55.45 97.09 L 53.45 97.09" fill="none" stroke="#000000" stroke-width="0.6" stroke-linejoin="round"/>
<path d="M 55.45 95.1 L 53.45 95.1" fill="none" stroke="#000000" stroke-width="0.6" stroke-linejoin="round"/>
<path d="M 55.45 93.34 L 53.45 93.34" fill="none" stroke="#000000" stroke-width="0.6" stroke-linejoin="round"/>
<path d="M 55.45 81.44 L 53.45 81.44" fill="none" stroke="#000000" stroke-width="0.6" stroke-linejoin="round"/>
<path d="M 55.45 75.39 L 53.45 75.39" fill="none" stroke="#000000" stroke-width="0.6" stroke-linejoin="round"/>
<path d="M 55.45 71.1 L 53.45 71.1" fill="none" stroke="#000000" stroke-width="0.6" stroke-linejoin="round"/>
<path d="M 55.45 67.78 L 53.45 67.78" fill="none" stroke="#000000" stroke-width="0.6" stroke-linejoin="round"/>
<path d="M 55.45 65.06 L 53.45 65.06" fill="none" stroke="#000000" stroke-width="0.6" stroke-linejoin="round"/>
<path d="M 55.45 62.76 L 53.45 62.76" fill="none" stroke="#000000" stroke-width="0.6" stroke-linejoin="round"/>
<path d="M 55.45 60.77 L 53.45 60.77" fill="none" stroke="#000000" stroke-width="0.6" stroke-linejoin="round"/>
<path d="M 55.45 59.01 L 53.45 59.01" fill="none" stroke="#000000" stroke-width="0.6" stroke-linejoin="round"/>
<path d="M 55.45 47.11 L 53.45 47.11" fill="none" stroke="#000000" stroke-width="0.6" stroke-linejoin="round"/>
<path d="M 55.45 41.07 L 53.45 41.07" fill="none" stroke="#000000" stroke-width="0.6" stroke-linejoin="round"/>
<path d="M 55.45 36.78 L 53.45 36.78" fill="none" stroke="#000000" stroke-width="0.6" stroke-linejoin="round"/>
<path d="M 55.45 33.45 L 53.45 33.45" fill="none" stroke="#000000" stroke-width="0.6" stroke-linejoin="round"/>
</g>
<g id="legend_1">
<path d="M 60.45 72.05 L 121.47 72.05 L 121.47 35.77 L 60.45 35.77 z" fill="#ffffff" fill-opacity="0.8" stroke="#cccccc" stroke-width="1" stroke-linejoin="round"/>
<path d="M 64.45 45.59 L 84.45 45.59" fill="none" stroke="#1f77b4" stroke-width="1.5" stroke-linecap="square" stroke-linejoin="round"/>
<path d="M 96.51 45.12 Q 97.22 45.27 97.61 45.75 Q 98.01 46.23 98.01 46.93 Q 98.01 48.01 97.27 48.6 Q 96.53 49.19 95.16 49.19 Q 94.7 49.19 94.22 49.1 Q 93.73 49.01 93.21 48.83 L 93.21 47.88 Q 93.62 48.12 94.11 48.24 Q 94.6 48.36 95.13 48.36 Q 96.06 48.36 96.54 48 Q 97.03 47.63 97.03 46.93 Q 97.03 46.29 96.58 45.93 Q 96.13 45.56 95.32 45.56 L 94.47 45.56 L 94.47 44.75 L 95.36 44.75 Q 96.09 44.75 96.48 44.46 Q 96.86 44.17 96.86 43.62 Q 96.86 43.06 96.46 42.76 Q 96.07 42.46 95.32 42.46 Q 94.92 42.46 94.45 42.55 Q 93.99 42.63 93.43 42.82 L 93.43 41.94 Q 94 41.79 94.48 41.71 Q 94.98 41.63 95.41 41.63 Q 96.53 41.63 97.19 42.14 Q 97.84 42.65 97.84 43.52 Q 97.84 44.12 97.5 44.54 Q 97.15 44.96 96.51 45.12 z M 104.3 43.58 L 102.33 46.24 L 104.41 49.05 L 103.35 49.05 L 101.75 46.9 L 100.16 49.05 L 99.1 49.05 L 101.23 46.19 L 99.28 43.58 L 100.34 43.58 L 101.79 45.53 L 103.24 43.58 L 104.3 43.58 z M 106.04 45.23 L 108.11 45.23 L 108.11 45.79 L 105.19 45.79 L 105.19 45.25 Q 105.36 45.1 105.67 44.83 Q 107.34 43.34 107.34 42.88 Q 107.34 42.56 107.09 42.36 Q 106.84 42.16 106.42 42.16 Q 106.17 42.16 105.87 42.25 Q 105.57 42.33 105.22 42.5 L 105.22 41.9 Q 105.6 41.77 105.92 41.7 Q 106.25 41.63 106.52 41.63 Q 107.23 41.63 107.66 41.95 Q 108.08 42.27 108.08 42.8 Q 108.08 43.48 106.47 44.87 Q 106.19 45.1 106.04 45.23 z" fill="#000000"/>
<path d="M 64.45 62.23 L 84.45 62.23" fill="none" stroke="#ff7f0e" stroke-width="1.5" stroke-dasharray="5.55,2.4" stroke-linejoin="round"/>
<path d="M 94.37 64.86 L 97.81 64.86 L 97.81 65.69 L 93.18 65.69 L 93.18 64.86 Q 93.75 64.28 94.71 63.3 Q 95.68 62.32 95.93 62.04 Q 96.41 61.51 96.59 61.14 Q 96.78 60.77 96.78 60.41 Q 96.78 59.83 96.37 59.47 Q 95.97 59.1 95.31 59.1 Q 94.85 59.1 94.33 59.26 Q 93.82 59.42 93.23 59.75 L 93.23 58.75 Q 93.83 58.51 94.35 58.39 Q 94.86 58.27 95.29 58.27 Q 96.43 58.27 97.1 58.84 Q 97.77 59.4 97.77 60.35 Q 97.77 60.8 97.6 61.2 Q 97.44 61.6 96.99 62.15 Q 96.87 62.29 96.22 62.97 Q 95.56 63.65 94.37 64.86 z M 101.99 59.05 Q 101.23 59.05 100.85 59.8 Q 100.47 60.55 100.47 62.05 Q 100.47 63.55 100.85 64.3 Q 101.23 65.05 101.99 65.05 Q 102.76 65.05 103.14 64.3 Q 103.53 63.55 103.53 62.05 Q 103.53 60.55 103.14 59.8 Q 102.76 59.05 101.99 59.05 M 101.99 58.27 Q 103.22 58.27 103.86 59.24 Q 104.51 60.21 104.51 62.05 Q 104.51 63.89 103.86 64.87 Q 103.22 65.83 101.99 65.83 Q 100.77 65.83 100.12 64.87 Q 99.47 63.89 99.47 62.05 Q 99.47 60.21 100.12 59.24 Q 100.77 58.27 101.99 58.27 z M 110.63 57.58 L 111.55 57.58 L 111.55 58.05 L 110.99 58.05 L 108.09 65.89 L 107.76 65.89 L 106.21 61.58 L 105.6 61.8 L 105.47 61.41 L 106.86 60.93 L 108.11 64.39 L 110.63 57.58 z M 117.04 60.22 L 115.06 62.88 L 117.14 65.69 L 116.08 65.69 L 114.49 63.54 L 112.9 65.69 L 111.84 65.69 L 113.96 62.83 L 112.02 60.22 L 113.08 60.22 L 114.53 62.17 L 115.98 60.22 L 117.04 60.22 z" fill="#000000"/>
</g>
<g id="text_1">
<path d="M 183 12.82 L 184.08 12.82 L 184.08 21.94 L 183 21.94 L 183 12.82 z M 188.88 16.13 Q 188.01 16.13 187.5 16.81 Q 187 17.49 187 18.66 Q 187 19.84 187.5 20.52 Q 188 21.19 188.88 21.19 Q 189.74 21.19 190.24 20.51 Q 190.75 19.84 190.75 18.66 Q 190.75 17.5 190.24 16.82 Q 189.74 16.13 188.88 16.13 M 188.88 15.22 Q 190.28 15.22 191.08 16.13 Q 191.89 17.05 191.89 18.66 Q 191.89 20.27 191.08 21.19 Q 190.28 22.11 188.88 22.11 Q 187.46 22.11 186.66 21.19 Q 185.86 20.27 185.86 18.66 Q 185.86 17.05 186.66 16.13 Q 187.46 15.22 188.88 15.22 z M 197.99 18.58 Q 197.99 17.41 197.51 16.76 Q 197.03 16.12 196.15 16.12 Q 195.29 16.12 194.8 16.76 Q 194.32 17.41 194.32 18.58 Q 194.32 19.75 194.8 20.39 Q 195.29 21.04 196.15 21.04 Q 197.03 21.04 197.51 20.39 Q 197.99 19.75 197.99 18.58 M 199.07 21.12 Q 199.07 22.8 198.33 23.62 Q 197.58 24.43 196.05 24.43 Q 195.48 24.43 194.98 24.35 Q 194.47 24.26 194 24.09 L 194 23.04 Q 194.47 23.3 194.93 23.42 Q 195.4 23.54 195.88 23.54 Q 196.94 23.54 197.47 22.99 Q 197.99 22.44 197.99 21.32 L 197.99 20.78 Q 197.66 21.36 197.14 21.65 Q 196.62 21.94 195.89 21.94 Q 194.68 21.94 193.94 21.02 Q 193.21 20.1 193.21 18.58 Q 193.21 17.06 193.94 16.14 Q 194.68 15.22 195.89 15.22 Q 196.62 15.22 197.14 15.51 Q 197.66 15.79 197.99 16.37 L 197.99 15.38 L 199.07 15.38 L 199.07 21.12 z M 200.75 18.17 L 203.91 18.17 L 203.91 19.13 L 200.75 19.13 L 200.75 18.17 z M 205.62 12.82 L 206.7 12.82 L 206.7 21.94 L 205.62 21.94 L 205.62 12.82 z M 211.5 16.13 Q 210.63 16.13 210.13 16.81 Q 209.62 17.49 209.62 18.66 Q 209.62 19.84 210.12 20.52 Q 210.63 21.19 211.5 21.19 Q 212.36 21.19 212.86 20.51 Q 213.37 19.84 213.37 18.66 Q 213.37 17.5 212.86 16.82 Q 212.36 16.13 211.5 16.13 M 211.5 15.22 Q 212.91 15.22 213.71 16.13 Q 214.51 17.05 214.51 18.66 Q 214.51 20.27 213.71 21.19 Q 212.91 22.11 211.5 22.11 Q 210.09 22.11 209.28 21.19 Q 208.49 20.27 208.49 18.66 Q 208.49 17.05 209.28 16.13 Q 210.09 15.22 211.5 15.22 z M 220.62 18.58 Q 220.62 17.41 220.13 16.76 Q 219.65 16.12 218.78 16.12 Q 217.91 16.12 217.42 16.76 Q 216.94 17.41 216.94 18.58 Q 216.94 19.75 217.42 20.39 Q 217.91 21.04 218.78 21.04 Q 219.65 21.04 220.13 20.39 Q 220.62 19.75 220.62 18.58 M 221.69 21.12 Q 221.69 22.8 220.95 23.62 Q 220.21 24.43 218.67 24.43 Q 218.1 24.43 217.6 24.35 Q 217.09 24.26 216.62 24.09 L 216.62 23.04 Q 217.09 23.3 217.56 23.42 Q 218.02 23.54 218.5 23.54 Q 219.56 23.54 220.09 22.99 Q 220.62 22.44 220.62 21.32 L 220.62 20.78 Q 220.28 21.36 219.76 21.65 Q 219.24 21.94 218.51 21.94 Q 217.31 21.94 216.57 21.02 Q 215.83 20.1 215.83 18.58 Q 215.83 17.06 216.57 16.14 Q 217.31 15.22 218.51 15.22 Q 219.24 15.22 219.76 15.51 Q 220.28 15.79 220.62 16.37 L 220.62 15.38 L 221.69 15.38 L 221.69 21.12 z" fill="#000000"/>
</g>
</g>
<g id="axes_2">
<path d="M 412.53 257.32 L 709.2 257.32 L 709.2 30.77 L 412.53 30.77 z" fill="#ffffff"/>
<g id="grid_2">
<path d="M 426.01 257.32 L 426.01 30.77" fill="none" stroke="#b0b0b0" stroke-width="0.8" stroke-linejoin="round"/>
<path d="M 479.95 257.32 L 479.95 30.77" fill="none" stroke="#b0b0b0" stroke-width="0.8" stroke-linejoin="round"/>
<path d="M 533.89 257.32 L 533.89 30.77" fill="none" stroke="#b0b0b0" stroke-width="0.8" stroke-linejoin="round"/>
<path d="M 587.83 257.32 L 587.83 30.77" fill="none" stroke="#b0b0b0" stroke-width="0.8" stroke-linejoin="round"/>
<path d="M 641.77 257.32 L 641.77 30.77" fill="none" stroke="#b0b0b0" stroke-width="0.8" stroke-linejoin="round"/>
<path d="M 695.71 257.32 L 695.71 30.77" fill="none" stroke="#b0b0b0" stroke-width="0.8" stroke-linejoin="round"/>
<path d="M 412.53 247.02 L 709.2 247.02" fill="none" stroke="#b0b0b0" stroke-width="0.8" stroke-linejoin="round"/>
<path d="M 412.53 213.46 L 709.2 213.46" fill="none" stroke="#b0b0b0" stroke-width="0.8" stroke-linejoin="round"/>
<path d="M 412.53 179.9 L 709.2 179.9" fill="none" stroke="#b0b0b0" stroke-width="0.8" stroke-linejoin="round"/>
<path d="M 412.53 146.34 L 709.2 146.34" fill="none" stroke="#b0b0b0" stroke-width="0.8" stroke-linejoin="round"/>
<path d="M 412.53 112.78 L 709.2 112.78" fill="none" stroke="#b0b0b0" stroke-width="0.8" stroke-linejoin="round"/>
<path d="M 412.53 79.22 L 709.2 79.22" fill="none" stroke="#b0b0b0" stroke-width="0.8" stroke-linejoin="round"/>
<path d="M 412.53 45.66 L 709.2 45.66" fill="none" stroke="#b0b0b0" stroke-width="0.8" stroke-linejoin="round"/>
</g>
<g id="line2d_3">
<path clip-path="url(#p2)" d="M 426.01 247.02 L 428.74 243.98 L 431.46 240.97 L 434.19 238.05 L 436.91 235.25 L 439.63 232.59 L 442.36 230.1 L 445.08 227.81 L 447.81 225.72 L 450.53 223.83 L 453.26 222.15 L 455.98 220.64 L 458.7 219.3 L 461.43 218.1 L 464.15 216.99 L 466.88 215.95 L 469.6 214.93 L 472.33 213.9 L 475.05 212.8 L 477.77 211.61 L 480.5 210.28 L 483.22 208.8 L 485.95 207.13 L 488.67 205.26 L 491.4 203.19 L 494.12 200.92 L 496.84 198.46 L 499.57 195.82 L 502.29 193.02 L 505.02 190.11 L 507.74 187.11 L 510.46 184.07 L 513.19 181.03 L 515.91 178.02 L 518.64 175.09 L 521.36 172.27 L 524.09 169.59 L 526.81 167.09 L 529.53 164.78 L 532.26 162.67 L 534.98 160.76 L 537.71 159.05 L 540.43 157.53 L 543.16 156.18 L 545.88 154.96 L 548.6 153.84 L 551.33 152.8 L 554.05 151.78 L 556.78 150.75 L 559.5 149.66 L 562.23 148.48 L 564.95 147.16 L 567.67 145.7 L 570.4 144.05 L 573.12 142.2 L 575.85 140.16 L 578.57 137.9 L 581.3 135.46 L 584.02 132.83 L 586.74 130.05 L 589.47 127.15 L 592.19 124.16 L 594.92 121.12 L 597.64 118.08 L 600.37 115.06 L 603.09 112.12 L 605.81 109.29 L 608.54 106.6 L 611.26 104.08 L 613.99 101.74 L 616.71 99.61 L 619.44 97.68 L 622.16 95.96 L 624.88 94.42 L 627.61 93.05 L 630.33 91.82 L 633.06 90.7 L 635.78 89.64 L 638.51 88.62 L 641.23 87.59 L 643.95 86.51 L 646.68 85.34 L 649.4 84.05 L 652.13 82.6 L 654.85 80.97 L 657.58 79.14 L 660.3 77.11 L 663.02 74.88 L 665.75 72.46 L 668.47 69.85 L 671.2 67.08 L 673.92 64.19 L 676.65 61.21 L 679.37 58.18 L 682.09 55.13 L 684.82 52.11 L 687.54 49.16 L 690.27 46.31 L 692.99 43.61 L 695.71 41.07" fill="none" stroke="#2ca02c" stroke-width="1.5" stroke-linecap="square" stroke-linejoin="round"/>
</g>
<g id="spines_2">
<path d="M 412.53 257.32 L 709.2 257.32 L 709.2 30.77 L 412.53 30.77 z" fill="none" stroke="#000000" stroke-width="0.8" stroke-linecap="square" stroke-linejoin="round"/>
</g>
<g id="xtick_2">
<path d="M 426.01 257.32 L 426.01 260.82" fill="none" stroke="#000000" stroke-width="0.8" stroke-linejoin="round"/>
<path d="M 426.01 266.96 Q 425.25 266.96 424.86 267.71 Q 424.48 268.46 424.48 269.96 Q 424.48 271.46 424.86 272.21 Q 425.25 272.96 426.01 272.96 Q 426.78 272.96 427.16 272.21 Q 427.54 271.46 427.54 269.96 Q 427.54 268.46 427.16 267.71 Q 426.78 266.96 426.01 266.96 M 426.01 266.18 Q 427.24 266.18 427.88 267.15 Q 428.53 268.12 428.53 269.96 Q 428.53 271.8 427.88 272.78 Q 427.24 273.74 426.01 273.74 Q 424.78 273.74 424.14 272.78 Q 423.49 271.8 423.49 269.96 Q 423.49 268.12 424.14 267.15 Q 424.78 266.18 426.01 266.18 z" fill="#000000"/>
<path d="M 479.95 257.32 L 479.95 260.82" fill="none" stroke="#000000" stroke-width="0.8" stroke-linejoin="round"/>
<path d="M 478.69 272.77 L 482.13 272.77 L 482.13 273.6 L 477.5 273.6 L 477.5 272.77 Q 478.07 272.19 479.03 271.21 Q 480 270.23 480.25 269.95 Q 480.73 269.42 480.91 269.05 Q 481.1 268.68 481.1 268.32 Q 481.1 267.74 480.69 267.38 Q 480.29 267.01 479.63 267.01 Q 479.17 267.01 478.65 267.17 Q 478.14 267.33 477.55 267.66 L 477.55 266.66 Q 478.15 266.42 478.67 266.3 Q 479.18 266.18 479.61 266.18 Q 480.75 266.18 481.42 266.75 Q 482.09 267.31 482.09 268.26 Q 482.09 268.71 481.92 269.11 Q 481.76 269.51 481.31 270.06 Q 481.19 270.2 480.54 270.88 Q 479.88 271.56 478.69 272.77 z" fill="#000000"/>
<path d="M 533.89 257.32 L 533.89 260.82" fill="none" stroke="#000000" stroke-width="0.8" stroke-linejoin="round"/>
<path d="M 534.49 267.17 L 532 271.06 L 534.49 271.06 L 534.49 267.17 M 534.23 266.31 L 535.47 266.31 L 535.47 271.06 L 536.51 271.06 L 536.51 271.88 L 535.47 271.88 L 535.47 273.6 L 534.49 273.6 L 534.49 271.88 L 531.2 271.88 L 531.2 270.93 L 534.23 266.31 z" fill="#000000"/>
<path d="M 587.83 257.32 L 587.83 260.82" fill="none" stroke="#000000" stroke-width="0.8" stroke-linejoin="round"/>
<path d="M 587.95 269.56 Q 587.29 269.56 586.9 270.02 Q 586.51 270.47 586.51 271.26 Q 586.51 272.05 586.9 272.51 Q 587.29 272.96 587.95 272.96 Q 588.62 272.96 589 272.51 Q 589.39 272.05 589.39 271.26 Q 589.39 270.47 589 270.02 Q 588.62 269.56 587.95 269.56 M 589.91 266.47 L 589.91 267.37 Q 589.54 267.19 589.16 267.1 Q 588.78 267.01 588.41 267.01 Q 587.44 267.01 586.92 267.67 Q 586.41 268.33 586.33 269.66 Q 586.62 269.24 587.06 269.01 Q 587.49 268.78 588.01 268.78 Q 589.11 268.78 589.75 269.45 Q 590.39 270.11 590.39 271.26 Q 590.39 272.39 589.72 273.06 Q 589.06 273.74 587.95 273.74 Q 586.69 273.74 586.02 272.78 Q 585.35 271.8 585.35 269.96 Q 585.35 268.23 586.17 267.21 Q 586.99 266.18 588.37 266.18 Q 588.74 266.18 589.12 266.25 Q 589.5 266.33 589.91 266.47 z" fill="#000000"/>
<path d="M 641.77 257.32 L 641.77 260.82" fill="none" stroke="#000000" stroke-width="0.8" stroke-linejoin="round"/>
<path d="M 641.77 270.14 Q 641.07 270.14 640.66 270.52 Q 640.26 270.89 640.26 271.55 Q 640.26 272.21 640.66 272.59 Q 641.07 272.96 641.77 272.96 Q 642.48 272.96 642.88 272.59 Q 643.29 272.2 643.29 271.55 Q 643.29 270.89 642.88 270.52 Q 642.48 270.14 641.77 270.14 M 640.79 269.72 Q 640.15 269.56 639.79 269.13 Q 639.44 268.69 639.44 268.07 Q 639.44 267.19 640.06 266.69 Q 640.69 266.18 641.77 266.18 Q 642.86 266.18 643.48 266.69 Q 644.1 267.19 644.1 268.07 Q 644.1 268.69 643.74 269.13 Q 643.39 269.56 642.76 269.72 Q 643.48 269.89 643.87 270.37 Q 644.27 270.85 644.27 271.55 Q 644.27 272.61 643.62 273.18 Q 642.98 273.74 641.77 273.74 Q 640.57 273.74 639.92 273.18 Q 639.27 272.61 639.27 271.55 Q 639.27 270.85 639.67 270.37 Q 640.07 269.89 640.79 269.72 M 640.42 268.16 Q 640.42 268.73 640.78 269.05 Q 641.13 269.36 641.77 269.36 Q 642.41 269.36 642.76 269.05 Q 643.12 268.73 643.12 268.16 Q 643.12 267.6 642.76 267.28 Q 642.41 266.96 641.77 266.96 Q 641.13 266.96 640.78 267.28 Q 640.42 267.6 640.42 268.16 z" fill="#000000"/>
<path d="M 695.71 257.32 L 695.71 260.82" fill="none" stroke="#000000" stroke-width="0.8" stroke-linejoin="round"/>
<path d="M 690.59 272.77 L 692.2 272.77 L 692.2 267.21 L 690.45 267.56 L 690.45 266.66 L 692.19 266.31 L 693.18 266.31 L 693.18 272.77 L 694.79 272.77 L 694.79 273.6 L 690.59 273.6 L 690.59 272.77 z M 698.89 266.96 Q 698.13 266.96 697.75 267.71 Q 697.37 268.46 697.37 269.96 Q 697.37 271.46 697.75 272.21 Q 698.13 272.96 698.89 272.96 Q 699.66 272.96 700.04 272.21 Q 700.43 271.46 700.43 269.96 Q 700.43 268.46 700.04 267.71 Q 699.66 266.96 698.89 266.96 M 698.89 266.18 Q 700.12 266.18 700.76 267.15 Q 701.41 268.12 701.41 269.96 Q 701.41 271.8 700.76 272.78 Q 700.12 273.74 698.89 273.74 Q 697.67 273.74 697.02 272.78 Q 696.37 271.8 696.37 269.96 Q 696.37 268.12 697.02 267.15 Q 697.67 266.18 698.89 266.18 z" fill="#000000"/>
</g>
<g id="ytick_2">
<path d="M 412.53 247.02 L 409.03 247.02" fill="none" stroke="#000000" stroke-width="0.8" stroke-linejoin="round"/>
<path d="M 402.34 243.84 Q 401.58 243.84 401.2 244.59 Q 400.82 245.34 400.82 246.85 Q 400.82 248.34 401.2 249.1 Q 401.58 249.84 402.34 249.84 Q 403.11 249.84 403.49 249.1 Q 403.88 248.34 403.88 246.85 Q 403.88 245.34 403.49 244.59 Q 403.11 243.84 402.34 243.84 M 402.34 243.06 Q 403.57 243.06 404.21 244.03 Q 404.86 245 404.86 246.85 Q 404.86 248.69 404.21 249.66 Q 403.57 250.62 402.34 250.62 Q 401.12 250.62 400.47 249.66 Q 399.82 248.69 399.82 246.85 Q 399.82 245 400.47 244.03 Q 401.12 243.06 402.34 243.06 z" fill="#000000"/>
<path d="M 412.53 213.46 L 409.03 213.46" fill="none" stroke="#000000" stroke-width="0.8" stroke-linejoin="round"/>
<path d="M 394.72 216.09 L 398.16 216.09 L 398.16 216.92 L 393.54 216.92 L 393.54 216.09 Q 394.1 215.51 395.06 214.54 Q 396.04 213.55 396.28 213.27 Q 396.76 212.74 396.94 212.37 Q 397.13 212 397.13 211.64 Q 397.13 211.06 396.72 210.7 Q 396.32 210.33 395.66 210.33 Q 395.2 210.33 394.68 210.49 Q 394.17 210.65 393.58 210.98 L 393.58 209.98 Q 394.18 209.75 394.7 209.62 Q 395.22 209.5 395.64 209.5 Q 396.78 209.5 397.45 210.07 Q 398.13 210.63 398.13 211.58 Q 398.13 212.03 397.95 212.44 Q 397.79 212.84 397.34 213.38 Q 397.22 213.52 396.57 214.2 Q 395.91 214.88 394.72 216.09 z M 402.34 210.28 Q 401.58 210.28 401.2 211.03 Q 400.82 211.78 400.82 213.29 Q 400.82 214.78 401.2 215.54 Q 401.58 216.28 402.34 216.28 Q 403.11 216.28 403.49 215.54 Q 403.88 214.78 403.88 213.29 Q 403.88 211.78 403.49 211.03 Q 403.11 210.28 402.34 210.28 M 402.34 209.5 Q 403.57 209.5 404.21 210.47 Q 404.86 211.44 404.86 213.29 Q 404.86 215.13 404.21 216.1 Q 403.57 217.06 402.34 217.06 Q 401.12 217.06 400.47 216.1 Q 399.82 215.13 399.82 213.29 Q 399.82 211.44 400.47 210.47 Q 401.12 209.5 402.34 209.5 z" fill="#000000"/>
<path d="M 412.53 179.9 L 409.03 179.9" fill="none" stroke="#000000" stroke-width="0.8" stroke-linejoin="round"/>
<path d="M 396.58 176.93 L 394.09 180.82 L 396.58 180.82 L 396.58 176.93 M 396.32 176.07 L 397.56 176.07 L 397.56 180.82 L 398.6 180.82 L 398.6 181.64 L 397.56 181.64 L 397.56 183.36 L 396.58 183.36 L 396.58 181.64 L 393.29 181.64 L 393.29 180.69 L 396.32 176.07 z M 402.34 176.72 Q 401.58 176.72 401.2 177.47 Q 400.82 178.22 400.82 179.73 Q 400.82 181.22 401.2 181.98 Q 401.58 182.72 402.34 182.72 Q 403.11 182.72 403.49 181.98 Q 403.88 181.22 403.88 179.73 Q 403.88 178.22 403.49 177.47 Q 403.11 176.72 402.34 176.72 M 402.34 175.94 Q 403.57 175.94 404.21 176.91 Q 404.86 177.88 404.86 179.73 Q 404.86 181.57 404.21 182.54 Q 403.57 183.5 402.34 183.5 Q 401.12 183.5 400.47 182.54 Q 399.82 181.57 399.82 179.73 Q 399.82 177.88 400.47 176.91 Q 401.12 175.94 402.34 175.94 z" fill="#000000"/>
<path d="M 412.53 146.34 L 409.03 146.34" fill="none" stroke="#000000" stroke-width="0.8" stroke-linejoin="round"/>
<path d="M 396.1 145.77 Q 395.44 145.77 395.05 146.22 Q 394.66 146.67 394.66 147.46 Q 394.66 148.25 395.05 148.71 Q 395.44 149.16 396.1 149.16 Q 396.77 149.16 397.15 148.71 Q 397.54 148.25 397.54 147.46 Q 397.54 146.67 397.15 146.22 Q 396.77 145.77 396.1 145.77 M 398.06 142.67 L 398.06 143.57 Q 397.69 143.4 397.31 143.3 Q 396.93 143.21 396.56 143.21 Q 395.59 143.21 395.07 143.87 Q 394.56 144.53 394.48 145.86 Q 394.77 145.44 395.21 145.21 Q 395.64 144.98 396.16 144.98 Q 397.26 144.98 397.9 145.65 Q 398.54 146.32 398.54 147.46 Q 398.54 148.59 397.87 149.27 Q 397.21 149.95 396.1 149.95 Q 394.84 149.95 394.17 148.98 Q 393.5 148.01 393.5 146.17 Q 393.5 144.44 394.32 143.41 Q 395.14 142.38 396.52 142.38 Q 396.89 142.38 397.27 142.45 Q 397.65 142.53 398.06 142.67 z M 402.34 143.16 Q 401.58 143.16 401.2 143.91 Q 400.82 144.66 400.82 146.17 Q 400.82 147.66 401.2 148.42 Q 401.58 149.16 402.34 149.16 Q 403.11 149.16 403.49 148.42 Q 403.88 147.66 403.88 146.17 Q 403.88 144.66 403.49 143.91 Q 403.11 143.16 402.34 143.16 M 402.34 142.38 Q 403.57 142.38 404.21 143.35 Q 404.86 144.32 404.86 146.17 Q 404.86 148.01 404.21 148.98 Q 403.57 149.95 402.34 149.95 Q 401.12 149.95 400.47 148.98 Q 399.82 148.01 399.82 146.17 Q 399.82 144.32 400.47 143.35 Q 401.12 142.38 402.34 142.38 z" fill="#000000"/>
<path d="M 412.53 112.78 L 409.03 112.78" fill="none" stroke="#000000" stroke-width="0.8" stroke-linejoin="round"/>
<path d="M 395.98 112.78 Q 395.28 112.78 394.87 113.16 Q 394.47 113.53 394.47 114.19 Q 394.47 114.85 394.87 115.23 Q 395.28 115.6 395.98 115.6 Q 396.68 115.6 397.09 115.23 Q 397.5 114.85 397.5 114.19 Q 397.5 113.53 397.09 113.16 Q 396.69 112.78 395.98 112.78 M 395 112.36 Q 394.36 112.21 394 111.77 Q 393.65 111.34 393.65 110.71 Q 393.65 109.84 394.27 109.33 Q 394.9 108.82 395.98 108.82 Q 397.07 108.82 397.69 109.33 Q 398.31 109.84 398.31 110.71 Q 398.31 111.34 397.95 111.77 Q 397.6 112.21 396.97 112.36 Q 397.69 112.53 398.08 113.01 Q 398.48 113.49 398.48 114.19 Q 398.48 115.25 397.83 115.82 Q 397.19 116.39 395.98 116.39 Q 394.78 116.39 394.13 115.82 Q 393.48 115.25 393.48 114.19 Q 393.48 113.49 393.88 113.01 Q 394.28 112.53 395 112.36 M 394.63 110.8 Q 394.63 111.37 394.99 111.69 Q 395.34 112.01 395.98 112.01 Q 396.62 112.01 396.97 111.69 Q 397.33 111.37 397.33 110.8 Q 397.33 110.24 396.97 109.92 Q 396.62 109.6 395.98 109.6 Q 395.34 109.6 394.99 109.92 Q 394.63 110.24 394.63 110.8 z M 402.34 109.6 Q 401.58 109.6 401.2 110.36 Q 400.82 111.1 400.82 112.61 Q 400.82 114.11 401.2 114.86 Q 401.58 115.6 402.34 115.6 Q 403.11 115.6 403.49 114.86 Q 403.88 114.11 403.88 112.61 Q 403.88 111.1 403.49 110.36 Q 403.11 109.6 402.34 109.6 M 402.34 108.82 Q 403.57 108.82 404.21 109.79 Q 404.86 110.76 404.86 112.61 Q 404.86 114.45 404.21 115.42 Q 403.57 116.39 402.34 116.39 Q 401.12 116.39 400.47 115.42 Q 399.82 114.45 399.82 112.61 Q 399.82 110.76 400.47 109.79 Q 401.12 108.82 402.34 108.82 z" fill="#000000"/>
<path d="M 412.53 79.22 L 409.03 79.22" fill="none" stroke="#000000" stroke-width="0.8" stroke-linejoin="round"/>
<path d="M 387.68 81.85 L 389.29 81.85 L 389.29 76.29 L 387.54 76.64 L 387.54 75.75 L 389.28 75.39 L 390.27 75.39 L 390.27 81.85 L 391.88 81.85 L 391.88 82.68 L 387.68 82.68 L 387.68 81.85 z M 395.98 76.04 Q 395.22 76.04 394.83 76.8 Q 394.45 77.54 394.45 79.05 Q 394.45 80.55 394.83 81.3 Q 395.22 82.04 395.98 82.04 Q 396.75 82.04 397.13 81.3 Q 397.51 80.55 397.51 79.05 Q 397.51 77.54 397.13 76.8 Q 396.75 76.04 395.98 76.04 M 395.98 75.26 Q 397.21 75.26 397.85 76.23 Q 398.5 77.2 398.5 79.05 Q 398.5 80.89 397.85 81.86 Q 397.21 82.83 395.98 82.83 Q 394.76 82.83 394.11 81.86 Q 393.46 80.89 393.46 79.05 Q 393.46 77.2 394.11 76.23 Q 394.76 75.26 395.98 75.26 z M 402.34 76.04 Q 401.58 76.04 401.2 76.8 Q 400.82 77.54 400.82 79.05 Q 400.82 80.55 401.2 81.3 Q 401.58 82.04 402.34 82.04 Q 403.11 82.04 403.49 81.3 Q 403.88 80.55 403.88 79.05 Q 403.88 77.54 403.49 76.8 Q 403.11 76.04 402.34 76.04 M 402.34 75.26 Q 403.57 75.26 404.21 76.23 Q 404.86 77.2 404.86 79.05 Q 404.86 80.89 404.21 81.86 Q 403.57 82.83 402.34 82.83 Q 401.12 82.83 400.47 81.86 Q 399.82 80.89 399.82 79.05 Q 399.82 77.2 400.47 76.23 Q 401.12 75.26 402.34 75.26 z" fill="#000000"/>
<path d="M 412.53 45.66 L 409.03 45.66" fill="none" stroke="#000000" stroke-width="0.8" stroke-linejoin="round"/>
<path d="M 387.68 48.29 L 389.29 48.29 L 389.29 42.73 L 387.54 43.08 L 387.54 42.19 L 389.28 41.83 L 390.27 41.83 L 390.27 48.29 L 391.88 48.29 L 391.88 49.12 L 387.68 49.12 L 387.68 48.29 z M 394.72 48.29 L 398.16 48.29 L 398.16 49.12 L 393.54 49.12 L 393.54 48.29 Q 394.1 47.71 395.06 46.74 Q 396.04 45.75 396.28 45.47 Q 396.76 44.94 396.94 44.57 Q 397.13 44.2 397.13 43.85 Q 397.13 43.26 396.72 42.9 Q 396.32 42.53 395.66 42.53 Q 395.2 42.53 394.68 42.69 Q 394.17 42.85 393.58 43.18 L 393.58 42.19 Q 394.18 41.95 394.7 41.82 Q 395.22 41.7 395.64 41.7 Q 396.78 41.7 397.45 42.27 Q 398.13 42.84 398.13 43.78 Q 398.13 44.23 397.95 44.64 Q 397.79 45.04 397.34 45.58 Q 397.22 45.73 396.57 46.4 Q 395.91 47.08 394.72 48.29 z M 402.34 42.48 Q 401.58 42.48 401.2 43.24 Q 400.82 43.98 400.82 45.49 Q 400.82 46.99 401.2 47.74 Q 401.58 48.48 402.34 48.48 Q 403.11 48.48 403.49 47.74 Q 403.88 46.99 403.88 45.49 Q 403.88 43.98 403.49 43.24 Q 403.11 42.48 402.34 42.48 M 402.34 41.7 Q 403.57 41.7 404.21 42.67 Q 404.86 43.64 404.86 45.49 Q 404.86 47.33 404.21 48.3 Q 403.57 49.27 402.34 49.27 Q 401.12 49.27 400.47 48.3 Q 399.82 47.33 399.82 45.49 Q 399.82 43.64 400.47 42.67 Q 401.12 41.7 402.34 41.7 z" fill="#000000"/>
</g>
<g id="text_2">
<path d="M 510.78 16.13 Q 509.91 16.13 509.41 16.81 Q 508.91 17.49 508.91 18.66 Q 508.91 19.84 509.4 20.52 Q 509.91 21.19 510.78 21.19 Q 511.64 21.19 512.15 20.51 Q 512.65 19.84 512.65 18.66 Q 512.65 17.5 512.15 16.82 Q 511.64 16.13 510.78 16.13 M 510.78 15.22 Q 512.19 15.22 512.99 16.13 Q 513.79 17.05 513.79 18.66 Q 513.79 20.27 512.99 21.19 Q 512.19 22.11 510.78 22.11 Q 509.37 22.11 508.57 21.19 Q 507.77 20.27 507.77 18.66 Q 507.77 17.05 508.57 16.13 Q 509.37 15.22 510.78 15.22 z M 518.9 12.82 L 518.9 13.72 L 517.87 13.72 Q 517.29 13.72 517.06 13.95 Q 516.84 14.19 516.84 14.8 L 516.84 15.38 L 518.61 15.38 L 518.61 16.21 L 516.84 16.21 L 516.84 21.94 L 515.76 21.94 L 515.76 16.21 L 514.72 16.21 L 514.72 15.38 L 515.76 15.38 L 515.76 14.92 Q 515.76 13.82 516.27 13.33 Q 516.77 12.82 517.88 12.82 L 518.9 12.82 z M 523.13 12.82 L 523.13 13.72 L 522.1 13.72 Q 521.52 13.72 521.29 13.95 Q 521.06 14.19 521.06 14.8 L 521.06 15.38 L 522.84 15.38 L 522.84 16.21 L 521.06 16.21 L 521.06 21.94 L 519.98 21.94 L 519.98 16.21 L 518.95 16.21 L 518.95 15.38 L 519.98 15.38 L 519.98 14.92 Q 519.98 13.82 520.49 13.33 Q 521 12.82 522.11 12.82 L 523.13 12.82 z M 528.21 15.57 L 528.21 16.59 Q 527.76 16.35 527.26 16.24 Q 526.77 16.12 526.24 16.12 Q 525.44 16.12 525.04 16.37 Q 524.64 16.61 524.64 17.1 Q 524.64 17.48 524.93 17.7 Q 525.21 17.91 526.08 18.1 L 526.45 18.18 Q 527.6 18.43 528.08 18.88 Q 528.56 19.33 528.56 20.13 Q 528.56 21.04 527.84 21.58 Q 527.12 22.11 525.85 22.11 Q 525.32 22.11 524.75 22.01 Q 524.18 21.9 523.55 21.7 L 523.55 20.59 Q 524.15 20.9 524.73 21.05 Q 525.31 21.21 525.87 21.21 Q 526.64 21.21 527.05 20.95 Q 527.46 20.68 527.46 20.21 Q 527.46 19.77 527.16 19.54 Q 526.86 19.3 525.86 19.09 L 525.49 19 Q 524.49 18.79 524.04 18.35 Q 523.6 17.91 523.6 17.15 Q 523.6 16.23 524.25 15.72 Q 524.91 15.22 526.11 15.22 Q 526.71 15.22 527.24 15.31 Q 527.77 15.39 528.21 15.57 z M 535.89 18.39 L 535.89 18.92 L 530.94 18.92 Q 531.01 20.03 531.6 20.61 Q 532.21 21.19 533.28 21.19 Q 533.9 21.19 534.48 21.04 Q 535.07 20.89 535.64 20.59 L 535.64 21.6 Q 535.06 21.85 534.45 21.98 Q 533.84 22.11 533.22 22.11 Q 531.65 22.11 530.73 21.19 Q 529.81 20.28 529.81 18.72 Q 529.81 17.11 530.68 16.17 Q 531.55 15.22 533.03 15.22 Q 534.35 15.22 535.12 16.07 Q 535.89 16.92 535.89 18.39 M 534.82 18.07 Q 534.8 17.19 534.32 16.66 Q 533.84 16.13 533.04 16.13 Q 532.14 16.13 531.59 16.64 Q 531.05 17.15 530.97 18.08 L 534.82 18.07 z M 538.73 13.51 L 538.73 15.38 L 540.95 15.38 L 540.95 16.21 L 538.73 16.21 L 538.73 19.78 Q 538.73 20.58 538.95 20.81 Q 539.17 21.04 539.84 21.04 L 540.95 21.04 L 540.95 21.94 L 539.84 21.94 Q 538.6 21.94 538.12 21.48 Q 537.65 21.01 537.65 19.78 L 537.65 16.21 L 536.85 16.21 L 536.85 15.38 L 537.65 15.38 L 537.65 13.51 L 538.73 13.51 z z M 547.25 13.51 L 547.25 15.38 L 549.47 15.38 L 549.47 16.21 L 547.25 16.21 L 547.25 19.78 Q 547.25 20.58 547.47 20.81 Q 547.69 21.04 548.36 21.04 L 549.47 21.04 L 549.47 21.94 L 548.36 21.94 Q 547.11 21.94 546.64 21.48 Q 546.17 21.01 546.17 19.78 L 546.17 16.21 L 545.37 16.21 L 545.37 15.38 L 546.17 15.38 L 546.17 13.51 L 547.25 13.51 z M 556.5 18.39 L 556.5 18.92 L 551.54 18.92 Q 551.61 20.03 552.21 20.61 Q 552.82 21.19 553.89 21.19 Q 554.51 21.19 555.09 21.04 Q 555.68 20.89 556.25 20.59 L 556.25 21.6 Q 555.67 21.85 555.06 21.98 Q 554.45 22.11 553.82 22.11 Q 552.25 22.11 551.33 21.19 Q 550.42 20.28 550.42 18.72 Q 550.42 17.11 551.29 16.17 Q 552.16 15.22 553.64 15.22 Q 554.96 15.22 555.73 16.07 Q 556.5 16.92 556.5 18.39 M 555.42 18.07 Q 555.41 17.19 554.93 16.66 Q 554.44 16.13 553.65 16.13 Q 552.75 16.13 552.2 16.64 Q 551.66 17.15 551.58 18.08 L 555.42 18.07 z M 563.52 15.38 L 561.14 18.57 L 563.64 21.94 L 562.37 21.94 L 560.46 19.36 L 558.55 21.94 L 557.27 21.94 L 559.82 18.51 L 557.49 15.38 L 558.76 15.38 L 560.5 17.71 L 562.24 15.38 L 563.52 15.38 z M 566.23 13.51 L 566.23 15.38 L 568.45 15.38 L 568.45 16.21 L 566.23 16.21 L 566.23 19.78 Q 566.23 20.58 566.44 20.81 Q 566.67 21.04 567.34 21.04 L 568.45 21.04 L 568.45 21.94 L 567.34 21.94 Q 566.09 21.94 565.62 21.48 Q 565.14 21.01 565.14 19.78 L 565.14 16.21 L 564.35 16.21 L 564.35 15.38 L 565.14 15.38 L 565.14 13.51 L 566.23 13.51 z z M 576.27 12.83 Q 575.49 14.18 575.1 15.5 Q 574.72 16.82 574.72 18.17 Q 574.72 19.52 575.1 20.85 Q 575.49 22.18 576.27 23.52 L 575.33 23.52 Q 574.45 22.14 574.02 20.81 Q 573.58 19.48 573.58 18.17 Q 573.58 16.86 574.02 15.54 Q 574.45 14.22 575.33 12.83 L 576.27 12.83 z M 582.75 14.42 L 582.75 17.68 L 586.02 17.68 L 586.02 18.68 L 582.75 18.68 L 582.75 21.94 L 581.77 21.94 L 581.77 18.68 L 578.5 18.68 L 578.5 17.68 L 581.77 17.68 L 581.77 14.42 L 582.75 14.42 z M 588.77 20.94 L 590.71 20.94 L 590.71 14.27 L 588.6 14.69 L 588.6 13.61 L 590.7 13.19 L 591.88 13.19 L 591.88 20.94 L 593.81 20.94 L 593.81 21.94 L 588.77 21.94 L 588.77 20.94 z M 601.67 18.39 L 601.67 18.92 L 596.71 18.92 Q 596.78 20.03 597.38 20.61 Q 597.98 21.19 599.05 21.19 Q 599.67 21.19 600.25 21.04 Q 600.84 20.89 601.41 20.59 L 601.41 21.6 Q 600.83 21.85 600.22 21.98 Q 599.61 22.11 598.99 22.11 Q 597.42 22.11 596.5 21.19 Q 595.58 20.28 595.58 18.72 Q 595.58 17.11 596.45 16.17 Q 597.32 15.22 598.8 15.22 Q 600.12 15.22 600.89 16.07 Q 601.67 16.92 601.67 18.39 M 600.59 18.07 Q 600.58 17.19 600.09 16.66 Q 599.61 16.13 598.81 16.13 Q 597.91 16.13 597.36 16.64 Q 596.83 17.15 596.74 18.08 L 600.59 18.07 z M 606.12 17.78 Q 605.27 17.78 604.79 18.24 Q 604.31 18.69 604.31 19.48 Q 604.31 20.27 604.79 20.72 Q 605.27 21.17 606.12 21.17 Q 606.96 21.17 607.45 20.72 Q 607.94 20.26 607.94 19.48 Q 607.94 18.69 607.45 18.24 Q 606.97 17.78 606.12 17.78 M 604.94 17.28 Q 604.17 17.09 603.75 16.57 Q 603.32 16.05 603.32 15.3 Q 603.32 14.25 604.07 13.64 Q 604.82 13.03 606.12 13.03 Q 607.43 13.03 608.17 13.64 Q 608.91 14.25 608.91 15.3 Q 608.91 16.05 608.49 16.57 Q 608.06 17.09 607.31 17.28 Q 608.16 17.48 608.64 18.06 Q 609.12 18.64 609.12 19.48 Q 609.12 20.75 608.34 21.43 Q 607.57 22.11 606.12 22.11 Q 604.67 22.11 603.89 21.43 Q 603.12 20.75 603.12 19.48 Q 603.12 18.64 603.6 18.06 Q 604.08 17.48 604.94 17.28 M 604.5 15.41 Q 604.5 16.09 604.92 16.47 Q 605.35 16.85 606.12 16.85 Q 606.88 16.85 607.31 16.47 Q 607.74 16.09 607.74 15.41 Q 607.74 14.73 607.31 14.35 Q 606.88 13.97 606.12 13.97 Q 605.35 13.97 604.92 14.35 Q 604.5 14.73 604.5 15.41 z M 610.9 12.83 L 611.84 12.83 Q 612.72 14.22 613.15 15.54 Q 613.59 16.86 613.59 18.17 Q 613.59 19.48 613.15 20.81 Q 612.72 22.14 611.84 23.52 L 610.9 23.52 Q 611.68 22.18 612.06 20.85 Q 612.45 19.52 612.45 18.17 Q 612.45 16.82 612.06 15.5 Q 611.68 14.18 610.9 12.83 z" fill="#000000"/>
</g>
<path d="M 417.13 20.14 L 417.13 22.86 L 419.85 22.86 L 419.85 23.69 L 417.13 23.69 L 417.13 26.41 L 416.31 26.41 L 416.31 23.69 L 413.59 23.69 L 413.59 22.86 L 416.31 22.86 L 416.31 20.14 L 417.13 20.14 z M 422.15 25.58 L 423.76 25.58 L 423.76 20.02 L 422.01 20.37 L 422.01 19.47 L 423.75 19.12 L 424.73 19.12 L 424.73 25.58 L 426.35 25.58 L 426.35 26.41 L 422.15 26.41 L 422.15 25.58 z M 432.89 23.45 L 432.89 23.89 L 428.76 23.89 Q 428.82 24.82 429.31 25.31 Q 429.82 25.79 430.71 25.79 Q 431.23 25.79 431.71 25.66 Q 432.2 25.54 432.68 25.28 L 432.68 26.13 Q 432.2 26.34 431.69 26.44 Q 431.18 26.55 430.66 26.55 Q 429.35 26.55 428.58 25.79 Q 427.82 25.03 427.82 23.73 Q 427.82 22.39 428.54 21.6 Q 429.27 20.81 430.5 20.81 Q 431.6 20.81 432.24 21.52 Q 432.89 22.23 432.89 23.45 M 431.99 23.19 Q 431.98 22.45 431.58 22.01 Q 431.18 21.57 430.51 21.57 Q 429.76 21.57 429.3 22 Q 428.86 22.42 428.79 23.19 L 431.99 23.19 z M 436.6 22.95 Q 435.9 22.95 435.49 23.32 Q 435.09 23.7 435.09 24.36 Q 435.09 25.02 435.49 25.39 Q 435.9 25.77 436.6 25.77 Q 437.3 25.77 437.71 25.39 Q 438.11 25.01 438.11 24.36 Q 438.11 23.7 437.71 23.32 Q 437.31 22.95 436.6 22.95 M 435.61 22.53 Q 434.98 22.37 434.62 21.94 Q 434.27 21.5 434.27 20.88 Q 434.27 20 434.89 19.5 Q 435.52 18.99 436.6 18.99 Q 437.69 18.99 438.31 19.5 Q 438.93 20 438.93 20.88 Q 438.93 21.5 438.57 21.94 Q 438.22 22.37 437.59 22.53 Q 438.3 22.69 438.7 23.18 Q 439.1 23.66 439.1 24.36 Q 439.1 25.42 438.45 25.99 Q 437.81 26.55 436.6 26.55 Q 435.39 26.55 434.74 25.99 Q 434.1 25.42 434.1 24.36 Q 434.1 23.66 434.5 23.18 Q 434.9 22.69 435.61 22.53 M 435.25 20.97 Q 435.25 21.54 435.6 21.85 Q 435.96 22.17 436.6 22.17 Q 437.23 22.17 437.59 21.85 Q 437.95 21.54 437.95 20.97 Q 437.95 20.4 437.59 20.09 Q 437.23 19.77 436.6 19.77 Q 435.96 19.77 435.6 20.09 Q 435.25 20.4 435.25 20.97 z" fill="#000000"/>
</g>
</g>
</svg>
