<?xml version="1.0" encoding="utf-8" standalone="no"?>
<!DOCTYPE svg PUBLIC "-//W3C//DTD SVG 1.1//EN" "http://www.w3.org/Graphics/SVG/1.1/DTD/svg11.dtd">
<svg xmlns="http://www.w3.org/2000/svg" width="460.8pt" height="345.6pt" viewBox="0 0 460.8 345.6" version="1.1">
<defs>
<clipPath id="p1"><rect x="57.6" y="41.47" width="357.12" height="266.11"/></clipPath>
</defs>
<g id="figure_1">
<path d="M 0 345.6 L 460.8 345.6 L 460.8 0 L 0 0 z" fill="#ffffff"/>
<g id="axes_1">
<path d="M 57.6 307.58 L 414.72 307.58 L 414.72 41.47 L 57.6 41.47 z" fill="#ffffff"/>
<g id="line2d_1">
<path clip-path="url(#p1)" d="M 73.83 295.49 L 75.46 295.31 L 77.1 294.79 L 78.73 293.96 L 80.36 292.82 L 81.99 291.41 L 83.62 289.73 L 85.25 287.8 L 86.88 285.65 L 88.52 283.28 L 91.78 277.97 L 95.04 271.99 L 98.3 265.44 L 101.57 258.41 L 106.46 247.17 L 111.36 235.33 L 119.51 214.85 L 132.56 182 L 139.09 166.2 L 143.98 154.82 L 148.88 143.93 L 153.77 133.58 L 158.67 123.82 L 163.56 114.68 L 168.46 106.18 L 171.72 100.88 L 174.98 95.88 L 178.24 91.18 L 181.51 86.77 L 184.77 82.66 L 188.03 78.84 L 191.3 75.32 L 194.56 72.08 L 197.82 69.12 L 201.08 66.45 L 204.35 64.05 L 207.61 61.91 L 210.87 60.04 L 214.14 58.41 L 217.4 57.04 L 220.66 55.91 L 223.92 55.01 L 227.19 54.33 L 230.45 53.87 L 233.71 53.62 L 236.98 53.57 L 240.24 53.71 L 243.5 54.04 L 246.76 54.55 L 250.03 55.23 L 253.29 56.07 L 258.18 57.62 L 263.08 59.49 L 267.97 61.66 L 272.87 64.1 L 277.76 66.79 L 282.66 69.72 L 289.18 73.94 L 295.71 78.47 L 302.23 83.29 L 310.39 89.62 L 318.55 96.25 L 328.34 104.47 L 341.39 115.74 L 377.28 146.91 L 390.33 157.86 L 398.49 164.52 L 398.49 164.52" fill="none" stroke="#1f77b4" stroke-width="2" stroke-linecap="square" stroke-linejoin="round"/>
</g>
<g id="annotation-arrow_1">
<path d="M 289.01 62.98 L 239.23 54.11" fill="none" stroke="#000000" stroke-width="1" stroke-linecap="square"/>
<path d="M 242.82 56.78 L 239.23 54.11 L 243.52 52.84" fill="none" stroke="#000000" stroke-width="1" stroke-linecap="square"/>
</g>
<g id="text_1">
<path d="M 298.17 67.62 Q 298.51 67.01 298.98 66.72 Q 299.45 66.44 300.08 66.44 Q 300.94 66.44 301.4 67.04 Q 301.87 67.63 301.87 68.74 L 301.87 72.04 L 300.96 72.04 L 300.96 68.77 Q 300.96 67.98 300.68 67.6 Q 300.41 67.22 299.83 67.22 Q 299.14 67.22 298.73 67.68 Q 298.33 68.15 298.33 68.95 L 298.33 72.04 L 297.42 72.04 L 297.42 68.77 Q 297.42 67.97 297.14 67.6 Q 296.87 67.22 296.29 67.22 Q 295.6 67.22 295.19 67.69 Q 294.79 68.15 294.79 68.95 L 294.79 72.04 L 293.88 72.04 L 293.88 66.57 L 294.79 66.57 L 294.79 67.42 Q 295.09 66.92 295.52 66.68 Q 295.95 66.44 296.54 66.44 Q 297.14 66.44 297.55 66.74 Q 297.97 67.04 298.17 67.62 z M 306.14 69.29 Q 305.05 69.29 304.63 69.54 Q 304.21 69.79 304.21 70.39 Q 304.21 70.87 304.53 71.15 Q 304.84 71.43 305.39 71.43 Q 306.13 71.43 306.58 70.9 Q 307.04 70.37 307.04 69.49 L 307.04 69.29 L 306.14 69.29 M 307.94 68.92 L 307.94 72.04 L 307.04 72.04 L 307.04 71.21 Q 306.73 71.71 306.27 71.94 Q 305.81 72.18 305.15 72.18 Q 304.31 72.18 303.81 71.71 Q 303.32 71.24 303.32 70.45 Q 303.32 69.52 303.93 69.05 Q 304.55 68.59 305.78 68.59 L 307.04 68.59 L 307.04 68.5 Q 307.04 67.88 306.63 67.54 Q 306.22 67.2 305.48 67.2 Q 305.02 67.2 304.57 67.31 Q 304.13 67.42 303.72 67.65 L 303.72 66.82 Q 304.21 66.63 304.67 66.53 Q 305.14 66.44 305.58 66.44 Q 306.76 66.44 307.35 67.05 Q 307.94 67.67 307.94 68.92 z M 314.33 66.57 L 312.35 69.23 L 314.43 72.04 L 313.37 72.04 L 311.78 69.89 L 310.19 72.04 L 309.13 72.04 L 311.26 69.18 L 309.31 66.57 L 310.37 66.57 L 311.82 68.52 L 313.27 66.57 L 314.33 66.57 z M 319.54 64.44 L 319.4 65.19 L 318.54 65.19 Q 318.05 65.19 317.83 65.38 Q 317.61 65.57 317.5 66.09 L 317.4 66.57 L 318.88 66.57 L 318.75 67.27 L 317.27 67.27 L 316.34 72.04 L 315.44 72.04 L 316.37 67.27 L 315.51 67.27 L 315.64 66.57 L 316.5 66.57 L 316.57 66.19 Q 316.76 65.22 317.22 64.83 Q 317.69 64.44 318.69 64.44 L 319.54 64.44 z M 321.29 67.5 L 327.55 67.5 L 327.55 68.32 L 321.29 68.32 L 321.29 67.5 M 321.29 69.49 L 327.55 69.49 L 327.55 70.32 L 321.29 70.32 L 321.29 69.49 z M 335.37 68.81 Q 335.38 68.74 335.39 68.65 Q 335.4 68.57 335.4 68.49 Q 335.4 67.89 335.04 67.55 Q 334.7 67.2 334.1 67.2 Q 333.43 67.2 332.92 67.62 Q 332.4 68.04 332.14 68.82 L 335.37 68.81 M 336.15 69.52 L 331.97 69.52 Q 331.94 69.7 331.93 69.81 Q 331.92 69.92 331.92 70 Q 331.92 70.68 332.33 71.05 Q 332.75 71.42 333.52 71.42 Q 334.1 71.42 334.62 71.29 Q 335.15 71.15 335.6 70.9 L 335.43 71.79 Q 334.94 71.98 334.42 72.08 Q 333.91 72.18 333.38 72.18 Q 332.24 72.18 331.63 71.64 Q 331.02 71.09 331.02 70.09 Q 331.02 69.23 331.32 68.5 Q 331.63 67.76 332.22 67.19 Q 332.6 66.83 333.12 66.63 Q 333.65 66.44 334.24 66.44 Q 335.17 66.44 335.71 66.99 Q 336.27 67.55 336.27 68.49 Q 336.27 68.71 336.24 68.97 Q 336.21 69.22 336.15 69.52 z M 337.91 65.65 L 342.29 65.65 L 342.29 66.23 L 337.91 66.23 L 337.91 65.65 z M 344.38 67.55 L 346.79 67.55 L 346.79 68.13 L 343.55 68.13 L 343.55 67.55 Q 343.94 67.14 344.62 66.46 Q 345.3 65.77 345.47 65.58 Q 345.8 65.2 345.93 64.95 Q 346.07 64.69 346.07 64.44 Q 346.07 64.03 345.78 63.77 Q 345.49 63.52 345.04 63.52 Q 344.71 63.52 344.35 63.63 Q 343.99 63.74 343.58 63.97 L 343.58 63.28 Q 344 63.11 344.36 63.02 Q 344.72 62.94 345.02 62.94 Q 345.82 62.94 346.29 63.33 Q 346.76 63.73 346.76 64.39 Q 346.76 64.71 346.64 64.99 Q 346.52 65.27 346.21 65.65 Q 346.13 65.75 345.67 66.23 Q 345.21 66.7 344.38 67.55 z" fill="#000000"/>
</g>
<g id="text_2">
<path d="M 237.77 217.33 Q 236.73 217.33 236.02 218.08 Q 235.28 218.86 235.03 220.16 Q 234.76 221.54 235.2 222.33 Q 235.63 223.12 236.65 223.12 Q 237.65 223.12 238.39 222.32 Q 239.13 221.53 239.4 220.16 Q 239.64 218.91 239.22 218.08 Q 238.82 217.33 237.77 217.33 M 237.97 216.32 L 242.14 216.33 L 241.9 217.59 L 240.49 217.59 Q 241.02 218.65 240.73 220.16 Q 240.36 222.04 239.22 223.11 Q 238.07 224.18 236.43 224.18 Q 234.79 224.18 234.06 223.11 Q 233.34 222.04 233.71 220.16 Q 234.07 218.28 235.21 217.21 Q 236.16 216.32 237.97 216.32 z M 246 217.63 L 254.76 217.63 L 254.76 218.77 L 246 218.77 L 246 217.63 M 246 220.42 L 254.76 220.42 L 254.76 221.58 L 246 221.58 L 246 220.42 z M 266.6 201.43 L 267.89 201.43 L 267.89 203.42 L 267.11 203.42 L 263.05 236.74 L 262.6 236.74 L 260.41 218.42 L 259.56 219.35 L 259.39 217.69 L 261.32 215.66 L 263.07 230.37 L 266.6 201.43 z M 267.89 201.46 L 351.72 201.46 L 351.72 200.59 L 267.89 200.59 z M 270.86 217.04 L 272.44 217.04 L 272.44 211.59 L 270.72 211.93 L 270.72 211.05 L 272.43 210.71 L 273.39 210.71 L 273.39 217.04 L 274.97 217.04 L 274.97 217.85 L 270.86 217.85 L 270.86 217.04 z M 269.64 220.48 L 275.88 220.48 L 275.88 219.6 L 269.64 219.6 z M 275.11 224.48 L 274.49 227.72 L 273.6 227.72 L 274.23 224.51 Q 274.27 224.29 274.3 224.12 Q 274.32 223.94 274.32 223.84 Q 274.32 223.44 274.07 223.22 Q 273.81 222.99 273.36 222.99 Q 272.65 222.99 272.14 223.47 Q 271.63 223.94 271.47 224.74 L 270.88 227.72 L 270 227.72 L 271.04 222.36 L 271.92 222.36 L 271.74 223.2 Q 272.11 222.73 272.63 222.48 Q 273.14 222.23 273.71 222.23 Q 274.42 222.23 274.81 222.61 Q 275.2 222.99 275.2 223.69 Q 275.2 223.86 275.18 224.05 Q 275.16 224.25 275.11 224.48 z M 288.57 208.05 L 287.94 211.29 L 287.05 211.29 L 287.68 208.09 Q 287.72 207.86 287.75 207.69 Q 287.77 207.52 287.77 207.42 Q 287.77 207.02 287.52 206.79 Q 287.27 206.57 286.81 206.57 Q 286.1 206.57 285.59 207.04 Q 285.08 207.51 284.92 208.32 L 284.33 211.29 L 283.45 211.29 L 284.49 205.93 L 285.37 205.93 L 285.19 206.77 Q 285.56 206.31 286.08 206.05 Q 286.6 205.8 287.16 205.8 Q 287.87 205.8 288.26 206.18 Q 288.65 206.57 288.65 207.26 Q 288.65 207.43 288.63 207.63 Q 288.61 207.82 288.57 208.05 z M 281.87 213.91 L 290.47 213.91 L 290.47 215.23 L 283.92 215.23 L 288.51 220.14 L 283.77 225.36 L 290.65 225.36 L 290.65 226.67 L 281.67 226.67 L 281.67 225.65 L 286.62 220.18 L 281.87 215.12 L 281.87 213.91 z M 279.42 229.3 L 280.3 229.3 L 280.09 230.41 L 279.21 230.41 L 279.42 229.3 M 279.02 231.38 L 279.9 231.38 L 278.85 236.74 L 277.97 236.74 L 279.02 231.38 z M 281.39 232.29 L 287.52 232.29 L 287.52 233.09 L 281.39 233.09 L 281.39 232.29 M 281.39 234.24 L 287.52 234.24 L 287.52 235.06 L 281.39 235.06 L 281.39 234.24 z M 289.78 235.93 L 291.36 235.93 L 291.36 230.48 L 289.64 230.82 L 289.64 229.94 L 291.35 229.6 L 292.31 229.6 L 292.31 235.93 L 293.89 235.93 L 293.89 236.74 L 289.78 236.74 L 289.78 235.93 z M 299.14 213.36 Q 298.22 214.93 297.78 216.47 Q 297.33 218.01 297.33 219.59 Q 297.33 221.17 297.78 222.72 Q 298.23 224.26 299.14 225.83 L 298.04 225.83 Q 297.02 224.22 296.51 222.67 Q 296 221.12 296 219.59 Q 296 218.06 296.51 216.52 Q 297.01 214.97 298.04 213.36 L 299.14 213.36 z M 308.66 216.33 L 305.15 220.08 L 307.3 223.98 L 305.86 223.98 L 304.24 220.95 L 301.42 223.98 L 299.9 223.98 L 303.66 219.95 L 301.66 216.33 L 303.1 216.33 L 304.57 219.1 L 307.14 216.33 L 308.66 216.33 z M 310.34 218.88 L 311.22 218.88 L 311 220 L 310.12 220 L 310.34 218.88 M 309.94 220.97 L 310.82 220.97 L 309.77 226.33 L 308.89 226.33 L 309.94 220.97 z M 315.87 219.01 L 324.63 219.01 L 324.63 220.18 L 315.87 220.18 L 315.87 219.01 z M 328.66 226.9 L 330.72 216.33 L 331.98 216.33 L 331.05 221.09 Q 331.02 221.24 331 221.41 Q 330.98 221.59 330.98 221.77 Q 330.98 222.4 331.38 222.75 Q 331.78 223.09 332.53 223.09 Q 333.54 223.09 334.16 222.51 Q 334.78 221.94 335 220.79 L 335.87 216.33 L 337.13 216.33 L 335.99 222.21 Q 335.96 222.34 335.95 222.44 Q 335.94 222.53 335.94 222.61 Q 335.94 222.82 336.02 222.92 Q 336.11 223.02 336.29 223.02 Q 336.36 223.02 336.48 222.99 Q 336.6 222.95 336.82 222.86 L 336.63 223.87 Q 336.33 224.02 336.05 224.11 Q 335.78 224.18 335.52 224.18 Q 335.07 224.18 334.81 223.89 Q 334.56 223.61 334.56 223.1 Q 334.18 223.65 333.64 223.92 Q 333.12 224.18 332.4 224.18 Q 331.76 224.18 331.28 223.89 Q 330.81 223.59 330.66 223.12 L 329.92 226.9 L 328.66 226.9 z M 338.87 213.36 L 339.97 213.36 Q 340.99 214.97 341.5 216.52 Q 342.01 218.06 342.01 219.59 Q 342.01 221.12 341.5 222.67 Q 340.99 224.22 339.97 225.83 L 338.87 225.83 Q 339.78 224.26 340.22 222.72 Q 340.68 221.17 340.68 219.59 Q 340.68 218.01 340.22 216.47 Q 339.78 214.93 338.87 213.36 z M 345.23 217.7 L 348.6 217.7 L 348.6 218.52 L 344.07 218.52 L 344.07 217.7 Q 344.62 217.13 345.56 216.18 Q 346.52 215.22 346.76 214.94 Q 347.22 214.42 347.41 214.06 Q 347.59 213.69 347.59 213.34 Q 347.59 212.78 347.19 212.42 Q 346.79 212.06 346.15 212.06 Q 345.7 212.06 345.19 212.22 Q 344.69 212.37 344.11 212.69 L 344.11 211.72 Q 344.7 211.48 345.21 211.36 Q 345.71 211.24 346.13 211.24 Q 347.24 211.24 347.9 211.8 Q 348.56 212.35 348.56 213.28 Q 348.56 213.72 348.4 214.12 Q 348.23 214.51 347.8 215.05 Q 347.68 215.19 347.04 215.85 Q 346.4 216.51 345.23 217.7 z" fill="#000000"/>
</g>
<g id="spines_1">
<path d="M 57.6 307.58 L 414.72 307.58 L 414.72 41.47 L 57.6 41.47 z" fill="none" stroke="#000000" stroke-width="0.8" stroke-linecap="square" stroke-linejoin="round"/>
</g>
<g id="xtick_1">
<path d="M 73.83 307.58 L 73.83 311.08" fill="none" stroke="#000000" stroke-width="0.8" stroke-linejoin="round"/>
<path d="M 65.88 317.23 Q 65.12 317.23 64.73 317.98 Q 64.35 318.72 64.35 320.23 Q 64.35 321.73 64.73 322.48 Q 65.12 323.23 65.88 323.23 Q 66.65 323.23 67.03 322.48 Q 67.41 321.73 67.41 320.23 Q 67.41 318.72 67.03 317.98 Q 66.65 317.23 65.88 317.23 M 65.88 316.44 Q 67.1 316.44 67.75 317.42 Q 68.4 318.38 68.4 320.23 Q 68.4 322.07 67.75 323.04 Q 67.1 324.01 65.88 324.01 Q 64.65 324.01 64 323.04 Q 63.36 322.07 63.36 320.23 Q 63.36 318.38 64 317.42 Q 64.65 316.44 65.88 316.44 z M 70.13 322.63 L 71.16 322.63 L 71.16 323.87 L 70.13 323.87 L 70.13 322.63 z M 75.42 317.23 Q 74.66 317.23 74.27 317.98 Q 73.89 318.72 73.89 320.23 Q 73.89 321.73 74.27 322.48 Q 74.66 323.23 75.42 323.23 Q 76.19 323.23 76.57 322.48 Q 76.95 321.73 76.95 320.23 Q 76.95 318.72 76.57 317.98 Q 76.19 317.23 75.42 317.23 M 75.42 316.44 Q 76.65 316.44 77.29 317.42 Q 77.94 318.38 77.94 320.23 Q 77.94 322.07 77.29 323.04 Q 76.65 324.01 75.42 324.01 Q 74.19 324.01 73.54 323.04 Q 72.9 322.07 72.9 320.23 Q 72.9 318.38 73.54 317.42 Q 74.19 316.44 75.42 316.44 z M 81.78 317.23 Q 81.02 317.23 80.63 317.98 Q 80.25 318.72 80.25 320.23 Q 80.25 321.73 80.63 322.48 Q 81.02 323.23 81.78 323.23 Q 82.55 323.23 82.93 322.48 Q 83.32 321.73 83.32 320.23 Q 83.32 318.72 82.93 317.98 Q 82.55 317.23 81.78 317.23 M 81.78 316.44 Q 83.01 316.44 83.65 317.42 Q 84.3 318.38 84.3 320.23 Q 84.3 322.07 83.65 323.04 Q 83.01 324.01 81.78 324.01 Q 80.56 324.01 79.91 323.04 Q 79.26 322.07 79.26 320.23 Q 79.26 318.38 79.91 317.42 Q 80.56 316.44 81.78 316.44 z" fill="#000000"/>
<path d="M 114.41 307.58 L 114.41 311.08" fill="none" stroke="#000000" stroke-width="0.8" stroke-linejoin="round"/>
<path d="M 106.46 317.23 Q 105.7 317.23 105.31 317.98 Q 104.93 318.72 104.93 320.23 Q 104.93 321.73 105.31 322.48 Q 105.7 323.23 106.46 323.23 Q 107.23 323.23 107.61 322.48 Q 107.99 321.73 107.99 320.23 Q 107.99 318.72 107.61 317.98 Q 107.23 317.23 106.46 317.23 M 106.46 316.44 Q 107.69 316.44 108.33 317.42 Q 108.98 318.38 108.98 320.23 Q 108.98 322.07 108.33 323.04 Q 107.69 324.01 106.46 324.01 Q 105.23 324.01 104.59 323.04 Q 103.94 322.07 103.94 320.23 Q 103.94 318.38 104.59 317.42 Q 105.23 316.44 106.46 316.44 z M 110.71 322.63 L 111.74 322.63 L 111.74 323.87 L 110.71 323.87 L 110.71 322.63 z M 114.74 323.04 L 118.18 323.04 L 118.18 323.87 L 113.56 323.87 L 113.56 323.04 Q 114.12 322.46 115.08 321.48 Q 116.06 320.5 116.3 320.21 Q 116.78 319.68 116.96 319.32 Q 117.15 318.94 117.15 318.59 Q 117.15 318.01 116.74 317.64 Q 116.34 317.27 115.68 317.27 Q 115.22 317.27 114.7 317.44 Q 114.19 317.6 113.6 317.92 L 113.6 316.93 Q 114.2 316.69 114.72 316.57 Q 115.23 316.44 115.66 316.44 Q 116.8 316.44 117.47 317.01 Q 118.15 317.58 118.15 318.52 Q 118.15 318.97 117.97 319.38 Q 117.81 319.78 117.36 320.33 Q 117.24 320.47 116.59 321.15 Q 115.93 321.82 114.74 323.04 z M 120.26 316.58 L 124.14 316.58 L 124.14 317.41 L 121.17 317.41 L 121.17 319.19 Q 121.38 319.12 121.6 319.09 Q 121.81 319.05 122.03 319.05 Q 123.25 319.05 123.96 319.72 Q 124.67 320.38 124.67 321.53 Q 124.67 322.7 123.94 323.36 Q 123.21 324.01 121.88 324.01 Q 121.42 324.01 120.94 323.93 Q 120.46 323.85 119.96 323.7 L 119.96 322.7 Q 120.4 322.94 120.86 323.06 Q 121.33 323.18 121.86 323.18 Q 122.7 323.18 123.19 322.73 Q 123.69 322.29 123.69 321.53 Q 123.69 320.77 123.19 320.32 Q 122.7 319.88 121.86 319.88 Q 121.46 319.88 121.06 319.96 Q 120.67 320.05 120.26 320.24 L 120.26 316.58 z" fill="#000000"/>
<path d="M 155 307.58 L 155 311.08" fill="none" stroke="#000000" stroke-width="0.8" stroke-linejoin="round"/>
<path d="M 147.04 317.23 Q 146.28 317.23 145.89 317.98 Q 145.51 318.72 145.51 320.23 Q 145.51 321.73 145.89 322.48 Q 146.28 323.23 147.04 323.23 Q 147.81 323.23 148.19 322.48 Q 148.58 321.73 148.58 320.23 Q 148.58 318.72 148.19 317.98 Q 147.81 317.23 147.04 317.23 M 147.04 316.44 Q 148.27 316.44 148.91 317.42 Q 149.56 318.38 149.56 320.23 Q 149.56 322.07 148.91 323.04 Q 148.27 324.01 147.04 324.01 Q 145.82 324.01 145.17 323.04 Q 144.52 322.07 144.52 320.23 Q 144.52 318.38 145.17 317.42 Q 145.82 316.44 147.04 316.44 z M 151.3 322.63 L 152.33 322.63 L 152.33 323.87 L 151.3 323.87 L 151.3 322.63 z M 154.48 316.58 L 158.36 316.58 L 158.36 317.41 L 155.39 317.41 L 155.39 319.19 Q 155.6 319.12 155.82 319.09 Q 156.03 319.05 156.25 319.05 Q 157.47 319.05 158.18 319.72 Q 158.89 320.38 158.89 321.53 Q 158.89 322.7 158.16 323.36 Q 157.43 324.01 156.09 324.01 Q 155.64 324.01 155.16 323.93 Q 154.68 323.85 154.18 323.7 L 154.18 322.7 Q 154.62 322.94 155.08 323.06 Q 155.55 323.18 156.08 323.18 Q 156.92 323.18 157.41 322.73 Q 157.91 322.29 157.91 321.53 Q 157.91 320.77 157.41 320.32 Q 156.92 319.88 156.08 319.88 Q 155.68 319.88 155.28 319.96 Q 154.89 320.05 154.48 320.24 L 154.48 316.58 z M 162.95 317.23 Q 162.18 317.23 161.8 317.98 Q 161.42 318.72 161.42 320.23 Q 161.42 321.73 161.8 322.48 Q 162.18 323.23 162.95 323.23 Q 163.71 323.23 164.09 322.48 Q 164.48 321.73 164.48 320.23 Q 164.48 318.72 164.09 317.98 Q 163.71 317.23 162.95 317.23 M 162.95 316.44 Q 164.17 316.44 164.82 317.42 Q 165.47 318.38 165.47 320.23 Q 165.47 322.07 164.82 323.04 Q 164.17 324.01 162.95 324.01 Q 161.72 324.01 161.07 323.04 Q 160.43 322.07 160.43 320.23 Q 160.43 318.38 161.07 317.42 Q 161.72 316.44 162.95 316.44 z" fill="#000000"/>
<path d="M 195.58 307.58 L 195.58 311.08" fill="none" stroke="#000000" stroke-width="0.8" stroke-linejoin="round"/>
<path d="M 187.62 317.23 Q 186.86 317.23 186.48 317.98 Q 186.1 318.72 186.1 320.23 Q 186.1 321.73 186.48 322.48 Q 186.86 323.23 187.62 323.23 Q 188.39 323.23 188.77 322.48 Q 189.16 321.73 189.16 320.23 Q 189.16 318.72 188.77 317.98 Q 188.39 317.23 187.62 317.23 M 187.62 316.44 Q 188.85 316.44 189.49 317.42 Q 190.14 318.38 190.14 320.23 Q 190.14 322.07 189.49 323.04 Q 188.85 324.01 187.62 324.01 Q 186.4 324.01 185.75 323.04 Q 185.1 322.07 185.1 320.23 Q 185.1 318.38 185.75 317.42 Q 186.4 316.44 187.62 316.44 z M 191.88 322.63 L 192.91 322.63 L 192.91 323.87 L 191.88 323.87 L 191.88 322.63 z M 194.81 316.58 L 199.49 316.58 L 199.49 317 L 196.85 323.87 L 195.82 323.87 L 198.31 317.41 L 194.81 317.41 L 194.81 316.58 z M 201.43 316.58 L 205.3 316.58 L 205.3 317.41 L 202.33 317.41 L 202.33 319.19 Q 202.55 319.12 202.76 319.09 Q 202.98 319.05 203.19 319.05 Q 204.41 319.05 205.12 319.72 Q 205.84 320.38 205.84 321.53 Q 205.84 322.7 205.1 323.36 Q 204.37 324.01 203.04 324.01 Q 202.58 324.01 202.1 323.93 Q 201.63 323.85 201.12 323.7 L 201.12 322.7 Q 201.56 322.94 202.03 323.06 Q 202.5 323.18 203.02 323.18 Q 203.86 323.18 204.36 322.73 Q 204.85 322.29 204.85 321.53 Q 204.85 320.77 204.36 320.32 Q 203.86 319.88 203.02 319.88 Q 202.62 319.88 202.23 319.96 Q 201.84 320.05 201.43 320.24 L 201.43 316.58 z" fill="#000000"/>
<path d="M 236.16 307.58 L 236.16 311.08" fill="none" stroke="#000000" stroke-width="0.8" stroke-linejoin="round"/>
<path d="M 226.27 323.04 L 227.88 323.04 L 227.88 317.47 L 226.13 317.83 L 226.13 316.93 L 227.87 316.58 L 228.86 316.58 L 228.86 323.04 L 230.47 323.04 L 230.47 323.87 L 226.27 323.87 L 226.27 323.04 z M 232.46 322.63 L 233.49 322.63 L 233.49 323.87 L 232.46 323.87 L 232.46 322.63 z M 237.75 317.23 Q 236.99 317.23 236.6 317.98 Q 236.22 318.72 236.22 320.23 Q 236.22 321.73 236.6 322.48 Q 236.99 323.23 237.75 323.23 Q 238.51 323.23 238.89 322.48 Q 239.28 321.73 239.28 320.23 Q 239.28 318.72 238.89 317.98 Q 238.51 317.23 237.75 317.23 M 237.75 316.44 Q 238.97 316.44 239.62 317.42 Q 240.27 318.38 240.27 320.23 Q 240.27 322.07 239.62 323.04 Q 238.97 324.01 237.75 324.01 Q 236.52 324.01 235.87 323.04 Q 235.23 322.07 235.23 320.23 Q 235.23 318.38 235.87 317.42 Q 236.52 316.44 237.75 316.44 z M 244.11 317.23 Q 243.35 317.23 242.96 317.98 Q 242.58 318.72 242.58 320.23 Q 242.58 321.73 242.96 322.48 Q 243.35 323.23 244.11 323.23 Q 244.88 323.23 245.26 322.48 Q 245.64 321.73 245.64 320.23 Q 245.64 318.72 245.26 317.98 Q 244.88 317.23 244.11 317.23 M 244.11 316.44 Q 245.33 316.44 245.98 317.42 Q 246.63 318.38 246.63 320.23 Q 246.63 322.07 245.98 323.04 Q 245.33 324.01 244.11 324.01 Q 242.88 324.01 242.23 323.04 Q 241.59 322.07 241.59 320.23 Q 241.59 318.38 242.23 317.42 Q 242.88 316.44 244.11 316.44 z" fill="#000000"/>
<path d="M 276.74 307.58 L 276.74 311.08" fill="none" stroke="#000000" stroke-width="0.8" stroke-linejoin="round"/>
<path d="M 266.85 323.04 L 268.46 323.04 L 268.46 317.47 L 266.71 317.83 L 266.71 316.93 L 268.45 316.58 L 269.44 316.58 L 269.44 323.04 L 271.05 323.04 L 271.05 323.87 L 266.85 323.87 L 266.85 323.04 z M 273.04 322.63 L 274.07 322.63 L 274.07 323.87 L 273.04 323.87 L 273.04 322.63 z M 277.07 323.04 L 280.51 323.04 L 280.51 323.87 L 275.88 323.87 L 275.88 323.04 Q 276.44 322.46 277.41 321.48 Q 278.38 320.5 278.63 320.21 Q 279.11 319.68 279.29 319.32 Q 279.48 318.94 279.48 318.59 Q 279.48 318.01 279.07 317.64 Q 278.67 317.27 278.01 317.27 Q 277.55 317.27 277.03 317.44 Q 276.52 317.6 275.93 317.92 L 275.93 316.93 Q 276.53 316.69 277.04 316.57 Q 277.56 316.44 277.99 316.44 Q 279.12 316.44 279.8 317.01 Q 280.47 317.58 280.47 318.52 Q 280.47 318.97 280.3 319.38 Q 280.14 319.78 279.69 320.33 Q 279.57 320.47 278.91 321.15 Q 278.26 321.82 277.07 323.04 z M 282.59 316.58 L 286.46 316.58 L 286.46 317.41 L 283.49 317.41 L 283.49 319.19 Q 283.71 319.12 283.92 319.09 Q 284.14 319.05 284.35 319.05 Q 285.57 319.05 286.29 319.72 Q 287 320.38 287 321.53 Q 287 322.7 286.27 323.36 Q 285.54 324.01 284.2 324.01 Q 283.74 324.01 283.27 323.93 Q 282.79 323.85 282.28 323.7 L 282.28 322.7 Q 282.72 322.94 283.19 323.06 Q 283.66 323.18 284.18 323.18 Q 285.03 323.18 285.52 322.73 Q 286.01 322.29 286.01 321.53 Q 286.01 320.77 285.52 320.32 Q 285.03 319.88 284.18 319.88 Q 283.79 319.88 283.39 319.96 Q 283 320.05 282.59 320.24 L 282.59 316.58 z" fill="#000000"/>
<path d="M 317.32 307.58 L 317.32 311.08" fill="none" stroke="#000000" stroke-width="0.8" stroke-linejoin="round"/>
<path d="M 307.43 323.04 L 309.04 323.04 L 309.04 317.47 L 307.29 317.83 L 307.29 316.93 L 309.03 316.58 L 310.02 316.58 L 310.02 323.04 L 311.63 323.04 L 311.63 323.87 L 307.43 323.87 L 307.43 323.04 z M 313.62 322.63 L 314.65 322.63 L 314.65 323.87 L 313.62 323.87 L 313.62 322.63 z M 316.81 316.58 L 320.68 316.58 L 320.68 317.41 L 317.71 317.41 L 317.71 319.19 Q 317.93 319.12 318.14 319.09 Q 318.36 319.05 318.57 319.05 Q 319.79 319.05 320.51 319.72 Q 321.22 320.38 321.22 321.53 Q 321.22 322.7 320.49 323.36 Q 319.76 324.01 318.42 324.01 Q 317.96 324.01 317.48 323.93 Q 317.01 323.85 316.5 323.7 L 316.5 322.7 Q 316.94 322.94 317.41 323.06 Q 317.88 323.18 318.4 323.18 Q 319.25 323.18 319.74 322.73 Q 320.23 322.29 320.23 321.53 Q 320.23 320.77 319.74 320.32 Q 319.25 319.88 318.4 319.88 Q 318.01 319.88 317.61 319.96 Q 317.22 320.05 316.81 320.24 L 316.81 316.58 z M 325.27 317.23 Q 324.51 317.23 324.13 317.98 Q 323.74 318.72 323.74 320.23 Q 323.74 321.73 324.13 322.48 Q 324.51 323.23 325.27 323.23 Q 326.04 323.23 326.42 322.48 Q 326.81 321.73 326.81 320.23 Q 326.81 318.72 326.42 317.98 Q 326.04 317.23 325.27 317.23 M 325.27 316.44 Q 326.5 316.44 327.14 317.42 Q 327.79 318.38 327.79 320.23 Q 327.79 322.07 327.14 323.04 Q 326.5 324.01 325.27 324.01 Q 324.05 324.01 323.4 323.04 Q 322.75 322.07 322.75 320.23 Q 322.75 318.38 323.4 317.42 Q 324.05 316.44 325.27 316.44 z" fill="#000000"/>
<path d="M 357.91 307.58 L 357.91 311.08" fill="none" stroke="#000000" stroke-width="0.8" stroke-linejoin="round"/>
<path d="M 348.01 323.04 L 349.62 323.04 L 349.62 317.47 L 347.87 317.83 L 347.87 316.93 L 349.61 316.58 L 350.6 316.58 L 350.6 323.04 L 352.21 323.04 L 352.21 323.87 L 348.01 323.87 L 348.01 323.04 z M 354.2 322.63 L 355.23 322.63 L 355.23 323.87 L 354.2 323.87 L 354.2 322.63 z M 357.13 316.58 L 361.82 316.58 L 361.82 317 L 359.17 323.87 L 358.14 323.87 L 360.63 317.41 L 357.13 317.41 L 357.13 316.58 z M 363.76 316.58 L 367.63 316.58 L 367.63 317.41 L 364.66 317.41 L 364.66 319.19 Q 364.87 319.12 365.09 319.09 Q 365.3 319.05 365.52 319.05 Q 366.74 319.05 367.45 319.72 Q 368.16 320.38 368.16 321.53 Q 368.16 322.7 367.43 323.36 Q 366.7 324.01 365.37 324.01 Q 364.91 324.01 364.43 323.93 Q 363.96 323.85 363.45 323.7 L 363.45 322.7 Q 363.89 322.94 364.36 323.06 Q 364.82 323.18 365.35 323.18 Q 366.19 323.18 366.68 322.73 Q 367.18 322.29 367.18 321.53 Q 367.18 320.77 366.68 320.32 Q 366.19 319.88 365.35 319.88 Q 364.95 319.88 364.56 319.96 Q 364.17 320.05 363.76 320.24 L 363.76 316.58 z" fill="#000000"/>
<path d="M 398.49 307.58 L 398.49 311.08" fill="none" stroke="#000000" stroke-width="0.8" stroke-linejoin="round"/>
<path d="M 389.27 323.04 L 392.72 323.04 L 392.72 323.87 L 388.09 323.87 L 388.09 323.04 Q 388.65 322.46 389.62 321.48 Q 390.59 320.5 390.84 320.21 Q 391.31 319.68 391.5 319.32 Q 391.69 318.94 391.69 318.59 Q 391.69 318.01 391.28 317.64 Q 390.87 317.27 390.22 317.27 Q 389.75 317.27 389.23 317.44 Q 388.72 317.6 388.14 317.92 L 388.14 316.93 Q 388.73 316.69 389.25 316.57 Q 389.77 316.44 390.2 316.44 Q 391.33 316.44 392 317.01 Q 392.68 317.58 392.68 318.52 Q 392.68 318.97 392.51 319.38 Q 392.34 319.78 391.9 320.33 Q 391.77 320.47 391.12 321.15 Q 390.46 321.82 389.27 323.04 z M 394.79 322.63 L 395.82 322.63 L 395.82 323.87 L 394.79 323.87 L 394.79 322.63 z M 400.07 317.23 Q 399.31 317.23 398.93 317.98 Q 398.55 318.72 398.55 320.23 Q 398.55 321.73 398.93 322.48 Q 399.31 323.23 400.07 323.23 Q 400.84 323.23 401.22 322.48 Q 401.61 321.73 401.61 320.23 Q 401.61 318.72 401.22 317.98 Q 400.84 317.23 400.07 317.23 M 400.07 316.44 Q 401.3 316.44 401.94 317.42 Q 402.59 318.38 402.59 320.23 Q 402.59 322.07 401.94 323.04 Q 401.3 324.01 400.07 324.01 Q 398.85 324.01 398.2 323.04 Q 397.55 322.07 397.55 320.23 Q 397.55 318.38 398.2 317.42 Q 398.85 316.44 400.07 316.44 z M 406.44 317.23 Q 405.67 317.23 405.29 317.98 Q 404.91 318.72 404.91 320.23 Q 404.91 321.73 405.29 322.48 Q 405.67 323.23 406.44 323.23 Q 407.2 323.23 407.58 322.48 Q 407.97 321.73 407.97 320.23 Q 407.97 318.72 407.58 317.98 Q 407.2 317.23 406.44 317.23 M 406.44 316.44 Q 407.66 316.44 408.31 317.42 Q 408.96 318.38 408.96 320.23 Q 408.96 322.07 408.31 323.04 Q 407.66 324.01 406.44 324.01 Q 405.21 324.01 404.56 323.04 Q 403.92 322.07 403.92 320.23 Q 403.92 318.38 404.56 317.42 Q 405.21 316.44 406.44 316.44 z" fill="#000000"/>
</g>
<g id="ytick_1">
<path d="M 57.6 295.49 L 54.1 295.49" fill="none" stroke="#000000" stroke-width="0.8" stroke-linejoin="round"/>
<path d="M 31.51 292.31 Q 30.75 292.31 30.37 293.06 Q 29.98 293.81 29.98 295.31 Q 29.98 296.81 30.37 297.56 Q 30.75 298.31 31.51 298.31 Q 32.28 298.31 32.66 297.56 Q 33.05 296.81 33.05 295.31 Q 33.05 293.81 32.66 293.06 Q 32.28 292.31 31.51 292.31 M 31.51 291.53 Q 32.74 291.53 33.38 292.5 Q 34.03 293.47 34.03 295.31 Q 34.03 297.15 33.38 298.12 Q 32.74 299.09 31.51 299.09 Q 30.29 299.09 29.64 298.12 Q 28.99 297.15 28.99 295.31 Q 28.99 293.47 29.64 292.5 Q 30.29 291.53 31.51 291.53 z M 35.77 297.71 L 36.8 297.71 L 36.8 298.95 L 35.77 298.95 L 35.77 297.71 z M 41.05 292.31 Q 40.29 292.31 39.91 293.06 Q 39.53 293.81 39.53 295.31 Q 39.53 296.81 39.91 297.56 Q 40.29 298.31 41.05 298.31 Q 41.82 298.31 42.2 297.56 Q 42.59 296.81 42.59 295.31 Q 42.59 293.81 42.2 293.06 Q 41.82 292.31 41.05 292.31 M 41.05 291.53 Q 42.28 291.53 42.92 292.5 Q 43.57 293.47 43.57 295.31 Q 43.57 297.15 42.92 298.12 Q 42.28 299.09 41.05 299.09 Q 39.83 299.09 39.18 298.12 Q 38.53 297.15 38.53 295.31 Q 38.53 293.47 39.18 292.5 Q 39.83 291.53 41.05 291.53 z M 47.42 292.31 Q 46.65 292.31 46.27 293.06 Q 45.89 293.81 45.89 295.31 Q 45.89 296.81 46.27 297.56 Q 46.65 298.31 47.42 298.31 Q 48.18 298.31 48.56 297.56 Q 48.95 296.81 48.95 295.31 Q 48.95 293.81 48.56 293.06 Q 48.18 292.31 47.42 292.31 M 47.42 291.53 Q 48.64 291.53 49.29 292.5 Q 49.94 293.47 49.94 295.31 Q 49.94 297.15 49.29 298.12 Q 48.64 299.09 47.42 299.09 Q 46.19 299.09 45.54 298.12 Q 44.9 297.15 44.9 295.31 Q 44.9 293.47 45.54 292.5 Q 46.19 291.53 47.42 291.53 z" fill="#000000"/>
<path d="M 57.6 259.74 L 54.1 259.74" fill="none" stroke="#000000" stroke-width="0.8" stroke-linejoin="round"/>
<path d="M 31.51 256.56 Q 30.75 256.56 30.37 257.31 Q 29.98 258.06 29.98 259.56 Q 29.98 261.06 30.37 261.81 Q 30.75 262.56 31.51 262.56 Q 32.28 262.56 32.66 261.81 Q 33.05 261.06 33.05 259.56 Q 33.05 258.06 32.66 257.31 Q 32.28 256.56 31.51 256.56 M 31.51 255.78 Q 32.74 255.78 33.38 256.75 Q 34.03 257.71 34.03 259.56 Q 34.03 261.4 33.38 262.37 Q 32.74 263.34 31.51 263.34 Q 30.29 263.34 29.64 262.37 Q 28.99 261.4 28.99 259.56 Q 28.99 257.71 29.64 256.75 Q 30.29 255.78 31.51 255.78 z M 35.77 261.96 L 36.8 261.96 L 36.8 263.2 L 35.77 263.2 L 35.77 261.96 z M 41.05 256.56 Q 40.29 256.56 39.91 257.31 Q 39.53 258.06 39.53 259.56 Q 39.53 261.06 39.91 261.81 Q 40.29 262.56 41.05 262.56 Q 41.82 262.56 42.2 261.81 Q 42.59 261.06 42.59 259.56 Q 42.59 258.06 42.2 257.31 Q 41.82 256.56 41.05 256.56 M 41.05 255.78 Q 42.28 255.78 42.92 256.75 Q 43.57 257.71 43.57 259.56 Q 43.57 261.4 42.92 262.37 Q 42.28 263.34 41.05 263.34 Q 39.83 263.34 39.18 262.37 Q 38.53 261.4 38.53 259.56 Q 38.53 257.71 39.18 256.75 Q 39.83 255.78 41.05 255.78 z M 46.16 262.37 L 49.6 262.37 L 49.6 263.2 L 44.97 263.2 L 44.97 262.37 Q 45.53 261.79 46.5 260.81 Q 47.47 259.83 47.72 259.55 Q 48.19 259.01 48.38 258.65 Q 48.57 258.28 48.57 257.92 Q 48.57 257.34 48.16 256.97 Q 47.75 256.61 47.1 256.61 Q 46.64 256.61 46.12 256.77 Q 45.6 256.93 45.02 257.26 L 45.02 256.26 Q 45.61 256.02 46.13 255.9 Q 46.65 255.78 47.08 255.78 Q 48.21 255.78 48.89 256.34 Q 49.56 256.91 49.56 257.86 Q 49.56 258.31 49.39 258.71 Q 49.22 259.11 48.78 259.66 Q 48.66 259.8 48 260.48 Q 47.35 261.15 46.16 262.37 z" fill="#000000"/>
<path d="M 57.6 223.98 L 54.1 223.98" fill="none" stroke="#000000" stroke-width="0.8" stroke-linejoin="round"/>
<path d="M 31.51 220.81 Q 30.75 220.81 30.37 221.56 Q 29.98 222.3 29.98 223.81 Q 29.98 225.31 30.37 226.06 Q 30.75 226.81 31.51 226.81 Q 32.28 226.81 32.66 226.06 Q 33.05 225.31 33.05 223.81 Q 33.05 222.3 32.66 221.56 Q 32.28 220.81 31.51 220.81 M 31.51 220.02 Q 32.74 220.02 33.38 221 Q 34.03 221.96 34.03 223.81 Q 34.03 225.65 33.38 226.62 Q 32.74 227.59 31.51 227.59 Q 30.29 227.59 29.64 226.62 Q 28.99 225.65 28.99 223.81 Q 28.99 221.96 29.64 221 Q 30.29 220.02 31.51 220.02 z M 35.77 226.21 L 36.8 226.21 L 36.8 227.45 L 35.77 227.45 L 35.77 226.21 z M 41.05 220.81 Q 40.29 220.81 39.91 221.56 Q 39.53 222.3 39.53 223.81 Q 39.53 225.31 39.91 226.06 Q 40.29 226.81 41.05 226.81 Q 41.82 226.81 42.2 226.06 Q 42.59 225.31 42.59 223.81 Q 42.59 222.3 42.2 221.56 Q 41.82 220.81 41.05 220.81 M 41.05 220.02 Q 42.28 220.02 42.92 221 Q 43.57 221.96 43.57 223.81 Q 43.57 225.65 42.92 226.62 Q 42.28 227.59 41.05 227.59 Q 39.83 227.59 39.18 226.62 Q 38.53 225.65 38.53 223.81 Q 38.53 221.96 39.18 221 Q 39.83 220.02 41.05 220.02 z M 48.02 221.02 L 45.53 224.91 L 48.02 224.91 L 48.02 221.02 M 47.76 220.16 L 49 220.16 L 49 224.91 L 50.04 224.91 L 50.04 225.73 L 49 225.73 L 49 227.45 L 48.02 227.45 L 48.02 225.73 L 44.73 225.73 L 44.73 224.77 L 47.76 220.16 z" fill="#000000"/>
<path d="M 57.6 188.23 L 54.1 188.23" fill="none" stroke="#000000" stroke-width="0.8" stroke-linejoin="round"/>
<path d="M 31.51 185.05 Q 30.75 185.05 30.37 185.8 Q 29.98 186.55 29.98 188.06 Q 29.98 189.55 30.37 190.31 Q 30.75 191.05 31.51 191.05 Q 32.28 191.05 32.66 190.31 Q 33.05 189.55 33.05 188.06 Q 33.05 186.55 32.66 185.8 Q 32.28 185.05 31.51 185.05 M 31.51 184.27 Q 32.74 184.27 33.38 185.24 Q 34.03 186.21 34.03 188.06 Q 34.03 189.9 33.38 190.87 Q 32.74 191.84 31.51 191.84 Q 30.29 191.84 29.64 190.87 Q 28.99 189.9 28.99 188.06 Q 28.99 186.21 29.64 185.24 Q 30.29 184.27 31.51 184.27 z M 35.77 190.45 L 36.8 190.45 L 36.8 191.69 L 35.77 191.69 L 35.77 190.45 z M 41.05 185.05 Q 40.29 185.05 39.91 185.8 Q 39.53 186.55 39.53 188.06 Q 39.53 189.55 39.91 190.31 Q 40.29 191.05 41.05 191.05 Q 41.82 191.05 42.2 190.31 Q 42.59 189.55 42.59 188.06 Q 42.59 186.55 42.2 185.8 Q 41.82 185.05 41.05 185.05 M 41.05 184.27 Q 42.28 184.27 42.92 185.24 Q 43.57 186.21 43.57 188.06 Q 43.57 189.9 42.92 190.87 Q 42.28 191.84 41.05 191.84 Q 39.83 191.84 39.18 190.87 Q 38.53 189.9 38.53 188.06 Q 38.53 186.21 39.18 185.24 Q 39.83 184.27 41.05 184.27 z M 47.54 187.66 Q 46.87 187.66 46.48 188.11 Q 46.1 188.56 46.1 189.35 Q 46.1 190.14 46.48 190.6 Q 46.87 191.05 47.54 191.05 Q 48.2 191.05 48.59 190.6 Q 48.98 190.14 48.98 189.35 Q 48.98 188.56 48.59 188.11 Q 48.2 187.66 47.54 187.66 M 49.5 184.56 L 49.5 185.46 Q 49.13 185.29 48.74 185.19 Q 48.37 185.1 48 185.1 Q 47.02 185.1 46.5 185.76 Q 45.99 186.42 45.92 187.75 Q 46.21 187.33 46.64 187.1 Q 47.07 186.87 47.6 186.87 Q 48.7 186.87 49.33 187.54 Q 49.97 188.21 49.97 189.35 Q 49.97 190.48 49.31 191.16 Q 48.64 191.84 47.54 191.84 Q 46.27 191.84 45.6 190.87 Q 44.94 189.9 44.94 188.06 Q 44.94 186.33 45.76 185.3 Q 46.58 184.27 47.96 184.27 Q 48.33 184.27 48.71 184.34 Q 49.09 184.42 49.5 184.56 z" fill="#000000"/>
<path d="M 57.6 152.48 L 54.1 152.48" fill="none" stroke="#000000" stroke-width="0.8" stroke-linejoin="round"/>
<path d="M 31.51 149.3 Q 30.75 149.3 30.37 150.05 Q 29.98 150.8 29.98 152.3 Q 29.98 153.8 30.37 154.55 Q 30.75 155.3 31.51 155.3 Q 32.28 155.3 32.66 154.55 Q 33.05 153.8 33.05 152.3 Q 33.05 150.8 32.66 150.05 Q 32.28 149.3 31.51 149.3 M 31.51 148.52 Q 32.74 148.52 33.38 149.49 Q 34.03 150.46 34.03 152.3 Q 34.03 154.14 33.38 155.12 Q 32.74 156.08 31.51 156.08 Q 30.29 156.08 29.64 155.12 Q 28.99 154.14 28.99 152.3 Q 28.99 150.46 29.64 149.49 Q 30.29 148.52 31.51 148.52 z M 35.77 154.7 L 36.8 154.7 L 36.8 155.94 L 35.77 155.94 L 35.77 154.7 z M 41.05 149.3 Q 40.29 149.3 39.91 150.05 Q 39.53 150.8 39.53 152.3 Q 39.53 153.8 39.91 154.55 Q 40.29 155.3 41.05 155.3 Q 41.82 155.3 42.2 154.55 Q 42.59 153.8 42.59 152.3 Q 42.59 150.8 42.2 150.05 Q 41.82 149.3 41.05 149.3 M 41.05 148.52 Q 42.28 148.52 42.92 149.49 Q 43.57 150.46 43.57 152.3 Q 43.57 154.14 42.92 155.12 Q 42.28 156.08 41.05 156.08 Q 39.83 156.08 39.18 155.12 Q 38.53 154.14 38.53 152.3 Q 38.53 150.46 39.18 149.49 Q 39.83 148.52 41.05 148.52 z M 47.42 152.48 Q 46.71 152.48 46.31 152.86 Q 45.91 153.23 45.91 153.89 Q 45.91 154.55 46.31 154.93 Q 46.71 155.3 47.42 155.3 Q 48.12 155.3 48.52 154.93 Q 48.93 154.54 48.93 153.89 Q 48.93 153.23 48.52 152.86 Q 48.12 152.48 47.42 152.48 M 46.43 152.06 Q 45.8 151.9 45.44 151.47 Q 45.09 151.03 45.09 150.41 Q 45.09 149.54 45.71 149.03 Q 46.33 148.52 47.42 148.52 Q 48.51 148.52 49.13 149.03 Q 49.75 149.54 49.75 150.41 Q 49.75 151.03 49.39 151.47 Q 49.04 151.9 48.41 152.06 Q 49.12 152.23 49.52 152.71 Q 49.92 153.19 49.92 153.89 Q 49.92 154.95 49.27 155.52 Q 48.62 156.08 47.42 156.08 Q 46.21 156.08 45.56 155.52 Q 44.92 154.95 44.92 153.89 Q 44.92 153.19 45.32 152.71 Q 45.72 152.23 46.43 152.06 M 46.07 150.5 Q 46.07 151.07 46.42 151.39 Q 46.78 151.7 47.42 151.7 Q 48.05 151.7 48.41 151.39 Q 48.77 151.07 48.77 150.5 Q 48.77 149.94 48.41 149.62 Q 48.05 149.3 47.42 149.3 Q 46.78 149.3 46.42 149.62 Q 46.07 149.94 46.07 150.5 z" fill="#000000"/>
<path d="M 57.6 116.73 L 54.1 116.73" fill="none" stroke="#000000" stroke-width="0.8" stroke-linejoin="round"/>
<path d="M 31.51 113.55 Q 30.75 113.55 30.37 114.3 Q 29.98 115.05 29.98 116.55 Q 29.98 118.05 30.37 118.8 Q 30.75 119.55 31.51 119.55 Q 32.28 119.55 32.66 118.8 Q 33.05 118.05 33.05 116.55 Q 33.05 115.05 32.66 114.3 Q 32.28 113.55 31.51 113.55 M 31.51 112.77 Q 32.74 112.77 33.38 113.74 Q 34.03 114.71 34.03 116.55 Q 34.03 118.39 33.38 119.36 Q 32.74 120.33 31.51 120.33 Q 30.29 120.33 29.64 119.36 Q 28.99 118.39 28.99 116.55 Q 28.99 114.71 29.64 113.74 Q 30.29 112.77 31.51 112.77 z M 35.77 118.95 L 36.8 118.95 L 36.8 120.19 L 35.77 120.19 L 35.77 118.95 z M 39.12 119.36 L 40.73 119.36 L 40.73 113.8 L 38.97 114.15 L 38.97 113.25 L 40.72 112.9 L 41.7 112.9 L 41.7 119.36 L 43.31 119.36 L 43.31 120.19 L 39.12 120.19 L 39.12 119.36 z M 47.42 113.55 Q 46.65 113.55 46.27 114.3 Q 45.89 115.05 45.89 116.55 Q 45.89 118.05 46.27 118.8 Q 46.65 119.55 47.42 119.55 Q 48.18 119.55 48.56 118.8 Q 48.95 118.05 48.95 116.55 Q 48.95 115.05 48.56 114.3 Q 48.18 113.55 47.42 113.55 M 47.42 112.77 Q 48.64 112.77 49.29 113.74 Q 49.94 114.71 49.94 116.55 Q 49.94 118.39 49.29 119.36 Q 48.64 120.33 47.42 120.33 Q 46.19 120.33 45.54 119.36 Q 44.9 118.39 44.9 116.55 Q 44.9 114.71 45.54 113.74 Q 46.19 112.77 47.42 112.77 z" fill="#000000"/>
<path d="M 57.6 80.98 L 54.1 80.98" fill="none" stroke="#000000" stroke-width="0.8" stroke-linejoin="round"/>
<path d="M 31.51 77.8 Q 30.75 77.8 30.37 78.55 Q 29.98 79.3 29.98 80.8 Q 29.98 82.3 30.37 83.05 Q 30.75 83.8 31.51 83.8 Q 32.28 83.8 32.66 83.05 Q 33.05 82.3 33.05 80.8 Q 33.05 79.3 32.66 78.55 Q 32.28 77.8 31.51 77.8 M 31.51 77.02 Q 32.74 77.02 33.38 77.99 Q 34.03 78.95 34.03 80.8 Q 34.03 82.64 33.38 83.61 Q 32.74 84.58 31.51 84.58 Q 30.29 84.58 29.64 83.61 Q 28.99 82.64 28.99 80.8 Q 28.99 78.95 29.64 77.99 Q 30.29 77.02 31.51 77.02 z M 35.77 83.2 L 36.8 83.2 L 36.8 84.44 L 35.77 84.44 L 35.77 83.2 z M 39.12 83.61 L 40.73 83.61 L 40.73 78.05 L 38.97 78.4 L 38.97 77.5 L 40.72 77.15 L 41.7 77.15 L 41.7 83.61 L 43.31 83.61 L 43.31 84.44 L 39.12 84.44 L 39.12 83.61 z M 46.16 83.61 L 49.6 83.61 L 49.6 84.44 L 44.97 84.44 L 44.97 83.61 Q 45.53 83.03 46.5 82.05 Q 47.47 81.07 47.72 80.78 Q 48.19 80.25 48.38 79.89 Q 48.57 79.52 48.57 79.16 Q 48.57 78.58 48.16 78.21 Q 47.75 77.85 47.1 77.85 Q 46.64 77.85 46.12 78.01 Q 45.6 78.17 45.02 78.49 L 45.02 77.5 Q 45.61 77.26 46.13 77.14 Q 46.65 77.02 47.08 77.02 Q 48.21 77.02 48.89 77.58 Q 49.56 78.15 49.56 79.1 Q 49.56 79.54 49.39 79.95 Q 49.22 80.35 48.78 80.9 Q 48.66 81.04 48 81.72 Q 47.35 82.39 46.16 83.61 z" fill="#000000"/>
<path d="M 57.6 45.22 L 54.1 45.22" fill="none" stroke="#000000" stroke-width="0.8" stroke-linejoin="round"/>
<path d="M 31.51 42.04 Q 30.75 42.04 30.37 42.8 Q 29.98 43.54 29.98 45.05 Q 29.98 46.55 30.37 47.3 Q 30.75 48.05 31.51 48.05 Q 32.28 48.05 32.66 47.3 Q 33.05 46.55 33.05 45.05 Q 33.05 43.54 32.66 42.8 Q 32.28 42.04 31.51 42.04 M 31.51 41.26 Q 32.74 41.26 33.38 42.23 Q 34.03 43.2 34.03 45.05 Q 34.03 46.89 33.38 47.86 Q 32.74 48.83 31.51 48.83 Q 30.29 48.83 29.64 47.86 Q 28.99 46.89 28.99 45.05 Q 28.99 43.2 29.64 42.23 Q 30.29 41.26 31.51 41.26 z M 35.77 47.44 L 36.8 47.44 L 36.8 48.69 L 35.77 48.69 L 35.77 47.44 z M 39.12 47.86 L 40.73 47.86 L 40.73 42.29 L 38.97 42.65 L 38.97 41.75 L 40.72 41.4 L 41.7 41.4 L 41.7 47.86 L 43.31 47.86 L 43.31 48.69 L 39.12 48.69 L 39.12 47.86 z M 48.02 42.25 L 45.53 46.15 L 48.02 46.15 L 48.02 42.25 M 47.76 41.4 L 49 41.4 L 49 46.15 L 50.04 46.15 L 50.04 46.97 L 49 46.97 L 49 48.69 L 48.02 48.69 L 48.02 46.97 L 44.73 46.97 L 44.73 46.01 L 47.76 41.4 z" fill="#000000"/>
</g>
<g id="legend_1">
<path d="M 341.28 66.11 L 409.72 66.11 L 409.72 46.47 L 341.28 46.47 z" fill="#ffffff" fill-opacity="0.8" stroke="#cccccc" stroke-width="1" stroke-linejoin="round"/>
<path d="M 345.28 56.29 L 365.28 56.29" fill="none" stroke="#1f77b4" stroke-width="2" stroke-linecap="square" stroke-linejoin="round"/>
<path d="M 379.28 54.29 L 376.77 56.97 L 378.31 59.75 L 377.28 59.75 L 376.12 57.59 L 374.11 59.75 L 373.02 59.75 L 375.71 56.87 L 374.28 54.29 L 375.31 54.29 L 376.36 56.26 L 378.19 54.29 L 379.28 54.29 z M 380.98 55.27 L 383.39 55.27 L 383.39 55.85 L 380.15 55.85 L 380.15 55.27 Q 380.54 54.86 381.22 54.18 Q 381.9 53.49 382.07 53.29 Q 382.4 52.92 382.53 52.66 Q 382.67 52.4 382.67 52.15 Q 382.67 51.75 382.38 51.49 Q 382.1 51.24 381.64 51.24 Q 381.31 51.24 380.95 51.35 Q 380.59 51.46 380.18 51.69 L 380.18 50.99 Q 380.6 50.83 380.96 50.74 Q 381.32 50.65 381.63 50.65 Q 382.42 50.65 382.89 51.05 Q 383.36 51.45 383.36 52.11 Q 383.36 52.42 383.24 52.71 Q 383.13 52.99 382.81 53.37 Q 382.73 53.47 382.27 53.95 Q 381.81 54.42 380.98 55.27 z M 389.18 56.53 Q 389.19 56.45 389.2 56.37 Q 389.21 56.29 389.21 56.2 Q 389.21 55.61 388.86 55.26 Q 388.51 54.92 387.91 54.92 Q 387.24 54.92 386.73 55.34 Q 386.21 55.76 385.95 56.54 L 389.18 56.53 M 389.96 57.23 L 385.78 57.23 Q 385.75 57.42 385.74 57.53 Q 385.73 57.64 385.73 57.71 Q 385.73 58.39 386.15 58.76 Q 386.57 59.13 387.33 59.13 Q 387.91 59.13 388.44 59 Q 388.96 58.87 389.41 58.62 L 389.24 59.51 Q 388.75 59.7 388.24 59.8 Q 387.72 59.9 387.19 59.9 Q 386.05 59.9 385.44 59.35 Q 384.83 58.81 384.83 57.81 Q 384.83 56.95 385.13 56.22 Q 385.44 55.48 386.03 54.91 Q 386.41 54.54 386.93 54.35 Q 387.46 54.15 388.05 54.15 Q 388.98 54.15 389.52 54.71 Q 390.08 55.27 390.08 56.2 Q 390.08 56.43 390.05 56.69 Q 390.02 56.94 389.96 57.23 z M 391.72 53.36 L 396.1 53.36 L 396.1 53.95 L 391.72 53.95 L 391.72 53.36 z M 398.19 55.27 L 400.6 55.27 L 400.6 55.85 L 397.36 55.85 L 397.36 55.27 Q 397.75 54.86 398.43 54.18 Q 399.11 53.49 399.28 53.29 Q 399.61 52.92 399.74 52.66 Q 399.88 52.4 399.88 52.15 Q 399.88 51.75 399.59 51.49 Q 399.31 51.24 398.85 51.24 Q 398.52 51.24 398.16 51.35 Q 397.8 51.46 397.39 51.69 L 397.39 50.99 Q 397.81 50.83 398.17 50.74 Q 398.53 50.65 398.83 50.65 Q 399.63 50.65 400.1 51.05 Q 400.57 51.45 400.57 52.11 Q 400.57 52.42 400.45 52.71 Q 400.33 52.99 400.02 53.37 Q 399.94 53.47 399.48 53.95 Q 399.02 54.42 398.19 55.27 z M 405.5 52.02 L 403.74 53.9 L 404.82 55.85 L 404.1 55.85 L 403.29 54.33 L 401.88 55.85 L 401.12 55.85 L 403 53.83 L 402 52.02 L 402.72 52.02 L 403.46 53.41 L 404.74 52.02 L 405.5 52.02 z" fill="#000000"/>
</g>
<g id="text_3">
<path d="M 239.2 334.04 L 236.69 336.72 L 238.23 339.51 L 237.2 339.51 L 236.04 337.34 L 234.03 339.51 L 232.94 339.51 L 235.63 336.63 L 234.2 334.04 L 235.23 334.04 L 236.28 336.02 L 238.11 334.04 L 239.2 334.04 z" fill="#000000"/>
</g>
<g id="text_4">
<path d="M 14.38 178.37 L 15.13 178.51 L 15.13 179.37 Q 15.13 179.86 15.32 180.08 Q 15.51 180.3 16.02 180.41 L 16.51 180.51 L 16.51 179.03 L 17.21 179.16 L 17.21 180.64 L 21.98 181.57 L 21.98 182.47 L 17.21 181.54 L 17.21 182.4 L 16.51 182.27 L 16.51 181.41 L 16.13 181.34 Q 15.16 181.15 14.77 180.69 Q 14.38 180.22 14.38 179.22 L 14.38 178.37 z M 14.39 176.53 Q 15.51 177.18 16.61 177.5 Q 17.71 177.82 18.84 177.82 Q 19.96 177.82 21.07 177.5 Q 22.18 177.18 23.29 176.53 L 23.29 177.31 Q 22.15 178.04 21.04 178.41 Q 19.93 178.77 18.84 178.77 Q 17.75 178.77 16.64 178.41 Q 15.54 178.05 14.39 177.31 L 14.39 176.53 z M 16.51 169.73 L 19.19 172.24 L 21.98 170.7 L 21.98 171.73 L 19.81 172.88 L 21.98 174.9 L 21.98 175.99 L 19.1 173.3 L 16.51 174.73 L 16.51 173.7 L 18.48 172.65 L 16.51 170.81 L 16.51 169.73 z M 14.39 169.01 L 14.39 168.23 Q 15.54 167.49 16.64 167.13 Q 17.75 166.77 18.84 166.77 Q 19.93 166.77 21.04 167.13 Q 22.15 167.49 23.29 168.23 L 23.29 169.01 Q 22.18 168.36 21.07 168.04 Q 19.96 167.72 18.84 167.72 Q 17.71 167.72 16.61 168.04 Q 15.51 168.36 14.39 169.01 z" fill="#000000"/>
</g>
<g id="text_5">
<path d="M 204.72 23.52 L 204.55 24.42 L 203.52 24.42 Q 202.93 24.42 202.66 24.66 Q 202.4 24.88 202.27 25.5 L 202.15 26.08 L 203.93 26.08 L 203.77 26.92 L 202 26.92 L 200.88 32.64 L 199.8 32.64 L 200.92 26.92 L 199.89 26.92 L 200.04 26.08 L 201.07 26.08 L 201.16 25.62 Q 201.38 24.46 201.94 23.99 Q 202.5 23.52 203.7 23.52 L 204.72 23.52 z M 206.93 23.54 Q 206.14 24.88 205.76 26.2 Q 205.38 27.52 205.38 28.87 Q 205.38 30.23 205.76 31.56 Q 206.15 32.88 206.93 34.22 L 205.99 34.22 Q 205.11 32.85 204.67 31.52 Q 204.24 30.19 204.24 28.87 Q 204.24 27.57 204.67 26.24 Q 205.11 24.92 205.99 23.54 L 206.93 23.54 z M 215.09 26.08 L 212.08 29.3 L 213.93 32.64 L 212.69 32.64 L 211.3 30.04 L 208.89 32.64 L 207.58 32.64 L 210.81 29.18 L 209.09 26.08 L 210.33 26.08 L 211.59 28.45 L 213.79 26.08 L 215.09 26.08 z M 215.95 23.54 L 216.89 23.54 Q 217.77 24.92 218.2 26.24 Q 218.64 27.57 218.64 28.87 Q 218.64 30.19 218.2 31.52 Q 217.77 32.85 216.89 34.22 L 215.95 34.22 Q 216.73 32.88 217.11 31.56 Q 217.5 30.23 217.5 28.87 Q 217.5 27.52 217.11 26.2 Q 216.73 24.88 215.95 23.54 z M 223.28 27.19 L 230.8 27.19 L 230.8 28.18 L 223.28 28.18 L 223.28 27.19 M 223.28 29.58 L 230.8 29.58 L 230.8 30.58 L 223.28 30.58 L 223.28 29.58 z M 241.61 26.08 L 238.59 29.3 L 240.44 32.64 L 239.2 32.64 L 237.81 30.04 L 235.4 32.64 L 234.09 32.64 L 237.32 29.18 L 235.61 26.08 L 236.84 26.08 L 238.1 28.45 L 240.3 26.08 L 241.61 26.08 z M 243.65 27.26 L 246.54 27.26 L 246.54 27.96 L 242.65 27.96 L 242.65 27.26 Q 243.12 26.77 243.93 25.95 Q 244.75 25.13 244.96 24.89 Q 245.36 24.44 245.51 24.13 Q 245.67 23.82 245.67 23.52 Q 245.67 23.03 245.33 22.73 Q 244.99 22.42 244.44 22.42 Q 244.05 22.42 243.61 22.55 Q 243.18 22.69 242.69 22.96 L 242.69 22.13 Q 243.19 21.93 243.63 21.82 Q 244.06 21.72 244.42 21.72 Q 245.37 21.72 245.94 22.2 Q 246.51 22.67 246.51 23.47 Q 246.51 23.85 246.36 24.19 Q 246.22 24.52 245.85 24.98 Q 245.75 25.1 245.2 25.67 Q 244.65 26.24 243.65 27.26 z M 253.49 28.77 Q 253.5 28.68 253.51 28.58 Q 253.52 28.48 253.52 28.38 Q 253.52 27.67 253.1 27.25 Q 252.68 26.84 251.96 26.84 Q 251.16 26.84 250.54 27.35 Q 249.93 27.85 249.61 28.78 L 253.49 28.77 M 254.42 29.62 L 249.41 29.62 Q 249.37 29.84 249.36 29.97 Q 249.35 30.1 249.35 30.19 Q 249.35 31.01 249.85 31.45 Q 250.35 31.9 251.26 31.9 Q 251.97 31.9 252.59 31.74 Q 253.22 31.58 253.76 31.28 L 253.56 32.34 Q 252.98 32.58 252.35 32.69 Q 251.74 32.81 251.1 32.81 Q 249.74 32.81 249 32.16 Q 248.26 31.51 248.26 30.3 Q 248.26 29.28 248.63 28.4 Q 249 27.51 249.71 26.82 Q 250.16 26.39 250.79 26.16 Q 251.42 25.92 252.13 25.92 Q 253.24 25.92 253.9 26.59 Q 254.56 27.26 254.56 28.38 Q 254.56 28.65 254.53 28.96 Q 254.49 29.27 254.42 29.62 z M 256.54 24.97 L 261.8 24.97 L 261.8 25.67 L 256.54 25.67 L 256.54 24.97 z M 264.3 27.26 L 267.19 27.26 L 267.19 27.96 L 263.3 27.96 L 263.3 27.26 Q 263.77 26.77 264.58 25.95 Q 265.4 25.13 265.61 24.89 Q 266.01 24.44 266.16 24.13 Q 266.32 23.82 266.32 23.52 Q 266.32 23.03 265.98 22.73 Q 265.64 22.42 265.09 22.42 Q 264.7 22.42 264.26 22.55 Q 263.83 22.69 263.34 22.96 L 263.34 22.13 Q 263.84 21.93 264.28 21.82 Q 264.71 21.72 265.07 21.72 Q 266.02 21.72 266.59 22.2 Q 267.16 22.67 267.16 23.47 Q 267.16 23.85 267.01 24.19 Q 266.87 24.52 266.5 24.98 Q 266.4 25.1 265.85 25.67 Q 265.3 26.24 264.3 27.26 z M 273.07 23.36 L 270.96 25.61 L 272.25 27.96 L 271.39 27.96 L 270.42 26.14 L 268.73 27.96 L 267.81 27.96 L 270.07 25.54 L 268.87 23.36 L 269.74 23.36 L 270.62 25.02 L 272.16 23.36 L 273.07 23.36 z" fill="#000000"/>
</g>
</g>
</g>
</svg>
