<?xml version="1.0" encoding="utf-8" standalone="no"?>
<!DOCTYPE svg PUBLIC "-//W3C//DTD SVG 1.1//EN" "http://www.w3.org/Graphics/SVG/1.1/DTD/svg11.dtd">
<svg xmlns="http://www.w3.org/2000/svg" width="576pt" height="259.2pt" viewBox="0 0 576 259.2" version="1.1">
<defs>
<clipPath id="p1"><rect x="57.72" y="30.77" width="219.48" height="183.35"/></clipPath>
<clipPath id="p2"><rect x="337.34" y="30.77" width="227.86" height="183.35"/></clipPath>
<path id="m1" d="M 0 1.5 C 0.4 1.5 0.78 1.34 1.06 1.06 C 1.34 0.78 1.5 0.4 1.5 0 C 1.5 -0.4 1.34 -0.78 1.06 -1.06 C 0.78 -1.34 0.4 -1.5 0 -1.5 C -0.4 -1.5 -0.78 -1.34 -1.06 -1.06 C -1.34 -0.78 -1.5 -0.4 -1.5 0 C -1.5 0.4 -1.34 0.78 -1.06 1.06 C -0.78 1.34 -0.4 1.5 0 1.5 z"/>
</defs>
<g id="figure_1">
<path d="M 0 259.2 L 576 259.2 L 576 0 L 0 0 z" fill="#ffffff"/>
<g id="axes_1">
<path d="M 57.72 214.12 L 277.2 214.12 L 277.2 30.77 L 57.72 30.77 z" fill="#ffffff"/>
<g id="line2d_1">
<path clip-path="url(#p1)" d="M 67.7 155.44 L 68.37 139.79 L 69.03 125.44 L 69.7 112.82 L 70.37 102.08 L 71.04 93.1 L 71.7 85.49 L 72.37 78.76 L 73.04 72.43 L 73.7 66.16 L 74.37 59.85 L 75.04 53.69 L 75.71 48.07 L 76.37 43.49 L 77.04 40.41 L 77.71 39.1 L 78.38 39.59 L 79.04 41.61 L 79.71 44.69 L 80.38 48.26 L 81.05 51.81 L 81.71 55.01 L 82.38 57.8 L 83.05 60.38 L 83.71 63.16 L 84.38 66.62 L 85.05 71.14 L 85.72 76.93 L 86.38 83.91 L 87.05 91.74 L 87.72 99.91 L 88.39 107.84 L 89.05 115.05 L 89.72 121.3 L 90.39 126.59 L 91.05 131.2 L 91.72 135.57 L 92.39 140.2 L 93.06 145.45 L 93.72 151.48 L 94.39 158.15 L 95.06 165.11 L 95.73 171.84 L 96.39 177.79 L 97.06 182.57 L 97.73 186.02 L 98.4 188.26 L 99.06 189.64 L 99.73 190.69 L 100.4 191.88 L 101.06 193.58 L 101.73 195.91 L 102.4 198.7 L 103.07 201.57 L 103.73 203.99 L 104.4 205.51 L 105.07 205.78 L 105.74 204.76 L 106.4 202.66 L 107.07 199.91 L 107.74 197.05 L 108.4 194.57 L 109.07 192.8 L 109.74 191.8 L 110.41 191.35 L 111.07 191.04 L 111.74 190.37 L 112.41 188.89 L 113.08 186.35 L 113.74 182.77 L 114.41 178.44 L 115.08 173.82 L 115.75 169.48 L 116.41 165.87 L 117.08 163.24 L 117.75 161.58 L 118.41 160.62 L 119.08 159.9 L 119.75 158.9 L 120.42 157.22 L 121.08 154.67 L 121.75 151.31 L 122.42 147.49 L 123.09 143.71 L 123.75 140.49 L 124.42 138.23 L 125.09 137.11 L 125.75 137.04 L 126.42 137.66 L 127.09 138.48 L 127.76 138.99 L 128.42 138.8 L 129.09 137.78 L 129.76 136.07 L 130.43 134.03 L 131.09 132.18 L 131.76 131.01 L 132.43 130.86 L 133.1 131.84 L 133.76 133.75 L 134.43 136.2 L 135.1 138.65 L 135.76 140.6 L 136.43 141.74 L 137.1 141.97 L 137.77 141.49 L 138.43 140.73 L 139.1 140.2 L 139.77 140.35 L 140.44 141.47 L 141.1 143.59 L 141.77 146.46 L 142.44 149.61 L 143.1 152.53 L 143.77 154.73 L 144.44 155.96 L 145.11 156.21 L 145.77 155.75 L 146.44 155.02 L 147.11 154.55 L 147.78 154.77 L 148.44 155.91 L 149.11 157.93 L 149.78 160.51 L 150.45 163.17 L 151.11 165.39 L 151.78 166.75 L 152.45 167.05 L 153.11 166.37 L 153.78 165.03 L 154.45 163.54 L 155.12 162.39 L 155.78 162 L 156.45 162.53 L 157.12 163.86 L 157.79 165.64 L 158.45 167.37 L 159.12 168.55 L 159.79 168.8 L 160.45 168 L 161.12 166.3 L 161.79 164.1 L 162.46 161.9 L 163.12 160.21 L 163.79 159.38 L 164.46 159.5 L 165.13 160.41 L 165.79 161.69 L 166.46 162.82 L 167.13 163.34 L 167.8 162.93 L 168.46 161.54 L 169.13 159.38 L 169.8 156.89 L 170.46 154.59 L 171.13 152.97 L 171.8 152.3 L 172.47 152.63 L 173.13 153.69 L 173.8 155.04 L 174.47 156.17 L 175.14 156.61 L 175.8 156.12 L 176.47 154.72 L 177.14 152.68 L 177.8 150.48 L 178.47 148.63 L 179.14 147.58 L 179.81 147.54 L 180.47 148.47 L 181.14 150.05 L 181.81 151.8 L 182.48 153.21 L 183.14 153.85 L 183.81 153.54 L 184.48 152.37 L 185.15 150.66 L 185.81 148.92 L 186.48 147.66 L 187.15 147.26 L 187.81 147.88 L 188.48 149.38 L 189.15 151.42 L 189.82 153.47 L 190.48 155.03 L 191.15 155.74 L 191.82 155.46 L 192.49 154.36 L 193.15 152.83 L 193.82 151.37 L 194.49 150.48 L 195.15 150.49 L 195.82 151.49 L 196.49 153.28 L 197.16 155.44 L 197.82 157.46 L 198.49 158.85 L 199.16 159.3 L 199.83 158.77 L 200.49 157.47 L 201.16 155.83 L 201.83 154.39 L 202.5 153.6 L 203.16 153.75 L 203.83 154.84 L 204.5 156.62 L 205.16 158.63 L 205.83 160.35 L 206.5 161.33 L 207.17 161.32 L 207.83 160.35 L 208.5 158.7 L 209.17 156.86 L 209.84 155.33 L 210.5 154.55 L 211.17 154.73 L 211.84 155.82 L 212.5 157.49 L 213.17 159.27 L 213.84 160.64 L 214.51 161.18 L 215.17 160.73 L 215.84 159.37 L 216.51 157.45 L 217.18 155.48 L 217.84 153.97 L 218.51 153.29 L 219.18 153.61 L 219.84 154.78 L 220.51 156.43 L 221.18 158.07 L 221.85 159.19 L 222.51 159.42 L 223.18 158.67 L 223.85 157.1 L 224.52 155.1 L 225.18 153.2 L 225.85 151.88 L 226.52 151.48 L 227.19 152.07 L 227.85 153.45 L 228.52 155.21 L 229.19 156.82 L 229.85 157.8 L 230.52 157.86 L 231.19 156.95 L 231.86 155.32 L 232.52 153.39 L 233.19 151.7 L 233.86 150.7 L 234.53 150.67 L 235.19 151.6 L 235.86 153.24 L 236.53 155.12 L 237.19 156.72 L 237.86 157.59 L 238.53 157.51 L 239.2 156.49 L 239.86 154.83 L 240.53 153.02 L 241.2 151.56 L 241.87 150.89 L 242.53 151.21 L 243.2 152.44 L 243.87 154.27 L 244.54 156.19 L 245.2 157.71 L 245.87 158.41 L 246.54 158.11 L 247.2 156.94 L 247.87 155.23 L 248.54 153.49 L 249.21 152.23 L 249.87 151.82 L 250.54 152.4 L 251.21 153.83 L 251.88 155.73 L 252.54 157.59 L 253.21 158.91 L 253.88 159.34 L 254.54 158.77 L 255.21 157.38 L 255.88 155.58 L 256.55 153.88 L 257.21 152.76 L 257.88 152.56 L 258.55 153.34 L 259.22 154.88 L 259.88 156.76 L 260.55 158.47 L 261.22 159.53 L 261.89 159.64 L 262.55 158.77 L 263.22 157.17 L 263.89 155.29 L 264.55 153.64 L 265.22 152.68 L 265.89 152.68 L 266.56 153.63 L 267.22 155.25" fill="none" stroke="#1f77b4" stroke-width="1" stroke-linecap="square" stroke-linejoin="round"/>
</g>
<g id="line2d_2">
<path clip-path="url(#p1)" d="M 67.7 155.44 L 68.37 141.59 L 69.03 128.56 L 69.7 116.37 L 70.37 105.07 L 71.04 94.69 L 71.7 85.25 L 72.37 76.75 L 73.04 69.21 L 73.7 62.63 L 74.37 57 L 75.04 52.32 L 75.71 48.56 L 76.37 45.7 L 77.04 43.72 L 77.71 42.6 L 78.38 42.29 L 79.04 42.75 L 79.71 43.96 L 80.38 45.86 L 81.05 48.41 L 81.71 51.56 L 82.38 55.27 L 83.05 59.47 L 83.71 64.13 L 84.38 69.19 L 85.05 74.6 L 85.72 80.31 L 86.38 86.26 L 87.05 92.41 L 87.72 98.71 L 88.39 105.1 L 89.05 111.55 L 89.72 118 L 90.39 124.43 L 91.05 130.77 L 91.72 137 L 92.39 143.09 L 93.06 148.99 L 93.72 154.67 L 94.39 160.12 L 95.06 165.3 L 95.73 170.18 L 96.39 174.77 L 97.06 179.02 L 97.73 182.94 L 98.4 186.5 L 99.06 189.71 L 99.73 192.55 L 100.4 195.02 L 101.06 197.13 L 101.73 198.86 L 102.4 200.24 L 103.07 201.26 L 103.73 201.93 L 104.4 202.26 L 105.07 202.26 L 105.74 201.95 L 106.4 201.35 L 107.07 200.46 L 107.74 199.31 L 108.4 197.91 L 109.07 196.28 L 109.74 194.45 L 110.41 192.43 L 111.07 190.25 L 111.74 187.92 L 112.41 185.47 L 113.08 182.92 L 113.74 180.28 L 114.41 177.59 L 115.08 174.85 L 115.75 172.1 L 116.41 169.34 L 117.08 166.6 L 117.75 163.89 L 118.41 161.23 L 119.08 158.64 L 119.75 156.13 L 120.42 153.71 L 121.08 151.4 L 121.75 149.2 L 122.42 147.13 L 123.09 145.2 L 123.75 143.41 L 124.42 141.77 L 125.09 140.28 L 125.75 138.95 L 126.42 137.78 L 127.09 136.78 L 127.76 135.93 L 128.42 135.25 L 129.09 134.73 L 129.76 134.37 L 130.43 134.16 L 131.09 134.1 L 131.76 134.18 L 132.43 134.4 L 133.1 134.76 L 133.76 135.23 L 134.43 135.83 L 135.1 136.53 L 135.76 137.33 L 136.43 138.22 L 137.1 139.2 L 137.77 140.24 L 138.43 141.35 L 139.1 142.51 L 139.77 143.71 L 140.44 144.94 L 141.1 146.2 L 141.77 147.48 L 142.44 148.76 L 143.1 150.04 L 143.77 151.3 L 144.44 152.55 L 145.11 153.77 L 145.77 154.96 L 146.44 156.11 L 147.11 157.21 L 147.78 158.26 L 148.44 159.25 L 149.11 160.18 L 149.78 161.05 L 150.45 161.85 L 151.11 162.57 L 151.78 163.23 L 152.45 163.8 L 153.11 164.31 L 153.78 164.73 L 154.45 165.08 L 155.12 165.35 L 155.78 165.55 L 156.45 165.67 L 157.12 165.72 L 157.79 165.7 L 158.45 165.61 L 159.12 165.46 L 159.79 165.25 L 160.45 164.98 L 161.12 164.66 L 161.79 164.28 L 162.46 163.87 L 163.12 163.41 L 163.79 162.91 L 164.46 162.38 L 165.13 161.83 L 165.79 161.25 L 166.46 160.66 L 167.13 160.05 L 167.8 159.43 L 168.46 158.81 L 169.13 158.18 L 169.8 157.56 L 170.46 156.95 L 171.13 156.35 L 171.8 155.76 L 172.47 155.19 L 173.13 154.65 L 173.8 154.13 L 174.47 153.63 L 175.14 153.17 L 175.8 152.73 L 176.47 152.33 L 177.14 151.96 L 177.8 151.63 L 178.47 151.33 L 179.14 151.08 L 179.81 150.86 L 180.47 150.67 L 181.14 150.53 L 181.81 150.42 L 182.48 150.35 L 183.14 150.32 L 183.81 150.32 L 184.48 150.36 L 185.15 150.42 L 185.81 150.52 L 186.48 150.65 L 187.15 150.8 L 187.81 150.98 L 188.48 151.19 L 189.15 151.41 L 189.82 151.66 L 190.48 151.92 L 191.15 152.19 L 191.82 152.48 L 192.49 152.78 L 193.15 153.08 L 193.82 153.39 L 194.49 153.7 L 195.15 154.02 L 195.82 154.33 L 196.49 154.64 L 197.16 154.94 L 197.82 155.24 L 198.49 155.53 L 199.16 155.81 L 199.83 156.08 L 200.49 156.33 L 201.16 156.57 L 201.83 156.79 L 202.5 157 L 203.16 157.19 L 203.83 157.36 L 204.5 157.52 L 205.16 157.65 L 205.83 157.77 L 206.5 157.87 L 207.17 157.94 L 207.83 158 L 208.5 158.04 L 209.17 158.06 L 209.84 158.07 L 210.5 158.05 L 211.17 158.02 L 211.84 157.98 L 212.5 157.91 L 213.17 157.84 L 213.84 157.75 L 214.51 157.65 L 215.17 157.53 L 215.84 157.41 L 216.51 157.28 L 217.18 157.14 L 217.84 156.99 L 218.51 156.84 L 219.18 156.68 L 219.84 156.53 L 220.51 156.36 L 221.18 156.2 L 221.85 156.04 L 222.51 155.88 L 223.18 155.72 L 223.85 155.57 L 224.52 155.42 L 225.18 155.27 L 225.85 155.14 L 226.52 155 L 227.19 154.88 L 227.85 154.76 L 228.52 154.65 L 229.19 154.55 L 229.85 154.46 L 230.52 154.38 L 231.19 154.3 L 231.86 154.24 L 232.52 154.19 L 233.19 154.15 L 233.86 154.12 L 234.53 154.09 L 235.19 154.08 L 235.86 154.08 L 236.53 154.08 L 237.19 154.1 L 237.86 154.12 L 238.53 154.15 L 239.2 154.19 L 239.86 154.23 L 240.53 154.29 L 241.2 154.34 L 241.87 154.41 L 242.53 154.47 L 243.2 154.55 L 243.87 154.62 L 244.54 154.7 L 245.2 154.78 L 245.87 154.87 L 246.54 154.95 L 247.2 155.03 L 247.87 155.12 L 248.54 155.2 L 249.21 155.29 L 249.87 155.37 L 250.54 155.45 L 251.21 155.52 L 251.88 155.6 L 252.54 155.67 L 253.21 155.73 L 253.88 155.8 L 254.54 155.85 L 255.21 155.91 L 255.88 155.96 L 256.55 156 L 257.21 156.04 L 257.88 156.07 L 258.55 156.1 L 259.22 156.13 L 259.88 156.14 L 260.55 156.16 L 261.22 156.17 L 261.89 156.17 L 262.55 156.17 L 263.22 156.16 L 263.89 156.15 L 264.55 156.13 L 265.22 156.11 L 265.89 156.09 L 266.56 156.06 L 267.22 156.03" fill="none" stroke="#ff7f0e" stroke-width="1.5" stroke-dasharray="5.55,2.4" stroke-linejoin="round"/>
</g>
<g id="annotation-arrow_1">
<path d="M 161.06 168.17 L 82.41 51" fill="none" stroke="#000000" stroke-width="1" stroke-linecap="square"/>
<path d="M 82.97 55.43 L 82.41 51 L 86.3 53.2" fill="none" stroke="#000000" stroke-width="1" stroke-linecap="square"/>
</g>
<g id="text_1">
<path d="M 154.01 176.49 Q 153.86 176.4 153.68 176.36 Q 153.51 176.32 153.29 176.32 Q 152.53 176.32 152.12 176.81 Q 151.71 177.31 151.71 178.23 L 151.71 181.12 L 150.81 181.12 L 150.81 175.65 L 151.71 175.65 L 151.71 176.5 Q 152 176 152.45 175.76 Q 152.91 175.52 153.56 175.52 Q 153.65 175.52 153.76 175.53 Q 153.87 175.54 154.01 175.56 L 154.01 176.49 z M 154.96 175.65 L 155.86 175.65 L 155.86 181.12 L 154.96 181.12 L 154.96 175.65 M 154.96 173.52 L 155.86 173.52 L 155.86 174.66 L 154.96 174.66 L 154.96 173.52 z M 162.28 177.81 L 162.28 181.12 L 161.38 181.12 L 161.38 177.84 Q 161.38 177.07 161.08 176.68 Q 160.78 176.3 160.17 176.3 Q 159.44 176.3 159.02 176.76 Q 158.6 177.22 158.6 178.02 L 158.6 181.12 L 157.7 181.12 L 157.7 175.65 L 158.6 175.65 L 158.6 176.5 Q 158.93 176 159.36 175.76 Q 159.8 175.52 160.37 175.52 Q 161.31 175.52 161.8 176.1 Q 162.28 176.68 162.28 177.81 z M 167.67 178.32 Q 167.67 177.34 167.27 176.8 Q 166.87 176.27 166.14 176.27 Q 165.42 176.27 165.01 176.8 Q 164.61 177.34 164.61 178.32 Q 164.61 179.29 165.01 179.83 Q 165.42 180.36 166.14 180.36 Q 166.87 180.36 167.27 179.83 Q 167.67 179.29 167.67 178.32 M 168.57 180.44 Q 168.57 181.83 167.95 182.52 Q 167.33 183.2 166.05 183.2 Q 165.58 183.2 165.16 183.13 Q 164.74 183.05 164.34 182.91 L 164.34 182.03 Q 164.74 182.25 165.12 182.35 Q 165.51 182.45 165.91 182.45 Q 166.79 182.45 167.23 181.99 Q 167.67 181.53 167.67 180.6 L 167.67 180.15 Q 167.39 180.64 166.96 180.88 Q 166.52 181.12 165.92 181.12 Q 164.91 181.12 164.3 180.35 Q 163.68 179.58 163.68 178.32 Q 163.68 177.05 164.3 176.28 Q 164.91 175.52 165.92 175.52 Q 166.52 175.52 166.96 175.75 Q 167.39 175.99 167.67 176.48 L 167.67 175.65 L 168.57 175.65 L 168.57 180.44 z M 170.42 175.65 L 171.32 175.65 L 171.32 181.12 L 170.42 181.12 L 170.42 175.65 M 170.42 173.52 L 171.32 173.52 L 171.32 174.66 L 170.42 174.66 L 170.42 173.52 z M 177.75 177.81 L 177.75 181.12 L 176.85 181.12 L 176.85 177.84 Q 176.85 177.07 176.54 176.68 Q 176.24 176.3 175.64 176.3 Q 174.91 176.3 174.49 176.76 Q 174.07 177.22 174.07 178.02 L 174.07 181.12 L 173.16 181.12 L 173.16 175.65 L 174.07 175.65 L 174.07 176.5 Q 174.39 176 174.83 175.76 Q 175.26 175.52 175.84 175.52 Q 176.78 175.52 177.26 176.1 Q 177.75 176.68 177.75 177.81 z M 183.14 178.32 Q 183.14 177.34 182.73 176.8 Q 182.33 176.27 181.6 176.27 Q 180.88 176.27 180.47 176.8 Q 180.07 177.34 180.07 178.32 Q 180.07 179.29 180.47 179.83 Q 180.88 180.36 181.6 180.36 Q 182.33 180.36 182.73 179.83 Q 183.14 179.29 183.14 178.32 M 184.03 180.44 Q 184.03 181.83 183.41 182.52 Q 182.79 183.2 181.51 183.2 Q 181.04 183.2 180.62 183.13 Q 180.2 183.05 179.81 182.91 L 179.81 182.03 Q 180.2 182.25 180.59 182.35 Q 180.97 182.45 181.37 182.45 Q 182.26 182.45 182.7 181.99 Q 183.14 181.53 183.14 180.6 L 183.14 180.15 Q 182.86 180.64 182.42 180.88 Q 181.99 181.12 181.38 181.12 Q 180.38 181.12 179.76 180.35 Q 179.15 179.58 179.15 178.32 Q 179.15 177.05 179.76 176.28 Q 180.38 175.52 181.38 175.52 Q 181.99 175.52 182.42 175.75 Q 182.86 175.99 183.14 176.48 L 183.14 175.65 L 184.03 175.65 L 184.03 180.44 z" fill="#000000"/>
</g>
<g id="spines_1">
<path d="M 57.72 214.12 L 277.2 214.12 L 277.2 30.77 L 57.72 30.77 z" fill="none" stroke="#000000" stroke-width="0.8" stroke-linecap="square" stroke-linejoin="round"/>
</g>
<g id="xtick_1">
<path d="M 67.7 214.12 L 67.7 217.62" fill="none" stroke="#000000" stroke-width="0.8" stroke-linejoin="round"/>
<path d="M 67.7 223.76 Q 66.93 223.76 66.55 224.51 Q 66.17 225.26 66.17 226.76 Q 66.17 228.26 66.55 229.01 Q 66.93 229.76 67.7 229.76 Q 68.46 229.76 68.84 229.01 Q 69.23 228.26 69.23 226.76 Q 69.23 225.26 68.84 224.51 Q 68.46 223.76 67.7 223.76 M 67.7 222.98 Q 68.92 222.98 69.57 223.95 Q 70.22 224.92 70.22 226.76 Q 70.22 228.6 69.57 229.58 Q 68.92 230.54 67.7 230.54 Q 66.47 230.54 65.82 229.58 Q 65.18 228.6 65.18 226.76 Q 65.18 224.92 65.82 223.95 Q 66.47 222.98 67.7 222.98 z" fill="#000000"/>
<path d="M 117.58 214.12 L 117.58 217.62" fill="none" stroke="#000000" stroke-width="0.8" stroke-linejoin="round"/>
<path d="M 115.64 229.57 L 117.25 229.57 L 117.25 224.01 L 115.5 224.36 L 115.5 223.46 L 117.24 223.11 L 118.23 223.11 L 118.23 229.57 L 119.84 229.57 L 119.84 230.4 L 115.64 230.4 L 115.64 229.57 z" fill="#000000"/>
<path d="M 167.46 214.12 L 167.46 217.62" fill="none" stroke="#000000" stroke-width="0.8" stroke-linejoin="round"/>
<path d="M 166.2 229.57 L 169.64 229.57 L 169.64 230.4 L 165.01 230.4 L 165.01 229.57 Q 165.57 228.99 166.54 228.01 Q 167.51 227.03 167.76 226.75 Q 168.24 226.22 168.42 225.85 Q 168.61 225.48 168.61 225.12 Q 168.61 224.54 168.2 224.18 Q 167.8 223.81 167.14 223.81 Q 166.68 223.81 166.16 223.97 Q 165.65 224.13 165.06 224.46 L 165.06 223.46 Q 165.66 223.22 166.17 223.1 Q 166.69 222.98 167.12 222.98 Q 168.25 222.98 168.93 223.55 Q 169.6 224.11 169.6 225.06 Q 169.6 225.51 169.43 225.91 Q 169.27 226.31 168.82 226.86 Q 168.7 227 168.04 227.68 Q 167.39 228.36 166.2 229.57 z" fill="#000000"/>
<path d="M 217.34 214.12 L 217.34 217.62" fill="none" stroke="#000000" stroke-width="0.8" stroke-linejoin="round"/>
<path d="M 218.22 226.47 Q 218.93 226.62 219.32 227.1 Q 219.72 227.58 219.72 228.28 Q 219.72 229.36 218.98 229.95 Q 218.24 230.54 216.87 230.54 Q 216.41 230.54 215.92 230.45 Q 215.44 230.36 214.92 230.18 L 214.92 229.23 Q 215.33 229.47 215.82 229.59 Q 216.31 229.71 216.84 229.71 Q 217.77 229.71 218.25 229.35 Q 218.74 228.98 218.74 228.28 Q 218.74 227.64 218.29 227.28 Q 217.84 226.91 217.03 226.91 L 216.18 226.91 L 216.18 226.1 L 217.07 226.1 Q 217.8 226.1 218.18 225.81 Q 218.57 225.52 218.57 224.97 Q 218.57 224.41 218.17 224.11 Q 217.77 223.81 217.03 223.81 Q 216.63 223.81 216.16 223.9 Q 215.7 223.98 215.14 224.17 L 215.14 223.29 Q 215.7 223.14 216.19 223.06 Q 216.69 222.98 217.12 222.98 Q 218.24 222.98 218.9 223.49 Q 219.55 224 219.55 224.87 Q 219.55 225.47 219.21 225.89 Q 218.86 226.31 218.22 226.47 z" fill="#000000"/>
<path d="M 267.22 214.12 L 267.22 217.62" fill="none" stroke="#000000" stroke-width="0.8" stroke-linejoin="round"/>
<path d="M 267.82 223.97 L 265.33 227.86 L 267.82 227.86 L 267.82 223.97 M 267.56 223.11 L 268.8 223.11 L 268.8 227.86 L 269.84 227.86 L 269.84 228.68 L 268.8 228.68 L 268.8 230.4 L 267.82 230.4 L 267.82 228.68 L 264.53 228.68 L 264.53 227.73 L 267.56 223.11 z" fill="#000000"/>
</g>
<g id="ytick_1">
<path d="M 57.72 190.92 L 54.22 190.92" fill="none" stroke="#000000" stroke-width="0.8" stroke-linejoin="round"/>
<path d="M 27.5 190.84 L 33.76 190.84 L 33.76 191.67 L 27.5 191.67 L 27.5 190.84 z M 38 187.75 Q 37.24 187.75 36.85 188.5 Q 36.47 189.24 36.47 190.75 Q 36.47 192.25 36.85 193 Q 37.24 193.75 38 193.75 Q 38.76 193.75 39.15 193 Q 39.53 192.25 39.53 190.75 Q 39.53 189.24 39.15 188.5 Q 38.76 187.75 38 187.75 M 38 186.96 Q 39.22 186.96 39.87 187.94 Q 40.52 188.9 40.52 190.75 Q 40.52 192.59 39.87 193.56 Q 39.22 194.53 38 194.53 Q 36.77 194.53 36.12 193.56 Q 35.48 192.59 35.48 190.75 Q 35.48 188.9 36.12 187.94 Q 36.77 186.96 38 186.96 z M 42.25 193.15 L 43.28 193.15 L 43.28 194.39 L 42.25 194.39 L 42.25 193.15 z M 46.28 193.56 L 49.72 193.56 L 49.72 194.39 L 45.09 194.39 L 45.09 193.56 Q 45.65 192.97 46.62 192 Q 47.59 191.02 47.84 190.73 Q 48.32 190.2 48.5 189.84 Q 48.69 189.46 48.69 189.11 Q 48.69 188.53 48.28 188.16 Q 47.88 187.79 47.22 187.79 Q 46.76 187.79 46.24 187.96 Q 45.73 188.12 45.14 188.44 L 45.14 187.45 Q 45.74 187.21 46.26 187.09 Q 46.77 186.96 47.2 186.96 Q 48.34 186.96 49.01 187.53 Q 49.68 188.1 49.68 189.04 Q 49.68 189.49 49.51 189.9 Q 49.35 190.3 48.9 190.85 Q 48.78 190.99 48.13 191.67 Q 47.47 192.34 46.28 193.56 z" fill="#000000"/>
<path d="M 57.72 155.44 L 54.22 155.44" fill="none" stroke="#000000" stroke-width="0.8" stroke-linejoin="round"/>
<path d="M 38 152.27 Q 37.24 152.27 36.85 153.02 Q 36.47 153.76 36.47 155.27 Q 36.47 156.77 36.85 157.52 Q 37.24 158.27 38 158.27 Q 38.76 158.27 39.15 157.52 Q 39.53 156.77 39.53 155.27 Q 39.53 153.76 39.15 153.02 Q 38.76 152.27 38 152.27 M 38 151.48 Q 39.22 151.48 39.87 152.46 Q 40.52 153.42 40.52 155.27 Q 40.52 157.11 39.87 158.08 Q 39.22 159.05 38 159.05 Q 36.77 159.05 36.12 158.08 Q 35.48 157.11 35.48 155.27 Q 35.48 153.42 36.12 152.46 Q 36.77 151.48 38 151.48 z M 42.25 157.67 L 43.28 157.67 L 43.28 158.91 L 42.25 158.91 L 42.25 157.67 z M 47.54 152.27 Q 46.78 152.27 46.39 153.02 Q 46.01 153.76 46.01 155.27 Q 46.01 156.77 46.39 157.52 Q 46.78 158.27 47.54 158.27 Q 48.31 158.27 48.69 157.52 Q 49.07 156.77 49.07 155.27 Q 49.07 153.76 48.69 153.02 Q 48.31 152.27 47.54 152.27 M 47.54 151.48 Q 48.76 151.48 49.41 152.46 Q 50.06 153.42 50.06 155.27 Q 50.06 157.11 49.41 158.08 Q 48.76 159.05 47.54 159.05 Q 46.31 159.05 45.66 158.08 Q 45.02 157.11 45.02 155.27 Q 45.02 153.42 45.66 152.46 Q 46.31 151.48 47.54 151.48 z" fill="#000000"/>
<path d="M 57.72 119.96 L 54.22 119.96" fill="none" stroke="#000000" stroke-width="0.8" stroke-linejoin="round"/>
<path d="M 38 116.79 Q 37.24 116.79 36.85 117.54 Q 36.47 118.28 36.47 119.79 Q 36.47 121.29 36.85 122.04 Q 37.24 122.79 38 122.79 Q 38.76 122.79 39.15 122.04 Q 39.53 121.29 39.53 119.79 Q 39.53 118.28 39.15 117.54 Q 38.76 116.79 38 116.79 M 38 116 Q 39.22 116 39.87 116.98 Q 40.52 117.94 40.52 119.79 Q 40.52 121.63 39.87 122.6 Q 39.22 123.57 38 123.57 Q 36.77 123.57 36.12 122.6 Q 35.48 121.63 35.48 119.79 Q 35.48 117.94 36.12 116.98 Q 36.77 116 38 116 z M 42.25 122.19 L 43.28 122.19 L 43.28 123.43 L 42.25 123.43 L 42.25 122.19 z M 46.28 122.6 L 49.72 122.6 L 49.72 123.43 L 45.09 123.43 L 45.09 122.6 Q 45.65 122.02 46.62 121.04 Q 47.59 120.06 47.84 119.77 Q 48.32 119.24 48.5 118.88 Q 48.69 118.5 48.69 118.15 Q 48.69 117.57 48.28 117.2 Q 47.88 116.83 47.22 116.83 Q 46.76 116.83 46.24 117 Q 45.73 117.16 45.14 117.48 L 45.14 116.49 Q 45.74 116.25 46.26 116.13 Q 46.77 116 47.2 116 Q 48.34 116 49.01 116.57 Q 49.68 117.14 49.68 118.08 Q 49.68 118.53 49.51 118.94 Q 49.35 119.34 48.9 119.89 Q 48.78 120.03 48.13 120.71 Q 47.47 121.38 46.28 122.6 z" fill="#000000"/>
<path d="M 57.72 84.48 L 54.22 84.48" fill="none" stroke="#000000" stroke-width="0.8" stroke-linejoin="round"/>
<path d="M 38 81.31 Q 37.24 81.31 36.85 82.06 Q 36.47 82.8 36.47 84.31 Q 36.47 85.81 36.85 86.56 Q 37.24 87.31 38 87.31 Q 38.76 87.31 39.15 86.56 Q 39.53 85.81 39.53 84.31 Q 39.53 82.8 39.15 82.06 Q 38.76 81.31 38 81.31 M 38 80.52 Q 39.22 80.52 39.87 81.5 Q 40.52 82.46 40.52 84.31 Q 40.52 86.15 39.87 87.12 Q 39.22 88.09 38 88.09 Q 36.77 88.09 36.12 87.12 Q 35.48 86.15 35.48 84.31 Q 35.48 82.46 36.12 81.5 Q 36.77 80.52 38 80.52 z M 42.25 86.71 L 43.28 86.71 L 43.28 87.95 L 42.25 87.95 L 42.25 86.71 z M 48.14 81.52 L 45.65 85.41 L 48.14 85.41 L 48.14 81.52 M 47.88 80.66 L 49.12 80.66 L 49.12 85.41 L 50.16 85.41 L 50.16 86.23 L 49.12 86.23 L 49.12 87.95 L 48.14 87.95 L 48.14 86.23 L 44.85 86.23 L 44.85 85.28 L 47.88 80.66 z" fill="#000000"/>
<path d="M 57.72 49 L 54.22 49" fill="none" stroke="#000000" stroke-width="0.8" stroke-linejoin="round"/>
<path d="M 38 45.83 Q 37.24 45.83 36.85 46.58 Q 36.47 47.32 36.47 48.83 Q 36.47 50.33 36.85 51.08 Q 37.24 51.83 38 51.83 Q 38.76 51.83 39.15 51.08 Q 39.53 50.33 39.53 48.83 Q 39.53 47.32 39.15 46.58 Q 38.76 45.83 38 45.83 M 38 45.04 Q 39.22 45.04 39.87 46.02 Q 40.52 46.98 40.52 48.83 Q 40.52 50.67 39.87 51.64 Q 39.22 52.61 38 52.61 Q 36.77 52.61 36.12 51.64 Q 35.48 50.67 35.48 48.83 Q 35.48 46.98 36.12 46.02 Q 36.77 45.04 38 45.04 z M 42.25 51.23 L 43.28 51.23 L 43.28 52.47 L 42.25 52.47 L 42.25 51.23 z M 47.66 48.43 Q 47 48.43 46.61 48.88 Q 46.22 49.34 46.22 50.13 Q 46.22 50.91 46.61 51.37 Q 47 51.83 47.66 51.83 Q 48.33 51.83 48.71 51.37 Q 49.1 50.91 49.1 50.13 Q 49.1 49.34 48.71 48.88 Q 48.33 48.43 47.66 48.43 M 49.62 45.34 L 49.62 46.24 Q 49.25 46.06 48.87 45.97 Q 48.49 45.87 48.12 45.87 Q 47.14 45.87 46.63 46.53 Q 46.11 47.19 46.04 48.53 Q 46.33 48.1 46.76 47.88 Q 47.2 47.65 47.72 47.65 Q 48.82 47.65 49.45 48.32 Q 50.09 48.98 50.09 50.13 Q 50.09 51.25 49.43 51.93 Q 48.76 52.61 47.66 52.61 Q 46.4 52.61 45.73 51.64 Q 45.06 50.67 45.06 48.83 Q 45.06 47.1 45.88 46.07 Q 46.7 45.04 48.08 45.04 Q 48.45 45.04 48.83 45.12 Q 49.21 45.19 49.62 45.34 z" fill="#000000"/>
</g>
<g id="legend_1">
<path d="M 186.24 72.05 L 272.2 72.05 L 272.2 35.77 L 186.24 35.77 z" fill="#ffffff" fill-opacity="0.8" stroke="#cccccc" stroke-width="1" stroke-linejoin="round"/>
<path d="M 190.24 45.59 L 210.24 45.59" fill="none" stroke="#1f77b4" stroke-width="1" stroke-linecap="square" stroke-linejoin="round"/>
<path d="M 223.44 44.63 Q 223.78 44.03 224.24 43.74 Q 224.71 43.45 225.35 43.45 Q 226.2 43.45 226.67 44.05 Q 227.13 44.65 227.13 45.75 L 227.13 49.05 L 226.23 49.05 L 226.23 45.78 Q 226.23 44.99 225.95 44.61 Q 225.67 44.23 225.1 44.23 Q 224.4 44.23 224 44.7 Q 223.59 45.16 223.59 45.96 L 223.59 49.05 L 222.69 49.05 L 222.69 45.78 Q 222.69 44.99 222.41 44.61 Q 222.13 44.23 221.55 44.23 Q 220.86 44.23 220.46 44.7 Q 220.05 45.16 220.05 45.96 L 220.05 49.05 L 219.15 49.05 L 219.15 43.58 L 220.05 43.58 L 220.05 44.43 Q 220.36 43.93 220.79 43.69 Q 221.22 43.45 221.81 43.45 Q 222.4 43.45 222.82 43.75 Q 223.24 44.06 223.44 44.63 z M 233.6 46.09 L 233.6 46.53 L 229.47 46.53 Q 229.53 47.46 230.03 47.95 Q 230.53 48.43 231.42 48.43 Q 231.94 48.43 232.42 48.3 Q 232.91 48.18 233.39 47.92 L 233.39 48.77 Q 232.91 48.98 232.4 49.09 Q 231.89 49.19 231.37 49.19 Q 230.06 49.19 229.29 48.43 Q 228.53 47.67 228.53 46.37 Q 228.53 45.03 229.25 44.24 Q 229.98 43.45 231.21 43.45 Q 232.32 43.45 232.96 44.16 Q 233.6 44.87 233.6 46.09 M 232.7 45.83 Q 232.69 45.09 232.29 44.65 Q 231.89 44.21 231.22 44.21 Q 230.47 44.21 230.02 44.64 Q 229.57 45.06 229.5 45.83 L 232.7 45.83 z M 237.56 46.3 Q 236.47 46.3 236.05 46.55 Q 235.63 46.8 235.63 47.4 Q 235.63 47.88 235.94 48.16 Q 236.26 48.44 236.8 48.44 Q 237.55 48.44 238 47.91 Q 238.45 47.38 238.45 46.5 L 238.45 46.3 L 237.56 46.3 M 239.35 45.93 L 239.35 49.05 L 238.45 49.05 L 238.45 48.22 Q 238.15 48.72 237.69 48.96 Q 237.23 49.19 236.56 49.19 Q 235.72 49.19 235.23 48.72 Q 234.73 48.25 234.73 47.46 Q 234.73 46.54 235.35 46.07 Q 235.97 45.6 237.19 45.6 L 238.45 45.6 L 238.45 45.51 Q 238.45 44.89 238.04 44.55 Q 237.64 44.21 236.9 44.21 Q 236.43 44.21 235.99 44.32 Q 235.54 44.44 235.13 44.66 L 235.13 43.83 Q 235.63 43.64 236.09 43.55 Q 236.55 43.45 236.99 43.45 Q 238.18 43.45 238.77 44.07 Q 239.35 44.68 239.35 45.93 z M 244.69 43.74 L 244.69 44.59 Q 244.31 44.4 243.9 44.3 Q 243.49 44.2 243.05 44.2 Q 242.38 44.2 242.04 44.41 Q 241.71 44.61 241.71 45.02 Q 241.71 45.34 241.95 45.52 Q 242.19 45.69 242.91 45.85 L 243.22 45.92 Q 244.18 46.13 244.58 46.5 Q 244.98 46.87 244.98 47.54 Q 244.98 48.3 244.38 48.75 Q 243.78 49.19 242.72 49.19 Q 242.28 49.19 241.8 49.11 Q 241.33 49.02 240.8 48.85 L 240.8 47.92 Q 241.3 48.18 241.78 48.31 Q 242.27 48.44 242.74 48.44 Q 243.38 48.44 243.72 48.23 Q 244.06 48.01 244.06 47.61 Q 244.06 47.24 243.81 47.05 Q 243.57 46.85 242.73 46.67 L 242.42 46.6 Q 241.58 46.42 241.21 46.06 Q 240.84 45.7 240.84 45.06 Q 240.84 44.29 241.39 43.87 Q 241.94 43.45 242.94 43.45 Q 243.44 43.45 243.88 43.52 Q 244.32 43.6 244.69 43.74 z M 246.32 46.89 L 246.32 43.58 L 247.22 43.58 L 247.22 46.86 Q 247.22 47.63 247.52 48.03 Q 247.82 48.41 248.43 48.41 Q 249.16 48.41 249.58 47.95 Q 250 47.48 250 46.68 L 250 43.58 L 250.9 43.58 L 250.9 49.05 L 250 49.05 L 250 48.21 Q 249.67 48.71 249.24 48.95 Q 248.81 49.19 248.24 49.19 Q 247.3 49.19 246.81 48.61 Q 246.32 48.02 246.32 46.89 M 248.58 43.45 L 248.58 43.45 z M 255.92 44.42 Q 255.77 44.33 255.59 44.3 Q 255.41 44.25 255.2 44.25 Q 254.44 44.25 254.03 44.75 Q 253.62 45.24 253.62 46.17 L 253.62 49.05 L 252.72 49.05 L 252.72 43.58 L 253.62 43.58 L 253.62 44.43 Q 253.9 43.93 254.36 43.69 Q 254.81 43.45 255.46 43.45 Q 255.55 43.45 255.67 43.47 Q 255.78 43.47 255.91 43.5 L 255.92 44.42 z M 261.32 46.09 L 261.32 46.53 L 257.19 46.53 Q 257.25 47.46 257.75 47.95 Q 258.25 48.43 259.14 48.43 Q 259.66 48.43 260.14 48.3 Q 260.63 48.18 261.11 47.92 L 261.11 48.77 Q 260.63 48.98 260.12 49.09 Q 259.61 49.19 259.09 49.19 Q 257.78 49.19 257.01 48.43 Q 256.25 47.67 256.25 46.37 Q 256.25 45.03 256.97 44.24 Q 257.7 43.45 258.93 43.45 Q 260.04 43.45 260.68 44.16 Q 261.32 44.87 261.32 46.09 M 260.42 45.83 Q 260.41 45.09 260.01 44.65 Q 259.61 44.21 258.94 44.21 Q 258.19 44.21 257.74 44.64 Q 257.29 45.06 257.22 45.83 L 260.42 45.83 z M 266.39 44.41 L 266.39 41.45 L 267.29 41.45 L 267.29 49.05 L 266.39 49.05 L 266.39 48.23 Q 266.11 48.72 265.68 48.96 Q 265.25 49.19 264.64 49.19 Q 263.65 49.19 263.02 48.4 Q 262.4 47.61 262.4 46.32 Q 262.4 45.03 263.02 44.24 Q 263.65 43.45 264.64 43.45 Q 265.25 43.45 265.68 43.69 Q 266.11 43.92 266.39 44.41 M 263.33 46.32 Q 263.33 47.31 263.74 47.88 Q 264.15 48.44 264.86 48.44 Q 265.57 48.44 265.98 47.88 Q 266.39 47.31 266.39 46.32 Q 266.39 45.33 265.98 44.77 Q 265.57 44.2 264.86 44.2 Q 264.15 44.2 263.74 44.77 Q 263.33 45.33 263.33 46.32 z" fill="#000000"/>
<path d="M 190.24 62.23 L 210.24 62.23" fill="none" stroke="#ff7f0e" stroke-width="1.5" stroke-dasharray="5.55,2.4" stroke-linejoin="round"/>
<path d="M 221.61 58.96 Q 221.62 58.9 221.62 58.84 Q 221.63 58.79 221.63 58.73 Q 221.63 58.31 221.38 58.07 Q 221.14 57.83 220.72 57.83 Q 220.25 57.83 219.89 58.12 Q 219.53 58.42 219.35 58.96 L 221.61 58.96 M 222.15 59.45 L 219.23 59.45 Q 219.21 59.58 219.2 59.65 Q 219.19 59.73 219.19 59.78 Q 219.19 60.26 219.48 60.52 Q 219.78 60.78 220.31 60.78 Q 220.72 60.78 221.09 60.69 Q 221.45 60.59 221.77 60.42 L 221.65 61.04 Q 221.31 61.17 220.95 61.24 Q 220.59 61.31 220.21 61.31 Q 219.42 61.31 218.99 60.93 Q 218.56 60.55 218.56 59.85 Q 218.56 59.25 218.77 58.74 Q 218.99 58.22 219.4 57.82 Q 219.67 57.57 220.03 57.43 Q 220.4 57.29 220.82 57.29 Q 221.47 57.29 221.85 57.68 Q 222.23 58.07 222.23 58.73 Q 222.23 58.88 222.21 59.07 Q 222.19 59.24 222.15 59.45 z M 223.39 56.74 L 226.45 56.74 L 226.45 57.15 L 223.39 57.15 L 223.39 56.74 z M 229.04 55.8 L 228.98 56.14 L 228.1 56.14 L 227.81 57.6 Q 227.8 57.68 227.79 57.73 Q 227.79 57.79 227.79 57.82 Q 227.79 57.97 227.88 58.04 Q 227.97 58.11 228.17 58.11 L 228.62 58.11 L 228.54 58.48 L 228.12 58.48 Q 227.73 58.48 227.54 58.33 Q 227.35 58.17 227.35 57.86 Q 227.35 57.81 227.35 57.74 Q 227.36 57.68 227.37 57.6 L 227.66 56.14 L 227.29 56.14 L 227.36 55.8 L 227.72 55.8 L 227.87 55.04 L 228.31 55.04 L 228.16 55.8 L 229.04 55.8 z M 231.99 57.5 L 231.99 58.09 Q 231.73 57.96 231.44 57.89 Q 231.15 57.82 230.85 57.82 Q 230.38 57.82 230.14 57.96 Q 229.91 58.11 229.91 58.39 Q 229.91 58.61 230.08 58.74 Q 230.24 58.86 230.75 58.97 L 230.96 59.02 Q 231.63 59.17 231.92 59.43 Q 232.2 59.69 232.2 60.16 Q 232.2 60.69 231.78 61 Q 231.35 61.31 230.62 61.31 Q 230.31 61.31 229.97 61.25 Q 229.64 61.19 229.27 61.07 L 229.27 60.42 Q 229.62 60.6 229.96 60.7 Q 230.3 60.79 230.63 60.79 Q 231.07 60.79 231.31 60.63 Q 231.55 60.48 231.55 60.2 Q 231.55 59.95 231.38 59.81 Q 231.21 59.67 230.62 59.55 L 230.4 59.5 Q 229.82 59.37 229.56 59.12 Q 229.3 58.86 229.3 58.42 Q 229.3 57.88 229.68 57.59 Q 230.07 57.29 230.77 57.29 Q 231.12 57.29 231.43 57.34 Q 231.73 57.39 231.99 57.5 z M 233.2 57.38 L 233.83 57.38 L 233.83 61.21 L 233.2 61.21 L 233.2 57.38 M 233.2 55.89 L 233.83 55.89 L 233.83 56.69 L 233.2 56.69 L 233.2 55.89 z M 238.33 58.9 L 238.33 61.21 L 237.7 61.21 L 237.7 58.92 Q 237.7 58.38 237.49 58.11 Q 237.27 57.84 236.85 57.84 Q 236.34 57.84 236.05 58.16 Q 235.75 58.49 235.75 59.05 L 235.75 61.21 L 235.12 61.21 L 235.12 57.38 L 235.75 57.38 L 235.75 57.98 Q 235.98 57.63 236.28 57.46 Q 236.59 57.29 236.99 57.29 Q 237.65 57.29 237.99 57.7 Q 238.33 58.11 238.33 58.9 z M 241.23 58.39 Q 240.77 58.39 240.49 58.7 Q 240.22 59.02 240.22 59.58 Q 240.22 60.13 240.49 60.45 Q 240.77 60.76 241.23 60.76 Q 241.7 60.76 241.97 60.45 Q 242.24 60.13 242.24 59.58 Q 242.24 59.02 241.97 58.7 Q 241.7 58.39 241.23 58.39 M 242.6 56.22 L 242.6 56.85 Q 242.34 56.73 242.08 56.66 Q 241.81 56.6 241.55 56.6 Q 240.87 56.6 240.51 57.06 Q 240.15 57.52 240.1 58.45 Q 240.3 58.16 240.6 58 Q 240.91 57.84 241.27 57.84 Q 242.04 57.84 242.49 58.31 Q 242.93 58.77 242.93 59.58 Q 242.93 60.36 242.47 60.84 Q 242.01 61.31 241.23 61.31 Q 240.35 61.31 239.88 60.63 Q 239.41 59.95 239.41 58.67 Q 239.41 57.46 239.99 56.74 Q 240.56 56.02 241.53 56.02 Q 241.79 56.02 242.05 56.07 Q 242.32 56.12 242.6 56.22 z M 246.34 57.38 L 246.24 57.87 L 244.99 57.87 L 244.58 59.95 Q 244.56 60.07 244.55 60.15 Q 244.54 60.22 244.54 60.27 Q 244.54 60.49 244.67 60.59 Q 244.8 60.69 245.09 60.69 L 245.73 60.69 L 245.62 61.21 L 245.02 61.21 Q 244.46 61.21 244.18 60.99 Q 243.91 60.78 243.91 60.33 Q 243.91 60.25 243.92 60.16 Q 243.93 60.06 243.95 59.95 L 244.36 57.87 L 243.82 57.87 L 243.92 57.38 L 244.45 57.38 L 244.66 56.3 L 245.29 56.3 L 245.08 57.38 L 246.34 57.38 z M 218.24 63.19 L 246.12 63.19 L 246.12 62.56 L 218.24 62.56 z M 225.15 68.96 L 226.28 68.96 L 226.28 65.07 L 225.05 65.31 L 225.05 64.68 L 226.27 64.44 L 226.96 64.44 L 226.96 68.96 L 228.09 68.96 L 228.09 69.54 L 225.15 69.54 L 225.15 68.96 z M 233.32 65.15 L 233.32 67.05 L 235.23 67.05 L 235.23 67.64 L 233.32 67.64 L 233.32 69.54 L 232.75 69.54 L 232.75 67.64 L 230.84 67.64 L 230.84 67.05 L 232.75 67.05 L 232.75 65.15 L 233.32 65.15 z M 240.29 65.71 L 240.19 66.2 L 238.94 66.2 L 238.53 68.28 Q 238.51 68.39 238.5 68.47 Q 238.49 68.55 238.49 68.6 Q 238.49 68.82 238.62 68.91 Q 238.76 69.01 239.05 69.01 L 239.68 69.01 L 239.58 69.54 L 238.97 69.54 Q 238.41 69.54 238.14 69.32 Q 237.86 69.1 237.86 68.66 Q 237.86 68.58 237.87 68.49 Q 237.88 68.39 237.9 68.28 L 238.31 66.2 L 237.78 66.2 L 237.88 65.71 L 238.4 65.71 L 238.61 64.62 L 239.24 64.62 L 239.03 65.71 L 240.29 65.71 z" fill="#000000"/>
</g>
<g id="text_2">
<path d="M 161.63 240.57 L 161.5 241.27 L 159.71 241.27 L 159.12 244.24 Q 159.09 244.41 159.08 244.52 Q 159.07 244.63 159.07 244.69 Q 159.07 245.01 159.25 245.15 Q 159.44 245.29 159.86 245.29 L 160.76 245.29 L 160.61 246.04 L 159.75 246.04 Q 158.95 246.04 158.56 245.73 Q 158.17 245.42 158.17 244.78 Q 158.17 244.67 158.18 244.54 Q 158.2 244.4 158.23 244.24 L 158.81 241.27 L 158.04 241.27 L 158.19 240.57 L 158.93 240.57 L 159.24 239.02 L 160.13 239.02 L 159.84 240.57 L 161.63 240.57 z z M 167.61 238.45 Q 166.95 239.58 166.63 240.68 Q 166.32 241.77 166.32 242.9 Q 166.32 244.03 166.63 245.14 Q 166.96 246.24 167.61 247.36 L 166.82 247.36 Q 166.09 246.21 165.73 245.1 Q 165.36 244 165.36 242.9 Q 165.36 241.81 165.73 240.71 Q 166.09 239.61 166.82 238.45 L 167.61 238.45 z M 172.83 240.73 L 172.83 241.58 Q 172.45 241.39 172.04 241.29 Q 171.63 241.19 171.19 241.19 Q 170.53 241.19 170.19 241.4 Q 169.86 241.6 169.86 242.01 Q 169.86 242.33 170.1 242.51 Q 170.33 242.68 171.06 242.84 L 171.37 242.91 Q 172.32 243.12 172.72 243.49 Q 173.13 243.86 173.13 244.53 Q 173.13 245.29 172.52 245.74 Q 171.92 246.18 170.87 246.18 Q 170.43 246.18 169.95 246.1 Q 169.48 246.01 168.95 245.84 L 168.95 244.91 Q 169.45 245.17 169.93 245.3 Q 170.41 245.43 170.89 245.43 Q 171.52 245.43 171.86 245.22 Q 172.21 245 172.21 244.6 Q 172.21 244.23 171.96 244.04 Q 171.71 243.84 170.88 243.66 L 170.56 243.59 Q 169.73 243.41 169.36 243.05 Q 168.99 242.69 168.99 242.05 Q 168.99 241.28 169.53 240.86 Q 170.08 240.44 171.09 240.44 Q 171.58 240.44 172.02 240.51 Q 172.46 240.59 172.83 240.73 z M 174.42 238.45 L 175.2 238.45 Q 175.93 239.61 176.29 240.71 Q 176.66 241.81 176.66 242.9 Q 176.66 244 176.29 245.1 Q 175.93 246.21 175.2 247.36 L 174.42 247.36 Q 175.07 246.24 175.38 245.14 Q 175.71 244.03 175.71 242.9 Q 175.71 241.77 175.38 240.68 Q 175.07 239.58 174.42 238.45 z" fill="#000000"/>
</g>
<g id="text_3">
<path d="M 20.08 124.25 L 12.79 124.25 L 12.79 119.71 L 13.62 119.71 L 13.62 123.26 L 20.08 123.26 L 20.08 124.25 z" fill="#000000"/>
</g>
<g id="text_4">
<path d="M 129.1 21.94 L 129.1 13.19 L 134.55 13.19 L 134.55 14.19 L 130.29 14.19 L 130.29 21.94 L 129.1 21.94 z M 138.33 12.83 Q 137.55 14.18 137.17 15.5 Q 136.78 16.82 136.78 18.17 Q 136.78 19.52 137.17 20.85 Q 137.55 22.18 138.33 23.52 L 137.39 23.52 Q 136.52 22.14 136.08 20.81 Q 135.64 19.48 135.64 18.17 Q 135.64 16.86 136.08 15.54 Q 136.51 14.22 137.39 12.83 L 138.33 12.83 z M 144.37 15.38 L 144.2 16.21 L 142.05 16.21 L 141.35 19.78 Q 141.32 19.98 141.3 20.11 Q 141.28 20.25 141.28 20.32 Q 141.28 20.7 141.51 20.87 Q 141.74 21.04 142.23 21.04 L 143.32 21.04 L 143.14 21.94 L 142.11 21.94 Q 141.15 21.94 140.68 21.56 Q 140.21 21.19 140.21 20.43 Q 140.21 20.29 140.22 20.13 Q 140.24 19.97 140.28 19.78 L 140.97 16.21 L 140.06 16.21 L 140.23 15.38 L 141.13 15.38 L 141.49 13.51 L 142.57 13.51 L 142.21 15.38 L 144.37 15.38 z M 144.96 12.83 L 145.9 12.83 Q 146.77 14.22 147.21 15.54 Q 147.65 16.86 147.65 18.17 Q 147.65 19.48 147.21 20.81 Q 146.77 22.14 145.9 23.52 L 144.96 23.52 Q 145.74 22.18 146.12 20.85 Q 146.51 19.52 146.51 18.17 Q 146.51 16.82 146.12 15.5 Q 145.74 14.18 144.96 12.83 z z M 157.43 16.38 Q 157.25 16.28 157.03 16.23 Q 156.82 16.18 156.56 16.18 Q 155.65 16.18 155.15 16.78 Q 154.67 17.37 154.67 18.48 L 154.67 21.94 L 153.58 21.94 L 153.58 15.38 L 154.67 15.38 L 154.67 16.4 Q 155.01 15.8 155.55 15.51 Q 156.1 15.22 156.88 15.22 Q 156.99 15.22 157.12 15.24 Q 157.26 15.25 157.42 15.28 L 157.43 16.38 z M 163.91 18.39 L 163.91 18.92 L 158.95 18.92 Q 159.02 20.03 159.62 20.61 Q 160.22 21.19 161.29 21.19 Q 161.92 21.19 162.5 21.04 Q 163.08 20.89 163.66 20.59 L 163.66 21.6 Q 163.08 21.85 162.47 21.98 Q 161.86 22.11 161.23 22.11 Q 159.66 22.11 158.74 21.19 Q 157.83 20.28 157.83 18.72 Q 157.83 17.11 158.69 16.17 Q 159.57 15.22 161.04 15.22 Q 162.37 15.22 163.13 16.07 Q 163.91 16.92 163.91 18.39 M 162.83 18.07 Q 162.82 17.19 162.33 16.66 Q 161.85 16.13 161.05 16.13 Q 160.15 16.13 159.61 16.64 Q 159.07 17.15 158.99 18.08 L 162.83 18.07 z M 169.86 15.57 L 169.86 16.59 Q 169.4 16.35 168.91 16.24 Q 168.42 16.12 167.89 16.12 Q 167.09 16.12 166.69 16.37 Q 166.29 16.61 166.29 17.1 Q 166.29 17.48 166.57 17.7 Q 166.86 17.91 167.73 18.1 L 168.1 18.18 Q 169.25 18.43 169.73 18.88 Q 170.21 19.33 170.21 20.13 Q 170.21 21.04 169.49 21.58 Q 168.77 22.11 167.5 22.11 Q 166.97 22.11 166.4 22.01 Q 165.83 21.9 165.2 21.7 L 165.2 20.59 Q 165.79 20.9 166.37 21.05 Q 166.95 21.21 167.52 21.21 Q 168.28 21.21 168.69 20.95 Q 169.1 20.68 169.1 20.21 Q 169.1 19.77 168.81 19.54 Q 168.51 19.3 167.51 19.09 L 167.14 19 Q 166.13 18.79 165.69 18.35 Q 165.24 17.91 165.24 17.15 Q 165.24 16.23 165.9 15.72 Q 166.56 15.22 167.76 15.22 Q 168.36 15.22 168.89 15.31 Q 169.42 15.39 169.86 15.57 z M 172.97 20.95 L 172.97 24.43 L 171.89 24.43 L 171.89 15.38 L 172.97 15.38 L 172.97 16.37 Q 173.31 15.79 173.83 15.51 Q 174.35 15.22 175.07 15.22 Q 176.27 15.22 177.01 16.17 Q 177.76 17.12 177.76 18.66 Q 177.76 20.21 177.01 21.16 Q 176.27 22.11 175.07 22.11 Q 174.35 22.11 173.83 21.83 Q 173.31 21.54 172.97 20.95 M 176.64 18.66 Q 176.64 17.47 176.15 16.8 Q 175.66 16.12 174.81 16.12 Q 173.95 16.12 173.46 16.8 Q 172.97 17.47 172.97 18.66 Q 172.97 19.85 173.46 20.53 Q 173.95 21.21 174.81 21.21 Q 175.66 21.21 176.15 20.53 Q 176.64 19.85 176.64 18.66 z M 182.09 16.13 Q 181.22 16.13 180.72 16.81 Q 180.21 17.49 180.21 18.66 Q 180.21 19.84 180.71 20.52 Q 181.22 21.19 182.09 21.19 Q 182.95 21.19 183.45 20.51 Q 183.96 19.84 183.96 18.66 Q 183.96 17.5 183.45 16.82 Q 182.95 16.13 182.09 16.13 M 182.09 15.22 Q 183.5 15.22 184.3 16.13 Q 185.1 17.05 185.1 18.66 Q 185.1 20.27 184.3 21.19 Q 183.5 22.11 182.09 22.11 Q 180.68 22.11 179.87 21.19 Q 179.08 20.27 179.08 18.66 Q 179.08 17.05 179.87 16.13 Q 180.68 15.22 182.09 15.22 z M 192.34 17.98 L 192.34 21.94 L 191.27 21.94 L 191.27 18.01 Q 191.27 17.08 190.9 16.62 Q 190.54 16.16 189.81 16.16 Q 188.94 16.16 188.44 16.71 Q 187.93 17.27 187.93 18.23 L 187.93 21.94 L 186.85 21.94 L 186.85 15.38 L 187.93 15.38 L 187.93 16.4 Q 188.32 15.8 188.84 15.51 Q 189.37 15.22 190.05 15.22 Q 191.18 15.22 191.76 15.92 Q 192.34 16.62 192.34 17.98 z M 198.68 15.57 L 198.68 16.59 Q 198.22 16.35 197.73 16.24 Q 197.24 16.12 196.71 16.12 Q 195.91 16.12 195.5 16.37 Q 195.1 16.61 195.1 17.1 Q 195.1 17.48 195.39 17.7 Q 195.68 17.91 196.54 18.1 L 196.91 18.18 Q 198.06 18.43 198.54 18.88 Q 199.03 19.33 199.03 20.13 Q 199.03 21.04 198.3 21.58 Q 197.58 22.11 196.32 22.11 Q 195.79 22.11 195.21 22.01 Q 194.65 21.9 194.01 21.7 L 194.01 20.59 Q 194.61 20.9 195.19 21.05 Q 195.77 21.21 196.34 21.21 Q 197.1 21.21 197.51 20.95 Q 197.92 20.68 197.92 20.21 Q 197.92 19.77 197.62 19.54 Q 197.33 19.3 196.33 19.09 L 195.95 19 Q 194.95 18.79 194.51 18.35 Q 194.06 17.91 194.06 17.15 Q 194.06 16.23 194.72 15.72 Q 195.37 15.22 196.58 15.22 Q 197.18 15.22 197.7 15.31 Q 198.23 15.39 198.68 15.57 z M 206.36 18.39 L 206.36 18.92 L 201.4 18.92 Q 201.47 20.03 202.07 20.61 Q 202.67 21.19 203.75 21.19 Q 204.37 21.19 204.95 21.04 Q 205.53 20.89 206.11 20.59 L 206.11 21.6 Q 205.53 21.85 204.92 21.98 Q 204.31 22.11 203.68 22.11 Q 202.11 22.11 201.19 21.19 Q 200.28 20.28 200.28 18.72 Q 200.28 17.11 201.14 16.17 Q 202.02 15.22 203.49 15.22 Q 204.82 15.22 205.59 16.07 Q 206.36 16.92 206.36 18.39 M 205.28 18.07 Q 205.27 17.19 204.78 16.66 Q 204.3 16.13 203.51 16.13 Q 202.6 16.13 202.06 16.64 Q 201.52 17.15 201.44 18.08 L 205.28 18.07 z" fill="#000000"/>
</g>
</g>
<g id="axes_2">
<path d="M 337.34 214.12 L 565.2 214.12 L 565.2 30.77 L 337.34 30.77 z" fill="#ffffff"/>
<g id="line2d_3">
<path clip-path="url(#p2)" d="M 347.7 205.78 L 354.84 188.44 L 361.99 172.36 L 369.13 158.66 L 376.27 148.24 L 383.42 141.63 L 390.56 138.99 L 397.7 140.07 L 404.84 144.22 L 411.99 150.47 L 419.13 157.67 L 426.27 164.54 L 433.41 169.83 L 440.56 172.47 L 447.7 171.67 L 454.84 166.96 L 461.99 158.32 L 469.13 146.1 L 476.27 131.03 L 483.41 114.13 L 490.56 96.63 L 497.7 79.79 L 504.84 64.82 L 511.99 52.74 L 519.13 44.27 L 526.27 39.74 L 533.41 39.1 L 540.56 41.88 L 547.7 47.27 L 554.84 54.17" fill="none" stroke="#1f77b4" stroke-width="1.5" stroke-linecap="square" stroke-linejoin="round"/>
<g clip-path="url(#p2)" fill="#1f77b4" stroke="#1f77b4" stroke-width="1" stroke-linejoin="round">
<use href="#m1" x="347.7" y="205.78"/>
<use href="#m1" x="354.84" y="188.44"/>
<use href="#m1" x="361.99" y="172.36"/>
<use href="#m1" x="369.13" y="158.66"/>
<use href="#m1" x="376.27" y="148.24"/>
<use href="#m1" x="383.42" y="141.63"/>
<use href="#m1" x="390.56" y="138.99"/>
<use href="#m1" x="397.7" y="140.07"/>
<use href="#m1" x="404.84" y="144.22"/>
<use href="#m1" x="411.99" y="150.47"/>
<use href="#m1" x="419.13" y="157.67"/>
<use href="#m1" x="426.27" y="164.54"/>
<use href="#m1" x="433.41" y="169.83"/>
<use href="#m1" x="440.56" y="172.47"/>
<use href="#m1" x="447.7" y="171.67"/>
<use href="#m1" x="454.84" y="166.96"/>
<use href="#m1" x="461.99" y="158.32"/>
<use href="#m1" x="469.13" y="146.1"/>
<use href="#m1" x="476.27" y="131.03"/>
<use href="#m1" x="483.41" y="114.13"/>
<use href="#m1" x="490.56" y="96.63"/>
<use href="#m1" x="497.7" y="79.79"/>
<use href="#m1" x="504.84" y="64.82"/>
<use href="#m1" x="511.99" y="52.74"/>
<use href="#m1" x="519.13" y="44.27"/>
<use href="#m1" x="526.27" y="39.74"/>
<use href="#m1" x="533.41" y="39.1"/>
<use href="#m1" x="540.56" y="41.88"/>
<use href="#m1" x="547.7" y="47.27"/>
<use href="#m1" x="554.84" y="54.17"/>
</g>
</g>
<g id="spines_2">
<path d="M 337.34 214.12 L 565.2 214.12 L 565.2 30.77 L 337.34 30.77 z" fill="none" stroke="#000000" stroke-width="0.8" stroke-linecap="square" stroke-linejoin="round"/>
</g>
<g id="xtick_2">
<path d="M 361.99 214.12 L 361.99 217.62" fill="none" stroke="#000000" stroke-width="0.8" stroke-linejoin="round"/>
<path d="M 356.86 229.57 L 358.48 229.57 L 358.48 224.01 L 356.72 224.36 L 356.72 223.46 L 358.47 223.11 L 359.45 223.11 L 359.45 229.57 L 361.06 229.57 L 361.06 230.4 L 356.86 230.4 L 356.86 229.57 z M 362.81 223.11 L 367.49 223.11 L 367.49 223.53 L 364.85 230.4 L 363.82 230.4 L 366.31 223.94 L 362.81 223.94 L 362.81 223.11 z" fill="#000000"/>
<path d="M 390.56 214.12 L 390.56 217.62" fill="none" stroke="#000000" stroke-width="0.8" stroke-linejoin="round"/>
<path d="M 386.11 229.57 L 389.56 229.57 L 389.56 230.4 L 384.93 230.4 L 384.93 229.57 Q 385.49 228.99 386.46 228.01 Q 387.43 227.03 387.68 226.75 Q 388.15 226.22 388.34 225.85 Q 388.53 225.48 388.53 225.12 Q 388.53 224.54 388.12 224.18 Q 387.71 223.81 387.06 223.81 Q 386.59 223.81 386.08 223.97 Q 385.56 224.13 384.98 224.46 L 384.98 223.46 Q 385.57 223.22 386.09 223.1 Q 386.61 222.98 387.04 222.98 Q 388.17 222.98 388.84 223.55 Q 389.52 224.11 389.52 225.06 Q 389.52 225.51 389.35 225.91 Q 389.18 226.31 388.74 226.86 Q 388.61 227 387.96 227.68 Q 387.31 228.36 386.11 229.57 z M 391.8 229.57 L 393.41 229.57 L 393.41 224.01 L 391.66 224.36 L 391.66 223.46 L 393.4 223.11 L 394.39 223.11 L 394.39 229.57 L 396 229.57 L 396 230.4 L 391.8 230.4 L 391.8 229.57 z" fill="#000000"/>
<path d="M 419.13 214.12 L 419.13 217.62" fill="none" stroke="#000000" stroke-width="0.8" stroke-linejoin="round"/>
<path d="M 414.69 229.57 L 418.13 229.57 L 418.13 230.4 L 413.5 230.4 L 413.5 229.57 Q 414.06 228.99 415.03 228.01 Q 416 227.03 416.25 226.75 Q 416.72 226.22 416.91 225.85 Q 417.1 225.48 417.1 225.12 Q 417.1 224.54 416.69 224.18 Q 416.28 223.81 415.63 223.81 Q 415.16 223.81 414.65 223.97 Q 414.13 224.13 413.55 224.46 L 413.55 223.46 Q 414.14 223.22 414.66 223.1 Q 415.18 222.98 415.61 222.98 Q 416.74 222.98 417.42 223.55 Q 418.09 224.11 418.09 225.06 Q 418.09 225.51 417.92 225.91 Q 417.75 226.31 417.31 226.86 Q 417.19 227 416.53 227.68 Q 415.88 228.36 414.69 229.57 z M 420.21 223.11 L 424.08 223.11 L 424.08 223.94 L 421.11 223.94 L 421.11 225.73 Q 421.33 225.65 421.54 225.62 Q 421.76 225.58 421.97 225.58 Q 423.19 225.58 423.9 226.25 Q 424.62 226.92 424.62 228.06 Q 424.62 229.24 423.89 229.89 Q 423.15 230.54 421.82 230.54 Q 421.36 230.54 420.88 230.46 Q 420.41 230.39 419.9 230.23 L 419.9 229.24 Q 420.34 229.48 420.81 229.6 Q 421.28 229.71 421.8 229.71 Q 422.64 229.71 423.14 229.27 Q 423.63 228.82 423.63 228.06 Q 423.63 227.3 423.14 226.86 Q 422.64 226.41 421.8 226.41 Q 421.4 226.41 421.01 226.5 Q 420.62 226.59 420.21 226.77 L 420.21 223.11 z" fill="#000000"/>
<path d="M 447.7 214.12 L 447.7 217.62" fill="none" stroke="#000000" stroke-width="0.8" stroke-linejoin="round"/>
<path d="M 443.26 229.57 L 446.7 229.57 L 446.7 230.4 L 442.07 230.4 L 442.07 229.57 Q 442.63 228.99 443.6 228.01 Q 444.57 227.03 444.82 226.75 Q 445.29 226.22 445.48 225.85 Q 445.67 225.48 445.67 225.12 Q 445.67 224.54 445.26 224.18 Q 444.85 223.81 444.2 223.81 Q 443.74 223.81 443.22 223.97 Q 442.71 224.13 442.12 224.46 L 442.12 223.46 Q 442.72 223.22 443.23 223.1 Q 443.75 222.98 444.18 222.98 Q 445.31 222.98 445.99 223.55 Q 446.66 224.11 446.66 225.06 Q 446.66 225.51 446.49 225.91 Q 446.32 226.31 445.88 226.86 Q 445.76 227 445.1 227.68 Q 444.45 228.36 443.26 229.57 z M 448.8 230.25 L 448.8 229.35 Q 449.17 229.53 449.55 229.62 Q 449.93 229.71 450.3 229.71 Q 451.27 229.71 451.79 229.06 Q 452.31 228.4 452.38 227.06 Q 452.1 227.48 451.66 227.71 Q 451.23 227.93 450.7 227.93 Q 449.6 227.93 448.97 227.27 Q 448.33 226.61 448.33 225.46 Q 448.33 224.34 448.99 223.66 Q 449.66 222.98 450.76 222.98 Q 452.03 222.98 452.69 223.95 Q 453.36 224.92 453.36 226.76 Q 453.36 228.49 452.54 229.52 Q 451.72 230.54 450.34 230.54 Q 449.97 230.54 449.59 230.47 Q 449.21 230.4 448.8 230.25 M 450.76 227.16 Q 451.43 227.16 451.81 226.7 Q 452.2 226.25 452.2 225.46 Q 452.2 224.67 451.81 224.22 Q 451.43 223.76 450.76 223.76 Q 450.1 223.76 449.71 224.22 Q 449.32 224.67 449.32 225.46 Q 449.32 226.25 449.71 226.7 Q 450.1 227.16 450.76 227.16 z" fill="#000000"/>
<path d="M 461.99 214.12 L 461.99 217.62" fill="none" stroke="#000000" stroke-width="0.8" stroke-linejoin="round"/>
<path d="M 456.93 223.11 L 457.92 223.11 L 457.92 229.89 Q 457.92 231.21 457.42 231.81 Q 456.92 232.4 455.81 232.4 L 455.44 232.4 L 455.44 231.57 L 455.74 231.57 Q 456.4 231.57 456.67 231.21 Q 456.93 230.84 456.93 229.89 L 456.93 223.11 z M 459.75 228.24 L 459.75 224.93 L 460.65 224.93 L 460.65 228.21 Q 460.65 228.98 460.95 229.38 Q 461.26 229.76 461.86 229.76 Q 462.59 229.76 463.01 229.3 Q 463.43 228.83 463.43 228.03 L 463.43 224.93 L 464.33 224.93 L 464.33 230.4 L 463.43 230.4 L 463.43 229.56 Q 463.11 230.06 462.67 230.3 Q 462.24 230.54 461.67 230.54 Q 460.73 230.54 460.24 229.96 Q 459.75 229.37 459.75 228.24 M 462.01 224.8 L 462.01 224.8 z M 466.18 222.8 L 467.08 222.8 L 467.08 230.4 L 466.18 230.4 L 466.18 222.8 z" fill="#000000"/>
<path d="M 490.56 214.12 L 490.56 217.62" fill="none" stroke="#000000" stroke-width="0.8" stroke-linejoin="round"/>
<path d="M 487.37 223.76 Q 486.61 223.76 486.23 224.51 Q 485.85 225.26 485.85 226.76 Q 485.85 228.26 486.23 229.01 Q 486.61 229.76 487.37 229.76 Q 488.14 229.76 488.52 229.01 Q 488.91 228.26 488.91 226.76 Q 488.91 225.26 488.52 224.51 Q 488.14 223.76 487.37 223.76 M 487.37 222.98 Q 488.6 222.98 489.24 223.95 Q 489.89 224.92 489.89 226.76 Q 489.89 228.6 489.24 229.58 Q 488.6 230.54 487.37 230.54 Q 486.15 230.54 485.5 229.58 Q 484.85 228.6 484.85 226.76 Q 484.85 224.92 485.5 223.95 Q 486.15 222.98 487.37 222.98 z M 491.64 223.11 L 495.51 223.11 L 495.51 223.94 L 492.54 223.94 L 492.54 225.73 Q 492.75 225.65 492.97 225.62 Q 493.18 225.58 493.4 225.58 Q 494.62 225.58 495.33 226.25 Q 496.05 226.92 496.05 228.06 Q 496.05 229.24 495.31 229.89 Q 494.58 230.54 493.25 230.54 Q 492.79 230.54 492.31 230.46 Q 491.84 230.39 491.33 230.23 L 491.33 229.24 Q 491.77 229.48 492.24 229.6 Q 492.71 229.71 493.23 229.71 Q 494.07 229.71 494.57 229.27 Q 495.06 228.82 495.06 228.06 Q 495.06 227.3 494.57 226.86 Q 494.07 226.41 493.23 226.41 Q 492.83 226.41 492.44 226.5 Q 492.05 226.59 491.64 226.77 L 491.64 223.11 z" fill="#000000"/>
<path d="M 519.13 214.12 L 519.13 217.62" fill="none" stroke="#000000" stroke-width="0.8" stroke-linejoin="round"/>
<path d="M 515.95 223.76 Q 515.18 223.76 514.8 224.51 Q 514.42 225.26 514.42 226.76 Q 514.42 228.26 514.8 229.01 Q 515.18 229.76 515.95 229.76 Q 516.71 229.76 517.09 229.01 Q 517.48 228.26 517.48 226.76 Q 517.48 225.26 517.09 224.51 Q 516.71 223.76 515.95 223.76 M 515.95 222.98 Q 517.17 222.98 517.82 223.95 Q 518.46 224.92 518.46 226.76 Q 518.46 228.6 517.82 229.58 Q 517.17 230.54 515.95 230.54 Q 514.72 230.54 514.07 229.58 Q 513.43 228.6 513.43 226.76 Q 513.43 224.92 514.07 223.95 Q 514.72 222.98 515.95 222.98 z M 520.23 230.25 L 520.23 229.35 Q 520.6 229.53 520.98 229.62 Q 521.36 229.71 521.73 229.71 Q 522.7 229.71 523.22 229.06 Q 523.73 228.4 523.81 227.06 Q 523.52 227.48 523.09 227.71 Q 522.65 227.93 522.13 227.93 Q 521.03 227.93 520.39 227.27 Q 519.76 226.61 519.76 225.46 Q 519.76 224.34 520.42 223.66 Q 521.09 222.98 522.19 222.98 Q 523.45 222.98 524.12 223.95 Q 524.79 224.92 524.79 226.76 Q 524.79 228.49 523.97 229.52 Q 523.15 230.54 521.77 230.54 Q 521.4 230.54 521.02 230.47 Q 520.64 230.4 520.23 230.25 M 522.19 227.16 Q 522.85 227.16 523.24 226.7 Q 523.63 226.25 523.63 225.46 Q 523.63 224.67 523.24 224.22 Q 522.85 223.76 522.19 223.76 Q 521.53 223.76 521.14 224.22 Q 520.75 224.67 520.75 225.46 Q 520.75 226.25 521.14 226.7 Q 521.53 227.16 522.19 227.16 z" fill="#000000"/>
<path d="M 547.7 214.12 L 547.7 217.62" fill="none" stroke="#000000" stroke-width="0.8" stroke-linejoin="round"/>
<path d="M 542.58 229.57 L 544.19 229.57 L 544.19 224.01 L 542.44 224.36 L 542.44 223.46 L 544.18 223.11 L 545.17 223.11 L 545.17 229.57 L 546.78 229.57 L 546.78 230.4 L 542.58 230.4 L 542.58 229.57 z M 551.76 226.47 Q 552.47 226.62 552.86 227.1 Q 553.26 227.58 553.26 228.28 Q 553.26 229.36 552.52 229.95 Q 551.78 230.54 550.41 230.54 Q 549.95 230.54 549.46 230.45 Q 548.98 230.36 548.46 230.18 L 548.46 229.23 Q 548.87 229.47 549.36 229.59 Q 549.85 229.71 550.38 229.71 Q 551.31 229.71 551.79 229.35 Q 552.28 228.98 552.28 228.28 Q 552.28 227.64 551.83 227.28 Q 551.38 226.91 550.57 226.91 L 549.72 226.91 L 549.72 226.1 L 550.61 226.1 Q 551.34 226.1 551.72 225.81 Q 552.11 225.52 552.11 224.97 Q 552.11 224.41 551.71 224.11 Q 551.31 223.81 550.57 223.81 Q 550.17 223.81 549.7 223.9 Q 549.24 223.98 548.68 224.17 L 548.68 223.29 Q 549.24 223.14 549.73 223.06 Q 550.22 222.98 550.66 222.98 Q 551.78 222.98 552.44 223.49 Q 553.09 224 553.09 224.87 Q 553.09 225.47 552.74 225.89 Q 552.4 226.31 551.76 226.47 z" fill="#000000"/>
</g>
<g id="ytick_2">
<path d="M 337.34 205.78 L 333.84 205.78" fill="none" stroke="#000000" stroke-width="0.8" stroke-linejoin="round"/>
<path d="M 315.52 201.96 L 319.39 201.96 L 319.39 202.79 L 316.42 202.79 L 316.42 204.57 Q 316.64 204.5 316.85 204.47 Q 317.07 204.43 317.28 204.43 Q 318.5 204.43 319.22 205.1 Q 319.93 205.77 319.93 206.91 Q 319.93 208.08 319.2 208.74 Q 318.46 209.39 317.13 209.39 Q 316.67 209.39 316.19 209.31 Q 315.72 209.23 315.21 209.08 L 315.21 208.08 Q 315.65 208.32 316.12 208.44 Q 316.59 208.56 317.11 208.56 Q 317.96 208.56 318.45 208.11 Q 318.94 207.67 318.94 206.91 Q 318.94 206.15 318.45 205.7 Q 317.96 205.26 317.11 205.26 Q 316.72 205.26 316.32 205.35 Q 315.93 205.43 315.52 205.62 L 315.52 201.96 z M 321.87 208.01 L 322.9 208.01 L 322.9 209.25 L 321.87 209.25 L 321.87 208.01 z M 327.16 202.61 Q 326.4 202.61 326.01 203.36 Q 325.63 204.1 325.63 205.61 Q 325.63 207.11 326.01 207.86 Q 326.4 208.61 327.16 208.61 Q 327.93 208.61 328.31 207.86 Q 328.69 207.11 328.69 205.61 Q 328.69 204.1 328.31 203.36 Q 327.93 202.61 327.16 202.61 M 327.16 201.82 Q 328.39 201.82 329.03 202.8 Q 329.68 203.76 329.68 205.61 Q 329.68 207.45 329.03 208.42 Q 328.39 209.39 327.16 209.39 Q 325.93 209.39 325.29 208.42 Q 324.64 207.45 324.64 205.61 Q 324.64 203.76 325.29 202.8 Q 325.93 201.82 327.16 201.82 z" fill="#000000"/>
<path d="M 337.34 173.69 L 333.84 173.69" fill="none" stroke="#000000" stroke-width="0.8" stroke-linejoin="round"/>
<path d="M 315.52 169.86 L 319.39 169.86 L 319.39 170.69 L 316.42 170.69 L 316.42 172.48 Q 316.64 172.41 316.85 172.37 Q 317.07 172.33 317.28 172.33 Q 318.5 172.33 319.22 173 Q 319.93 173.67 319.93 174.81 Q 319.93 175.99 319.2 176.64 Q 318.46 177.29 317.13 177.29 Q 316.67 177.29 316.19 177.22 Q 315.72 177.14 315.21 176.98 L 315.21 175.99 Q 315.65 176.23 316.12 176.35 Q 316.59 176.46 317.11 176.46 Q 317.96 176.46 318.45 176.02 Q 318.94 175.57 318.94 174.81 Q 318.94 174.05 318.45 173.61 Q 317.96 173.16 317.11 173.16 Q 316.72 173.16 316.32 173.25 Q 315.93 173.34 315.52 173.52 L 315.52 169.86 z M 321.87 175.91 L 322.9 175.91 L 322.9 177.15 L 321.87 177.15 L 321.87 175.91 z M 325.06 169.86 L 328.93 169.86 L 328.93 170.69 L 325.96 170.69 L 325.96 172.48 Q 326.18 172.41 326.39 172.37 Q 326.61 172.33 326.82 172.33 Q 328.04 172.33 328.76 173 Q 329.47 173.67 329.47 174.81 Q 329.47 175.99 328.74 176.64 Q 328.01 177.29 326.67 177.29 Q 326.21 177.29 325.73 177.22 Q 325.26 177.14 324.75 176.98 L 324.75 175.99 Q 325.19 176.23 325.66 176.35 Q 326.13 176.46 326.65 176.46 Q 327.5 176.46 327.99 176.02 Q 328.48 175.57 328.48 174.81 Q 328.48 174.05 327.99 173.61 Q 327.5 173.16 326.65 173.16 Q 326.26 173.16 325.86 173.25 Q 325.47 173.34 325.06 173.52 L 325.06 169.86 z" fill="#000000"/>
<path d="M 337.34 141.6 L 333.84 141.6" fill="none" stroke="#000000" stroke-width="0.8" stroke-linejoin="round"/>
<path d="M 317.74 141.02 Q 317.08 141.02 316.69 141.47 Q 316.3 141.93 316.3 142.72 Q 316.3 143.5 316.69 143.96 Q 317.08 144.42 317.74 144.42 Q 318.41 144.42 318.79 143.96 Q 319.18 143.5 319.18 142.72 Q 319.18 141.93 318.79 141.47 Q 318.41 141.02 317.74 141.02 M 319.7 137.93 L 319.7 138.83 Q 319.33 138.65 318.95 138.56 Q 318.57 138.47 318.2 138.47 Q 317.22 138.47 316.71 139.13 Q 316.19 139.78 316.12 141.12 Q 316.41 140.69 316.84 140.47 Q 317.28 140.24 317.8 140.24 Q 318.9 140.24 319.53 140.91 Q 320.17 141.57 320.17 142.72 Q 320.17 143.84 319.51 144.52 Q 318.84 145.2 317.74 145.2 Q 316.48 145.2 315.81 144.23 Q 315.14 143.26 315.14 141.42 Q 315.14 139.69 315.96 138.67 Q 316.78 137.64 318.16 137.64 Q 318.53 137.64 318.91 137.71 Q 319.29 137.78 319.7 137.93 z M 321.87 143.82 L 322.9 143.82 L 322.9 145.06 L 321.87 145.06 L 321.87 143.82 z M 327.16 138.42 Q 326.4 138.42 326.01 139.17 Q 325.63 139.92 325.63 141.42 Q 325.63 142.92 326.01 143.67 Q 326.4 144.42 327.16 144.42 Q 327.93 144.42 328.31 143.67 Q 328.69 142.92 328.69 141.42 Q 328.69 139.92 328.31 139.17 Q 327.93 138.42 327.16 138.42 M 327.16 137.64 Q 328.39 137.64 329.03 138.61 Q 329.68 139.57 329.68 141.42 Q 329.68 143.26 329.03 144.23 Q 328.39 145.2 327.16 145.2 Q 325.93 145.2 325.29 144.23 Q 324.64 143.26 324.64 141.42 Q 324.64 139.57 325.29 138.61 Q 325.93 137.64 327.16 137.64 z" fill="#000000"/>
<path d="M 337.34 109.5 L 333.84 109.5" fill="none" stroke="#000000" stroke-width="0.8" stroke-linejoin="round"/>
<path d="M 317.74 108.93 Q 317.08 108.93 316.69 109.38 Q 316.3 109.83 316.3 110.62 Q 316.3 111.41 316.69 111.87 Q 317.08 112.32 317.74 112.32 Q 318.41 112.32 318.79 111.87 Q 319.18 111.41 319.18 110.62 Q 319.18 109.83 318.79 109.38 Q 318.41 108.93 317.74 108.93 M 319.7 105.83 L 319.7 106.73 Q 319.33 106.56 318.95 106.46 Q 318.57 106.37 318.2 106.37 Q 317.22 106.37 316.71 107.03 Q 316.19 107.69 316.12 109.02 Q 316.41 108.6 316.84 108.37 Q 317.28 108.14 317.8 108.14 Q 318.9 108.14 319.53 108.81 Q 320.17 109.48 320.17 110.62 Q 320.17 111.75 319.51 112.43 Q 318.84 113.1 317.74 113.1 Q 316.48 113.1 315.81 112.14 Q 315.14 111.17 315.14 109.33 Q 315.14 107.6 315.96 106.57 Q 316.78 105.54 318.16 105.54 Q 318.53 105.54 318.91 105.61 Q 319.29 105.69 319.7 105.83 z M 321.87 111.72 L 322.9 111.72 L 322.9 112.96 L 321.87 112.96 L 321.87 111.72 z M 325.06 105.67 L 328.93 105.67 L 328.93 106.5 L 325.96 106.5 L 325.96 108.29 Q 326.18 108.22 326.39 108.18 Q 326.61 108.14 326.82 108.14 Q 328.04 108.14 328.76 108.81 Q 329.47 109.48 329.47 110.62 Q 329.47 111.8 328.74 112.46 Q 328.01 113.1 326.67 113.1 Q 326.21 113.1 325.73 113.03 Q 325.26 112.95 324.75 112.79 L 324.75 111.8 Q 325.19 112.04 325.66 112.16 Q 326.13 112.27 326.65 112.27 Q 327.5 112.27 327.99 111.83 Q 328.48 111.39 328.48 110.62 Q 328.48 109.86 327.99 109.42 Q 327.5 108.97 326.65 108.97 Q 326.26 108.97 325.86 109.06 Q 325.47 109.15 325.06 109.34 L 325.06 105.67 z" fill="#000000"/>
<path d="M 337.34 77.41 L 333.84 77.41" fill="none" stroke="#000000" stroke-width="0.8" stroke-linejoin="round"/>
<path d="M 315.26 73.58 L 319.95 73.58 L 319.95 74 L 317.3 80.87 L 316.27 80.87 L 318.76 74.41 L 315.26 74.41 L 315.26 73.58 z M 321.87 79.63 L 322.9 79.63 L 322.9 80.87 L 321.87 80.87 L 321.87 79.63 z M 327.16 74.23 Q 326.4 74.23 326.01 74.98 Q 325.63 75.73 325.63 77.23 Q 325.63 78.73 326.01 79.48 Q 326.4 80.23 327.16 80.23 Q 327.93 80.23 328.31 79.48 Q 328.69 78.73 328.69 77.23 Q 328.69 75.73 328.31 74.98 Q 327.93 74.23 327.16 74.23 M 327.16 73.45 Q 328.39 73.45 329.03 74.42 Q 329.68 75.39 329.68 77.23 Q 329.68 79.07 329.03 80.04 Q 328.39 81.01 327.16 81.01 Q 325.93 81.01 325.29 80.04 Q 324.64 79.07 324.64 77.23 Q 324.64 75.39 325.29 74.42 Q 325.93 73.45 327.16 73.45 z" fill="#000000"/>
<path d="M 337.34 45.31 L 333.84 45.31" fill="none" stroke="#000000" stroke-width="0.8" stroke-linejoin="round"/>
<path d="M 315.26 41.48 L 319.95 41.48 L 319.95 41.9 L 317.3 48.77 L 316.27 48.77 L 318.76 42.31 L 315.26 42.31 L 315.26 41.48 z M 321.87 47.53 L 322.9 47.53 L 322.9 48.77 L 321.87 48.77 L 321.87 47.53 z M 325.06 41.48 L 328.93 41.48 L 328.93 42.31 L 325.96 42.31 L 325.96 44.1 Q 326.18 44.03 326.39 43.99 Q 326.61 43.95 326.82 43.95 Q 328.04 43.95 328.76 44.62 Q 329.47 45.29 329.47 46.44 Q 329.47 47.61 328.74 48.27 Q 328.01 48.92 326.67 48.92 Q 326.21 48.92 325.73 48.84 Q 325.26 48.76 324.75 48.6 L 324.75 47.61 Q 325.19 47.85 325.66 47.97 Q 326.13 48.09 326.65 48.09 Q 327.5 48.09 327.99 47.64 Q 328.48 47.2 328.48 46.44 Q 328.48 45.67 327.99 45.23 Q 327.5 44.78 326.65 44.78 Q 326.26 44.78 325.86 44.87 Q 325.47 44.96 325.06 45.15 L 325.06 41.48 z" fill="#000000"/>
</g>
<g id="legend_2">
<path d="M 342.34 55.41 L 401.75 55.41 L 401.75 35.77 L 342.34 35.77 z" fill="#ffffff" fill-opacity="0.8" stroke="#cccccc" stroke-width="1" stroke-linejoin="round"/>
<path d="M 346.34 45.59 L 366.34 45.59" fill="none" stroke="#1f77b4" stroke-width="1.5" stroke-linecap="square" stroke-linejoin="round"/>
<g fill="#1f77b4" stroke="#1f77b4" stroke-width="1" stroke-linejoin="round">
<use href="#m1" x="356.34" y="45.59"/>
</g>
<path d="M 374.21 51.13 L 375.68 43.58 L 376.59 43.58 L 375.92 46.99 Q 375.9 47.09 375.89 47.22 Q 375.87 47.34 375.87 47.47 Q 375.87 47.92 376.16 48.17 Q 376.44 48.41 376.98 48.41 Q 377.7 48.41 378.14 48 Q 378.59 47.59 378.74 46.77 L 379.36 43.58 L 380.26 43.58 L 379.45 47.79 Q 379.43 47.88 379.42 47.95 Q 379.41 48.02 379.41 48.07 Q 379.41 48.22 379.47 48.29 Q 379.53 48.36 379.67 48.36 Q 379.72 48.36 379.8 48.34 Q 379.89 48.31 380.04 48.25 L 379.91 48.97 Q 379.69 49.08 379.5 49.14 Q 379.3 49.19 379.11 49.19 Q 378.79 49.19 378.61 48.99 Q 378.43 48.78 378.43 48.42 Q 378.15 48.81 377.77 49 Q 377.4 49.19 376.88 49.19 Q 376.43 49.19 376.09 48.98 Q 375.75 48.77 375.64 48.43 L 375.12 51.13 L 374.21 51.13 z M 383.63 50.15 Q 383.38 50.48 383.03 50.65 Q 382.69 50.82 382.27 50.82 Q 381.69 50.82 381.36 50.43 Q 381.03 50.04 381.03 49.36 Q 381.03 48.79 381.23 48.28 Q 381.43 47.76 381.81 47.36 Q 382.07 47.09 382.38 46.95 Q 382.7 46.8 383.05 46.8 Q 383.42 46.8 383.7 46.98 Q 383.98 47.16 384.14 47.49 L 384.55 45.41 L 385.18 45.41 L 384.14 50.72 L 383.51 50.72 L 383.63 50.15 M 381.68 49.25 Q 381.68 49.74 381.9 50.02 Q 382.13 50.3 382.52 50.3 Q 382.82 50.3 383.07 50.16 Q 383.32 50.01 383.51 49.74 Q 383.71 49.45 383.83 49.07 Q 383.95 48.7 383.95 48.33 Q 383.95 47.86 383.72 47.59 Q 383.5 47.32 383.11 47.32 Q 382.81 47.32 382.55 47.46 Q 382.3 47.6 382.11 47.87 Q 381.92 48.15 381.8 48.53 Q 381.68 48.9 381.68 49.25 z M 388.91 48.54 L 388.48 50.72 L 387.85 50.72 L 387.97 50.14 Q 387.69 50.49 387.34 50.66 Q 386.99 50.82 386.55 50.82 Q 386.06 50.82 385.75 50.53 Q 385.44 50.23 385.44 49.76 Q 385.44 49.09 385.97 48.7 Q 386.51 48.31 387.45 48.31 L 388.32 48.31 L 388.36 48.14 Q 388.36 48.11 388.37 48.08 Q 388.37 48.05 388.37 47.98 Q 388.37 47.68 388.12 47.51 Q 387.87 47.34 387.43 47.34 Q 387.12 47.34 386.79 47.42 Q 386.47 47.49 386.13 47.65 L 386.24 47.07 Q 386.6 46.94 386.93 46.87 Q 387.28 46.8 387.59 46.8 Q 388.27 46.8 388.62 47.1 Q 388.98 47.39 388.98 47.95 Q 388.98 48.07 388.96 48.22 Q 388.94 48.37 388.91 48.54 M 388.23 48.8 L 387.6 48.8 Q 386.83 48.8 386.46 49.01 Q 386.09 49.21 386.09 49.65 Q 386.09 49.95 386.27 50.12 Q 386.47 50.29 386.8 50.29 Q 387.31 50.29 387.7 49.92 Q 388.08 49.56 388.2 48.94 L 388.23 48.8 z M 390.72 45.41 L 391.35 45.41 L 391.2 46.2 L 390.57 46.2 L 390.72 45.41 M 390.43 46.9 L 391.06 46.9 L 390.31 50.72 L 389.69 50.72 L 390.43 46.9 z M 392.67 45.41 L 393.29 45.41 L 392.26 50.72 L 391.63 50.72 L 392.67 45.41 z M 395.07 51.08 Q 394.63 51.81 394.35 52 Q 394.08 52.18 393.65 52.18 L 393.15 52.18 L 393.26 51.65 L 393.62 51.65 Q 393.89 51.65 394.07 51.51 Q 394.26 51.37 394.48 50.95 L 394.68 50.58 L 393.83 46.9 L 394.5 46.9 L 395.13 49.83 L 396.89 46.9 L 397.55 46.9 L 395.07 51.08 z" fill="#000000"/>
</g>
<g id="text_5">
<path d="M 300.48 143.75 L 300.48 142.85 L 308.08 142.85 L 308.08 143.75 L 300.48 143.75 z M 305.12 136.3 L 305.56 136.3 L 305.56 140.43 Q 306.49 140.37 306.98 139.87 Q 307.46 139.37 307.46 138.47 Q 307.46 137.96 307.34 137.47 Q 307.21 136.98 306.95 136.51 L 307.8 136.51 Q 308.01 136.99 308.12 137.5 Q 308.22 138.01 308.22 138.53 Q 308.22 139.84 307.46 140.6 Q 306.7 141.36 305.4 141.36 Q 304.06 141.36 303.27 140.64 Q 302.48 139.91 302.48 138.68 Q 302.48 137.58 303.19 136.94 Q 303.9 136.3 305.12 136.3 M 304.86 137.19 Q 304.12 137.2 303.68 137.61 Q 303.24 138.01 303.24 138.67 Q 303.24 139.43 303.67 139.88 Q 304.09 140.33 304.86 140.4 L 304.86 137.19 z M 302.61 135.47 L 302.61 134.51 L 307.2 132.81 L 302.61 131.1 L 302.61 130.14 L 308.08 132.19 L 308.08 133.42 L 302.61 135.47 z M 305.12 124.23 L 305.56 124.23 L 305.56 128.36 Q 306.49 128.3 306.98 127.8 Q 307.46 127.3 307.46 126.4 Q 307.46 125.89 307.34 125.4 Q 307.21 124.91 306.95 124.44 L 307.8 124.44 Q 308.01 124.92 308.12 125.43 Q 308.22 125.93 308.22 126.46 Q 308.22 127.77 307.46 128.53 Q 306.7 129.29 305.4 129.29 Q 304.06 129.29 303.27 128.57 Q 302.48 127.84 302.48 126.61 Q 302.48 125.51 303.19 124.87 Q 303.9 124.23 305.12 124.23 M 304.86 125.12 Q 304.12 125.13 303.68 125.54 Q 303.24 125.94 303.24 126.6 Q 303.24 127.36 303.67 127.81 Q 304.09 128.26 304.86 128.33 L 304.86 125.12 z M 300.48 122.75 L 300.48 121.85 L 308.08 121.85 L 308.08 122.75 L 300.48 122.75 z z M 300.49 114.64 Q 301.62 115.29 302.72 115.61 Q 303.81 115.93 304.94 115.93 Q 306.07 115.93 307.18 115.61 Q 308.28 115.29 309.4 114.64 L 309.4 115.42 Q 308.25 116.15 307.14 116.52 Q 306.04 116.88 304.94 116.88 Q 303.85 116.88 302.75 116.52 Q 301.65 116.15 300.49 115.42 L 300.49 114.64 z M 303.66 108.64 Q 303.06 108.3 302.77 107.83 Q 302.48 107.36 302.48 106.73 Q 302.48 105.87 303.08 105.41 Q 303.68 104.94 304.78 104.94 L 308.08 104.94 L 308.08 105.85 L 304.81 105.85 Q 304.02 105.85 303.64 106.13 Q 303.26 106.4 303.26 106.97 Q 303.26 107.67 303.73 108.08 Q 304.19 108.48 304.99 108.48 L 308.08 108.48 L 308.08 109.39 L 304.81 109.39 Q 304.02 109.39 303.64 109.67 Q 303.26 109.94 303.26 110.52 Q 303.26 111.21 303.73 111.62 Q 304.2 112.02 304.99 112.02 L 308.08 112.02 L 308.08 112.93 L 302.61 112.93 L 302.61 112.02 L 303.46 112.02 Q 302.96 111.72 302.72 111.29 Q 302.48 110.86 302.48 110.27 Q 302.48 109.67 302.78 109.26 Q 303.09 108.84 303.66 108.64 z M 300.49 103.29 L 300.49 102.51 Q 301.65 101.78 302.75 101.42 Q 303.85 101.05 304.94 101.05 Q 306.04 101.05 307.14 101.42 Q 308.25 101.78 309.4 102.51 L 309.4 103.29 Q 308.28 102.64 307.18 102.33 Q 306.07 102 304.94 102 Q 303.81 102 302.72 102.33 Q 301.62 102.64 300.49 103.29 z" fill="#000000"/>
</g>
<g id="text_6">
<path d="M 402.83 12.82 L 402.83 13.72 L 401.8 13.72 Q 401.22 13.72 400.99 13.95 Q 400.77 14.19 400.77 14.8 L 400.77 15.38 L 402.55 15.38 L 402.55 16.21 L 400.77 16.21 L 400.77 21.94 L 399.69 21.94 L 399.69 16.21 L 398.65 16.21 L 398.65 15.38 L 399.69 15.38 L 399.69 14.92 Q 399.69 13.82 400.2 13.33 Q 400.71 12.82 401.81 12.82 L 402.83 12.82 z M 403.73 15.38 L 404.81 15.38 L 404.81 21.94 L 403.73 21.94 L 403.73 15.38 M 403.73 12.82 L 404.81 12.82 L 404.81 14.19 L 403.73 14.19 L 403.73 12.82 z M 412.68 18.39 L 412.68 18.92 L 407.73 18.92 Q 407.8 20.03 408.39 20.61 Q 409 21.19 410.07 21.19 Q 410.69 21.19 411.27 21.04 Q 411.86 20.89 412.43 20.59 L 412.43 21.6 Q 411.85 21.85 411.24 21.98 Q 410.63 22.11 410 22.11 Q 408.43 22.11 407.51 21.19 Q 406.6 20.28 406.6 18.72 Q 406.6 17.11 407.47 16.17 Q 408.34 15.22 409.82 15.22 Q 411.14 15.22 411.91 16.07 Q 412.68 16.92 412.68 18.39 M 411.6 18.07 Q 411.59 17.19 411.11 16.66 Q 410.63 16.13 409.83 16.13 Q 408.93 16.13 408.38 16.64 Q 407.84 17.15 407.76 18.08 L 411.6 18.07 z M 414.45 12.82 L 415.53 12.82 L 415.53 21.94 L 414.45 21.94 L 414.45 12.82 z M 422.1 16.37 L 422.1 12.82 L 423.18 12.82 L 423.18 21.94 L 422.1 21.94 L 422.1 20.95 Q 421.76 21.54 421.24 21.83 Q 420.73 22.11 420 22.11 Q 418.81 22.11 418.06 21.16 Q 417.32 20.21 417.32 18.66 Q 417.32 17.12 418.06 16.17 Q 418.81 15.22 420 15.22 Q 420.73 15.22 421.24 15.51 Q 421.76 15.79 422.1 16.37 M 418.43 18.66 Q 418.43 19.85 418.92 20.53 Q 419.41 21.21 420.26 21.21 Q 421.12 21.21 421.61 20.53 Q 422.1 19.85 422.1 18.66 Q 422.1 17.47 421.61 16.8 Q 421.12 16.12 420.26 16.12 Q 419.41 16.12 418.92 16.8 Q 418.43 17.47 418.43 18.66 z z M 433.54 16.37 L 433.54 12.82 L 434.61 12.82 L 434.61 21.94 L 433.54 21.94 L 433.54 20.95 Q 433.2 21.54 432.67 21.83 Q 432.16 22.11 431.43 22.11 Q 430.24 22.11 429.49 21.16 Q 428.75 20.21 428.75 18.66 Q 428.75 17.12 429.49 16.17 Q 430.24 15.22 431.43 15.22 Q 432.16 15.22 432.67 15.51 Q 433.2 15.79 433.54 16.37 M 429.86 18.66 Q 429.86 19.85 430.35 20.53 Q 430.84 21.21 431.7 21.21 Q 432.55 21.21 433.04 20.53 Q 433.54 19.85 433.54 18.66 Q 433.54 17.47 433.04 16.8 Q 432.55 16.12 431.7 16.12 Q 430.84 16.12 430.35 16.8 Q 429.86 17.47 429.86 18.66 z M 439.82 18.64 Q 438.51 18.64 438.01 18.94 Q 437.5 19.24 437.5 19.96 Q 437.5 20.53 437.88 20.87 Q 438.26 21.21 438.91 21.21 Q 439.81 21.21 440.34 20.57 Q 440.89 19.93 440.89 18.88 L 440.89 18.64 L 439.82 18.64 M 441.97 18.19 L 441.97 21.94 L 440.89 21.94 L 440.89 20.94 Q 440.52 21.54 439.97 21.83 Q 439.42 22.11 438.62 22.11 Q 437.61 22.11 437.02 21.55 Q 436.42 20.98 436.42 20.03 Q 436.42 18.92 437.16 18.36 Q 437.91 17.8 439.38 17.8 L 440.89 17.8 L 440.89 17.69 Q 440.89 16.95 440.4 16.54 Q 439.91 16.13 439.03 16.13 Q 438.46 16.13 437.93 16.27 Q 437.4 16.4 436.9 16.67 L 436.9 15.67 Q 437.5 15.45 438.05 15.34 Q 438.61 15.22 439.14 15.22 Q 440.56 15.22 441.26 15.96 Q 441.97 16.69 441.97 18.19 z M 445.25 13.51 L 445.25 15.38 L 447.48 15.38 L 447.48 16.21 L 445.25 16.21 L 445.25 19.78 Q 445.25 20.58 445.47 20.81 Q 445.69 21.04 446.37 21.04 L 447.48 21.04 L 447.48 21.94 L 446.37 21.94 Q 445.12 21.94 444.65 21.48 Q 444.17 21.01 444.17 19.78 L 444.17 16.21 L 443.38 16.21 L 443.38 15.38 L 444.17 15.38 L 444.17 13.51 L 445.25 13.51 z M 451.88 18.64 Q 450.57 18.64 450.06 18.94 Q 449.56 19.24 449.56 19.96 Q 449.56 20.53 449.94 20.87 Q 450.32 21.21 450.97 21.21 Q 451.86 21.21 452.4 20.57 Q 452.95 19.93 452.95 18.88 L 452.95 18.64 L 451.88 18.64 M 454.03 18.19 L 454.03 21.94 L 452.95 21.94 L 452.95 20.94 Q 452.58 21.54 452.03 21.83 Q 451.48 22.11 450.68 22.11 Q 449.67 22.11 449.07 21.55 Q 448.48 20.98 448.48 20.03 Q 448.48 18.92 449.22 18.36 Q 449.97 17.8 451.44 17.8 L 452.95 17.8 L 452.95 17.69 Q 452.95 16.95 452.46 16.54 Q 451.97 16.13 451.08 16.13 Q 450.52 16.13 449.99 16.27 Q 449.46 16.4 448.96 16.67 L 448.96 15.67 Q 449.56 15.45 450.11 15.34 Q 450.67 15.22 451.2 15.22 Q 452.62 15.22 453.32 15.96 Q 454.03 16.69 454.03 18.19 z M 456.52 20.45 L 457.76 20.45 L 457.76 21.46 L 456.8 23.33 L 456.04 23.33 L 456.52 21.46 L 456.52 20.45 z z M 466.9 16.23 Q 466.01 16.23 465.41 16.88 Q 464.77 17.55 464.56 18.66 Q 464.33 19.84 464.7 20.52 Q 465.07 21.19 465.94 21.19 Q 466.81 21.19 467.44 20.51 Q 468.08 19.84 468.31 18.66 Q 468.51 17.59 468.15 16.88 Q 467.81 16.23 466.9 16.23 M 467.07 15.37 L 470.65 15.38 L 470.44 16.45 L 469.24 16.45 Q 469.69 17.37 469.45 18.66 Q 469.13 20.27 468.15 21.19 Q 467.17 22.11 465.76 22.11 Q 464.35 22.11 463.73 21.19 Q 463.11 20.27 463.42 18.66 Q 463.73 17.05 464.71 16.13 Q 465.53 15.37 467.07 15.37 z M 481.47 16.03 L 475.42 18.18 L 481.47 20.32 L 481.47 21.39 L 473.96 18.66 L 473.96 17.69 L 481.47 14.97 L 481.47 16.03 z M 488.9 13.97 Q 487.98 13.97 487.52 14.87 Q 487.06 15.77 487.06 17.57 Q 487.06 19.37 487.52 20.27 Q 487.98 21.17 488.9 21.17 Q 489.81 21.17 490.27 20.27 Q 490.73 19.37 490.73 17.57 Q 490.73 15.77 490.27 14.87 Q 489.81 13.97 488.9 13.97 M 488.9 13.03 Q 490.37 13.03 491.14 14.2 Q 491.92 15.36 491.92 17.57 Q 491.92 19.78 491.14 20.95 Q 490.37 22.11 488.9 22.11 Q 487.42 22.11 486.65 20.95 Q 485.87 19.78 485.87 17.57 Q 485.87 15.36 486.65 14.2 Q 487.42 13.03 488.9 13.03 z M 494 20.45 L 495.23 20.45 L 495.23 21.94 L 494 21.94 L 494 20.45 z M 497.82 13.19 L 502.47 13.19 L 502.47 14.19 L 498.91 14.19 L 498.91 16.33 Q 499.17 16.24 499.42 16.2 Q 499.68 16.16 499.94 16.16 Q 501.4 16.16 502.26 16.96 Q 503.12 17.76 503.12 19.13 Q 503.12 20.54 502.24 21.33 Q 501.36 22.11 499.76 22.11 Q 499.21 22.11 498.63 22.01 Q 498.06 21.92 497.46 21.73 L 497.46 20.54 Q 497.98 20.83 498.55 20.97 Q 499.11 21.11 499.73 21.11 Q 500.75 21.11 501.34 20.58 Q 501.93 20.05 501.93 19.13 Q 501.93 18.22 501.34 17.68 Q 500.75 17.15 499.73 17.15 Q 499.26 17.15 498.79 17.26 Q 498.32 17.36 497.82 17.59 L 497.82 13.19 z" fill="#000000"/>
</g>
<path d="M 525.44 241.21 L 528.88 241.21 L 528.88 242.04 L 524.25 242.04 L 524.25 241.21 Q 524.81 240.63 525.78 239.65 Q 526.75 238.67 527 238.39 Q 527.48 237.86 527.66 237.49 Q 527.85 237.12 527.85 236.76 Q 527.85 236.18 527.44 235.82 Q 527.04 235.45 526.38 235.45 Q 525.92 235.45 525.4 235.61 Q 524.89 235.77 524.3 236.1 L 524.3 235.1 Q 524.9 234.86 525.41 234.74 Q 525.93 234.62 526.36 234.62 Q 527.49 234.62 528.17 235.19 Q 528.84 235.75 528.84 236.7 Q 528.84 237.15 528.67 237.55 Q 528.51 237.95 528.06 238.5 Q 527.94 238.64 527.28 239.32 Q 526.63 240 525.44 241.21 z M 533.06 235.4 Q 532.3 235.4 531.91 236.15 Q 531.53 236.9 531.53 238.4 Q 531.53 239.9 531.91 240.65 Q 532.3 241.4 533.06 241.4 Q 533.83 241.4 534.21 240.65 Q 534.59 239.9 534.59 238.4 Q 534.59 236.9 534.21 236.15 Q 533.83 235.4 533.06 235.4 M 533.06 234.62 Q 534.29 234.62 534.93 235.59 Q 535.58 236.56 535.58 238.4 Q 535.58 240.24 534.93 241.22 Q 534.29 242.18 533.06 242.18 Q 531.84 242.18 531.19 241.22 Q 530.54 240.24 530.54 238.4 Q 530.54 236.56 531.19 235.59 Q 531.84 234.62 533.06 234.62 z M 538.16 241.21 L 541.61 241.21 L 541.61 242.04 L 536.98 242.04 L 536.98 241.21 Q 537.54 240.63 538.51 239.65 Q 539.48 238.67 539.73 238.39 Q 540.2 237.86 540.39 237.49 Q 540.58 237.12 540.58 236.76 Q 540.58 236.18 540.17 235.82 Q 539.76 235.45 539.11 235.45 Q 538.64 235.45 538.12 235.61 Q 537.61 235.77 537.03 236.1 L 537.03 235.1 Q 537.62 234.86 538.14 234.74 Q 538.66 234.62 539.09 234.62 Q 540.22 234.62 540.89 235.19 Q 541.57 235.75 541.57 236.7 Q 541.57 237.15 541.4 237.55 Q 541.23 237.95 540.79 238.5 Q 540.66 238.64 540.01 239.32 Q 539.36 240 538.16 241.21 z M 545.91 238 Q 545.24 238 544.85 238.46 Q 544.47 238.91 544.47 239.7 Q 544.47 240.49 544.85 240.95 Q 545.24 241.4 545.91 241.4 Q 546.57 241.4 546.96 240.95 Q 547.35 240.49 547.35 239.7 Q 547.35 238.91 546.96 238.46 Q 546.57 238 545.91 238 M 547.87 234.91 L 547.87 235.81 Q 547.49 235.64 547.11 235.54 Q 546.74 235.45 546.37 235.45 Q 545.39 235.45 544.87 236.11 Q 544.36 236.77 544.29 238.1 Q 544.57 237.68 545.01 237.45 Q 545.44 237.22 545.97 237.22 Q 547.07 237.22 547.7 237.89 Q 548.34 238.56 548.34 239.7 Q 548.34 240.83 547.68 241.5 Q 547.01 242.18 545.91 242.18 Q 544.64 242.18 543.97 241.22 Q 543.31 240.24 543.31 238.4 Q 543.31 236.68 544.13 235.65 Q 544.95 234.62 546.33 234.62 Q 546.7 234.62 547.07 234.69 Q 547.46 234.77 547.87 234.91 z M 549.46 238.9 L 552.09 238.9 L 552.09 239.7 L 549.46 239.7 L 549.46 238.9 z M 554.12 234.75 L 555.1 234.75 L 555.1 241.53 Q 555.1 242.85 554.6 243.45 Q 554.1 244.04 552.99 244.04 L 552.62 244.04 L 552.62 243.21 L 552.92 243.21 Q 553.58 243.21 553.85 242.85 Q 554.12 242.48 554.12 241.53 L 554.12 234.75 z M 556.93 239.88 L 556.93 236.57 L 557.83 236.57 L 557.83 239.85 Q 557.83 240.63 558.13 241.02 Q 558.44 241.4 559.04 241.4 Q 559.77 241.4 560.19 240.94 Q 560.62 240.47 560.62 239.67 L 560.62 236.57 L 561.51 236.57 L 561.51 242.04 L 560.62 242.04 L 560.62 241.2 Q 560.29 241.7 559.85 241.94 Q 559.42 242.18 558.85 242.18 Q 557.91 242.18 557.42 241.6 Q 556.93 241.01 556.93 239.88 M 559.19 236.44 L 559.19 236.44 z M 563.36 234.44 L 564.26 234.44 L 564.26 242.04 L 563.36 242.04 L 563.36 234.44 z" fill="#000000"/>
</g>
</g>
</svg>
