<?xml version="1.0" encoding="utf-8" standalone="no"?>
<!DOCTYPE svg PUBLIC "-//W3C//DTD SVG 1.1//EN" "http://www.w3.org/Graphics/SVG/1.1/DTD/svg11.dtd">
<svg xmlns="http://www.w3.org/2000/svg" width="460.8pt" height="288pt" viewBox="0 0 460.8 288" version="1.1">
<defs>
<clipPath id="p1"><rect x="57.6" y="34.56" width="357.12" height="221.76"/></clipPath>
</defs>
<g id="figure_1">
<path d="M 0 288 L 460.8 288 L 460.8 0 L 0 0 z" fill="#ffffff"/>
<g id="axes_1">
<path d="M 57.6 256.32 L 414.72 256.32 L 414.72 34.56 L 57.6 34.56 z" fill="#ffffff"/>
<g id="line2d_1">
<path clip-path="url(#p1)" d="M 73.83 145.44 L 85.25 123.34 L 91.78 111.13 L 96.67 102.32 L 101.57 93.89 L 106.46 85.93 L 111.36 78.5 L 114.62 73.88 L 117.88 69.54 L 121.14 65.51 L 124.41 61.79 L 127.67 58.41 L 130.93 55.37 L 134.2 52.7 L 137.46 50.39 L 140.72 48.46 L 143.98 46.92 L 147.25 45.77 L 150.51 45.02 L 153.77 44.67 L 157.04 44.72 L 160.3 45.17 L 163.56 46.02 L 166.82 47.27 L 170.09 48.91 L 173.35 50.93 L 176.61 53.33 L 179.88 56.1 L 183.14 59.22 L 186.4 62.69 L 189.66 66.49 L 192.93 70.6 L 196.19 75.01 L 199.45 79.7 L 204.35 87.22 L 209.24 95.27 L 214.14 103.76 L 220.66 115.66 L 228.82 131.17 L 251.66 175.22 L 258.18 187.12 L 263.08 195.61 L 267.97 203.66 L 272.87 211.18 L 276.13 215.87 L 279.39 220.28 L 282.66 224.39 L 285.92 228.19 L 289.18 231.66 L 292.44 234.78 L 295.71 237.55 L 298.97 239.95 L 302.23 241.97 L 305.5 243.61 L 308.76 244.86 L 312.02 245.71 L 315.28 246.16 L 318.55 246.21 L 321.81 245.86 L 325.07 245.11 L 328.34 243.96 L 331.6 242.42 L 334.86 240.49 L 338.12 238.18 L 341.39 235.51 L 344.65 232.47 L 347.91 229.09 L 351.18 225.37 L 354.44 221.34 L 357.7 217 L 360.96 212.38 L 365.86 204.95 L 370.75 196.99 L 375.65 188.56 L 380.54 179.75 L 387.07 167.54 L 396.86 148.62 L 398.49 145.44 L 398.49 145.44" fill="none" stroke="#1f77b4" stroke-width="2" stroke-linecap="square" stroke-linejoin="round"/>
</g>
<g id="line2d_2">
<path clip-path="url(#p1)" d="M 73.83 97.06 L 78.73 90.59 L 83.62 84.61 L 86.88 80.92 L 90.15 77.49 L 93.41 74.33 L 96.67 71.46 L 99.94 68.88 L 103.2 66.6 L 106.46 64.64 L 109.72 63 L 112.99 61.69 L 116.25 60.72 L 119.51 60.08 L 122.78 59.78 L 126.04 59.82 L 129.3 60.21 L 132.56 60.93 L 135.83 61.99 L 139.09 63.39 L 142.35 65.11 L 145.62 67.15 L 148.88 69.5 L 152.14 72.16 L 155.4 75.11 L 158.67 78.34 L 161.93 81.83 L 165.19 85.58 L 170.09 91.65 L 174.98 98.2 L 179.88 105.17 L 184.77 112.5 L 191.3 122.73 L 199.45 136 L 219.03 168.17 L 225.56 178.39 L 230.45 185.73 L 235.34 192.7 L 240.24 199.25 L 245.13 205.31 L 248.4 209.06 L 251.66 212.55 L 254.92 215.78 L 258.18 218.73 L 261.45 221.38 L 264.71 223.74 L 267.97 225.78 L 271.24 227.5 L 274.5 228.89 L 277.76 229.95 L 281.02 230.67 L 284.29 231.06 L 287.55 231.1 L 290.81 230.8 L 294.08 230.16 L 297.34 229.18 L 300.6 227.87 L 303.86 226.23 L 307.13 224.27 L 310.39 221.99 L 313.65 219.41 L 316.92 216.54 L 320.18 213.38 L 323.44 209.95 L 326.7 206.26 L 329.97 202.33 L 334.86 196.01 L 339.76 189.25 L 344.65 182.09 L 351.18 172.04 L 357.7 161.57 L 369.12 142.73 L 380.54 124.02 L 387.07 113.74 L 391.96 106.35 L 396.86 99.32 L 398.49 97.06 L 398.49 97.06" fill="none" stroke="#ff7f0e" stroke-width="2" stroke-linecap="square" stroke-linejoin="round"/>
</g>
<g id="line2d_3">
<path clip-path="url(#p1)" d="M 73.83 79.67 L 77.1 78.19 L 80.36 76.98 L 83.62 76.03 L 86.88 75.37 L 90.15 74.98 L 93.41 74.88 L 96.67 75.06 L 99.94 75.51 L 103.2 76.25 L 106.46 77.26 L 109.72 78.55 L 112.99 80.1 L 116.25 81.91 L 119.51 83.97 L 122.78 86.28 L 126.04 88.82 L 129.3 91.59 L 132.56 94.58 L 137.46 99.43 L 142.35 104.7 L 147.25 110.33 L 152.14 116.28 L 158.67 124.6 L 166.82 135.46 L 189.66 166.3 L 196.19 174.63 L 201.08 180.57 L 205.98 186.2 L 210.87 191.47 L 215.77 196.32 L 219.03 199.3 L 222.29 202.07 L 225.56 204.62 L 228.82 206.92 L 232.08 208.99 L 235.34 210.79 L 238.61 212.34 L 241.87 213.63 L 245.13 214.64 L 248.4 215.37 L 251.66 215.83 L 254.92 216 L 258.18 215.89 L 261.45 215.51 L 264.71 214.84 L 267.97 213.9 L 271.24 212.68 L 274.5 211.2 L 277.76 209.45 L 281.02 207.45 L 284.29 205.2 L 287.55 202.71 L 290.81 200 L 294.08 197.07 L 298.97 192.29 L 303.86 187.08 L 308.76 181.51 L 313.65 175.61 L 320.18 167.34 L 328.34 156.52 L 354.44 121.41 L 360.96 113.24 L 365.86 107.45 L 370.75 102 L 375.65 96.93 L 380.54 92.3 L 383.8 89.48 L 387.07 86.88 L 390.33 84.51 L 393.59 82.39 L 396.86 80.51 L 398.49 79.67 L 398.49 79.67" fill="none" stroke="#2ca02c" stroke-width="2" stroke-linecap="square" stroke-linejoin="round"/>
</g>
<g id="line2d_4">
<path clip-path="url(#p1)" d="M 73.83 91.45 L 77.1 92.35 L 80.36 93.46 L 83.62 94.79 L 86.88 96.31 L 90.15 98.03 L 93.41 99.94 L 96.67 102.03 L 101.57 105.48 L 106.46 109.3 L 111.36 113.43 L 116.25 117.86 L 122.78 124.14 L 129.3 130.75 L 139.09 141.08 L 157.04 160.16 L 163.56 166.77 L 170.09 173.05 L 174.98 177.47 L 179.88 181.61 L 184.77 185.42 L 189.66 188.87 L 192.93 190.96 L 196.19 192.87 L 199.45 194.59 L 202.72 196.11 L 205.98 197.43 L 209.24 198.54 L 212.5 199.44 L 215.77 200.12 L 219.03 200.59 L 222.29 200.84 L 225.56 200.87 L 228.82 200.67 L 232.08 200.26 L 235.34 199.62 L 238.61 198.77 L 241.87 197.71 L 245.13 196.44 L 248.4 194.97 L 251.66 193.3 L 254.92 191.44 L 258.18 189.39 L 263.08 186 L 267.97 182.24 L 272.87 178.16 L 277.76 173.78 L 282.66 169.14 L 289.18 162.64 L 297.34 154.14 L 323.44 126.55 L 329.97 120.14 L 334.86 115.59 L 339.76 111.3 L 344.65 107.32 L 349.54 103.69 L 354.44 100.42 L 357.7 98.47 L 360.96 96.71 L 364.23 95.13 L 367.49 93.76 L 370.75 92.6 L 374.02 91.65 L 377.28 90.91 L 380.54 90.38 L 383.8 90.08 L 387.07 90 L 390.33 90.14 L 393.59 90.5 L 396.86 91.08 L 398.49 91.45 L 398.49 91.45" fill="none" stroke="#d62728" stroke-width="2" stroke-linecap="square" stroke-linejoin="round"/>
</g>
<g id="spines_1">
<path d="M 57.6 256.32 L 414.72 256.32 L 414.72 34.56 L 57.6 34.56 z" fill="none" stroke="#000000" stroke-width="0.8" stroke-linecap="square" stroke-linejoin="round"/>
</g>
<g id="xtick_1">
<path d="M 73.83 256.32 L 73.83 259.82" fill="none" stroke="#000000" stroke-width="0.8" stroke-linejoin="round"/>
<path d="M 73.83 265.96 Q 73.07 265.96 72.68 266.71 Q 72.3 267.46 72.3 268.96 Q 72.3 270.46 72.68 271.22 Q 73.07 271.96 73.83 271.96 Q 74.6 271.96 74.98 271.22 Q 75.36 270.46 75.36 268.96 Q 75.36 267.46 74.98 266.71 Q 74.6 265.96 73.83 265.96 M 73.83 265.18 Q 75.06 265.18 75.7 266.15 Q 76.35 267.12 76.35 268.96 Q 76.35 270.81 75.7 271.78 Q 75.06 272.74 73.83 272.74 Q 72.6 272.74 71.96 271.78 Q 71.31 270.81 71.31 268.96 Q 71.31 267.12 71.96 266.15 Q 72.6 265.18 73.83 265.18 z" fill="#000000"/>
<path d="M 125.5 256.32 L 125.5 259.82" fill="none" stroke="#000000" stroke-width="0.8" stroke-linejoin="round"/>
<path d="M 123.56 271.77 L 125.17 271.77 L 125.17 266.21 L 123.42 266.56 L 123.42 265.66 L 125.16 265.31 L 126.15 265.31 L 126.15 271.77 L 127.76 271.77 L 127.76 272.6 L 123.56 272.6 L 123.56 271.77 z" fill="#000000"/>
<path d="M 177.17 256.32 L 177.17 259.82" fill="none" stroke="#000000" stroke-width="0.8" stroke-linejoin="round"/>
<path d="M 175.91 271.77 L 179.35 271.77 L 179.35 272.6 L 174.72 272.6 L 174.72 271.77 Q 175.29 271.19 176.25 270.21 Q 177.22 269.23 177.47 268.95 Q 177.95 268.42 178.13 268.05 Q 178.32 267.68 178.32 267.32 Q 178.32 266.74 177.91 266.38 Q 177.51 266.01 176.85 266.01 Q 176.39 266.01 175.87 266.17 Q 175.36 266.33 174.77 266.66 L 174.77 265.66 Q 175.37 265.42 175.89 265.3 Q 176.4 265.18 176.83 265.18 Q 177.97 265.18 178.64 265.75 Q 179.31 266.31 179.31 267.26 Q 179.31 267.71 179.14 268.11 Q 178.98 268.52 178.53 269.06 Q 178.41 269.2 177.76 269.88 Q 177.1 270.56 175.91 271.77 z" fill="#000000"/>
<path d="M 228.84 256.32 L 228.84 259.82" fill="none" stroke="#000000" stroke-width="0.8" stroke-linejoin="round"/>
<path d="M 229.72 268.67 Q 230.43 268.82 230.82 269.3 Q 231.22 269.78 231.22 270.48 Q 231.22 271.56 230.48 272.15 Q 229.74 272.74 228.37 272.74 Q 227.91 272.74 227.43 272.66 Q 226.94 272.56 226.42 272.38 L 226.42 271.43 Q 226.83 271.67 227.32 271.79 Q 227.81 271.91 228.34 271.91 Q 229.27 271.91 229.75 271.55 Q 230.24 271.18 230.24 270.48 Q 230.24 269.84 229.79 269.48 Q 229.34 269.11 228.53 269.11 L 227.68 269.11 L 227.68 268.3 L 228.57 268.3 Q 229.3 268.3 229.69 268.01 Q 230.07 267.72 230.07 267.17 Q 230.07 266.61 229.67 266.31 Q 229.28 266.01 228.53 266.01 Q 228.13 266.01 227.66 266.1 Q 227.2 266.19 226.64 266.37 L 226.64 265.49 Q 227.21 265.34 227.69 265.26 Q 228.19 265.18 228.62 265.18 Q 229.74 265.18 230.4 265.69 Q 231.05 266.2 231.05 267.07 Q 231.05 267.68 230.71 268.1 Q 230.36 268.51 229.72 268.67 z" fill="#000000"/>
<path d="M 280.51 256.32 L 280.51 259.82" fill="none" stroke="#000000" stroke-width="0.8" stroke-linejoin="round"/>
<path d="M 281.11 266.17 L 278.62 270.06 L 281.11 270.06 L 281.11 266.17 M 280.85 265.31 L 282.09 265.31 L 282.09 270.06 L 283.13 270.06 L 283.13 270.88 L 282.09 270.88 L 282.09 272.6 L 281.11 272.6 L 281.11 270.88 L 277.82 270.88 L 277.82 269.93 L 280.85 265.31 z" fill="#000000"/>
<path d="M 332.18 256.32 L 332.18 259.82" fill="none" stroke="#000000" stroke-width="0.8" stroke-linejoin="round"/>
<path d="M 330.08 265.31 L 333.95 265.31 L 333.95 266.14 L 330.99 266.14 L 330.99 267.93 Q 331.2 267.86 331.42 267.82 Q 331.63 267.78 331.85 267.78 Q 333.07 267.78 333.78 268.45 Q 334.49 269.12 334.49 270.26 Q 334.49 271.44 333.76 272.09 Q 333.03 272.74 331.69 272.74 Q 331.23 272.74 330.76 272.67 Q 330.28 272.59 329.77 272.43 L 329.77 271.44 Q 330.21 271.68 330.68 271.8 Q 331.15 271.91 331.67 271.91 Q 332.52 271.91 333.01 271.47 Q 333.51 271.03 333.51 270.26 Q 333.51 269.5 333.01 269.06 Q 332.52 268.61 331.67 268.61 Q 331.28 268.61 330.88 268.7 Q 330.49 268.79 330.08 268.97 L 330.08 265.31 z" fill="#000000"/>
<path d="M 383.85 256.32 L 383.85 259.82" fill="none" stroke="#000000" stroke-width="0.8" stroke-linejoin="round"/>
<path d="M 383.97 268.56 Q 383.31 268.56 382.92 269.02 Q 382.53 269.47 382.53 270.26 Q 382.53 271.05 382.92 271.51 Q 383.31 271.96 383.97 271.96 Q 384.64 271.96 385.02 271.51 Q 385.42 271.05 385.42 270.26 Q 385.42 269.47 385.02 269.02 Q 384.64 268.56 383.97 268.56 M 385.93 265.47 L 385.93 266.37 Q 385.56 266.2 385.18 266.1 Q 384.8 266.01 384.43 266.01 Q 383.46 266.01 382.94 266.67 Q 382.43 267.33 382.35 268.66 Q 382.64 268.24 383.08 268.01 Q 383.51 267.78 384.03 267.78 Q 385.13 267.78 385.77 268.45 Q 386.41 269.12 386.41 270.26 Q 386.41 271.39 385.74 272.07 Q 385.08 272.74 383.97 272.74 Q 382.71 272.74 382.04 271.78 Q 381.37 270.81 381.37 268.96 Q 381.37 267.24 382.19 266.21 Q 383.01 265.18 384.39 265.18 Q 384.77 265.18 385.14 265.25 Q 385.52 265.33 385.93 265.47 z" fill="#000000"/>
</g>
<g id="ytick_1">
<path d="M 57.6 246.24 L 54.1 246.24" fill="none" stroke="#000000" stroke-width="0.8" stroke-linejoin="round"/>
<path d="M 21.02 246.16 L 27.27 246.16 L 27.27 246.99 L 21.02 246.99 L 21.02 246.16 z M 29.57 248.87 L 31.19 248.87 L 31.19 243.31 L 29.43 243.67 L 29.43 242.77 L 31.18 242.42 L 32.16 242.42 L 32.16 248.87 L 33.77 248.87 L 33.77 249.71 L 29.57 249.71 L 29.57 248.87 z M 35.77 248.46 L 36.8 248.46 L 36.8 249.71 L 35.77 249.71 L 35.77 248.46 z M 41.05 243.06 Q 40.29 243.06 39.91 243.82 Q 39.53 244.56 39.53 246.07 Q 39.53 247.57 39.91 248.32 Q 40.29 249.07 41.05 249.07 Q 41.82 249.07 42.2 248.32 Q 42.59 247.57 42.59 246.07 Q 42.59 244.56 42.2 243.82 Q 41.82 243.06 41.05 243.06 M 41.05 242.28 Q 42.28 242.28 42.92 243.25 Q 43.57 244.22 43.57 246.07 Q 43.57 247.91 42.92 248.88 Q 42.28 249.85 41.05 249.85 Q 39.83 249.85 39.18 248.88 Q 38.53 247.91 38.53 246.07 Q 38.53 244.22 39.18 243.25 Q 39.83 242.28 41.05 242.28 z M 47.42 243.06 Q 46.65 243.06 46.27 243.82 Q 45.89 244.56 45.89 246.07 Q 45.89 247.57 46.27 248.32 Q 46.65 249.07 47.42 249.07 Q 48.18 249.07 48.56 248.32 Q 48.95 247.57 48.95 246.07 Q 48.95 244.56 48.56 243.82 Q 48.18 243.06 47.42 243.06 M 47.42 242.28 Q 48.64 242.28 49.29 243.25 Q 49.94 244.22 49.94 246.07 Q 49.94 247.91 49.29 248.88 Q 48.64 249.85 47.42 249.85 Q 46.19 249.85 45.54 248.88 Q 44.9 247.91 44.9 246.07 Q 44.9 244.22 45.54 243.25 Q 46.19 242.28 47.42 242.28 z" fill="#000000"/>
<path d="M 57.6 221.04 L 54.1 221.04" fill="none" stroke="#000000" stroke-width="0.8" stroke-linejoin="round"/>
<path d="M 21.02 220.95 L 27.27 220.95 L 27.27 221.78 L 21.02 221.78 L 21.02 220.95 z M 31.51 217.86 Q 30.75 217.86 30.37 218.62 Q 29.98 219.36 29.98 220.87 Q 29.98 222.37 30.37 223.12 Q 30.75 223.86 31.51 223.86 Q 32.28 223.86 32.66 223.12 Q 33.05 222.37 33.05 220.87 Q 33.05 219.36 32.66 218.62 Q 32.28 217.86 31.51 217.86 M 31.51 217.08 Q 32.74 217.08 33.38 218.05 Q 34.03 219.02 34.03 220.87 Q 34.03 222.71 33.38 223.68 Q 32.74 224.65 31.51 224.65 Q 30.29 224.65 29.64 223.68 Q 28.99 222.71 28.99 220.87 Q 28.99 219.02 29.64 218.05 Q 30.29 217.08 31.51 217.08 z M 35.77 223.26 L 36.8 223.26 L 36.8 224.5 L 35.77 224.5 L 35.77 223.26 z M 38.7 217.21 L 43.38 217.21 L 43.38 217.63 L 40.74 224.5 L 39.71 224.5 L 42.2 218.04 L 38.7 218.04 L 38.7 217.21 z M 45.32 217.21 L 49.19 217.21 L 49.19 218.04 L 46.22 218.04 L 46.22 219.83 Q 46.43 219.76 46.65 219.72 Q 46.86 219.68 47.08 219.68 Q 48.3 219.68 49.01 220.35 Q 49.73 221.02 49.73 222.17 Q 49.73 223.34 48.99 224 Q 48.26 224.65 46.93 224.65 Q 46.47 224.65 45.99 224.57 Q 45.52 224.49 45.01 224.33 L 45.01 223.34 Q 45.45 223.58 45.92 223.7 Q 46.39 223.82 46.91 223.82 Q 47.75 223.82 48.25 223.37 Q 48.74 222.93 48.74 222.17 Q 48.74 221.4 48.25 220.96 Q 47.75 220.52 46.91 220.52 Q 46.51 220.52 46.12 220.6 Q 45.73 220.69 45.32 220.88 L 45.32 217.21 z" fill="#000000"/>
<path d="M 57.6 195.84 L 54.1 195.84" fill="none" stroke="#000000" stroke-width="0.8" stroke-linejoin="round"/>
<path d="M 21.02 195.75 L 27.27 195.75 L 27.27 196.58 L 21.02 196.58 L 21.02 195.75 z M 31.51 192.66 Q 30.75 192.66 30.37 193.41 Q 29.98 194.16 29.98 195.67 Q 29.98 197.16 30.37 197.92 Q 30.75 198.66 31.51 198.66 Q 32.28 198.66 32.66 197.92 Q 33.05 197.16 33.05 195.67 Q 33.05 194.16 32.66 193.41 Q 32.28 192.66 31.51 192.66 M 31.51 191.88 Q 32.74 191.88 33.38 192.85 Q 34.03 193.82 34.03 195.67 Q 34.03 197.51 33.38 198.48 Q 32.74 199.45 31.51 199.45 Q 30.29 199.45 29.64 198.48 Q 28.99 197.51 28.99 195.67 Q 28.99 193.82 29.64 192.85 Q 30.29 191.88 31.51 191.88 z M 35.77 198.06 L 36.8 198.06 L 36.8 199.3 L 35.77 199.3 L 35.77 198.06 z M 38.95 192.01 L 42.83 192.01 L 42.83 192.84 L 39.86 192.84 L 39.86 194.63 Q 40.07 194.56 40.29 194.52 Q 40.5 194.48 40.72 194.48 Q 41.94 194.48 42.65 195.15 Q 43.36 195.82 43.36 196.96 Q 43.36 198.14 42.63 198.8 Q 41.9 199.45 40.57 199.45 Q 40.11 199.45 39.63 199.37 Q 39.15 199.29 38.65 199.13 L 38.65 198.14 Q 39.09 198.38 39.56 198.5 Q 40.02 198.62 40.55 198.62 Q 41.39 198.62 41.88 198.17 Q 42.38 197.73 42.38 196.96 Q 42.38 196.2 41.88 195.76 Q 41.39 195.31 40.55 195.31 Q 40.15 195.31 39.76 195.4 Q 39.36 195.49 38.95 195.68 L 38.95 192.01 z M 47.42 192.66 Q 46.65 192.66 46.27 193.41 Q 45.89 194.16 45.89 195.67 Q 45.89 197.16 46.27 197.92 Q 46.65 198.66 47.42 198.66 Q 48.18 198.66 48.56 197.92 Q 48.95 197.16 48.95 195.67 Q 48.95 194.16 48.56 193.41 Q 48.18 192.66 47.42 192.66 M 47.42 191.88 Q 48.64 191.88 49.29 192.85 Q 49.94 193.82 49.94 195.67 Q 49.94 197.51 49.29 198.48 Q 48.64 199.45 47.42 199.45 Q 46.19 199.45 45.54 198.48 Q 44.9 197.51 44.9 195.67 Q 44.9 193.82 45.54 192.85 Q 46.19 191.88 47.42 191.88 z" fill="#000000"/>
<path d="M 57.6 170.64 L 54.1 170.64" fill="none" stroke="#000000" stroke-width="0.8" stroke-linejoin="round"/>
<path d="M 21.02 170.55 L 27.27 170.55 L 27.27 171.38 L 21.02 171.38 L 21.02 170.55 z M 31.51 167.46 Q 30.75 167.46 30.37 168.21 Q 29.98 168.96 29.98 170.47 Q 29.98 171.96 30.37 172.72 Q 30.75 173.46 31.51 173.46 Q 32.28 173.46 32.66 172.72 Q 33.05 171.96 33.05 170.47 Q 33.05 168.96 32.66 168.21 Q 32.28 167.46 31.51 167.46 M 31.51 166.68 Q 32.74 166.68 33.38 167.65 Q 34.03 168.62 34.03 170.47 Q 34.03 172.31 33.38 173.28 Q 32.74 174.24 31.51 174.24 Q 30.29 174.24 29.64 173.28 Q 28.99 172.31 28.99 170.47 Q 28.99 168.62 29.64 167.65 Q 30.29 166.68 31.51 166.68 z M 35.77 172.86 L 36.8 172.86 L 36.8 174.1 L 35.77 174.1 L 35.77 172.86 z M 39.79 173.27 L 43.24 173.27 L 43.24 174.1 L 38.61 174.1 L 38.61 173.27 Q 39.17 172.69 40.14 171.72 Q 41.11 170.73 41.36 170.45 Q 41.83 169.92 42.02 169.55 Q 42.21 169.18 42.21 168.82 Q 42.21 168.24 41.8 167.88 Q 41.39 167.51 40.74 167.51 Q 40.27 167.51 39.76 167.67 Q 39.24 167.83 38.66 168.16 L 38.66 167.16 Q 39.25 166.92 39.77 166.8 Q 40.29 166.68 40.72 166.68 Q 41.85 166.68 42.52 167.25 Q 43.2 167.81 43.2 168.76 Q 43.2 169.21 43.03 169.62 Q 42.86 170.02 42.42 170.56 Q 42.29 170.7 41.64 171.38 Q 40.99 172.06 39.79 173.27 z M 45.32 166.81 L 49.19 166.81 L 49.19 167.64 L 46.22 167.64 L 46.22 169.43 Q 46.43 169.36 46.65 169.32 Q 46.86 169.28 47.08 169.28 Q 48.3 169.28 49.01 169.95 Q 49.73 170.62 49.73 171.76 Q 49.73 172.94 48.99 173.59 Q 48.26 174.24 46.93 174.24 Q 46.47 174.24 45.99 174.17 Q 45.52 174.09 45.01 173.93 L 45.01 172.94 Q 45.45 173.18 45.92 173.3 Q 46.39 173.41 46.91 173.41 Q 47.75 173.41 48.25 172.97 Q 48.74 172.53 48.74 171.76 Q 48.74 171 48.25 170.56 Q 47.75 170.11 46.91 170.11 Q 46.51 170.11 46.12 170.2 Q 45.73 170.29 45.32 170.47 L 45.32 166.81 z" fill="#000000"/>
<path d="M 57.6 145.44 L 54.1 145.44" fill="none" stroke="#000000" stroke-width="0.8" stroke-linejoin="round"/>
<path d="M 31.51 142.26 Q 30.75 142.26 30.37 143.01 Q 29.98 143.76 29.98 145.26 Q 29.98 146.76 30.37 147.52 Q 30.75 148.26 31.51 148.26 Q 32.28 148.26 32.66 147.52 Q 33.05 146.76 33.05 145.26 Q 33.05 143.76 32.66 143.01 Q 32.28 142.26 31.51 142.26 M 31.51 141.48 Q 32.74 141.48 33.38 142.45 Q 34.03 143.42 34.03 145.26 Q 34.03 147.11 33.38 148.08 Q 32.74 149.04 31.51 149.04 Q 30.29 149.04 29.64 148.08 Q 28.99 147.11 28.99 145.26 Q 28.99 143.42 29.64 142.45 Q 30.29 141.48 31.51 141.48 z M 35.77 147.66 L 36.8 147.66 L 36.8 148.9 L 35.77 148.9 L 35.77 147.66 z M 41.05 142.26 Q 40.29 142.26 39.91 143.01 Q 39.53 143.76 39.53 145.26 Q 39.53 146.76 39.91 147.52 Q 40.29 148.26 41.05 148.26 Q 41.82 148.26 42.2 147.52 Q 42.59 146.76 42.59 145.26 Q 42.59 143.76 42.2 143.01 Q 41.82 142.26 41.05 142.26 M 41.05 141.48 Q 42.28 141.48 42.92 142.45 Q 43.57 143.42 43.57 145.26 Q 43.57 147.11 42.92 148.08 Q 42.28 149.04 41.05 149.04 Q 39.83 149.04 39.18 148.08 Q 38.53 147.11 38.53 145.26 Q 38.53 143.42 39.18 142.45 Q 39.83 141.48 41.05 141.48 z M 47.42 142.26 Q 46.65 142.26 46.27 143.01 Q 45.89 143.76 45.89 145.26 Q 45.89 146.76 46.27 147.52 Q 46.65 148.26 47.42 148.26 Q 48.18 148.26 48.56 147.52 Q 48.95 146.76 48.95 145.26 Q 48.95 143.76 48.56 143.01 Q 48.18 142.26 47.42 142.26 M 47.42 141.48 Q 48.64 141.48 49.29 142.45 Q 49.94 143.42 49.94 145.26 Q 49.94 147.11 49.29 148.08 Q 48.64 149.04 47.42 149.04 Q 46.19 149.04 45.54 148.08 Q 44.9 147.11 44.9 145.26 Q 44.9 143.42 45.54 142.45 Q 46.19 141.48 47.42 141.48 z" fill="#000000"/>
<path d="M 57.6 120.24 L 54.1 120.24" fill="none" stroke="#000000" stroke-width="0.8" stroke-linejoin="round"/>
<path d="M 31.51 117.06 Q 30.75 117.06 30.37 117.81 Q 29.98 118.56 29.98 120.06 Q 29.98 121.56 30.37 122.31 Q 30.75 123.06 31.51 123.06 Q 32.28 123.06 32.66 122.31 Q 33.05 121.56 33.05 120.06 Q 33.05 118.56 32.66 117.81 Q 32.28 117.06 31.51 117.06 M 31.51 116.28 Q 32.74 116.28 33.38 117.25 Q 34.03 118.22 34.03 120.06 Q 34.03 121.9 33.38 122.88 Q 32.74 123.84 31.51 123.84 Q 30.29 123.84 29.64 122.88 Q 28.99 121.9 28.99 120.06 Q 28.99 118.22 29.64 117.25 Q 30.29 116.28 31.51 116.28 z M 35.77 122.46 L 36.8 122.46 L 36.8 123.7 L 35.77 123.7 L 35.77 122.46 z M 39.79 122.87 L 43.24 122.87 L 43.24 123.7 L 38.61 123.7 L 38.61 122.87 Q 39.17 122.29 40.14 121.31 Q 41.11 120.33 41.36 120.05 Q 41.83 119.52 42.02 119.15 Q 42.21 118.78 42.21 118.42 Q 42.21 117.84 41.8 117.48 Q 41.39 117.11 40.74 117.11 Q 40.27 117.11 39.76 117.27 Q 39.24 117.43 38.66 117.76 L 38.66 116.76 Q 39.25 116.52 39.77 116.4 Q 40.29 116.28 40.72 116.28 Q 41.85 116.28 42.52 116.85 Q 43.2 117.41 43.2 118.36 Q 43.2 118.81 43.03 119.21 Q 42.86 119.61 42.42 120.16 Q 42.29 120.3 41.64 120.98 Q 40.99 121.66 39.79 122.87 z M 45.32 116.41 L 49.19 116.41 L 49.19 117.24 L 46.22 117.24 L 46.22 119.03 Q 46.43 118.96 46.65 118.92 Q 46.86 118.88 47.08 118.88 Q 48.3 118.88 49.01 119.55 Q 49.73 120.22 49.73 121.36 Q 49.73 122.54 48.99 123.19 Q 48.26 123.84 46.93 123.84 Q 46.47 123.84 45.99 123.76 Q 45.52 123.69 45.01 123.53 L 45.01 122.54 Q 45.45 122.78 45.92 122.9 Q 46.39 123.01 46.91 123.01 Q 47.75 123.01 48.25 122.57 Q 48.74 122.12 48.74 121.36 Q 48.74 120.6 48.25 120.16 Q 47.75 119.71 46.91 119.71 Q 46.51 119.71 46.12 119.8 Q 45.73 119.89 45.32 120.07 L 45.32 116.41 z" fill="#000000"/>
<path d="M 57.6 95.04 L 54.1 95.04" fill="none" stroke="#000000" stroke-width="0.8" stroke-linejoin="round"/>
<path d="M 31.51 91.86 Q 30.75 91.86 30.37 92.61 Q 29.98 93.36 29.98 94.86 Q 29.98 96.36 30.37 97.11 Q 30.75 97.86 31.51 97.86 Q 32.28 97.86 32.66 97.11 Q 33.05 96.36 33.05 94.86 Q 33.05 93.36 32.66 92.61 Q 32.28 91.86 31.51 91.86 M 31.51 91.08 Q 32.74 91.08 33.38 92.05 Q 34.03 93.02 34.03 94.86 Q 34.03 96.7 33.38 97.68 Q 32.74 98.64 31.51 98.64 Q 30.29 98.64 29.64 97.68 Q 28.99 96.7 28.99 94.86 Q 28.99 93.02 29.64 92.05 Q 30.29 91.08 31.51 91.08 z M 35.77 97.26 L 36.8 97.26 L 36.8 98.5 L 35.77 98.5 L 35.77 97.26 z M 38.95 91.21 L 42.83 91.21 L 42.83 92.04 L 39.86 92.04 L 39.86 93.83 Q 40.07 93.75 40.29 93.72 Q 40.5 93.68 40.72 93.68 Q 41.94 93.68 42.65 94.35 Q 43.36 95.02 43.36 96.16 Q 43.36 97.34 42.63 97.99 Q 41.9 98.64 40.57 98.64 Q 40.11 98.64 39.63 98.56 Q 39.15 98.49 38.65 98.33 L 38.65 97.34 Q 39.09 97.58 39.56 97.69 Q 40.02 97.81 40.55 97.81 Q 41.39 97.81 41.88 97.37 Q 42.38 96.92 42.38 96.16 Q 42.38 95.4 41.88 94.96 Q 41.39 94.51 40.55 94.51 Q 40.15 94.51 39.76 94.6 Q 39.36 94.69 38.95 94.87 L 38.95 91.21 z M 47.42 91.86 Q 46.65 91.86 46.27 92.61 Q 45.89 93.36 45.89 94.86 Q 45.89 96.36 46.27 97.11 Q 46.65 97.86 47.42 97.86 Q 48.18 97.86 48.56 97.11 Q 48.95 96.36 48.95 94.86 Q 48.95 93.36 48.56 92.61 Q 48.18 91.86 47.42 91.86 M 47.42 91.08 Q 48.64 91.08 49.29 92.05 Q 49.94 93.02 49.94 94.86 Q 49.94 96.7 49.29 97.68 Q 48.64 98.64 47.42 98.64 Q 46.19 98.64 45.54 97.68 Q 44.9 96.7 44.9 94.86 Q 44.9 93.02 45.54 92.05 Q 46.19 91.08 47.42 91.08 z" fill="#000000"/>
<path d="M 57.6 69.84 L 54.1 69.84" fill="none" stroke="#000000" stroke-width="0.8" stroke-linejoin="round"/>
<path d="M 31.51 66.66 Q 30.75 66.66 30.37 67.41 Q 29.98 68.16 29.98 69.66 Q 29.98 71.16 30.37 71.91 Q 30.75 72.66 31.51 72.66 Q 32.28 72.66 32.66 71.91 Q 33.05 71.16 33.05 69.66 Q 33.05 68.16 32.66 67.41 Q 32.28 66.66 31.51 66.66 M 31.51 65.88 Q 32.74 65.88 33.38 66.85 Q 34.03 67.82 34.03 69.66 Q 34.03 71.5 33.38 72.47 Q 32.74 73.44 31.51 73.44 Q 30.29 73.44 29.64 72.47 Q 28.99 71.5 28.99 69.66 Q 28.99 67.82 29.64 66.85 Q 30.29 65.88 31.51 65.88 z M 35.77 72.06 L 36.8 72.06 L 36.8 73.3 L 35.77 73.3 L 35.77 72.06 z M 38.7 66.01 L 43.38 66.01 L 43.38 66.43 L 40.74 73.3 L 39.71 73.3 L 42.2 66.84 L 38.7 66.84 L 38.7 66.01 z M 45.32 66.01 L 49.19 66.01 L 49.19 66.84 L 46.22 66.84 L 46.22 68.63 Q 46.43 68.55 46.65 68.52 Q 46.86 68.48 47.08 68.48 Q 48.3 68.48 49.01 69.15 Q 49.73 69.82 49.73 70.96 Q 49.73 72.14 48.99 72.79 Q 48.26 73.44 46.93 73.44 Q 46.47 73.44 45.99 73.36 Q 45.52 73.28 45.01 73.13 L 45.01 72.14 Q 45.45 72.38 45.92 72.49 Q 46.39 72.61 46.91 72.61 Q 47.75 72.61 48.25 72.17 Q 48.74 71.72 48.74 70.96 Q 48.74 70.2 48.25 69.75 Q 47.75 69.31 46.91 69.31 Q 46.51 69.31 46.12 69.4 Q 45.73 69.49 45.32 69.67 L 45.32 66.01 z" fill="#000000"/>
<path d="M 57.6 44.64 L 54.1 44.64" fill="none" stroke="#000000" stroke-width="0.8" stroke-linejoin="round"/>
<path d="M 29.57 47.27 L 31.19 47.27 L 31.19 41.71 L 29.43 42.06 L 29.43 41.16 L 31.18 40.81 L 32.16 40.81 L 32.16 47.27 L 33.77 47.27 L 33.77 48.1 L 29.57 48.1 L 29.57 47.27 z M 35.77 46.86 L 36.8 46.86 L 36.8 48.1 L 35.77 48.1 L 35.77 46.86 z M 41.05 41.46 Q 40.29 41.46 39.91 42.21 Q 39.53 42.96 39.53 44.46 Q 39.53 45.96 39.91 46.71 Q 40.29 47.46 41.05 47.46 Q 41.82 47.46 42.2 46.71 Q 42.59 45.96 42.59 44.46 Q 42.59 42.96 42.2 42.21 Q 41.82 41.46 41.05 41.46 M 41.05 40.68 Q 42.28 40.68 42.92 41.65 Q 43.57 42.62 43.57 44.46 Q 43.57 46.3 42.92 47.27 Q 42.28 48.24 41.05 48.24 Q 39.83 48.24 39.18 47.27 Q 38.53 46.3 38.53 44.46 Q 38.53 42.62 39.18 41.65 Q 39.83 40.68 41.05 40.68 z M 47.42 41.46 Q 46.65 41.46 46.27 42.21 Q 45.89 42.96 45.89 44.46 Q 45.89 45.96 46.27 46.71 Q 46.65 47.46 47.42 47.46 Q 48.18 47.46 48.56 46.71 Q 48.95 45.96 48.95 44.46 Q 48.95 42.96 48.56 42.21 Q 48.18 41.46 47.42 41.46 M 47.42 40.68 Q 48.64 40.68 49.29 41.65 Q 49.94 42.62 49.94 44.46 Q 49.94 46.3 49.29 47.27 Q 48.64 48.24 47.42 48.24 Q 46.19 48.24 45.54 47.27 Q 44.9 46.3 44.9 44.46 Q 44.9 42.62 45.54 41.65 Q 46.19 40.68 47.42 40.68 z" fill="#000000"/>
</g>
<g id="legend_1">
<path d="M 62.6 251.32 L 134.52 251.32 L 134.52 181.76 L 62.6 181.76 z" fill="#ffffff" fill-opacity="0.8" stroke="#cccccc" stroke-width="1" stroke-linejoin="round"/>
<path d="M 66.6 191.58 L 86.6 191.58" fill="none" stroke="#1f77b4" stroke-width="2" stroke-linecap="square" stroke-linejoin="round"/>
<path d="M 95.02 189.57 L 95.92 189.57 L 97.04 193.84 L 98.16 189.57 L 99.22 189.57 L 100.34 193.84 L 101.46 189.57 L 102.36 189.57 L 100.93 195.04 L 99.87 195.04 L 98.69 190.56 L 97.51 195.04 L 96.45 195.04 L 95.02 189.57 z M 106.21 192.29 Q 105.12 192.29 104.7 192.54 Q 104.28 192.79 104.28 193.39 Q 104.28 193.87 104.59 194.15 Q 104.91 194.43 105.45 194.43 Q 106.2 194.43 106.65 193.9 Q 107.1 193.37 107.1 192.49 L 107.1 192.29 L 106.21 192.29 M 108 191.92 L 108 195.04 L 107.1 195.04 L 107.1 194.21 Q 106.79 194.71 106.33 194.95 Q 105.87 195.18 105.21 195.18 Q 104.37 195.18 103.87 194.71 Q 103.38 194.24 103.38 193.45 Q 103.38 192.53 103.99 192.06 Q 104.61 191.59 105.84 191.59 L 107.1 191.59 L 107.1 191.5 Q 107.1 190.88 106.69 190.54 Q 106.28 190.2 105.55 190.2 Q 105.08 190.2 104.63 190.31 Q 104.19 190.43 103.78 190.65 L 103.78 189.82 Q 104.27 189.63 104.74 189.54 Q 105.2 189.44 105.64 189.44 Q 106.83 189.44 107.41 190.05 Q 108 190.67 108 191.92 z M 109.2 189.57 L 110.16 189.57 L 111.87 194.16 L 113.57 189.57 L 114.53 189.57 L 112.48 195.04 L 111.26 195.04 L 109.2 189.57 z M 120.44 192.08 L 120.44 192.52 L 116.31 192.52 Q 116.37 193.45 116.87 193.94 Q 117.37 194.42 118.27 194.42 Q 118.78 194.42 119.27 194.29 Q 119.76 194.17 120.23 193.91 L 120.23 194.76 Q 119.75 194.97 119.24 195.07 Q 118.74 195.18 118.21 195.18 Q 116.9 195.18 116.14 194.42 Q 115.38 193.66 115.38 192.36 Q 115.38 191.02 116.1 190.23 Q 116.83 189.44 118.06 189.44 Q 119.16 189.44 119.8 190.15 Q 120.44 190.86 120.44 192.08 M 119.55 191.82 Q 119.54 191.08 119.13 190.64 Q 118.73 190.2 118.07 190.2 Q 117.31 190.2 116.86 190.63 Q 116.41 191.05 116.34 191.82 L 119.55 191.82 z z M 127.33 188.4 Q 126.57 188.4 126.19 189.15 Q 125.81 189.9 125.81 191.4 Q 125.81 192.9 126.19 193.65 Q 126.57 194.4 127.33 194.4 Q 128.1 194.4 128.48 193.65 Q 128.87 192.9 128.87 191.4 Q 128.87 189.9 128.48 189.15 Q 128.1 188.4 127.33 188.4 M 127.33 187.62 Q 128.56 187.62 129.2 188.59 Q 129.85 189.56 129.85 191.4 Q 129.85 193.24 129.2 194.21 Q 128.56 195.18 127.33 195.18 Q 126.11 195.18 125.46 194.21 Q 124.81 193.24 124.81 191.4 Q 124.81 189.56 125.46 188.59 Q 126.11 187.62 127.33 187.62 z" fill="#000000"/>
<path d="M 66.6 208.22 L 86.6 208.22" fill="none" stroke="#ff7f0e" stroke-width="2" stroke-linecap="square" stroke-linejoin="round"/>
<path d="M 95.02 206.21 L 95.92 206.21 L 97.04 210.48 L 98.16 206.21 L 99.22 206.21 L 100.34 210.48 L 101.46 206.21 L 102.36 206.21 L 100.93 211.68 L 99.87 211.68 L 98.69 207.2 L 97.51 211.68 L 96.45 211.68 L 95.02 206.21 z M 106.21 208.93 Q 105.12 208.93 104.7 209.18 Q 104.28 209.43 104.28 210.03 Q 104.28 210.51 104.59 210.79 Q 104.91 211.07 105.45 211.07 Q 106.2 211.07 106.65 210.54 Q 107.1 210.01 107.1 209.13 L 107.1 208.93 L 106.21 208.93 M 108 208.56 L 108 211.68 L 107.1 211.68 L 107.1 210.85 Q 106.79 211.35 106.33 211.59 Q 105.87 211.82 105.21 211.82 Q 104.37 211.82 103.87 211.35 Q 103.38 210.88 103.38 210.09 Q 103.38 209.17 103.99 208.7 Q 104.61 208.23 105.84 208.23 L 107.1 208.23 L 107.1 208.14 Q 107.1 207.52 106.69 207.18 Q 106.28 206.84 105.55 206.84 Q 105.08 206.84 104.63 206.95 Q 104.19 207.07 103.78 207.29 L 103.78 206.46 Q 104.27 206.27 104.74 206.18 Q 105.2 206.08 105.64 206.08 Q 106.83 206.08 107.41 206.69 Q 108 207.31 108 208.56 z M 109.2 206.21 L 110.16 206.21 L 111.87 210.8 L 113.57 206.21 L 114.53 206.21 L 112.48 211.68 L 111.26 211.68 L 109.2 206.21 z M 120.44 208.72 L 120.44 209.16 L 116.31 209.16 Q 116.37 210.09 116.87 210.58 Q 117.37 211.06 118.27 211.06 Q 118.78 211.06 119.27 210.93 Q 119.76 210.81 120.23 210.55 L 120.23 211.4 Q 119.75 211.61 119.24 211.71 Q 118.74 211.82 118.21 211.82 Q 116.9 211.82 116.14 211.06 Q 115.38 210.3 115.38 209 Q 115.38 207.66 116.1 206.87 Q 116.83 206.08 118.06 206.08 Q 119.16 206.08 119.8 206.79 Q 120.44 207.5 120.44 208.72 M 119.55 208.46 Q 119.54 207.72 119.13 207.28 Q 118.73 206.84 118.07 206.84 Q 117.31 206.84 116.86 207.27 Q 116.41 207.69 116.34 208.46 L 119.55 208.46 z z M 125.4 210.85 L 127.01 210.85 L 127.01 205.29 L 125.25 205.64 L 125.25 204.74 L 127 204.39 L 127.98 204.39 L 127.98 210.85 L 129.6 210.85 L 129.6 211.68 L 125.4 211.68 L 125.4 210.85 z" fill="#000000"/>
<path d="M 66.6 224.86 L 86.6 224.86" fill="none" stroke="#2ca02c" stroke-width="2" stroke-linecap="square" stroke-linejoin="round"/>
<path d="M 95.02 222.85 L 95.92 222.85 L 97.04 227.12 L 98.16 222.85 L 99.22 222.85 L 100.34 227.12 L 101.46 222.85 L 102.36 222.85 L 100.93 228.32 L 99.87 228.32 L 98.69 223.84 L 97.51 228.32 L 96.45 228.32 L 95.02 222.85 z M 106.21 225.57 Q 105.12 225.57 104.7 225.82 Q 104.28 226.07 104.28 226.67 Q 104.28 227.15 104.59 227.43 Q 104.91 227.71 105.45 227.71 Q 106.2 227.71 106.65 227.18 Q 107.1 226.65 107.1 225.77 L 107.1 225.57 L 106.21 225.57 M 108 225.2 L 108 228.32 L 107.1 228.32 L 107.1 227.49 Q 106.79 227.99 106.33 228.23 Q 105.87 228.46 105.21 228.46 Q 104.37 228.46 103.87 227.99 Q 103.38 227.52 103.38 226.73 Q 103.38 225.81 103.99 225.34 Q 104.61 224.87 105.84 224.87 L 107.1 224.87 L 107.1 224.78 Q 107.1 224.16 106.69 223.82 Q 106.28 223.48 105.55 223.48 Q 105.08 223.48 104.63 223.59 Q 104.19 223.71 103.78 223.93 L 103.78 223.1 Q 104.27 222.91 104.74 222.82 Q 105.2 222.72 105.64 222.72 Q 106.83 222.72 107.41 223.34 Q 108 223.95 108 225.2 z M 109.2 222.85 L 110.16 222.85 L 111.87 227.44 L 113.57 222.85 L 114.53 222.85 L 112.48 228.32 L 111.26 228.32 L 109.2 222.85 z M 120.44 225.36 L 120.44 225.8 L 116.31 225.8 Q 116.37 226.73 116.87 227.22 Q 117.37 227.7 118.27 227.7 Q 118.78 227.7 119.27 227.57 Q 119.76 227.45 120.23 227.19 L 120.23 228.04 Q 119.75 228.25 119.24 228.36 Q 118.74 228.46 118.21 228.46 Q 116.9 228.46 116.14 227.7 Q 115.38 226.94 115.38 225.64 Q 115.38 224.3 116.1 223.51 Q 116.83 222.72 118.06 222.72 Q 119.16 222.72 119.8 223.43 Q 120.44 224.14 120.44 225.36 M 119.55 225.1 Q 119.54 224.36 119.13 223.92 Q 118.73 223.48 118.07 223.48 Q 117.31 223.48 116.86 223.91 Q 116.41 224.33 116.34 225.1 L 119.55 225.1 z z M 126.07 227.49 L 129.52 227.49 L 129.52 228.32 L 124.89 228.32 L 124.89 227.49 Q 125.45 226.91 126.42 225.93 Q 127.39 224.95 127.64 224.67 Q 128.11 224.14 128.3 223.77 Q 128.49 223.4 128.49 223.04 Q 128.49 222.46 128.08 222.1 Q 127.67 221.73 127.02 221.73 Q 126.55 221.73 126.04 221.89 Q 125.52 222.05 124.94 222.38 L 124.94 221.38 Q 125.53 221.14 126.05 221.02 Q 126.57 220.9 127 220.9 Q 128.13 220.9 128.8 221.47 Q 129.48 222.03 129.48 222.98 Q 129.48 223.43 129.31 223.83 Q 129.14 224.23 128.7 224.78 Q 128.57 224.92 127.92 225.6 Q 127.27 226.28 126.07 227.49 z" fill="#000000"/>
<path d="M 66.6 241.5 L 86.6 241.5" fill="none" stroke="#d62728" stroke-width="2" stroke-linecap="square" stroke-linejoin="round"/>
<path d="M 95.02 239.49 L 95.92 239.49 L 97.04 243.76 L 98.16 239.49 L 99.22 239.49 L 100.34 243.76 L 101.46 239.49 L 102.36 239.49 L 100.93 244.96 L 99.87 244.96 L 98.69 240.48 L 97.51 244.96 L 96.45 244.96 L 95.02 239.49 z M 106.21 242.21 Q 105.12 242.21 104.7 242.46 Q 104.28 242.71 104.28 243.31 Q 104.28 243.79 104.59 244.07 Q 104.91 244.35 105.45 244.35 Q 106.2 244.35 106.65 243.82 Q 107.1 243.29 107.1 242.41 L 107.1 242.21 L 106.21 242.21 M 108 241.84 L 108 244.96 L 107.1 244.96 L 107.1 244.13 Q 106.79 244.63 106.33 244.87 Q 105.87 245.1 105.21 245.1 Q 104.37 245.1 103.87 244.63 Q 103.38 244.16 103.38 243.37 Q 103.38 242.45 103.99 241.98 Q 104.61 241.51 105.84 241.51 L 107.1 241.51 L 107.1 241.42 Q 107.1 240.8 106.69 240.46 Q 106.28 240.12 105.55 240.12 Q 105.08 240.12 104.63 240.24 Q 104.19 240.35 103.78 240.57 L 103.78 239.74 Q 104.27 239.55 104.74 239.46 Q 105.2 239.36 105.64 239.36 Q 106.83 239.36 107.41 239.98 Q 108 240.59 108 241.84 z M 109.2 239.49 L 110.16 239.49 L 111.87 244.08 L 113.57 239.49 L 114.53 239.49 L 112.48 244.96 L 111.26 244.96 L 109.2 239.49 z M 120.44 242 L 120.44 242.44 L 116.31 242.44 Q 116.37 243.37 116.87 243.86 Q 117.37 244.34 118.27 244.34 Q 118.78 244.34 119.27 244.21 Q 119.76 244.09 120.23 243.83 L 120.23 244.68 Q 119.75 244.89 119.24 245 Q 118.74 245.1 118.21 245.1 Q 116.9 245.1 116.14 244.34 Q 115.38 243.58 115.38 242.28 Q 115.38 240.94 116.1 240.15 Q 116.83 239.36 118.06 239.36 Q 119.16 239.36 119.8 240.07 Q 120.44 240.78 120.44 242 M 119.55 241.74 Q 119.54 241 119.13 240.56 Q 118.73 240.12 118.07 240.12 Q 117.31 240.12 116.86 240.55 Q 116.41 240.97 116.34 241.74 L 119.55 241.74 z z M 128.21 241.03 Q 128.92 241.18 129.32 241.66 Q 129.72 242.14 129.72 242.84 Q 129.72 243.92 128.97 244.51 Q 128.23 245.1 126.87 245.1 Q 126.41 245.1 125.92 245.02 Q 125.43 244.92 124.92 244.74 L 124.92 243.79 Q 125.33 244.03 125.82 244.15 Q 126.3 244.27 126.84 244.27 Q 127.76 244.27 128.25 243.91 Q 128.74 243.54 128.74 242.84 Q 128.74 242.2 128.28 241.84 Q 127.83 241.47 127.03 241.47 L 126.18 241.47 L 126.18 240.66 L 127.07 240.66 Q 127.79 240.66 128.18 240.37 Q 128.56 240.08 128.56 239.53 Q 128.56 238.97 128.16 238.67 Q 127.77 238.37 127.03 238.37 Q 126.62 238.37 126.16 238.46 Q 125.69 238.55 125.14 238.73 L 125.14 237.85 Q 125.7 237.7 126.19 237.62 Q 126.68 237.54 127.11 237.54 Q 128.24 237.54 128.89 238.05 Q 129.55 238.56 129.55 239.43 Q 129.55 240.03 129.2 240.45 Q 128.85 240.87 128.21 241.03 z" fill="#000000"/>
</g>
<g id="text_1">
<path d="M 202.05 19.36 L 202.05 20.38 Q 201.59 20.15 201.1 20.03 Q 200.61 19.91 200.08 19.91 Q 199.28 19.91 198.87 20.16 Q 198.47 20.4 198.47 20.9 Q 198.47 21.27 198.76 21.49 Q 199.05 21.7 199.91 21.89 L 200.28 21.97 Q 201.43 22.22 201.91 22.67 Q 202.4 23.12 202.4 23.92 Q 202.4 24.83 201.67 25.37 Q 200.95 25.9 199.69 25.9 Q 199.16 25.9 198.58 25.8 Q 198.02 25.69 197.38 25.49 L 197.38 24.38 Q 197.98 24.69 198.56 24.85 Q 199.14 25 199.71 25 Q 200.47 25 200.88 24.74 Q 201.29 24.48 201.29 24 Q 201.29 23.56 200.99 23.33 Q 200.7 23.09 199.7 22.88 L 199.32 22.79 Q 198.32 22.58 197.87 22.14 Q 197.43 21.7 197.43 20.94 Q 197.43 20.02 198.09 19.51 Q 198.74 19.01 199.95 19.01 Q 200.55 19.01 201.07 19.1 Q 201.6 19.19 202.05 19.36 z M 205.18 17.3 L 205.18 19.17 L 207.4 19.17 L 207.4 20.01 L 205.18 20.01 L 205.18 23.57 Q 205.18 24.37 205.4 24.6 Q 205.62 24.83 206.29 24.83 L 207.4 24.83 L 207.4 25.73 L 206.29 25.73 Q 205.05 25.73 204.57 25.27 Q 204.1 24.8 204.1 23.57 L 204.1 20.01 L 203.31 20.01 L 203.31 19.17 L 204.1 19.17 L 204.1 17.3 L 205.18 17.3 z M 211.55 26.34 Q 211.09 27.51 210.66 27.87 Q 210.23 28.23 209.5 28.23 L 208.64 28.23 L 208.64 27.32 L 209.27 27.32 Q 209.72 27.32 209.96 27.11 Q 210.21 26.9 210.51 26.12 L 210.7 25.62 L 208.05 19.17 L 209.19 19.17 L 211.24 24.3 L 213.29 19.17 L 214.43 19.17 L 211.55 26.34 z M 215.92 16.61 L 217 16.61 L 217 25.73 L 215.92 25.73 L 215.92 16.61 z M 224.87 22.18 L 224.87 22.71 L 219.91 22.71 Q 219.98 23.82 220.58 24.41 Q 221.18 24.99 222.26 24.99 Q 222.88 24.99 223.46 24.83 Q 224.04 24.68 224.62 24.38 L 224.62 25.4 Q 224.04 25.64 223.43 25.77 Q 222.82 25.9 222.19 25.9 Q 220.62 25.9 219.7 24.99 Q 218.79 24.07 218.79 22.51 Q 218.79 20.9 219.65 19.96 Q 220.53 19.01 222 19.01 Q 223.33 19.01 224.1 19.86 Q 224.87 20.71 224.87 22.18 M 223.79 21.86 Q 223.78 20.98 223.29 20.45 Q 222.81 19.92 222.02 19.92 Q 221.11 19.92 220.57 20.43 Q 220.03 20.94 219.95 21.87 L 223.79 21.86 z M 226.91 24.24 L 228.15 24.24 L 228.15 25.73 L 226.91 25.73 L 226.91 24.24 M 226.91 19.52 L 228.15 19.52 L 228.15 21.01 L 226.91 21.01 L 226.91 19.52 z z M 238.81 20.16 L 238.81 16.61 L 239.89 16.61 L 239.89 25.73 L 238.81 25.73 L 238.81 24.75 Q 238.47 25.33 237.95 25.62 Q 237.44 25.9 236.71 25.9 Q 235.52 25.9 234.77 24.95 Q 234.03 24 234.03 22.45 Q 234.03 20.91 234.77 19.96 Q 235.52 19.01 236.71 19.01 Q 237.44 19.01 237.95 19.3 Q 238.47 19.58 238.81 20.16 M 235.14 22.45 Q 235.14 23.64 235.63 24.32 Q 236.12 25 236.97 25 Q 237.83 25 238.32 24.32 Q 238.81 23.64 238.81 22.45 Q 238.81 21.27 238.32 20.59 Q 237.83 19.91 236.97 19.91 Q 236.12 19.91 235.63 20.59 Q 235.14 21.27 235.14 22.45 z M 247.73 22.18 L 247.73 22.71 L 242.77 22.71 Q 242.84 23.82 243.44 24.41 Q 244.04 24.99 245.11 24.99 Q 245.73 24.99 246.31 24.83 Q 246.9 24.68 247.47 24.38 L 247.47 25.4 Q 246.89 25.64 246.29 25.77 Q 245.68 25.9 245.05 25.9 Q 243.48 25.9 242.56 24.99 Q 241.64 24.07 241.64 22.51 Q 241.64 20.9 242.51 19.96 Q 243.38 19.01 244.86 19.01 Q 246.19 19.01 246.95 19.86 Q 247.73 20.71 247.73 22.18 M 246.65 21.86 Q 246.64 20.98 246.15 20.45 Q 245.67 19.92 244.87 19.92 Q 243.97 19.92 243.43 20.43 Q 242.89 20.94 242.8 21.87 L 246.65 21.86 z M 252.82 16.61 L 252.82 17.51 L 251.79 17.51 Q 251.21 17.51 250.98 17.74 Q 250.76 17.98 250.76 18.59 L 250.76 19.17 L 252.53 19.17 L 252.53 20.01 L 250.76 20.01 L 250.76 25.73 L 249.67 25.73 L 249.67 20.01 L 248.64 20.01 L 248.64 19.17 L 249.67 19.17 L 249.67 18.71 Q 249.67 17.61 250.18 17.12 Q 250.69 16.61 251.8 16.61 L 252.82 16.61 z M 256.7 22.43 Q 255.4 22.43 254.89 22.73 Q 254.39 23.03 254.39 23.75 Q 254.39 24.32 254.76 24.66 Q 255.14 25 255.79 25 Q 256.69 25 257.23 24.36 Q 257.78 23.73 257.78 22.67 L 257.78 22.43 L 256.7 22.43 M 258.85 21.99 L 258.85 25.73 L 257.78 25.73 L 257.78 24.73 Q 257.41 25.33 256.86 25.62 Q 256.3 25.9 255.51 25.9 Q 254.5 25.9 253.9 25.34 Q 253.31 24.77 253.31 23.82 Q 253.31 22.71 254.05 22.15 Q 254.79 21.59 256.26 21.59 L 257.78 21.59 L 257.78 21.48 Q 257.78 20.74 257.28 20.33 Q 256.8 19.92 255.91 19.92 Q 255.35 19.92 254.82 20.06 Q 254.28 20.19 253.79 20.46 L 253.79 19.47 Q 254.38 19.24 254.94 19.13 Q 255.5 19.01 256.02 19.01 Q 257.45 19.01 258.15 19.75 Q 258.85 20.49 258.85 21.99 z M 260.96 23.14 L 260.96 19.17 L 262.04 19.17 L 262.04 23.1 Q 262.04 24.03 262.4 24.5 Q 262.77 24.96 263.49 24.96 Q 264.37 24.96 264.87 24.41 Q 265.38 23.85 265.38 22.89 L 265.38 19.17 L 266.46 19.17 L 266.46 25.73 L 265.38 25.73 L 265.38 24.72 Q 264.99 25.32 264.47 25.61 Q 263.95 25.9 263.27 25.9 Q 262.13 25.9 261.55 25.2 Q 260.96 24.49 260.96 23.14 M 263.68 19.01 L 263.68 19.01 z M 268.68 16.61 L 269.76 16.61 L 269.76 25.73 L 268.68 25.73 L 268.68 16.61 z M 273.08 17.3 L 273.08 19.17 L 275.3 19.17 L 275.3 20.01 L 273.08 20.01 L 273.08 23.57 Q 273.08 24.37 273.3 24.6 Q 273.52 24.83 274.19 24.83 L 275.3 24.83 L 275.3 25.73 L 274.19 25.73 Q 272.95 25.73 272.47 25.27 Q 272 24.8 272 23.57 L 272 20.01 L 271.2 20.01 L 271.2 19.17 L 272 19.17 L 272 17.3 L 273.08 17.3 z" fill="#000000"/>
</g>
</g>
</g>
</svg>
