<?xml version="1.0" encoding="utf-8" standalone="no"?>
<!DOCTYPE svg PUBLIC "-//W3C//DTD SVG 1.1//EN" "http://www.w3.org/Graphics/SVG/1.1/DTD/svg11.dtd">
<svg xmlns="http://www.w3.org/2000/svg" width="648pt" height="468pt" viewBox="0 0 648 468" version="1.1">
<defs>
<clipPath id="p1"><rect x="57.72" y="30.77" width="579.48" height="158.15"/></clipPath>
<clipPath id="p2"><rect x="49.34" y="264.77" width="587.86" height="158.15"/></clipPath>
</defs>
<g id="figure_1">
<path d="M 0 468 L 648 468 L 648 0 L 0 0 z" fill="#ffffff"/>
<g id="axes_1">
<path d="M 57.72 188.92 L 637.2 188.92 L 637.2 30.77 L 57.72 30.77 z" fill="#ffffff"/>
<g id="patch_1">
<path clip-path="url(#p1)" d="M 84.06 37.96 L 85.38 38.36 L 86.7 38.77 L 88.02 39.17 L 89.34 39.57 L 90.66 39.97 L 91.98 40.36 L 93.3 40.75 L 94.63 41.14 L 95.95 41.53 L 97.27 41.92 L 98.59 42.3 L 99.91 42.69 L 101.23 43.06 L 102.55 43.44 L 103.87 43.82 L 105.19 44.19 L 106.51 44.56 L 107.83 44.93 L 109.15 45.3 L 110.47 45.66 L 111.79 46.03 L 113.11 46.39 L 114.43 46.75 L 115.75 47.1 L 117.07 47.46 L 118.39 47.81 L 119.71 48.16 L 121.03 48.51 L 122.35 48.86 L 123.67 49.2 L 124.99 49.54 L 126.31 49.88 L 127.63 50.22 L 128.95 50.56 L 130.27 50.89 L 131.59 51.23 L 132.91 51.56 L 134.23 51.89 L 135.55 52.22 L 136.87 52.54 L 138.19 52.87 L 139.52 53.19 L 140.84 53.51 L 142.16 53.83 L 143.48 54.14 L 144.8 54.46 L 146.12 54.77 L 147.44 55.08 L 148.76 55.39 L 150.08 55.7 L 151.4 56.01 L 152.72 56.31 L 154.04 56.61 L 155.36 56.91 L 156.68 57.21 L 158 57.51 L 159.32 57.81 L 160.64 58.1 L 161.96 58.39 L 163.28 58.68 L 164.6 58.97 L 165.92 59.26 L 167.24 59.55 L 168.56 59.83 L 169.88 60.11 L 171.2 60.4 L 172.52 60.67 L 173.84 60.95 L 175.16 61.23 L 176.48 61.5 L 177.8 61.78 L 179.12 62.05 L 180.44 62.32 L 181.76 62.59 L 183.08 62.85 L 184.41 63.12 L 185.73 63.38 L 187.05 63.65 L 188.37 63.91 L 189.69 64.17 L 191.01 64.43 L 192.33 64.68 L 193.65 64.94 L 194.97 65.19 L 196.29 65.44 L 197.61 65.7 L 198.93 65.95 L 200.25 66.19 L 201.57 66.44 L 202.89 66.69 L 204.21 66.93 L 205.53 67.17 L 206.85 67.41 L 208.17 67.65 L 209.49 67.89 L 210.81 68.13 L 212.13 68.36 L 213.45 68.6 L 214.77 68.83 L 216.09 69.06 L 217.41 69.29 L 218.73 69.52 L 220.05 69.75 L 221.37 69.98 L 222.69 70.2 L 224.01 70.43 L 225.33 70.65 L 226.65 70.87 L 227.97 71.09 L 229.3 71.31 L 230.62 71.53 L 231.94 71.75 L 233.26 71.96 L 234.58 72.18 L 235.9 72.39 L 237.22 72.6 L 238.54 72.81 L 239.86 73.02 L 241.18 73.23 L 242.5 73.44 L 243.82 73.64 L 245.14 73.85 L 246.46 74.05 L 247.78 74.25 L 249.1 74.45 L 250.42 74.65 L 251.74 74.85 L 253.06 75.05 L 254.38 75.25 L 255.7 75.44 L 257.02 75.64 L 258.34 75.83 L 259.66 76.02 L 260.98 76.21 L 262.3 76.4 L 263.62 76.59 L 264.94 76.78 L 266.26 76.97 L 267.58 77.15 L 268.9 77.34 L 270.22 77.52 L 271.54 77.7 L 272.86 77.89 L 274.19 78.07 L 275.51 78.25 L 276.83 78.42 L 278.15 78.6 L 279.47 78.78 L 280.79 78.95 L 282.11 79.13 L 283.43 79.3 L 284.75 79.48 L 286.07 79.65 L 287.39 79.82 L 288.71 79.99 L 290.03 80.16 L 291.35 80.32 L 292.67 80.49 L 293.99 80.66 L 295.31 80.82 L 296.63 80.99 L 297.95 81.15 L 299.27 81.31 L 300.59 81.47 L 301.91 81.63 L 303.23 81.79 L 304.55 81.95 L 305.87 82.11 L 307.19 82.27 L 308.51 82.42 L 309.83 82.58 L 311.15 82.73 L 312.47 82.88 L 313.79 83.04 L 315.11 83.19 L 316.43 83.34 L 317.75 83.49 L 319.08 83.64 L 320.4 83.79 L 321.72 83.93 L 323.04 84.08 L 324.36 84.23 L 325.68 84.37 L 327 84.51 L 328.32 84.66 L 329.64 84.8 L 330.96 84.94 L 332.28 85.08 L 333.6 85.22 L 334.92 85.36 L 336.24 85.5 L 337.56 85.64 L 338.88 85.77 L 340.2 85.91 L 341.52 86.05 L 342.84 86.18 L 344.16 86.31 L 345.48 86.45 L 346.8 86.58 L 348.12 86.71 L 349.44 86.84 L 350.76 86.97 L 352.08 87.1 L 353.4 87.23 L 354.72 87.36 L 356.04 87.48 L 357.36 87.61 L 358.68 87.74 L 360 87.86 L 361.32 87.99 L 362.64 88.11 L 363.97 88.23 L 365.29 88.35 L 366.61 88.48 L 367.93 88.6 L 369.25 88.72 L 370.57 88.84 L 371.89 88.95 L 373.21 89.07 L 374.53 89.19 L 375.85 89.31 L 377.17 89.42 L 378.49 89.54 L 379.81 89.65 L 381.13 89.77 L 382.45 89.88 L 383.77 89.99 L 385.09 90.11 L 386.41 90.22 L 387.73 90.33 L 389.05 90.44 L 390.37 90.55 L 391.69 90.66 L 393.01 90.77 L 394.33 90.87 L 395.65 90.98 L 396.97 91.09 L 398.29 91.19 L 399.61 91.3 L 400.93 91.4 L 402.25 91.51 L 403.57 91.61 L 404.89 91.71 L 406.21 91.82 L 407.53 91.92 L 408.86 92.02 L 410.18 92.12 L 411.5 92.22 L 412.82 92.32 L 414.14 92.42 L 415.46 92.52 L 416.78 92.62 L 418.1 92.71 L 419.42 92.81 L 420.74 92.91 L 422.06 93 L 423.38 93.1 L 424.7 93.19 L 426.02 93.29 L 427.34 93.38 L 428.66 93.47 L 429.98 93.57 L 431.3 93.66 L 432.62 93.75 L 433.94 93.84 L 435.26 93.93 L 436.58 94.02 L 437.9 94.11 L 439.22 94.2 L 440.54 94.29 L 441.86 94.38 L 443.18 94.46 L 444.5 94.55 L 445.82 94.64 L 447.14 94.72 L 448.46 94.81 L 449.78 94.89 L 451.1 94.98 L 452.42 95.06 L 453.75 95.15 L 455.07 95.23 L 456.39 95.31 L 457.71 95.39 L 459.03 95.47 L 460.35 95.56 L 461.67 95.64 L 462.99 95.72 L 464.31 95.8 L 465.63 95.88 L 466.95 95.96 L 468.27 96.03 L 469.59 96.11 L 470.91 96.19 L 472.23 96.27 L 473.55 96.34 L 474.87 96.42 L 476.19 96.5 L 477.51 96.57 L 478.83 96.65 L 480.15 96.72 L 481.47 96.79 L 482.79 96.87 L 484.11 96.94 L 485.43 97.01 L 486.75 97.09 L 488.07 97.16 L 489.39 97.23 L 490.71 97.3 L 492.03 97.37 L 493.35 97.44 L 494.67 97.51 L 495.99 97.58 L 497.31 97.65 L 498.64 97.72 L 499.96 97.79 L 501.28 97.86 L 502.6 97.93 L 503.92 97.99 L 505.24 98.06 L 506.56 98.13 L 507.88 98.19 L 509.2 98.26 L 510.52 98.32 L 511.84 98.39 L 513.16 98.45 L 514.48 98.52 L 515.8 98.58 L 517.12 98.65 L 518.44 98.71 L 519.76 98.77 L 521.08 98.84 L 522.4 98.9 L 523.72 98.96 L 525.04 99.02 L 526.36 99.08 L 527.68 99.14 L 529 99.2 L 530.32 99.26 L 531.64 99.32 L 532.96 99.38 L 534.28 99.44 L 535.6 99.5 L 536.92 99.56 L 538.24 99.62 L 539.56 99.68 L 540.88 99.73 L 542.2 99.79 L 543.53 99.85 L 544.85 99.9 L 546.17 99.96 L 547.49 100.02 L 548.81 100.07 L 550.13 100.13 L 551.45 100.18 L 552.77 100.24 L 554.09 100.29 L 555.41 100.34 L 556.73 100.4 L 558.05 100.45 L 559.37 100.5 L 560.69 100.56 L 562.01 100.61 L 563.33 100.66 L 564.65 100.71 L 565.97 100.77 L 567.29 100.82 L 568.61 100.87 L 569.93 100.92 L 571.25 100.97 L 572.57 101.02 L 573.89 101.07 L 575.21 101.12 L 576.53 101.17 L 577.85 101.22 L 579.17 101.27 L 580.49 101.31 L 581.81 101.36 L 583.13 101.41 L 584.45 101.46 L 585.77 101.51 L 587.09 101.55 L 588.42 101.6 L 589.74 101.65 L 591.06 101.69 L 592.38 101.74 L 593.7 101.78 L 595.02 101.83 L 596.34 101.88 L 597.66 101.92 L 598.98 101.97 L 600.3 102.01 L 601.62 102.05 L 602.94 102.1 L 604.26 102.14 L 605.58 102.19 L 606.9 102.23 L 608.22 102.27 L 609.54 102.31 L 610.86 102.36 L 610.86 117.33 L 609.54 117.37 L 608.22 117.42 L 606.9 117.46 L 605.58 117.5 L 604.26 117.55 L 602.94 117.59 L 601.62 117.63 L 600.3 117.68 L 598.98 117.72 L 597.66 117.77 L 596.34 117.81 L 595.02 117.86 L 593.7 117.9 L 592.38 117.95 L 591.06 118 L 589.74 118.04 L 588.42 118.09 L 587.09 118.13 L 585.77 118.18 L 584.45 118.23 L 583.13 118.28 L 581.81 118.33 L 580.49 118.37 L 579.17 118.42 L 577.85 118.47 L 576.53 118.52 L 575.21 118.57 L 573.89 118.62 L 572.57 118.67 L 571.25 118.72 L 569.93 118.77 L 568.61 118.82 L 567.29 118.87 L 565.97 118.92 L 564.65 118.97 L 563.33 119.03 L 562.01 119.08 L 560.69 119.13 L 559.37 119.18 L 558.05 119.24 L 556.73 119.29 L 555.41 119.34 L 554.09 119.4 L 552.77 119.45 L 551.45 119.51 L 550.13 119.56 L 548.81 119.62 L 547.49 119.67 L 546.17 119.73 L 544.85 119.78 L 543.53 119.84 L 542.2 119.9 L 540.88 119.95 L 539.56 120.01 L 538.24 120.07 L 536.92 120.13 L 535.6 120.19 L 534.28 120.25 L 532.96 120.3 L 531.64 120.36 L 530.32 120.42 L 529 120.48 L 527.68 120.54 L 526.36 120.61 L 525.04 120.67 L 523.72 120.73 L 522.4 120.79 L 521.08 120.85 L 519.76 120.91 L 518.44 120.98 L 517.12 121.04 L 515.8 121.1 L 514.48 121.17 L 513.16 121.23 L 511.84 121.3 L 510.52 121.36 L 509.2 121.43 L 507.88 121.49 L 506.56 121.56 L 505.24 121.63 L 503.92 121.69 L 502.6 121.76 L 501.28 121.83 L 499.96 121.9 L 498.64 121.97 L 497.31 122.03 L 495.99 122.1 L 494.67 122.17 L 493.35 122.24 L 492.03 122.31 L 490.71 122.38 L 489.39 122.46 L 488.07 122.53 L 486.75 122.6 L 485.43 122.67 L 484.11 122.75 L 482.79 122.82 L 481.47 122.89 L 480.15 122.97 L 478.83 123.04 L 477.51 123.12 L 476.19 123.19 L 474.87 123.27 L 473.55 123.34 L 472.23 123.42 L 470.91 123.5 L 469.59 123.58 L 468.27 123.65 L 466.95 123.73 L 465.63 123.81 L 464.31 123.89 L 462.99 123.97 L 461.67 124.05 L 460.35 124.13 L 459.03 124.21 L 457.71 124.29 L 456.39 124.38 L 455.07 124.46 L 453.75 124.54 L 452.42 124.63 L 451.1 124.71 L 449.78 124.79 L 448.46 124.88 L 447.14 124.96 L 445.82 125.05 L 444.5 125.14 L 443.18 125.22 L 441.86 125.31 L 440.54 125.4 L 439.22 125.49 L 437.9 125.58 L 436.58 125.67 L 435.26 125.76 L 433.94 125.85 L 432.62 125.94 L 431.3 126.03 L 429.98 126.12 L 428.66 126.21 L 427.34 126.31 L 426.02 126.4 L 424.7 126.49 L 423.38 126.59 L 422.06 126.68 L 420.74 126.78 L 419.42 126.88 L 418.1 126.97 L 416.78 127.07 L 415.46 127.17 L 414.14 127.27 L 412.82 127.37 L 411.5 127.47 L 410.18 127.57 L 408.86 127.67 L 407.53 127.77 L 406.21 127.87 L 404.89 127.97 L 403.57 128.08 L 402.25 128.18 L 400.93 128.28 L 399.61 128.39 L 398.29 128.49 L 396.97 128.6 L 395.65 128.71 L 394.33 128.81 L 393.01 128.92 L 391.69 129.03 L 390.37 129.14 L 389.05 129.25 L 387.73 129.36 L 386.41 129.47 L 385.09 129.58 L 383.77 129.69 L 382.45 129.81 L 381.13 129.92 L 379.81 130.03 L 378.49 130.15 L 377.17 130.26 L 375.85 130.38 L 374.53 130.5 L 373.21 130.61 L 371.89 130.73 L 370.57 130.85 L 369.25 130.97 L 367.93 131.09 L 366.61 131.21 L 365.29 131.33 L 363.97 131.46 L 362.64 131.58 L 361.32 131.7 L 360 131.83 L 358.68 131.95 L 357.36 132.08 L 356.04 132.2 L 354.72 132.33 L 353.4 132.46 L 352.08 132.59 L 350.76 132.72 L 349.44 132.85 L 348.12 132.98 L 346.8 133.11 L 345.48 133.24 L 344.16 133.37 L 342.84 133.51 L 341.52 133.64 L 340.2 133.78 L 338.88 133.91 L 337.56 134.05 L 336.24 134.19 L 334.92 134.33 L 333.6 134.47 L 332.28 134.61 L 330.96 134.75 L 329.64 134.89 L 328.32 135.03 L 327 135.17 L 325.68 135.32 L 324.36 135.46 L 323.04 135.61 L 321.72 135.75 L 320.4 135.9 L 319.08 136.05 L 317.75 136.2 L 316.43 136.35 L 315.11 136.5 L 313.79 136.65 L 312.47 136.8 L 311.15 136.96 L 309.83 137.11 L 308.51 137.27 L 307.19 137.42 L 305.87 137.58 L 304.55 137.74 L 303.23 137.89 L 301.91 138.05 L 300.59 138.21 L 299.27 138.38 L 297.95 138.54 L 296.63 138.7 L 295.31 138.87 L 293.99 139.03 L 292.67 139.2 L 291.35 139.36 L 290.03 139.53 L 288.71 139.7 L 287.39 139.87 L 286.07 140.04 L 284.75 140.21 L 283.43 140.38 L 282.11 140.56 L 280.79 140.73 L 279.47 140.91 L 278.15 141.08 L 276.83 141.26 L 275.51 141.44 L 274.19 141.62 L 272.86 141.8 L 271.54 141.98 L 270.22 142.17 L 268.9 142.35 L 267.58 142.53 L 266.26 142.72 L 264.94 142.91 L 263.62 143.1 L 262.3 143.28 L 260.98 143.47 L 259.66 143.67 L 258.34 143.86 L 257.02 144.05 L 255.7 144.25 L 254.38 144.44 L 253.06 144.64 L 251.74 144.84 L 250.42 145.03 L 249.1 145.23 L 247.78 145.44 L 246.46 145.64 L 245.14 145.84 L 243.82 146.05 L 242.5 146.25 L 241.18 146.46 L 239.86 146.67 L 238.54 146.88 L 237.22 147.09 L 235.9 147.3 L 234.58 147.51 L 233.26 147.73 L 231.94 147.94 L 230.62 148.16 L 229.3 148.38 L 227.97 148.59 L 226.65 148.82 L 225.33 149.04 L 224.01 149.26 L 222.69 149.48 L 221.37 149.71 L 220.05 149.94 L 218.73 150.16 L 217.41 150.39 L 216.09 150.62 L 214.77 150.86 L 213.45 151.09 L 212.13 151.32 L 210.81 151.56 L 209.49 151.8 L 208.17 152.03 L 206.85 152.27 L 205.53 152.52 L 204.21 152.76 L 202.89 153 L 201.57 153.25 L 200.25 153.49 L 198.93 153.74 L 197.61 153.99 L 196.29 154.24 L 194.97 154.5 L 193.65 154.75 L 192.33 155 L 191.01 155.26 L 189.69 155.52 L 188.37 155.78 L 187.05 156.04 L 185.73 156.3 L 184.41 156.57 L 183.08 156.83 L 181.76 157.1 L 180.44 157.37 L 179.12 157.64 L 177.8 157.91 L 176.48 158.18 L 175.16 158.46 L 173.84 158.73 L 172.52 159.01 L 171.2 159.29 L 169.88 159.57 L 168.56 159.86 L 167.24 160.14 L 165.92 160.43 L 164.6 160.71 L 163.28 161 L 161.96 161.29 L 160.64 161.59 L 159.32 161.88 L 158 162.18 L 156.68 162.47 L 155.36 162.77 L 154.04 163.07 L 152.72 163.38 L 151.4 163.68 L 150.08 163.99 L 148.76 164.29 L 147.44 164.6 L 146.12 164.92 L 144.8 165.23 L 143.48 165.54 L 142.16 165.86 L 140.84 166.18 L 139.52 166.5 L 138.19 166.82 L 136.87 167.15 L 135.55 167.47 L 134.23 167.8 L 132.91 168.13 L 131.59 168.46 L 130.27 168.79 L 128.95 169.13 L 127.63 169.46 L 126.31 169.8 L 124.99 170.14 L 123.67 170.49 L 122.35 170.83 L 121.03 171.18 L 119.71 171.53 L 118.39 171.88 L 117.07 172.23 L 115.75 172.59 L 114.43 172.94 L 113.11 173.3 L 111.79 173.66 L 110.47 174.02 L 109.15 174.39 L 107.83 174.76 L 106.51 175.13 L 105.19 175.5 L 103.87 175.87 L 102.55 176.25 L 101.23 176.62 L 99.91 177 L 98.59 177.38 L 97.27 177.77 L 95.95 178.15 L 94.63 178.54 L 93.3 178.93 L 91.98 179.33 L 90.66 179.72 L 89.34 180.12 L 88.02 180.52 L 86.7 180.92 L 85.38 181.32 L 84.06 181.73 z" fill="#1f77b4" fill-opacity="0.2"/>
</g>
<g id="line2d_1">
<path clip-path="url(#p1)" d="M 84.06 109.84 L 88.02 90.08 L 90.66 78.05 L 93.3 67.41 L 94.63 62.72 L 95.95 58.51 L 97.27 54.8 L 98.59 51.62 L 99.91 49 L 101.23 46.94 L 102.55 45.47 L 103.87 44.59 L 105.19 44.31 L 106.51 44.6 L 107.83 45.48 L 109.15 46.92 L 110.47 48.9 L 111.79 51.4 L 113.11 54.4 L 114.43 57.85 L 115.75 61.73 L 118.39 70.6 L 121.03 80.65 L 124.99 97.12 L 130.27 119.55 L 132.91 130.07 L 135.55 139.63 L 138.19 147.94 L 139.52 151.53 L 140.84 154.71 L 142.16 157.45 L 143.48 159.74 L 144.8 161.56 L 146.12 162.9 L 147.44 163.75 L 148.76 164.11 L 150.08 163.98 L 151.4 163.38 L 152.72 162.3 L 154.04 160.77 L 155.36 158.8 L 156.68 156.42 L 158 153.65 L 159.32 150.53 L 161.96 143.33 L 164.6 135.11 L 168.56 121.55 L 175.16 98.47 L 177.8 90.02 L 180.44 82.46 L 181.76 79.09 L 183.08 76.03 L 184.41 73.31 L 185.73 70.95 L 187.05 68.96 L 188.37 67.35 L 189.69 66.14 L 191.01 65.34 L 192.33 64.94 L 193.65 64.94 L 194.97 65.34 L 196.29 66.14 L 197.61 67.31 L 198.93 68.85 L 200.25 70.74 L 201.57 72.96 L 202.89 75.48 L 205.53 81.32 L 208.17 88.03 L 210.81 95.37 L 220.05 121.96 L 222.69 128.71 L 225.33 134.64 L 226.65 137.24 L 227.97 139.56 L 229.3 141.59 L 230.62 143.32 L 231.94 144.73 L 233.26 145.82 L 234.58 146.57 L 235.9 146.98 L 237.22 147.06 L 238.54 146.81 L 239.86 146.23 L 241.18 145.34 L 242.5 144.14 L 243.82 142.64 L 245.14 140.88 L 246.46 138.85 L 249.1 134.12 L 251.74 128.64 L 254.38 122.61 L 264.94 97.64 L 267.58 92.29 L 270.22 87.67 L 271.54 85.69 L 272.86 83.95 L 274.19 82.45 L 275.51 81.22 L 276.83 80.25 L 278.15 79.56 L 279.47 79.14 L 280.79 79.01 L 282.11 79.15 L 283.43 79.56 L 284.75 80.24 L 286.07 81.17 L 287.39 82.35 L 288.71 83.76 L 290.03 85.38 L 292.67 89.21 L 295.31 93.68 L 297.95 98.63 L 308.51 119.36 L 311.15 123.86 L 313.79 127.77 L 315.11 129.46 L 316.43 130.95 L 317.75 132.24 L 319.08 133.32 L 320.4 134.17 L 321.72 134.8 L 323.04 135.2 L 324.36 135.37 L 325.68 135.32 L 327 135.03 L 328.32 134.52 L 329.64 133.8 L 330.96 132.88 L 332.28 131.76 L 333.6 130.46 L 336.24 127.36 L 338.88 123.71 L 341.52 119.66 L 346.8 110.94 L 350.76 104.49 L 353.4 100.52 L 356.04 96.96 L 358.68 93.94 L 360 92.66 L 361.32 91.54 L 362.64 90.61 L 363.97 89.85 L 365.29 89.28 L 366.61 88.9 L 367.93 88.72 L 369.25 88.72 L 370.57 88.91 L 371.89 89.28 L 373.21 89.83 L 374.53 90.56 L 375.85 91.45 L 377.17 92.49 L 379.81 94.99 L 382.45 97.96 L 385.09 101.28 L 390.37 108.48 L 394.33 113.85 L 396.97 117.17 L 399.61 120.17 L 402.25 122.73 L 404.89 124.78 L 406.21 125.6 L 407.53 126.26 L 408.86 126.77 L 410.18 127.12 L 411.5 127.32 L 412.82 127.36 L 414.14 127.24 L 415.46 126.97 L 416.78 126.54 L 418.1 125.98 L 419.42 125.28 L 422.06 123.49 L 424.7 121.27 L 427.34 118.68 L 431.3 114.37 L 439.22 105.47 L 441.86 102.81 L 444.5 100.45 L 447.14 98.48 L 449.78 96.96 L 451.1 96.37 L 452.42 95.92 L 453.75 95.59 L 455.07 95.4 L 456.39 95.34 L 457.71 95.4 L 459.03 95.6 L 460.35 95.91 L 462.99 96.91 L 465.63 98.33 L 468.27 100.14 L 470.91 102.24 L 474.87 105.79 L 482.79 113.18 L 485.43 115.41 L 488.07 117.4 L 490.71 119.07 L 493.35 120.38 L 495.99 121.29 L 498.64 121.78 L 501.28 121.83 L 503.92 121.46 L 506.56 120.68 L 509.2 119.54 L 511.84 118.08 L 514.48 116.37 L 518.44 113.46 L 527.68 106.37 L 530.32 104.59 L 532.96 103.04 L 535.6 101.76 L 538.24 100.79 L 540.88 100.17 L 543.53 99.9 L 546.17 99.99 L 548.81 100.43 L 551.45 101.19 L 554.09 102.24 L 556.73 103.53 L 560.69 105.81 L 567.29 110.06 L 571.25 112.53 L 575.21 114.7 L 577.85 115.91 L 580.49 116.87 L 583.13 117.57 L 585.77 117.97 L 588.42 118.08 L 591.06 117.9 L 593.7 117.44 L 596.34 116.71 L 598.98 115.76 L 602.94 114 L 608.22 111.27 L 610.86 109.84 L 610.86 109.84" fill="none" stroke="#1f77b4" stroke-width="1.5" stroke-linecap="square" stroke-linejoin="round"/>
</g>
<g id="line2d_2">
<path clip-path="url(#p1)" d="M 57.72 109.84 L 637.2 109.84" fill="none" stroke="#666666" stroke-width="0.8" stroke-linecap="square" stroke-linejoin="round"/>
</g>
<g id="spines_1">
<path d="M 57.72 188.92 L 637.2 188.92 L 637.2 30.77 L 57.72 30.77 z" fill="none" stroke="#000000" stroke-width="0.8" stroke-linecap="square" stroke-linejoin="round"/>
</g>
<g id="xtick_1">
<path d="M 84.06 188.92 L 84.06 192.42" fill="none" stroke="#000000" stroke-width="0.8" stroke-linejoin="round"/>
<path d="M 167.91 188.92 L 167.91 192.42" fill="none" stroke="#000000" stroke-width="0.8" stroke-linejoin="round"/>
<path d="M 251.75 188.92 L 251.75 192.42" fill="none" stroke="#000000" stroke-width="0.8" stroke-linejoin="round"/>
<path d="M 335.59 188.92 L 335.59 192.42" fill="none" stroke="#000000" stroke-width="0.8" stroke-linejoin="round"/>
<path d="M 419.43 188.92 L 419.43 192.42" fill="none" stroke="#000000" stroke-width="0.8" stroke-linejoin="round"/>
<path d="M 503.27 188.92 L 503.27 192.42" fill="none" stroke="#000000" stroke-width="0.8" stroke-linejoin="round"/>
<path d="M 587.12 188.92 L 587.12 192.42" fill="none" stroke="#000000" stroke-width="0.8" stroke-linejoin="round"/>
</g>
<g id="ytick_1">
<path d="M 57.72 181.73 L 54.22 181.73" fill="none" stroke="#000000" stroke-width="0.8" stroke-linejoin="round"/>
<path d="M 27.5 181.64 L 33.76 181.64 L 33.76 182.47 L 27.5 182.47 L 27.5 181.64 z M 36.06 184.36 L 37.67 184.36 L 37.67 178.8 L 35.92 179.15 L 35.92 178.25 L 37.66 177.9 L 38.65 177.9 L 38.65 184.36 L 40.26 184.36 L 40.26 185.19 L 36.06 185.19 L 36.06 184.36 z M 42.25 183.95 L 43.28 183.95 L 43.28 185.19 L 42.25 185.19 L 42.25 183.95 z M 47.54 178.55 Q 46.78 178.55 46.39 179.3 Q 46.01 180.05 46.01 181.55 Q 46.01 183.05 46.39 183.81 Q 46.78 184.55 47.54 184.55 Q 48.31 184.55 48.69 183.81 Q 49.07 183.05 49.07 181.55 Q 49.07 180.05 48.69 179.3 Q 48.31 178.55 47.54 178.55 M 47.54 177.77 Q 48.76 177.77 49.41 178.74 Q 50.06 179.71 50.06 181.55 Q 50.06 183.4 49.41 184.37 Q 48.76 185.33 47.54 185.33 Q 46.31 185.33 45.66 184.37 Q 45.02 183.4 45.02 181.55 Q 45.02 179.71 45.66 178.74 Q 46.31 177.77 47.54 177.77 z" fill="#000000"/>
<path d="M 57.72 145.79 L 54.22 145.79" fill="none" stroke="#000000" stroke-width="0.8" stroke-linejoin="round"/>
<path d="M 27.5 145.7 L 33.76 145.7 L 33.76 146.53 L 27.5 146.53 L 27.5 145.7 z M 38 142.61 Q 37.24 142.61 36.85 143.36 Q 36.47 144.11 36.47 145.61 Q 36.47 147.11 36.85 147.86 Q 37.24 148.61 38 148.61 Q 38.76 148.61 39.15 147.86 Q 39.53 147.11 39.53 145.61 Q 39.53 144.11 39.15 143.36 Q 38.76 142.61 38 142.61 M 38 141.83 Q 39.22 141.83 39.87 142.8 Q 40.52 143.77 40.52 145.61 Q 40.52 147.45 39.87 148.42 Q 39.22 149.39 38 149.39 Q 36.77 149.39 36.12 148.42 Q 35.48 147.45 35.48 145.61 Q 35.48 143.77 36.12 142.8 Q 36.77 141.83 38 141.83 z M 42.25 148.01 L 43.28 148.01 L 43.28 149.25 L 42.25 149.25 L 42.25 148.01 z M 45.44 141.96 L 49.31 141.96 L 49.31 142.79 L 46.34 142.79 L 46.34 144.58 Q 46.56 144.5 46.77 144.47 Q 46.99 144.43 47.2 144.43 Q 48.42 144.43 49.14 145.1 Q 49.85 145.77 49.85 146.91 Q 49.85 148.09 49.12 148.74 Q 48.38 149.39 47.05 149.39 Q 46.59 149.39 46.11 149.31 Q 45.64 149.23 45.13 149.08 L 45.13 148.09 Q 45.57 148.33 46.04 148.44 Q 46.51 148.56 47.03 148.56 Q 47.88 148.56 48.37 148.12 Q 48.86 147.67 48.86 146.91 Q 48.86 146.15 48.37 145.7 Q 47.88 145.26 47.03 145.26 Q 46.64 145.26 46.24 145.35 Q 45.85 145.44 45.44 145.62 L 45.44 141.96 z" fill="#000000"/>
<path d="M 57.72 109.84 L 54.22 109.84" fill="none" stroke="#000000" stroke-width="0.8" stroke-linejoin="round"/>
<path d="M 38 106.67 Q 37.24 106.67 36.85 107.42 Q 36.47 108.16 36.47 109.67 Q 36.47 111.17 36.85 111.92 Q 37.24 112.67 38 112.67 Q 38.76 112.67 39.15 111.92 Q 39.53 111.17 39.53 109.67 Q 39.53 108.16 39.15 107.42 Q 38.76 106.67 38 106.67 M 38 105.88 Q 39.22 105.88 39.87 106.86 Q 40.52 107.82 40.52 109.67 Q 40.52 111.51 39.87 112.48 Q 39.22 113.45 38 113.45 Q 36.77 113.45 36.12 112.48 Q 35.48 111.51 35.48 109.67 Q 35.48 107.82 36.12 106.86 Q 36.77 105.88 38 105.88 z M 42.25 112.07 L 43.28 112.07 L 43.28 113.31 L 42.25 113.31 L 42.25 112.07 z M 47.54 106.67 Q 46.78 106.67 46.39 107.42 Q 46.01 108.16 46.01 109.67 Q 46.01 111.17 46.39 111.92 Q 46.78 112.67 47.54 112.67 Q 48.31 112.67 48.69 111.92 Q 49.07 111.17 49.07 109.67 Q 49.07 108.16 48.69 107.42 Q 48.31 106.67 47.54 106.67 M 47.54 105.88 Q 48.76 105.88 49.41 106.86 Q 50.06 107.82 50.06 109.67 Q 50.06 111.51 49.41 112.48 Q 48.76 113.45 47.54 113.45 Q 46.31 113.45 45.66 112.48 Q 45.02 111.51 45.02 109.67 Q 45.02 107.82 45.66 106.86 Q 46.31 105.88 47.54 105.88 z" fill="#000000"/>
<path d="M 57.72 73.9 L 54.22 73.9" fill="none" stroke="#000000" stroke-width="0.8" stroke-linejoin="round"/>
<path d="M 38 70.72 Q 37.24 70.72 36.85 71.47 Q 36.47 72.22 36.47 73.72 Q 36.47 75.22 36.85 75.98 Q 37.24 76.72 38 76.72 Q 38.76 76.72 39.15 75.98 Q 39.53 75.22 39.53 73.72 Q 39.53 72.22 39.15 71.47 Q 38.76 70.72 38 70.72 M 38 69.94 Q 39.22 69.94 39.87 70.91 Q 40.52 71.88 40.52 73.72 Q 40.52 75.57 39.87 76.54 Q 39.22 77.5 38 77.5 Q 36.77 77.5 36.12 76.54 Q 35.48 75.57 35.48 73.72 Q 35.48 71.88 36.12 70.91 Q 36.77 69.94 38 69.94 z M 42.25 76.12 L 43.28 76.12 L 43.28 77.36 L 42.25 77.36 L 42.25 76.12 z M 45.44 70.07 L 49.31 70.07 L 49.31 70.9 L 46.34 70.9 L 46.34 72.69 Q 46.56 72.62 46.77 72.58 Q 46.99 72.54 47.2 72.54 Q 48.42 72.54 49.14 73.21 Q 49.85 73.88 49.85 75.02 Q 49.85 76.2 49.12 76.85 Q 48.38 77.5 47.05 77.5 Q 46.59 77.5 46.11 77.43 Q 45.64 77.35 45.13 77.19 L 45.13 76.2 Q 45.57 76.44 46.04 76.56 Q 46.51 76.67 47.03 76.67 Q 47.88 76.67 48.37 76.23 Q 48.86 75.79 48.86 75.02 Q 48.86 74.26 48.37 73.82 Q 47.88 73.37 47.03 73.37 Q 46.64 73.37 46.24 73.46 Q 45.85 73.55 45.44 73.73 L 45.44 70.07 z" fill="#000000"/>
<path d="M 57.72 37.96 L 54.22 37.96" fill="none" stroke="#000000" stroke-width="0.8" stroke-linejoin="round"/>
<path d="M 36.06 40.59 L 37.67 40.59 L 37.67 35.03 L 35.92 35.38 L 35.92 34.48 L 37.66 34.13 L 38.65 34.13 L 38.65 40.59 L 40.26 40.59 L 40.26 41.42 L 36.06 41.42 L 36.06 40.59 z M 42.25 40.18 L 43.28 40.18 L 43.28 41.42 L 42.25 41.42 L 42.25 40.18 z M 47.54 34.78 Q 46.78 34.78 46.39 35.53 Q 46.01 36.28 46.01 37.78 Q 46.01 39.28 46.39 40.03 Q 46.78 40.78 47.54 40.78 Q 48.31 40.78 48.69 40.03 Q 49.07 39.28 49.07 37.78 Q 49.07 36.28 48.69 35.53 Q 48.31 34.78 47.54 34.78 M 47.54 34 Q 48.76 34 49.41 34.97 Q 50.06 35.94 50.06 37.78 Q 50.06 39.62 49.41 40.59 Q 48.76 41.56 47.54 41.56 Q 46.31 41.56 45.66 40.59 Q 45.02 39.62 45.02 37.78 Q 45.02 35.94 45.66 34.97 Q 46.31 34 47.54 34 z" fill="#000000"/>
</g>
<g id="text_1">
<path d="M 17.33 131.68 Q 17.33 132.77 17.58 133.19 Q 17.83 133.61 18.43 133.61 Q 18.91 133.61 19.19 133.3 Q 19.47 132.98 19.47 132.44 Q 19.47 131.69 18.94 131.24 Q 18.41 130.79 17.53 130.79 L 17.33 130.79 L 17.33 131.68 M 16.96 129.89 L 20.08 129.89 L 20.08 130.79 L 19.25 130.79 Q 19.75 131.1 19.99 131.56 Q 20.22 132.01 20.22 132.68 Q 20.22 133.52 19.76 134.02 Q 19.28 134.51 18.49 134.51 Q 17.57 134.51 17.1 133.89 Q 16.63 133.27 16.63 132.05 L 16.63 130.79 L 16.54 130.79 Q 15.92 130.79 15.59 131.2 Q 15.24 131.6 15.24 132.34 Q 15.24 132.81 15.36 133.25 Q 15.47 133.7 15.69 134.11 L 14.86 134.11 Q 14.67 133.62 14.58 133.15 Q 14.48 132.69 14.48 132.25 Q 14.48 131.06 15.1 130.48 Q 15.71 129.89 16.96 129.89 z M 15.66 123.78 Q 15.06 123.44 14.77 122.98 Q 14.48 122.51 14.48 121.87 Q 14.48 121.02 15.08 120.55 Q 15.68 120.09 16.78 120.09 L 20.08 120.09 L 20.08 120.99 L 16.81 120.99 Q 16.02 120.99 15.64 121.27 Q 15.26 121.55 15.26 122.12 Q 15.26 122.82 15.73 123.23 Q 16.19 123.63 16.99 123.63 L 20.08 123.63 L 20.08 124.53 L 16.81 124.53 Q 16.02 124.53 15.64 124.81 Q 15.26 125.09 15.26 125.67 Q 15.26 126.36 15.73 126.77 Q 16.2 127.17 16.99 127.17 L 20.08 127.17 L 20.08 128.07 L 14.61 128.07 L 14.61 127.17 L 15.46 127.17 Q 14.96 126.86 14.72 126.43 Q 14.48 126 14.48 125.41 Q 14.48 124.82 14.78 124.4 Q 15.09 123.98 15.66 123.78 z M 19.26 117.43 L 22.16 117.43 L 22.16 118.33 L 14.61 118.33 L 14.61 117.43 L 15.44 117.43 Q 14.96 117.15 14.72 116.72 Q 14.48 116.28 14.48 115.68 Q 14.48 114.69 15.27 114.06 Q 16.06 113.44 17.35 113.44 Q 18.64 113.44 19.43 114.06 Q 20.22 114.69 20.22 115.68 Q 20.22 116.28 19.99 116.72 Q 19.75 117.15 19.26 117.43 M 17.35 114.37 Q 16.36 114.37 15.8 114.78 Q 15.23 115.19 15.23 115.9 Q 15.23 116.61 15.8 117.02 Q 16.36 117.43 17.35 117.43 Q 18.34 117.43 18.91 117.02 Q 19.47 116.61 19.47 115.9 Q 19.47 115.19 18.91 114.78 Q 18.34 114.37 17.35 114.37 z M 12.48 111.95 L 12.48 111.05 L 20.08 111.05 L 20.08 111.95 L 12.48 111.95 z M 14.61 109.17 L 14.61 108.27 L 20.08 108.27 L 20.08 109.17 L 14.61 109.17 M 12.48 109.17 L 12.48 108.27 L 13.62 108.27 L 13.62 109.17 L 12.48 109.17 z M 13.06 105.51 L 14.61 105.51 L 14.61 103.65 L 15.31 103.65 L 15.31 105.51 L 18.28 105.51 Q 18.95 105.51 19.14 105.32 Q 19.33 105.14 19.33 104.58 L 19.33 103.65 L 20.08 103.65 L 20.08 104.58 Q 20.08 105.62 19.7 106.01 Q 19.31 106.41 18.28 106.41 L 15.31 106.41 L 15.31 107.07 L 14.61 107.07 L 14.61 106.41 L 13.06 106.41 L 13.06 105.51 z M 17.92 102.57 L 14.61 102.57 L 14.61 101.67 L 17.89 101.67 Q 18.67 101.67 19.06 101.36 Q 19.44 101.06 19.44 100.46 Q 19.44 99.73 18.98 99.31 Q 18.51 98.88 17.71 98.88 L 14.61 98.88 L 14.61 97.99 L 20.08 97.99 L 20.08 98.88 L 19.24 98.88 Q 19.74 99.21 19.98 99.65 Q 20.22 100.08 20.22 100.65 Q 20.22 101.59 19.64 102.08 Q 19.05 102.57 17.92 102.57 M 14.48 100.31 L 14.48 100.31 z M 15.44 92.54 L 12.48 92.54 L 12.48 91.64 L 20.08 91.64 L 20.08 92.54 L 19.26 92.54 Q 19.75 92.82 19.99 93.25 Q 20.22 93.68 20.22 94.29 Q 20.22 95.28 19.43 95.91 Q 18.64 96.53 17.35 96.53 Q 16.06 96.53 15.27 95.91 Q 14.48 95.28 14.48 94.29 Q 14.48 93.68 14.72 93.25 Q 14.96 92.82 15.44 92.54 M 17.35 95.6 Q 18.34 95.6 18.91 95.19 Q 19.47 94.78 19.47 94.07 Q 19.47 93.36 18.91 92.95 Q 18.34 92.54 17.35 92.54 Q 16.36 92.54 15.8 92.95 Q 15.23 93.36 15.23 94.07 Q 15.23 94.78 15.8 95.19 Q 16.36 95.6 17.35 95.6 z M 17.12 85.11 L 17.56 85.11 L 17.56 89.24 Q 18.49 89.18 18.98 88.68 Q 19.46 88.18 19.46 87.29 Q 19.46 86.77 19.34 86.29 Q 19.21 85.8 18.95 85.32 L 19.8 85.32 Q 20.01 85.8 20.12 86.31 Q 20.22 86.82 20.22 87.34 Q 20.22 88.65 19.46 89.42 Q 18.7 90.18 17.4 90.18 Q 16.06 90.18 15.27 89.46 Q 14.48 88.73 14.48 87.5 Q 14.48 86.39 15.19 85.75 Q 15.9 85.11 17.12 85.11 M 16.86 86.01 Q 16.12 86.02 15.68 86.42 Q 15.24 86.82 15.24 87.49 Q 15.24 88.24 15.67 88.69 Q 16.09 89.14 16.86 89.21 L 16.86 86.01 z" fill="#000000"/>
</g>
<g id="text_2">
<path d="M 299.1 16.37 L 299.1 12.82 L 300.18 12.82 L 300.18 21.94 L 299.1 21.94 L 299.1 20.95 Q 298.76 21.54 298.24 21.83 Q 297.72 22.11 297 22.11 Q 295.81 22.11 295.06 21.16 Q 294.31 20.21 294.31 18.66 Q 294.31 17.12 295.06 16.17 Q 295.81 15.22 297 15.22 Q 297.72 15.22 298.24 15.51 Q 298.76 15.79 299.1 16.37 M 295.43 18.66 Q 295.43 19.85 295.91 20.53 Q 296.41 21.21 297.26 21.21 Q 298.12 21.21 298.61 20.53 Q 299.1 19.85 299.1 18.66 Q 299.1 17.47 298.61 16.8 Q 298.12 16.12 297.26 16.12 Q 296.41 16.12 295.91 16.8 Q 295.43 17.47 295.43 18.66 z M 305.38 18.64 Q 304.08 18.64 303.57 18.94 Q 303.07 19.24 303.07 19.96 Q 303.07 20.53 303.44 20.87 Q 303.82 21.21 304.47 21.21 Q 305.37 21.21 305.91 20.57 Q 306.45 19.93 306.45 18.88 L 306.45 18.64 L 305.38 18.64 M 307.53 18.19 L 307.53 21.94 L 306.45 21.94 L 306.45 20.94 Q 306.09 21.54 305.53 21.83 Q 304.98 22.11 304.19 22.11 Q 303.18 22.11 302.58 21.55 Q 301.99 20.98 301.99 20.03 Q 301.99 18.92 302.73 18.36 Q 303.47 17.8 304.94 17.8 L 306.45 17.8 L 306.45 17.69 Q 306.45 16.95 305.96 16.54 Q 305.48 16.13 304.59 16.13 Q 304.03 16.13 303.5 16.27 Q 302.96 16.4 302.47 16.67 L 302.47 15.67 Q 303.06 15.45 303.62 15.34 Q 304.18 15.22 304.7 15.22 Q 306.13 15.22 306.83 15.96 Q 307.53 16.69 307.53 18.19 z M 314.86 16.64 Q 315.27 15.91 315.83 15.56 Q 316.39 15.22 317.15 15.22 Q 318.18 15.22 318.74 15.94 Q 319.29 16.65 319.29 17.98 L 319.29 21.94 L 318.21 21.94 L 318.21 18.01 Q 318.21 17.07 317.87 16.61 Q 317.54 16.16 316.85 16.16 Q 316.02 16.16 315.53 16.71 Q 315.04 17.27 315.04 18.23 L 315.04 21.94 L 313.96 21.94 L 313.96 18.01 Q 313.96 17.06 313.63 16.61 Q 313.29 16.16 312.6 16.16 Q 311.77 16.16 311.28 16.72 Q 310.8 17.27 310.8 18.23 L 310.8 21.94 L 309.71 21.94 L 309.71 15.38 L 310.8 15.38 L 310.8 16.4 Q 311.17 15.79 311.68 15.51 Q 312.2 15.22 312.91 15.22 Q 313.62 15.22 314.12 15.58 Q 314.62 15.94 314.86 16.64 z M 322.49 20.95 L 322.49 24.43 L 321.4 24.43 L 321.4 15.38 L 322.49 15.38 L 322.49 16.37 Q 322.83 15.79 323.34 15.51 Q 323.86 15.22 324.58 15.22 Q 325.78 15.22 326.52 16.17 Q 327.27 17.12 327.27 18.66 Q 327.27 20.21 326.52 21.16 Q 325.78 22.11 324.58 22.11 Q 323.86 22.11 323.34 21.83 Q 322.83 21.54 322.49 20.95 M 326.15 18.66 Q 326.15 17.47 325.66 16.8 Q 325.18 16.12 324.32 16.12 Q 323.46 16.12 322.97 16.8 Q 322.49 17.47 322.49 18.66 Q 322.49 19.85 322.97 20.53 Q 323.46 21.21 324.32 21.21 Q 325.18 21.21 325.66 20.53 Q 326.15 19.85 326.15 18.66 z M 334.67 18.39 L 334.67 18.92 L 329.72 18.92 Q 329.79 20.03 330.38 20.61 Q 330.99 21.19 332.06 21.19 Q 332.68 21.19 333.26 21.04 Q 333.85 20.89 334.42 20.59 L 334.42 21.6 Q 333.84 21.85 333.23 21.98 Q 332.62 22.11 332 22.11 Q 330.43 22.11 329.51 21.19 Q 328.59 20.28 328.59 18.72 Q 328.59 17.11 329.46 16.17 Q 330.33 15.22 331.81 15.22 Q 333.13 15.22 333.9 16.07 Q 334.67 16.92 334.67 18.39 M 333.6 18.07 Q 333.58 17.19 333.1 16.66 Q 332.62 16.13 331.82 16.13 Q 330.92 16.13 330.37 16.64 Q 329.83 17.15 329.75 18.08 L 333.6 18.07 z M 340.76 16.37 L 340.76 12.82 L 341.84 12.82 L 341.84 21.94 L 340.76 21.94 L 340.76 20.95 Q 340.42 21.54 339.9 21.83 Q 339.38 22.11 338.66 22.11 Q 337.47 22.11 336.72 21.16 Q 335.97 20.21 335.97 18.66 Q 335.97 17.12 336.72 16.17 Q 337.47 15.22 338.66 15.22 Q 339.38 15.22 339.9 15.51 Q 340.42 15.79 340.76 16.37 M 337.09 18.66 Q 337.09 19.85 337.57 20.53 Q 338.07 21.21 338.92 21.21 Q 339.78 21.21 340.27 20.53 Q 340.76 19.85 340.76 18.66 Q 340.76 17.47 340.27 16.8 Q 339.78 16.12 338.92 16.12 Q 338.07 16.12 337.57 16.8 Q 337.09 17.47 337.09 18.66 z z M 350.42 16.13 Q 349.55 16.13 349.05 16.81 Q 348.54 17.49 348.54 18.66 Q 348.54 19.84 349.04 20.52 Q 349.54 21.19 350.42 21.19 Q 351.28 21.19 351.78 20.51 Q 352.29 19.84 352.29 18.66 Q 352.29 17.5 351.78 16.82 Q 351.28 16.13 350.42 16.13 M 350.42 15.22 Q 351.82 15.22 352.63 16.13 Q 353.43 17.05 353.43 18.66 Q 353.43 20.27 352.63 21.19 Q 351.82 22.11 350.42 22.11 Q 349.01 22.11 348.2 21.19 Q 347.41 20.27 347.41 18.66 Q 347.41 17.05 348.2 16.13 Q 349.01 15.22 350.42 15.22 z M 359.4 15.57 L 359.4 16.59 Q 358.94 16.35 358.45 16.24 Q 357.96 16.12 357.43 16.12 Q 356.63 16.12 356.22 16.37 Q 355.83 16.61 355.83 17.1 Q 355.83 17.48 356.11 17.7 Q 356.4 17.91 357.27 18.1 L 357.64 18.18 Q 358.78 18.43 359.27 18.88 Q 359.75 19.33 359.75 20.13 Q 359.75 21.04 359.02 21.58 Q 358.3 22.11 357.04 22.11 Q 356.51 22.11 355.94 22.01 Q 355.37 21.9 354.74 21.7 L 354.74 20.59 Q 355.33 20.9 355.91 21.05 Q 356.49 21.21 357.06 21.21 Q 357.82 21.21 358.23 20.95 Q 358.64 20.68 358.64 20.21 Q 358.64 19.77 358.35 19.54 Q 358.05 19.3 357.05 19.09 L 356.68 19 Q 355.67 18.79 355.23 18.35 Q 354.78 17.91 354.78 17.15 Q 354.78 16.23 355.44 15.72 Q 356.1 15.22 357.3 15.22 Q 357.9 15.22 358.43 15.31 Q 358.95 15.39 359.4 15.57 z M 366.19 15.63 L 366.19 16.64 Q 365.73 16.38 365.27 16.26 Q 364.81 16.13 364.35 16.13 Q 363.3 16.13 362.72 16.8 Q 362.14 17.46 362.14 18.66 Q 362.14 19.86 362.72 20.53 Q 363.3 21.19 364.35 21.19 Q 364.81 21.19 365.27 21.07 Q 365.73 20.94 366.19 20.69 L 366.19 21.69 Q 365.74 21.9 365.25 22 Q 364.77 22.11 364.23 22.11 Q 362.75 22.11 361.87 21.18 Q 361 20.25 361 18.66 Q 361 17.06 361.88 16.14 Q 362.76 15.22 364.3 15.22 Q 364.8 15.22 365.27 15.32 Q 365.75 15.42 366.19 15.63 z M 368.07 15.38 L 369.14 15.38 L 369.14 21.94 L 368.07 21.94 L 368.07 15.38 M 368.07 12.82 L 369.14 12.82 L 369.14 14.19 L 368.07 14.19 L 368.07 12.82 z M 371.4 12.82 L 372.48 12.82 L 372.48 21.94 L 371.4 21.94 L 371.4 12.82 z M 374.73 12.82 L 375.81 12.82 L 375.81 21.94 L 374.73 21.94 L 374.73 12.82 z M 381.05 18.64 Q 379.74 18.64 379.24 18.94 Q 378.74 19.24 378.74 19.96 Q 378.74 20.53 379.11 20.87 Q 379.49 21.21 380.14 21.21 Q 381.04 21.21 381.58 20.57 Q 382.12 19.93 382.12 18.88 L 382.12 18.64 L 381.05 18.64 M 383.2 18.19 L 383.2 21.94 L 382.12 21.94 L 382.12 20.94 Q 381.75 21.54 381.2 21.83 Q 380.65 22.11 379.85 22.11 Q 378.85 22.11 378.25 21.55 Q 377.66 20.98 377.66 20.03 Q 377.66 18.92 378.4 18.36 Q 379.14 17.8 380.61 17.8 L 382.12 17.8 L 382.12 17.69 Q 382.12 16.95 381.63 16.54 Q 381.14 16.13 380.26 16.13 Q 379.7 16.13 379.16 16.27 Q 378.63 16.4 378.14 16.67 L 378.14 15.67 Q 378.73 15.45 379.29 15.34 Q 379.84 15.22 380.37 15.22 Q 381.79 15.22 382.5 15.96 Q 383.2 16.69 383.2 18.19 z M 386.49 13.51 L 386.49 15.38 L 388.71 15.38 L 388.71 16.21 L 386.49 16.21 L 386.49 19.78 Q 386.49 20.58 386.7 20.81 Q 386.93 21.04 387.6 21.04 L 388.71 21.04 L 388.71 21.94 L 387.6 21.94 Q 386.35 21.94 385.88 21.48 Q 385.4 21.01 385.4 19.78 L 385.4 16.21 L 384.61 16.21 L 384.61 15.38 L 385.4 15.38 L 385.4 13.51 L 386.49 13.51 z M 392.67 16.13 Q 391.8 16.13 391.3 16.81 Q 390.79 17.49 390.79 18.66 Q 390.79 19.84 391.29 20.52 Q 391.8 21.19 392.67 21.19 Q 393.53 21.19 394.03 20.51 Q 394.54 19.84 394.54 18.66 Q 394.54 17.5 394.03 16.82 Q 393.53 16.13 392.67 16.13 M 392.67 15.22 Q 394.08 15.22 394.88 16.13 Q 395.68 17.05 395.68 18.66 Q 395.68 20.27 394.88 21.19 Q 394.08 22.11 392.67 22.11 Q 391.26 22.11 390.45 21.19 Q 389.66 20.27 389.66 18.66 Q 389.66 17.05 390.45 16.13 Q 391.26 15.22 392.67 15.22 z M 401.27 16.38 Q 401.09 16.28 400.87 16.23 Q 400.66 16.18 400.4 16.18 Q 399.49 16.18 399 16.78 Q 398.51 17.37 398.51 18.48 L 398.51 21.94 L 397.43 21.94 L 397.43 15.38 L 398.51 15.38 L 398.51 16.4 Q 398.85 15.8 399.4 15.51 Q 399.94 15.22 400.72 15.22 Q 400.83 15.22 400.97 15.24 Q 401.1 15.25 401.27 15.28 L 401.27 16.38 z" fill="#000000"/>
</g>
</g>
<g id="axes_2">
<path d="M 49.34 422.92 L 637.2 422.92 L 637.2 264.77 L 49.34 264.77 z" fill="#ffffff"/>
<g id="grid_1">
<path d="M 76.06 422.92 L 76.06 264.77" fill="none" stroke="#b0b0b0" stroke-width="0.8" stroke-linejoin="round"/>
<path d="M 161.12 422.92 L 161.12 264.77" fill="none" stroke="#b0b0b0" stroke-width="0.8" stroke-linejoin="round"/>
<path d="M 246.17 422.92 L 246.17 264.77" fill="none" stroke="#b0b0b0" stroke-width="0.8" stroke-linejoin="round"/>
<path d="M 331.23 422.92 L 331.23 264.77" fill="none" stroke="#b0b0b0" stroke-width="0.8" stroke-linejoin="round"/>
<path d="M 416.28 422.92 L 416.28 264.77" fill="none" stroke="#b0b0b0" stroke-width="0.8" stroke-linejoin="round"/>
<path d="M 501.34 422.92 L 501.34 264.77" fill="none" stroke="#b0b0b0" stroke-width="0.8" stroke-linejoin="round"/>
<path d="M 586.39 422.92 L 586.39 264.77" fill="none" stroke="#b0b0b0" stroke-width="0.8" stroke-linejoin="round"/>
<path d="M 49.34 415.73 L 637.2 415.73" fill="none" stroke="#b0b0b0" stroke-width="0.8" stroke-linejoin="round"/>
<path d="M 49.34 391.77 L 637.2 391.77" fill="none" stroke="#b0b0b0" stroke-width="0.8" stroke-linejoin="round"/>
<path d="M 49.34 367.81 L 637.2 367.81" fill="none" stroke="#b0b0b0" stroke-width="0.8" stroke-linejoin="round"/>
<path d="M 49.34 343.84 L 637.2 343.84" fill="none" stroke="#b0b0b0" stroke-width="0.8" stroke-linejoin="round"/>
<path d="M 49.34 319.88 L 637.2 319.88" fill="none" stroke="#b0b0b0" stroke-width="0.8" stroke-linejoin="round"/>
<path d="M 49.34 295.92 L 637.2 295.92" fill="none" stroke="#b0b0b0" stroke-width="0.8" stroke-linejoin="round"/>
<path d="M 49.34 271.96 L 637.2 271.96" fill="none" stroke="#b0b0b0" stroke-width="0.8" stroke-linejoin="round"/>
</g>
<g id="patch_2">
<path clip-path="url(#p2)" d="M 246.17 422.92 L 331.23 422.92 L 331.23 264.77 L 246.17 264.77 z" fill="#ff7f0e" fill-opacity="0.25"/>
</g>
<g id="line2d_3">
<path clip-path="url(#p2)" d="M 76.06 319.88 L 102.85 319.88 L 102.85 271.96 L 196.61 271.96 L 196.61 319.88 L 223.4 319.88 L 223.4 367.81 L 251.52 367.81 L 251.52 415.73 L 343.94 415.73 L 343.94 367.81 L 372.07 367.81 L 372.07 319.88 L 400.2 319.88 L 400.2 271.96 L 492.61 271.96 L 492.61 319.88 L 520.74 319.88 L 520.74 367.81 L 548.87 367.81 L 548.87 415.73 L 610.48 415.73 L 610.48 415.73" fill="none" stroke="#2ca02c" stroke-width="1.5" stroke-linecap="square" stroke-linejoin="round"/>
</g>
<g id="spines_2">
<path d="M 49.34 422.92 L 637.2 422.92 L 637.2 264.77 L 49.34 264.77 z" fill="none" stroke="#000000" stroke-width="0.8" stroke-linecap="square" stroke-linejoin="round"/>
</g>
<g id="xtick_2">
<path d="M 76.06 422.92 L 76.06 426.42" fill="none" stroke="#000000" stroke-width="0.8" stroke-linejoin="round"/>
<path d="M 76.06 432.56 Q 75.3 432.56 74.91 433.31 Q 74.53 434.06 74.53 435.56 Q 74.53 437.06 74.91 437.81 Q 75.3 438.56 76.06 438.56 Q 76.83 438.56 77.21 437.81 Q 77.6 437.06 77.6 435.56 Q 77.6 434.06 77.21 433.31 Q 76.83 432.56 76.06 432.56 M 76.06 431.78 Q 77.29 431.78 77.93 432.75 Q 78.58 433.72 78.58 435.56 Q 78.58 437.4 77.93 438.38 Q 77.29 439.34 76.06 439.34 Q 74.84 439.34 74.19 438.38 Q 73.54 437.4 73.54 435.56 Q 73.54 433.72 74.19 432.75 Q 74.84 431.78 76.06 431.78 z" fill="#000000"/>
<path d="M 161.12 422.92 L 161.12 426.42" fill="none" stroke="#000000" stroke-width="0.8" stroke-linejoin="round"/>
<path d="M 159.86 438.37 L 163.3 438.37 L 163.3 439.2 L 158.67 439.2 L 158.67 438.37 Q 159.23 437.79 160.2 436.81 Q 161.17 435.83 161.42 435.55 Q 161.89 435.02 162.08 434.65 Q 162.27 434.28 162.27 433.92 Q 162.27 433.34 161.86 432.98 Q 161.45 432.61 160.8 432.61 Q 160.34 432.61 159.82 432.77 Q 159.31 432.93 158.72 433.26 L 158.72 432.26 Q 159.32 432.02 159.83 431.9 Q 160.35 431.78 160.78 431.78 Q 161.91 431.78 162.59 432.35 Q 163.26 432.91 163.26 433.86 Q 163.26 434.31 163.09 434.71 Q 162.92 435.11 162.48 435.66 Q 162.36 435.8 161.7 436.48 Q 161.05 437.16 159.86 438.37 z" fill="#000000"/>
<path d="M 246.17 422.92 L 246.17 426.42" fill="none" stroke="#000000" stroke-width="0.8" stroke-linejoin="round"/>
<path d="M 246.77 432.77 L 244.28 436.66 L 246.77 436.66 L 246.77 432.77 M 246.51 431.91 L 247.75 431.91 L 247.75 436.66 L 248.79 436.66 L 248.79 437.48 L 247.75 437.48 L 247.75 439.2 L 246.77 439.2 L 246.77 437.48 L 243.48 437.48 L 243.48 436.53 L 246.51 431.91 z" fill="#000000"/>
<path d="M 331.23 422.92 L 331.23 426.42" fill="none" stroke="#000000" stroke-width="0.8" stroke-linejoin="round"/>
<path d="M 331.35 435.16 Q 330.68 435.16 330.29 435.62 Q 329.91 436.07 329.91 436.86 Q 329.91 437.65 330.29 438.11 Q 330.68 438.56 331.35 438.56 Q 332.01 438.56 332.4 438.11 Q 332.79 437.65 332.79 436.86 Q 332.79 436.07 332.4 435.62 Q 332.01 435.16 331.35 435.16 M 333.31 432.07 L 333.31 432.97 Q 332.94 432.79 332.55 432.7 Q 332.18 432.61 331.81 432.61 Q 330.83 432.61 330.31 433.27 Q 329.8 433.93 329.73 435.26 Q 330.02 434.84 330.45 434.61 Q 330.88 434.38 331.41 434.38 Q 332.51 434.38 333.14 435.05 Q 333.78 435.71 333.78 436.86 Q 333.78 437.99 333.12 438.66 Q 332.45 439.34 331.35 439.34 Q 330.08 439.34 329.41 438.38 Q 328.75 437.4 328.75 435.56 Q 328.75 433.83 329.57 432.81 Q 330.39 431.78 331.77 431.78 Q 332.14 431.78 332.52 431.85 Q 332.9 431.93 333.31 432.07 z" fill="#000000"/>
<path d="M 416.28 422.92 L 416.28 426.42" fill="none" stroke="#000000" stroke-width="0.8" stroke-linejoin="round"/>
<path d="M 416.28 435.74 Q 415.58 435.74 415.17 436.12 Q 414.77 436.49 414.77 437.15 Q 414.77 437.81 415.17 438.19 Q 415.58 438.56 416.28 438.56 Q 416.98 438.56 417.39 438.19 Q 417.79 437.8 417.79 437.15 Q 417.79 436.49 417.39 436.12 Q 416.99 435.74 416.28 435.74 M 415.29 435.32 Q 414.66 435.16 414.3 434.73 Q 413.95 434.29 413.95 433.67 Q 413.95 432.79 414.57 432.29 Q 415.2 431.78 416.28 431.78 Q 417.37 431.78 417.99 432.29 Q 418.61 432.79 418.61 433.67 Q 418.61 434.29 418.25 434.73 Q 417.9 435.16 417.27 435.32 Q 417.99 435.49 418.38 435.97 Q 418.78 436.45 418.78 437.15 Q 418.78 438.21 418.13 438.78 Q 417.49 439.34 416.28 439.34 Q 415.08 439.34 414.43 438.78 Q 413.78 438.21 413.78 437.15 Q 413.78 436.45 414.18 435.97 Q 414.58 435.49 415.29 435.32 M 414.93 433.76 Q 414.93 434.33 415.29 434.65 Q 415.64 434.96 416.28 434.96 Q 416.92 434.96 417.27 434.65 Q 417.63 434.33 417.63 433.76 Q 417.63 433.2 417.27 432.88 Q 416.92 432.56 416.28 432.56 Q 415.64 432.56 415.29 432.88 Q 414.93 433.2 414.93 433.76 z" fill="#000000"/>
<path d="M 501.34 422.92 L 501.34 426.42" fill="none" stroke="#000000" stroke-width="0.8" stroke-linejoin="round"/>
<path d="M 496.22 438.37 L 497.83 438.37 L 497.83 432.81 L 496.07 433.16 L 496.07 432.26 L 497.82 431.91 L 498.8 431.91 L 498.8 438.37 L 500.42 438.37 L 500.42 439.2 L 496.22 439.2 L 496.22 438.37 z M 504.52 432.56 Q 503.76 432.56 503.37 433.31 Q 502.99 434.06 502.99 435.56 Q 502.99 437.06 503.37 437.81 Q 503.76 438.56 504.52 438.56 Q 505.28 438.56 505.66 437.81 Q 506.05 437.06 506.05 435.56 Q 506.05 434.06 505.66 433.31 Q 505.28 432.56 504.52 432.56 M 504.52 431.78 Q 505.74 431.78 506.39 432.75 Q 507.04 433.72 507.04 435.56 Q 507.04 437.4 506.39 438.38 Q 505.74 439.34 504.52 439.34 Q 503.29 439.34 502.64 438.38 Q 502 437.4 502 435.56 Q 502 433.72 502.64 432.75 Q 503.29 431.78 504.52 431.78 z" fill="#000000"/>
<path d="M 586.39 422.92 L 586.39 426.42" fill="none" stroke="#000000" stroke-width="0.8" stroke-linejoin="round"/>
<path d="M 581.27 438.37 L 582.88 438.37 L 582.88 432.81 L 581.13 433.16 L 581.13 432.26 L 582.87 431.91 L 583.86 431.91 L 583.86 438.37 L 585.47 438.37 L 585.47 439.2 L 581.27 439.2 L 581.27 438.37 z M 588.31 438.37 L 591.75 438.37 L 591.75 439.2 L 587.13 439.2 L 587.13 438.37 Q 587.69 437.79 588.65 436.81 Q 589.63 435.83 589.87 435.55 Q 590.35 435.02 590.53 434.65 Q 590.72 434.28 590.72 433.92 Q 590.72 433.34 590.31 432.98 Q 589.91 432.61 589.25 432.61 Q 588.79 432.61 588.27 432.77 Q 587.76 432.93 587.17 433.26 L 587.17 432.26 Q 587.77 432.02 588.29 431.9 Q 588.81 431.78 589.23 431.78 Q 590.37 431.78 591.04 432.35 Q 591.72 432.91 591.72 433.86 Q 591.72 434.31 591.54 434.71 Q 591.38 435.11 590.93 435.66 Q 590.81 435.8 590.16 436.48 Q 589.5 437.16 588.31 438.37 z" fill="#000000"/>
</g>
<g id="ytick_2">
<path d="M 49.34 415.73 L 45.84 415.73" fill="none" stroke="#000000" stroke-width="0.8" stroke-linejoin="round"/>
<path d="M 29.62 412.55 Q 28.86 412.55 28.47 413.3 Q 28.09 414.05 28.09 415.55 Q 28.09 417.05 28.47 417.81 Q 28.86 418.55 29.62 418.55 Q 30.39 418.55 30.77 417.81 Q 31.15 417.05 31.15 415.55 Q 31.15 414.05 30.77 413.3 Q 30.39 412.55 29.62 412.55 M 29.62 411.77 Q 30.84 411.77 31.49 412.74 Q 32.14 413.71 32.14 415.55 Q 32.14 417.4 31.49 418.37 Q 30.84 419.33 29.62 419.33 Q 28.39 419.33 27.74 418.37 Q 27.1 417.4 27.1 415.55 Q 27.1 413.71 27.74 412.74 Q 28.39 411.77 29.62 411.77 z M 33.87 417.95 L 34.9 417.95 L 34.9 419.19 L 33.87 419.19 L 33.87 417.95 z M 39.16 412.55 Q 38.4 412.55 38.01 413.3 Q 37.63 414.05 37.63 415.55 Q 37.63 417.05 38.01 417.81 Q 38.4 418.55 39.16 418.55 Q 39.93 418.55 40.31 417.81 Q 40.69 417.05 40.69 415.55 Q 40.69 414.05 40.31 413.3 Q 39.93 412.55 39.16 412.55 M 39.16 411.77 Q 40.39 411.77 41.03 412.74 Q 41.68 413.71 41.68 415.55 Q 41.68 417.4 41.03 418.37 Q 40.39 419.33 39.16 419.33 Q 37.93 419.33 37.29 418.37 Q 36.64 417.4 36.64 415.55 Q 36.64 413.71 37.29 412.74 Q 37.93 411.77 39.16 411.77 z" fill="#000000"/>
<path d="M 49.34 391.77 L 45.84 391.77" fill="none" stroke="#000000" stroke-width="0.8" stroke-linejoin="round"/>
<path d="M 29.62 388.59 Q 28.86 388.59 28.47 389.34 Q 28.09 390.09 28.09 391.59 Q 28.09 393.09 28.47 393.84 Q 28.86 394.59 29.62 394.59 Q 30.39 394.59 30.77 393.84 Q 31.15 393.09 31.15 391.59 Q 31.15 390.09 30.77 389.34 Q 30.39 388.59 29.62 388.59 M 29.62 387.81 Q 30.84 387.81 31.49 388.78 Q 32.14 389.75 32.14 391.59 Q 32.14 393.43 31.49 394.4 Q 30.84 395.37 29.62 395.37 Q 28.39 395.37 27.74 394.4 Q 27.1 393.43 27.1 391.59 Q 27.1 389.75 27.74 388.78 Q 28.39 387.81 29.62 387.81 z M 33.87 393.99 L 34.9 393.99 L 34.9 395.23 L 33.87 395.23 L 33.87 393.99 z M 37.06 387.94 L 40.93 387.94 L 40.93 388.77 L 37.96 388.77 L 37.96 390.56 Q 38.18 390.48 38.39 390.45 Q 38.61 390.41 38.82 390.41 Q 40.04 390.41 40.76 391.08 Q 41.47 391.75 41.47 392.89 Q 41.47 394.07 40.74 394.72 Q 40.01 395.37 38.67 395.37 Q 38.21 395.37 37.73 395.29 Q 37.26 395.22 36.75 395.06 L 36.75 394.07 Q 37.19 394.31 37.66 394.42 Q 38.13 394.54 38.65 394.54 Q 39.5 394.54 39.99 394.1 Q 40.48 393.65 40.48 392.89 Q 40.48 392.13 39.99 391.68 Q 39.5 391.24 38.65 391.24 Q 38.26 391.24 37.86 391.33 Q 37.47 391.42 37.06 391.6 L 37.06 387.94 z" fill="#000000"/>
<path d="M 49.34 367.81 L 45.84 367.81" fill="none" stroke="#000000" stroke-width="0.8" stroke-linejoin="round"/>
<path d="M 27.68 370.44 L 29.29 370.44 L 29.29 364.88 L 27.54 365.23 L 27.54 364.33 L 29.28 363.98 L 30.27 363.98 L 30.27 370.44 L 31.88 370.44 L 31.88 371.27 L 27.68 371.27 L 27.68 370.44 z M 33.87 370.03 L 34.9 370.03 L 34.9 371.27 L 33.87 371.27 L 33.87 370.03 z M 39.16 364.63 Q 38.4 364.63 38.01 365.38 Q 37.63 366.13 37.63 367.63 Q 37.63 369.13 38.01 369.88 Q 38.4 370.63 39.16 370.63 Q 39.93 370.63 40.31 369.88 Q 40.69 369.13 40.69 367.63 Q 40.69 366.13 40.31 365.38 Q 39.93 364.63 39.16 364.63 M 39.16 363.85 Q 40.39 363.85 41.03 364.82 Q 41.68 365.78 41.68 367.63 Q 41.68 369.47 41.03 370.44 Q 40.39 371.41 39.16 371.41 Q 37.93 371.41 37.29 370.44 Q 36.64 369.47 36.64 367.63 Q 36.64 365.78 37.29 364.82 Q 37.93 363.85 39.16 363.85 z" fill="#000000"/>
<path d="M 49.34 343.84 L 45.84 343.84" fill="none" stroke="#000000" stroke-width="0.8" stroke-linejoin="round"/>
<path d="M 27.68 346.48 L 29.29 346.48 L 29.29 340.91 L 27.54 341.27 L 27.54 340.37 L 29.28 340.02 L 30.27 340.02 L 30.27 346.48 L 31.88 346.48 L 31.88 347.31 L 27.68 347.31 L 27.68 346.48 z M 33.87 346.07 L 34.9 346.07 L 34.9 347.31 L 33.87 347.31 L 33.87 346.07 z M 37.06 340.02 L 40.93 340.02 L 40.93 340.85 L 37.96 340.85 L 37.96 342.63 Q 38.18 342.56 38.39 342.53 Q 38.61 342.49 38.82 342.49 Q 40.04 342.49 40.76 343.16 Q 41.47 343.82 41.47 344.97 Q 41.47 346.14 40.74 346.8 Q 40.01 347.45 38.67 347.45 Q 38.21 347.45 37.73 347.37 Q 37.26 347.29 36.75 347.13 L 36.75 346.14 Q 37.19 346.38 37.66 346.5 Q 38.13 346.62 38.65 346.62 Q 39.5 346.62 39.99 346.17 Q 40.48 345.73 40.48 344.97 Q 40.48 344.21 39.99 343.76 Q 39.5 343.32 38.65 343.32 Q 38.26 343.32 37.86 343.4 Q 37.47 343.49 37.06 343.68 L 37.06 340.02 z" fill="#000000"/>
<path d="M 49.34 319.88 L 45.84 319.88" fill="none" stroke="#000000" stroke-width="0.8" stroke-linejoin="round"/>
<path d="M 28.36 322.51 L 31.8 322.51 L 31.8 323.34 L 27.17 323.34 L 27.17 322.51 Q 27.73 321.93 28.7 320.96 Q 29.67 319.97 29.92 319.69 Q 30.4 319.16 30.58 318.79 Q 30.77 318.42 30.77 318.07 Q 30.77 317.48 30.36 317.12 Q 29.96 316.75 29.3 316.75 Q 28.84 316.75 28.32 316.91 Q 27.81 317.07 27.22 317.4 L 27.22 316.41 Q 27.82 316.17 28.34 316.04 Q 28.85 315.92 29.28 315.92 Q 30.42 315.92 31.09 316.49 Q 31.76 317.05 31.76 318 Q 31.76 318.45 31.59 318.86 Q 31.43 319.26 30.98 319.8 Q 30.86 319.95 30.21 320.62 Q 29.55 321.3 28.36 322.51 z M 33.87 322.1 L 34.9 322.1 L 34.9 323.34 L 33.87 323.34 L 33.87 322.1 z M 39.16 316.7 Q 38.4 316.7 38.01 317.45 Q 37.63 318.2 37.63 319.71 Q 37.63 321.2 38.01 321.96 Q 38.4 322.7 39.16 322.7 Q 39.93 322.7 40.31 321.96 Q 40.69 321.2 40.69 319.71 Q 40.69 318.2 40.31 317.45 Q 39.93 316.7 39.16 316.7 M 39.16 315.92 Q 40.39 315.92 41.03 316.89 Q 41.68 317.86 41.68 319.71 Q 41.68 321.55 41.03 322.52 Q 40.39 323.49 39.16 323.49 Q 37.93 323.49 37.29 322.52 Q 36.64 321.55 36.64 319.71 Q 36.64 317.86 37.29 316.89 Q 37.93 315.92 39.16 315.92 z" fill="#000000"/>
<path d="M 49.34 295.92 L 45.84 295.92" fill="none" stroke="#000000" stroke-width="0.8" stroke-linejoin="round"/>
<path d="M 28.36 298.55 L 31.8 298.55 L 31.8 299.38 L 27.17 299.38 L 27.17 298.55 Q 27.73 297.97 28.7 296.99 Q 29.67 296.01 29.92 295.73 Q 30.4 295.2 30.58 294.83 Q 30.77 294.46 30.77 294.1 Q 30.77 293.52 30.36 293.16 Q 29.96 292.79 29.3 292.79 Q 28.84 292.79 28.32 292.95 Q 27.81 293.11 27.22 293.44 L 27.22 292.44 Q 27.82 292.2 28.34 292.08 Q 28.85 291.96 29.28 291.96 Q 30.42 291.96 31.09 292.53 Q 31.76 293.09 31.76 294.04 Q 31.76 294.49 31.59 294.89 Q 31.43 295.29 30.98 295.84 Q 30.86 295.98 30.21 296.66 Q 29.55 297.34 28.36 298.55 z M 33.87 298.14 L 34.9 298.14 L 34.9 299.38 L 33.87 299.38 L 33.87 298.14 z M 37.06 292.09 L 40.93 292.09 L 40.93 292.92 L 37.96 292.92 L 37.96 294.71 Q 38.18 294.64 38.39 294.6 Q 38.61 294.56 38.82 294.56 Q 40.04 294.56 40.76 295.23 Q 41.47 295.9 41.47 297.04 Q 41.47 298.22 40.74 298.87 Q 40.01 299.52 38.67 299.52 Q 38.21 299.52 37.73 299.44 Q 37.26 299.37 36.75 299.21 L 36.75 298.22 Q 37.19 298.46 37.66 298.58 Q 38.13 298.69 38.65 298.69 Q 39.5 298.69 39.99 298.25 Q 40.48 297.8 40.48 297.04 Q 40.48 296.28 39.99 295.84 Q 39.5 295.39 38.65 295.39 Q 38.26 295.39 37.86 295.48 Q 37.47 295.57 37.06 295.75 L 37.06 292.09 z" fill="#000000"/>
<path d="M 49.34 271.96 L 45.84 271.96" fill="none" stroke="#000000" stroke-width="0.8" stroke-linejoin="round"/>
<path d="M 30.5 271.49 Q 31.21 271.64 31.6 272.12 Q 32 272.6 32 273.3 Q 32 274.38 31.26 274.97 Q 30.52 275.56 29.15 275.56 Q 28.69 275.56 28.2 275.47 Q 27.72 275.38 27.2 275.2 L 27.2 274.25 Q 27.61 274.49 28.1 274.61 Q 28.59 274.73 29.12 274.73 Q 30.05 274.73 30.53 274.36 Q 31.02 274 31.02 273.3 Q 31.02 272.66 30.57 272.29 Q 30.12 271.93 29.31 271.93 L 28.46 271.93 L 28.46 271.12 L 29.35 271.12 Q 30.08 271.12 30.46 270.83 Q 30.85 270.54 30.85 269.99 Q 30.85 269.43 30.45 269.13 Q 30.05 268.83 29.31 268.83 Q 28.91 268.83 28.44 268.92 Q 27.98 269 27.42 269.19 L 27.42 268.31 Q 27.98 268.15 28.47 268.08 Q 28.97 268 29.4 268 Q 30.52 268 31.18 268.51 Q 31.83 269.02 31.83 269.89 Q 31.83 270.49 31.48 270.91 Q 31.14 271.33 30.5 271.49 z M 33.87 274.18 L 34.9 274.18 L 34.9 275.42 L 33.87 275.42 L 33.87 274.18 z M 39.16 268.78 Q 38.4 268.78 38.01 269.53 Q 37.63 270.28 37.63 271.78 Q 37.63 273.28 38.01 274.03 Q 38.4 274.78 39.16 274.78 Q 39.93 274.78 40.31 274.03 Q 40.69 273.28 40.69 271.78 Q 40.69 270.28 40.31 269.53 Q 39.93 268.78 39.16 268.78 M 39.16 268 Q 40.39 268 41.03 268.97 Q 41.68 269.94 41.68 271.78 Q 41.68 273.62 41.03 274.59 Q 40.39 275.56 39.16 275.56 Q 37.93 275.56 37.29 274.59 Q 36.64 273.62 36.64 271.78 Q 36.64 269.94 37.29 268.97 Q 37.93 268 39.16 268 z" fill="#000000"/>
</g>
<g id="text_3">
<path d="M 335.05 447.82 L 335.05 449.37 L 336.9 449.37 L 336.9 450.07 L 335.05 450.07 L 335.05 453.04 Q 335.05 453.71 335.23 453.9 Q 335.41 454.09 335.97 454.09 L 336.9 454.09 L 336.9 454.84 L 335.97 454.84 Q 334.93 454.84 334.54 454.46 Q 334.14 454.07 334.14 453.04 L 334.14 450.07 L 333.48 450.07 L 333.48 449.37 L 334.14 449.37 L 334.14 447.82 L 335.05 447.82 z z M 341.17 447.24 L 343.25 447.24 L 343.25 447.94 L 342.07 447.94 L 342.07 455.46 L 343.25 455.46 L 343.25 456.16 L 341.17 456.16 L 341.17 447.24 z M 348.65 449.53 L 348.65 450.38 Q 348.26 450.19 347.85 450.09 Q 347.44 449.99 347 449.99 Q 346.34 449.99 346 450.2 Q 345.67 450.4 345.67 450.81 Q 345.67 451.13 345.91 451.31 Q 346.15 451.48 346.87 451.64 L 347.18 451.71 Q 348.13 451.92 348.53 452.29 Q 348.94 452.66 348.94 453.33 Q 348.94 454.09 348.33 454.54 Q 347.73 454.98 346.68 454.98 Q 346.24 454.98 345.76 454.9 Q 345.29 454.81 344.76 454.64 L 344.76 453.71 Q 345.26 453.97 345.74 454.1 Q 346.22 454.23 346.7 454.23 Q 347.33 454.23 347.67 454.02 Q 348.02 453.8 348.02 453.4 Q 348.02 453.03 347.77 452.84 Q 347.52 452.64 346.69 452.46 L 346.37 452.39 Q 345.54 452.21 345.17 451.85 Q 344.8 451.49 344.8 450.85 Q 344.8 450.08 345.34 449.66 Q 345.89 449.24 346.9 449.24 Q 347.4 449.24 347.83 449.31 Q 348.27 449.39 348.65 449.53 z M 352.47 447.24 L 352.47 456.16 L 350.4 456.16 L 350.4 455.46 L 351.57 455.46 L 351.57 447.94 L 350.4 447.94 L 350.4 447.24 L 352.47 447.24 z" fill="#000000"/>
</g>
<g id="text_4">
<path d="M 12.48 354.79 L 12.48 353.89 L 20.08 353.89 L 20.08 354.79 L 12.48 354.79 z M 17.12 347.33 L 17.56 347.33 L 17.56 351.47 Q 18.49 351.41 18.98 350.91 Q 19.46 350.41 19.46 349.51 Q 19.46 349 19.34 348.51 Q 19.21 348.02 18.95 347.54 L 19.8 347.54 Q 20.01 348.03 20.12 348.54 Q 20.22 349.04 20.22 349.57 Q 20.22 350.88 19.46 351.64 Q 18.7 352.4 17.4 352.4 Q 16.06 352.4 15.27 351.68 Q 14.48 350.95 14.48 349.72 Q 14.48 348.62 15.19 347.98 Q 15.9 347.33 17.12 347.33 M 16.86 348.23 Q 16.12 348.24 15.68 348.65 Q 15.24 349.05 15.24 349.71 Q 15.24 350.46 15.67 350.92 Q 16.09 351.37 16.86 351.44 L 16.86 348.23 z M 14.61 346.5 L 14.61 345.55 L 19.2 343.84 L 14.61 342.13 L 14.61 341.18 L 20.08 343.23 L 20.08 344.45 L 14.61 346.5 z M 17.12 335.26 L 17.56 335.26 L 17.56 339.4 Q 18.49 339.34 18.98 338.84 Q 19.46 338.34 19.46 337.44 Q 19.46 336.92 19.34 336.44 Q 19.21 335.95 18.95 335.47 L 19.8 335.47 Q 20.01 335.96 20.12 336.47 Q 20.22 336.97 20.22 337.5 Q 20.22 338.8 19.46 339.57 Q 18.7 340.33 17.4 340.33 Q 16.06 340.33 15.27 339.61 Q 14.48 338.88 14.48 337.65 Q 14.48 336.55 15.19 335.91 Q 15.9 335.26 17.12 335.26 M 16.86 336.16 Q 16.12 336.17 15.68 336.58 Q 15.24 336.98 15.24 337.64 Q 15.24 338.39 15.67 338.85 Q 16.09 339.3 16.86 339.37 L 16.86 336.16 z M 12.48 333.79 L 12.48 332.89 L 20.08 332.89 L 20.08 333.79 L 12.48 333.79 z" fill="#000000"/>
</g>
</g>
<g id="axes_3">
<g id="line2d_4">
<path clip-path="url(#p1)" d="M 84.06 37.96 L 89.34 44.4 L 94.63 50.56 L 101.23 57.88 L 107.83 64.79 L 114.43 71.32 L 121.03 77.49 L 127.63 83.33 L 134.23 88.84 L 140.84 94.04 L 147.44 98.96 L 154.04 103.61 L 160.64 108 L 167.24 112.15 L 173.84 116.07 L 181.76 120.5 L 189.69 124.63 L 197.61 128.49 L 205.53 132.09 L 213.45 135.46 L 221.37 138.61 L 230.62 142.02 L 239.86 145.17 L 249.1 148.08 L 258.34 150.77 L 268.9 153.59 L 279.47 156.16 L 290.03 158.52 L 301.91 160.92 L 313.79 163.09 L 327 165.26 L 340.2 167.19 L 354.72 169.08 L 369.25 170.75 L 385.09 172.35 L 402.25 173.85 L 420.74 175.24 L 440.54 176.5 L 462.99 177.69 L 486.75 178.73 L 513.16 179.66 L 543.53 180.5 L 577.85 181.21 L 610.86 181.73 L 610.86 181.73" fill="none" stroke="#d62728" stroke-width="1.5" stroke-dasharray="5.55,2.4" stroke-linejoin="round"/>
</g>
<g id="spines_3">
</g>
<g id="ytick_3">
<path d="M 637.2 183.31 L 640.7 183.31" fill="none" stroke="#000000" stroke-width="0.8" stroke-linejoin="round"/>
<path d="M 647.38 180.13 Q 646.62 180.13 646.23 180.88 Q 645.85 181.63 645.85 183.13 Q 645.85 184.63 646.23 185.38 Q 646.62 186.13 647.38 186.13 Q 648.15 186.13 648.53 185.38 Q 648.91 184.63 648.91 183.13 Q 648.91 181.63 648.53 180.88 Q 648.15 180.13 647.38 180.13 M 647.38 179.35 Q 648.6 179.35 649.25 180.32 Q 649.9 181.29 649.9 183.13 Q 649.9 184.97 649.25 185.94 Q 648.6 186.91 647.38 186.91 Q 646.15 186.91 645.5 185.94 Q 644.86 184.97 644.86 183.13 Q 644.86 181.29 645.5 180.32 Q 646.15 179.35 647.38 179.35 z M 651.63 185.53 L 652.66 185.53 L 652.66 186.77 L 651.63 186.77 L 651.63 185.53 z M 656.92 180.13 Q 656.16 180.13 655.77 180.88 Q 655.39 181.63 655.39 183.13 Q 655.39 184.63 655.77 185.38 Q 656.16 186.13 656.92 186.13 Q 657.69 186.13 658.07 185.38 Q 658.45 184.63 658.45 183.13 Q 658.45 181.63 658.07 180.88 Q 657.69 180.13 656.92 180.13 M 656.92 179.35 Q 658.15 179.35 658.79 180.32 Q 659.44 181.29 659.44 183.13 Q 659.44 184.97 658.79 185.94 Q 658.15 186.91 656.92 186.91 Q 655.69 186.91 655.04 185.94 Q 654.4 184.97 654.4 183.13 Q 654.4 181.29 655.04 180.32 Q 655.69 179.35 656.92 179.35 z" fill="#000000"/>
<path d="M 637.2 154.24 L 640.7 154.24" fill="none" stroke="#000000" stroke-width="0.8" stroke-linejoin="round"/>
<path d="M 647.38 151.06 Q 646.62 151.06 646.23 151.81 Q 645.85 152.56 645.85 154.06 Q 645.85 155.56 646.23 156.31 Q 646.62 157.06 647.38 157.06 Q 648.15 157.06 648.53 156.31 Q 648.91 155.56 648.91 154.06 Q 648.91 152.56 648.53 151.81 Q 648.15 151.06 647.38 151.06 M 647.38 150.28 Q 648.6 150.28 649.25 151.25 Q 649.9 152.22 649.9 154.06 Q 649.9 155.9 649.25 156.87 Q 648.6 157.84 647.38 157.84 Q 646.15 157.84 645.5 156.87 Q 644.86 155.9 644.86 154.06 Q 644.86 152.22 645.5 151.25 Q 646.15 150.28 647.38 150.28 z M 651.63 156.46 L 652.66 156.46 L 652.66 157.7 L 651.63 157.7 L 651.63 156.46 z M 655.66 156.87 L 659.1 156.87 L 659.1 157.7 L 654.47 157.7 L 654.47 156.87 Q 655.03 156.29 656 155.31 Q 656.97 154.33 657.22 154.05 Q 657.7 153.51 657.88 153.15 Q 658.07 152.78 658.07 152.42 Q 658.07 151.84 657.66 151.47 Q 657.26 151.11 656.6 151.11 Q 656.14 151.11 655.62 151.27 Q 655.11 151.43 654.52 151.76 L 654.52 150.76 Q 655.12 150.52 655.64 150.4 Q 656.15 150.28 656.58 150.28 Q 657.72 150.28 658.39 150.84 Q 659.06 151.41 659.06 152.36 Q 659.06 152.81 658.89 153.21 Q 658.73 153.61 658.28 154.16 Q 658.16 154.3 657.51 154.98 Q 656.85 155.65 655.66 156.87 z" fill="#000000"/>
<path d="M 637.2 125.17 L 640.7 125.17" fill="none" stroke="#000000" stroke-width="0.8" stroke-linejoin="round"/>
<path d="M 647.38 121.99 Q 646.62 121.99 646.23 122.74 Q 645.85 123.49 645.85 124.99 Q 645.85 126.49 646.23 127.24 Q 646.62 127.99 647.38 127.99 Q 648.15 127.99 648.53 127.24 Q 648.91 126.49 648.91 124.99 Q 648.91 123.49 648.53 122.74 Q 648.15 121.99 647.38 121.99 M 647.38 121.21 Q 648.6 121.21 649.25 122.18 Q 649.9 123.15 649.9 124.99 Q 649.9 126.83 649.25 127.8 Q 648.6 128.77 647.38 128.77 Q 646.15 128.77 645.5 127.8 Q 644.86 126.83 644.86 124.99 Q 644.86 123.15 645.5 122.18 Q 646.15 121.21 647.38 121.21 z M 651.63 127.39 L 652.66 127.39 L 652.66 128.63 L 651.63 128.63 L 651.63 127.39 z M 657.52 122.2 L 655.03 126.09 L 657.52 126.09 L 657.52 122.2 M 657.26 121.34 L 658.5 121.34 L 658.5 126.09 L 659.54 126.09 L 659.54 126.91 L 658.5 126.91 L 658.5 128.63 L 657.52 128.63 L 657.52 126.91 L 654.23 126.91 L 654.23 125.96 L 657.26 121.34 z" fill="#000000"/>
<path d="M 637.2 96.1 L 640.7 96.1" fill="none" stroke="#000000" stroke-width="0.8" stroke-linejoin="round"/>
<path d="M 647.38 92.92 Q 646.62 92.92 646.23 93.67 Q 645.85 94.42 645.85 95.92 Q 645.85 97.42 646.23 98.17 Q 646.62 98.92 647.38 98.92 Q 648.15 98.92 648.53 98.17 Q 648.91 97.42 648.91 95.92 Q 648.91 94.42 648.53 93.67 Q 648.15 92.92 647.38 92.92 M 647.38 92.14 Q 648.6 92.14 649.25 93.11 Q 649.9 94.08 649.9 95.92 Q 649.9 97.76 649.25 98.73 Q 648.6 99.7 647.38 99.7 Q 646.15 99.7 645.5 98.73 Q 644.86 97.76 644.86 95.92 Q 644.86 94.08 645.5 93.11 Q 646.15 92.14 647.38 92.14 z M 651.63 98.32 L 652.66 98.32 L 652.66 99.56 L 651.63 99.56 L 651.63 98.32 z M 657.04 95.52 Q 656.38 95.52 655.99 95.98 Q 655.6 96.43 655.6 97.22 Q 655.6 98.01 655.99 98.47 Q 656.38 98.92 657.04 98.92 Q 657.71 98.92 658.09 98.47 Q 658.48 98.01 658.48 97.22 Q 658.48 96.43 658.09 95.98 Q 657.71 95.52 657.04 95.52 M 659 92.43 L 659 93.33 Q 658.63 93.15 658.25 93.06 Q 657.87 92.97 657.5 92.97 Q 656.52 92.97 656.01 93.63 Q 655.49 94.29 655.42 95.62 Q 655.71 95.19 656.14 94.97 Q 656.58 94.74 657.1 94.74 Q 658.2 94.74 658.83 95.41 Q 659.47 96.07 659.47 97.22 Q 659.47 98.34 658.81 99.02 Q 658.15 99.7 657.04 99.7 Q 655.78 99.7 655.11 98.73 Q 654.44 97.76 654.44 95.92 Q 654.44 94.19 655.26 93.17 Q 656.08 92.14 657.46 92.14 Q 657.83 92.14 658.21 92.21 Q 658.59 92.28 659 92.43 z" fill="#000000"/>
<path d="M 637.2 67.03 L 640.7 67.03" fill="none" stroke="#000000" stroke-width="0.8" stroke-linejoin="round"/>
<path d="M 647.38 63.85 Q 646.62 63.85 646.23 64.6 Q 645.85 65.35 645.85 66.85 Q 645.85 68.35 646.23 69.1 Q 646.62 69.85 647.38 69.85 Q 648.15 69.85 648.53 69.1 Q 648.91 68.35 648.91 66.85 Q 648.91 65.35 648.53 64.6 Q 648.15 63.85 647.38 63.85 M 647.38 63.07 Q 648.6 63.07 649.25 64.04 Q 649.9 65.01 649.9 66.85 Q 649.9 68.69 649.25 69.66 Q 648.6 70.63 647.38 70.63 Q 646.15 70.63 645.5 69.66 Q 644.86 68.69 644.86 66.85 Q 644.86 65.01 645.5 64.04 Q 646.15 63.07 647.38 63.07 z M 651.63 69.25 L 652.66 69.25 L 652.66 70.49 L 651.63 70.49 L 651.63 69.25 z M 656.92 67.03 Q 656.22 67.03 655.81 67.4 Q 655.41 67.78 655.41 68.44 Q 655.41 69.1 655.81 69.47 Q 656.22 69.85 656.92 69.85 Q 657.62 69.85 658.03 69.47 Q 658.43 69.09 658.43 68.44 Q 658.43 67.78 658.03 67.4 Q 657.63 67.03 656.92 67.03 M 655.93 66.61 Q 655.3 66.45 654.94 66.02 Q 654.59 65.58 654.59 64.96 Q 654.59 64.08 655.21 63.58 Q 655.84 63.07 656.92 63.07 Q 658.01 63.07 658.63 63.58 Q 659.25 64.08 659.25 64.96 Q 659.25 65.58 658.89 66.02 Q 658.54 66.45 657.91 66.61 Q 658.62 66.77 659.02 67.26 Q 659.42 67.74 659.42 68.44 Q 659.42 69.5 658.77 70.06 Q 658.13 70.63 656.92 70.63 Q 655.71 70.63 655.06 70.06 Q 654.42 69.5 654.42 68.44 Q 654.42 67.74 654.82 67.26 Q 655.22 66.77 655.93 66.61 M 655.57 65.05 Q 655.57 65.62 655.92 65.93 Q 656.28 66.25 656.92 66.25 Q 657.55 66.25 657.91 65.93 Q 658.27 65.62 658.27 65.05 Q 658.27 64.48 657.91 64.17 Q 657.55 63.85 656.92 63.85 Q 656.28 63.85 655.92 64.17 Q 655.57 64.48 655.57 65.05 z" fill="#000000"/>
<path d="M 637.2 37.96 L 640.7 37.96" fill="none" stroke="#000000" stroke-width="0.8" stroke-linejoin="round"/>
<path d="M 645.44 40.59 L 647.05 40.59 L 647.05 35.03 L 645.3 35.38 L 645.3 34.48 L 647.04 34.13 L 648.03 34.13 L 648.03 40.59 L 649.64 40.59 L 649.64 41.42 L 645.44 41.42 L 645.44 40.59 z M 651.63 40.18 L 652.66 40.18 L 652.66 41.42 L 651.63 41.42 L 651.63 40.18 z M 656.92 34.78 Q 656.16 34.78 655.77 35.53 Q 655.39 36.28 655.39 37.78 Q 655.39 39.28 655.77 40.03 Q 656.16 40.78 656.92 40.78 Q 657.69 40.78 658.07 40.03 Q 658.45 39.28 658.45 37.78 Q 658.45 36.28 658.07 35.53 Q 657.69 34.78 656.92 34.78 M 656.92 34 Q 658.15 34 658.79 34.97 Q 659.44 35.94 659.44 37.78 Q 659.44 39.62 658.79 40.59 Q 658.15 41.56 656.92 41.56 Q 655.69 41.56 655.04 40.59 Q 654.4 39.62 654.4 37.78 Q 654.4 35.94 655.04 34.97 Q 655.69 34 656.92 34 z" fill="#000000"/>
</g>
<g id="text_5">
<path d="M 670.43 121.65 L 670.87 121.65 L 670.87 125.78 Q 671.79 125.72 672.28 125.22 Q 672.77 124.72 672.77 123.82 Q 672.77 123.31 672.64 122.82 Q 672.51 122.33 672.26 121.86 L 673.11 121.86 Q 673.31 122.34 673.42 122.85 Q 673.53 123.35 673.53 123.88 Q 673.53 125.19 672.77 125.95 Q 672 126.71 670.7 126.71 Q 669.36 126.71 668.58 125.99 Q 667.78 125.26 667.78 124.03 Q 667.78 122.93 668.5 122.29 Q 669.21 121.65 670.43 121.65 M 670.16 122.54 Q 669.43 122.55 668.99 122.96 Q 668.55 123.36 668.55 124.02 Q 668.55 124.78 668.97 125.23 Q 669.4 125.68 670.17 125.75 L 670.16 122.54 z M 670.08 115.62 L 673.39 115.62 L 673.39 116.52 L 670.11 116.52 Q 669.34 116.52 668.95 116.83 Q 668.57 117.13 668.57 117.73 Q 668.57 118.46 669.03 118.88 Q 669.49 119.3 670.29 119.3 L 673.39 119.3 L 673.39 120.21 L 667.92 120.21 L 667.92 119.3 L 668.77 119.3 Q 668.27 118.98 668.03 118.54 Q 667.78 118.11 667.78 117.53 Q 667.78 116.59 668.37 116.11 Q 668.95 115.62 670.08 115.62 z M 670.43 109.16 L 670.87 109.16 L 670.87 113.29 Q 671.79 113.23 672.28 112.73 Q 672.77 112.23 672.77 111.33 Q 672.77 110.82 672.64 110.33 Q 672.51 109.84 672.26 109.37 L 673.11 109.37 Q 673.31 109.85 673.42 110.36 Q 673.53 110.86 673.53 111.39 Q 673.53 112.7 672.77 113.46 Q 672 114.22 670.7 114.22 Q 669.36 114.22 668.58 113.5 Q 667.78 112.77 667.78 111.54 Q 667.78 110.44 668.5 109.8 Q 669.21 109.16 670.43 109.16 M 670.16 110.05 Q 669.43 110.06 668.99 110.47 Q 668.55 110.87 668.55 111.53 Q 668.55 112.29 668.97 112.74 Q 669.4 113.19 670.17 113.26 L 670.16 110.05 z M 668.76 104.51 Q 668.67 104.66 668.63 104.84 Q 668.59 105.02 668.59 105.23 Q 668.59 106 669.08 106.41 Q 669.58 106.81 670.5 106.81 L 673.39 106.81 L 673.39 107.71 L 667.92 107.71 L 667.92 106.81 L 668.77 106.81 Q 668.27 106.53 668.03 106.07 Q 667.78 105.62 667.78 104.97 Q 667.78 104.88 667.8 104.77 Q 667.81 104.65 667.83 104.52 L 668.76 104.51 z M 670.59 100.15 Q 669.61 100.15 669.07 100.55 Q 668.54 100.95 668.54 101.68 Q 668.54 102.4 669.07 102.81 Q 669.61 103.21 670.59 103.21 Q 671.56 103.21 672.1 102.81 Q 672.63 102.4 672.63 101.68 Q 672.63 100.95 672.1 100.55 Q 671.56 100.15 670.59 100.15 M 672.71 99.25 Q 674.1 99.25 674.79 99.87 Q 675.47 100.49 675.47 101.77 Q 675.47 102.24 675.4 102.66 Q 675.32 103.08 675.18 103.48 L 674.3 103.48 Q 674.52 103.08 674.62 102.7 Q 674.72 102.31 674.72 101.91 Q 674.72 101.03 674.26 100.59 Q 673.8 100.15 672.87 100.15 L 672.42 100.15 Q 672.91 100.42 673.15 100.86 Q 673.39 101.29 673.39 101.9 Q 673.39 102.91 672.62 103.52 Q 671.85 104.14 670.59 104.14 Q 669.32 104.14 668.55 103.52 Q 667.78 102.91 667.78 101.9 Q 667.78 101.29 668.02 100.86 Q 668.26 100.42 668.75 100.15 L 667.92 100.15 L 667.92 99.25 L 672.71 99.25 z M 673.89 95.12 Q 674.87 95.5 675.17 95.86 Q 675.47 96.23 675.47 96.83 L 675.47 97.55 L 674.71 97.55 L 674.71 97.02 Q 674.71 96.65 674.54 96.45 Q 674.36 96.24 673.71 95.99 L 673.3 95.83 L 667.92 98.04 L 667.92 97.09 L 672.19 95.38 L 667.92 93.67 L 667.92 92.72 L 673.89 95.12 z" fill="#000000"/>
</g>
</g>
<path d="M 230.9 11.38 L 231.98 11.38 L 231.98 20.5 L 230.9 20.5 L 230.9 11.38 z M 237.22 17.2 Q 235.91 17.2 235.41 17.5 Q 234.9 17.8 234.9 18.52 Q 234.9 19.09 235.28 19.43 Q 235.66 19.77 236.31 19.77 Q 237.21 19.77 237.74 19.13 Q 238.29 18.49 238.29 17.44 L 238.29 17.2 L 237.22 17.2 M 239.37 16.75 L 239.37 20.5 L 238.29 20.5 L 238.29 19.5 Q 237.92 20.1 237.37 20.39 Q 236.82 20.67 236.02 20.67 Q 235.01 20.67 234.42 20.11 Q 233.82 19.54 233.82 18.59 Q 233.82 17.48 234.56 16.92 Q 235.31 16.36 236.78 16.36 L 238.29 16.36 L 238.29 16.25 Q 238.29 15.51 237.8 15.1 Q 237.31 14.69 236.43 14.69 Q 235.86 14.69 235.33 14.83 Q 234.8 14.96 234.3 15.23 L 234.3 14.24 Q 234.9 14.01 235.45 13.9 Q 236.01 13.78 236.54 13.78 Q 237.96 13.78 238.66 14.52 Q 239.37 15.25 239.37 16.75 z M 244.32 21.11 Q 243.86 22.28 243.43 22.64 Q 242.99 22.99 242.27 22.99 L 241.41 22.99 L 241.41 22.09 L 242.04 22.09 Q 242.48 22.09 242.73 21.88 Q 242.98 21.67 243.28 20.89 L 243.47 20.39 L 240.81 13.94 L 241.96 13.94 L 244.01 19.07 L 246.06 13.94 L 247.2 13.94 L 244.32 21.11 z M 251.23 14.69 Q 250.37 14.69 249.86 15.37 Q 249.36 16.05 249.36 17.22 Q 249.36 18.4 249.86 19.08 Q 250.36 19.75 251.23 19.75 Q 252.09 19.75 252.6 19.07 Q 253.1 18.4 253.1 17.22 Q 253.1 16.06 252.6 15.38 Q 252.09 14.69 251.23 14.69 M 251.23 13.78 Q 252.64 13.78 253.44 14.69 Q 254.24 15.61 254.24 17.22 Q 254.24 18.83 253.44 19.75 Q 252.64 20.67 251.23 20.67 Q 249.82 20.67 249.02 19.75 Q 248.22 18.83 248.22 17.22 Q 248.22 15.61 249.02 14.69 Q 249.82 13.78 251.23 13.78 z M 255.92 17.91 L 255.92 13.94 L 257 13.94 L 257 17.87 Q 257 18.8 257.36 19.27 Q 257.72 19.73 258.45 19.73 Q 259.32 19.73 259.83 19.17 Q 260.34 18.62 260.34 17.66 L 260.34 13.94 L 261.42 13.94 L 261.42 20.5 L 260.34 20.5 L 260.34 19.49 Q 259.95 20.09 259.42 20.38 Q 258.91 20.67 258.22 20.67 Q 257.09 20.67 256.51 19.97 Q 255.92 19.26 255.92 17.91 M 258.63 13.78 L 258.63 13.78 z M 264.7 12.07 L 264.7 13.94 L 266.92 13.94 L 266.92 14.77 L 264.7 14.77 L 264.7 18.34 Q 264.7 19.14 264.92 19.37 Q 265.14 19.6 265.82 19.6 L 266.92 19.6 L 266.92 20.5 L 265.82 20.5 Q 264.57 20.5 264.09 20.04 Q 263.62 19.57 263.62 18.34 L 263.62 14.77 L 262.83 14.77 L 262.83 13.94 L 263.62 13.94 L 263.62 12.07 L 264.7 12.07 z M 268.62 19.01 L 269.85 19.01 L 269.85 20.5 L 268.62 20.5 L 268.62 19.01 M 268.62 14.29 L 269.85 14.29 L 269.85 15.78 L 268.62 15.78 L 268.62 14.29 z z M 280.38 14.13 L 280.38 15.15 Q 279.93 14.91 279.43 14.8 Q 278.94 14.68 278.41 14.68 Q 277.61 14.68 277.21 14.93 Q 276.81 15.17 276.81 15.66 Q 276.81 16.04 277.1 16.26 Q 277.38 16.47 278.25 16.66 L 278.62 16.74 Q 279.77 16.99 280.25 17.44 Q 280.73 17.89 280.73 18.69 Q 280.73 19.6 280.01 20.14 Q 279.29 20.67 278.02 20.67 Q 277.49 20.67 276.92 20.57 Q 276.35 20.46 275.72 20.26 L 275.72 19.15 Q 276.32 19.46 276.9 19.61 Q 277.48 19.77 278.04 19.77 Q 278.81 19.77 279.22 19.51 Q 279.63 19.24 279.63 18.77 Q 279.63 18.33 279.33 18.1 Q 279.04 17.86 278.03 17.65 L 277.66 17.56 Q 276.66 17.35 276.21 16.91 Q 275.77 16.47 275.77 15.71 Q 275.77 14.79 276.42 14.28 Q 277.08 13.78 278.29 13.78 Q 278.88 13.78 279.41 13.87 Q 279.94 13.95 280.38 14.13 z M 287.91 16.54 L 287.91 20.5 L 286.83 20.5 L 286.83 16.57 Q 286.83 15.64 286.46 15.18 Q 286.1 14.72 285.38 14.72 Q 284.5 14.72 284 15.27 Q 283.49 15.83 283.49 16.79 L 283.49 20.5 L 282.41 20.5 L 282.41 11.38 L 283.49 11.38 L 283.49 14.96 Q 283.88 14.36 284.4 14.07 Q 284.93 13.78 285.62 13.78 Q 286.75 13.78 287.33 14.48 Q 287.91 15.18 287.91 16.54 z M 293.04 17.2 Q 291.73 17.2 291.23 17.5 Q 290.72 17.8 290.72 18.52 Q 290.72 19.09 291.1 19.43 Q 291.48 19.77 292.13 19.77 Q 293.03 19.77 293.57 19.13 Q 294.11 18.49 294.11 17.44 L 294.11 17.2 L 293.04 17.2 M 295.19 16.75 L 295.19 20.5 L 294.11 20.5 L 294.11 19.5 Q 293.74 20.1 293.19 20.39 Q 292.64 20.67 291.84 20.67 Q 290.84 20.67 290.24 20.11 Q 289.65 19.54 289.65 18.59 Q 289.65 17.48 290.38 16.92 Q 291.13 16.36 292.6 16.36 L 294.11 16.36 L 294.11 16.25 Q 294.11 15.51 293.62 15.1 Q 293.13 14.69 292.25 14.69 Q 291.69 14.69 291.15 14.83 Q 290.62 14.96 290.13 15.23 L 290.13 14.24 Q 290.72 14.01 291.28 13.9 Q 291.83 13.78 292.36 13.78 Q 293.78 13.78 294.49 14.52 Q 295.19 15.25 295.19 16.75 z M 301.21 14.94 Q 301.03 14.84 300.81 14.79 Q 300.6 14.74 300.35 14.74 Q 299.43 14.74 298.94 15.34 Q 298.45 15.93 298.45 17.04 L 298.45 20.5 L 297.37 20.5 L 297.37 13.94 L 298.45 13.94 L 298.45 14.96 Q 298.79 14.36 299.34 14.07 Q 299.88 13.78 300.66 13.78 Q 300.77 13.78 300.91 13.8 Q 301.04 13.81 301.21 13.84 L 301.21 14.94 z M 307.69 16.95 L 307.69 17.48 L 302.74 17.48 Q 302.81 18.59 303.4 19.17 Q 304.01 19.75 305.08 19.75 Q 305.7 19.75 306.28 19.6 Q 306.87 19.45 307.44 19.15 L 307.44 20.16 Q 306.86 20.41 306.25 20.54 Q 305.64 20.67 305.02 20.67 Q 303.45 20.67 302.53 19.75 Q 301.61 18.84 301.61 17.28 Q 301.61 15.67 302.48 14.73 Q 303.35 13.78 304.83 13.78 Q 306.15 13.78 306.92 14.63 Q 307.69 15.48 307.69 16.95 M 306.62 16.63 Q 306.6 15.75 306.12 15.22 Q 305.64 14.69 304.84 14.69 Q 303.94 14.69 303.39 15.2 Q 302.85 15.71 302.77 16.64 L 306.62 16.63 z M 314.71 13.94 L 312.33 17.13 L 314.83 20.5 L 313.56 20.5 L 311.65 17.92 L 309.74 20.5 L 308.47 20.5 L 311.02 17.07 L 308.68 13.94 L 309.96 13.94 L 311.7 16.27 L 313.44 13.94 L 314.71 13.94 z z M 324.56 12.98 L 324.56 16.24 L 327.82 16.24 L 327.82 17.24 L 324.56 17.24 L 324.56 20.5 L 323.57 20.5 L 323.57 17.24 L 320.31 17.24 L 320.31 16.24 L 323.57 16.24 L 323.57 12.98 L 324.56 12.98 z z M 335.1 12.07 L 335.1 13.94 L 337.32 13.94 L 337.32 14.77 L 335.1 14.77 L 335.1 18.34 Q 335.1 19.14 335.32 19.37 Q 335.54 19.6 336.22 19.6 L 337.32 19.6 L 337.32 20.5 L 336.22 20.5 Q 334.97 20.5 334.49 20.04 Q 334.02 19.57 334.02 18.34 L 334.02 14.77 L 333.23 14.77 L 333.23 13.94 L 334.02 13.94 L 334.02 12.07 L 335.1 12.07 z M 338.12 13.94 L 339.19 13.94 L 340.54 19.06 L 341.88 13.94 L 343.15 13.94 L 344.5 19.06 L 345.84 13.94 L 346.92 13.94 L 345.21 20.5 L 343.93 20.5 L 342.52 15.12 L 341.1 20.5 L 339.83 20.5 L 338.12 13.94 z M 348.56 13.94 L 349.63 13.94 L 349.63 20.5 L 348.56 20.5 L 348.56 13.94 M 348.56 11.38 L 349.63 11.38 L 349.63 12.75 L 348.56 12.75 L 348.56 11.38 z M 357.35 16.54 L 357.35 20.5 L 356.27 20.5 L 356.27 16.57 Q 356.27 15.64 355.9 15.18 Q 355.54 14.72 354.81 14.72 Q 353.94 14.72 353.44 15.27 Q 352.93 15.83 352.93 16.79 L 352.93 20.5 L 351.85 20.5 L 351.85 13.94 L 352.93 13.94 L 352.93 14.96 Q 353.32 14.36 353.84 14.07 Q 354.37 13.78 355.05 13.78 Q 356.19 13.78 356.77 14.48 Q 357.35 15.18 357.35 16.54 z M 364.95 13.94 L 362.58 17.13 L 365.07 20.5 L 363.8 20.5 L 361.89 17.92 L 359.98 20.5 L 358.71 20.5 L 361.26 17.07 L 358.93 13.94 L 360.2 13.94 L 361.94 16.27 L 363.68 13.94 L 364.95 13.94 z z M 374.8 12.98 L 374.8 16.24 L 378.06 16.24 L 378.06 17.24 L 374.8 17.24 L 374.8 20.5 L 373.82 20.5 L 373.82 17.24 L 370.55 17.24 L 370.55 16.24 L 373.82 16.24 L 373.82 12.98 L 374.8 12.98 z z M 388.46 14.13 L 388.46 15.15 Q 388.01 14.91 387.52 14.8 Q 387.02 14.68 386.5 14.68 Q 385.69 14.68 385.29 14.93 Q 384.89 15.17 384.89 15.66 Q 384.89 16.04 385.18 16.26 Q 385.46 16.47 386.33 16.66 L 386.7 16.74 Q 387.85 16.99 388.33 17.44 Q 388.82 17.89 388.82 18.69 Q 388.82 19.6 388.09 20.14 Q 387.37 20.67 386.1 20.67 Q 385.58 20.67 385 20.57 Q 384.43 20.46 383.8 20.26 L 383.8 19.15 Q 384.4 19.46 384.98 19.61 Q 385.56 19.77 386.13 19.77 Q 386.89 19.77 387.3 19.51 Q 387.71 19.24 387.71 18.77 Q 387.71 18.33 387.41 18.1 Q 387.12 17.86 386.12 17.65 L 385.74 17.56 Q 384.74 17.35 384.29 16.91 Q 383.85 16.47 383.85 15.71 Q 383.85 14.79 384.5 14.28 Q 385.16 13.78 386.37 13.78 Q 386.96 13.78 387.49 13.87 Q 388.02 13.95 388.46 14.13 z M 391.58 19.51 L 391.58 22.99 L 390.49 22.99 L 390.49 13.94 L 391.58 13.94 L 391.58 14.93 Q 391.92 14.35 392.43 14.07 Q 392.95 13.78 393.67 13.78 Q 394.87 13.78 395.61 14.73 Q 396.36 15.68 396.36 17.22 Q 396.36 18.77 395.61 19.72 Q 394.87 20.67 393.67 20.67 Q 392.95 20.67 392.43 20.39 Q 391.92 20.1 391.58 19.51 M 395.24 17.22 Q 395.24 16.03 394.75 15.36 Q 394.27 14.68 393.41 14.68 Q 392.55 14.68 392.06 15.36 Q 391.58 16.03 391.58 17.22 Q 391.58 18.41 392.06 19.09 Q 392.55 19.77 393.41 19.77 Q 394.27 19.77 394.75 19.09 Q 395.24 18.41 395.24 17.22 z M 401.13 17.2 Q 399.83 17.2 399.32 17.5 Q 398.82 17.8 398.82 18.52 Q 398.82 19.09 399.19 19.43 Q 399.57 19.77 400.22 19.77 Q 401.12 19.77 401.66 19.13 Q 402.21 18.49 402.21 17.44 L 402.21 17.2 L 401.13 17.2 M 403.28 16.75 L 403.28 20.5 L 402.21 20.5 L 402.21 19.5 Q 401.84 20.1 401.29 20.39 Q 400.73 20.67 399.94 20.67 Q 398.93 20.67 398.33 20.11 Q 397.74 19.54 397.74 18.59 Q 397.74 17.48 398.48 16.92 Q 399.22 16.36 400.69 16.36 L 402.21 16.36 L 402.21 16.25 Q 402.21 15.51 401.71 15.1 Q 401.23 14.69 400.34 14.69 Q 399.78 14.69 399.25 14.83 Q 398.71 14.96 398.22 15.23 L 398.22 14.24 Q 398.81 14.01 399.37 13.9 Q 399.93 13.78 400.45 13.78 Q 401.88 13.78 402.58 14.52 Q 403.28 15.25 403.28 16.75 z M 410.96 16.54 L 410.96 20.5 L 409.88 20.5 L 409.88 16.57 Q 409.88 15.64 409.52 15.18 Q 409.15 14.72 408.43 14.72 Q 407.55 14.72 407.05 15.27 Q 406.55 15.83 406.55 16.79 L 406.55 20.5 L 405.46 20.5 L 405.46 13.94 L 406.55 13.94 L 406.55 14.96 Q 406.93 14.36 407.46 14.07 Q 407.98 13.78 408.67 13.78 Q 409.8 13.78 410.38 14.48 Q 410.96 15.18 410.96 16.54 z M 417.29 14.13 L 417.29 15.15 Q 416.84 14.91 416.34 14.8 Q 415.85 14.68 415.32 14.68 Q 414.52 14.68 414.12 14.93 Q 413.72 15.17 413.72 15.66 Q 413.72 16.04 414.01 16.26 Q 414.29 16.47 415.16 16.66 L 415.53 16.74 Q 416.68 16.99 417.16 17.44 Q 417.64 17.89 417.64 18.69 Q 417.64 19.6 416.92 20.14 Q 416.2 20.67 414.93 20.67 Q 414.4 20.67 413.83 20.57 Q 413.26 20.46 412.63 20.26 L 412.63 19.15 Q 413.23 19.46 413.81 19.61 Q 414.39 19.77 414.96 19.77 Q 415.72 19.77 416.13 19.51 Q 416.54 19.24 416.54 18.77 Q 416.54 18.33 416.24 18.1 Q 415.95 17.86 414.94 17.65 L 414.57 17.56 Q 413.57 17.35 413.12 16.91 Q 412.68 16.47 412.68 15.71 Q 412.68 14.79 413.33 14.28 Q 413.99 13.78 415.2 13.78 Q 415.79 13.78 416.32 13.87 Q 416.85 13.95 417.29 14.13 z" fill="#000000"/>
</g>
</svg>
